%TF.GenerationSoftware,KiCad,Pcbnew,10.0.4*%
%TF.CreationDate,2026-08-02T22:23:38-06:00*%
%TF.ProjectId,KLON -nice_view - Copy,4b4c4f4e-202d-46e6-9963-655f76696577,v1.0.0*%
%TF.SameCoordinates,Original*%
%TF.FileFunction,Copper,L2,Bot*%
%TF.FilePolarity,Positive*%
%FSLAX46Y46*%
G04 Gerber Fmt 4.6, Leading zero omitted, Abs format (unit mm)*
G04 Created by KiCad (PCBNEW 10.0.4) date 2026-08-02 22:23:38*
%MOMM*%
%LPD*%
G01*
G04 APERTURE LIST*
G04 Aperture macros list*
%AMRotRect*
0 Rectangle, with rotation*
0 The origin of the aperture is its center*
0 $1 length*
0 $2 width*
0 $3 Rotation angle, in degrees counterclockwise*
0 Add horizontal line*
21,1,$1,$2,0,0,$3*%
%AMOutline5P*
0 Free polygon, 5 corners , with rotation*
0 The origin of the aperture is its center*
0 number of corners: always 5*
0 $1 to $10 corner X, Y*
0 $11 Rotation angle, in degrees counterclockwise*
0 create outline with 5 corners*
4,1,5,$1,$2,$3,$4,$5,$6,$7,$8,$9,$10,$1,$2,$11*%
%AMOutline6P*
0 Free polygon, 6 corners , with rotation*
0 The origin of the aperture is its center*
0 number of corners: always 6*
0 $1 to $12 corner X, Y*
0 $13 Rotation angle, in degrees counterclockwise*
0 create outline with 6 corners*
4,1,6,$1,$2,$3,$4,$5,$6,$7,$8,$9,$10,$11,$12,$1,$2,$13*%
%AMOutline7P*
0 Free polygon, 7 corners , with rotation*
0 The origin of the aperture is its center*
0 number of corners: always 7*
0 $1 to $14 corner X, Y*
0 $15 Rotation angle, in degrees counterclockwise*
0 create outline with 7 corners*
4,1,7,$1,$2,$3,$4,$5,$6,$7,$8,$9,$10,$11,$12,$13,$14,$1,$2,$15*%
%AMOutline8P*
0 Free polygon, 8 corners , with rotation*
0 The origin of the aperture is its center*
0 number of corners: always 8*
0 $1 to $16 corner X, Y*
0 $17 Rotation angle, in degrees counterclockwise*
0 create outline with 8 corners*
4,1,8,$1,$2,$3,$4,$5,$6,$7,$8,$9,$10,$11,$12,$13,$14,$15,$16,$1,$2,$17*%
%AMFreePoly0*
4,1,6,0.500000,-0.625000,-0.650000,-0.625000,-0.150000,0.000000,-0.650000,0.625000,0.500000,0.625000,0.500000,-0.625000,0.500000,-0.625000,$1*%
%AMFreePoly1*
4,1,6,0.250000,0.000000,-0.250000,-0.625000,-0.500000,-0.625000,-0.500000,0.625000,-0.250000,0.625000,0.250000,0.000000,0.250000,0.000000,$1*%
%AMFreePoly2*
4,1,6,0.600000,-1.000000,0.000000,-0.400000,-0.600000,-1.000000,-0.600000,0.250000,0.600000,0.250000,0.600000,-1.000000,0.600000,-1.000000,$1*%
%AMFreePoly3*
4,1,6,0.600000,-0.200000,0.600000,-0.400000,-0.600000,-0.400000,-0.600000,-0.200000,0.000000,0.400000,0.600000,-0.200000,0.600000,-0.200000,$1*%
G04 Aperture macros list end*
%TA.AperFunction,SMDPad,CuDef*%
%ADD10Outline5P,-1.275000X1.250000X1.275000X1.250000X1.275000X-1.250000X-0.775000X-1.250000X-1.275000X-0.750000X180.000000*%
%TD*%
%TA.AperFunction,SMDPad,CuDef*%
%ADD11Outline5P,-1.275000X0.250000X-0.275000X1.250000X1.275000X1.250000X1.275000X-1.250000X-1.275000X-1.250000X180.000000*%
%TD*%
%TA.AperFunction,SMDPad,CuDef*%
%ADD12Outline5P,-1.300000X1.300000X1.300000X1.300000X1.300000X-1.300000X-0.117000X-1.300000X-1.300000X-0.117000X0.000000*%
%TD*%
%TA.AperFunction,SMDPad,CuDef*%
%ADD13Outline5P,-1.300000X1.300000X1.300000X1.300000X1.300000X0.780000X-0.780000X-1.300000X-1.300000X-1.300000X0.000000*%
%TD*%
%TA.AperFunction,SMDPad,CuDef*%
%ADD14R,2.600000X2.600000*%
%TD*%
%TA.AperFunction,SMDPad,CuDef*%
%ADD15FreePoly0,180.000000*%
%TD*%
%TA.AperFunction,ComponentPad*%
%ADD16C,0.800000*%
%TD*%
%TA.AperFunction,SMDPad,CuDef*%
%ADD17FreePoly0,0.000000*%
%TD*%
%TA.AperFunction,SMDPad,CuDef*%
%ADD18FreePoly1,0.000000*%
%TD*%
%TA.AperFunction,ComponentPad*%
%ADD19C,1.700000*%
%TD*%
%TA.AperFunction,SMDPad,CuDef*%
%ADD20FreePoly1,180.000000*%
%TD*%
%TA.AperFunction,ComponentPad*%
%ADD21C,0.600000*%
%TD*%
%TA.AperFunction,SMDPad,CuDef*%
%ADD22RotRect,0.900000X1.200000X356.000000*%
%TD*%
%TA.AperFunction,SMDPad,CuDef*%
%ADD23FreePoly2,270.000000*%
%TD*%
%TA.AperFunction,ComponentPad*%
%ADD24O,1.750000X1.200000*%
%TD*%
%TA.AperFunction,SMDPad,CuDef*%
%ADD25FreePoly3,270.000000*%
%TD*%
%TA.AperFunction,ComponentPad*%
%ADD26O,1.600000X2.000000*%
%TD*%
%TA.AperFunction,SMDPad,CuDef*%
%ADD27R,0.900000X1.200000*%
%TD*%
%TA.AperFunction,SMDPad,CuDef*%
%ADD28RotRect,0.900000X1.200000X350.000000*%
%TD*%
%TA.AperFunction,ComponentPad*%
%ADD29C,3.800000*%
%TD*%
%TA.AperFunction,SMDPad,CuDef*%
%ADD30FreePoly1,270.000000*%
%TD*%
%TA.AperFunction,SMDPad,CuDef*%
%ADD31FreePoly0,270.000000*%
%TD*%
%TA.AperFunction,SMDPad,CuDef*%
%ADD32RotRect,0.900000X1.200000X30.000000*%
%TD*%
%TA.AperFunction,ComponentPad*%
%ADD33C,2.000000*%
%TD*%
%TA.AperFunction,ComponentPad*%
%ADD34R,3.200000X2.000000*%
%TD*%
%TA.AperFunction,SMDPad,CuDef*%
%ADD35RotRect,0.900000X1.200000X15.000000*%
%TD*%
%TA.AperFunction,ComponentPad*%
%ADD36O,2.500000X1.700000*%
%TD*%
%TA.AperFunction,SMDPad,CuDef*%
%ADD37R,1.000000X1.550000*%
%TD*%
%TA.AperFunction,SMDPad,CuDef*%
%ADD38RotRect,0.900000X1.200000X45.000000*%
%TD*%
%TA.AperFunction,SMDPad,CuDef*%
%ADD39R,0.800000X1.000000*%
%TD*%
%TA.AperFunction,SMDPad,CuDef*%
%ADD40R,1.500000X0.700000*%
%TD*%
%TA.AperFunction,ComponentPad*%
%ADD41O,1.700000X1.700000*%
%TD*%
%TA.AperFunction,SMDPad,CuDef*%
%ADD42R,1.200000X0.600000*%
%TD*%
%TA.AperFunction,SMDPad,CuDef*%
%ADD43Outline5P,-1.300000X1.300000X1.300000X1.300000X1.300000X-1.300000X-0.117000X-1.300000X-1.300000X-0.117000X350.000000*%
%TD*%
%TA.AperFunction,SMDPad,CuDef*%
%ADD44RotRect,2.600000X2.600000X350.000000*%
%TD*%
%TA.AperFunction,SMDPad,CuDef*%
%ADD45RotRect,2.550000X2.500000X170.000000*%
%TD*%
%TA.AperFunction,SMDPad,CuDef*%
%ADD46Outline5P,-1.275000X1.250000X1.275000X1.250000X1.275000X-1.250000X-0.775000X-1.250000X-1.275000X-0.750000X170.000000*%
%TD*%
%TA.AperFunction,SMDPad,CuDef*%
%ADD47RotRect,2.550000X2.500000X225.000000*%
%TD*%
%TA.AperFunction,SMDPad,CuDef*%
%ADD48Outline5P,-1.275000X1.250000X1.275000X1.250000X1.275000X-1.250000X-0.775000X-1.250000X-1.275000X-0.750000X225.000000*%
%TD*%
%TA.AperFunction,SMDPad,CuDef*%
%ADD49R,2.550000X2.500000*%
%TD*%
%TA.AperFunction,SMDPad,CuDef*%
%ADD50Outline5P,-1.300000X1.300000X1.300000X1.300000X1.300000X-1.300000X-0.117000X-1.300000X-1.300000X-0.117000X30.000000*%
%TD*%
%TA.AperFunction,SMDPad,CuDef*%
%ADD51RotRect,2.600000X2.600000X30.000000*%
%TD*%
%TA.AperFunction,SMDPad,CuDef*%
%ADD52Outline5P,-1.300000X1.300000X1.300000X1.300000X1.300000X-1.300000X-0.117000X-1.300000X-1.300000X-0.117000X356.000000*%
%TD*%
%TA.AperFunction,SMDPad,CuDef*%
%ADD53RotRect,2.600000X2.600000X356.000000*%
%TD*%
%TA.AperFunction,SMDPad,CuDef*%
%ADD54RotRect,2.550000X2.500000X210.000000*%
%TD*%
%TA.AperFunction,SMDPad,CuDef*%
%ADD55Outline5P,-1.275000X1.250000X1.275000X1.250000X1.275000X-1.250000X-0.775000X-1.250000X-1.275000X-0.750000X210.000000*%
%TD*%
%TA.AperFunction,SMDPad,CuDef*%
%ADD56Outline5P,-1.300000X1.300000X1.300000X1.300000X1.300000X-1.300000X-0.117000X-1.300000X-1.300000X-0.117000X45.000000*%
%TD*%
%TA.AperFunction,SMDPad,CuDef*%
%ADD57RotRect,2.600000X2.600000X45.000000*%
%TD*%
%TA.AperFunction,SMDPad,CuDef*%
%ADD58RotRect,2.550000X2.500000X176.000000*%
%TD*%
%TA.AperFunction,SMDPad,CuDef*%
%ADD59Outline5P,-1.275000X1.250000X1.275000X1.250000X1.275000X-1.250000X-0.775000X-1.250000X-1.275000X-0.750000X176.000000*%
%TD*%
%TA.AperFunction,SMDPad,CuDef*%
%ADD60Outline5P,-1.300000X1.300000X1.300000X1.300000X1.300000X-1.300000X-0.117000X-1.300000X-1.300000X-0.117000X15.000000*%
%TD*%
%TA.AperFunction,SMDPad,CuDef*%
%ADD61RotRect,2.600000X2.600000X15.000000*%
%TD*%
%TA.AperFunction,SMDPad,CuDef*%
%ADD62RotRect,2.550000X2.500000X195.000000*%
%TD*%
%TA.AperFunction,SMDPad,CuDef*%
%ADD63Outline5P,-1.275000X1.250000X1.275000X1.250000X1.275000X-1.250000X-0.775000X-1.250000X-1.275000X-0.750000X195.000000*%
%TD*%
%TA.AperFunction,ViaPad*%
%ADD64C,0.600000*%
%TD*%
%TA.AperFunction,Conductor*%
%ADD65C,0.200000*%
%TD*%
%TA.AperFunction,Conductor*%
%ADD66C,0.250000*%
%TD*%
G04 APERTURE END LIST*
D10*
%TO.P,S23,2*%
%TO.N,inner_home*%
X166932950Y-137720165D03*
D11*
%TO.P,S23,1*%
%TO.N,col1*%
X179859950Y-135180165D03*
%TD*%
D12*
%TO.P,S7,1*%
%TO.N,col3*%
X207499948Y-132690173D03*
D13*
%TO.P,S7,2*%
%TO.N,middle_bottom*%
X219049948Y-134890173D03*
%TD*%
D12*
%TO.P,S8,1*%
%TO.N,col3*%
X207499951Y-113690170D03*
D14*
%TO.P,S8,2*%
%TO.N,middle_home*%
X219049951Y-115890170D03*
%TD*%
D15*
%TO.P,MCU1,124*%
%TO.N,RAW*%
X153549946Y-99940166D03*
D16*
X145374949Y-99940165D03*
D15*
%TO.P,MCU1,123*%
%TO.N,GND*%
X153549946Y-102480167D03*
D16*
X145374947Y-102480165D03*
D15*
%TO.P,MCU1,122*%
%TO.N,RST*%
X153549946Y-105020167D03*
D16*
X145374945Y-105020167D03*
D15*
%TO.P,MCU1,121*%
%TO.N,VCC*%
X153549945Y-107560166D03*
D16*
X145374945Y-107560166D03*
D15*
%TO.P,MCU1,120*%
%TO.N,CS*%
X153549946Y-110100167D03*
D16*
X145374947Y-110100167D03*
D15*
%TO.P,MCU1,119*%
%TO.N,SCK*%
X153549946Y-112640167D03*
D16*
X145374945Y-112640166D03*
D15*
%TO.P,MCU1,118*%
%TO.N,MOSI*%
X153549946Y-115180166D03*
D16*
X145374946Y-115180167D03*
D15*
%TO.P,MCU1,117*%
%TO.N,P18*%
X153549945Y-117720168D03*
D16*
X145374946Y-117720167D03*
D15*
%TO.P,MCU1,116*%
%TO.N,P15*%
X153549948Y-120260167D03*
D16*
X145374946Y-120260167D03*
D15*
%TO.P,MCU1,115*%
%TO.N,P14*%
X153549946Y-122800167D03*
D16*
X145374947Y-122800169D03*
D15*
%TO.P,MCU1,114*%
%TO.N,P16*%
X153549946Y-125340168D03*
D16*
X145374946Y-125340166D03*
D15*
%TO.P,MCU1,113*%
%TO.N,P10*%
X153549948Y-127880167D03*
D16*
X145374946Y-127880167D03*
%TO.P,MCU1,112*%
%TO.N,row4*%
X152174946Y-127880167D03*
D17*
X143999944Y-127880166D03*
D16*
%TO.P,MCU1,111*%
%TO.N,row3*%
X152174943Y-125340169D03*
D17*
X143999946Y-125340168D03*
D16*
%TO.P,MCU1,110*%
%TO.N,row2*%
X152174945Y-122800169D03*
D17*
X143999946Y-122800167D03*
D16*
%TO.P,MCU1,109*%
%TO.N,row1*%
X152174947Y-120260167D03*
D17*
X143999946Y-120260167D03*
D16*
%TO.P,MCU1,108*%
%TO.N,col6*%
X152174947Y-117720168D03*
D17*
X143999947Y-117720168D03*
D16*
%TO.P,MCU1,107*%
%TO.N,col5*%
X152174945Y-115180167D03*
D17*
X143999946Y-115180167D03*
D16*
%TO.P,MCU1,106*%
%TO.N,col4*%
X152174947Y-112640168D03*
D17*
X143999946Y-112640167D03*
D16*
%TO.P,MCU1,105*%
%TO.N,col3*%
X152174946Y-110100167D03*
D17*
X143999946Y-110100168D03*
D16*
%TO.P,MCU1,104*%
%TO.N,GND*%
X152174946Y-107560167D03*
D17*
X143999947Y-107560166D03*
D16*
%TO.P,MCU1,103*%
X152174946Y-105020167D03*
D17*
X143999944Y-105020167D03*
D16*
%TO.P,MCU1,102*%
%TO.N,col2*%
X152174945Y-102480165D03*
D17*
X143999946Y-102480167D03*
D16*
%TO.P,MCU1,101*%
%TO.N,col1*%
X152174946Y-99940168D03*
D17*
X143999946Y-99940166D03*
D18*
%TO.P,MCU1,24*%
%TO.N,MCU1_24*%
X143274946Y-99940168D03*
D19*
X141154946Y-99940167D03*
D18*
%TO.P,MCU1,23*%
%TO.N,MCU1_23*%
X143274946Y-102480167D03*
D19*
X141154945Y-102480166D03*
D18*
%TO.P,MCU1,22*%
%TO.N,MCU1_22*%
X143274945Y-105020166D03*
D19*
X141154946Y-105020167D03*
D18*
%TO.P,MCU1,21*%
%TO.N,MCU1_21*%
X143274946Y-107560167D03*
D19*
X141154946Y-107560167D03*
D18*
%TO.P,MCU1,20*%
%TO.N,MCU1_20*%
X143274947Y-110100166D03*
D19*
X141154948Y-110100167D03*
D18*
%TO.P,MCU1,19*%
%TO.N,MCU1_19*%
X143274946Y-112640167D03*
D19*
X141154946Y-112640167D03*
D18*
%TO.P,MCU1,18*%
%TO.N,MCU1_18*%
X143274944Y-115180166D03*
D19*
X141154946Y-115180168D03*
D18*
%TO.P,MCU1,17*%
%TO.N,MCU1_17*%
X143274946Y-117720167D03*
D19*
X141154947Y-117720167D03*
D18*
%TO.P,MCU1,16*%
%TO.N,MCU1_16*%
X143274945Y-120260168D03*
D19*
X141154946Y-120260167D03*
D18*
%TO.P,MCU1,15*%
%TO.N,MCU1_15*%
X143274946Y-122800167D03*
D19*
X141154945Y-122800168D03*
D18*
%TO.P,MCU1,14*%
%TO.N,MCU1_14*%
X143274946Y-125340166D03*
D19*
X141154946Y-125340167D03*
D18*
%TO.P,MCU1,13*%
%TO.N,MCU1_13*%
X143274945Y-127880166D03*
D19*
X141154946Y-127880167D03*
%TO.P,MCU1,12*%
%TO.N,MCU1_12*%
X156394946Y-127880167D03*
D20*
X154274947Y-127880165D03*
D19*
%TO.P,MCU1,11*%
%TO.N,MCU1_11*%
X156394946Y-125340167D03*
D20*
X154274946Y-125340166D03*
D19*
%TO.P,MCU1,10*%
%TO.N,MCU1_10*%
X156394947Y-122800168D03*
D20*
X154274946Y-122800167D03*
D19*
%TO.P,MCU1,9*%
%TO.N,MCU1_9*%
X156394946Y-120260167D03*
D20*
X154274947Y-120260168D03*
D19*
%TO.P,MCU1,8*%
%TO.N,MCU1_8*%
X156394946Y-117720167D03*
D20*
X154274946Y-117720167D03*
D19*
%TO.P,MCU1,7*%
%TO.N,MCU1_7*%
X156394944Y-115180167D03*
D20*
X154274945Y-115180168D03*
D19*
%TO.P,MCU1,6*%
%TO.N,MCU1_6*%
X156394946Y-112640167D03*
D20*
X154274946Y-112640167D03*
D19*
%TO.P,MCU1,5*%
%TO.N,MCU1_5*%
X156394946Y-110100166D03*
D20*
X154274948Y-110100168D03*
D19*
%TO.P,MCU1,4*%
%TO.N,MCU1_4*%
X156394945Y-107560167D03*
D20*
X154274946Y-107560167D03*
D19*
%TO.P,MCU1,3*%
%TO.N,MCU1_3*%
X156394946Y-105020167D03*
D20*
X154274947Y-105020166D03*
D19*
%TO.P,MCU1,2*%
%TO.N,MCU1_2*%
X156394947Y-102480166D03*
D20*
X154274946Y-102480167D03*
D19*
%TO.P,MCU1,1*%
%TO.N,MCU1_1*%
X156394946Y-99940167D03*
D20*
X154274946Y-99940168D03*
%TD*%
D21*
%TO.P,D11,1*%
%TO.N,row2*%
X228861412Y-138350647D03*
D22*
%TO.P,D11,1,row2*%
X228861412Y-138350647D03*
D21*
%TO.P,D11,1*%
%TO.N,ring_home*%
X232153374Y-138580843D03*
D22*
%TO.P,D11,2*%
X232153374Y-138580843D03*
%TD*%
D21*
%TO.P,D12,1*%
%TO.N,row1*%
X230186785Y-119396928D03*
D22*
X230186785Y-119396928D03*
D21*
%TO.N,ring_top*%
X233478747Y-119627124D03*
D22*
%TO.P,D12,2*%
X233478747Y-119627124D03*
%TD*%
D23*
%TO.P,JST1,1*%
%TO.N,BAT_P*%
X136872949Y-144765167D03*
%TO.P,JST1,2*%
%TO.N,GND*%
X136872949Y-146765167D03*
D24*
%TO.P,JST1,11*%
%TO.N,JST1_1*%
X134056949Y-146765167D03*
%TO.P,JST1,12*%
%TO.N,JST1_2*%
X134056949Y-144765167D03*
D25*
%TO.P,JST1,31*%
%TO.N,JST1_1*%
X135856950Y-146765166D03*
%TO.P,JST1,32*%
%TO.N,JST1_2*%
X135856950Y-144765168D03*
%TD*%
D26*
%TO.P,SSD1306,1*%
%TO.N,dis1-pad4*%
X151994947Y-140440167D03*
%TO.P,SSD1306,2*%
%TO.N,dis1-pad3*%
X149454947Y-140440167D03*
%TO.P,SSD1306,3*%
%TO.N,dis1-pad2*%
X146914947Y-140440169D03*
%TO.P,SSD1306,4*%
%TO.N,dis1-pad1*%
X144374947Y-140440167D03*
%TD*%
D21*
%TO.P,D9,1*%
%TO.N,row1*%
X209124951Y-109140163D03*
D27*
X209124951Y-109140163D03*
D21*
%TO.N,middle_top*%
X212424951Y-109140165D03*
D27*
%TO.P,D9,2*%
X212424951Y-109140165D03*
%TD*%
D21*
%TO.P,D15,1*%
%TO.N,row1*%
X251160630Y-133646845D03*
D28*
X251160630Y-133646845D03*
D21*
%TO.N,pinky_top*%
X254410496Y-134219883D03*
D28*
%TO.P,D15,2*%
X254410496Y-134219883D03*
%TD*%
D29*
%TO.P,H1,*%
%TO.N,*%
X201312950Y-118315167D03*
%TD*%
D21*
%TO.P,D3,1*%
%TO.N,row1*%
X171124950Y-122140166D03*
D27*
X171124950Y-122140166D03*
D21*
%TO.N,inner_top*%
X174424950Y-122140168D03*
D27*
%TO.P,D3,2*%
X174424950Y-122140168D03*
%TD*%
D21*
%TO.P,D8,1*%
%TO.N,row2*%
X209124944Y-128140168D03*
D27*
%TO.P,D8,1,row2*%
X209124944Y-128140168D03*
D21*
%TO.P,D8,1*%
%TO.N,middle_home*%
X212424944Y-128140170D03*
D27*
%TO.P,D8,2*%
X212424944Y-128140170D03*
%TD*%
D21*
%TO.P,D5,1*%
%TO.N,row2*%
X190124950Y-137140168D03*
D27*
%TO.P,D5,1,row2*%
X190124950Y-137140168D03*
D21*
%TO.P,D5,1*%
%TO.N,index_home*%
X193424950Y-137140170D03*
D27*
%TO.P,D5,2*%
X193424950Y-137140170D03*
%TD*%
D21*
%TO.P,D17,1*%
%TO.N,row2*%
X267440901Y-150733469D03*
D28*
%TO.P,D17,1,row2*%
X267440901Y-150733469D03*
D21*
%TO.P,D17,1*%
%TO.N,pinky_extra_home*%
X270690767Y-151306507D03*
D28*
%TO.P,D17,2*%
X270690767Y-151306507D03*
%TD*%
D29*
%TO.P,H2,*%
%TO.N,*%
X182262950Y-137365170D03*
%TD*%
D30*
%TO.P,XX6,1*%
%TO.N,dis1-pad3*%
X149366979Y-143491904D03*
D31*
%TO.P,XX6,2*%
%TO.N,SCK*%
X149366979Y-144216904D03*
%TD*%
D21*
%TO.P,D16,1*%
%TO.N,row3*%
X264141587Y-169444818D03*
D28*
X264141587Y-169444818D03*
D21*
%TO.N,pinky_extra_bottom*%
X267391453Y-170017856D03*
D28*
%TO.P,D16,2*%
X267391453Y-170017856D03*
%TD*%
D21*
%TO.P,D20,1*%
%TO.N,row4*%
X156781758Y-188910259D03*
D32*
X156781758Y-188910259D03*
D21*
%TO.N,3_r0*%
X159639642Y-187260257D03*
D32*
%TO.P,D20,2*%
X159639642Y-187260257D03*
%TD*%
D21*
%TO.P,D18,1*%
%TO.N,row4*%
X193074952Y-178090170D03*
D27*
X193074952Y-178090170D03*
D21*
%TO.N,1_r0*%
X196374952Y-178090172D03*
D27*
%TO.P,D18,2*%
X196374952Y-178090172D03*
%TD*%
D33*
%TO.P,SW25,A*%
%TO.N,ENCA*%
X139796951Y-153342169D03*
%TO.P,SW25,B*%
%TO.N,ENCB*%
X139796951Y-158342169D03*
%TO.P,SW25,C*%
%TO.N,GND*%
X139796951Y-155842169D03*
D34*
%TO.P,SW25,MP*%
%TO.N,N/C*%
X147296951Y-150242169D03*
X147296951Y-161442169D03*
D33*
%TO.P,SW25,S1*%
%TO.N,col3*%
X154296951Y-158342169D03*
%TO.P,SW25,S2*%
%TO.N,SW18B*%
X154296951Y-153342169D03*
%TD*%
D21*
%TO.P,D4,1*%
%TO.N,row3*%
X190124952Y-156140166D03*
D27*
X190124952Y-156140166D03*
D21*
%TO.N,index_bottom*%
X193424952Y-156140168D03*
D27*
%TO.P,D4,2*%
X193424952Y-156140168D03*
%TD*%
D21*
%TO.P,D10,1*%
%TO.N,row3*%
X227536037Y-157304364D03*
D22*
X227536037Y-157304364D03*
D21*
%TO.N,ring_bottom*%
X230827999Y-157534560D03*
D22*
%TO.P,D10,2*%
X230827999Y-157534560D03*
%TD*%
D30*
%TO.P,XX5,1*%
%TO.N,dis1-pad2*%
X146872981Y-143491905D03*
D31*
%TO.P,XX5,2*%
%TO.N,VCC*%
X146872981Y-144216905D03*
%TD*%
D21*
%TO.P,D19,1*%
%TO.N,row4*%
X174216883Y-181108667D03*
D35*
X174216883Y-181108667D03*
D21*
%TO.N,2_r0*%
X177404439Y-180254567D03*
D35*
%TO.P,D19,2*%
X177404439Y-180254567D03*
%TD*%
D36*
%TO.P,J1,1*%
%TO.N,VCC*%
X142832950Y-173110168D03*
X142832950Y-167160168D03*
%TO.P,J1,2*%
%TO.N,GND*%
X138832951Y-173110169D03*
X138832950Y-167160168D03*
%TO.P,J1,3*%
%TO.N,RX*%
X135832949Y-173110168D03*
X135832949Y-167160167D03*
%TO.P,J1,4*%
%TO.N,TX*%
X144332951Y-171360168D03*
X144332950Y-168910168D03*
%TD*%
D30*
%TO.P,XX4,1*%
%TO.N,dis1-pad1*%
X144327979Y-143491908D03*
D31*
%TO.P,XX4,2*%
%TO.N,GND*%
X144327979Y-144216908D03*
%TD*%
D21*
%TO.P,D7,1*%
%TO.N,row3*%
X209124954Y-147140165D03*
D27*
X209124954Y-147140165D03*
D21*
%TO.N,middle_bottom*%
X212424954Y-147140167D03*
D27*
%TO.P,D7,2*%
X212424954Y-147140167D03*
%TD*%
D37*
%TO.P,RST1,1*%
%TO.N,GND*%
X133166956Y-164265167D03*
%TO.P,RST1,2*%
%TO.N,RST*%
X134866953Y-164265167D03*
%TO.P,RST1,3*%
%TO.N,GND*%
X133166957Y-159015169D03*
%TO.P,RST1,4*%
%TO.N,RST*%
X134866954Y-159015169D03*
%TD*%
D21*
%TO.P,D21,1*%
%TO.N,row4*%
X141929381Y-200963273D03*
D38*
X141929381Y-200963273D03*
D21*
%TO.N,4_r0*%
X144262837Y-198629819D03*
D38*
%TO.P,D21,2*%
X144262837Y-198629819D03*
%TD*%
D21*
%TO.P,D2,1*%
%TO.N,row2*%
X171124950Y-141140164D03*
D27*
X171124950Y-141140164D03*
D21*
%TO.N,inner_home*%
X174424950Y-141140166D03*
D27*
%TO.P,D2,2*%
X174424950Y-141140166D03*
%TD*%
D30*
%TO.P,XX7,1*%
%TO.N,dis1-pad4*%
X151911982Y-143491910D03*
D31*
%TO.P,XX7,2*%
%TO.N,MOSI*%
X151911982Y-144216910D03*
%TD*%
D21*
%TO.P,D13,1*%
%TO.N,row3*%
X244562001Y-171069542D03*
D28*
X244562001Y-171069542D03*
D21*
%TO.N,pinky_bottom*%
X247811867Y-171642580D03*
D28*
%TO.P,D13,2*%
X247811867Y-171642580D03*
%TD*%
D21*
%TO.P,D14,1*%
%TO.N,row2*%
X247861313Y-152358194D03*
D28*
%TO.P,D14,1,row2*%
X247861313Y-152358194D03*
D21*
%TO.P,D14,1*%
%TO.N,pinky_home*%
X251111179Y-152931232D03*
D28*
%TO.P,D14,2*%
X251111179Y-152931232D03*
%TD*%
D21*
%TO.P,D6,1*%
%TO.N,row1*%
X190124952Y-118140163D03*
D27*
X190124952Y-118140163D03*
D21*
%TO.N,index_top*%
X193424952Y-118140165D03*
D27*
%TO.P,D6,2*%
X193424952Y-118140165D03*
%TD*%
D39*
%TO.P,PWR1,*%
%TO.N,*%
X135122952Y-109690166D03*
X135122952Y-102390166D03*
X132912951Y-109690165D03*
X132912951Y-102390167D03*
D40*
%TO.P,PWR1,1*%
%TO.N,N/C*%
X135772951Y-108290166D03*
%TO.P,PWR1,2*%
%TO.N,RAW*%
X135772952Y-105290167D03*
%TO.P,PWR1,3*%
%TO.N,BAT_P*%
X135772951Y-103790166D03*
%TD*%
D21*
%TO.P,D1,1*%
%TO.N,row3*%
X171124953Y-160140166D03*
D27*
X171124953Y-160140166D03*
D21*
%TO.N,inner_bottom*%
X174424953Y-160140168D03*
D27*
%TO.P,D1,2*%
X174424953Y-160140168D03*
%TD*%
D29*
%TO.P,H3,*%
%TO.N,*%
X220362948Y-137365168D03*
%TD*%
D21*
%TO.P,D22,1*%
%TO.N,row3*%
X150936981Y-148852310D03*
D27*
X150936981Y-148852310D03*
D21*
%TO.N,SW18B*%
X154236981Y-148852312D03*
D27*
%TO.P,D22,2*%
X154236981Y-148852312D03*
%TD*%
D41*
%TO.P,DISP1,1*%
%TO.N,DISP1_1*%
X143694949Y-134340165D03*
%TO.P,DISP1,2*%
%TO.N,DISP1_2*%
X146234950Y-134340166D03*
%TO.P,DISP1,3*%
%TO.N,VCC*%
X148774950Y-134340166D03*
%TO.P,DISP1,4*%
%TO.N,DISP1_4*%
X151314948Y-134340166D03*
D19*
%TO.P,DISP1,5*%
%TO.N,DISP1_5*%
X153854950Y-134340164D03*
D42*
%TO.P,DISP1,20*%
X153854949Y-132590165D03*
%TO.P,DISP1,21*%
%TO.N,DISP1_4*%
X151314948Y-132590164D03*
%TO.P,DISP1,22*%
%TO.N,DISP1_2*%
X146234950Y-132590164D03*
%TO.P,DISP1,23*%
%TO.N,DISP1_1*%
X143694947Y-132590165D03*
%TO.P,DISP1,24*%
%TO.N,CS*%
X153854948Y-131690166D03*
%TO.P,DISP1,25*%
%TO.N,GND*%
X151314948Y-131690166D03*
%TO.P,DISP1,26*%
%TO.N,SCK*%
X146234949Y-131690168D03*
%TO.P,DISP1,27*%
%TO.N,MOSI*%
X143694950Y-131690166D03*
%TD*%
D43*
%TO.P,S13,1*%
%TO.N,col5*%
X245470901Y-156556887D03*
D44*
%TO.P,S13,2*%
%TO.N,pinky_bottom*%
X256463405Y-160729101D03*
%TD*%
D45*
%TO.P,S34,1*%
%TO.N,col5*%
X254199237Y-166716900D03*
D46*
%TO.P,S34,2*%
%TO.N,pinky_bottom*%
X241027560Y-166973562D03*
%TD*%
D45*
%TO.P,S38,1*%
%TO.N,col6*%
X277078142Y-146380835D03*
D46*
%TO.P,S38,2*%
%TO.N,pinky_extra_home*%
X263906465Y-146637497D03*
%TD*%
D47*
%TO.P,S42,1*%
%TO.N,col1*%
X143891602Y-190572337D03*
D48*
%TO.P,S42,2*%
%TO.N,4_r0*%
X136546885Y-201509158D03*
%TD*%
D12*
%TO.P,S18,1*%
%TO.N,col4*%
X191449947Y-163640169D03*
D14*
%TO.P,S18,2*%
%TO.N,1_r0*%
X202999947Y-165840169D03*
%TD*%
D12*
%TO.P,S5,1*%
%TO.N,col2*%
X188499951Y-122690170D03*
D14*
%TO.P,S5,2*%
%TO.N,index_home*%
X200049951Y-124890170D03*
%TD*%
D49*
%TO.P,S22,1*%
%TO.N,col1*%
X179859948Y-154180167D03*
D10*
%TO.P,S22,2*%
%TO.N,inner_bottom*%
X166932948Y-156720167D03*
%TD*%
D49*
%TO.P,S27,1*%
%TO.N,col2*%
X198859950Y-112180169D03*
D10*
%TO.P,S27,2*%
%TO.N,index_top*%
X185932950Y-114720169D03*
%TD*%
D45*
%TO.P,S36,1*%
%TO.N,col5*%
X260797868Y-129294210D03*
D46*
%TO.P,S36,2*%
%TO.N,pinky_top*%
X247626191Y-129550872D03*
%TD*%
D49*
%TO.P,S39,1*%
%TO.N,col4*%
X201809947Y-172130169D03*
D10*
%TO.P,S39,2*%
%TO.N,1_r0*%
X188882947Y-174670169D03*
%TD*%
D43*
%TO.P,S16,1*%
%TO.N,col6*%
X265050491Y-154932166D03*
D44*
%TO.P,S16,2*%
%TO.N,pinky_extra_bottom*%
X276042995Y-159104380D03*
%TD*%
D12*
%TO.P,S1,1*%
%TO.N,col1*%
X169499948Y-145690167D03*
D14*
%TO.P,S1,2*%
%TO.N,inner_bottom*%
X181049948Y-147890167D03*
%TD*%
D43*
%TO.P,S17,1*%
%TO.N,col6*%
X268349806Y-136220822D03*
D44*
%TO.P,S17,2*%
%TO.N,pinky_extra_home*%
X279342310Y-140393036D03*
%TD*%
D49*
%TO.P,S29,1*%
%TO.N,col3*%
X217859951Y-122180170D03*
D10*
%TO.P,S29,2*%
%TO.N,middle_home*%
X204932951Y-124720170D03*
%TD*%
D12*
%TO.P,S3,1*%
%TO.N,col1*%
X169499951Y-107690166D03*
D14*
%TO.P,S3,2*%
%TO.N,inner_top*%
X181049951Y-109890166D03*
%TD*%
D50*
%TO.P,S20,1*%
%TO.N,col2*%
X148149466Y-177208694D03*
D51*
%TO.P,S20,2*%
%TO.N,3_r0*%
X159252059Y-173338950D03*
%TD*%
D52*
%TO.P,S10,1*%
%TO.N,col4*%
X226922978Y-142776208D03*
D53*
%TO.P,S10,2*%
%TO.N,ring_bottom*%
X238291379Y-145776536D03*
%TD*%
D54*
%TO.P,S41,1*%
%TO.N,col2*%
X161366490Y-179381250D03*
D55*
%TO.P,S41,2*%
%TO.N,3_r0*%
X151441379Y-188044454D03*
%TD*%
D52*
%TO.P,S12,1*%
%TO.N,col4*%
X229573723Y-104868772D03*
D53*
%TO.P,S12,2*%
%TO.N,ring_top*%
X240942124Y-107869100D03*
%TD*%
D12*
%TO.P,S6,1*%
%TO.N,col2*%
X188499950Y-103690169D03*
D14*
%TO.P,S6,2*%
%TO.N,index_top*%
X200049950Y-105890169D03*
%TD*%
D49*
%TO.P,S30,1*%
%TO.N,col3*%
X217859948Y-103180164D03*
D10*
%TO.P,S30,2*%
%TO.N,middle_top*%
X204932948Y-105720164D03*
%TD*%
D56*
%TO.P,S21,1*%
%TO.N,col1*%
X130562639Y-191894627D03*
D57*
%TO.P,S21,2*%
%TO.N,4_r0*%
X140285357Y-185283179D03*
%TD*%
D49*
%TO.P,S25,1*%
%TO.N,col2*%
X198859949Y-150180163D03*
D10*
%TO.P,S25,2*%
%TO.N,index_bottom*%
X185932949Y-152720163D03*
%TD*%
D49*
%TO.P,S24,1*%
%TO.N,col1*%
X179859951Y-116180166D03*
D10*
%TO.P,S24,2*%
%TO.N,inner_top*%
X166932951Y-118720166D03*
%TD*%
D45*
%TO.P,S37,1*%
%TO.N,col6*%
X273778827Y-165092179D03*
D46*
%TO.P,S37,2*%
%TO.N,pinky_extra_bottom*%
X260607150Y-165348841D03*
%TD*%
D58*
%TO.P,S33,1*%
%TO.N,col4*%
X239316256Y-114060769D03*
D59*
%TO.P,S33,2*%
%TO.N,ring_top*%
X226243563Y-115692839D03*
%TD*%
D52*
%TO.P,S11,1*%
%TO.N,col4*%
X228248351Y-123822488D03*
D53*
%TO.P,S11,2*%
%TO.N,ring_home*%
X239616752Y-126822816D03*
%TD*%
D43*
%TO.P,S14,1*%
%TO.N,col5*%
X248770218Y-137845543D03*
D44*
%TO.P,S14,2*%
%TO.N,pinky_home*%
X259762722Y-142017757D03*
%TD*%
D49*
%TO.P,S26,1*%
%TO.N,col2*%
X198859951Y-131180170D03*
D10*
%TO.P,S26,2*%
%TO.N,index_home*%
X185932951Y-133720170D03*
%TD*%
D43*
%TO.P,S15,1*%
%TO.N,col5*%
X252069532Y-119134197D03*
D44*
%TO.P,S15,2*%
%TO.N,pinky_top*%
X263062036Y-123306411D03*
%TD*%
D58*
%TO.P,S32,1*%
%TO.N,col4*%
X237990884Y-133014485D03*
D59*
%TO.P,S32,2*%
%TO.N,ring_home*%
X224918191Y-134646555D03*
%TD*%
D60*
%TO.P,S19,1*%
%TO.N,col3*%
X168907323Y-167571623D03*
D61*
%TO.P,S19,2*%
%TO.N,2_r0*%
X180633168Y-166707300D03*
%TD*%
D49*
%TO.P,S28,1*%
%TO.N,col3*%
X217859948Y-141180173D03*
D10*
%TO.P,S28,2*%
%TO.N,middle_bottom*%
X204932948Y-143720173D03*
%TD*%
D12*
%TO.P,S2,1*%
%TO.N,col1*%
X169499950Y-126690165D03*
D14*
%TO.P,S2,2*%
%TO.N,inner_home*%
X181049950Y-128890165D03*
%TD*%
D62*
%TO.P,S40,1*%
%TO.N,col3*%
X181111688Y-173090968D03*
D63*
%TO.P,S40,2*%
%TO.N,2_r0*%
X169282566Y-178890173D03*
%TD*%
D12*
%TO.P,S9,1*%
%TO.N,col3*%
X207499948Y-94690164D03*
D14*
%TO.P,S9,2*%
%TO.N,middle_top*%
X219049948Y-96890164D03*
%TD*%
D58*
%TO.P,S31,1*%
%TO.N,col4*%
X236665511Y-151968205D03*
D59*
%TO.P,S31,2*%
%TO.N,ring_bottom*%
X223592818Y-153600275D03*
%TD*%
D12*
%TO.P,S4,1*%
%TO.N,col2*%
X188499949Y-141690163D03*
D14*
%TO.P,S4,2*%
%TO.N,index_bottom*%
X200049949Y-143890163D03*
%TD*%
D45*
%TO.P,S35,1*%
%TO.N,col5*%
X257498554Y-148005556D03*
D46*
%TO.P,S35,2*%
%TO.N,pinky_home*%
X244326877Y-148262218D03*
%TD*%
D64*
%TO.N,GND*%
X147250000Y-135750000D03*
%TO.N,MOSI*%
X149805662Y-114211152D03*
%TO.N,SCK*%
X144500000Y-129750000D03*
%TO.N,row4*%
X158500000Y-166250000D03*
X165000000Y-183250000D03*
%TO.N,BAT_P*%
X137250000Y-103000000D03*
%TO.N,col1*%
X165779835Y-101994210D03*
%TO.N,col4*%
X161750000Y-120000000D03*
X161750000Y-155500000D03*
X161750000Y-157750000D03*
X171000000Y-163250000D03*
X185250000Y-162750000D03*
%TO.N,col5*%
X163500000Y-96750000D03*
X200000000Y-102750000D03*
X214750000Y-109750000D03*
X217750000Y-108750000D03*
%TO.N,col6*%
X164500000Y-96000000D03*
%TO.N,col2*%
X182500000Y-162500000D03*
%TO.N,ring_home*%
X230614886Y-136928496D03*
X231314828Y-126918942D03*
%TO.N,ring_top*%
X231940258Y-117974780D03*
X232640194Y-107965225D03*
%TO.N,BAT_P*%
X135128000Y-145796000D03*
%TO.N,GND*%
X137972800Y-144729200D03*
X148945600Y-130708400D03*
X154228800Y-144068800D03*
X142443200Y-144170400D03*
%TO.N,col1*%
X172774949Y-157570169D03*
X172774950Y-128765168D03*
X172774949Y-147765172D03*
%TO.N,col3*%
X172607773Y-168728279D03*
X175145495Y-178199187D03*
%TO.N,col1*%
X172774950Y-138570168D03*
X172774946Y-109765170D03*
X172774954Y-119570166D03*
%TO.N,col2*%
X191774950Y-124765168D03*
X191774950Y-134570170D03*
X191774951Y-105765165D03*
X191774951Y-143765165D03*
%TO.N,col4*%
X194724948Y-165715161D03*
%TO.N,col2*%
X191774953Y-153570169D03*
X191774947Y-115570166D03*
%TO.N,col4*%
X194724948Y-175520167D03*
%TO.N,col3*%
X210774951Y-134765170D03*
X210774947Y-115765166D03*
X210774953Y-144570168D03*
X210774950Y-96765169D03*
X210774949Y-106570167D03*
X210774953Y-125570168D03*
%TO.N,col4*%
X230045254Y-145074606D03*
X232695998Y-107167173D03*
X231370626Y-126120889D03*
X232012040Y-116948288D03*
X230686666Y-135902004D03*
X229361294Y-154855724D03*
%TO.N,col5*%
X262067543Y-126220211D03*
X254934457Y-121746365D03*
X258768227Y-144931558D03*
X248335830Y-159169063D03*
X251635146Y-140457718D03*
X246633209Y-168825104D03*
X249932523Y-150113757D03*
X253231839Y-131402410D03*
%TO.N,col6*%
X271214732Y-138832992D03*
X269512113Y-148489033D03*
X275665130Y-161505041D03*
X266212797Y-167200377D03*
X278680841Y-142857843D03*
X267915415Y-157544342D03*
%TO.N,col2*%
X156925699Y-185859577D03*
X152023199Y-177368199D03*
%TO.N,col1*%
X141278843Y-197979278D03*
X134345662Y-191046096D03*
%TO.N,VCC*%
X148031200Y-143611600D03*
%TO.N,RST*%
X134866954Y-155244800D03*
%TO.N,RAW*%
X134366000Y-106172000D03*
%TO.N,middle_top*%
X210774952Y-107599166D03*
X210774949Y-97565168D03*
%TO.N,pinky_top*%
X253053159Y-132415777D03*
X254795541Y-122534216D03*
%TO.N,inner_top*%
X172774949Y-110565166D03*
X172774948Y-120599167D03*
%TO.N,middle_home*%
X210774954Y-116565167D03*
X210774950Y-126599170D03*
%TO.N,index_home*%
X191774950Y-125565167D03*
X191774949Y-135599167D03*
%TO.N,pinky_extra_home*%
X269333426Y-149502400D03*
X271075813Y-139620840D03*
%TO.N,SCK*%
X148132800Y-145186400D03*
%TO.N,pinky_extra_bottom*%
X267776501Y-158332186D03*
X266034112Y-168213745D03*
%TO.N,3_r0*%
X157440199Y-186750716D03*
X152423195Y-178061020D03*
%TO.N,1_r0*%
X194724948Y-166515168D03*
X194724948Y-176549169D03*
%TO.N,index_bottom*%
X191774949Y-144565168D03*
X191774950Y-154599165D03*
%TO.N,ring_bottom*%
X229989452Y-145872657D03*
X229289517Y-155882218D03*
%TO.N,2_r0*%
X175411821Y-179193125D03*
X172814829Y-169501027D03*
%TO.N,MOSI*%
X148027627Y-146361062D03*
%TO.N,middle_bottom*%
X210774948Y-145599166D03*
X210774948Y-135565166D03*
%TO.N,4_r0*%
X142006456Y-198706893D03*
X134911346Y-191611785D03*
%TO.N,inner_home*%
X172774949Y-139599169D03*
X172774946Y-129565167D03*
%TO.N,pinky_bottom*%
X248196912Y-159956911D03*
X246454526Y-169838472D03*
%TO.N,pinky_home*%
X249753837Y-151127121D03*
X251496228Y-141245564D03*
%TO.N,index_top*%
X191774949Y-106565168D03*
X191774950Y-116599170D03*
%TO.N,inner_bottom*%
X172774952Y-148565168D03*
X172774950Y-158599166D03*
%TO.N,CS*%
X148844000Y-129286000D03*
%TO.N,SCK*%
X148894800Y-132232400D03*
%TO.N,MOSI*%
X147878800Y-130200400D03*
%TD*%
%TO.N,VCC*%
D65*
X148031200Y-136855200D02*
X140462000Y-136855200D01*
%TO.N,MOSI*%
X146343961Y-114211152D02*
X145374946Y-115180167D01*
X149805662Y-114211152D02*
X146343961Y-114211152D01*
%TO.N,SCK*%
X144135116Y-129750000D02*
X144500000Y-129750000D01*
X142544949Y-131340167D02*
X144135116Y-129750000D01*
X142544949Y-134816511D02*
X142544949Y-131340167D01*
X143218603Y-135490165D02*
X142544949Y-134816511D01*
X144171295Y-135490165D02*
X143218603Y-135490165D01*
X144850401Y-134811059D02*
X144171295Y-135490165D01*
X144850401Y-131100401D02*
X144850401Y-134811059D01*
X145350402Y-130600400D02*
X144850401Y-131100401D01*
X147262800Y-130600400D02*
X145350402Y-130600400D01*
X148894800Y-132232400D02*
X147262800Y-130600400D01*
%TO.N,row4*%
X165000000Y-172750000D02*
X158500000Y-166250000D01*
X165000000Y-183250000D02*
X165000000Y-172750000D01*
%TO.N,BAT_P*%
X137250000Y-104113113D02*
X136872949Y-104490164D01*
X137250000Y-103000000D02*
X137250000Y-104113113D01*
%TO.N,col1*%
X165750000Y-103281510D02*
X165750000Y-102000000D01*
X172233660Y-109765170D02*
X165750000Y-103281510D01*
X172774946Y-109765170D02*
X172233660Y-109765170D01*
%TO.N,col3*%
X164309834Y-94940166D02*
X207249946Y-94940166D01*
X162250000Y-97000000D02*
X164309834Y-94940166D01*
X207249946Y-94940166D02*
X207499948Y-94690164D01*
X153143443Y-111250000D02*
X162250000Y-111250000D01*
X152174946Y-110281503D02*
X153143443Y-111250000D01*
X162250000Y-111250000D02*
X162250000Y-97000000D01*
X152174946Y-110100167D02*
X152174946Y-110281503D01*
%TO.N,col4*%
X161750000Y-155500000D02*
X161750000Y-120000000D01*
X161750000Y-160000000D02*
X165000000Y-163250000D01*
X161750000Y-157750000D02*
X161750000Y-160000000D01*
X165000000Y-163250000D02*
X171000000Y-163250000D01*
X186209831Y-161790169D02*
X185250000Y-162750000D01*
X201209831Y-161790169D02*
X186209831Y-161790169D01*
X220223792Y-142776208D02*
X201209831Y-161790169D01*
X226922978Y-142776208D02*
X220223792Y-142776208D01*
%TO.N,col5*%
X152174945Y-116085113D02*
X152174945Y-115180167D01*
X152419999Y-116330167D02*
X152174945Y-116085113D01*
X160419833Y-116330167D02*
X152419999Y-116330167D01*
X163000000Y-113750000D02*
X160419833Y-116330167D01*
X163000000Y-97250000D02*
X163000000Y-113750000D01*
X163500000Y-96750000D02*
X163000000Y-97250000D01*
X200675467Y-102750000D02*
X200000000Y-102750000D01*
X202049950Y-104124483D02*
X200675467Y-102750000D01*
X202049950Y-108549950D02*
X202049950Y-104124483D01*
X203540165Y-110040165D02*
X202049950Y-108549950D01*
X214459835Y-110040165D02*
X203540165Y-110040165D01*
X214750000Y-109750000D02*
X214459835Y-110040165D01*
X225944150Y-100555850D02*
X217750000Y-108750000D01*
X237212492Y-100555850D02*
X225944150Y-100555850D01*
X243029641Y-106372999D02*
X237212492Y-100555850D01*
X243029641Y-132104966D02*
X243029641Y-106372999D01*
X248770218Y-137845543D02*
X243029641Y-132104966D01*
%TO.N,col6*%
X152174947Y-117901506D02*
X152174947Y-117720168D01*
X153143608Y-118870167D02*
X152174947Y-117901506D01*
X162629833Y-118870167D02*
X153143608Y-118870167D01*
X164250000Y-117250000D02*
X162629833Y-118870167D01*
X164250000Y-96250000D02*
X164250000Y-117250000D01*
X164500000Y-96000000D02*
X164250000Y-96250000D01*
%TO.N,col4*%
X229889517Y-156130747D02*
X229889517Y-155383947D01*
X229538046Y-156482218D02*
X229889517Y-156130747D01*
X228938514Y-156482218D02*
X229538046Y-156482218D01*
X206706902Y-156241918D02*
X228698214Y-156241918D01*
X197233659Y-165715161D02*
X206706902Y-156241918D01*
X228698214Y-156241918D02*
X228938514Y-156482218D01*
X194724948Y-165715161D02*
X197233659Y-165715161D01*
X229889517Y-155383947D02*
X229361294Y-154855724D01*
%TO.N,col3*%
X181676672Y-164815132D02*
X187241804Y-159250000D01*
X201965121Y-159250000D02*
X214500000Y-146715121D01*
X214500000Y-145599168D02*
X211803949Y-145599165D01*
X187241804Y-159250000D02*
X201965121Y-159250000D01*
X214500000Y-146715121D02*
X214500000Y-145599168D01*
%TO.N,col2*%
X192374950Y-154170166D02*
X191774953Y-153570169D01*
X192023479Y-155199165D02*
X192374950Y-154847694D01*
X189550835Y-155199165D02*
X192023479Y-155199165D01*
X192374950Y-154847694D02*
X192374950Y-154170166D01*
X182500000Y-162250000D02*
X189550835Y-155199165D01*
X182500000Y-162500000D02*
X182500000Y-162250000D01*
%TO.N,col1*%
X173374950Y-158170170D02*
X172774949Y-157570169D01*
X172982479Y-159240166D02*
X173374950Y-158847695D01*
X166503683Y-159240166D02*
X172982479Y-159240166D01*
X164305686Y-157042169D02*
X166503683Y-159240166D01*
X153758473Y-157042169D02*
X164305686Y-157042169D01*
X152996951Y-157803691D02*
X153758473Y-157042169D01*
X152996951Y-169685277D02*
X152996951Y-157803691D01*
X142500000Y-180182228D02*
X152996951Y-169685277D01*
X142500000Y-181500000D02*
X142500000Y-180182228D01*
X173374950Y-158847695D02*
X173374950Y-158170170D01*
X140632460Y-183367540D02*
X142500000Y-181500000D01*
X140632460Y-183367540D02*
X140409621Y-183144701D01*
%TO.N,col3*%
D66*
X146170254Y-110330168D02*
X151944951Y-110330168D01*
X145074644Y-110825171D02*
X145675254Y-110825167D01*
X144349643Y-110100169D02*
X145074644Y-110825171D01*
X145675254Y-110825167D02*
X146170254Y-110330168D01*
X143999946Y-110100166D02*
X144349643Y-110100169D01*
%TO.N,SCK*%
D65*
X149924950Y-133262550D02*
X148894800Y-132232400D01*
X150554947Y-135446509D02*
X149924950Y-134816512D01*
X150554947Y-143110273D02*
X150554947Y-135446509D01*
X148478820Y-145186400D02*
X150554947Y-143110273D01*
X148132800Y-145186400D02*
X148478820Y-145186400D01*
X149924950Y-134816512D02*
X149924950Y-133262550D01*
%TO.N,ring_home*%
X233367539Y-128244362D02*
X232273647Y-126985989D01*
X239616758Y-126822825D02*
X237637942Y-128542977D01*
X230614886Y-136928496D02*
X226661507Y-136652551D01*
X226661541Y-136652052D02*
X224918192Y-134646558D01*
X232273647Y-126985989D02*
X231314828Y-126918942D01*
X237637942Y-128542977D02*
X233367539Y-128244362D01*
%TO.N,ring_top*%
X234692905Y-109290644D02*
X233599019Y-108032273D01*
X238963314Y-109589259D02*
X234692905Y-109290644D01*
X240942124Y-107869103D02*
X238963314Y-109589259D01*
X233599019Y-108032273D02*
X232640194Y-107965225D01*
X231940258Y-117974780D02*
X227986880Y-117698835D01*
X227986917Y-117698336D02*
X226243560Y-115692842D01*
%TO.N,BAT_P*%
X136872949Y-104490164D02*
X136172951Y-103790166D01*
X136872949Y-144765167D02*
X136872949Y-104490164D01*
X136172951Y-103790166D02*
X135772951Y-103790166D01*
X136872949Y-144765167D02*
X135842116Y-145796000D01*
X135842116Y-145796000D02*
X135128000Y-145796000D01*
%TO.N,GND*%
X151314948Y-131690166D02*
X149927366Y-131690166D01*
D66*
X145675256Y-108285169D02*
X146170254Y-107790166D01*
X144349643Y-107560170D02*
X145074642Y-108285167D01*
D65*
X144327979Y-144216908D02*
X142489708Y-144216908D01*
D66*
X146170254Y-107790166D02*
X151944951Y-107790169D01*
D65*
X137972800Y-145665316D02*
X137972800Y-144729200D01*
X149927366Y-131690166D02*
X148945600Y-130708400D01*
X142489708Y-144216908D02*
X142443200Y-144170400D01*
D66*
X143999946Y-105020164D02*
X144349644Y-105020167D01*
X143999949Y-107560167D02*
X144349643Y-107560170D01*
X146170255Y-105250169D02*
X151944949Y-105250166D01*
X145675255Y-105745167D02*
X146170255Y-105250169D01*
X151874645Y-101755166D02*
X151369644Y-102260166D01*
X145074646Y-105745168D02*
X145675255Y-105745167D01*
X153200255Y-102480165D02*
X152475253Y-101755169D01*
D65*
X136872949Y-146765167D02*
X137972800Y-145665316D01*
D66*
X151369644Y-102260166D02*
X145594949Y-102260168D01*
X144349644Y-105020167D02*
X145074646Y-105745168D01*
X145074642Y-108285167D02*
X145675256Y-108285169D01*
X153549945Y-102480166D02*
X153200255Y-102480165D01*
X152475253Y-101755169D02*
X151874645Y-101755166D01*
%TO.N,JST1_1*%
X135856952Y-146765167D02*
X134056949Y-146765169D01*
%TO.N,JST1_2*%
X135856947Y-144765167D02*
X134056952Y-144765169D01*
%TO.N,MCU1_1*%
X156394951Y-99940166D02*
X154274951Y-99940165D01*
%TO.N,MCU1_2*%
X156394951Y-102480167D02*
X154274952Y-102480169D01*
%TO.N,MCU1_3*%
X156394953Y-105020168D02*
X154274948Y-105020170D01*
%TO.N,MCU1_4*%
X156394946Y-107560167D02*
X154274949Y-107560168D01*
%TO.N,MCU1_5*%
X156394947Y-110100168D02*
X154274947Y-110100167D01*
%TO.N,MCU1_6*%
X156394955Y-112640170D02*
X154274954Y-112640167D01*
%TO.N,MCU1_7*%
X156394952Y-115180168D02*
X154274949Y-115180167D01*
%TO.N,MCU1_8*%
X156394952Y-117720165D02*
X154274947Y-117720169D01*
%TO.N,MCU1_9*%
X156394945Y-120260169D02*
X154274953Y-120260167D01*
%TO.N,MCU1_10*%
X156394947Y-122800170D02*
X154274950Y-122800166D01*
%TO.N,MCU1_11*%
X156394947Y-125340167D02*
X154274952Y-125340169D01*
%TO.N,MCU1_12*%
X156394954Y-127880170D02*
X154274951Y-127880167D01*
%TO.N,MCU1_13*%
X141154950Y-127880168D02*
X143274948Y-127880169D01*
%TO.N,MCU1_14*%
X141154950Y-125340169D02*
X143274952Y-125340167D01*
%TO.N,MCU1_15*%
X141154947Y-122800168D02*
X143274953Y-122800169D01*
%TO.N,MCU1_16*%
X141154950Y-120260167D02*
X143274948Y-120260166D01*
%TO.N,MCU1_17*%
X141154949Y-117720164D02*
X143274947Y-117720167D01*
%TO.N,MCU1_18*%
X141154945Y-115180165D02*
X143274951Y-115180167D01*
%TO.N,MCU1_19*%
X141154948Y-112640168D02*
X143274949Y-112640164D01*
%TO.N,MCU1_20*%
X141154951Y-110100167D02*
X143274950Y-110100170D01*
%TO.N,MCU1_21*%
X141154953Y-107560168D02*
X143274949Y-107560168D01*
%TO.N,MCU1_22*%
X141154948Y-105020166D02*
X143274949Y-105020166D01*
%TO.N,MCU1_23*%
X141154952Y-102480169D02*
X143274950Y-102480171D01*
%TO.N,MCU1_24*%
X141154949Y-99940165D02*
X143274949Y-99940167D01*
%TO.N,col1*%
X143999952Y-99940165D02*
X144349647Y-99940168D01*
X145675252Y-100665168D02*
X146170255Y-100170165D01*
X144349647Y-99940168D02*
X145074641Y-100665163D01*
X146170255Y-100170165D02*
X151944948Y-100170166D01*
X145074641Y-100665163D02*
X145675252Y-100665168D01*
%TO.N,col2*%
X145675256Y-103205168D02*
X146170259Y-102710168D01*
X145074645Y-103205167D02*
X145675256Y-103205168D01*
X144349645Y-102480168D02*
X145074645Y-103205167D01*
X146170259Y-102710168D02*
X151944945Y-102710168D01*
X143999949Y-102480169D02*
X144349645Y-102480168D01*
%TO.N,col1*%
D65*
X179578000Y-127040165D02*
X175041245Y-127040165D01*
X179578000Y-123236219D02*
X176940951Y-120599170D01*
X182649951Y-108290166D02*
X182399951Y-108040166D01*
X173803947Y-139599165D02*
X172774950Y-138570168D01*
X179859948Y-154180167D02*
X182649948Y-151390167D01*
X169499950Y-107690166D02*
X171574949Y-109765170D01*
%TO.N,col3*%
X176595883Y-164815131D02*
X172682736Y-168728279D01*
X182525336Y-171677320D02*
X182525336Y-165663796D01*
%TO.N,col1*%
X179324000Y-146040167D02*
X175041243Y-146040167D01*
%TO.N,col3*%
X182525336Y-165663796D02*
X181676672Y-164815132D01*
%TO.N,col1*%
X182649950Y-132390165D02*
X182649950Y-127290165D01*
X179859951Y-116180166D02*
X182649951Y-113390166D01*
X182649951Y-113390166D02*
X182649951Y-108290166D01*
%TO.N,col3*%
X181111684Y-173090963D02*
X181499914Y-174539857D01*
%TO.N,col1*%
X173803953Y-120599169D02*
X172774954Y-119570166D01*
X179859949Y-155680166D02*
X176940951Y-158599168D01*
X176940951Y-158599168D02*
X173803947Y-158599164D01*
X182399950Y-127040165D02*
X179578000Y-127040165D01*
X171574951Y-128765167D02*
X172774950Y-128765168D01*
%TO.N,col3*%
X168907320Y-167571622D02*
X171448663Y-169038867D01*
X154296951Y-158342169D02*
X163526405Y-167571623D01*
%TO.N,col1*%
X179859951Y-154180169D02*
X179859949Y-155680166D01*
X173803947Y-158599164D02*
X172774949Y-157570169D01*
%TO.N,col4*%
D66*
X146170252Y-112870167D02*
X151944947Y-112870169D01*
%TO.N,col1*%
D65*
X171574949Y-109765170D02*
X172774946Y-109765170D01*
X179324000Y-141982220D02*
X176940947Y-139599167D01*
%TO.N,col4*%
D66*
X145675249Y-113365169D02*
X146170252Y-112870167D01*
%TO.N,col1*%
D65*
X175041243Y-146040167D02*
X173316239Y-147765172D01*
X176940951Y-120599170D02*
X173803953Y-120599169D01*
X179859947Y-135180166D02*
X179859950Y-136680166D01*
X169499953Y-126690169D02*
X171574951Y-128765167D01*
X182649950Y-127290165D02*
X182399950Y-127040165D01*
%TO.N,col3*%
X181111689Y-173090968D02*
X182525336Y-171677320D01*
%TO.N,col1*%
X175041245Y-127040165D02*
X173316242Y-128765168D01*
X179324000Y-146040167D02*
X179324000Y-141982220D01*
X179859948Y-117680169D02*
X176940951Y-120599170D01*
X169499950Y-145690166D02*
X171574951Y-147765164D01*
%TO.N,col3*%
X171448663Y-169038867D02*
X172607773Y-168728279D01*
X179435865Y-178114887D02*
X176405756Y-178926802D01*
%TO.N,col1*%
X179859952Y-116180162D02*
X179859948Y-117680169D01*
X182399951Y-108040166D02*
X175041246Y-108040166D01*
X175041246Y-108040166D02*
X173316242Y-109765170D01*
X179859950Y-135180165D02*
X182649950Y-132390165D01*
%TO.N,col3*%
X176405756Y-178926802D02*
X175145495Y-178199187D01*
%TO.N,col1*%
X171574951Y-147765164D02*
X172774949Y-147765172D01*
X182399949Y-146040167D02*
X179324000Y-146040167D01*
X182649948Y-151390167D02*
X182649949Y-146290167D01*
X173316239Y-147765172D02*
X172774949Y-147765172D01*
X176250000Y-139599167D02*
X173803947Y-139599165D01*
X173316242Y-128765168D02*
X172774950Y-128765168D01*
X173316242Y-109765170D02*
X172774946Y-109765170D01*
%TO.N,col4*%
D66*
X145074647Y-113365165D02*
X145675249Y-113365169D01*
%TO.N,col3*%
D65*
X163526405Y-167571623D02*
X168907323Y-167571623D01*
%TO.N,col1*%
X179859950Y-136680166D02*
X176940947Y-139599167D01*
X182649949Y-146290167D02*
X182399949Y-146040167D01*
%TO.N,col3*%
X177250000Y-164815131D02*
X176595883Y-164815131D01*
%TO.N,col1*%
X176940947Y-139599167D02*
X176250000Y-139599167D01*
%TO.N,col3*%
X172682736Y-168728279D02*
X172607773Y-168728279D01*
X181676672Y-164815132D02*
X177250000Y-164815131D01*
X181499914Y-174539857D02*
X179435865Y-178114887D01*
%TO.N,col4*%
D66*
X143999949Y-112640170D02*
X144349646Y-112640168D01*
X144349646Y-112640168D02*
X145074647Y-113365165D01*
%TO.N,col1*%
D65*
X179578000Y-127040165D02*
X179578000Y-123236219D01*
%TO.N,col2*%
X198120000Y-123040170D02*
X194041246Y-123040170D01*
X201399951Y-123040170D02*
X198120000Y-123040170D01*
X194041246Y-123040170D02*
X192316248Y-124765168D01*
X190574950Y-105765166D02*
X191774951Y-105765165D01*
X201649951Y-128390170D02*
X201649951Y-123290170D01*
X198859950Y-112180169D02*
X201649950Y-109390169D01*
X195940949Y-135599171D02*
X192803947Y-135599168D01*
X198859951Y-131180170D02*
X201649951Y-128390170D01*
X201649950Y-109390169D02*
X201649950Y-104290169D01*
%TO.N,col5*%
D66*
X143999949Y-115180165D02*
X144349648Y-115180168D01*
%TO.N,col2*%
D65*
X192316241Y-143765166D02*
X191774951Y-143765165D01*
X192316249Y-105765165D02*
X191774951Y-105765165D01*
X188499948Y-122690166D02*
X190574946Y-124765168D01*
X194041244Y-142040163D02*
X192316241Y-143765166D01*
%TO.N,col5*%
D66*
X145074641Y-115905167D02*
X145675257Y-115905162D01*
%TO.N,col2*%
D65*
X198859948Y-131180169D02*
X198859950Y-132680165D01*
X198250000Y-137908222D02*
X195940949Y-135599171D01*
X190574946Y-124765168D02*
X191774950Y-124765168D01*
X198250000Y-142040163D02*
X198250000Y-137908222D01*
%TO.N,col4*%
X198890949Y-176549170D02*
X195753951Y-176549167D01*
%TO.N,col2*%
X195940948Y-154599165D02*
X195250000Y-154599165D01*
X194041245Y-104040169D02*
X192316249Y-105765165D01*
X190574950Y-143765169D02*
X191774951Y-143765165D01*
X201399950Y-142040163D02*
X198250000Y-142040163D01*
X198120000Y-123040170D02*
X198120000Y-118778214D01*
X195940951Y-116599165D02*
X192803949Y-116599167D01*
%TO.N,col5*%
D66*
X144349648Y-115180168D02*
X145074641Y-115905167D01*
%TO.N,col2*%
D65*
X201649949Y-147390163D02*
X201649950Y-142290162D01*
X192316248Y-124765168D02*
X191774950Y-124765168D01*
X198859946Y-151680168D02*
X195940948Y-154599165D01*
X198120000Y-118778214D02*
X195940951Y-116599165D01*
X201399950Y-104040169D02*
X194041245Y-104040169D01*
X192803949Y-154599167D02*
X191774953Y-153570169D01*
%TO.N,col4*%
X195753951Y-176549167D02*
X194724948Y-175520167D01*
%TO.N,col2*%
X201649950Y-142290162D02*
X201399950Y-142040163D01*
%TO.N,col4*%
X201809946Y-173630164D02*
X198890949Y-176549170D01*
%TO.N,col2*%
X192803947Y-135599168D02*
X191774950Y-134570170D01*
%TO.N,col4*%
X191449947Y-163640169D02*
X193524950Y-165715169D01*
%TO.N,col2*%
X198859950Y-113680166D02*
X195940951Y-116599165D01*
X198859948Y-150180162D02*
X198859946Y-151680168D01*
X198859949Y-150180163D02*
X201649949Y-147390163D01*
X188499948Y-103690170D02*
X190574950Y-105765166D01*
X198859950Y-132680165D02*
X195940949Y-135599171D01*
X192803949Y-116599167D02*
X191774947Y-115570166D01*
X188499949Y-141690168D02*
X190574950Y-143765169D01*
X201649950Y-104290169D02*
X201399950Y-104040169D01*
X201649951Y-123290170D02*
X201399951Y-123040170D01*
X198859953Y-112180169D02*
X198859950Y-113680166D01*
X198250000Y-142040163D02*
X194041244Y-142040163D01*
%TO.N,col4*%
X201809953Y-172130168D02*
X201809946Y-173630164D01*
%TO.N,col2*%
X195250000Y-154599165D02*
X192803949Y-154599167D01*
%TO.N,col5*%
D66*
X146170256Y-115410168D02*
X151944948Y-115410168D01*
%TO.N,col4*%
D65*
X193524950Y-165715169D02*
X194724948Y-165715161D01*
%TO.N,col5*%
D66*
X145675257Y-115905162D02*
X146170256Y-115410168D01*
%TO.N,col3*%
D65*
X217859949Y-123680166D02*
X214940949Y-126599172D01*
X213041246Y-114040170D02*
X211316250Y-115765166D01*
X211803949Y-145599165D02*
X210774953Y-144570168D01*
X211316238Y-96765169D02*
X210774950Y-96765169D01*
X207499949Y-113690166D02*
X209574949Y-115765170D01*
X217859952Y-103180168D02*
X217859953Y-104680166D01*
X220399948Y-95040164D02*
X213041243Y-95040164D01*
X217859945Y-141180168D02*
X217859951Y-142680170D01*
X216408000Y-109123168D02*
X214884000Y-107599168D01*
X209574950Y-134765165D02*
X210774951Y-134765170D01*
X211803950Y-107599168D02*
X210774949Y-106570167D01*
X214940953Y-145599168D02*
X214500000Y-145599168D01*
%TO.N,col6*%
D66*
X145675255Y-118445170D02*
X146170256Y-117950167D01*
X145074645Y-118445168D02*
X145675255Y-118445170D01*
%TO.N,col3*%
D65*
X222562947Y-135203172D02*
X220399948Y-133040172D01*
X216750000Y-133040173D02*
X215008652Y-133040173D01*
X207499948Y-94690168D02*
X209574952Y-96765167D01*
X220290170Y-114040170D02*
X216408000Y-114040170D01*
%TO.N,col6*%
D66*
X143999946Y-117720168D02*
X144349648Y-117720171D01*
%TO.N,col3*%
D65*
X209574952Y-96765167D02*
X210774950Y-96765169D01*
X222562947Y-138276438D02*
X222562947Y-135203172D01*
X216408000Y-114040170D02*
X216408000Y-109123168D01*
X215008652Y-133040173D02*
X213283655Y-134765170D01*
X217859953Y-104680166D02*
X214940949Y-107599168D01*
X220649951Y-114399951D02*
X220290170Y-114040170D01*
X217859951Y-142680170D02*
X214940953Y-145599168D01*
X217859946Y-122180170D02*
X217859949Y-123680166D01*
X220649948Y-100390164D02*
X220649948Y-95290164D01*
X211803951Y-126599169D02*
X210774953Y-125570168D01*
X220399948Y-133040172D02*
X216750000Y-133040173D01*
X209574949Y-115765170D02*
X210774947Y-115765166D01*
X214940949Y-107599168D02*
X214884000Y-107599168D01*
X216408000Y-114040170D02*
X213041246Y-114040170D01*
X214940949Y-126599172D02*
X211803951Y-126599169D01*
X219659213Y-141180173D02*
X222562947Y-138276438D01*
%TO.N,col6*%
D66*
X146170256Y-117950167D02*
X151944948Y-117950167D01*
%TO.N,col3*%
D65*
X220649951Y-119390170D02*
X220649951Y-114399951D01*
X213041243Y-95040164D02*
X211316238Y-96765169D01*
X216750000Y-133040173D02*
X216750000Y-128408223D01*
X217859948Y-141180173D02*
X219659213Y-141180173D01*
X214884000Y-107599168D02*
X211803950Y-107599168D01*
X220649948Y-95290164D02*
X220399948Y-95040164D01*
%TO.N,col6*%
D66*
X144349648Y-117720171D02*
X145074645Y-118445168D01*
%TO.N,col3*%
D65*
X216750000Y-128408223D02*
X214940949Y-126599172D01*
X211316250Y-115765166D02*
X210774947Y-115765166D01*
X213283655Y-134765170D02*
X210774951Y-134765170D01*
X217859948Y-103180164D02*
X220649948Y-100390164D01*
X207499950Y-132690167D02*
X209574950Y-134765165D01*
X217859951Y-122180170D02*
X220649951Y-119390170D01*
%TO.N,col4*%
X241304269Y-129701100D02*
X241304269Y-125492401D01*
X231641382Y-137000276D02*
X230686666Y-135902004D01*
X239211619Y-115557116D02*
X236096112Y-118265387D01*
X232112874Y-143698084D02*
X230736352Y-145074606D01*
X237990885Y-133014488D02*
X237886247Y-134510831D01*
X239978896Y-148654820D02*
X239978896Y-144446121D01*
X239978896Y-144446121D02*
X239230859Y-143698083D01*
X233445366Y-156172820D02*
X230316010Y-155953997D01*
X233387094Y-107167173D02*
X232695998Y-107167173D01*
X232061722Y-126120889D02*
X231370626Y-126120889D01*
X236500000Y-143698083D02*
X236500000Y-138967655D01*
X240556232Y-124744364D02*
X239014000Y-124744364D01*
X230736352Y-145074606D02*
X230045254Y-145074606D01*
X241304269Y-125492401D02*
X240556232Y-124744364D01*
X237990884Y-133014485D02*
X241304269Y-129701100D01*
X237886247Y-134510831D02*
X234770742Y-137219105D01*
X236500000Y-143698083D02*
X232112874Y-143698084D01*
X226922980Y-142776205D02*
X228848179Y-144990899D01*
X236665508Y-151968203D02*
X236560875Y-153464552D01*
X242629641Y-106538685D02*
X241840956Y-105750000D01*
X230173551Y-126037182D02*
X231370626Y-126120889D01*
X232966753Y-118046564D02*
X232012040Y-116948288D01*
X233438247Y-124744364D02*
X232061722Y-126120889D01*
X239230859Y-143698083D02*
X236500000Y-143698083D01*
X241840956Y-105750000D02*
X234804267Y-105750000D01*
X228248353Y-123822490D02*
X230173551Y-126037182D01*
X229573726Y-104868770D02*
X231498927Y-107083466D01*
X236665511Y-151968205D02*
X239978896Y-148654820D01*
X236500000Y-138967655D02*
X234750000Y-137217655D01*
X236560875Y-153464552D02*
X233445366Y-156172820D01*
%TO.N,row1*%
D66*
X143999948Y-120260168D02*
X144349644Y-120260167D01*
%TO.N,col4*%
D65*
X228848179Y-144990899D02*
X230045254Y-145074606D01*
X234750000Y-137217655D02*
X231641382Y-137000276D01*
%TO.N,row1*%
D66*
X145675256Y-120985164D02*
X146170253Y-120490167D01*
%TO.N,col4*%
D65*
X230316010Y-155953997D02*
X229361294Y-154855724D01*
X239014000Y-121183275D02*
X236096112Y-118265387D01*
%TO.N,row1*%
D66*
X146170253Y-120490167D02*
X151944952Y-120490171D01*
%TO.N,col4*%
D65*
X239316256Y-114060769D02*
X242629641Y-110747384D01*
X239014000Y-124744364D02*
X233438247Y-124744364D01*
X242629641Y-110747384D02*
X242629641Y-106538685D01*
X234770742Y-137219105D02*
X234750000Y-137217655D01*
%TO.N,row1*%
D66*
X145074644Y-120985168D02*
X145675256Y-120985164D01*
%TO.N,col4*%
D65*
X239014000Y-124744364D02*
X239014000Y-121183275D01*
X234804267Y-105750000D02*
X233387094Y-107167173D01*
%TO.N,row1*%
D66*
X144349644Y-120260167D02*
X145074644Y-120985168D01*
%TO.N,col4*%
D65*
X239316253Y-114060768D02*
X239211619Y-115557116D01*
X231498927Y-107083466D02*
X232695998Y-107167173D01*
X236096112Y-118265387D02*
X232966753Y-118046564D01*
%TO.N,col5*%
X255270000Y-135382000D02*
X257155864Y-133496136D01*
X252069534Y-119134196D02*
X253752689Y-121537990D01*
X255778000Y-153670000D02*
X253916538Y-151808538D01*
X248770218Y-137845543D02*
X251233761Y-135382000D01*
X258269398Y-162646740D02*
X258269398Y-159550329D01*
X257498554Y-148005556D02*
X257938089Y-145512827D01*
X250557236Y-170561892D02*
X247467892Y-170017154D01*
X257155864Y-133496136D02*
X257155864Y-133139192D01*
X257498555Y-148005558D02*
X257238079Y-149482767D01*
%TO.N,row2*%
D66*
X144349641Y-122800165D02*
X145074643Y-123525167D01*
%TO.N,col5*%
D65*
X260537399Y-130771418D02*
X257155864Y-133139192D01*
X254066522Y-132594461D02*
X253231839Y-131402410D01*
X258269398Y-159550329D02*
X257029473Y-158310404D01*
X254199237Y-166716900D02*
X258269398Y-162646740D01*
%TO.N,row2*%
D66*
X143999952Y-122800166D02*
X144349641Y-122800165D01*
%TO.N,col5*%
D65*
X254199235Y-166716902D02*
X253938763Y-168194116D01*
X257155864Y-133139192D02*
X254066522Y-132594461D01*
X253938763Y-168194116D02*
X250557236Y-170561892D01*
%TO.N,row2*%
D66*
X145074643Y-123525167D02*
X145675252Y-123525165D01*
%TO.N,col5*%
D65*
X247154060Y-158960685D02*
X248335830Y-159169063D01*
X255778000Y-158310404D02*
X255778000Y-153670000D01*
X248770221Y-137845542D02*
X250453376Y-140249340D01*
X250127624Y-158310404D02*
X249268965Y-159169063D01*
X257238079Y-149482767D02*
X253916538Y-151808538D01*
X253916538Y-151808538D02*
X253856552Y-151850541D01*
X255778000Y-158310404D02*
X250127624Y-158310404D01*
X249268965Y-159169063D02*
X248335830Y-159169063D01*
X253856552Y-151850541D02*
X250767208Y-151305805D01*
X250767208Y-151305805D02*
X249932523Y-150113757D01*
X251233761Y-135382000D02*
X255270000Y-135382000D01*
X261237403Y-126801480D02*
X262067543Y-126220211D01*
X250453376Y-140249340D02*
X251635146Y-140457718D01*
X247467892Y-170017154D02*
X246633209Y-168825104D01*
X257029473Y-158310404D02*
X255778000Y-158310404D01*
X253752689Y-121537990D02*
X254934457Y-121746365D01*
%TO.N,row2*%
D66*
X145675252Y-123525165D02*
X146170254Y-123030170D01*
%TO.N,col5*%
D65*
X245470903Y-156556890D02*
X247154060Y-158960685D01*
X260797868Y-129294210D02*
X261237403Y-126801480D01*
X260797867Y-129294208D02*
X260537399Y-130771418D01*
%TO.N,row2*%
D66*
X146170254Y-123030170D02*
X151944948Y-123030167D01*
%TO.N,col5*%
D65*
X257938089Y-145512827D02*
X258768227Y-144931558D01*
%TO.N,col6*%
X270136822Y-168937167D02*
X267047480Y-168392431D01*
X275665130Y-164782349D02*
X275665130Y-161505041D01*
X273778827Y-165092179D02*
X275355299Y-165092180D01*
X266733647Y-157335963D02*
X267915415Y-157544342D01*
X268349810Y-136220819D02*
X270032965Y-138624615D01*
X277078142Y-146380835D02*
X277561089Y-143641901D01*
%TO.N,row3*%
D66*
X146170257Y-125570165D02*
X151944951Y-125570170D01*
%TO.N,col6*%
D65*
X277078141Y-146380827D02*
X276817669Y-147858045D01*
X273778827Y-165092178D02*
X273518353Y-166569392D01*
X267328657Y-152654000D02*
X273050000Y-152654000D01*
X276817669Y-147858045D02*
X273436137Y-150225820D01*
X277561089Y-143641901D02*
X278680841Y-142857843D01*
X275355299Y-165092180D02*
X275665130Y-164782349D01*
X270032965Y-138624615D02*
X271214732Y-138832992D01*
X273050000Y-150611957D02*
X273436137Y-150225820D01*
X267047480Y-168392431D02*
X266212797Y-167200377D01*
%TO.N,row3*%
D66*
X145675256Y-126065167D02*
X146170257Y-125570165D01*
%TO.N,col6*%
D65*
X273518353Y-166569392D02*
X270136822Y-168937167D01*
X265050491Y-154932166D02*
X267328657Y-152654000D01*
X270346794Y-149681088D02*
X269512113Y-148489033D01*
%TO.N,row3*%
D66*
X143999954Y-125340167D02*
X144349642Y-125340168D01*
%TO.N,col6*%
D65*
X273436137Y-150225820D02*
X270346794Y-149681088D01*
%TO.N,row3*%
D66*
X145074644Y-126065168D02*
X145675256Y-126065167D01*
%TO.N,col6*%
D65*
X273050000Y-152654000D02*
X273050000Y-150611957D01*
X265050492Y-154932167D02*
X266733647Y-157335963D01*
%TO.N,row3*%
D66*
X144349642Y-125340168D02*
X145074644Y-126065168D01*
%TO.N,row4*%
X145074643Y-128605169D02*
X145675252Y-128605166D01*
X143999951Y-127880166D02*
X144349645Y-127880168D01*
X144349645Y-127880168D02*
X145074643Y-128605169D01*
X146170252Y-128110165D02*
X151944949Y-128110168D01*
X145675252Y-128605166D02*
X146170252Y-128110165D01*
%TO.N,col2*%
D65*
X161366490Y-172777448D02*
X159852159Y-171263116D01*
X157512863Y-171263117D02*
X152835699Y-175940281D01*
%TO.N,P10*%
D66*
X151369644Y-127660168D02*
X145594951Y-127660165D01*
%TO.N,col2*%
D65*
X162116492Y-180680292D02*
X161048059Y-184667718D01*
%TO.N,P10*%
D66*
X151874642Y-127155167D02*
X151369644Y-127660168D01*
X153200254Y-127880171D02*
X152475255Y-127155169D01*
%TO.N,col2*%
D65*
X158331338Y-186236220D02*
X156925699Y-185859577D01*
X152835700Y-176555699D02*
X152023199Y-177368199D01*
X148149468Y-177208697D02*
X150983970Y-177968200D01*
%TO.N,P10*%
D66*
X153549948Y-127880169D02*
X153200254Y-127880171D01*
%TO.N,col2*%
D65*
X161366490Y-179381250D02*
X161366490Y-172777448D01*
X150983970Y-177968200D02*
X152023199Y-177368199D01*
X152835699Y-175940281D02*
X152835700Y-176555699D01*
%TO.N,P10*%
D66*
X152475255Y-127155169D02*
X151874642Y-127155167D01*
%TO.N,col2*%
D65*
X161048059Y-184667718D02*
X158331338Y-186236220D01*
X159852159Y-171263116D02*
X157512863Y-171263117D01*
X161366490Y-179381251D02*
X162116492Y-180680292D01*
%TO.N,P16*%
D66*
X153549948Y-125340167D02*
X153200255Y-125340169D01*
X151874646Y-124615169D02*
X151369644Y-125120171D01*
%TO.N,col1*%
D65*
X143891600Y-190572337D02*
X144952261Y-191633001D01*
X140409621Y-183144701D02*
X139807541Y-183144701D01*
X144952263Y-195761088D02*
X142734074Y-197979284D01*
%TO.N,P16*%
D66*
X153200255Y-125340169D02*
X152475254Y-124615166D01*
%TO.N,col1*%
D65*
X130562639Y-191894629D02*
X133497131Y-191894629D01*
%TO.N,P16*%
D66*
X152475254Y-124615166D02*
X151874646Y-124615169D01*
%TO.N,col1*%
D65*
X133497131Y-191894629D02*
X134345662Y-191046096D01*
X142734074Y-197979284D02*
X141278843Y-197979278D01*
X143891602Y-190572336D02*
X142423835Y-189104570D01*
X136119582Y-186832660D02*
X136119582Y-189272176D01*
X142423835Y-185158915D02*
X140632460Y-183367540D01*
X136119582Y-189272176D02*
X134345662Y-191046096D01*
X144952261Y-191633001D02*
X144952263Y-195761088D01*
X142423835Y-189104570D02*
X142423835Y-185158915D01*
%TO.N,P16*%
D66*
X151369644Y-125120171D02*
X145594948Y-125120167D01*
%TO.N,col1*%
D65*
X139807541Y-183144701D02*
X136119582Y-186832660D01*
%TO.N,P14*%
D66*
X151874644Y-122075168D02*
X151369642Y-122580169D01*
X152475255Y-122075165D02*
X151874644Y-122075168D01*
X153200257Y-122800168D02*
X152475255Y-122075165D01*
X151369642Y-122580169D02*
X145594948Y-122580168D01*
X153549949Y-122800164D02*
X153200257Y-122800168D01*
%TO.N,P15*%
X151874643Y-119535164D02*
X151369645Y-120040168D01*
X152475252Y-119535166D02*
X151874643Y-119535164D01*
X153200253Y-120260167D02*
X152475252Y-119535166D01*
X151369645Y-120040168D02*
X145594948Y-120040167D01*
X153549949Y-120260169D02*
X153200253Y-120260167D01*
%TO.N,P18*%
X151874644Y-116995168D02*
X151369644Y-117500169D01*
X153549950Y-117720171D02*
X153200253Y-117720164D01*
X151369644Y-117500169D02*
X145594952Y-117500167D01*
X152475256Y-116995170D02*
X151874644Y-116995168D01*
X153200253Y-117720164D02*
X152475256Y-116995170D01*
%TO.N,MOSI*%
X153200257Y-115180168D02*
X152475253Y-114455168D01*
X153549948Y-115180169D02*
X153200257Y-115180168D01*
X151874646Y-114455167D02*
X151369646Y-114960167D01*
X152475253Y-114455168D02*
X151874646Y-114455167D01*
X151369646Y-114960167D02*
X145594947Y-114960166D01*
%TO.N,SCK*%
X153549951Y-112640167D02*
X153200257Y-112640167D01*
X151874644Y-111915166D02*
X151369645Y-112420168D01*
X153200257Y-112640167D02*
X152475256Y-111915170D01*
X151369645Y-112420168D02*
X145594949Y-112420165D01*
X152475256Y-111915170D02*
X151874644Y-111915166D01*
%TO.N,CS*%
X151874644Y-109375171D02*
X151369646Y-109880167D01*
X151369646Y-109880167D02*
X145594951Y-109880164D01*
X152475256Y-109375169D02*
X151874644Y-109375171D01*
X153200252Y-110100167D02*
X152475256Y-109375169D01*
X153549948Y-110100169D02*
X153200252Y-110100167D01*
%TO.N,VCC*%
D65*
X142832950Y-151506170D02*
X146872981Y-147466139D01*
D66*
X151369646Y-107340164D02*
X145594951Y-107340166D01*
D65*
X146872981Y-144216905D02*
X147425895Y-144216905D01*
X145374945Y-107378828D02*
X145374945Y-107560166D01*
X148031200Y-136855200D02*
X148031200Y-143611600D01*
X148031200Y-135083916D02*
X148031200Y-136855200D01*
X144406284Y-106410167D02*
X145374945Y-107378828D01*
X140462000Y-136855200D02*
X140004946Y-136398146D01*
D66*
X152475252Y-106835169D02*
X151874648Y-106835167D01*
D65*
X146872981Y-147466139D02*
X146872981Y-144216905D01*
X147425895Y-144216905D02*
X148031200Y-143611600D01*
X142832950Y-173110168D02*
X142832950Y-167160168D01*
X140678600Y-106410167D02*
X144406284Y-106410167D01*
X140004946Y-107083821D02*
X140678600Y-106410167D01*
D66*
X151874648Y-106835167D02*
X151369646Y-107340164D01*
X153549947Y-107560167D02*
X153200254Y-107560166D01*
D65*
X142832950Y-167160168D02*
X142832950Y-151506170D01*
D66*
X153200254Y-107560166D02*
X152475252Y-106835169D01*
D65*
X140004946Y-136398146D02*
X140004946Y-107083821D01*
X148774950Y-134340166D02*
X148031200Y-135083916D01*
%TO.N,RST*%
D66*
X153549952Y-105020166D02*
X153200253Y-105020167D01*
X152475254Y-104295170D02*
X151874644Y-104295169D01*
X151874644Y-104295169D02*
X151369644Y-104800169D01*
D65*
X138938000Y-149352000D02*
X138938000Y-105610767D01*
X140678600Y-103870167D02*
X144790630Y-103870167D01*
D66*
X151369644Y-104800169D02*
X145594947Y-104800165D01*
D65*
X134866954Y-159015169D02*
X134866954Y-155244800D01*
X134866954Y-155244800D02*
X134866954Y-153423046D01*
X144790630Y-103870167D02*
X145374945Y-104454482D01*
X134866954Y-159015169D02*
X134866953Y-164265167D01*
X145374945Y-104454482D02*
X145374945Y-105020167D01*
X134866954Y-153423046D02*
X138938000Y-149352000D01*
X138938000Y-105610767D02*
X140678600Y-103870167D01*
D66*
X153200253Y-105020167D02*
X152475254Y-104295170D01*
%TO.N,RAW*%
D65*
X135772952Y-105290167D02*
X135247833Y-105290167D01*
D66*
X153200255Y-99940168D02*
X152475255Y-99215165D01*
X152475255Y-99215165D02*
X151874645Y-99215165D01*
D65*
X135247833Y-105290167D02*
X134366000Y-106172000D01*
D66*
X151874645Y-99215165D02*
X151369646Y-99720165D01*
X151369646Y-99720165D02*
X145594950Y-99720169D01*
X153549949Y-99940168D02*
X153200255Y-99940168D01*
%TO.N,dis1-pad4*%
D65*
X151911982Y-143491910D02*
X151911982Y-140523132D01*
X151911982Y-140523132D02*
X151994947Y-140440167D01*
%TO.N,dis1-pad3*%
X149454947Y-143403936D02*
X149366979Y-143491904D01*
X149454947Y-140440167D02*
X149454947Y-143403936D01*
%TO.N,dis1-pad2*%
X146872981Y-140482135D02*
X146914947Y-140440169D01*
X146872981Y-143491905D02*
X146872981Y-140482135D01*
%TO.N,dis1-pad1*%
X144374947Y-140440167D02*
X144374947Y-143444940D01*
X144374947Y-143444940D02*
X144327979Y-143491908D01*
%TO.N,middle_top*%
X217195948Y-98744166D02*
X212915113Y-98744168D01*
X219049949Y-96890166D02*
X217195948Y-98744166D01*
X212915113Y-98744168D02*
X211736113Y-97565165D01*
X206811948Y-107599168D02*
X204932948Y-105720170D01*
X210774952Y-107599166D02*
X206811952Y-107599666D01*
X211736113Y-97565165D02*
X210774949Y-97565168D01*
%TO.N,pinky_top*%
X263062035Y-123306412D02*
X260914262Y-124810301D01*
X249150365Y-131727607D02*
X247626195Y-129550868D01*
X255742105Y-122701121D02*
X254795541Y-122534216D01*
X260914262Y-124810301D02*
X256698463Y-124066942D01*
X256698463Y-124066942D02*
X255742105Y-122701121D01*
X253053159Y-132415777D02*
X249150273Y-131728101D01*
%TO.N,inner_top*%
X181049949Y-109890171D02*
X179195952Y-111744167D01*
X173736115Y-110565167D02*
X172774949Y-110565166D01*
X179195952Y-111744167D02*
X174915121Y-111744168D01*
X172774948Y-120599167D02*
X168811949Y-120599664D01*
X174915121Y-111744168D02*
X173736115Y-110565167D01*
X168811951Y-120599167D02*
X166932952Y-118720165D01*
%TO.N,middle_home*%
X210774950Y-126599170D02*
X206811948Y-126599669D01*
X219049949Y-115890166D02*
X217195948Y-117744169D01*
X211736116Y-116565163D02*
X210774954Y-116565167D01*
X206811950Y-126599169D02*
X204932955Y-124720168D01*
X217195948Y-117744169D02*
X212915113Y-117744165D01*
X212915113Y-117744165D02*
X211736116Y-116565163D01*
%TO.N,index_home*%
X200049951Y-124890169D02*
X198195949Y-126744167D01*
X192736113Y-125565168D02*
X191774950Y-125565167D01*
X191774949Y-135599167D02*
X187811951Y-135599667D01*
X193915112Y-126744170D02*
X192736113Y-125565168D01*
X187811950Y-135599167D02*
X185932949Y-133720165D01*
X198195949Y-126744167D02*
X193915112Y-126744170D01*
%TO.N,pinky_extra_home*%
X269333426Y-149502400D02*
X265430547Y-148814725D01*
X277194533Y-141896921D02*
X272978735Y-141153563D01*
X265430632Y-148814233D02*
X263906464Y-146637494D01*
X279342309Y-140393030D02*
X277194533Y-141896921D01*
X272978735Y-141153563D02*
X272022377Y-139787746D01*
X272022377Y-139787746D02*
X271075813Y-139620840D01*
%TO.N,SCK*%
X149102296Y-144216904D02*
X148132800Y-145186400D01*
X149366979Y-144216904D02*
X149102296Y-144216904D01*
%TO.N,pinky_extra_bottom*%
X262131320Y-167525581D02*
X260607154Y-165348841D01*
X273895220Y-160608269D02*
X269679419Y-159864910D01*
X266034112Y-168213745D02*
X262131229Y-167526074D01*
X268723064Y-158499090D02*
X267776501Y-158332186D01*
X269679419Y-159864910D02*
X268723064Y-158499090D01*
X276042992Y-159104377D02*
X273895220Y-160608269D01*
%TO.N,3_r0*%
X157440199Y-186750716D02*
X154008390Y-188732646D01*
X158573451Y-175871565D02*
X154866138Y-178011981D01*
X153255591Y-177580436D02*
X152423195Y-178061020D01*
X159252060Y-173338954D02*
X158573451Y-175871565D01*
X154866138Y-178011981D02*
X153255591Y-177580436D01*
X154008141Y-188732217D02*
X151441378Y-188044459D01*
%TO.N,1_r0*%
X190761948Y-176549168D02*
X188882954Y-174670169D01*
X195686118Y-166515167D02*
X194724948Y-166515168D01*
X201145949Y-167694170D02*
X196865114Y-167694166D01*
X194724948Y-176549169D02*
X190761949Y-176549666D01*
X196865114Y-167694166D02*
X195686118Y-166515167D01*
X202999950Y-165840165D02*
X201145949Y-167694170D01*
%TO.N,SW18B*%
X154296951Y-153342169D02*
X154296951Y-148912282D01*
X154296951Y-148912282D02*
X154236981Y-148852312D01*
%TO.N,index_bottom*%
X198195950Y-145744169D02*
X193915117Y-145744167D01*
X187811954Y-154599169D02*
X185932948Y-152720167D01*
X200049949Y-143890171D02*
X198195950Y-145744169D01*
X191774950Y-154599165D02*
X187811948Y-154599667D01*
X193915117Y-145744167D02*
X192736119Y-144565165D01*
X192736119Y-144565165D02*
X191774949Y-144565168D01*
%TO.N,ring_bottom*%
X225336169Y-155605770D02*
X223592822Y-153600274D01*
X236312563Y-147496693D02*
X232042160Y-147198076D01*
X229289517Y-155882218D02*
X225336133Y-155606272D01*
X238291380Y-145776540D02*
X236312563Y-147496693D01*
X232042160Y-147198076D02*
X230948275Y-145939703D01*
X230948275Y-145939703D02*
X229989452Y-145872657D01*
%TO.N,2_r0*%
X171583857Y-180218826D02*
X169282563Y-178890175D01*
X175411821Y-179193125D02*
X171583982Y-180219309D01*
X179322190Y-168977975D02*
X175187220Y-170085938D01*
X175187220Y-170085938D02*
X173743246Y-169252256D01*
X180633168Y-166707298D02*
X179322190Y-168977975D01*
X173743246Y-169252256D02*
X172814829Y-169501027D01*
%TO.N,RX*%
X135832949Y-173110168D02*
X135832949Y-167160167D01*
%TO.N,TX*%
X144332951Y-171360168D02*
X144332950Y-168910168D01*
%TO.N,MOSI*%
X151911982Y-144216910D02*
X149767830Y-146361062D01*
X149767830Y-146361062D02*
X148027627Y-146361062D01*
%TO.N,middle_bottom*%
X206811948Y-145599165D02*
X204932950Y-143720169D01*
X210774948Y-145599166D02*
X206811948Y-145599669D01*
X217195949Y-136744167D02*
X212915116Y-136744166D01*
X219049949Y-134890167D02*
X217195949Y-136744167D01*
X212915116Y-136744166D02*
X211736115Y-135565169D01*
X211736115Y-135565169D02*
X210774948Y-135565166D01*
%TO.N,4_r0*%
X139204191Y-201509157D02*
X136546889Y-201509158D01*
X140285357Y-185283176D02*
X140285358Y-187905127D01*
X140285358Y-187905127D02*
X137258349Y-190932137D01*
X137258349Y-190932137D02*
X135590994Y-190932137D01*
X142006456Y-198706893D02*
X139204544Y-201509513D01*
X135590994Y-190932137D02*
X134911346Y-191611785D01*
%TO.N,inner_home*%
X172774949Y-139599169D02*
X168811952Y-139599667D01*
X168811946Y-139599166D02*
X166932953Y-137720168D01*
X181049951Y-128890168D02*
X179195948Y-130744164D01*
X173736115Y-129565171D02*
X172774946Y-129565167D01*
X174915117Y-130744169D02*
X173736115Y-129565171D01*
X179195948Y-130744164D02*
X174915117Y-130744169D01*
%TO.N,pinky_bottom*%
X256463406Y-160729105D02*
X254315630Y-162232994D01*
X242551730Y-169150303D02*
X241027563Y-166973564D01*
X246454526Y-169838472D02*
X242551643Y-169150793D01*
X254315630Y-162232994D02*
X250099832Y-161489633D01*
X250099832Y-161489633D02*
X249143474Y-160123816D01*
X249143474Y-160123816D02*
X248196912Y-159956911D01*
%TO.N,pinky_home*%
X253399149Y-142778286D02*
X252442791Y-141412467D01*
X252442791Y-141412467D02*
X251496228Y-141245564D01*
X257614946Y-143521647D02*
X253399149Y-142778286D01*
X245851047Y-150438957D02*
X244326880Y-148262218D01*
X249753837Y-151127121D02*
X245850961Y-150439448D01*
X259762721Y-142017757D02*
X257614946Y-143521647D01*
%TO.N,index_top*%
X187811947Y-116599166D02*
X185932951Y-114720169D01*
X191774950Y-116599170D02*
X187811948Y-116599666D01*
X198195949Y-107744168D02*
X193915114Y-107744166D01*
X200049950Y-105890169D02*
X198195949Y-107744168D01*
X193915114Y-107744166D02*
X192736115Y-106565165D01*
X192736115Y-106565165D02*
X191774949Y-106565168D01*
%TO.N,inner_bottom*%
X181049948Y-147890170D02*
X179195947Y-149744167D01*
X172774950Y-158599166D02*
X168811950Y-158599668D01*
X179195947Y-149744167D02*
X174915115Y-149744165D01*
X168811949Y-158599165D02*
X166932954Y-156720168D01*
X174915115Y-149744165D02*
X173736115Y-148565164D01*
X173736115Y-148565164D02*
X172774952Y-148565168D01*
%TO.N,DISP1_1*%
D66*
X143694950Y-134340171D02*
X143694949Y-132590171D01*
%TO.N,DISP1_2*%
X146234948Y-134340163D02*
X146234950Y-132590164D01*
%TO.N,DISP1_4*%
X151314950Y-134340169D02*
X151314949Y-132590166D01*
%TO.N,DISP1_5*%
X153854947Y-134340167D02*
X153854954Y-132590171D01*
%TO.N,CS*%
D65*
X148844000Y-129286000D02*
X149324197Y-129766197D01*
X151930979Y-129766197D02*
X153854948Y-131690166D01*
X149324197Y-129766197D02*
X151930979Y-129766197D01*
%TO.N,SCK*%
X146234949Y-131690168D02*
X148352568Y-131690168D01*
X148352568Y-131690168D02*
X148894800Y-132232400D01*
%TO.N,MOSI*%
X143694950Y-131690166D02*
X145184716Y-130200400D01*
X145184716Y-130200400D02*
X147878800Y-130200400D01*
X147878800Y-129402671D02*
X147878800Y-130200400D01*
X148595471Y-128686000D02*
X147878800Y-129402671D01*
X152350782Y-128686000D02*
X148595471Y-128686000D01*
X155004950Y-141753942D02*
X155004950Y-131340168D01*
X152541982Y-144216910D02*
X155004950Y-141753942D01*
X151911982Y-144216910D02*
X152541982Y-144216910D01*
X155004950Y-131340168D02*
X152350782Y-128686000D01*
%TD*%
%TA.AperFunction,Conductor*%
%TO.N,GND*%
G36*
X163327776Y-94860351D02*
G01*
X163373531Y-94913155D01*
X163383475Y-94982313D01*
X163354450Y-95045869D01*
X163348419Y-95052345D01*
X162479606Y-95921158D01*
X161881286Y-96519478D01*
X161769481Y-96631282D01*
X161769479Y-96631285D01*
X161724385Y-96709392D01*
X161724384Y-96709393D01*
X161690423Y-96768214D01*
X161690423Y-96768215D01*
X161649499Y-96920943D01*
X161649499Y-96920945D01*
X161649499Y-97089046D01*
X161649500Y-97089059D01*
X161649500Y-110525500D01*
X161629815Y-110592539D01*
X161577011Y-110638294D01*
X161525500Y-110649500D01*
X157807127Y-110649500D01*
X157740088Y-110629815D01*
X157694333Y-110577011D01*
X157684389Y-110507853D01*
X157689196Y-110487182D01*
X157712192Y-110416409D01*
X157745446Y-110206453D01*
X157745446Y-109993879D01*
X157712192Y-109783923D01*
X157646503Y-109581754D01*
X157549997Y-109392350D01*
X157549995Y-109392347D01*
X157549994Y-109392345D01*
X157425055Y-109220379D01*
X157274732Y-109070056D01*
X157102763Y-108945115D01*
X157094000Y-108940650D01*
X157043204Y-108892675D01*
X157026410Y-108824854D01*
X157048948Y-108758719D01*
X157094001Y-108719681D01*
X157102761Y-108715218D01*
X157164737Y-108670190D01*
X157274731Y-108590276D01*
X157274733Y-108590273D01*
X157274737Y-108590271D01*
X157425049Y-108439959D01*
X157425051Y-108439955D01*
X157425054Y-108439953D01*
X157549993Y-108267987D01*
X157549992Y-108267987D01*
X157549996Y-108267983D01*
X157646502Y-108078579D01*
X157712191Y-107876410D01*
X157745445Y-107666454D01*
X157745445Y-107453880D01*
X157712191Y-107243924D01*
X157646502Y-107041755D01*
X157549996Y-106852351D01*
X157549994Y-106852348D01*
X157549993Y-106852346D01*
X157425054Y-106680380D01*
X157274731Y-106530057D01*
X157102762Y-106405116D01*
X157093999Y-106400651D01*
X157043203Y-106352676D01*
X157026409Y-106284855D01*
X157048947Y-106218720D01*
X157094000Y-106179682D01*
X157102762Y-106175218D01*
X157143637Y-106145521D01*
X157274732Y-106050276D01*
X157274734Y-106050273D01*
X157274738Y-106050271D01*
X157425050Y-105899959D01*
X157425052Y-105899955D01*
X157425055Y-105899953D01*
X157549994Y-105727987D01*
X157549993Y-105727987D01*
X157549997Y-105727983D01*
X157646503Y-105538579D01*
X157712192Y-105336410D01*
X157745446Y-105126454D01*
X157745446Y-104913880D01*
X157712192Y-104703924D01*
X157646503Y-104501755D01*
X157549997Y-104312351D01*
X157549995Y-104312348D01*
X157549994Y-104312346D01*
X157425055Y-104140380D01*
X157274732Y-103990057D01*
X157102761Y-103865115D01*
X157102758Y-103865113D01*
X157093996Y-103860648D01*
X157043202Y-103812672D01*
X157026409Y-103744850D01*
X157048949Y-103678716D01*
X157094003Y-103639680D01*
X157102763Y-103635217D01*
X157102765Y-103635215D01*
X157102768Y-103635214D01*
X157274733Y-103510275D01*
X157274735Y-103510272D01*
X157274739Y-103510270D01*
X157425051Y-103359958D01*
X157425053Y-103359954D01*
X157425056Y-103359952D01*
X157549995Y-103187986D01*
X157549994Y-103187986D01*
X157549998Y-103187982D01*
X157646504Y-102998578D01*
X157712193Y-102796409D01*
X157745447Y-102586453D01*
X157745447Y-102373879D01*
X157712193Y-102163923D01*
X157646504Y-101961754D01*
X157549998Y-101772350D01*
X157549996Y-101772347D01*
X157549995Y-101772345D01*
X157425056Y-101600379D01*
X157274733Y-101450056D01*
X157102764Y-101325115D01*
X157094001Y-101320650D01*
X157043205Y-101272675D01*
X157026411Y-101204854D01*
X157048949Y-101138719D01*
X157094002Y-101099681D01*
X157102762Y-101095218D01*
X157145871Y-101063898D01*
X157274732Y-100970276D01*
X157274734Y-100970273D01*
X157274738Y-100970271D01*
X157425050Y-100819959D01*
X157425052Y-100819955D01*
X157425055Y-100819953D01*
X157549994Y-100647987D01*
X157549993Y-100647987D01*
X157549997Y-100647983D01*
X157646503Y-100458579D01*
X157712192Y-100256410D01*
X157745446Y-100046454D01*
X157745446Y-99833880D01*
X157712192Y-99623924D01*
X157646503Y-99421755D01*
X157549997Y-99232351D01*
X157549995Y-99232348D01*
X157549994Y-99232346D01*
X157425055Y-99060380D01*
X157274732Y-98910057D01*
X157102766Y-98785118D01*
X156913360Y-98688611D01*
X156913359Y-98688610D01*
X156913358Y-98688610D01*
X156711189Y-98622921D01*
X156711187Y-98622920D01*
X156711186Y-98622920D01*
X156549903Y-98597375D01*
X156501233Y-98589667D01*
X156288659Y-98589667D01*
X156239988Y-98597375D01*
X156078706Y-98622920D01*
X156078703Y-98622921D01*
X155891572Y-98683724D01*
X155876531Y-98688611D01*
X155687125Y-98785118D01*
X155515161Y-98910056D01*
X155376933Y-99048284D01*
X155315610Y-99081768D01*
X155245918Y-99076784D01*
X155189985Y-99034912D01*
X155184937Y-99027642D01*
X155156978Y-98984137D01*
X155156974Y-98984133D01*
X155048245Y-98889918D01*
X155048243Y-98889916D01*
X155048240Y-98889914D01*
X155048236Y-98889912D01*
X154917365Y-98830144D01*
X154917360Y-98830143D01*
X154774946Y-98809668D01*
X154524946Y-98809668D01*
X154524940Y-98809668D01*
X154511719Y-98809927D01*
X154505106Y-98810057D01*
X154505101Y-98810057D01*
X154392080Y-98830864D01*
X154351516Y-98828779D01*
X154351139Y-98831404D01*
X154342362Y-98830142D01*
X154199946Y-98809666D01*
X153049946Y-98809666D01*
X153049933Y-98809666D01*
X153017208Y-98812006D01*
X152989319Y-98805938D01*
X152960938Y-98802893D01*
X152953990Y-98798251D01*
X152948936Y-98797152D01*
X152930581Y-98784891D01*
X152925393Y-98780712D01*
X152873988Y-98729307D01*
X152805768Y-98683724D01*
X152801174Y-98680654D01*
X152801165Y-98680647D01*
X152771546Y-98660856D01*
X152771537Y-98660851D01*
X152657711Y-98613703D01*
X152657699Y-98613700D01*
X152536867Y-98589665D01*
X152536863Y-98589665D01*
X152536861Y-98589665D01*
X151936251Y-98589665D01*
X151813038Y-98589665D01*
X151813033Y-98589665D01*
X151692200Y-98613700D01*
X151692192Y-98613702D01*
X151578361Y-98660852D01*
X151475910Y-98729307D01*
X151475907Y-98729310D01*
X151146872Y-99058346D01*
X151085549Y-99091831D01*
X151059191Y-99094665D01*
X145711524Y-99094667D01*
X145664076Y-99085230D01*
X145637618Y-99074272D01*
X145637612Y-99074270D01*
X145463642Y-99039665D01*
X145463640Y-99039665D01*
X145286258Y-99039665D01*
X145286255Y-99039665D01*
X145112285Y-99074269D01*
X145112281Y-99074271D01*
X145071883Y-99091004D01*
X145002413Y-99098471D01*
X144939934Y-99067195D01*
X144920118Y-99043482D01*
X144897781Y-99008725D01*
X144881979Y-98984136D01*
X144881974Y-98984131D01*
X144773245Y-98889916D01*
X144773243Y-98889914D01*
X144773240Y-98889912D01*
X144773236Y-98889910D01*
X144642365Y-98830142D01*
X144642360Y-98830141D01*
X144499946Y-98809666D01*
X143349946Y-98809666D01*
X143349937Y-98809666D01*
X143226680Y-98824926D01*
X143218689Y-98827019D01*
X143217944Y-98824177D01*
X143168422Y-98830296D01*
X143024946Y-98809668D01*
X142774946Y-98809668D01*
X142774943Y-98809668D01*
X142703005Y-98814812D01*
X142564951Y-98855350D01*
X142443915Y-98933135D01*
X142443915Y-98933136D01*
X142351886Y-99039341D01*
X142293107Y-99077115D01*
X142223238Y-99077114D01*
X142170493Y-99045818D01*
X142034732Y-98910057D01*
X141862766Y-98785118D01*
X141673360Y-98688611D01*
X141673359Y-98688610D01*
X141673358Y-98688610D01*
X141471189Y-98622921D01*
X141471187Y-98622920D01*
X141471186Y-98622920D01*
X141309903Y-98597375D01*
X141261233Y-98589667D01*
X141048659Y-98589667D01*
X140999988Y-98597375D01*
X140838706Y-98622920D01*
X140838703Y-98622921D01*
X140651572Y-98683724D01*
X140636531Y-98688611D01*
X140447125Y-98785118D01*
X140275159Y-98910057D01*
X140124836Y-99060380D01*
X139999897Y-99232346D01*
X139903390Y-99421752D01*
X139837699Y-99623927D01*
X139804446Y-99833880D01*
X139804446Y-100046453D01*
X139837699Y-100256406D01*
X139903390Y-100458581D01*
X139999897Y-100647987D01*
X140124836Y-100819953D01*
X140275159Y-100970276D01*
X140447128Y-101095217D01*
X140455890Y-101099682D01*
X140506686Y-101147657D01*
X140523480Y-101215478D01*
X140500942Y-101281613D01*
X140455894Y-101320648D01*
X140447128Y-101325114D01*
X140275158Y-101450056D01*
X140124835Y-101600379D01*
X139999896Y-101772345D01*
X139903389Y-101961751D01*
X139837698Y-102163926D01*
X139804445Y-102373879D01*
X139804445Y-102586452D01*
X139832961Y-102766498D01*
X139837699Y-102796409D01*
X139903086Y-102997650D01*
X139903389Y-102998580D01*
X139999896Y-103187986D01*
X140124835Y-103359952D01*
X140144526Y-103379643D01*
X140178011Y-103440966D01*
X140173027Y-103510658D01*
X140144526Y-103555005D01*
X138457481Y-105242049D01*
X138457475Y-105242057D01*
X138414523Y-105316454D01*
X138414523Y-105316455D01*
X138378423Y-105378982D01*
X138337499Y-105531710D01*
X138337499Y-105531712D01*
X138337499Y-105699813D01*
X138337500Y-105699826D01*
X138337500Y-149051902D01*
X138317815Y-149118941D01*
X138301181Y-149139583D01*
X134386435Y-153054328D01*
X134386434Y-153054330D01*
X134341867Y-153131524D01*
X134336315Y-153141140D01*
X134336313Y-153141142D01*
X134307379Y-153191255D01*
X134307378Y-153191256D01*
X134307377Y-153191261D01*
X134266453Y-153343989D01*
X134266453Y-153343991D01*
X134266453Y-153512092D01*
X134266454Y-153512105D01*
X134266454Y-154665034D01*
X134246769Y-154732073D01*
X134245556Y-154733925D01*
X134157563Y-154865614D01*
X134157556Y-154865627D01*
X134097218Y-155011298D01*
X134097215Y-155011310D01*
X134066454Y-155165953D01*
X134066454Y-155323646D01*
X134097215Y-155478289D01*
X134097218Y-155478301D01*
X134157556Y-155623972D01*
X134157563Y-155623985D01*
X134245556Y-155755674D01*
X134266434Y-155822351D01*
X134266454Y-155824565D01*
X134266454Y-157657378D01*
X134262258Y-157671665D01*
X134262976Y-157686540D01*
X134252613Y-157704514D01*
X134246769Y-157724417D01*
X134234929Y-157735186D01*
X134228078Y-157747070D01*
X134208125Y-157759568D01*
X134199340Y-157767559D01*
X134192736Y-157770968D01*
X134124623Y-157796373D01*
X134082599Y-157827831D01*
X134073424Y-157832569D01*
X134048841Y-157837322D01*
X134025382Y-157846072D01*
X134015129Y-157843841D01*
X134004825Y-157845834D01*
X133981570Y-157836540D01*
X133957110Y-157831219D01*
X133942228Y-157821655D01*
X133909050Y-157796818D01*
X133774333Y-157746571D01*
X133774329Y-157746570D01*
X133714801Y-157740169D01*
X133416957Y-157740169D01*
X133416957Y-160290169D01*
X133714785Y-160290169D01*
X133714801Y-160290168D01*
X133774329Y-160283767D01*
X133774333Y-160283766D01*
X133909048Y-160233520D01*
X133942225Y-160208683D01*
X134007688Y-160184264D01*
X134073425Y-160197767D01*
X134082589Y-160202498D01*
X134124623Y-160233965D01*
X134192744Y-160259372D01*
X134199340Y-160262778D01*
X134219454Y-160281980D01*
X134241719Y-160298647D01*
X134244377Y-160305773D01*
X134249878Y-160311025D01*
X134256417Y-160338053D01*
X134266137Y-160364111D01*
X134266453Y-160372959D01*
X134266453Y-162907376D01*
X134246768Y-162974415D01*
X134193964Y-163020170D01*
X134185786Y-163023558D01*
X134124624Y-163046369D01*
X134124618Y-163046372D01*
X134090846Y-163071654D01*
X134025381Y-163096070D01*
X133957109Y-163081217D01*
X133942227Y-163071653D01*
X133909049Y-163046816D01*
X133774332Y-162996569D01*
X133774328Y-162996568D01*
X133714800Y-162990167D01*
X133416956Y-162990167D01*
X133416956Y-165540167D01*
X133714784Y-165540167D01*
X133714800Y-165540166D01*
X133774328Y-165533765D01*
X133774332Y-165533764D01*
X133909047Y-165483518D01*
X133942224Y-165458681D01*
X134007687Y-165434262D01*
X134075961Y-165449112D01*
X134090844Y-165458676D01*
X134119681Y-165480264D01*
X134124621Y-165483962D01*
X134124624Y-165483964D01*
X134259470Y-165534258D01*
X134259469Y-165534258D01*
X134266397Y-165535002D01*
X134319080Y-165540667D01*
X135414825Y-165540666D01*
X135474436Y-165534258D01*
X135609284Y-165483963D01*
X135724499Y-165397713D01*
X135810749Y-165282498D01*
X135861044Y-165147650D01*
X135867453Y-165088040D01*
X135867452Y-163442295D01*
X135861044Y-163382684D01*
X135841042Y-163329057D01*
X135810750Y-163247838D01*
X135810746Y-163247831D01*
X135724500Y-163132622D01*
X135724497Y-163132619D01*
X135609288Y-163046373D01*
X135609281Y-163046369D01*
X135548120Y-163023558D01*
X135492186Y-162981687D01*
X135467769Y-162916223D01*
X135467453Y-162907376D01*
X135467453Y-160372960D01*
X135487138Y-160305921D01*
X135539942Y-160260166D01*
X135548121Y-160256778D01*
X135609280Y-160233967D01*
X135609280Y-160233966D01*
X135609285Y-160233965D01*
X135724500Y-160147715D01*
X135810750Y-160032500D01*
X135861045Y-159897652D01*
X135867454Y-159838042D01*
X135867453Y-158192297D01*
X135861045Y-158132686D01*
X135859739Y-158129185D01*
X135810751Y-157997840D01*
X135810747Y-157997833D01*
X135724501Y-157882624D01*
X135724498Y-157882621D01*
X135609289Y-157796375D01*
X135609282Y-157796371D01*
X135548121Y-157773560D01*
X135492187Y-157731689D01*
X135467770Y-157666225D01*
X135467454Y-157657378D01*
X135467454Y-155824565D01*
X135472782Y-155806419D01*
X135473120Y-155787512D01*
X135486619Y-155759295D01*
X135487139Y-155757526D01*
X135488352Y-155755674D01*
X135558726Y-155650353D01*
X135576344Y-155623985D01*
X135576344Y-155623984D01*
X135576348Y-155623979D01*
X135636691Y-155478297D01*
X135667454Y-155323642D01*
X135667454Y-155165958D01*
X135667454Y-155165955D01*
X135667453Y-155165953D01*
X135658474Y-155120814D01*
X135636691Y-155011303D01*
X135636689Y-155011298D01*
X135576351Y-154865627D01*
X135576344Y-154865614D01*
X135488352Y-154733925D01*
X135467474Y-154667247D01*
X135467454Y-154665034D01*
X135467454Y-153723142D01*
X135487139Y-153656103D01*
X135503768Y-153635466D01*
X135915163Y-153224071D01*
X138296451Y-153224071D01*
X138296451Y-153460266D01*
X138333397Y-153693537D01*
X138406384Y-153918165D01*
X138513608Y-154128602D01*
X138652434Y-154319679D01*
X138819441Y-154486686D01*
X138875690Y-154527553D01*
X138918354Y-154582882D01*
X138923046Y-154614711D01*
X139667542Y-155359206D01*
X139603958Y-155376244D01*
X139489944Y-155442070D01*
X139396852Y-155535162D01*
X139331026Y-155649176D01*
X139313988Y-155712760D01*
X138574291Y-154973063D01*
X138514035Y-155055999D01*
X138406848Y-155266366D01*
X138333885Y-155490921D01*
X138296951Y-155724116D01*
X138296951Y-155960221D01*
X138333885Y-156193416D01*
X138406848Y-156417971D01*
X138514038Y-156628343D01*
X138574289Y-156711273D01*
X138574291Y-156711274D01*
X139313988Y-155971577D01*
X139331026Y-156035162D01*
X139396852Y-156149176D01*
X139489944Y-156242268D01*
X139603958Y-156308094D01*
X139667541Y-156325131D01*
X138921231Y-157071440D01*
X138912056Y-157115116D01*
X138875690Y-157156784D01*
X138819441Y-157197651D01*
X138652436Y-157364656D01*
X138652436Y-157364657D01*
X138652434Y-157364659D01*
X138601346Y-157434975D01*
X138513608Y-157555735D01*
X138406384Y-157766172D01*
X138333397Y-157990800D01*
X138296451Y-158224071D01*
X138296451Y-158460266D01*
X138333397Y-158693537D01*
X138406384Y-158918165D01*
X138513608Y-159128602D01*
X138652434Y-159319679D01*
X138819441Y-159486686D01*
X139010518Y-159625512D01*
X139097450Y-159669806D01*
X139220954Y-159732735D01*
X139220956Y-159732735D01*
X139220959Y-159732737D01*
X139295910Y-159757090D01*
X139445582Y-159805722D01*
X139678854Y-159842669D01*
X139678859Y-159842669D01*
X139915048Y-159842669D01*
X140148319Y-159805722D01*
X140166720Y-159799743D01*
X140372943Y-159732737D01*
X140583384Y-159625512D01*
X140774461Y-159486686D01*
X140941468Y-159319679D01*
X141080294Y-159128602D01*
X141187519Y-158918161D01*
X141260504Y-158693537D01*
X141260505Y-158693531D01*
X141297451Y-158460266D01*
X141297451Y-158224071D01*
X141260504Y-157990800D01*
X141225354Y-157882621D01*
X141187519Y-157766177D01*
X141187517Y-157766174D01*
X141187517Y-157766172D01*
X141125232Y-157643931D01*
X141080294Y-157555736D01*
X140941468Y-157364659D01*
X140774461Y-157197652D01*
X140718210Y-157156783D01*
X140675546Y-157101453D01*
X140670853Y-157069624D01*
X139926359Y-156325131D01*
X139989944Y-156308094D01*
X140103958Y-156242268D01*
X140197050Y-156149176D01*
X140262876Y-156035162D01*
X140279913Y-155971578D01*
X141019609Y-156711274D01*
X141019609Y-156711273D01*
X141079865Y-156628338D01*
X141079869Y-156628332D01*
X141187053Y-156417971D01*
X141260016Y-156193416D01*
X141296951Y-155960221D01*
X141296951Y-155724116D01*
X141260016Y-155490921D01*
X141187053Y-155266366D01*
X141079865Y-155055997D01*
X141019609Y-154973063D01*
X141019609Y-154973062D01*
X140279913Y-155712759D01*
X140262876Y-155649176D01*
X140197050Y-155535162D01*
X140103958Y-155442070D01*
X139989944Y-155376244D01*
X139926360Y-155359206D01*
X140672667Y-154612898D01*
X140681842Y-154569223D01*
X140718208Y-154527555D01*
X140774461Y-154486686D01*
X140941468Y-154319679D01*
X141080294Y-154128602D01*
X141187519Y-153918161D01*
X141260504Y-153693537D01*
X141289242Y-153512092D01*
X141297451Y-153460266D01*
X141297451Y-153224071D01*
X141260504Y-152990800D01*
X141187517Y-152766172D01*
X141080293Y-152555735D01*
X140941468Y-152364659D01*
X140774461Y-152197652D01*
X140583384Y-152058826D01*
X140583380Y-152058824D01*
X140372947Y-151951602D01*
X140148319Y-151878615D01*
X139915048Y-151841669D01*
X139915043Y-151841669D01*
X139678859Y-151841669D01*
X139678854Y-151841669D01*
X139445582Y-151878615D01*
X139220954Y-151951602D01*
X139010517Y-152058826D01*
X138901501Y-152138031D01*
X138819441Y-152197652D01*
X138819439Y-152197654D01*
X138819438Y-152197654D01*
X138652436Y-152364656D01*
X138652436Y-152364657D01*
X138652434Y-152364659D01*
X138592813Y-152446719D01*
X138513608Y-152555735D01*
X138406384Y-152766172D01*
X138333397Y-152990800D01*
X138296451Y-153224071D01*
X135915163Y-153224071D01*
X139296506Y-149842727D01*
X139296511Y-149842724D01*
X139306714Y-149832520D01*
X139306716Y-149832520D01*
X139418520Y-149720716D01*
X139497577Y-149583784D01*
X139538500Y-149431057D01*
X139538500Y-137080297D01*
X139558185Y-137013258D01*
X139610989Y-136967503D01*
X139680147Y-136957559D01*
X139743703Y-136986584D01*
X139750181Y-136992616D01*
X139977139Y-137219574D01*
X139977149Y-137219585D01*
X139981479Y-137223915D01*
X139981480Y-137223916D01*
X140093284Y-137335720D01*
X140180095Y-137385839D01*
X140180097Y-137385841D01*
X140218151Y-137407811D01*
X140230215Y-137414777D01*
X140382943Y-137455701D01*
X140382946Y-137455701D01*
X140548653Y-137455701D01*
X140548669Y-137455700D01*
X147306700Y-137455700D01*
X147373739Y-137475385D01*
X147419494Y-137528189D01*
X147430700Y-137579700D01*
X147430700Y-138869649D01*
X147411015Y-138936688D01*
X147358211Y-138982443D01*
X147289053Y-138992387D01*
X147268382Y-138987580D01*
X147219484Y-138971692D01*
X147067844Y-138947674D01*
X147017299Y-138939669D01*
X146812595Y-138939669D01*
X146788276Y-138943520D01*
X146610412Y-138971691D01*
X146415723Y-139034950D01*
X146233333Y-139127884D01*
X146067733Y-139248197D01*
X145922975Y-139392955D01*
X145802659Y-139558558D01*
X145802658Y-139558560D01*
X145755431Y-139651248D01*
X145707457Y-139702044D01*
X145639636Y-139718839D01*
X145573501Y-139696301D01*
X145534462Y-139651248D01*
X145487235Y-139558560D01*
X145487234Y-139558557D01*
X145487232Y-139558554D01*
X145487231Y-139558552D01*
X145366918Y-139392953D01*
X145222160Y-139248195D01*
X145056560Y-139127882D01*
X145056559Y-139127881D01*
X145056557Y-139127880D01*
X144991636Y-139094801D01*
X144874170Y-139034948D01*
X144679481Y-138971689D01*
X144504942Y-138944045D01*
X144477299Y-138939667D01*
X144272595Y-138939667D01*
X144248276Y-138943518D01*
X144070412Y-138971689D01*
X143875723Y-139034948D01*
X143693333Y-139127882D01*
X143527733Y-139248195D01*
X143382975Y-139392953D01*
X143262662Y-139558553D01*
X143169728Y-139740943D01*
X143106469Y-139935632D01*
X143074447Y-140137815D01*
X143074447Y-140742518D01*
X143106469Y-140944701D01*
X143169728Y-141139390D01*
X143262662Y-141321780D01*
X143382975Y-141487380D01*
X143382981Y-141487386D01*
X143527728Y-141632133D01*
X143693337Y-141752454D01*
X143706740Y-141759283D01*
X143757536Y-141807255D01*
X143774447Y-141869768D01*
X143774447Y-142365848D01*
X143754762Y-142432887D01*
X143701958Y-142478642D01*
X143659293Y-142489532D01*
X143631038Y-142491552D01*
X143504623Y-142528672D01*
X143492998Y-142532086D01*
X143492984Y-142532090D01*
X143371948Y-142609875D01*
X143371944Y-142609879D01*
X143277729Y-142718608D01*
X143277723Y-142718617D01*
X143217955Y-142849488D01*
X143217954Y-142849493D01*
X143197479Y-142991905D01*
X143197479Y-142991908D01*
X143197479Y-143241908D01*
X143197868Y-143261748D01*
X143223917Y-143403247D01*
X143223919Y-143403254D01*
X143280457Y-143515203D01*
X143288779Y-143531681D01*
X143387196Y-143636637D01*
X144012196Y-144136637D01*
X144100102Y-144193131D01*
X144236457Y-144239054D01*
X144380221Y-144244701D01*
X144380221Y-144244700D01*
X144380226Y-144244701D01*
X144519763Y-144209614D01*
X144643762Y-144136637D01*
X145268762Y-143636637D01*
X145284011Y-143623939D01*
X145378233Y-143515202D01*
X145423841Y-143415335D01*
X145438002Y-143384327D01*
X145438003Y-143384322D01*
X145458479Y-143241908D01*
X145458479Y-142991908D01*
X145453334Y-142919968D01*
X145412798Y-142781916D01*
X145335012Y-142660879D01*
X145335011Y-142660877D01*
X145335007Y-142660873D01*
X145226278Y-142566658D01*
X145226276Y-142566656D01*
X145226273Y-142566654D01*
X145226269Y-142566652D01*
X145095398Y-142506884D01*
X145095394Y-142506883D01*
X145081799Y-142504929D01*
X145018243Y-142475903D01*
X144980469Y-142417125D01*
X144975447Y-142382191D01*
X144975447Y-141869768D01*
X144995132Y-141802729D01*
X145043153Y-141759283D01*
X145056557Y-141752454D01*
X145222166Y-141632133D01*
X145366913Y-141487386D01*
X145366915Y-141487382D01*
X145366918Y-141487380D01*
X145487232Y-141321780D01*
X145487234Y-141321777D01*
X145534462Y-141229086D01*
X145582435Y-141178292D01*
X145650256Y-141161496D01*
X145716391Y-141184033D01*
X145755430Y-141229086D01*
X145802659Y-141321778D01*
X145802662Y-141321782D01*
X145922975Y-141487382D01*
X146067731Y-141632138D01*
X146126562Y-141674880D01*
X146221366Y-141743759D01*
X146264032Y-141799087D01*
X146272481Y-141844076D01*
X146272481Y-142370519D01*
X146252796Y-142437558D01*
X146199992Y-142483313D01*
X146182189Y-142488896D01*
X146182419Y-142489677D01*
X146037986Y-142532087D01*
X145916950Y-142609872D01*
X145916946Y-142609876D01*
X145822731Y-142718605D01*
X145822725Y-142718614D01*
X145762957Y-142849485D01*
X145762956Y-142849490D01*
X145742481Y-142991904D01*
X145742481Y-143241911D01*
X145742870Y-143261741D01*
X145742870Y-143261748D01*
X145763678Y-143374776D01*
X145761590Y-143415335D01*
X145764219Y-143415713D01*
X145762957Y-143424488D01*
X145762957Y-143424489D01*
X145742481Y-143566905D01*
X145742481Y-143566906D01*
X145742481Y-144716907D01*
X145747625Y-144788845D01*
X145788163Y-144926899D01*
X145865948Y-145047935D01*
X145865952Y-145047939D01*
X145924811Y-145098941D01*
X145974687Y-145142159D01*
X146015155Y-145160640D01*
X146105561Y-145201928D01*
X146105564Y-145201928D01*
X146105565Y-145201929D01*
X146166128Y-145210636D01*
X146229683Y-145239660D01*
X146267458Y-145298438D01*
X146272481Y-145333374D01*
X146272481Y-147166041D01*
X146252796Y-147233080D01*
X146236162Y-147253722D01*
X142352431Y-151137452D01*
X142352429Y-151137455D01*
X142302311Y-151224264D01*
X142302309Y-151224266D01*
X142273375Y-151274379D01*
X142273374Y-151274380D01*
X142269177Y-151290045D01*
X142232449Y-151427113D01*
X142232449Y-151427115D01*
X142232449Y-151595216D01*
X142232450Y-151595229D01*
X142232450Y-166078446D01*
X142212765Y-166145485D01*
X142159961Y-166191240D01*
X142144449Y-166197105D01*
X142141117Y-166198115D01*
X141959042Y-166273532D01*
X141959029Y-166273539D01*
X141795168Y-166383028D01*
X141795164Y-166383031D01*
X141655813Y-166522382D01*
X141655810Y-166522386D01*
X141546321Y-166686247D01*
X141546314Y-166686260D01*
X141470900Y-166868328D01*
X141470897Y-166868338D01*
X141432450Y-167061624D01*
X141432450Y-167061627D01*
X141432450Y-167258709D01*
X141432450Y-167258711D01*
X141432449Y-167258711D01*
X141470897Y-167451997D01*
X141470900Y-167452007D01*
X141546314Y-167634075D01*
X141546321Y-167634088D01*
X141655810Y-167797949D01*
X141655813Y-167797953D01*
X141795164Y-167937304D01*
X141795168Y-167937307D01*
X141959029Y-168046796D01*
X141959042Y-168046803D01*
X142050075Y-168084509D01*
X142141115Y-168122219D01*
X142141126Y-168122221D01*
X142144441Y-168123227D01*
X142145973Y-168124231D01*
X142146743Y-168124550D01*
X142146682Y-168124695D01*
X142202881Y-168161523D01*
X142231340Y-168225334D01*
X142232450Y-168241889D01*
X142232450Y-172028446D01*
X142212765Y-172095485D01*
X142159961Y-172141240D01*
X142144449Y-172147105D01*
X142141117Y-172148115D01*
X141959042Y-172223532D01*
X141959029Y-172223539D01*
X141795168Y-172333028D01*
X141795164Y-172333031D01*
X141655813Y-172472382D01*
X141655812Y-172472384D01*
X141546321Y-172636247D01*
X141546314Y-172636260D01*
X141470900Y-172818328D01*
X141470897Y-172818338D01*
X141432450Y-173011624D01*
X141432450Y-173011627D01*
X141432450Y-173208709D01*
X141432450Y-173208711D01*
X141432449Y-173208711D01*
X141470897Y-173401997D01*
X141470900Y-173402007D01*
X141546314Y-173584075D01*
X141546321Y-173584088D01*
X141655810Y-173747949D01*
X141655813Y-173747953D01*
X141795164Y-173887304D01*
X141795168Y-173887307D01*
X141959029Y-173996796D01*
X141959042Y-173996803D01*
X142141110Y-174072217D01*
X142141115Y-174072219D01*
X142141119Y-174072219D01*
X142141120Y-174072220D01*
X142334406Y-174110668D01*
X142334409Y-174110668D01*
X143331493Y-174110668D01*
X143461532Y-174084800D01*
X143524785Y-174072219D01*
X143706864Y-173996800D01*
X143870732Y-173887307D01*
X144010089Y-173747950D01*
X144119582Y-173584082D01*
X144195001Y-173402003D01*
X144222220Y-173265165D01*
X144233450Y-173208711D01*
X144233450Y-173011624D01*
X144195002Y-172818338D01*
X144195001Y-172818337D01*
X144195001Y-172818333D01*
X144188717Y-172803162D01*
X144119585Y-172636260D01*
X144119575Y-172636242D01*
X144064328Y-172553558D01*
X144043450Y-172486881D01*
X144061935Y-172419501D01*
X144113914Y-172372811D01*
X144167430Y-172360668D01*
X144831494Y-172360668D01*
X144970446Y-172333028D01*
X145024786Y-172322219D01*
X145206865Y-172246800D01*
X145370733Y-172137307D01*
X145510090Y-171997950D01*
X145619583Y-171834082D01*
X145622109Y-171827985D01*
X145649760Y-171761227D01*
X145695002Y-171652003D01*
X145714828Y-171552334D01*
X145733451Y-171458711D01*
X145733451Y-171261624D01*
X145695003Y-171068338D01*
X145695002Y-171068337D01*
X145695002Y-171068333D01*
X145636214Y-170926404D01*
X145619586Y-170886260D01*
X145619579Y-170886247D01*
X145510090Y-170722386D01*
X145510087Y-170722382D01*
X145370736Y-170583031D01*
X145370732Y-170583028D01*
X145206871Y-170473539D01*
X145206858Y-170473532D01*
X145024786Y-170398116D01*
X145021442Y-170397102D01*
X145019907Y-170396095D01*
X145019159Y-170395786D01*
X145019217Y-170395644D01*
X144963008Y-170358798D01*
X144934558Y-170294983D01*
X144933450Y-170278445D01*
X144933450Y-169991889D01*
X144953135Y-169924850D01*
X145005939Y-169879095D01*
X145021459Y-169873227D01*
X145024770Y-169872221D01*
X145024785Y-169872219D01*
X145206864Y-169796800D01*
X145370732Y-169687307D01*
X145510089Y-169547950D01*
X145619582Y-169384082D01*
X145695001Y-169202003D01*
X145730639Y-169022841D01*
X145733450Y-169008711D01*
X145733450Y-168811624D01*
X145695002Y-168618338D01*
X145695001Y-168618337D01*
X145695001Y-168618333D01*
X145674323Y-168568412D01*
X145619585Y-168436260D01*
X145619578Y-168436247D01*
X145510089Y-168272386D01*
X145510086Y-168272382D01*
X145370735Y-168133031D01*
X145370731Y-168133028D01*
X145206870Y-168023539D01*
X145206857Y-168023532D01*
X145024789Y-167948118D01*
X145024779Y-167948115D01*
X144831493Y-167909668D01*
X144831491Y-167909668D01*
X144167430Y-167909668D01*
X144100391Y-167889983D01*
X144054636Y-167837179D01*
X144044692Y-167768021D01*
X144064328Y-167716778D01*
X144119575Y-167634093D01*
X144119578Y-167634088D01*
X144119582Y-167634082D01*
X144195001Y-167452003D01*
X144217312Y-167339839D01*
X144233450Y-167258711D01*
X144233450Y-167061624D01*
X144195002Y-166868338D01*
X144195001Y-166868337D01*
X144195001Y-166868333D01*
X144188717Y-166853161D01*
X144119585Y-166686260D01*
X144119578Y-166686247D01*
X144010089Y-166522386D01*
X144010086Y-166522382D01*
X143870735Y-166383031D01*
X143870731Y-166383028D01*
X143706870Y-166273539D01*
X143706857Y-166273532D01*
X143524782Y-166198115D01*
X143521451Y-166197105D01*
X143519920Y-166196101D01*
X143519158Y-166195786D01*
X143519217Y-166195641D01*
X143463013Y-166158806D01*
X143434559Y-166094993D01*
X143433450Y-166078446D01*
X143433450Y-160394304D01*
X145196451Y-160394304D01*
X145196451Y-162490039D01*
X145196452Y-162490045D01*
X145202859Y-162549652D01*
X145253153Y-162684497D01*
X145253157Y-162684504D01*
X145339403Y-162799713D01*
X145339406Y-162799716D01*
X145454615Y-162885962D01*
X145454622Y-162885966D01*
X145589468Y-162936260D01*
X145589467Y-162936260D01*
X145596395Y-162937004D01*
X145649078Y-162942669D01*
X148944823Y-162942668D01*
X149004434Y-162936260D01*
X149139282Y-162885965D01*
X149254497Y-162799715D01*
X149340747Y-162684500D01*
X149391042Y-162549652D01*
X149397451Y-162490042D01*
X149397450Y-160394297D01*
X149391042Y-160334686D01*
X149380313Y-160305921D01*
X149340748Y-160199840D01*
X149340744Y-160199833D01*
X149254498Y-160084624D01*
X149254495Y-160084621D01*
X149139286Y-159998375D01*
X149139279Y-159998371D01*
X149004433Y-159948077D01*
X149004434Y-159948077D01*
X148944834Y-159941670D01*
X148944832Y-159941669D01*
X148944824Y-159941669D01*
X148944815Y-159941669D01*
X145649080Y-159941669D01*
X145649074Y-159941670D01*
X145589467Y-159948077D01*
X145454622Y-159998371D01*
X145454615Y-159998375D01*
X145339406Y-160084621D01*
X145339403Y-160084624D01*
X145253157Y-160199833D01*
X145253153Y-160199840D01*
X145202859Y-160334686D01*
X145196452Y-160394285D01*
X145196452Y-160394292D01*
X145196451Y-160394304D01*
X143433450Y-160394304D01*
X143433450Y-153224071D01*
X152796451Y-153224071D01*
X152796451Y-153460266D01*
X152833397Y-153693537D01*
X152906384Y-153918165D01*
X153013608Y-154128602D01*
X153152434Y-154319679D01*
X153319441Y-154486686D01*
X153510518Y-154625512D01*
X153592428Y-154667247D01*
X153720954Y-154732735D01*
X153720956Y-154732735D01*
X153720959Y-154732737D01*
X153841363Y-154771858D01*
X153945582Y-154805722D01*
X154178854Y-154842669D01*
X154178859Y-154842669D01*
X154415048Y-154842669D01*
X154648319Y-154805722D01*
X154872943Y-154732737D01*
X155083384Y-154625512D01*
X155274461Y-154486686D01*
X155441468Y-154319679D01*
X155580294Y-154128602D01*
X155687519Y-153918161D01*
X155760504Y-153693537D01*
X155789242Y-153512092D01*
X155797451Y-153460266D01*
X155797451Y-153224071D01*
X155760504Y-152990800D01*
X155687517Y-152766172D01*
X155580293Y-152555735D01*
X155441468Y-152364659D01*
X155274461Y-152197652D01*
X155178922Y-152128239D01*
X155083382Y-152058824D01*
X154965155Y-151998584D01*
X154914360Y-151950610D01*
X154897451Y-151888100D01*
X154897451Y-149982028D01*
X154917136Y-149914989D01*
X154947137Y-149882764D01*
X155044527Y-149809858D01*
X155130777Y-149694643D01*
X155181072Y-149559795D01*
X155187481Y-149500185D01*
X155187480Y-148204440D01*
X155181072Y-148144829D01*
X155181071Y-148144827D01*
X155130778Y-148009983D01*
X155130774Y-148009976D01*
X155044528Y-147894767D01*
X155044525Y-147894764D01*
X154929316Y-147808518D01*
X154929309Y-147808514D01*
X154794463Y-147758220D01*
X154794464Y-147758220D01*
X154734864Y-147751813D01*
X154734862Y-147751812D01*
X154734854Y-147751812D01*
X154734845Y-147751812D01*
X153739110Y-147751812D01*
X153739104Y-147751813D01*
X153679497Y-147758220D01*
X153544652Y-147808514D01*
X153544645Y-147808518D01*
X153429436Y-147894764D01*
X153429433Y-147894767D01*
X153343187Y-148009976D01*
X153343183Y-148009983D01*
X153292889Y-148144829D01*
X153286482Y-148204426D01*
X153286482Y-148204437D01*
X153286481Y-148204447D01*
X153286481Y-149500182D01*
X153286482Y-149500188D01*
X153292889Y-149559795D01*
X153343183Y-149694640D01*
X153343187Y-149694647D01*
X153429433Y-149809856D01*
X153429436Y-149809859D01*
X153544645Y-149896105D01*
X153544654Y-149896110D01*
X153615783Y-149922639D01*
X153671717Y-149964509D01*
X153696135Y-150029973D01*
X153696451Y-150038821D01*
X153696451Y-151888100D01*
X153676766Y-151955139D01*
X153628747Y-151998584D01*
X153510519Y-152058824D01*
X153376847Y-152155943D01*
X153319441Y-152197652D01*
X153319439Y-152197654D01*
X153319438Y-152197654D01*
X153152436Y-152364656D01*
X153152436Y-152364657D01*
X153152434Y-152364659D01*
X153092813Y-152446719D01*
X153013608Y-152555735D01*
X152906384Y-152766172D01*
X152833397Y-152990800D01*
X152796451Y-153224071D01*
X143433450Y-153224071D01*
X143433450Y-151806267D01*
X143453135Y-151739228D01*
X143469769Y-151718586D01*
X144162707Y-151025648D01*
X144984772Y-150203582D01*
X145046093Y-150170099D01*
X145115785Y-150175083D01*
X145171718Y-150216955D01*
X145196135Y-150282419D01*
X145196451Y-150291265D01*
X145196451Y-151290039D01*
X145196452Y-151290045D01*
X145202859Y-151349652D01*
X145253153Y-151484497D01*
X145253157Y-151484504D01*
X145339403Y-151599713D01*
X145339406Y-151599716D01*
X145454615Y-151685962D01*
X145454622Y-151685966D01*
X145589468Y-151736260D01*
X145589467Y-151736260D01*
X145596395Y-151737004D01*
X145649078Y-151742669D01*
X148944823Y-151742668D01*
X149004434Y-151736260D01*
X149139282Y-151685965D01*
X149254497Y-151599715D01*
X149340747Y-151484500D01*
X149391042Y-151349652D01*
X149397451Y-151290042D01*
X149397450Y-149194297D01*
X149391042Y-149134686D01*
X149340747Y-148999838D01*
X149340746Y-148999837D01*
X149340744Y-148999833D01*
X149254498Y-148884624D01*
X149254495Y-148884621D01*
X149139286Y-148798375D01*
X149139279Y-148798371D01*
X149004433Y-148748077D01*
X149004434Y-148748077D01*
X148944834Y-148741670D01*
X148944832Y-148741669D01*
X148944824Y-148741669D01*
X148944816Y-148741669D01*
X146746048Y-148741669D01*
X146679009Y-148721984D01*
X146633254Y-148669180D01*
X146623310Y-148600022D01*
X146652335Y-148536466D01*
X146658367Y-148529988D01*
X146983911Y-148204445D01*
X149986481Y-148204445D01*
X149986481Y-149500180D01*
X149986482Y-149500186D01*
X149992889Y-149559793D01*
X150043183Y-149694638D01*
X150043187Y-149694645D01*
X150129433Y-149809854D01*
X150129436Y-149809857D01*
X150244645Y-149896103D01*
X150244652Y-149896107D01*
X150379498Y-149946401D01*
X150379497Y-149946401D01*
X150386425Y-149947145D01*
X150439108Y-149952810D01*
X151434853Y-149952809D01*
X151494464Y-149946401D01*
X151629312Y-149896106D01*
X151744527Y-149809856D01*
X151830777Y-149694641D01*
X151881072Y-149559793D01*
X151887481Y-149500183D01*
X151887480Y-148204438D01*
X151881072Y-148144827D01*
X151830778Y-148009983D01*
X151830778Y-148009981D01*
X151830774Y-148009974D01*
X151744528Y-147894765D01*
X151744525Y-147894762D01*
X151629316Y-147808516D01*
X151629309Y-147808512D01*
X151494463Y-147758218D01*
X151494464Y-147758218D01*
X151434864Y-147751811D01*
X151434862Y-147751810D01*
X151434854Y-147751810D01*
X151434845Y-147751810D01*
X150439110Y-147751810D01*
X150439104Y-147751811D01*
X150379497Y-147758218D01*
X150244652Y-147808512D01*
X150244645Y-147808516D01*
X150129436Y-147894762D01*
X150129433Y-147894765D01*
X150043187Y-148009974D01*
X150043183Y-148009981D01*
X149992889Y-148144827D01*
X149986482Y-148204426D01*
X149986482Y-148204435D01*
X149986481Y-148204445D01*
X146983911Y-148204445D01*
X147074921Y-148113435D01*
X147178382Y-148009974D01*
X147353501Y-147834855D01*
X147432558Y-147697923D01*
X147473482Y-147545196D01*
X147473482Y-147387081D01*
X147473482Y-147379486D01*
X147473481Y-147379468D01*
X147473481Y-147183561D01*
X147493166Y-147116522D01*
X147545970Y-147070767D01*
X147615128Y-147060823D01*
X147644934Y-147069000D01*
X147648446Y-147070454D01*
X147648448Y-147070456D01*
X147794130Y-147130799D01*
X147948780Y-147161561D01*
X147948783Y-147161562D01*
X147948785Y-147161562D01*
X148106471Y-147161562D01*
X148106472Y-147161561D01*
X148261124Y-147130799D01*
X148406806Y-147070456D01*
X148408985Y-147069000D01*
X148538502Y-146982460D01*
X148605180Y-146961582D01*
X148607393Y-146961562D01*
X149681161Y-146961562D01*
X149681177Y-146961563D01*
X149688773Y-146961563D01*
X149846884Y-146961563D01*
X149846887Y-146961563D01*
X149999615Y-146920639D01*
X150049734Y-146891701D01*
X150136546Y-146841582D01*
X150248350Y-146729778D01*
X150248350Y-146729776D01*
X150258558Y-146719569D01*
X150258559Y-146719566D01*
X151719398Y-145258729D01*
X151780721Y-145225244D01*
X151807079Y-145222410D01*
X152536982Y-145222410D01*
X152608922Y-145217265D01*
X152746974Y-145176729D01*
X152868014Y-145098941D01*
X152962236Y-144990204D01*
X153022006Y-144859326D01*
X153042482Y-144716910D01*
X153042482Y-144617007D01*
X153062167Y-144549968D01*
X153078801Y-144529326D01*
X154233351Y-143374776D01*
X155485470Y-142122658D01*
X155564527Y-141985726D01*
X155605451Y-141832999D01*
X155605451Y-141674884D01*
X155605451Y-141667289D01*
X155605450Y-141667271D01*
X155605450Y-131261113D01*
X155605450Y-131261112D01*
X155605450Y-131261111D01*
X155564527Y-131108384D01*
X155535590Y-131058263D01*
X155485474Y-130971458D01*
X155485471Y-130971454D01*
X155485470Y-130971452D01*
X155373666Y-130859648D01*
X155373665Y-130859647D01*
X155369335Y-130855317D01*
X155369324Y-130855307D01*
X153736365Y-129222348D01*
X153702880Y-129161025D01*
X153707864Y-129091333D01*
X153749736Y-129035400D01*
X153815200Y-129010983D01*
X153824046Y-129010667D01*
X154199945Y-129010667D01*
X154199948Y-129010667D01*
X154323218Y-128995406D01*
X154323220Y-128995405D01*
X154323221Y-128995405D01*
X154331205Y-128993314D01*
X154331958Y-128996189D01*
X154381471Y-128990036D01*
X154382529Y-128990188D01*
X154382531Y-128990189D01*
X154524947Y-129010665D01*
X154524950Y-129010665D01*
X154774947Y-129010665D01*
X154846887Y-129005520D01*
X154984939Y-128964984D01*
X155105979Y-128887196D01*
X155198006Y-128780991D01*
X155256782Y-128743219D01*
X155326652Y-128743219D01*
X155379398Y-128774515D01*
X155515159Y-128910276D01*
X155687125Y-129035215D01*
X155687127Y-129035216D01*
X155687130Y-129035218D01*
X155876534Y-129131724D01*
X156078703Y-129197413D01*
X156288659Y-129230667D01*
X156288660Y-129230667D01*
X156501232Y-129230667D01*
X156501233Y-129230667D01*
X156711189Y-129197413D01*
X156913358Y-129131724D01*
X157102762Y-129035218D01*
X157157560Y-128995405D01*
X157274732Y-128910276D01*
X157274734Y-128910273D01*
X157274738Y-128910271D01*
X157425050Y-128759959D01*
X157425052Y-128759955D01*
X157425055Y-128759953D01*
X157549994Y-128587987D01*
X157549993Y-128587987D01*
X157549997Y-128587983D01*
X157646503Y-128398579D01*
X157712192Y-128196410D01*
X157745446Y-127986454D01*
X157745446Y-127773880D01*
X157712192Y-127563924D01*
X157646503Y-127361755D01*
X157549997Y-127172351D01*
X157549995Y-127172348D01*
X157549994Y-127172346D01*
X157425055Y-127000380D01*
X157274732Y-126850057D01*
X157102766Y-126725118D01*
X157102061Y-126724758D01*
X157094000Y-126720652D01*
X157043205Y-126672679D01*
X157026409Y-126604859D01*
X157048945Y-126538723D01*
X157094000Y-126499682D01*
X157102762Y-126495218D01*
X157145865Y-126463902D01*
X157274732Y-126370276D01*
X157274734Y-126370273D01*
X157274738Y-126370271D01*
X157425050Y-126219959D01*
X157425052Y-126219955D01*
X157425055Y-126219953D01*
X157549994Y-126047987D01*
X157549993Y-126047987D01*
X157549997Y-126047983D01*
X157646503Y-125858579D01*
X157712192Y-125656410D01*
X157745446Y-125446454D01*
X157745446Y-125233880D01*
X157712192Y-125023924D01*
X157646503Y-124821755D01*
X157549997Y-124632351D01*
X157549995Y-124632348D01*
X157549994Y-124632346D01*
X157425055Y-124460380D01*
X157274732Y-124310057D01*
X157102762Y-124185115D01*
X157093997Y-124180649D01*
X157043204Y-124132673D01*
X157026411Y-124064851D01*
X157048951Y-123998717D01*
X157094005Y-123959681D01*
X157102763Y-123955219D01*
X157143638Y-123925522D01*
X157274733Y-123830277D01*
X157274735Y-123830274D01*
X157274739Y-123830272D01*
X157425051Y-123679960D01*
X157425053Y-123679956D01*
X157425056Y-123679954D01*
X157549995Y-123507988D01*
X157549994Y-123507988D01*
X157549998Y-123507984D01*
X157646504Y-123318580D01*
X157712193Y-123116411D01*
X157745447Y-122906455D01*
X157745447Y-122693881D01*
X157712193Y-122483925D01*
X157646504Y-122281756D01*
X157549998Y-122092352D01*
X157549996Y-122092349D01*
X157549995Y-122092347D01*
X157425056Y-121920381D01*
X157274733Y-121770058D01*
X157102764Y-121645117D01*
X157093999Y-121640651D01*
X157043204Y-121592676D01*
X157026409Y-121524855D01*
X157048947Y-121458720D01*
X157094000Y-121419682D01*
X157102762Y-121415218D01*
X157159936Y-121373679D01*
X157274732Y-121290276D01*
X157274734Y-121290273D01*
X157274738Y-121290271D01*
X157425050Y-121139959D01*
X157425052Y-121139955D01*
X157425055Y-121139953D01*
X157549994Y-120967987D01*
X157549993Y-120967987D01*
X157549997Y-120967983D01*
X157646503Y-120778579D01*
X157712192Y-120576410D01*
X157745446Y-120366454D01*
X157745446Y-120153880D01*
X157712192Y-119943924D01*
X157646503Y-119741755D01*
X157600242Y-119650962D01*
X157587346Y-119582292D01*
X157613623Y-119517552D01*
X157670729Y-119477295D01*
X157710727Y-119470667D01*
X160917223Y-119470667D01*
X160984262Y-119490352D01*
X161030017Y-119543156D01*
X161039961Y-119612314D01*
X161031784Y-119642118D01*
X161011572Y-119690914D01*
X160980263Y-119766502D01*
X160980261Y-119766510D01*
X160949500Y-119921153D01*
X160949500Y-120078846D01*
X160980261Y-120233489D01*
X160980264Y-120233501D01*
X161040602Y-120379172D01*
X161040609Y-120379185D01*
X161128602Y-120510874D01*
X161149480Y-120577551D01*
X161149500Y-120579765D01*
X161149500Y-154920234D01*
X161129815Y-154987273D01*
X161128602Y-154989125D01*
X161040609Y-155120814D01*
X161040602Y-155120827D01*
X160980264Y-155266498D01*
X160980261Y-155266510D01*
X160949500Y-155421153D01*
X160949500Y-155578846D01*
X160980261Y-155733489D01*
X160980264Y-155733501D01*
X161040602Y-155879172D01*
X161040609Y-155879185D01*
X161128210Y-156010288D01*
X161128213Y-156010292D01*
X161239707Y-156121786D01*
X161239711Y-156121789D01*
X161375886Y-156212779D01*
X161374877Y-156214287D01*
X161418638Y-156257275D01*
X161434098Y-156325413D01*
X161410265Y-156391092D01*
X161354707Y-156433460D01*
X161310340Y-156441669D01*
X153845143Y-156441669D01*
X153845127Y-156441668D01*
X153837531Y-156441668D01*
X153679416Y-156441668D01*
X153603052Y-156462130D01*
X153526687Y-156482592D01*
X153526682Y-156482595D01*
X153389763Y-156561644D01*
X153389755Y-156561650D01*
X152630379Y-157321026D01*
X152630369Y-157321036D01*
X152628237Y-157323169D01*
X152628235Y-157323171D01*
X152516431Y-157434975D01*
X152504560Y-157455537D01*
X152437374Y-157571906D01*
X152396450Y-157724634D01*
X152396450Y-157724636D01*
X152396450Y-157892737D01*
X152396451Y-157892750D01*
X152396451Y-169385179D01*
X152376766Y-169452218D01*
X152360132Y-169472860D01*
X142019481Y-179813510D01*
X142019479Y-179813513D01*
X141985257Y-179872789D01*
X141985256Y-179872791D01*
X141940423Y-179950441D01*
X141937365Y-179961854D01*
X141933930Y-179974677D01*
X141932970Y-179978259D01*
X141896604Y-180037919D01*
X141833757Y-180068447D01*
X141764381Y-180060152D01*
X141713798Y-180020301D01*
X141679771Y-179974677D01*
X141672333Y-179967833D01*
X141671206Y-179966654D01*
X141665976Y-179961856D01*
X141665975Y-179961854D01*
X141617639Y-179917511D01*
X141617452Y-179917339D01*
X141568901Y-179872791D01*
X141568900Y-179872790D01*
X141562569Y-179866981D01*
X141562485Y-179866914D01*
X141027451Y-179376078D01*
X141027397Y-179376028D01*
X140978707Y-179331307D01*
X140890249Y-179271578D01*
X140867688Y-179256344D01*
X140867686Y-179256343D01*
X140867683Y-179256341D01*
X140746807Y-179198632D01*
X140618708Y-179159437D01*
X140618692Y-179159434D01*
X140486219Y-179139623D01*
X140419238Y-179139664D01*
X140418329Y-179139664D01*
X133099453Y-179139667D01*
X133032414Y-179119982D01*
X132986659Y-179067179D01*
X132975453Y-179015667D01*
X132975453Y-176935881D01*
X133676449Y-176935881D01*
X133676449Y-177148455D01*
X133686483Y-177211812D01*
X133703887Y-177321694D01*
X133709703Y-177358411D01*
X133772178Y-177550689D01*
X133775393Y-177560582D01*
X133871900Y-177749988D01*
X133996839Y-177921954D01*
X134147162Y-178072277D01*
X134319128Y-178197216D01*
X134319130Y-178197217D01*
X134319133Y-178197219D01*
X134508537Y-178293725D01*
X134710706Y-178359414D01*
X134920662Y-178392668D01*
X134920663Y-178392668D01*
X135133235Y-178392668D01*
X135133236Y-178392668D01*
X135343192Y-178359414D01*
X135545361Y-178293725D01*
X135734765Y-178197219D01*
X135756738Y-178181254D01*
X135906735Y-178072277D01*
X135906737Y-178072274D01*
X135906741Y-178072272D01*
X136057053Y-177921960D01*
X136057055Y-177921956D01*
X136057058Y-177921954D01*
X136181997Y-177749988D01*
X136181996Y-177749988D01*
X136182000Y-177749984D01*
X136278506Y-177560580D01*
X136344195Y-177358411D01*
X136377449Y-177148455D01*
X136377449Y-176935881D01*
X136344195Y-176725925D01*
X136278506Y-176523756D01*
X136182000Y-176334352D01*
X136181998Y-176334349D01*
X136181997Y-176334347D01*
X136057058Y-176162381D01*
X135906735Y-176012058D01*
X135734769Y-175887119D01*
X135545363Y-175790612D01*
X135545362Y-175790611D01*
X135545361Y-175790611D01*
X135343192Y-175724922D01*
X135343190Y-175724921D01*
X135343189Y-175724921D01*
X135181906Y-175699376D01*
X135133236Y-175691668D01*
X134920662Y-175691668D01*
X134871991Y-175699376D01*
X134710709Y-175724921D01*
X134508534Y-175790612D01*
X134319128Y-175887119D01*
X134147162Y-176012058D01*
X133996839Y-176162381D01*
X133871900Y-176334347D01*
X133775393Y-176523753D01*
X133709702Y-176725928D01*
X133690078Y-176849830D01*
X133676449Y-176935881D01*
X132975453Y-176935881D01*
X132975453Y-171303005D01*
X132995138Y-171235966D01*
X133047942Y-171190211D01*
X133117100Y-171180267D01*
X133180656Y-171209292D01*
X133214014Y-171255552D01*
X133279244Y-171413032D01*
X133372322Y-171552334D01*
X133490786Y-171670798D01*
X133583443Y-171732709D01*
X133630086Y-171763875D01*
X133784867Y-171827988D01*
X133938821Y-171858611D01*
X133949177Y-171860671D01*
X133949181Y-171860672D01*
X133949182Y-171860672D01*
X134116717Y-171860672D01*
X134116718Y-171860671D01*
X134281031Y-171827988D01*
X134435812Y-171763875D01*
X134575111Y-171670798D01*
X134693575Y-171552334D01*
X134786652Y-171413035D01*
X134850765Y-171258254D01*
X134883449Y-171093939D01*
X134883449Y-170926405D01*
X134850765Y-170762090D01*
X134786652Y-170607309D01*
X134708691Y-170490632D01*
X134693575Y-170468009D01*
X134575111Y-170349545D01*
X134435811Y-170256468D01*
X134419545Y-170249731D01*
X134365142Y-170205889D01*
X134343078Y-170139595D01*
X134360358Y-170071896D01*
X134411495Y-170024286D01*
X134419547Y-170020609D01*
X134435808Y-170013873D01*
X134435807Y-170013873D01*
X134435813Y-170013871D01*
X134575112Y-169920794D01*
X134693576Y-169802330D01*
X134786653Y-169663031D01*
X134850766Y-169508250D01*
X134883450Y-169343935D01*
X134883450Y-169176401D01*
X134850766Y-169012086D01*
X134786653Y-168857305D01*
X134755487Y-168810662D01*
X134693576Y-168718005D01*
X134575112Y-168599541D01*
X134435810Y-168506463D01*
X134281032Y-168442352D01*
X134281024Y-168442350D01*
X134116721Y-168409668D01*
X134116717Y-168409668D01*
X133949183Y-168409668D01*
X133949178Y-168409668D01*
X133784875Y-168442350D01*
X133784867Y-168442352D01*
X133630089Y-168506463D01*
X133490787Y-168599541D01*
X133372323Y-168718005D01*
X133279245Y-168857307D01*
X133214014Y-169014790D01*
X133170173Y-169069193D01*
X133103879Y-169091258D01*
X133036179Y-169073979D01*
X132988569Y-169022841D01*
X132975453Y-168967337D01*
X132975453Y-167053880D01*
X134082449Y-167053880D01*
X134082449Y-167266453D01*
X134115684Y-167476294D01*
X134115703Y-167476410D01*
X134164338Y-167626093D01*
X134181393Y-167678581D01*
X134277900Y-167867987D01*
X134402839Y-168039953D01*
X134553162Y-168190276D01*
X134725128Y-168315215D01*
X134725130Y-168315216D01*
X134725133Y-168315218D01*
X134914537Y-168411724D01*
X135116706Y-168477413D01*
X135127844Y-168479177D01*
X135190978Y-168509103D01*
X135227911Y-168568412D01*
X135232449Y-168601650D01*
X135232449Y-171668684D01*
X135212764Y-171735723D01*
X135159960Y-171781478D01*
X135127848Y-171791157D01*
X135116709Y-171792921D01*
X134914534Y-171858612D01*
X134725128Y-171955119D01*
X134553162Y-172080058D01*
X134402839Y-172230381D01*
X134277900Y-172402347D01*
X134181393Y-172591753D01*
X134115702Y-172793928D01*
X134082449Y-173003881D01*
X134082449Y-173216454D01*
X134115684Y-173426295D01*
X134115703Y-173426411D01*
X134166931Y-173584075D01*
X134181393Y-173628582D01*
X134277900Y-173817988D01*
X134402839Y-173989954D01*
X134553162Y-174140277D01*
X134725128Y-174265216D01*
X134725130Y-174265217D01*
X134725133Y-174265219D01*
X134914537Y-174361725D01*
X135116706Y-174427414D01*
X135326662Y-174460668D01*
X135326663Y-174460668D01*
X136339235Y-174460668D01*
X136339236Y-174460668D01*
X136549192Y-174427414D01*
X136751361Y-174361725D01*
X136940765Y-174265219D01*
X137112741Y-174140272D01*
X137245625Y-174007387D01*
X137306944Y-173973905D01*
X137376636Y-173978889D01*
X137420984Y-174007390D01*
X137553486Y-174139892D01*
X137553491Y-174139896D01*
X137725393Y-174264789D01*
X137914733Y-174361264D01*
X138116821Y-174426926D01*
X138326705Y-174460169D01*
X138582951Y-174460169D01*
X138582951Y-173610169D01*
X139082951Y-173610169D01*
X139082951Y-174460169D01*
X139339197Y-174460169D01*
X139549078Y-174426926D01*
X139549081Y-174426926D01*
X139751168Y-174361264D01*
X139940508Y-174264789D01*
X140112410Y-174139896D01*
X140112415Y-174139892D01*
X140262674Y-173989633D01*
X140262678Y-173989628D01*
X140387571Y-173817726D01*
X140484046Y-173628386D01*
X140549708Y-173426298D01*
X140549708Y-173426295D01*
X140560182Y-173360169D01*
X139515963Y-173360169D01*
X139548876Y-173303162D01*
X139582951Y-173175995D01*
X139582951Y-173044343D01*
X139548876Y-172917176D01*
X139515963Y-172860169D01*
X140560182Y-172860169D01*
X140549708Y-172794042D01*
X140549708Y-172794039D01*
X140484046Y-172591951D01*
X140387571Y-172402611D01*
X140262678Y-172230709D01*
X140262674Y-172230704D01*
X140112415Y-172080445D01*
X140112410Y-172080441D01*
X139940508Y-171955548D01*
X139751168Y-171859073D01*
X139549080Y-171793411D01*
X139339197Y-171760169D01*
X139082951Y-171760169D01*
X139082951Y-172610169D01*
X138582951Y-172610169D01*
X138582951Y-171760169D01*
X138326705Y-171760169D01*
X138116823Y-171793411D01*
X138116820Y-171793411D01*
X137914733Y-171859073D01*
X137725393Y-171955548D01*
X137553492Y-172080440D01*
X137420985Y-172212947D01*
X137359662Y-172246431D01*
X137289970Y-172241447D01*
X137245623Y-172212946D01*
X137112735Y-172080058D01*
X136940769Y-171955119D01*
X136751363Y-171858612D01*
X136751362Y-171858611D01*
X136751361Y-171858611D01*
X136549192Y-171792922D01*
X136549190Y-171792921D01*
X136549188Y-171792921D01*
X136538050Y-171791157D01*
X136474916Y-171761227D01*
X136437985Y-171701915D01*
X136433449Y-171668684D01*
X136433449Y-170926396D01*
X140182450Y-170926396D01*
X140182450Y-171093939D01*
X140215132Y-171258242D01*
X140215134Y-171258250D01*
X140279245Y-171413028D01*
X140372323Y-171552330D01*
X140490787Y-171670794D01*
X140583444Y-171732705D01*
X140630087Y-171763871D01*
X140630088Y-171763871D01*
X140630089Y-171763872D01*
X140630099Y-171763876D01*
X140784868Y-171827984D01*
X140938842Y-171858611D01*
X140949178Y-171860667D01*
X140949182Y-171860668D01*
X140949183Y-171860668D01*
X141116718Y-171860668D01*
X141116719Y-171860667D01*
X141281032Y-171827984D01*
X141435813Y-171763871D01*
X141575112Y-171670794D01*
X141693576Y-171552330D01*
X141786653Y-171413031D01*
X141850766Y-171258250D01*
X141883450Y-171093935D01*
X141883450Y-170926401D01*
X141850766Y-170762086D01*
X141801177Y-170642369D01*
X141786654Y-170607307D01*
X141770433Y-170583031D01*
X141755487Y-170560662D01*
X141693576Y-170468005D01*
X141575112Y-170349541D01*
X141435812Y-170256464D01*
X141419551Y-170249729D01*
X141365148Y-170205887D01*
X141343084Y-170139592D01*
X141360364Y-170071893D01*
X141411502Y-170024283D01*
X141419555Y-170020606D01*
X141435815Y-170013871D01*
X141575114Y-169920794D01*
X141693578Y-169802330D01*
X141786655Y-169663031D01*
X141850768Y-169508250D01*
X141883452Y-169343935D01*
X141883452Y-169176401D01*
X141850768Y-169012086D01*
X141786655Y-168857305D01*
X141755489Y-168810662D01*
X141693578Y-168718005D01*
X141575114Y-168599541D01*
X141435812Y-168506463D01*
X141281034Y-168442352D01*
X141281026Y-168442350D01*
X141116723Y-168409668D01*
X141116719Y-168409668D01*
X140949185Y-168409668D01*
X140949180Y-168409668D01*
X140784877Y-168442350D01*
X140784869Y-168442352D01*
X140630091Y-168506463D01*
X140490789Y-168599541D01*
X140372325Y-168718005D01*
X140279247Y-168857307D01*
X140215136Y-169012085D01*
X140215134Y-169012093D01*
X140182452Y-169176396D01*
X140182452Y-169343939D01*
X140215134Y-169508242D01*
X140215136Y-169508250D01*
X140279247Y-169663028D01*
X140372325Y-169802330D01*
X140490789Y-169920794D01*
X140560439Y-169967332D01*
X140630089Y-170013871D01*
X140646347Y-170020605D01*
X140700751Y-170064446D01*
X140722817Y-170130740D01*
X140705539Y-170198439D01*
X140654402Y-170246050D01*
X140646353Y-170249726D01*
X140630092Y-170256461D01*
X140630089Y-170256463D01*
X140490787Y-170349541D01*
X140372323Y-170468005D01*
X140279245Y-170607307D01*
X140215134Y-170762085D01*
X140215132Y-170762093D01*
X140182450Y-170926396D01*
X136433449Y-170926396D01*
X136433449Y-168601650D01*
X136453134Y-168534611D01*
X136505938Y-168488856D01*
X136538050Y-168479177D01*
X136549192Y-168477413D01*
X136751361Y-168411724D01*
X136940765Y-168315218D01*
X137037947Y-168244612D01*
X137112735Y-168190276D01*
X137112737Y-168190273D01*
X137112741Y-168190271D01*
X137245622Y-168057390D01*
X137306945Y-168023905D01*
X137376637Y-168028889D01*
X137420984Y-168057390D01*
X137553485Y-168189891D01*
X137553490Y-168189895D01*
X137725392Y-168314788D01*
X137914732Y-168411263D01*
X138116820Y-168476925D01*
X138326704Y-168510168D01*
X138582950Y-168510168D01*
X138582950Y-167660168D01*
X139082950Y-167660168D01*
X139082950Y-168510168D01*
X139339196Y-168510168D01*
X139549077Y-168476925D01*
X139549080Y-168476925D01*
X139751167Y-168411263D01*
X139940507Y-168314788D01*
X140112409Y-168189895D01*
X140112414Y-168189891D01*
X140262673Y-168039632D01*
X140262677Y-168039627D01*
X140387570Y-167867725D01*
X140484045Y-167678385D01*
X140549707Y-167476297D01*
X140549707Y-167476294D01*
X140560181Y-167410168D01*
X139515962Y-167410168D01*
X139548875Y-167353161D01*
X139582950Y-167225994D01*
X139582950Y-167094342D01*
X139548875Y-166967175D01*
X139515962Y-166910168D01*
X140560181Y-166910168D01*
X140549707Y-166844041D01*
X140549707Y-166844038D01*
X140484045Y-166641950D01*
X140387570Y-166452610D01*
X140262677Y-166280708D01*
X140262673Y-166280703D01*
X140112414Y-166130444D01*
X140112409Y-166130440D01*
X139940507Y-166005547D01*
X139751167Y-165909072D01*
X139549079Y-165843410D01*
X139339196Y-165810168D01*
X139082950Y-165810168D01*
X139082950Y-166660168D01*
X138582950Y-166660168D01*
X138582950Y-165810168D01*
X138326704Y-165810168D01*
X138116822Y-165843410D01*
X138116819Y-165843410D01*
X137914732Y-165909072D01*
X137725392Y-166005547D01*
X137553490Y-166130440D01*
X137553485Y-166130444D01*
X137420985Y-166262945D01*
X137359662Y-166296430D01*
X137289970Y-166291446D01*
X137245623Y-166262945D01*
X137112735Y-166130057D01*
X136940769Y-166005118D01*
X136751363Y-165908611D01*
X136751362Y-165908610D01*
X136751361Y-165908610D01*
X136549192Y-165842921D01*
X136549190Y-165842920D01*
X136549189Y-165842920D01*
X136387906Y-165817375D01*
X136339236Y-165809667D01*
X135326662Y-165809667D01*
X135277991Y-165817375D01*
X135116709Y-165842920D01*
X134914534Y-165908611D01*
X134725128Y-166005118D01*
X134553162Y-166130057D01*
X134402839Y-166280380D01*
X134277900Y-166452346D01*
X134181393Y-166641752D01*
X134115702Y-166843927D01*
X134082449Y-167053880D01*
X132975453Y-167053880D01*
X132975453Y-164265167D01*
X132975452Y-159015169D01*
X132975452Y-147782869D01*
X132995137Y-147715830D01*
X133047941Y-147670075D01*
X133117099Y-147660131D01*
X133172339Y-147682552D01*
X133205159Y-147706398D01*
X133205161Y-147706399D01*
X133359504Y-147785040D01*
X133524248Y-147838569D01*
X133695338Y-147865667D01*
X133695339Y-147865667D01*
X134418559Y-147865667D01*
X134418560Y-147865667D01*
X134589650Y-147838569D01*
X134754394Y-147785040D01*
X134908737Y-147706399D01*
X135048877Y-147604581D01*
X135171363Y-147482095D01*
X135176207Y-147475428D01*
X135231536Y-147432761D01*
X135301150Y-147426780D01*
X135362945Y-147459385D01*
X135395504Y-147513376D01*
X135413583Y-147574948D01*
X135491294Y-147695870D01*
X135599925Y-147789999D01*
X135599926Y-147790000D01*
X135730670Y-147849710D01*
X135730674Y-147849711D01*
X135872950Y-147870166D01*
X135872952Y-147870167D01*
X137122949Y-147870167D01*
X137122951Y-147870166D01*
X137194819Y-147865026D01*
X137332730Y-147824532D01*
X137453652Y-147746821D01*
X137547781Y-147638190D01*
X137547782Y-147638189D01*
X137607492Y-147507445D01*
X137607493Y-147507441D01*
X137627948Y-147365165D01*
X137627949Y-147365164D01*
X137627949Y-146165167D01*
X137627948Y-146165164D01*
X137622808Y-146093296D01*
X137582314Y-145955385D01*
X137504603Y-145834463D01*
X137395972Y-145740334D01*
X137395971Y-145740333D01*
X137265227Y-145680623D01*
X137265222Y-145680622D01*
X137228899Y-145675400D01*
X137165343Y-145646375D01*
X137127569Y-145587596D01*
X137127569Y-145517727D01*
X137165344Y-145458949D01*
X137173648Y-145452353D01*
X137208300Y-145427178D01*
X137228449Y-145365167D01*
X137228449Y-145310265D01*
X137248134Y-145243226D01*
X137264768Y-145222584D01*
X137285424Y-145201928D01*
X137353469Y-145133883D01*
X137417563Y-145022868D01*
X137432526Y-144996952D01*
X137473450Y-144844224D01*
X137473450Y-144686110D01*
X137473450Y-144678515D01*
X137473449Y-144678497D01*
X137473449Y-104790261D01*
X137493134Y-104723222D01*
X137509768Y-104702580D01*
X137601461Y-104610887D01*
X137730520Y-104481829D01*
X137809577Y-104344897D01*
X137850501Y-104192170D01*
X137850501Y-104034055D01*
X137850501Y-104026460D01*
X137850500Y-104026442D01*
X137850500Y-103579765D01*
X137870185Y-103512726D01*
X137871398Y-103510874D01*
X137959390Y-103379185D01*
X137959390Y-103379184D01*
X137959394Y-103379179D01*
X137959692Y-103378461D01*
X137977417Y-103335668D01*
X138019737Y-103233497D01*
X138050500Y-103078842D01*
X138050500Y-102921158D01*
X138050500Y-102921155D01*
X138050499Y-102921153D01*
X138029516Y-102815666D01*
X138019737Y-102766503D01*
X138009932Y-102742831D01*
X137959397Y-102620827D01*
X137959390Y-102620814D01*
X137871789Y-102489711D01*
X137871786Y-102489707D01*
X137760292Y-102378213D01*
X137760288Y-102378210D01*
X137629185Y-102290609D01*
X137629172Y-102290602D01*
X137483501Y-102230264D01*
X137483489Y-102230261D01*
X137328845Y-102199500D01*
X137328842Y-102199500D01*
X137171158Y-102199500D01*
X137171155Y-102199500D01*
X137016510Y-102230261D01*
X137016498Y-102230264D01*
X136870827Y-102290602D01*
X136870814Y-102290609D01*
X136739711Y-102378210D01*
X136739707Y-102378213D01*
X136628213Y-102489707D01*
X136628210Y-102489711D01*
X136540609Y-102620814D01*
X136540602Y-102620827D01*
X136480264Y-102766498D01*
X136480261Y-102766508D01*
X136465671Y-102839858D01*
X136450956Y-102867988D01*
X136437767Y-102896869D01*
X136434877Y-102898725D01*
X136433286Y-102901769D01*
X136405693Y-102917481D01*
X136378989Y-102934643D01*
X136374395Y-102935303D01*
X136372570Y-102936343D01*
X136344054Y-102939666D01*
X136147452Y-102939666D01*
X136080413Y-102919981D01*
X136034658Y-102867177D01*
X136023452Y-102815666D01*
X136023451Y-101842295D01*
X136023451Y-101842293D01*
X136018251Y-101793923D01*
X136017043Y-101782682D01*
X135966749Y-101647837D01*
X135966745Y-101647830D01*
X135880499Y-101532621D01*
X135880496Y-101532618D01*
X135765287Y-101446372D01*
X135765280Y-101446368D01*
X135630434Y-101396074D01*
X135630435Y-101396074D01*
X135570835Y-101389667D01*
X135570833Y-101389666D01*
X135570825Y-101389666D01*
X135570816Y-101389666D01*
X134675081Y-101389666D01*
X134675075Y-101389667D01*
X134615468Y-101396074D01*
X134480623Y-101446368D01*
X134480616Y-101446372D01*
X134365407Y-101532618D01*
X134365404Y-101532621D01*
X134279158Y-101647830D01*
X134279154Y-101647837D01*
X134228860Y-101782683D01*
X134222453Y-101842282D01*
X134222453Y-101842290D01*
X134222452Y-101842301D01*
X134222452Y-102938036D01*
X134222453Y-102938042D01*
X134228860Y-102997649D01*
X134279154Y-103132494D01*
X134279158Y-103132501D01*
X134314439Y-103179629D01*
X134365406Y-103247712D01*
X134472763Y-103328079D01*
X134514633Y-103384012D01*
X134522451Y-103427345D01*
X134522451Y-103807485D01*
X134502766Y-103874524D01*
X134449962Y-103920279D01*
X134380804Y-103930223D01*
X134350919Y-103920445D01*
X134350391Y-103921722D01*
X134217283Y-103866587D01*
X134217273Y-103866584D01*
X134081946Y-103839666D01*
X134081944Y-103839666D01*
X133943958Y-103839666D01*
X133943956Y-103839666D01*
X133808628Y-103866584D01*
X133808618Y-103866587D01*
X133681146Y-103919387D01*
X133681133Y-103919394D01*
X133566409Y-103996051D01*
X133566405Y-103996054D01*
X133468839Y-104093620D01*
X133468836Y-104093624D01*
X133392179Y-104208348D01*
X133392172Y-104208361D01*
X133339372Y-104335833D01*
X133339369Y-104335843D01*
X133312451Y-104471170D01*
X133312451Y-104471173D01*
X133312451Y-104609159D01*
X133312451Y-104609161D01*
X133312450Y-104609161D01*
X133339369Y-104744488D01*
X133339372Y-104744498D01*
X133392172Y-104871970D01*
X133392179Y-104871983D01*
X133468836Y-104986707D01*
X133468839Y-104986711D01*
X133566405Y-105084277D01*
X133566409Y-105084280D01*
X133681133Y-105160937D01*
X133681146Y-105160944D01*
X133772786Y-105198902D01*
X133808623Y-105213746D01*
X133861454Y-105224254D01*
X133939335Y-105239747D01*
X134001246Y-105272132D01*
X134035820Y-105332848D01*
X134032081Y-105402617D01*
X133991214Y-105459289D01*
X133984035Y-105464466D01*
X133855711Y-105550210D01*
X133855707Y-105550213D01*
X133744213Y-105661707D01*
X133744210Y-105661711D01*
X133656609Y-105792814D01*
X133656602Y-105792827D01*
X133596264Y-105938498D01*
X133596261Y-105938510D01*
X133565500Y-106093153D01*
X133565500Y-106250846D01*
X133596261Y-106405489D01*
X133596264Y-106405501D01*
X133656602Y-106551172D01*
X133656609Y-106551185D01*
X133744210Y-106682288D01*
X133744213Y-106682292D01*
X133762169Y-106700248D01*
X133795654Y-106761571D01*
X133790670Y-106831263D01*
X133748798Y-106887196D01*
X133721942Y-106902490D01*
X133681140Y-106919391D01*
X133681133Y-106919394D01*
X133566409Y-106996051D01*
X133566405Y-106996054D01*
X133468839Y-107093620D01*
X133468836Y-107093624D01*
X133392179Y-107208348D01*
X133392172Y-107208361D01*
X133339372Y-107335833D01*
X133339369Y-107335843D01*
X133312451Y-107471170D01*
X133312451Y-107471173D01*
X133312451Y-107609159D01*
X133312451Y-107609161D01*
X133312450Y-107609161D01*
X133339369Y-107744488D01*
X133339372Y-107744498D01*
X133392172Y-107871970D01*
X133392179Y-107871983D01*
X133468836Y-107986707D01*
X133468839Y-107986711D01*
X133566405Y-108084277D01*
X133566409Y-108084280D01*
X133681133Y-108160937D01*
X133681146Y-108160944D01*
X133808618Y-108213744D01*
X133808623Y-108213746D01*
X133808627Y-108213746D01*
X133808628Y-108213747D01*
X133943955Y-108240666D01*
X133943958Y-108240666D01*
X134081946Y-108240666D01*
X134172992Y-108222555D01*
X134217279Y-108213746D01*
X134265719Y-108193681D01*
X134350391Y-108158610D01*
X134351437Y-108161135D01*
X134408240Y-108149232D01*
X134473516Y-108174147D01*
X134514960Y-108230399D01*
X134522451Y-108272845D01*
X134522451Y-108652985D01*
X134502766Y-108720024D01*
X134472763Y-108752251D01*
X134365404Y-108832621D01*
X134279158Y-108947830D01*
X134279154Y-108947837D01*
X134228860Y-109082683D01*
X134222453Y-109142282D01*
X134222452Y-109142301D01*
X134222452Y-110238036D01*
X134222453Y-110238042D01*
X134228860Y-110297649D01*
X134279154Y-110432494D01*
X134279158Y-110432501D01*
X134365404Y-110547710D01*
X134365407Y-110547713D01*
X134480616Y-110633959D01*
X134480623Y-110633963D01*
X134615469Y-110684257D01*
X134615468Y-110684257D01*
X134622396Y-110685001D01*
X134675079Y-110690666D01*
X135570824Y-110690665D01*
X135630435Y-110684257D01*
X135765283Y-110633962D01*
X135880498Y-110547712D01*
X135966748Y-110432497D01*
X136017043Y-110297649D01*
X136023452Y-110238039D01*
X136023451Y-109264664D01*
X136026001Y-109255978D01*
X136024713Y-109247018D01*
X136035690Y-109222981D01*
X136043135Y-109197626D01*
X136049977Y-109191697D01*
X136053738Y-109183462D01*
X136075969Y-109169175D01*
X136095939Y-109151871D01*
X136106454Y-109149583D01*
X136112516Y-109145688D01*
X136147451Y-109140665D01*
X136148449Y-109140665D01*
X136215488Y-109160350D01*
X136261243Y-109213154D01*
X136272449Y-109264665D01*
X136272449Y-143935667D01*
X136252764Y-144002706D01*
X136199960Y-144048461D01*
X136148449Y-144059667D01*
X135872947Y-144059667D01*
X135825048Y-144071167D01*
X135823640Y-144071956D01*
X135755529Y-144087534D01*
X135724738Y-144081694D01*
X135656951Y-144059668D01*
X135656950Y-144059668D01*
X135456950Y-144059668D01*
X135450815Y-144060639D01*
X135424351Y-144064831D01*
X135424347Y-144064832D01*
X135366974Y-144106516D01*
X135301167Y-144129995D01*
X135233113Y-144114168D01*
X135193773Y-144079084D01*
X135171363Y-144048239D01*
X135048877Y-143925753D01*
X134908737Y-143823935D01*
X134754394Y-143745294D01*
X134589650Y-143691765D01*
X134589648Y-143691764D01*
X134589647Y-143691764D01*
X134458220Y-143670948D01*
X134418560Y-143664667D01*
X133695338Y-143664667D01*
X133655677Y-143670948D01*
X133524251Y-143691764D01*
X133359501Y-143745295D01*
X133205154Y-143823938D01*
X133172334Y-143847783D01*
X133106528Y-143871262D01*
X133038474Y-143855435D01*
X132989780Y-143805329D01*
X132975451Y-143747467D01*
X132975450Y-110814663D01*
X132995135Y-110747625D01*
X133047939Y-110701870D01*
X133099450Y-110690664D01*
X133360822Y-110690664D01*
X133360823Y-110690664D01*
X133420434Y-110684256D01*
X133555282Y-110633961D01*
X133670497Y-110547711D01*
X133756747Y-110432496D01*
X133807042Y-110297648D01*
X133813451Y-110238038D01*
X133813450Y-109142293D01*
X133807042Y-109082682D01*
X133802335Y-109070063D01*
X133756748Y-108947836D01*
X133756744Y-108947829D01*
X133670498Y-108832620D01*
X133670495Y-108832617D01*
X133555286Y-108746371D01*
X133555279Y-108746367D01*
X133420433Y-108696073D01*
X133420434Y-108696073D01*
X133360834Y-108689666D01*
X133360832Y-108689665D01*
X133360824Y-108689665D01*
X133360816Y-108689665D01*
X133099450Y-108689665D01*
X133032411Y-108669980D01*
X132986656Y-108617176D01*
X132975450Y-108565665D01*
X132975450Y-103514666D01*
X132995135Y-103447627D01*
X133047939Y-103401872D01*
X133099450Y-103390666D01*
X133360822Y-103390666D01*
X133360823Y-103390666D01*
X133420434Y-103384258D01*
X133555282Y-103333963D01*
X133670497Y-103247713D01*
X133756747Y-103132498D01*
X133807042Y-102997650D01*
X133813451Y-102938040D01*
X133813450Y-101842295D01*
X133807042Y-101782684D01*
X133807041Y-101782682D01*
X133756748Y-101647838D01*
X133756744Y-101647831D01*
X133670498Y-101532622D01*
X133670495Y-101532619D01*
X133555286Y-101446373D01*
X133555279Y-101446369D01*
X133420433Y-101396075D01*
X133420434Y-101396075D01*
X133360834Y-101389668D01*
X133360832Y-101389667D01*
X133360824Y-101389667D01*
X133360816Y-101389667D01*
X133099450Y-101389667D01*
X133032411Y-101369982D01*
X132986656Y-101317178D01*
X132975450Y-101265667D01*
X132975450Y-97650883D01*
X133676448Y-97650883D01*
X133676448Y-97863456D01*
X133709701Y-98073409D01*
X133775392Y-98275584D01*
X133871899Y-98464990D01*
X133996838Y-98636956D01*
X134147161Y-98787279D01*
X134319127Y-98912218D01*
X134319129Y-98912219D01*
X134319132Y-98912221D01*
X134508536Y-99008727D01*
X134710705Y-99074416D01*
X134920661Y-99107670D01*
X134920662Y-99107670D01*
X135133234Y-99107670D01*
X135133235Y-99107670D01*
X135343191Y-99074416D01*
X135545360Y-99008727D01*
X135734764Y-98912221D01*
X135813042Y-98855349D01*
X135906734Y-98787279D01*
X135906736Y-98787276D01*
X135906740Y-98787274D01*
X136057052Y-98636962D01*
X136057054Y-98636958D01*
X136057057Y-98636956D01*
X136181996Y-98464990D01*
X136181995Y-98464990D01*
X136181999Y-98464986D01*
X136278505Y-98275582D01*
X136344194Y-98073413D01*
X136377448Y-97863457D01*
X136377448Y-97650883D01*
X136344194Y-97440927D01*
X136278505Y-97238758D01*
X136181999Y-97049354D01*
X136181997Y-97049351D01*
X136181996Y-97049349D01*
X136057057Y-96877383D01*
X135906734Y-96727060D01*
X135734768Y-96602121D01*
X135545362Y-96505614D01*
X135545361Y-96505613D01*
X135545360Y-96505613D01*
X135343191Y-96439924D01*
X135343189Y-96439923D01*
X135343188Y-96439923D01*
X135181905Y-96414378D01*
X135133235Y-96406670D01*
X134920661Y-96406670D01*
X134871990Y-96414378D01*
X134710708Y-96439923D01*
X134508533Y-96505614D01*
X134319127Y-96602121D01*
X134147161Y-96727060D01*
X133996838Y-96877383D01*
X133871899Y-97049349D01*
X133775392Y-97238755D01*
X133709701Y-97440930D01*
X133676448Y-97650883D01*
X132975450Y-97650883D01*
X132975450Y-95049928D01*
X132976977Y-95030530D01*
X132982142Y-94997919D01*
X132994128Y-94961027D01*
X133004639Y-94940398D01*
X133027438Y-94909019D01*
X133043801Y-94892656D01*
X133075182Y-94869854D01*
X133095808Y-94859345D01*
X133132701Y-94847358D01*
X133158633Y-94843251D01*
X133165314Y-94842193D01*
X133184712Y-94840666D01*
X163260737Y-94840666D01*
X163327776Y-94860351D01*
G37*
%TD.AperFunction*%
%TA.AperFunction,Conductor*%
G36*
X147350034Y-135237492D02*
G01*
X147405967Y-135279364D01*
X147430384Y-135344828D01*
X147430700Y-135353674D01*
X147430700Y-136130700D01*
X147411015Y-136197739D01*
X147358211Y-136243494D01*
X147306700Y-136254700D01*
X144510856Y-136254700D01*
X144507927Y-136253840D01*
X144504961Y-136254560D01*
X144474616Y-136244058D01*
X144443817Y-136235015D01*
X144441818Y-136232708D01*
X144438933Y-136231710D01*
X144419077Y-136206464D01*
X144398062Y-136182211D01*
X144397627Y-136179191D01*
X144395740Y-136176791D01*
X144392686Y-136144826D01*
X144388118Y-136113053D01*
X144389386Y-136110276D01*
X144389096Y-136107238D01*
X144403801Y-136078710D01*
X144417143Y-136049497D01*
X144420134Y-136047027D01*
X144421110Y-136045134D01*
X144448822Y-136023339D01*
X144448850Y-136023316D01*
X144478694Y-136006086D01*
X144540011Y-135970685D01*
X144651815Y-135858881D01*
X144651815Y-135858879D01*
X144662019Y-135848676D01*
X144662023Y-135848671D01*
X145160110Y-135350584D01*
X145221433Y-135317099D01*
X145291125Y-135322083D01*
X145335472Y-135350584D01*
X145355163Y-135370275D01*
X145527129Y-135495214D01*
X145527131Y-135495215D01*
X145527134Y-135495217D01*
X145716538Y-135591723D01*
X145918707Y-135657412D01*
X146128663Y-135690666D01*
X146128664Y-135690666D01*
X146341236Y-135690666D01*
X146341237Y-135690666D01*
X146551193Y-135657412D01*
X146753362Y-135591723D01*
X146942766Y-135495217D01*
X146964739Y-135479252D01*
X147114736Y-135370275D01*
X147114738Y-135370272D01*
X147114742Y-135370270D01*
X147219019Y-135265993D01*
X147280342Y-135232508D01*
X147350034Y-135237492D01*
G37*
%TD.AperFunction*%
%TA.AperFunction,Conductor*%
G36*
X148884503Y-130176185D02*
G01*
X148890981Y-130182217D01*
X148955481Y-130246717D01*
X149012189Y-130279457D01*
X149092412Y-130325774D01*
X149245140Y-130366697D01*
X151630882Y-130366697D01*
X151697921Y-130386382D01*
X151718563Y-130403016D01*
X151994032Y-130678485D01*
X152027517Y-130739808D01*
X152022533Y-130809500D01*
X151980661Y-130865433D01*
X151915197Y-130889850D01*
X151906351Y-130890166D01*
X151564948Y-130890166D01*
X151564948Y-131440166D01*
X152414948Y-131440166D01*
X152414948Y-131398763D01*
X152421186Y-131377517D01*
X152422766Y-131355429D01*
X152430838Y-131344645D01*
X152434633Y-131331724D01*
X152451366Y-131317224D01*
X152464638Y-131299496D01*
X152477258Y-131294788D01*
X152487437Y-131285969D01*
X152509354Y-131282817D01*
X152530102Y-131275079D01*
X152543262Y-131277941D01*
X152556595Y-131276025D01*
X152576738Y-131285224D01*
X152598375Y-131289931D01*
X152616100Y-131303199D01*
X152620151Y-131305050D01*
X152626629Y-131311082D01*
X152718129Y-131402582D01*
X152751614Y-131463905D01*
X152754448Y-131490263D01*
X152754448Y-132038036D01*
X152754449Y-132038042D01*
X152760857Y-132097653D01*
X152762640Y-132105197D01*
X152761176Y-132105542D01*
X152762768Y-132127814D01*
X152766999Y-132158552D01*
X152765405Y-132164719D01*
X152765535Y-132166532D01*
X152764400Y-132168609D01*
X152761852Y-132178473D01*
X152760859Y-132182673D01*
X152760858Y-132182681D01*
X152760858Y-132182682D01*
X152754449Y-132242292D01*
X152754449Y-132242299D01*
X152754449Y-132242300D01*
X152754449Y-132938035D01*
X152754450Y-132938041D01*
X152760857Y-132997648D01*
X152811151Y-133132493D01*
X152811153Y-133132496D01*
X152892992Y-133241819D01*
X152917409Y-133307283D01*
X152902557Y-133375556D01*
X152881407Y-133403811D01*
X152824839Y-133460379D01*
X152699900Y-133632344D01*
X152695431Y-133641116D01*
X152647454Y-133691910D01*
X152579632Y-133708703D01*
X152513498Y-133686163D01*
X152474462Y-133641110D01*
X152469996Y-133632345D01*
X152345057Y-133460379D01*
X152288489Y-133403811D01*
X152255004Y-133342488D01*
X152259988Y-133272796D01*
X152276901Y-133241821D01*
X152358744Y-133132495D01*
X152409039Y-132997647D01*
X152415448Y-132938037D01*
X152415447Y-132242292D01*
X152409039Y-132182681D01*
X152409038Y-132182679D01*
X152409038Y-132182676D01*
X152407256Y-132175133D01*
X152408508Y-132174837D01*
X152406861Y-132151804D01*
X152402630Y-132121063D01*
X152404391Y-132117266D01*
X152404093Y-132113089D01*
X152408080Y-132099511D01*
X152408546Y-132097540D01*
X152414947Y-132038010D01*
X152414948Y-132037993D01*
X152414948Y-131940166D01*
X152323848Y-131940166D01*
X152256809Y-131920481D01*
X152249537Y-131915432D01*
X152157283Y-131846370D01*
X152157276Y-131846366D01*
X152022430Y-131796072D01*
X152022431Y-131796072D01*
X151962831Y-131789665D01*
X151962829Y-131789664D01*
X151962821Y-131789664D01*
X151962813Y-131789664D01*
X150667077Y-131789664D01*
X150667071Y-131789665D01*
X150607464Y-131796072D01*
X150472619Y-131846366D01*
X150472612Y-131846370D01*
X150380359Y-131915432D01*
X150314895Y-131939850D01*
X150306048Y-131940166D01*
X150214948Y-131940166D01*
X150214948Y-132038010D01*
X150221349Y-132097541D01*
X150223134Y-132105093D01*
X150221489Y-132105481D01*
X150225799Y-132165821D01*
X150220888Y-132182550D01*
X150220856Y-132182684D01*
X150214449Y-132242280D01*
X150214449Y-132242287D01*
X150214448Y-132242299D01*
X150214448Y-132403451D01*
X150194763Y-132470490D01*
X150141959Y-132516245D01*
X150072801Y-132526189D01*
X150009245Y-132497164D01*
X150002767Y-132491132D01*
X149729374Y-132217739D01*
X149695889Y-132156416D01*
X149695438Y-132154249D01*
X149672316Y-132038010D01*
X149664537Y-131998903D01*
X149632054Y-131920481D01*
X149604197Y-131853227D01*
X149604190Y-131853214D01*
X149516589Y-131722111D01*
X149516586Y-131722107D01*
X149405092Y-131610613D01*
X149405088Y-131610610D01*
X149273985Y-131523009D01*
X149273972Y-131523002D01*
X149128301Y-131462664D01*
X149128289Y-131462661D01*
X149118099Y-131460634D01*
X149118098Y-131460634D01*
X148972951Y-131431762D01*
X148911040Y-131399377D01*
X148909462Y-131397826D01*
X148853957Y-131342321D01*
X150214948Y-131342321D01*
X150214948Y-131440166D01*
X151064948Y-131440166D01*
X151064948Y-130890166D01*
X150667103Y-130890166D01*
X150607575Y-130896567D01*
X150607568Y-130896569D01*
X150472861Y-130946811D01*
X150472854Y-130946815D01*
X150357760Y-131032975D01*
X150357757Y-131032978D01*
X150271597Y-131148072D01*
X150271593Y-131148079D01*
X150221351Y-131282786D01*
X150221349Y-131282793D01*
X150214948Y-131342321D01*
X148853957Y-131342321D01*
X148449138Y-130937502D01*
X148415653Y-130876179D01*
X148420637Y-130806487D01*
X148449139Y-130762139D01*
X148500586Y-130710692D01*
X148500589Y-130710689D01*
X148588194Y-130579579D01*
X148648537Y-130433897D01*
X148679300Y-130279242D01*
X148679300Y-130269898D01*
X148698985Y-130202859D01*
X148751789Y-130157104D01*
X148820947Y-130147160D01*
X148884503Y-130176185D01*
G37*
%TD.AperFunction*%
%TA.AperFunction,Conductor*%
G36*
X144173226Y-107030352D02*
G01*
X144193868Y-107046986D01*
X144451454Y-107304573D01*
X144484939Y-107365896D01*
X144485391Y-107416444D01*
X144479498Y-107446074D01*
X144474445Y-107471476D01*
X144474445Y-107648861D01*
X144509048Y-107822824D01*
X144509051Y-107822833D01*
X144576928Y-107986706D01*
X144576935Y-107986719D01*
X144675480Y-108134200D01*
X144675483Y-108134204D01*
X144800906Y-108259627D01*
X144800910Y-108259630D01*
X144948391Y-108358175D01*
X144948404Y-108358182D01*
X145070858Y-108408903D01*
X145112279Y-108426060D01*
X145112281Y-108426060D01*
X145112286Y-108426062D01*
X145286249Y-108460665D01*
X145286252Y-108460666D01*
X145286254Y-108460666D01*
X145463638Y-108460666D01*
X145463639Y-108460665D01*
X145544983Y-108444485D01*
X145637603Y-108426062D01*
X145637606Y-108426060D01*
X145637611Y-108426060D01*
X145801492Y-108358179D01*
X145948980Y-108259630D01*
X146074409Y-108134201D01*
X146150201Y-108020770D01*
X146203809Y-107975969D01*
X146253295Y-107965664D01*
X151312977Y-107965664D01*
X151431250Y-107965665D01*
X151552094Y-107941628D01*
X151552094Y-107941627D01*
X151552095Y-107941627D01*
X151552098Y-107941627D01*
X151552100Y-107941625D01*
X151569405Y-107938184D01*
X151580785Y-107929743D01*
X151604967Y-107919727D01*
X151665929Y-107894477D01*
X151669198Y-107892293D01*
X151768379Y-107826022D01*
X151855504Y-107738897D01*
X151855504Y-107738896D01*
X151980659Y-107613741D01*
X152005394Y-107673458D01*
X152061655Y-107729719D01*
X152135164Y-107760167D01*
X152214728Y-107760167D01*
X152288237Y-107729719D01*
X152296767Y-107721188D01*
X152292542Y-107780277D01*
X152264041Y-107824624D01*
X151738021Y-108350643D01*
X151738021Y-108350644D01*
X151748630Y-108357734D01*
X151748635Y-108357736D01*
X151912425Y-108425580D01*
X151912433Y-108425582D01*
X152086299Y-108460166D01*
X152086303Y-108460167D01*
X152263589Y-108460167D01*
X152263592Y-108460166D01*
X152437458Y-108425582D01*
X152437467Y-108425580D01*
X152477728Y-108408903D01*
X152503275Y-108406155D01*
X152528097Y-108399497D01*
X152537443Y-108402481D01*
X152547198Y-108401433D01*
X152570175Y-108412934D01*
X152594656Y-108420752D01*
X152603134Y-108429432D01*
X152609677Y-108432707D01*
X152620779Y-108444485D01*
X152625495Y-108450194D01*
X152667914Y-108516198D01*
X152710543Y-108553136D01*
X152717123Y-108561101D01*
X152726980Y-108584101D01*
X152740504Y-108605145D01*
X152740504Y-108615657D01*
X152744646Y-108625322D01*
X152740504Y-108649998D01*
X152740504Y-108675015D01*
X152734820Y-108683858D01*
X152733080Y-108694227D01*
X152716255Y-108712745D01*
X152702729Y-108733792D01*
X152693165Y-108738159D01*
X152686096Y-108745941D01*
X152661930Y-108752423D01*
X152639173Y-108762817D01*
X152624640Y-108762427D01*
X152618613Y-108764045D01*
X152612534Y-108762103D01*
X152597338Y-108761697D01*
X152536864Y-108749669D01*
X152413650Y-108749669D01*
X152413648Y-108749669D01*
X151904957Y-108749670D01*
X151813034Y-108749670D01*
X151692201Y-108773705D01*
X151692193Y-108773707D01*
X151605630Y-108809563D01*
X151605626Y-108809564D01*
X151578360Y-108820859D01*
X151578358Y-108820859D01*
X151578356Y-108820861D01*
X151562112Y-108831714D01*
X151562100Y-108831721D01*
X151475910Y-108889312D01*
X151440224Y-108924999D01*
X151404537Y-108960686D01*
X151204872Y-109160350D01*
X151146875Y-109218347D01*
X151085552Y-109251831D01*
X151059194Y-109254665D01*
X145711506Y-109254664D01*
X145664053Y-109245225D01*
X145655702Y-109241766D01*
X145637613Y-109234273D01*
X145637605Y-109234271D01*
X145463641Y-109199667D01*
X145463638Y-109199667D01*
X145286256Y-109199667D01*
X145286253Y-109199667D01*
X145112288Y-109234270D01*
X145112284Y-109234272D01*
X145112282Y-109234272D01*
X145112281Y-109234273D01*
X145071883Y-109251006D01*
X145002415Y-109258473D01*
X144939936Y-109227198D01*
X144920118Y-109203484D01*
X144881978Y-109144137D01*
X144881974Y-109144133D01*
X144773245Y-109049918D01*
X144773243Y-109049916D01*
X144773240Y-109049914D01*
X144773236Y-109049912D01*
X144642365Y-108990144D01*
X144642360Y-108990143D01*
X144499946Y-108969668D01*
X143349946Y-108969668D01*
X143349937Y-108969668D01*
X143226680Y-108984928D01*
X143218689Y-108987021D01*
X143217942Y-108984172D01*
X143168430Y-108990295D01*
X143024947Y-108969666D01*
X142774947Y-108969666D01*
X142774944Y-108969666D01*
X142703006Y-108974810D01*
X142564952Y-109015348D01*
X142443916Y-109093133D01*
X142443912Y-109093137D01*
X142351887Y-109199339D01*
X142293109Y-109237113D01*
X142223239Y-109237113D01*
X142170494Y-109205817D01*
X142034734Y-109070057D01*
X141862765Y-108945116D01*
X141854000Y-108940650D01*
X141803205Y-108892675D01*
X141786410Y-108824854D01*
X141808948Y-108758719D01*
X141854004Y-108719680D01*
X141862762Y-108715218D01*
X141959429Y-108644986D01*
X142034730Y-108590277D01*
X142034730Y-108590276D01*
X142034738Y-108590271D01*
X142172961Y-108452047D01*
X142234280Y-108418565D01*
X142303972Y-108423549D01*
X142359906Y-108465420D01*
X142364950Y-108472684D01*
X142392915Y-108516199D01*
X142392916Y-108516200D01*
X142392917Y-108516201D01*
X142478405Y-108590277D01*
X142501652Y-108610421D01*
X142534281Y-108625322D01*
X142632526Y-108670190D01*
X142632529Y-108670190D01*
X142632530Y-108670191D01*
X142774946Y-108690667D01*
X142774949Y-108690667D01*
X143024952Y-108690667D01*
X143026902Y-108690628D01*
X143044786Y-108690278D01*
X143186288Y-108664228D01*
X143314719Y-108599367D01*
X143419675Y-108500950D01*
X143919675Y-107875950D01*
X143976169Y-107788044D01*
X144022092Y-107651689D01*
X144026322Y-107544006D01*
X144027739Y-107507924D01*
X144027738Y-107507923D01*
X144027739Y-107507920D01*
X143992652Y-107368383D01*
X143992649Y-107368379D01*
X143992649Y-107368377D01*
X143919679Y-107244390D01*
X143919677Y-107244387D01*
X143919675Y-107244384D01*
X143893871Y-107212129D01*
X143888013Y-107197843D01*
X143877905Y-107186178D01*
X143875029Y-107166178D01*
X143867363Y-107147482D01*
X143870158Y-107132300D01*
X143867961Y-107117020D01*
X143876355Y-107098638D01*
X143880014Y-107078768D01*
X143890572Y-107067508D01*
X143896986Y-107053464D01*
X143913984Y-107042539D01*
X143927806Y-107027800D01*
X143943626Y-107023490D01*
X143955764Y-107015690D01*
X143990699Y-107010667D01*
X144106187Y-107010667D01*
X144173226Y-107030352D01*
G37*
%TD.AperFunction*%
%TA.AperFunction,Conductor*%
G36*
X152005394Y-105133458D02*
G01*
X152061655Y-105189719D01*
X152135164Y-105220167D01*
X152214728Y-105220167D01*
X152288237Y-105189719D01*
X152296767Y-105181188D01*
X152292542Y-105240277D01*
X152264041Y-105284624D01*
X151738021Y-105810643D01*
X151738021Y-105810644D01*
X151748630Y-105817734D01*
X151748635Y-105817736D01*
X151912425Y-105885580D01*
X151912433Y-105885582D01*
X152086299Y-105920166D01*
X152086303Y-105920167D01*
X152263589Y-105920167D01*
X152263592Y-105920166D01*
X152437458Y-105885582D01*
X152437462Y-105885581D01*
X152477730Y-105868902D01*
X152481473Y-105868499D01*
X152484536Y-105866315D01*
X152515929Y-105864795D01*
X152547199Y-105861433D01*
X152550565Y-105863117D01*
X152554324Y-105862936D01*
X152581560Y-105878632D01*
X152609679Y-105892707D01*
X152611599Y-105895944D01*
X152614860Y-105897823D01*
X152629499Y-105916423D01*
X152667913Y-105976197D01*
X152667915Y-105976199D01*
X152702731Y-106006368D01*
X152740506Y-106065144D01*
X152740506Y-106135014D01*
X152702732Y-106193792D01*
X152639177Y-106222818D01*
X152597339Y-106221698D01*
X152554388Y-106213155D01*
X152536857Y-106209668D01*
X152536856Y-106209668D01*
X152444938Y-106209668D01*
X151936259Y-106209667D01*
X151936258Y-106209667D01*
X151813044Y-106209667D01*
X151692198Y-106233703D01*
X151692196Y-106233703D01*
X151692190Y-106233705D01*
X151625515Y-106261323D01*
X151578367Y-106280852D01*
X151503155Y-106331107D01*
X151503154Y-106331109D01*
X151476623Y-106348835D01*
X151475911Y-106349312D01*
X151475910Y-106349313D01*
X151388790Y-106436432D01*
X151388788Y-106436434D01*
X151388788Y-106436435D01*
X151146875Y-106678346D01*
X151085552Y-106711830D01*
X151059194Y-106714664D01*
X145711511Y-106714664D01*
X145680419Y-106710703D01*
X145672041Y-106708533D01*
X145637611Y-106694272D01*
X145548708Y-106676587D01*
X145545285Y-106675701D01*
X145518220Y-106659512D01*
X145490274Y-106644894D01*
X145488696Y-106643343D01*
X144902903Y-106057551D01*
X144869418Y-105996228D01*
X144874402Y-105926537D01*
X144916273Y-105870603D01*
X144981738Y-105846186D01*
X145038036Y-105855309D01*
X145112279Y-105886061D01*
X145112281Y-105886061D01*
X145112286Y-105886063D01*
X145286249Y-105920666D01*
X145286252Y-105920667D01*
X145286254Y-105920667D01*
X145463638Y-105920667D01*
X145463639Y-105920666D01*
X145521627Y-105909131D01*
X145637603Y-105886063D01*
X145637606Y-105886061D01*
X145637611Y-105886061D01*
X145801492Y-105818180D01*
X145948980Y-105719631D01*
X146074409Y-105594202D01*
X146150199Y-105480774D01*
X146203811Y-105435969D01*
X146253300Y-105425665D01*
X151290227Y-105425667D01*
X151297213Y-105425669D01*
X151332273Y-105435969D01*
X151364234Y-105445354D01*
X151364240Y-105445360D01*
X151364250Y-105445363D01*
X151364289Y-105445408D01*
X151375259Y-105456183D01*
X151384467Y-105457090D01*
X151385477Y-105456081D01*
X151402073Y-105447018D01*
X151415681Y-105433888D01*
X151445182Y-105423479D01*
X151446800Y-105422596D01*
X151448903Y-105422157D01*
X151491673Y-105413650D01*
X151552096Y-105401632D01*
X151552099Y-105401630D01*
X151552102Y-105401630D01*
X151585431Y-105387823D01*
X151585430Y-105387823D01*
X151585436Y-105387821D01*
X151665930Y-105354481D01*
X151722846Y-105316450D01*
X151722847Y-105316450D01*
X151752991Y-105296307D01*
X151768377Y-105286027D01*
X151855502Y-105198902D01*
X151855503Y-105198899D01*
X151862569Y-105191834D01*
X151862572Y-105191830D01*
X151980659Y-105073742D01*
X152005394Y-105133458D01*
G37*
%TD.AperFunction*%
%TA.AperFunction,Conductor*%
G36*
X144473758Y-104479909D02*
G01*
X144505555Y-104488025D01*
X144507119Y-104489705D01*
X144509321Y-104490352D01*
X144530794Y-104515133D01*
X144553166Y-104539162D01*
X144553573Y-104541422D01*
X144555076Y-104543156D01*
X144559743Y-104575616D01*
X144565572Y-104607921D01*
X144564814Y-104610887D01*
X144565020Y-104612314D01*
X144556843Y-104642119D01*
X144509051Y-104757499D01*
X144509048Y-104757508D01*
X144474445Y-104931471D01*
X144474445Y-105108862D01*
X144509048Y-105282825D01*
X144509051Y-105282834D01*
X144576928Y-105446707D01*
X144576935Y-105446720D01*
X144675480Y-105594201D01*
X144675483Y-105594205D01*
X144712175Y-105630897D01*
X144745660Y-105692220D01*
X144740676Y-105761912D01*
X144698804Y-105817845D01*
X144633340Y-105842262D01*
X144592400Y-105838353D01*
X144485341Y-105809666D01*
X144327227Y-105809666D01*
X144319631Y-105809666D01*
X144319615Y-105809667D01*
X143798697Y-105809667D01*
X143731658Y-105789982D01*
X143685903Y-105737178D01*
X143675959Y-105668020D01*
X143701869Y-105608205D01*
X143713069Y-105594205D01*
X143919674Y-105335949D01*
X143976168Y-105248043D01*
X144022091Y-105111688D01*
X144027738Y-104967919D01*
X143992651Y-104828382D01*
X143992648Y-104828378D01*
X143992648Y-104828376D01*
X143919678Y-104704388D01*
X143918232Y-104702580D01*
X143893870Y-104672128D01*
X143867362Y-104607484D01*
X143880012Y-104538769D01*
X143927804Y-104487801D01*
X143990698Y-104470667D01*
X144442282Y-104470667D01*
X144473758Y-104479909D01*
G37*
%TD.AperFunction*%
%TA.AperFunction,Conductor*%
G36*
X152609954Y-100813134D02*
G01*
X152629774Y-100836850D01*
X152667913Y-100896196D01*
X152667917Y-100896200D01*
X152726774Y-100947200D01*
X152776652Y-100990420D01*
X152776659Y-100990423D01*
X152907526Y-101050189D01*
X152907529Y-101050189D01*
X152907530Y-101050190D01*
X153049946Y-101070666D01*
X153049949Y-101070666D01*
X154199943Y-101070666D01*
X154199946Y-101070666D01*
X154323216Y-101055405D01*
X154323224Y-101055401D01*
X154331200Y-101053313D01*
X154331951Y-101056181D01*
X154381462Y-101050038D01*
X154382528Y-101050191D01*
X154382530Y-101050192D01*
X154524946Y-101070668D01*
X154524949Y-101070668D01*
X154774946Y-101070668D01*
X154846886Y-101065523D01*
X154984938Y-101024987D01*
X155105978Y-100947199D01*
X155198007Y-100840992D01*
X155256783Y-100803220D01*
X155326653Y-100803220D01*
X155379399Y-100834516D01*
X155515159Y-100970276D01*
X155687125Y-101095215D01*
X155687127Y-101095216D01*
X155687130Y-101095218D01*
X155695888Y-101099680D01*
X155746685Y-101147654D01*
X155763481Y-101215474D01*
X155740945Y-101281610D01*
X155695898Y-101320647D01*
X155687128Y-101325116D01*
X155515162Y-101450055D01*
X155376933Y-101588284D01*
X155315610Y-101621768D01*
X155245918Y-101616784D01*
X155189985Y-101574912D01*
X155184945Y-101567654D01*
X155156977Y-101524135D01*
X155098119Y-101473134D01*
X155048245Y-101429917D01*
X155048243Y-101429915D01*
X155048240Y-101429913D01*
X155048236Y-101429911D01*
X154917365Y-101370143D01*
X154917360Y-101370142D01*
X154774946Y-101349667D01*
X154524946Y-101349667D01*
X154524940Y-101349667D01*
X154511719Y-101349926D01*
X154505106Y-101350056D01*
X154505104Y-101350056D01*
X154363599Y-101376107D01*
X154235177Y-101440964D01*
X154235172Y-101440967D01*
X154137431Y-101532619D01*
X154130217Y-101539384D01*
X154043455Y-101647837D01*
X153630220Y-102164380D01*
X153630211Y-102164393D01*
X153573721Y-102252292D01*
X153573721Y-102252293D01*
X153527800Y-102388643D01*
X153527799Y-102388645D01*
X153522152Y-102532409D01*
X153522153Y-102532413D01*
X153522153Y-102532414D01*
X153534035Y-102579667D01*
X153557239Y-102671948D01*
X153557242Y-102671956D01*
X153630212Y-102795943D01*
X153630215Y-102795947D01*
X153630217Y-102795950D01*
X153856531Y-103078842D01*
X154114954Y-103401872D01*
X154130217Y-103420950D01*
X154142915Y-103436199D01*
X154251652Y-103530421D01*
X154292120Y-103548902D01*
X154382526Y-103590190D01*
X154382529Y-103590190D01*
X154382530Y-103590191D01*
X154524946Y-103610667D01*
X154524949Y-103610667D01*
X154774946Y-103610667D01*
X154846886Y-103605522D01*
X154984938Y-103564986D01*
X155105978Y-103487198D01*
X155198009Y-103380989D01*
X155256783Y-103343218D01*
X155326653Y-103343218D01*
X155379399Y-103374514D01*
X155515160Y-103510275D01*
X155687129Y-103635216D01*
X155695893Y-103639682D01*
X155746689Y-103687657D01*
X155763483Y-103755478D01*
X155740945Y-103821613D01*
X155695896Y-103860648D01*
X155687133Y-103865113D01*
X155687130Y-103865115D01*
X155515161Y-103990056D01*
X155376934Y-104128283D01*
X155315611Y-104161767D01*
X155245919Y-104156783D01*
X155189986Y-104114911D01*
X155184946Y-104107653D01*
X155156978Y-104064134D01*
X155122265Y-104034055D01*
X155048246Y-103969916D01*
X155048244Y-103969914D01*
X155048241Y-103969912D01*
X155048237Y-103969910D01*
X154917366Y-103910142D01*
X154917361Y-103910141D01*
X154774947Y-103889666D01*
X154524947Y-103889666D01*
X154524941Y-103889666D01*
X154511720Y-103889925D01*
X154505107Y-103890055D01*
X154505105Y-103890055D01*
X154470451Y-103896435D01*
X154392074Y-103910863D01*
X154351520Y-103908763D01*
X154351141Y-103911405D01*
X154199946Y-103889667D01*
X153049946Y-103889667D01*
X153049938Y-103889667D01*
X153017205Y-103892008D01*
X152989537Y-103885988D01*
X152961368Y-103883074D01*
X152954190Y-103878298D01*
X152948933Y-103877155D01*
X152930942Y-103865187D01*
X152925561Y-103860886D01*
X152873987Y-103809312D01*
X152799406Y-103759478D01*
X152771541Y-103740859D01*
X152771540Y-103740858D01*
X152771535Y-103740855D01*
X152771497Y-103740835D01*
X152770892Y-103740589D01*
X152749490Y-103731725D01*
X152749485Y-103731723D01*
X152657709Y-103693708D01*
X152657710Y-103693708D01*
X152657707Y-103693707D01*
X152657703Y-103693706D01*
X152657699Y-103693705D01*
X152536865Y-103669670D01*
X152536861Y-103669669D01*
X151936251Y-103669669D01*
X151813037Y-103669669D01*
X151813032Y-103669669D01*
X151692201Y-103693704D01*
X151692197Y-103693705D01*
X151692193Y-103693706D01*
X151578359Y-103740857D01*
X151578357Y-103740857D01*
X151578355Y-103740859D01*
X151578354Y-103740859D01*
X151556455Y-103755492D01*
X151556448Y-103755497D01*
X151550490Y-103759479D01*
X151475912Y-103809310D01*
X151388787Y-103896435D01*
X151388786Y-103896437D01*
X151378180Y-103907042D01*
X151378167Y-103907054D01*
X151146873Y-104138348D01*
X151085550Y-104171833D01*
X151059192Y-104174667D01*
X145978382Y-104174665D01*
X145949866Y-104166291D01*
X145920723Y-104160444D01*
X145916661Y-104156542D01*
X145911342Y-104154980D01*
X145892978Y-104133786D01*
X145870994Y-104112664D01*
X145868093Y-104107640D01*
X145855465Y-104085766D01*
X145787053Y-104017354D01*
X145753568Y-103956031D01*
X145758552Y-103886339D01*
X145800424Y-103830406D01*
X145850546Y-103808055D01*
X145857707Y-103806631D01*
X145896767Y-103790451D01*
X145971540Y-103759481D01*
X146073988Y-103691027D01*
X146129801Y-103635214D01*
X146393030Y-103371987D01*
X146454353Y-103338502D01*
X146480711Y-103335668D01*
X151862528Y-103335668D01*
X151906419Y-103344398D01*
X151906452Y-103344291D01*
X151907545Y-103344622D01*
X151909980Y-103345107D01*
X151912274Y-103346057D01*
X151912279Y-103346059D01*
X152078814Y-103379185D01*
X152086249Y-103380664D01*
X152086252Y-103380665D01*
X152086254Y-103380665D01*
X152263638Y-103380665D01*
X152263639Y-103380664D01*
X152321627Y-103369129D01*
X152437603Y-103346061D01*
X152437606Y-103346059D01*
X152437611Y-103346059D01*
X152601492Y-103278178D01*
X152748980Y-103179629D01*
X152874409Y-103054200D01*
X152972958Y-102906712D01*
X152975006Y-102901769D01*
X152989334Y-102867177D01*
X153040839Y-102742831D01*
X153075445Y-102568856D01*
X153075445Y-102391474D01*
X153075445Y-102391471D01*
X153075444Y-102391469D01*
X153040841Y-102217506D01*
X153040838Y-102217497D01*
X152972961Y-102053624D01*
X152972954Y-102053611D01*
X152874409Y-101906130D01*
X152874406Y-101906126D01*
X152748983Y-101780703D01*
X152748979Y-101780700D01*
X152601498Y-101682155D01*
X152601485Y-101682148D01*
X152437612Y-101614271D01*
X152437603Y-101614268D01*
X152263639Y-101579665D01*
X152263636Y-101579665D01*
X152086254Y-101579665D01*
X152086251Y-101579665D01*
X151912286Y-101614268D01*
X151912277Y-101614271D01*
X151748404Y-101682148D01*
X151748391Y-101682155D01*
X151600910Y-101780700D01*
X151600906Y-101780703D01*
X151475483Y-101906126D01*
X151475480Y-101906130D01*
X151393007Y-102029559D01*
X151339394Y-102074364D01*
X151289905Y-102084668D01*
X146231868Y-102084668D01*
X146108654Y-102084667D01*
X146080823Y-102090202D01*
X146080815Y-102090203D01*
X146014985Y-102103298D01*
X145999788Y-102106321D01*
X145991617Y-102107126D01*
X145965021Y-102118143D01*
X145965020Y-102118142D01*
X145965018Y-102118144D01*
X145873974Y-102155855D01*
X145873972Y-102155856D01*
X145771530Y-102224306D01*
X145569236Y-102426596D01*
X145544499Y-102366874D01*
X145488238Y-102310613D01*
X145414729Y-102280165D01*
X145335165Y-102280165D01*
X145261656Y-102310613D01*
X145253122Y-102319146D01*
X145257349Y-102260053D01*
X145285850Y-102215706D01*
X145811869Y-101689687D01*
X145801258Y-101682595D01*
X145637467Y-101614751D01*
X145637459Y-101614749D01*
X145463593Y-101580165D01*
X145286300Y-101580165D01*
X145112435Y-101614749D01*
X145112423Y-101614752D01*
X145072156Y-101631431D01*
X145064291Y-101632276D01*
X145057564Y-101636436D01*
X145030048Y-101635957D01*
X145002687Y-101638898D01*
X144995614Y-101635357D01*
X144987705Y-101635220D01*
X144964813Y-101619939D01*
X144940208Y-101607622D01*
X144936172Y-101600820D01*
X144929593Y-101596428D01*
X144920397Y-101583918D01*
X144881977Y-101524135D01*
X144847155Y-101493961D01*
X144809381Y-101435182D01*
X144809382Y-101365312D01*
X144847158Y-101306535D01*
X144910714Y-101277511D01*
X144952548Y-101278631D01*
X145013032Y-101290662D01*
X145013033Y-101290663D01*
X145116433Y-101290663D01*
X145588980Y-101290666D01*
X145588985Y-101290668D01*
X145613645Y-101290668D01*
X145633450Y-101290668D01*
X145736853Y-101290669D01*
X145736858Y-101290668D01*
X145736859Y-101290668D01*
X145753577Y-101287342D01*
X145857699Y-101266633D01*
X145885322Y-101255190D01*
X145971538Y-101219480D01*
X146036913Y-101175795D01*
X146073981Y-101151029D01*
X146161107Y-101063905D01*
X146161108Y-101063902D01*
X146166942Y-101058069D01*
X146166956Y-101058052D01*
X146393025Y-100831984D01*
X146454348Y-100798499D01*
X146480706Y-100795665D01*
X151862514Y-100795665D01*
X151906415Y-100804399D01*
X151906448Y-100804293D01*
X151907525Y-100804619D01*
X151909974Y-100805107D01*
X151912277Y-100806061D01*
X151912278Y-100806061D01*
X151912280Y-100806062D01*
X151912284Y-100806062D01*
X151912285Y-100806063D01*
X152086250Y-100840667D01*
X152086253Y-100840668D01*
X152086255Y-100840668D01*
X152263639Y-100840668D01*
X152263640Y-100840667D01*
X152367778Y-100819953D01*
X152437604Y-100806064D01*
X152437607Y-100806062D01*
X152437612Y-100806062D01*
X152478007Y-100789329D01*
X152547474Y-100781860D01*
X152609954Y-100813134D01*
G37*
%TD.AperFunction*%
%TD*%
M02*
