M48
; DRILL file KiCad 10.0.4 date 2026-08-02T22:23:36
; FORMAT={-:-/ absolute / metric / decimal}
; #@! TF.CreationDate,2026-08-02T22:23:36-06:00
; #@! TF.GenerationSoftware,Kicad,Pcbnew,10.0.4
; #@! TF.FileFunction,Plated,1,2,PTH
FMAT,2
METRIC
; #@! TA.AperFunction,Plated,PTH,ViaDrill
T1C0.300
; #@! TA.AperFunction,Plated,PTH,ComponentDrill
T2C0.300
; #@! TA.AperFunction,Plated,PTH,ComponentDrill
T3C0.400
; #@! TA.AperFunction,Plated,PTH,ComponentDrill
T4C0.750
; #@! TA.AperFunction,Plated,PTH,ComponentDrill
T5C1.000
; #@! TA.AperFunction,Plated,PTH,ComponentDrill
T6C1.500
; #@! TA.AperFunction,Plated,PTH,ComponentDrill
T7C2.200
%
G90
G05
T1
X134.346Y-191.046
X134.366Y-106.172
X134.867Y-155.245
X134.911Y-191.612
X135.128Y-145.796
X137.25Y-103.0
X137.973Y-144.729
X141.279Y-197.979
X142.006Y-198.707
X142.443Y-144.17
X144.5Y-129.75
X147.25Y-135.75
X147.879Y-130.2
X148.028Y-146.361
X148.031Y-143.612
X148.133Y-145.186
X148.844Y-129.286
X148.895Y-132.232
X148.946Y-130.708
X149.806Y-114.211
X152.023Y-177.368
X152.423Y-178.061
X154.229Y-144.069
X156.926Y-185.86
X157.44Y-186.751
X158.5Y-166.25
X161.75Y-120.0
X161.75Y-155.5
X161.75Y-157.75
X163.5Y-96.75
X164.5Y-96.0
X165.0Y-183.25
X165.78Y-101.994
X171.0Y-163.25
X172.608Y-168.728
X172.775Y-109.765
X172.775Y-129.565
X172.775Y-120.599
X172.775Y-110.565
X172.775Y-139.599
X172.775Y-147.765
X172.775Y-157.57
X172.775Y-128.765
X172.775Y-138.57
X172.775Y-158.599
X172.775Y-148.565
X172.775Y-119.57
X172.815Y-169.501
X175.145Y-178.199
X175.412Y-179.193
X182.5Y-162.5
X185.25Y-162.75
X191.775Y-115.57
X191.775Y-106.565
X191.775Y-135.599
X191.775Y-144.565
X191.775Y-116.599
X191.775Y-124.765
X191.775Y-125.565
X191.775Y-134.57
X191.775Y-154.599
X191.775Y-105.765
X191.775Y-143.765
X191.775Y-153.57
X194.725Y-165.715
X194.725Y-166.515
X194.725Y-175.52
X194.725Y-176.549
X200.0Y-102.75
X210.775Y-115.765
X210.775Y-135.565
X210.775Y-145.599
X210.775Y-97.565
X210.775Y-106.57
X210.775Y-96.765
X210.775Y-126.599
X210.775Y-134.765
X210.775Y-107.599
X210.775Y-125.57
X210.775Y-144.57
X210.775Y-116.565
X214.75Y-109.75
X217.75Y-108.75
X229.29Y-155.882
X229.361Y-154.856
X229.989Y-145.873
X230.045Y-145.075
X230.615Y-136.928
X230.687Y-135.902
X231.315Y-126.919
X231.371Y-126.121
X231.94Y-117.975
X232.012Y-116.948
X232.64Y-107.965
X232.696Y-107.167
X246.455Y-169.838
X246.633Y-168.825
X248.197Y-159.957
X248.336Y-159.169
X249.754Y-151.127
X249.933Y-150.114
X251.496Y-141.246
X251.635Y-140.458
X253.053Y-132.416
X253.232Y-131.402
X254.796Y-122.534
X254.934Y-121.746
X258.768Y-144.932
X262.068Y-126.22
X266.034Y-168.214
X266.213Y-167.2
X267.777Y-158.332
X267.915Y-157.544
X269.333Y-149.502
X269.512Y-148.489
X271.076Y-139.621
X271.215Y-138.833
X275.665Y-161.505
X278.681Y-142.858
T2
X141.929Y-200.963
X144.263Y-198.63
X150.937Y-148.852
X154.237Y-148.852
X156.782Y-188.91
X159.64Y-187.26
X171.125Y-122.14
X171.125Y-141.14
X171.125Y-160.14
X174.217Y-181.109
X174.425Y-122.14
X174.425Y-141.14
X174.425Y-160.14
X177.404Y-180.255
X190.125Y-137.14
X190.125Y-118.14
X190.125Y-156.14
X193.075Y-178.09
X193.425Y-137.14
X193.425Y-118.14
X193.425Y-156.14
X196.375Y-178.09
X209.125Y-128.14
X209.125Y-109.14
X209.125Y-147.14
X212.425Y-128.14
X212.425Y-109.14
X212.425Y-147.14
X227.536Y-157.304
X228.861Y-138.351
X230.187Y-119.397
X230.828Y-157.535
X232.153Y-138.581
X233.479Y-119.627
X244.562Y-171.07
X247.812Y-171.643
X247.861Y-152.358
X251.111Y-152.931
X251.161Y-133.647
X254.41Y-134.22
X264.142Y-169.445
X267.391Y-170.018
X267.441Y-150.733
X270.691Y-151.307
T3
X145.375Y-105.02
X145.375Y-107.56
X145.375Y-112.64
X145.375Y-115.18
X145.375Y-117.72
X145.375Y-120.26
X145.375Y-125.34
X145.375Y-127.88
X145.375Y-102.48
X145.375Y-110.1
X145.375Y-122.8
X145.375Y-99.94
X152.175Y-125.34
X152.175Y-102.48
X152.175Y-115.18
X152.175Y-122.8
X152.175Y-99.94
X152.175Y-105.02
X152.175Y-107.56
X152.175Y-110.1
X152.175Y-127.88
X152.175Y-112.64
X152.175Y-117.72
X152.175Y-120.26
T4
X134.057Y-144.765
X134.057Y-146.765
T5
X139.797Y-153.342
X139.797Y-155.842
X139.797Y-158.342
X141.155Y-102.48
X141.155Y-122.8
X141.155Y-99.94
X141.155Y-105.02
X141.155Y-107.56
X141.155Y-112.64
X141.155Y-115.18
X141.155Y-120.26
X141.155Y-125.34
X141.155Y-127.88
X141.155Y-117.72
X141.155Y-110.1
X143.695Y-134.34
X144.375Y-140.44
X146.235Y-134.34
X146.915Y-140.44
X148.775Y-134.34
X149.455Y-140.44
X151.315Y-134.34
X151.995Y-140.44
X153.855Y-134.34
X154.297Y-153.342
X154.297Y-158.342
X156.395Y-115.18
X156.395Y-107.56
X156.395Y-99.94
X156.395Y-105.02
X156.395Y-110.1
X156.395Y-112.64
X156.395Y-117.72
X156.395Y-120.26
X156.395Y-125.34
X156.395Y-127.88
X156.395Y-102.48
X156.395Y-122.8
T7
X182.263Y-137.365
X201.313Y-118.315
X220.363Y-137.365
T5
G00X135.583Y-167.16
M15
G01X136.083Y-167.16
M16
G05
G00X135.583Y-173.11
M15
G01X136.083Y-173.11
M16
G05
G00X138.583Y-167.16
M15
G01X139.083Y-167.16
M16
G05
G00X138.583Y-173.11
M15
G01X139.083Y-173.11
M16
G05
G00X142.583Y-167.16
M15
G01X143.083Y-167.16
M16
G05
G00X142.583Y-173.11
M15
G01X143.083Y-173.11
M16
G05
G00X144.083Y-168.91
M15
G01X144.583Y-168.91
M16
G05
G00X144.083Y-171.36
M15
G01X144.583Y-171.36
M16
G05
T6
G00X146.647Y-150.242
M15
G01X147.947Y-150.242
M16
G05
G00X146.647Y-161.442
M15
G01X147.947Y-161.442
M16
G05
M30
