M48
; DRILL file KiCad 10.0.4 date 2026-08-02T22:23:36
; FORMAT={-:-/ absolute / metric / decimal}
; #@! TF.CreationDate,2026-08-02T22:23:36-06:00
; #@! TF.GenerationSoftware,Kicad,Pcbnew,10.0.4
; #@! TF.FileFunction,NonPlated,1,2,NPTH
FMAT,2
METRIC
; #@! TA.AperFunction,NonPlated,NPTH,ComponentDrill
T1C0.900
; #@! TA.AperFunction,NonPlated,NPTH,ComponentDrill
T2C1.200
; #@! TA.AperFunction,NonPlated,NPTH,ComponentDrill
T3C1.900
; #@! TA.AperFunction,NonPlated,NPTH,ComponentDrill
T4C2.200
; #@! TA.AperFunction,NonPlated,NPTH,ComponentDrill
T5C3.000
; #@! TA.AperFunction,NonPlated,NPTH,ComponentDrill
T6C4.100
; #@! TA.AperFunction,NonPlated,NPTH,ComponentDrill
T7C5.000
%
G90
G05
T1
X134.013Y-104.54
X134.013Y-107.54
T2
X134.033Y-171.01
X134.033Y-169.26
X141.033Y-171.01
X141.033Y-169.26
T3
X133.197Y-197.675
X133.494Y-197.378
X140.678Y-190.194
X140.975Y-189.897
X149.198Y-183.474
X149.561Y-183.264
X158.36Y-178.184
X158.724Y-177.974
X167.275Y-151.64
X167.275Y-132.64
X167.275Y-113.64
X167.695Y-151.64
X167.695Y-132.64
X167.695Y-113.64
X168.298Y-173.895
X168.704Y-173.786
X177.855Y-151.64
X177.855Y-132.64
X177.855Y-113.64
X178.275Y-151.64
X178.275Y-132.64
X178.275Y-113.64
X178.518Y-171.156
X178.923Y-171.048
X186.275Y-147.64
X186.275Y-109.64
X186.275Y-128.64
X186.695Y-147.64
X186.695Y-109.64
X186.695Y-128.64
X189.225Y-169.59
X189.645Y-169.59
X196.855Y-147.64
X196.855Y-109.64
X196.855Y-128.64
X197.275Y-147.64
X197.275Y-109.64
X197.275Y-128.64
X199.805Y-169.59
X200.225Y-169.59
X205.275Y-100.64
X205.275Y-138.64
X205.275Y-119.64
X205.695Y-100.64
X205.695Y-138.64
X205.695Y-119.64
X215.855Y-100.64
X215.855Y-138.64
X215.855Y-119.64
X216.275Y-100.64
X216.275Y-138.64
X216.275Y-119.64
X224.288Y-148.557
X224.707Y-148.586
X225.614Y-129.603
X226.033Y-129.632
X226.939Y-110.649
X227.358Y-110.678
X234.843Y-149.295
X235.262Y-149.324
X236.168Y-130.341
X236.587Y-130.37
X237.493Y-111.387
X237.912Y-111.416
X242.246Y-162.03
X242.66Y-162.103
X245.546Y-143.319
X245.959Y-143.392
X248.845Y-124.607
X249.259Y-124.68
X252.666Y-163.867
X253.079Y-163.94
X255.965Y-145.156
X256.379Y-145.229
X259.264Y-126.445
X259.678Y-126.518
X261.826Y-160.405
X262.24Y-160.478
X265.125Y-141.694
X265.539Y-141.767
X272.245Y-162.243
X272.659Y-162.316
X275.545Y-143.531
X275.958Y-143.604
T4
X135.027Y-97.757
X135.027Y-177.042
X197.107Y-97.757
X218.947Y-128.131
X219.243Y-161.894
X225.857Y-97.757
X230.771Y-163.462
X240.697Y-98.767
X245.741Y-116.973
T5
X130.899Y-194.67
X132.878Y-189.579
X136.188Y-198.276
X137.97Y-187.599
X138.882Y-199.174
X141.576Y-192.888
X142.474Y-195.582
X147.756Y-179.976
X150.986Y-175.571
X151.931Y-184.829
X154.301Y-186.393
X156.416Y-174.976
X158.53Y-181.019
X158.7Y-183.853
X167.775Y-147.89
X167.775Y-128.89
X167.775Y-109.89
X167.811Y-170.143
X168.965Y-154.18
X168.965Y-135.18
X168.965Y-116.18
X170.235Y-156.72
X170.235Y-137.72
X170.235Y-118.72
X170.588Y-175.911
X172.071Y-166.724
X172.472Y-178.036
X172.775Y-145.69
X172.775Y-126.69
X172.775Y-107.69
X175.315Y-156.72
X175.315Y-137.72
X175.315Y-118.72
X176.585Y-154.18
X176.585Y-135.18
X176.585Y-116.18
X177.379Y-176.721
X177.47Y-167.555
X177.775Y-147.89
X177.775Y-128.89
X177.775Y-109.89
X177.948Y-173.939
X186.775Y-143.89
X186.775Y-105.89
X186.775Y-124.89
X187.965Y-150.18
X187.965Y-112.18
X187.965Y-131.18
X189.235Y-152.72
X189.235Y-114.72
X189.235Y-133.72
X189.725Y-165.84
X190.915Y-172.13
X191.775Y-141.69
X191.775Y-103.69
X191.775Y-122.69
X192.185Y-174.67
X194.315Y-152.72
X194.315Y-114.72
X194.315Y-133.72
X194.725Y-163.64
X195.585Y-150.18
X195.585Y-112.18
X195.585Y-131.18
X196.775Y-143.89
X196.775Y-105.89
X196.775Y-124.89
X197.265Y-174.67
X198.535Y-172.13
X199.725Y-165.84
X205.775Y-96.89
X205.775Y-134.89
X205.775Y-115.89
X206.965Y-103.18
X206.965Y-141.18
X206.965Y-122.18
X208.235Y-105.72
X208.235Y-143.72
X208.235Y-124.72
X210.775Y-94.69
X210.775Y-132.69
X210.775Y-113.69
X213.315Y-105.72
X213.315Y-143.72
X213.315Y-124.72
X214.585Y-103.18
X214.585Y-141.18
X214.585Y-122.18
X215.775Y-96.89
X215.775Y-134.89
X215.775Y-115.89
X225.049Y-144.851
X225.797Y-151.208
X226.374Y-125.897
X226.887Y-153.831
X227.122Y-132.254
X227.699Y-106.943
X228.212Y-134.877
X228.448Y-113.301
X229.538Y-115.923
X230.19Y-143.005
X231.515Y-124.051
X231.954Y-154.185
X232.841Y-105.097
X233.28Y-135.231
X233.398Y-151.74
X234.605Y-116.278
X234.724Y-132.786
X235.024Y-145.548
X236.049Y-113.832
X236.35Y-126.594
X237.675Y-107.641
X243.39Y-158.424
X243.47Y-164.825
X244.279Y-167.547
X246.689Y-139.713
X246.769Y-146.114
X247.579Y-148.836
X248.696Y-157.126
X249.282Y-168.429
X249.989Y-121.001
X250.068Y-127.402
X250.878Y-130.124
X250.974Y-166.148
X251.995Y-138.414
X252.582Y-149.718
X253.238Y-160.16
X254.273Y-147.437
X255.295Y-119.703
X255.881Y-131.006
X256.537Y-141.449
X257.573Y-128.726
X259.837Y-122.738
X262.97Y-156.799
X263.049Y-163.2
X263.859Y-165.922
X266.269Y-138.088
X266.349Y-144.489
X267.158Y-147.211
X268.276Y-155.501
X268.862Y-166.804
X270.554Y-164.523
X271.575Y-136.79
X272.161Y-148.093
X272.818Y-158.536
X273.853Y-145.812
X276.117Y-139.824
T6
X137.086Y-193.786
X153.961Y-180.724
X172.775Y-151.64
X172.775Y-132.64
X172.775Y-113.64
X173.611Y-172.471
X191.775Y-147.64
X191.775Y-109.64
X191.775Y-128.64
X194.725Y-169.59
X210.775Y-100.64
X210.775Y-138.64
X210.775Y-119.64
X229.775Y-148.94
X231.1Y-129.986
X232.426Y-111.033
X247.663Y-162.985
X250.962Y-144.274
X254.262Y-125.563
X267.243Y-161.36
X270.542Y-142.649
T7
X137.086Y-193.786
X153.961Y-180.724
X172.775Y-151.64
X172.775Y-132.64
X172.775Y-113.64
X173.611Y-172.471
X191.775Y-147.64
X191.775Y-109.64
X191.775Y-128.64
X194.725Y-169.59
X210.775Y-100.64
X210.775Y-138.64
X210.775Y-119.64
X229.775Y-148.94
X231.1Y-129.986
X232.426Y-111.033
X247.663Y-162.985
X250.962Y-144.274
X254.262Y-125.563
X267.243Y-161.36
X270.542Y-142.649
M30
