%TF.GenerationSoftware,KiCad,Pcbnew,10.0.4*%
%TF.CreationDate,2026-08-02T22:23:38-06:00*%
%TF.ProjectId,KLON -nice_view - Copy,4b4c4f4e-202d-46e6-9963-655f76696577,v1.0.0*%
%TF.SameCoordinates,Original*%
%TF.FileFunction,Paste,Bot*%
%TF.FilePolarity,Positive*%
%FSLAX46Y46*%
G04 Gerber Fmt 4.6, Leading zero omitted, Abs format (unit mm)*
G04 Created by KiCad (PCBNEW 10.0.4) date 2026-08-02 22:23:38*
%MOMM*%
%LPD*%
G01*
G04 APERTURE LIST*
G04 Aperture macros list*
%AMRotRect*
0 Rectangle, with rotation*
0 The origin of the aperture is its center*
0 $1 length*
0 $2 width*
0 $3 Rotation angle, in degrees counterclockwise*
0 Add horizontal line*
21,1,$1,$2,0,0,$3*%
%AMOutline5P*
0 Free polygon, 5 corners , with rotation*
0 The origin of the aperture is its center*
0 number of corners: always 5*
0 $1 to $10 corner X, Y*
0 $11 Rotation angle, in degrees counterclockwise*
0 create outline with 5 corners*
4,1,5,$1,$2,$3,$4,$5,$6,$7,$8,$9,$10,$1,$2,$11*%
%AMOutline6P*
0 Free polygon, 6 corners , with rotation*
0 The origin of the aperture is its center*
0 number of corners: always 6*
0 $1 to $12 corner X, Y*
0 $13 Rotation angle, in degrees counterclockwise*
0 create outline with 6 corners*
4,1,6,$1,$2,$3,$4,$5,$6,$7,$8,$9,$10,$11,$12,$1,$2,$13*%
%AMOutline7P*
0 Free polygon, 7 corners , with rotation*
0 The origin of the aperture is its center*
0 number of corners: always 7*
0 $1 to $14 corner X, Y*
0 $15 Rotation angle, in degrees counterclockwise*
0 create outline with 7 corners*
4,1,7,$1,$2,$3,$4,$5,$6,$7,$8,$9,$10,$11,$12,$13,$14,$1,$2,$15*%
%AMOutline8P*
0 Free polygon, 8 corners , with rotation*
0 The origin of the aperture is its center*
0 number of corners: always 8*
0 $1 to $16 corner X, Y*
0 $17 Rotation angle, in degrees counterclockwise*
0 create outline with 8 corners*
4,1,8,$1,$2,$3,$4,$5,$6,$7,$8,$9,$10,$11,$12,$13,$14,$15,$16,$1,$2,$17*%
%AMFreePoly0*
4,1,6,0.500000,-0.625000,-0.650000,-0.625000,-0.150000,0.000000,-0.650000,0.625000,0.500000,0.625000,0.500000,-0.625000,0.500000,-0.625000,$1*%
%AMFreePoly1*
4,1,6,0.250000,0.000000,-0.250000,-0.625000,-0.500000,-0.625000,-0.500000,0.625000,-0.250000,0.625000,0.250000,0.000000,0.250000,0.000000,$1*%
%AMFreePoly2*
4,1,6,0.600000,-1.000000,0.000000,-0.400000,-0.600000,-1.000000,-0.600000,0.250000,0.600000,0.250000,0.600000,-1.000000,0.600000,-1.000000,$1*%
%AMFreePoly3*
4,1,6,0.600000,-0.200000,0.600000,-0.400000,-0.600000,-0.400000,-0.600000,-0.200000,0.000000,0.400000,0.600000,-0.200000,0.600000,-0.200000,$1*%
G04 Aperture macros list end*
%ADD10Outline5P,-1.275000X1.250000X1.275000X1.250000X1.275000X-1.250000X-0.775000X-1.250000X-1.275000X-0.750000X180.000000*%
%ADD11Outline5P,-1.275000X0.250000X-0.275000X1.250000X1.275000X1.250000X1.275000X-1.250000X-1.275000X-1.250000X180.000000*%
%ADD12Outline5P,-1.300000X1.300000X1.300000X1.300000X1.300000X-1.300000X-0.117000X-1.300000X-1.300000X-0.117000X0.000000*%
%ADD13Outline5P,-1.300000X1.300000X1.300000X1.300000X1.300000X0.780000X-0.780000X-1.300000X-1.300000X-1.300000X0.000000*%
%ADD14R,2.600000X2.600000*%
%ADD15FreePoly0,180.000000*%
%ADD16FreePoly0,0.000000*%
%ADD17FreePoly1,0.000000*%
%ADD18FreePoly1,180.000000*%
%ADD19RotRect,0.900000X1.200000X356.000000*%
%ADD20FreePoly2,270.000000*%
%ADD21FreePoly3,270.000000*%
%ADD22R,0.900000X1.200000*%
%ADD23RotRect,0.900000X1.200000X350.000000*%
%ADD24FreePoly1,270.000000*%
%ADD25FreePoly0,270.000000*%
%ADD26RotRect,0.900000X1.200000X30.000000*%
%ADD27RotRect,0.900000X1.200000X15.000000*%
%ADD28R,1.000000X1.550000*%
%ADD29RotRect,0.900000X1.200000X45.000000*%
%ADD30R,0.800000X1.000000*%
%ADD31R,1.500000X0.700000*%
%ADD32R,1.200000X0.600000*%
%ADD33Outline5P,-1.300000X1.300000X1.300000X1.300000X1.300000X-1.300000X-0.117000X-1.300000X-1.300000X-0.117000X350.000000*%
%ADD34RotRect,2.600000X2.600000X350.000000*%
%ADD35RotRect,2.550000X2.500000X170.000000*%
%ADD36Outline5P,-1.275000X1.250000X1.275000X1.250000X1.275000X-1.250000X-0.775000X-1.250000X-1.275000X-0.750000X170.000000*%
%ADD37RotRect,2.550000X2.500000X225.000000*%
%ADD38Outline5P,-1.275000X1.250000X1.275000X1.250000X1.275000X-1.250000X-0.775000X-1.250000X-1.275000X-0.750000X225.000000*%
%ADD39R,2.550000X2.500000*%
%ADD40Outline5P,-1.300000X1.300000X1.300000X1.300000X1.300000X-1.300000X-0.117000X-1.300000X-1.300000X-0.117000X30.000000*%
%ADD41RotRect,2.600000X2.600000X30.000000*%
%ADD42Outline5P,-1.300000X1.300000X1.300000X1.300000X1.300000X-1.300000X-0.117000X-1.300000X-1.300000X-0.117000X356.000000*%
%ADD43RotRect,2.600000X2.600000X356.000000*%
%ADD44RotRect,2.550000X2.500000X210.000000*%
%ADD45Outline5P,-1.275000X1.250000X1.275000X1.250000X1.275000X-1.250000X-0.775000X-1.250000X-1.275000X-0.750000X210.000000*%
%ADD46Outline5P,-1.300000X1.300000X1.300000X1.300000X1.300000X-1.300000X-0.117000X-1.300000X-1.300000X-0.117000X45.000000*%
%ADD47RotRect,2.600000X2.600000X45.000000*%
%ADD48RotRect,2.550000X2.500000X176.000000*%
%ADD49Outline5P,-1.275000X1.250000X1.275000X1.250000X1.275000X-1.250000X-0.775000X-1.250000X-1.275000X-0.750000X176.000000*%
%ADD50Outline5P,-1.300000X1.300000X1.300000X1.300000X1.300000X-1.300000X-0.117000X-1.300000X-1.300000X-0.117000X15.000000*%
%ADD51RotRect,2.600000X2.600000X15.000000*%
%ADD52RotRect,2.550000X2.500000X195.000000*%
%ADD53Outline5P,-1.275000X1.250000X1.275000X1.250000X1.275000X-1.250000X-0.775000X-1.250000X-1.275000X-0.750000X195.000000*%
G04 APERTURE END LIST*
D10*
%TO.C,S23*%
X166932950Y-137720165D03*
D11*
X179859950Y-135180165D03*
%TD*%
D12*
%TO.C,S7*%
X207499948Y-132690173D03*
D13*
X219049948Y-134890173D03*
%TD*%
D12*
%TO.C,S8*%
X207499951Y-113690170D03*
D14*
X219049951Y-115890170D03*
%TD*%
D15*
%TO.C,MCU1*%
X153549946Y-99940166D03*
X153549946Y-102480167D03*
X153549946Y-105020167D03*
X153549945Y-107560166D03*
X153549946Y-110100167D03*
X153549946Y-112640167D03*
X153549946Y-115180166D03*
X153549945Y-117720168D03*
X153549948Y-120260167D03*
X153549946Y-122800167D03*
X153549946Y-125340168D03*
X153549948Y-127880167D03*
D16*
X143999944Y-127880166D03*
X143999946Y-125340168D03*
X143999946Y-122800167D03*
X143999946Y-120260167D03*
X143999947Y-117720168D03*
X143999946Y-115180167D03*
X143999946Y-112640167D03*
X143999946Y-110100168D03*
X143999947Y-107560166D03*
X143999944Y-105020167D03*
X143999946Y-102480167D03*
X143999946Y-99940166D03*
D17*
X143274946Y-99940168D03*
X143274946Y-102480167D03*
X143274945Y-105020166D03*
X143274946Y-107560167D03*
X143274947Y-110100166D03*
X143274946Y-112640167D03*
X143274944Y-115180166D03*
X143274946Y-117720167D03*
X143274945Y-120260168D03*
X143274946Y-122800167D03*
X143274946Y-125340166D03*
X143274945Y-127880166D03*
D18*
X154274947Y-127880165D03*
X154274946Y-125340166D03*
X154274946Y-122800167D03*
X154274947Y-120260168D03*
X154274946Y-117720167D03*
X154274945Y-115180168D03*
X154274946Y-112640167D03*
X154274948Y-110100168D03*
X154274946Y-107560167D03*
X154274947Y-105020166D03*
X154274946Y-102480167D03*
X154274946Y-99940168D03*
%TD*%
D19*
%TO.C,D11*%
X228861412Y-138350647D03*
X232153374Y-138580843D03*
%TD*%
%TO.C,D12*%
X230186785Y-119396928D03*
X233478747Y-119627124D03*
%TD*%
D20*
%TO.C,JST1*%
X136872949Y-144765167D03*
X136872949Y-146765167D03*
D21*
X135856950Y-146765166D03*
X135856950Y-144765168D03*
%TD*%
D22*
%TO.C,D9*%
X209124951Y-109140163D03*
X212424951Y-109140165D03*
%TD*%
D23*
%TO.C,D15*%
X251160630Y-133646845D03*
X254410496Y-134219883D03*
%TD*%
D22*
%TO.C,D3*%
X171124950Y-122140166D03*
X174424950Y-122140168D03*
%TD*%
%TO.C,D8*%
X209124944Y-128140168D03*
X212424944Y-128140170D03*
%TD*%
%TO.C,D5*%
X190124950Y-137140168D03*
X193424950Y-137140170D03*
%TD*%
D23*
%TO.C,D17*%
X267440901Y-150733469D03*
X270690767Y-151306507D03*
%TD*%
D24*
%TO.C,XX6*%
X149366979Y-143491904D03*
D25*
X149366979Y-144216904D03*
%TD*%
D23*
%TO.C,D16*%
X264141587Y-169444818D03*
X267391453Y-170017856D03*
%TD*%
D26*
%TO.C,D20*%
X156781758Y-188910259D03*
X159639642Y-187260257D03*
%TD*%
D22*
%TO.C,D18*%
X193074952Y-178090170D03*
X196374952Y-178090172D03*
%TD*%
%TO.C,D4*%
X190124952Y-156140166D03*
X193424952Y-156140168D03*
%TD*%
D19*
%TO.C,D10*%
X227536037Y-157304364D03*
X230827999Y-157534560D03*
%TD*%
D24*
%TO.C,XX5*%
X146872981Y-143491905D03*
D25*
X146872981Y-144216905D03*
%TD*%
D27*
%TO.C,D19*%
X174216883Y-181108667D03*
X177404439Y-180254567D03*
%TD*%
D24*
%TO.C,XX4*%
X144327979Y-143491908D03*
D25*
X144327979Y-144216908D03*
%TD*%
D22*
%TO.C,D7*%
X209124954Y-147140165D03*
X212424954Y-147140167D03*
%TD*%
D28*
%TO.C,RST1*%
X133166956Y-164265167D03*
X134866953Y-164265167D03*
X133166957Y-159015169D03*
X134866954Y-159015169D03*
%TD*%
D29*
%TO.C,D21*%
X141929381Y-200963273D03*
X144262837Y-198629819D03*
%TD*%
D22*
%TO.C,D2*%
X171124950Y-141140164D03*
X174424950Y-141140166D03*
%TD*%
D24*
%TO.C,XX7*%
X151911982Y-143491910D03*
D25*
X151911982Y-144216910D03*
%TD*%
D23*
%TO.C,D13*%
X244562001Y-171069542D03*
X247811867Y-171642580D03*
%TD*%
%TO.C,D14*%
X247861313Y-152358194D03*
X251111179Y-152931232D03*
%TD*%
D22*
%TO.C,D6*%
X190124952Y-118140163D03*
X193424952Y-118140165D03*
%TD*%
D30*
%TO.C,PWR1*%
X135122952Y-109690166D03*
X135122952Y-102390166D03*
X132912951Y-109690165D03*
X132912951Y-102390167D03*
D31*
X135772951Y-108290166D03*
X135772952Y-105290167D03*
X135772951Y-103790166D03*
%TD*%
D22*
%TO.C,D1*%
X171124953Y-160140166D03*
X174424953Y-160140168D03*
%TD*%
%TO.C,D22*%
X150936981Y-148852310D03*
X154236981Y-148852312D03*
%TD*%
D32*
%TO.C,DISP1*%
X153854949Y-132590165D03*
X151314948Y-132590164D03*
X146234950Y-132590164D03*
X143694947Y-132590165D03*
X153854948Y-131690166D03*
X151314948Y-131690166D03*
X146234949Y-131690168D03*
X143694950Y-131690166D03*
%TD*%
D33*
%TO.C,S13*%
X245470901Y-156556887D03*
D34*
X256463405Y-160729101D03*
%TD*%
D35*
%TO.C,S34*%
X254199237Y-166716900D03*
D36*
X241027560Y-166973562D03*
%TD*%
D35*
%TO.C,S38*%
X277078142Y-146380835D03*
D36*
X263906465Y-146637497D03*
%TD*%
D37*
%TO.C,S42*%
X143891602Y-190572337D03*
D38*
X136546885Y-201509158D03*
%TD*%
D12*
%TO.C,S18*%
X191449947Y-163640169D03*
D14*
X202999947Y-165840169D03*
%TD*%
D12*
%TO.C,S5*%
X188499951Y-122690170D03*
D14*
X200049951Y-124890170D03*
%TD*%
D39*
%TO.C,S22*%
X179859948Y-154180167D03*
D10*
X166932948Y-156720167D03*
%TD*%
D39*
%TO.C,S27*%
X198859950Y-112180169D03*
D10*
X185932950Y-114720169D03*
%TD*%
D35*
%TO.C,S36*%
X260797868Y-129294210D03*
D36*
X247626191Y-129550872D03*
%TD*%
D39*
%TO.C,S39*%
X201809947Y-172130169D03*
D10*
X188882947Y-174670169D03*
%TD*%
D33*
%TO.C,S16*%
X265050491Y-154932166D03*
D34*
X276042995Y-159104380D03*
%TD*%
D12*
%TO.C,S1*%
X169499948Y-145690167D03*
D14*
X181049948Y-147890167D03*
%TD*%
D33*
%TO.C,S17*%
X268349806Y-136220822D03*
D34*
X279342310Y-140393036D03*
%TD*%
D39*
%TO.C,S29*%
X217859951Y-122180170D03*
D10*
X204932951Y-124720170D03*
%TD*%
D12*
%TO.C,S3*%
X169499951Y-107690166D03*
D14*
X181049951Y-109890166D03*
%TD*%
D40*
%TO.C,S20*%
X148149466Y-177208694D03*
D41*
X159252059Y-173338950D03*
%TD*%
D42*
%TO.C,S10*%
X226922978Y-142776208D03*
D43*
X238291379Y-145776536D03*
%TD*%
D44*
%TO.C,S41*%
X161366490Y-179381250D03*
D45*
X151441379Y-188044454D03*
%TD*%
D42*
%TO.C,S12*%
X229573723Y-104868772D03*
D43*
X240942124Y-107869100D03*
%TD*%
D12*
%TO.C,S6*%
X188499950Y-103690169D03*
D14*
X200049950Y-105890169D03*
%TD*%
D39*
%TO.C,S30*%
X217859948Y-103180164D03*
D10*
X204932948Y-105720164D03*
%TD*%
D46*
%TO.C,S21*%
X130562639Y-191894627D03*
D47*
X140285357Y-185283179D03*
%TD*%
D39*
%TO.C,S25*%
X198859949Y-150180163D03*
D10*
X185932949Y-152720163D03*
%TD*%
D39*
%TO.C,S24*%
X179859951Y-116180166D03*
D10*
X166932951Y-118720166D03*
%TD*%
D35*
%TO.C,S37*%
X273778827Y-165092179D03*
D36*
X260607150Y-165348841D03*
%TD*%
D48*
%TO.C,S33*%
X239316256Y-114060769D03*
D49*
X226243563Y-115692839D03*
%TD*%
D42*
%TO.C,S11*%
X228248351Y-123822488D03*
D43*
X239616752Y-126822816D03*
%TD*%
D33*
%TO.C,S14*%
X248770218Y-137845543D03*
D34*
X259762722Y-142017757D03*
%TD*%
D39*
%TO.C,S26*%
X198859951Y-131180170D03*
D10*
X185932951Y-133720170D03*
%TD*%
D33*
%TO.C,S15*%
X252069532Y-119134197D03*
D34*
X263062036Y-123306411D03*
%TD*%
D48*
%TO.C,S32*%
X237990884Y-133014485D03*
D49*
X224918191Y-134646555D03*
%TD*%
D50*
%TO.C,S19*%
X168907323Y-167571623D03*
D51*
X180633168Y-166707300D03*
%TD*%
D39*
%TO.C,S28*%
X217859948Y-141180173D03*
D10*
X204932948Y-143720173D03*
%TD*%
D12*
%TO.C,S2*%
X169499950Y-126690165D03*
D14*
X181049950Y-128890165D03*
%TD*%
D52*
%TO.C,S40*%
X181111688Y-173090968D03*
D53*
X169282566Y-178890173D03*
%TD*%
D12*
%TO.C,S9*%
X207499948Y-94690164D03*
D14*
X219049948Y-96890164D03*
%TD*%
D48*
%TO.C,S31*%
X236665511Y-151968205D03*
D49*
X223592818Y-153600275D03*
%TD*%
D12*
%TO.C,S4*%
X188499949Y-141690163D03*
D14*
X200049949Y-143890163D03*
%TD*%
D35*
%TO.C,S35*%
X257498554Y-148005556D03*
D36*
X244326877Y-148262218D03*
%TD*%
M02*
