%TF.GenerationSoftware,KiCad,Pcbnew,10.0.4*%
%TF.CreationDate,2026-08-02T22:23:38-06:00*%
%TF.ProjectId,KLON -nice_view - Copy,4b4c4f4e-202d-46e6-9963-655f76696577,v1.0.0*%
%TF.SameCoordinates,Original*%
%TF.FileFunction,Profile,NP*%
%FSLAX46Y46*%
G04 Gerber Fmt 4.6, Leading zero omitted, Abs format (unit mm)*
G04 Created by KiCad (PCBNEW 10.0.4) date 2026-08-02 22:23:38*
%MOMM*%
%LPD*%
G01*
G04 APERTURE LIST*
%TA.AperFunction,Profile*%
%ADD10C,0.150000*%
%TD*%
G04 APERTURE END LIST*
D10*
X123014273Y-194281114D02*
G75*
G02*
X123014235Y-193291124I495127J495014D01*
G01*
X123014273Y-194281114D02*
X136590725Y-207857564D01*
X129783737Y-186521697D02*
X123014273Y-193291162D01*
X129783737Y-186521697D02*
G75*
G02*
X129822692Y-186485601I492563J-492503D01*
G01*
X129822691Y-186485600D02*
G75*
G02*
X132474950Y-184276790I74515309J-86778500D01*
G01*
X132474950Y-95040169D02*
G75*
G02*
X133174948Y-94340150I700050J-31D01*
G01*
X132474949Y-180640169D02*
X139949542Y-180640167D01*
X132474949Y-184276788D02*
X132474949Y-180640169D01*
X132474954Y-179640169D02*
X132474950Y-95040169D01*
X133174948Y-94340166D02*
X200474951Y-94340166D01*
X137580680Y-207857565D02*
G75*
G02*
X136590722Y-207857567I-494980J494965D01*
G01*
X137580680Y-207857565D02*
X144366296Y-201071945D01*
X139949542Y-180640167D02*
G75*
G02*
X140177895Y-180711798I-42J-399933D01*
G01*
X140177912Y-180711774D02*
X140606333Y-181009715D01*
X140419261Y-179640164D02*
X132474954Y-179640169D01*
X140419261Y-179640164D02*
G75*
G02*
X140689678Y-179745406I39J-399936D01*
G01*
X141034710Y-181027725D02*
G75*
G02*
X140606323Y-181009729I-200010J346625D01*
G01*
X141034710Y-181027725D02*
X141208670Y-180927291D01*
X141279075Y-180286123D02*
X140689673Y-179745412D01*
X141279075Y-180286123D02*
G75*
G02*
X141208692Y-180927329I-270475J-294777D01*
G01*
X142559803Y-184177118D02*
G75*
G02*
X142739184Y-183507818I424497J244918D01*
G01*
X142559803Y-184177118D02*
X145869804Y-189910207D01*
X142756479Y-183497770D02*
X142739155Y-183507768D01*
X142756479Y-183497770D02*
G75*
G02*
X143425878Y-183677090I245021J-424430D01*
G01*
X144371472Y-201066711D02*
G75*
G02*
X149549038Y-196282820I50372328J-49323789D01*
G01*
X146539156Y-190089560D02*
G75*
G02*
X145869853Y-189910179I-244956J424360D01*
G01*
X146539156Y-190089560D02*
X146556475Y-190079560D01*
X146735830Y-189410206D02*
X143425829Y-183677118D01*
X146735830Y-189410206D02*
G75*
G02*
X146556503Y-190079609I-424530J-244994D01*
G01*
X147859804Y-193356985D02*
G75*
G02*
X148039179Y-192687667I424296J244985D01*
G01*
X148039160Y-192687634D02*
X148056478Y-192677639D01*
X148056478Y-192677639D02*
G75*
G02*
X148725889Y-192856953I245022J-424461D01*
G01*
X148725832Y-192856986D02*
X150331754Y-195638533D01*
X149549037Y-196282819D02*
X147859804Y-193356985D01*
X150331754Y-195638533D02*
G75*
G02*
X194724771Y-179890152I44413646J-54753567D01*
G01*
X194724976Y-179890172D02*
X204324951Y-179890168D01*
X200474949Y-91040167D02*
X200474951Y-94340166D01*
X200474949Y-91040167D02*
G75*
G02*
X201174951Y-90340149I700051J-33D01*
G01*
X205024948Y-179190165D02*
G75*
G02*
X204324951Y-179890248I-700048J-35D01*
G01*
X205024948Y-179190165D02*
X205024947Y-166317309D01*
X220374952Y-90340168D02*
X201174951Y-90340167D01*
X220374952Y-90340168D02*
G75*
G02*
X221074932Y-91040166I-52J-700032D01*
G01*
X221074950Y-94340163D02*
X221074950Y-91040166D01*
X221074950Y-94340163D02*
X261174950Y-94340166D01*
X221429632Y-166317307D02*
X205024947Y-166317309D01*
X221429632Y-166317307D02*
X236431536Y-167366343D01*
X235852400Y-170650774D02*
X236431536Y-167366343D01*
X236420213Y-171461687D02*
G75*
G02*
X235852436Y-170650780I121487J689287D01*
G01*
X245074948Y-112590168D02*
X259474952Y-112590166D01*
X245074951Y-101190168D02*
X245074948Y-112590168D01*
X255328523Y-174795733D02*
X236420213Y-171461687D01*
X256139441Y-174227923D02*
G75*
G02*
X255328523Y-174795732I-689341J121523D01*
G01*
X256139441Y-174227923D02*
X257634548Y-165748730D01*
X257634548Y-165748730D02*
G75*
G02*
X258202206Y-165351207I482452J-84870D01*
G01*
X257870932Y-170166900D02*
X258619354Y-165922379D01*
X257870932Y-170166900D02*
X274908106Y-173171014D01*
X258221888Y-165354732D02*
G75*
G02*
X258619335Y-165922376I-84988J-482468D01*
G01*
X258221889Y-165354737D02*
X258202196Y-165351262D01*
X259474949Y-101190168D02*
X245074951Y-101190168D01*
X259474952Y-112590166D02*
X259474949Y-101190168D01*
X260072930Y-154511431D02*
G75*
G02*
X259707888Y-153990121I78070J443131D01*
G01*
X260072930Y-154511431D02*
X260171415Y-154528791D01*
X260692717Y-154163776D02*
G75*
G02*
X260171408Y-154528832I-443217J78176D01*
G01*
X260692717Y-154163776D02*
X261925622Y-147171637D01*
X260940810Y-146997989D02*
X259707910Y-153990125D01*
X260940810Y-146997989D02*
G75*
G02*
X261462118Y-146632958I443290J-78311D01*
G01*
X261174950Y-94340166D02*
G75*
G02*
X261874934Y-95040166I-50J-700034D01*
G01*
X261560600Y-146650330D02*
X261462116Y-146632970D01*
X261560600Y-146650330D02*
G75*
G02*
X261925548Y-147171624I-78100J-443070D01*
G01*
X261874950Y-95040166D02*
X261874950Y-116446048D01*
X261874950Y-116446048D02*
X265504306Y-117086002D01*
X263100996Y-134746981D02*
X266072114Y-117896922D01*
X263498458Y-135314625D02*
G75*
G02*
X263100989Y-134746980I85042J482525D01*
G01*
X263498458Y-135314625D02*
X263518161Y-135318101D01*
X264085800Y-134920630D02*
G75*
G02*
X263518164Y-135318081I-482500J85030D01*
G01*
X264085800Y-134920630D02*
X264747406Y-131168512D01*
X265504306Y-117086002D02*
G75*
G02*
X266072113Y-117896920I-121606J-689398D01*
G01*
X275719033Y-172603202D02*
G75*
G02*
X274908106Y-173171017I-689333J121502D01*
G01*
X275719033Y-172603202D02*
X282352389Y-134983547D01*
X281784577Y-134172628D02*
X264747406Y-131168512D01*
X281784577Y-134172628D02*
G75*
G02*
X282352378Y-134983545I-121577J-689372D01*
G01*
M02*
