G04 #@! TF.GenerationSoftware,KiCad,Pcbnew,10.0.4*
G04 #@! TF.CreationDate,2026-07-21T23:25:02-06:00*
G04 #@! TF.ProjectId,klor1_3 (1),6b6c6f72-315f-4332-9028-31292e6b6963,v1.3.0*
G04 #@! TF.SameCoordinates,Original*
G04 #@! TF.FileFunction,Soldermask,Bot*
G04 #@! TF.FilePolarity,Negative*
%FSLAX46Y46*%
G04 Gerber Fmt 4.6, Leading zero omitted, Abs format (unit mm)*
G04 Created by KiCad (PCBNEW 10.0.4) date 2026-07-21 23:25:02*
%MOMM*%
%LPD*%
G01*
G04 APERTURE LIST*
G04 Aperture macros list*
%AMRoundRect*
0 Rectangle with rounded corners*
0 $1 Rounding radius*
0 $2 $3 $4 $5 $6 $7 $8 $9 X,Y pos of 4 corners*
0 Add a 4 corners polygon primitive as box body*
4,1,4,$2,$3,$4,$5,$6,$7,$8,$9,$2,$3,0*
0 Add four circle primitives for the rounded corners*
1,1,$1+$1,$2,$3*
1,1,$1+$1,$4,$5*
1,1,$1+$1,$6,$7*
1,1,$1+$1,$8,$9*
0 Add four rect primitives between the rounded corners*
20,1,$1+$1,$2,$3,$4,$5,0*
20,1,$1+$1,$4,$5,$6,$7,0*
20,1,$1+$1,$6,$7,$8,$9,0*
20,1,$1+$1,$8,$9,$2,$3,0*%
%AMRotRect*
0 Rectangle, with rotation*
0 The origin of the aperture is its center*
0 $1 length*
0 $2 width*
0 $3 Rotation angle, in degrees counterclockwise*
0 Add horizontal line*
21,1,$1,$2,0,0,$3*%
G04 Aperture macros list end*
%ADD10C,0.000001*%
%ADD11C,0.150000*%
%ADD12C,0.000000*%
%ADD13C,1.900000*%
%ADD14C,1.700000*%
%ADD15C,3.000000*%
%ADD16C,4.100000*%
%ADD17RotRect,1.600000X1.000000X225.000000*%
%ADD18RotRect,2.300000X2.000000X45.000000*%
%ADD19R,1.600000X1.000000*%
%ADD20R,2.300000X2.000000*%
%ADD21RotRect,1.600000X1.000000X176.000000*%
%ADD22RotRect,2.300000X2.000000X356.000000*%
%ADD23C,3.200000*%
%ADD24RotRect,1.800000X1.500000X350.000000*%
%ADD25R,1.800000X1.500000*%
%ADD26RotRect,1.800000X1.500000X356.000000*%
%ADD27RotRect,1.600000X1.000000X195.000000*%
%ADD28RotRect,2.300000X2.000000X15.000000*%
%ADD29RotRect,1.600000X1.000000X170.000000*%
%ADD30RotRect,2.300000X2.000000X350.000000*%
%ADD31RotRect,1.800000X1.500000X285.000000*%
%ADD32R,2.200000X2.200000*%
%ADD33C,2.200000*%
%ADD34C,2.000000*%
%ADD35R,3.200000X2.000000*%
%ADD36O,1.600000X2.000000*%
%ADD37C,1.200000*%
%ADD38O,2.500000X1.700000*%
%ADD39RotRect,1.800000X1.500000X300.000000*%
%ADD40O,1.750000X1.200000*%
%ADD41C,0.900000*%
%ADD42RoundRect,0.187500X-0.712500X0.187500X-0.712500X-0.187500X0.712500X-0.187500X0.712500X0.187500X0*%
%ADD43RoundRect,0.150000X-0.750000X0.150000X-0.750000X-0.150000X0.750000X-0.150000X0.750000X0.150000X0*%
%ADD44RoundRect,0.225000X-0.225000X0.425000X-0.225000X-0.425000X0.225000X-0.425000X0.225000X0.425000X0*%
%ADD45C,4.400000*%
%ADD46RotRect,1.600000X1.000000X210.000000*%
%ADD47RotRect,2.300000X2.000000X30.000000*%
%ADD48RotRect,1.800000X1.500000X315.000000*%
%ADD49R,1.500000X1.800000*%
%ADD50RoundRect,0.142858X-0.857142X0.857142X-0.857142X-0.857142X0.857142X-0.857142X0.857142X0.857142X0*%
%ADD51R,1.000000X0.700000*%
%ADD52R,2.800000X1.000000*%
%ADD53R,1.524000X1.524000*%
%ADD54C,1.800000*%
%ADD55C,1.524000*%
%ADD56R,1.143000X0.635000*%
%ADD57RotRect,0.635000X1.143000X210.000000*%
%ADD58O,1.700000X1.700000*%
G04 APERTURE END LIST*
D10*
X158432058Y-117585540D02*
X158420088Y-117586423D01*
X158408311Y-117587878D01*
X158396741Y-117589892D01*
X158385389Y-117592451D01*
X158374271Y-117595541D01*
X158363399Y-117599149D01*
X158352788Y-117603261D01*
X158342450Y-117607864D01*
X158332400Y-117612944D01*
X158322651Y-117618488D01*
X158313216Y-117624482D01*
X158304109Y-117630912D01*
X158295344Y-117637765D01*
X158286934Y-117645028D01*
X158278893Y-117652687D01*
X158271234Y-117660728D01*
X158263971Y-117669137D01*
X158257117Y-117677902D01*
X158250686Y-117687008D01*
X158244692Y-117696442D01*
X158239148Y-117706191D01*
X158234068Y-117716240D01*
X158229464Y-117726577D01*
X158225352Y-117737188D01*
X158221744Y-117748059D01*
X158218653Y-117759177D01*
X158216095Y-117770528D01*
X158214081Y-117782098D01*
X158212626Y-117793874D01*
X158211742Y-117805843D01*
X158211445Y-117817990D01*
X158211742Y-117830138D01*
X158212626Y-117842107D01*
X158214081Y-117853883D01*
X158216095Y-117865453D01*
X158218653Y-117876804D01*
X158221744Y-117887922D01*
X158225352Y-117898793D01*
X158229464Y-117909403D01*
X158234068Y-117919740D01*
X158239148Y-117929790D01*
X158244692Y-117939539D01*
X158250686Y-117948973D01*
X158257117Y-117958079D01*
X158263971Y-117966844D01*
X158271234Y-117975253D01*
X158278893Y-117983294D01*
X158286934Y-117990953D01*
X158295344Y-117998215D01*
X158304109Y-118005069D01*
X158313216Y-118011499D01*
X158322651Y-118017493D01*
X158332400Y-118023037D01*
X158342450Y-118028117D01*
X158352788Y-118032720D01*
X158363399Y-118036832D01*
X158374271Y-118040440D01*
X158385389Y-118043530D01*
X158396741Y-118046089D01*
X158408311Y-118048102D01*
X158420088Y-118049558D01*
X158432058Y-118050441D01*
X158444206Y-118050738D01*
X158456354Y-118050441D01*
X158468324Y-118049558D01*
X158480101Y-118048102D01*
X158491672Y-118046089D01*
X158503023Y-118043530D01*
X158514141Y-118040440D01*
X158525013Y-118036832D01*
X158535624Y-118032720D01*
X158545962Y-118028117D01*
X158556012Y-118023037D01*
X158565761Y-118017493D01*
X158575196Y-118011499D01*
X158584303Y-118005069D01*
X158593068Y-117998215D01*
X158601478Y-117990953D01*
X158609519Y-117983294D01*
X158617178Y-117975253D01*
X158624441Y-117966844D01*
X158631295Y-117958079D01*
X158637726Y-117948973D01*
X158643720Y-117939539D01*
X158649264Y-117929790D01*
X158654345Y-117919740D01*
X158658948Y-117909403D01*
X158663060Y-117898793D01*
X158666668Y-117887922D01*
X158669759Y-117876804D01*
X158672317Y-117865453D01*
X158674331Y-117853883D01*
X158675786Y-117842107D01*
X158676670Y-117830138D01*
X158676967Y-117817990D01*
X158676670Y-117806153D01*
X158675786Y-117794455D01*
X158674331Y-117782912D01*
X158672317Y-117771540D01*
X158669759Y-117760354D01*
X158666668Y-117749369D01*
X158663060Y-117738601D01*
X158658948Y-117728065D01*
X158654345Y-117717778D01*
X158649264Y-117707754D01*
X158643720Y-117698008D01*
X158637726Y-117688558D01*
X158631295Y-117679417D01*
X158624441Y-117670602D01*
X158617178Y-117662127D01*
X158609519Y-117654009D01*
X158601478Y-117646263D01*
X158593068Y-117638905D01*
X158584303Y-117631949D01*
X158575196Y-117625412D01*
X158565761Y-117619308D01*
X158556012Y-117613654D01*
X158545962Y-117608465D01*
X158535624Y-117603757D01*
X158525013Y-117599544D01*
X158514141Y-117595843D01*
X158503023Y-117592669D01*
X158491672Y-117590037D01*
X158480101Y-117587963D01*
X158468324Y-117586462D01*
X158456354Y-117585550D01*
X158444206Y-117585243D01*
X158432058Y-117585540D01*
G36*
X158456354Y-117585550D02*
G01*
X158468324Y-117586462D01*
X158480101Y-117587963D01*
X158491672Y-117590037D01*
X158503023Y-117592669D01*
X158514141Y-117595843D01*
X158525013Y-117599544D01*
X158535624Y-117603757D01*
X158545962Y-117608465D01*
X158556012Y-117613654D01*
X158565761Y-117619308D01*
X158575196Y-117625412D01*
X158584303Y-117631949D01*
X158593068Y-117638905D01*
X158601478Y-117646263D01*
X158609519Y-117654009D01*
X158617178Y-117662127D01*
X158624441Y-117670602D01*
X158631295Y-117679417D01*
X158637726Y-117688558D01*
X158643720Y-117698008D01*
X158649264Y-117707754D01*
X158654345Y-117717778D01*
X158658948Y-117728065D01*
X158663060Y-117738601D01*
X158666668Y-117749369D01*
X158669759Y-117760354D01*
X158672317Y-117771540D01*
X158674331Y-117782912D01*
X158675786Y-117794455D01*
X158676670Y-117806153D01*
X158676967Y-117817990D01*
X158676670Y-117830138D01*
X158675786Y-117842107D01*
X158674331Y-117853883D01*
X158672317Y-117865453D01*
X158669759Y-117876804D01*
X158666668Y-117887922D01*
X158663060Y-117898793D01*
X158658948Y-117909403D01*
X158654345Y-117919740D01*
X158649264Y-117929790D01*
X158643720Y-117939539D01*
X158637726Y-117948973D01*
X158631295Y-117958079D01*
X158624441Y-117966844D01*
X158617178Y-117975253D01*
X158609519Y-117983294D01*
X158601478Y-117990953D01*
X158593068Y-117998215D01*
X158584303Y-118005069D01*
X158575196Y-118011499D01*
X158565761Y-118017493D01*
X158556012Y-118023037D01*
X158545962Y-118028117D01*
X158535624Y-118032720D01*
X158525013Y-118036832D01*
X158514141Y-118040440D01*
X158503023Y-118043530D01*
X158491672Y-118046089D01*
X158480101Y-118048102D01*
X158468324Y-118049558D01*
X158456354Y-118050441D01*
X158444206Y-118050738D01*
X158432058Y-118050441D01*
X158420088Y-118049558D01*
X158408311Y-118048102D01*
X158396741Y-118046089D01*
X158385389Y-118043530D01*
X158374271Y-118040440D01*
X158363399Y-118036832D01*
X158352788Y-118032720D01*
X158342450Y-118028117D01*
X158332400Y-118023037D01*
X158322651Y-118017493D01*
X158313216Y-118011499D01*
X158304109Y-118005069D01*
X158295344Y-117998215D01*
X158286934Y-117990953D01*
X158278893Y-117983294D01*
X158271234Y-117975253D01*
X158263971Y-117966844D01*
X158257117Y-117958079D01*
X158250686Y-117948973D01*
X158244692Y-117939539D01*
X158239148Y-117929790D01*
X158234068Y-117919740D01*
X158229464Y-117909403D01*
X158225352Y-117898793D01*
X158221744Y-117887922D01*
X158218653Y-117876804D01*
X158216095Y-117865453D01*
X158214081Y-117853883D01*
X158212626Y-117842107D01*
X158211742Y-117830138D01*
X158211445Y-117817990D01*
X158211742Y-117805843D01*
X158212626Y-117793874D01*
X158214081Y-117782098D01*
X158216095Y-117770528D01*
X158218653Y-117759177D01*
X158221744Y-117748059D01*
X158225352Y-117737188D01*
X158229464Y-117726577D01*
X158234068Y-117716240D01*
X158239148Y-117706191D01*
X158244692Y-117696442D01*
X158250686Y-117687008D01*
X158257117Y-117677902D01*
X158263971Y-117669137D01*
X158271234Y-117660728D01*
X158278893Y-117652687D01*
X158286934Y-117645028D01*
X158295344Y-117637765D01*
X158304109Y-117630912D01*
X158313216Y-117624482D01*
X158322651Y-117618488D01*
X158332400Y-117612944D01*
X158342450Y-117607864D01*
X158352788Y-117603261D01*
X158363399Y-117599149D01*
X158374271Y-117595541D01*
X158385389Y-117592451D01*
X158396741Y-117589892D01*
X158408311Y-117587878D01*
X158420088Y-117586423D01*
X158432058Y-117585540D01*
X158444206Y-117585243D01*
X158456354Y-117585550D01*
G37*
D11*
X108463510Y-54781201D02*
X107469711Y-54781201D01*
X109800000Y-53718863D02*
X109790842Y-53718903D01*
X109781693Y-53719023D01*
X109772554Y-53719222D01*
X109763425Y-53719501D01*
X109754306Y-53719860D01*
X109745199Y-53720299D01*
X109736102Y-53720816D01*
X109727017Y-53721414D01*
X109717944Y-53722090D01*
X109708884Y-53722846D01*
X109699836Y-53723680D01*
X109690801Y-53724594D01*
X109681779Y-53725587D01*
X109672772Y-53726658D01*
X109663778Y-53727808D01*
X109654800Y-53729037D01*
X109645836Y-53730345D01*
X109636888Y-53731731D01*
X109627956Y-53733195D01*
X109619040Y-53734738D01*
X109610141Y-53736359D01*
X109601259Y-53738058D01*
X109592395Y-53739834D01*
X109583549Y-53741689D01*
X109574722Y-53743622D01*
X109565914Y-53745632D01*
X109557125Y-53747719D01*
X109548356Y-53749884D01*
X109539608Y-53752126D01*
X109530881Y-53754446D01*
X109522176Y-53756842D01*
X109513492Y-53759315D01*
X109504831Y-53761865D01*
X109496194Y-53764491D01*
X109487579Y-53767194D01*
X109478989Y-53769973D01*
X109470424Y-53772827D01*
X109461883Y-53775758D01*
X109453369Y-53778764D01*
X109444880Y-53781846D01*
X109436419Y-53785003D01*
X109427985Y-53788236D01*
X109419579Y-53791543D01*
X109411201Y-53794925D01*
X109402852Y-53798381D01*
X109394534Y-53801911D01*
X109386245Y-53805516D01*
X109377987Y-53809194D01*
X109369761Y-53812946D01*
X109361567Y-53816771D01*
X109353405Y-53820669D01*
X109345276Y-53824640D01*
X109337182Y-53828683D01*
X109329122Y-53832798D01*
X109321096Y-53836985D01*
X109313107Y-53841244D01*
X109305154Y-53845574D01*
X109297237Y-53849975D01*
X109289358Y-53854447D01*
X109281518Y-53858989D01*
X109273716Y-53863600D01*
X109265953Y-53868282D01*
X109258230Y-53873033D01*
X109250548Y-53877852D01*
X109242908Y-53882740D01*
X109235309Y-53887697D01*
X109227752Y-53892721D01*
X109220239Y-53897812D01*
X109212769Y-53902970D01*
X109205344Y-53908195D01*
X109197964Y-53913486D01*
X109190630Y-53918843D01*
X109183342Y-53924265D01*
X109176100Y-53929751D01*
X109168906Y-53935302D01*
X109161761Y-53940917D01*
X109154664Y-53946596D01*
X109147616Y-53952337D01*
X109140619Y-53958141D01*
X109133671Y-53964006D01*
X109126776Y-53969933D01*
X109119931Y-53975921D01*
X109113140Y-53981970D01*
X109106401Y-53988079D01*
X109099716Y-53994246D01*
X109093085Y-54000473D01*
X109086509Y-54006758D01*
X109079988Y-54013101D01*
X109073522Y-54019502D01*
X109070311Y-54022723D01*
X109067114Y-54025958D01*
X109063931Y-54029208D01*
X109060762Y-54032471D01*
X109057608Y-54035749D01*
X109054468Y-54039040D01*
X109051343Y-54042345D01*
X109048232Y-54045663D01*
X109045136Y-54048996D01*
X109042055Y-54052341D01*
X109038988Y-54055700D01*
X109035937Y-54059073D01*
X109032900Y-54062459D01*
X109029878Y-54065858D01*
X109026872Y-54069270D01*
X109023880Y-54072696D01*
X109020904Y-54076134D01*
X109017943Y-54079586D01*
X109014997Y-54083050D01*
X109012067Y-54086527D01*
X109009152Y-54090016D01*
X109006252Y-54093519D01*
X109003369Y-54097033D01*
X109000500Y-54100561D01*
X108997648Y-54104100D01*
X108994811Y-54107653D01*
X108991990Y-54111217D01*
X108989185Y-54114794D01*
X108986396Y-54118382D01*
X108983623Y-54121983D01*
X108980866Y-54125595D01*
X108978125Y-54129220D01*
X108975400Y-54132856D01*
X108972691Y-54136505D01*
X108969999Y-54140164D01*
X108967323Y-54143835D01*
X108964664Y-54147518D01*
X108962020Y-54151212D01*
X108959394Y-54154917D01*
X108956784Y-54158634D01*
X108954190Y-54162362D01*
X108951613Y-54166101D01*
X108949054Y-54169851D01*
X108946510Y-54173612D01*
X108943984Y-54177383D01*
X108941474Y-54181166D01*
X108938981Y-54184959D01*
X108936505Y-54188763D01*
X108934047Y-54192577D01*
X108931605Y-54196402D01*
X108929180Y-54200237D01*
X108926773Y-54204083D01*
X108924383Y-54207938D01*
X108922009Y-54211805D01*
X108919654Y-54215680D01*
X108917315Y-54219567D01*
X108914995Y-54223462D01*
X108912691Y-54227368D01*
X108910405Y-54231283D01*
X108908136Y-54235209D01*
X108905886Y-54239143D01*
X108903652Y-54243088D01*
X108901437Y-54247041D01*
X108899238Y-54251005D01*
X108897058Y-54254976D01*
X108894895Y-54258959D01*
X108892751Y-54262949D01*
X108890624Y-54266949D01*
X108888515Y-54270957D01*
X108886424Y-54274976D01*
X108884351Y-54279001D01*
X108882296Y-54283037D01*
X108880259Y-54287081D01*
X108878240Y-54291134D01*
X108876239Y-54295194D01*
X108874256Y-54299264D01*
X108872292Y-54303341D01*
X108870346Y-54307428D01*
X108868418Y-54311522D01*
X108866508Y-54315625D01*
X108864617Y-54319735D01*
X108862743Y-54323855D01*
X108860889Y-54327980D01*
X108859053Y-54332115D01*
X108857235Y-54336257D01*
X108855435Y-54340407D01*
X108853655Y-54344564D01*
X108851892Y-54348730D01*
X108850149Y-54352901D01*
X108848424Y-54357082D01*
X108846718Y-54361268D01*
X108845030Y-54365464D01*
X108843361Y-54369664D01*
X108841710Y-54373874D01*
X108840079Y-54378089D01*
X108838466Y-54382313D01*
X108836872Y-54386541D01*
X108835296Y-54390779D01*
X108833740Y-54395021D01*
X108832202Y-54399272D01*
X108830684Y-54403528D01*
X108829184Y-54407792D01*
X108827703Y-54412060D01*
X108826241Y-54416338D01*
X108824799Y-54420619D01*
X108823374Y-54424909D01*
X108821970Y-54429202D01*
X108820584Y-54433504D01*
X108819218Y-54437810D01*
X108817870Y-54442125D01*
X108816542Y-54446443D01*
X108815232Y-54450768D01*
X108813942Y-54455098D01*
X108812671Y-54459436D01*
X108811419Y-54463777D01*
X108810186Y-54468126D01*
X108808973Y-54472478D01*
X108807779Y-54476838D01*
X108806605Y-54481201D01*
X108805449Y-54485571D01*
X108804313Y-54489945D01*
X108803196Y-54494326D01*
X108802098Y-54498710D01*
X108801020Y-54503102D01*
X108799961Y-54507496D01*
X108798922Y-54511898D01*
X108797902Y-54516302D01*
X108796901Y-54520713D01*
X108795920Y-54525127D01*
X108794958Y-54529548D01*
X108794017Y-54533971D01*
X108793094Y-54538401D01*
X108792191Y-54542834D01*
X108791307Y-54547273D01*
X108790443Y-54551715D01*
X108789598Y-54556163D01*
X108788773Y-54560613D01*
X108787967Y-54565070D01*
X108787182Y-54569528D01*
X108786415Y-54573993D01*
X108785669Y-54578460D01*
X108784941Y-54582934D01*
X108784234Y-54587409D01*
X108783546Y-54591890D01*
X108782878Y-54596373D01*
X108782230Y-54600862D01*
X108781601Y-54605352D01*
X108780992Y-54609849D01*
X108780402Y-54614347D01*
X108779833Y-54618851D01*
X108779283Y-54623356D01*
X108778753Y-54627867D01*
X108778242Y-54632379D01*
X108777751Y-54636897D01*
X108777281Y-54641416D01*
X108776830Y-54645940D01*
X108776398Y-54650466D01*
X108775987Y-54654997D01*
X108775595Y-54659529D01*
X108775223Y-54664066D01*
X108774871Y-54668604D01*
X108774539Y-54673148D01*
X108774227Y-54677692D01*
X108773934Y-54682242D01*
X108773662Y-54686792D01*
X108773409Y-54691347D01*
X108773176Y-54695902D01*
X108772963Y-54700463D01*
X108772771Y-54705024D01*
X108772598Y-54709591D01*
X108772445Y-54714157D01*
X108772311Y-54718728D01*
X108772198Y-54723300D01*
X108772105Y-54727876D01*
X108772032Y-54732453D01*
X108771979Y-54737034D01*
X108771945Y-54741615D01*
X108771932Y-54746201D01*
X108771932Y-54746932D01*
D10*
X157749539Y-113358839D02*
X157742439Y-113359087D01*
X157727299Y-113360079D01*
X157710010Y-113361732D01*
X157689497Y-113364046D01*
X157667813Y-113367092D01*
X157646411Y-113370929D01*
X157625306Y-113375543D01*
X157604512Y-113380921D01*
X157584044Y-113387048D01*
X157563916Y-113393910D01*
X157544142Y-113401492D01*
X157524735Y-113409780D01*
X157505711Y-113418761D01*
X157487083Y-113428420D01*
X157451074Y-113449715D01*
X157416822Y-113473551D01*
X157384439Y-113499816D01*
X157354040Y-113528394D01*
X157325739Y-113559174D01*
X157299649Y-113592040D01*
X157275883Y-113626879D01*
X157254556Y-113663578D01*
X157235781Y-113702024D01*
X157219672Y-113742101D01*
X157212652Y-113762717D01*
X157206342Y-113783697D01*
X157201685Y-113798740D01*
X157199801Y-113805828D01*
X157198186Y-113812791D01*
X157196819Y-113819754D01*
X157195679Y-113826842D01*
X157194745Y-113834177D01*
X157193998Y-113841884D01*
X157192979Y-113858911D01*
X157192455Y-113878912D01*
X157192235Y-113931810D01*
X157192414Y-113961612D01*
X157192653Y-113974311D01*
X157193006Y-113985754D01*
X157193483Y-113996102D01*
X157194094Y-114005514D01*
X157194850Y-114014152D01*
X157195761Y-114022176D01*
X157196837Y-114029744D01*
X157198089Y-114037019D01*
X157199527Y-114044159D01*
X157201161Y-114051324D01*
X157205060Y-114066374D01*
X157209868Y-114083448D01*
X157216540Y-114104597D01*
X157223409Y-114124526D01*
X157230588Y-114143423D01*
X157238191Y-114161472D01*
X157246331Y-114178860D01*
X157255122Y-114195772D01*
X157264677Y-114212396D01*
X157275111Y-114228916D01*
X157286537Y-114245518D01*
X157299068Y-114262390D01*
X157312818Y-114279715D01*
X157327901Y-114297682D01*
X157344431Y-114316475D01*
X157362520Y-114336280D01*
X157403835Y-114379673D01*
X157435850Y-114414276D01*
X157461584Y-114442268D01*
X157484948Y-114467835D01*
X157480929Y-114471454D01*
X157475608Y-114475631D01*
X157469171Y-114480263D01*
X157461805Y-114485247D01*
X157445025Y-114495854D01*
X157426758Y-114506626D01*
X157408491Y-114516737D01*
X157391712Y-114525360D01*
X157384345Y-114528856D01*
X157377908Y-114531669D01*
X157372587Y-114533698D01*
X157368568Y-114534838D01*
X157363001Y-114536077D01*
X157356927Y-114537152D01*
X157350420Y-114538061D01*
X157343551Y-114538805D01*
X157336392Y-114539384D01*
X157329017Y-114539797D01*
X157321497Y-114540045D01*
X157313905Y-114540127D01*
X157306312Y-114540045D01*
X157298792Y-114539797D01*
X157291417Y-114539384D01*
X157284258Y-114538805D01*
X157277389Y-114538061D01*
X157270882Y-114537152D01*
X157264809Y-114536077D01*
X157259241Y-114534838D01*
X157255023Y-114533539D01*
X157249137Y-114531063D01*
X157241814Y-114527554D01*
X157233287Y-114523156D01*
X157213553Y-114512274D01*
X157191793Y-114499573D01*
X157169869Y-114486211D01*
X157149639Y-114473345D01*
X157132963Y-114462132D01*
X157126539Y-114457507D01*
X157121701Y-114453729D01*
X157120917Y-114453120D01*
X157119896Y-114451339D01*
X157117182Y-114444527D01*
X157113642Y-114433830D01*
X157109357Y-114419786D01*
X157086434Y-114340881D01*
X157073429Y-114297241D01*
X157061747Y-114258891D01*
X157052710Y-114229797D01*
X157047640Y-114213928D01*
X157045534Y-114210085D01*
X157043190Y-114206489D01*
X157040619Y-114203142D01*
X157037831Y-114200043D01*
X157034837Y-114197191D01*
X157031646Y-114194588D01*
X157028269Y-114192232D01*
X157024717Y-114190124D01*
X157020999Y-114188265D01*
X157017126Y-114186653D01*
X157013109Y-114185289D01*
X157008957Y-114184173D01*
X157004681Y-114183306D01*
X157000292Y-114182686D01*
X156995799Y-114182314D01*
X156993299Y-114182246D01*
X156992397Y-114182281D01*
X156990000Y-114182552D01*
X156987557Y-114182995D01*
X156985077Y-114183602D01*
X156982569Y-114184366D01*
X156980041Y-114185281D01*
X156977502Y-114186340D01*
X156974959Y-114187535D01*
X156972421Y-114188858D01*
X156969897Y-114190304D01*
X156964923Y-114193534D01*
X156960104Y-114197166D01*
X156955507Y-114201145D01*
X156951199Y-114205412D01*
X156947248Y-114209913D01*
X156945427Y-114212232D01*
X156943721Y-114214588D01*
X156942137Y-114216974D01*
X156940684Y-114219383D01*
X156939370Y-114221807D01*
X156938205Y-114224240D01*
X156937196Y-114226674D01*
X156936351Y-114229102D01*
X156935680Y-114231517D01*
X156935190Y-114233912D01*
X156934889Y-114236280D01*
X156934788Y-114238613D01*
X156952200Y-114312063D01*
X157000031Y-114498250D01*
X157160495Y-115099074D01*
X157386203Y-115945430D01*
X159502212Y-115945430D01*
X159512792Y-115910165D01*
X159771121Y-114953607D01*
X159853690Y-114640632D01*
X159720865Y-114640632D01*
X159718826Y-114652630D01*
X159710505Y-114687027D01*
X159677663Y-114813430D01*
X159565691Y-115229554D01*
X159406991Y-115818476D01*
X157484949Y-115818476D01*
X157326248Y-115233081D01*
X157322721Y-115229554D01*
X157260728Y-115002647D01*
X157210308Y-114816074D01*
X157176418Y-114689011D01*
X157164020Y-114640632D01*
X157164071Y-114640322D01*
X157164222Y-114640052D01*
X157164470Y-114639823D01*
X157164812Y-114639633D01*
X157165763Y-114639369D01*
X157167051Y-114639254D01*
X157168648Y-114639284D01*
X157170529Y-114639454D01*
X157172669Y-114639758D01*
X157175041Y-114640191D01*
X157177620Y-114640748D01*
X157180379Y-114641424D01*
X157186337Y-114643111D01*
X157192709Y-114645212D01*
X157195985Y-114646405D01*
X157199287Y-114647685D01*
X157204504Y-114650168D01*
X157209619Y-114652341D01*
X157214692Y-114654225D01*
X157219786Y-114655840D01*
X157224962Y-114657207D01*
X157230283Y-114658347D01*
X157235811Y-114659280D01*
X157241607Y-114660027D01*
X157247734Y-114660609D01*
X157254253Y-114661047D01*
X157268718Y-114661570D01*
X157285497Y-114661763D01*
X157305087Y-114661791D01*
X157320984Y-114662240D01*
X157335718Y-114662245D01*
X157349450Y-114661775D01*
X157362340Y-114660799D01*
X157374549Y-114659285D01*
X157386235Y-114657204D01*
X157397560Y-114654522D01*
X157408683Y-114651211D01*
X157419765Y-114647239D01*
X157430966Y-114642574D01*
X157442446Y-114637186D01*
X157454365Y-114631044D01*
X157466883Y-114624117D01*
X157480161Y-114616373D01*
X157509635Y-114598314D01*
X157521475Y-114590572D01*
X157532944Y-114583326D01*
X157543669Y-114576742D01*
X157553277Y-114570984D01*
X157561399Y-114566218D01*
X157567660Y-114562608D01*
X157573115Y-114559523D01*
X157675830Y-114660468D01*
X157918730Y-114901591D01*
X158002771Y-114985311D01*
X158075282Y-115056922D01*
X158136633Y-115116879D01*
X158187199Y-115165637D01*
X158227349Y-115203650D01*
X158257457Y-115231372D01*
X158277894Y-115249260D01*
X158284602Y-115254657D01*
X158289032Y-115257766D01*
X158296623Y-115260906D01*
X158304798Y-115263710D01*
X158313480Y-115266173D01*
X158322590Y-115268290D01*
X158332052Y-115270056D01*
X158341787Y-115271465D01*
X158351719Y-115272513D01*
X158361769Y-115273194D01*
X158371861Y-115273503D01*
X158381917Y-115273435D01*
X158391859Y-115272985D01*
X158401610Y-115272147D01*
X158411092Y-115270917D01*
X158420228Y-115269289D01*
X158428941Y-115267258D01*
X158437152Y-115264819D01*
X158441664Y-115263451D01*
X158445969Y-115261974D01*
X158450109Y-115260363D01*
X158454124Y-115258592D01*
X158458057Y-115256635D01*
X158461949Y-115254467D01*
X158465841Y-115252060D01*
X158469774Y-115249391D01*
X158473790Y-115246431D01*
X158477929Y-115243157D01*
X158482235Y-115239542D01*
X158486746Y-115235560D01*
X158491506Y-115231186D01*
X158496555Y-115226393D01*
X158507686Y-115215448D01*
X158546479Y-115176657D01*
X158585273Y-115211922D01*
X158588736Y-115215885D01*
X158592484Y-115219829D01*
X158596470Y-115223730D01*
X158600647Y-115227570D01*
X158604968Y-115231328D01*
X158609388Y-115234981D01*
X158613859Y-115238511D01*
X158618335Y-115241897D01*
X158622770Y-115245117D01*
X158627118Y-115248151D01*
X158635363Y-115253578D01*
X158642698Y-115258014D01*
X158645909Y-115259808D01*
X158648753Y-115261292D01*
X158655062Y-115263852D01*
X158662033Y-115266231D01*
X158669582Y-115268413D01*
X158677628Y-115270384D01*
X158686086Y-115272128D01*
X158694875Y-115273628D01*
X158703913Y-115274871D01*
X158713115Y-115275839D01*
X158722400Y-115276518D01*
X158731685Y-115276893D01*
X158740888Y-115276947D01*
X158749925Y-115276666D01*
X158758714Y-115276033D01*
X158767172Y-115275033D01*
X158775218Y-115273651D01*
X158782767Y-115271872D01*
X158786413Y-115271139D01*
X158790076Y-115270265D01*
X158797432Y-115268111D01*
X158804797Y-115265440D01*
X158812137Y-115262284D01*
X158819416Y-115258673D01*
X158826595Y-115254639D01*
X158833641Y-115250212D01*
X158840516Y-115245423D01*
X158847185Y-115240304D01*
X158853610Y-115234885D01*
X158859757Y-115229198D01*
X158865589Y-115223272D01*
X158871069Y-115217141D01*
X158876162Y-115210833D01*
X158880831Y-115204381D01*
X158885041Y-115197816D01*
X158906201Y-115166077D01*
X158923835Y-115176657D01*
X158926526Y-115178519D01*
X158929331Y-115180149D01*
X158932281Y-115181562D01*
X158935406Y-115182773D01*
X158938739Y-115183798D01*
X158942308Y-115184653D01*
X158946147Y-115185353D01*
X158950285Y-115185914D01*
X158954753Y-115186350D01*
X158959584Y-115186678D01*
X158970453Y-115187071D01*
X158983141Y-115187216D01*
X158997895Y-115187236D01*
X159006129Y-115187194D01*
X159013675Y-115187064D01*
X159020592Y-115186841D01*
X159026935Y-115186520D01*
X159032761Y-115186096D01*
X159038128Y-115185563D01*
X159043091Y-115184916D01*
X159047709Y-115184151D01*
X159052037Y-115183261D01*
X159056133Y-115182243D01*
X159060053Y-115181090D01*
X159063855Y-115179798D01*
X159067594Y-115178361D01*
X159071328Y-115176774D01*
X159075114Y-115175032D01*
X159079008Y-115173131D01*
X159086808Y-115168690D01*
X159094336Y-115163970D01*
X159101587Y-115158982D01*
X159108558Y-115153735D01*
X159115245Y-115148240D01*
X159121644Y-115142508D01*
X159133562Y-115130372D01*
X159144281Y-115117409D01*
X159153771Y-115103703D01*
X159162001Y-115089335D01*
X159168939Y-115074389D01*
X159174554Y-115058947D01*
X159178816Y-115043091D01*
X159181694Y-115026906D01*
X159183156Y-115010472D01*
X159183171Y-114993872D01*
X159182627Y-114985537D01*
X159181709Y-114977190D01*
X159180415Y-114968844D01*
X159178739Y-114960509D01*
X159176678Y-114952193D01*
X159174229Y-114943909D01*
X159172948Y-114940608D01*
X159171749Y-114937332D01*
X159170633Y-114934107D01*
X159169600Y-114930960D01*
X159168650Y-114927917D01*
X159167782Y-114925003D01*
X159166294Y-114919665D01*
X159165137Y-114915153D01*
X159164310Y-114911675D01*
X159163649Y-114908644D01*
X159168975Y-114905839D01*
X159174353Y-114902735D01*
X159179751Y-114899362D01*
X159185140Y-114895751D01*
X159190486Y-114891933D01*
X159195761Y-114887940D01*
X159200932Y-114883802D01*
X159205969Y-114879551D01*
X159210841Y-114875217D01*
X159215516Y-114870831D01*
X159219964Y-114866425D01*
X159224154Y-114862029D01*
X159228054Y-114857674D01*
X159231634Y-114853392D01*
X159234863Y-114849213D01*
X159237709Y-114845168D01*
X159242755Y-114838090D01*
X159247325Y-114831358D01*
X159251441Y-114824905D01*
X159255122Y-114818664D01*
X159258391Y-114812568D01*
X159261266Y-114806549D01*
X159263770Y-114800540D01*
X159265923Y-114794475D01*
X159267745Y-114788285D01*
X159269257Y-114781905D01*
X159270479Y-114775266D01*
X159271433Y-114768302D01*
X159272139Y-114760945D01*
X159272618Y-114753128D01*
X159272890Y-114744785D01*
X159272973Y-114736140D01*
X159151167Y-114736140D01*
X159151134Y-114739725D01*
X159150829Y-114743276D01*
X159150263Y-114746786D01*
X159149446Y-114750245D01*
X159148386Y-114753645D01*
X159147093Y-114756978D01*
X159145578Y-114760235D01*
X159143850Y-114763409D01*
X159141918Y-114766490D01*
X159139792Y-114769471D01*
X159137483Y-114772342D01*
X159134999Y-114775096D01*
X159132350Y-114777724D01*
X159129547Y-114780218D01*
X159126598Y-114782569D01*
X159123513Y-114784768D01*
X159120303Y-114786809D01*
X159116976Y-114788681D01*
X159113543Y-114790377D01*
X159110013Y-114791889D01*
X159106396Y-114793207D01*
X159102701Y-114794324D01*
X159098939Y-114795232D01*
X159095118Y-114795920D01*
X159091249Y-114796383D01*
X159087342Y-114796610D01*
X159083405Y-114796594D01*
X159079448Y-114796326D01*
X159075483Y-114795797D01*
X159072190Y-114794407D01*
X159067492Y-114791451D01*
X159053220Y-114780204D01*
X159031344Y-114760773D01*
X159000541Y-114731880D01*
X158906863Y-114640577D01*
X158761608Y-114496046D01*
X158465367Y-114199822D01*
X158423046Y-114242140D01*
X158418503Y-114246103D01*
X158414140Y-114250040D01*
X158409974Y-114253925D01*
X158406019Y-114257733D01*
X158402292Y-114261438D01*
X158398807Y-114265014D01*
X158395581Y-114268434D01*
X158392629Y-114271674D01*
X158389966Y-114274707D01*
X158387607Y-114277508D01*
X158385569Y-114280050D01*
X158383867Y-114282309D01*
X158382516Y-114284257D01*
X158381532Y-114285870D01*
X158380930Y-114287121D01*
X158380777Y-114287602D01*
X158380726Y-114287984D01*
X158387600Y-114296022D01*
X158407286Y-114316582D01*
X158479473Y-114389811D01*
X158715761Y-114626526D01*
X158846083Y-114757502D01*
X158954253Y-114867649D01*
X158996415Y-114911296D01*
X159028699Y-114945397D01*
X159049659Y-114968505D01*
X159055441Y-114975485D01*
X159057849Y-114979174D01*
X159059669Y-114983150D01*
X159061166Y-114987136D01*
X159062347Y-114991122D01*
X159063222Y-114995098D01*
X159063796Y-114999054D01*
X159064079Y-115002978D01*
X159064078Y-115006861D01*
X159063800Y-115010692D01*
X159063254Y-115014461D01*
X159062447Y-115018158D01*
X159061387Y-115021773D01*
X159060081Y-115025294D01*
X159058537Y-115028712D01*
X159056764Y-115032016D01*
X159054769Y-115035197D01*
X159052559Y-115038243D01*
X159050143Y-115041144D01*
X159047527Y-115043891D01*
X159044721Y-115046472D01*
X159041731Y-115048877D01*
X159038566Y-115051097D01*
X159035232Y-115053120D01*
X159031739Y-115054937D01*
X159028093Y-115056536D01*
X159024302Y-115057909D01*
X159020375Y-115059043D01*
X159016318Y-115059930D01*
X159012140Y-115060559D01*
X159007848Y-115060919D01*
X159003451Y-115061000D01*
X158998955Y-115060791D01*
X158994369Y-115060283D01*
X158989669Y-115059308D01*
X158984540Y-115057439D01*
X158978553Y-115054278D01*
X158971280Y-115049428D01*
X158951160Y-115033070D01*
X158920749Y-115005182D01*
X158876617Y-114962582D01*
X158815334Y-114902087D01*
X158627594Y-114714688D01*
X158285506Y-114372620D01*
X158239659Y-114418464D01*
X158193812Y-114464308D01*
X158493580Y-114764059D01*
X158589489Y-114860004D01*
X158628630Y-114899241D01*
X158662420Y-114933220D01*
X158691250Y-114962363D01*
X158715513Y-114987095D01*
X158735602Y-115007839D01*
X158744204Y-115016848D01*
X158751909Y-115025018D01*
X158758768Y-115032404D01*
X158764828Y-115039057D01*
X158770139Y-115045031D01*
X158774750Y-115050379D01*
X158778711Y-115055153D01*
X158782069Y-115059407D01*
X158784874Y-115063193D01*
X158787176Y-115066565D01*
X158789024Y-115069575D01*
X158790465Y-115072276D01*
X158791551Y-115074722D01*
X158792329Y-115076965D01*
X158792848Y-115079058D01*
X158793159Y-115081055D01*
X158793309Y-115083007D01*
X158793348Y-115084969D01*
X158793276Y-115089204D01*
X158793060Y-115093316D01*
X158792703Y-115097302D01*
X158792205Y-115101162D01*
X158791567Y-115104895D01*
X158790791Y-115108501D01*
X158789878Y-115111980D01*
X158788830Y-115115329D01*
X158787647Y-115118550D01*
X158786331Y-115121641D01*
X158784883Y-115124602D01*
X158783305Y-115127431D01*
X158781598Y-115130129D01*
X158779763Y-115132694D01*
X158777801Y-115135126D01*
X158775715Y-115137425D01*
X158773504Y-115139589D01*
X158771170Y-115141619D01*
X158768715Y-115143512D01*
X158766140Y-115145270D01*
X158763446Y-115146891D01*
X158760635Y-115148374D01*
X158757707Y-115149719D01*
X158754665Y-115150925D01*
X158751508Y-115151991D01*
X158748240Y-115152918D01*
X158744860Y-115153704D01*
X158741371Y-115154348D01*
X158737773Y-115154850D01*
X158734068Y-115155210D01*
X158730257Y-115155426D01*
X158726341Y-115155498D01*
X158723435Y-115155115D01*
X158719790Y-115153756D01*
X158708983Y-115146847D01*
X158691315Y-115132252D01*
X158664183Y-115107450D01*
X158624983Y-115069919D01*
X158571112Y-115017139D01*
X158408940Y-114855747D01*
X158109172Y-114555997D01*
X158063325Y-114601841D01*
X158017478Y-114647685D01*
X158229079Y-114859274D01*
X158437153Y-115070863D01*
X158437153Y-115095548D01*
X158436390Y-115100094D01*
X158435426Y-115104471D01*
X158434269Y-115108678D01*
X158432924Y-115112712D01*
X158431398Y-115116571D01*
X158429698Y-115120251D01*
X158427831Y-115123750D01*
X158425802Y-115127066D01*
X158423617Y-115130196D01*
X158421285Y-115133137D01*
X158418810Y-115135888D01*
X158416200Y-115138444D01*
X158413460Y-115140805D01*
X158410598Y-115142966D01*
X158407620Y-115144926D01*
X158404531Y-115146682D01*
X158401340Y-115148231D01*
X158398051Y-115149571D01*
X158394673Y-115150700D01*
X158391210Y-115151614D01*
X158387670Y-115152311D01*
X158384058Y-115152788D01*
X158380383Y-115153043D01*
X158376649Y-115153074D01*
X158372863Y-115152877D01*
X158369032Y-115152450D01*
X158365163Y-115151791D01*
X158361261Y-115150897D01*
X158357333Y-115149766D01*
X158353386Y-115148394D01*
X158349426Y-115146779D01*
X158345460Y-115144919D01*
X158332221Y-115134009D01*
X158301707Y-115105246D01*
X158196457Y-115002096D01*
X157862304Y-114668844D01*
X157643925Y-114449761D01*
X157561703Y-114366586D01*
X157495970Y-114299445D01*
X157445611Y-114247182D01*
X157409511Y-114208638D01*
X157396459Y-114194150D01*
X157386553Y-114182658D01*
X157379654Y-114174018D01*
X157375622Y-114168084D01*
X157362818Y-114144444D01*
X157351504Y-114120503D01*
X157341662Y-114096313D01*
X157333274Y-114071925D01*
X157326323Y-114047390D01*
X157320790Y-114022759D01*
X157316657Y-113998082D01*
X157313905Y-113973411D01*
X157312518Y-113948797D01*
X157312476Y-113924291D01*
X157313762Y-113899944D01*
X157316357Y-113875806D01*
X157320244Y-113851930D01*
X157325405Y-113828365D01*
X157331821Y-113805163D01*
X157339474Y-113782375D01*
X157348346Y-113760052D01*
X157358419Y-113738245D01*
X157369676Y-113717005D01*
X157382097Y-113696383D01*
X157395665Y-113676430D01*
X157410362Y-113657196D01*
X157426170Y-113638734D01*
X157443070Y-113621094D01*
X157461045Y-113604327D01*
X157480076Y-113588483D01*
X157500146Y-113573615D01*
X157521235Y-113559773D01*
X157543328Y-113547008D01*
X157566404Y-113535371D01*
X157590446Y-113524913D01*
X157615436Y-113515685D01*
X157627933Y-113511305D01*
X157641514Y-113507420D01*
X157656026Y-113504031D01*
X157671312Y-113501138D01*
X157687218Y-113498741D01*
X157703590Y-113496840D01*
X157720271Y-113495435D01*
X157737107Y-113494526D01*
X157753943Y-113494113D01*
X157770624Y-113494196D01*
X157786995Y-113494774D01*
X157802901Y-113495849D01*
X157818188Y-113497419D01*
X157832699Y-113499485D01*
X157846281Y-113502048D01*
X157858777Y-113505106D01*
X157891950Y-113513922D01*
X157917422Y-113522958D01*
X157957524Y-113538607D01*
X158107739Y-113600321D01*
X158394833Y-113720221D01*
X158545991Y-113782520D01*
X158606188Y-113807370D01*
X158657185Y-113828495D01*
X158699771Y-113846252D01*
X158734738Y-113860998D01*
X158749610Y-113867353D01*
X158762875Y-113873088D01*
X158774629Y-113878249D01*
X158784972Y-113882880D01*
X158794003Y-113887025D01*
X158801821Y-113890729D01*
X158808525Y-113894037D01*
X158814212Y-113896993D01*
X158818983Y-113899641D01*
X158822935Y-113902027D01*
X158826168Y-113904194D01*
X158828780Y-113906188D01*
X158830871Y-113908052D01*
X158832539Y-113909832D01*
X158833882Y-113911572D01*
X158835000Y-113913316D01*
X158839195Y-113921230D01*
X158840466Y-113923565D01*
X158841633Y-113925936D01*
X158842698Y-113928342D01*
X158843658Y-113930777D01*
X158844516Y-113933237D01*
X158845270Y-113935720D01*
X158845921Y-113938221D01*
X158846469Y-113940736D01*
X158846913Y-113943262D01*
X158847254Y-113945793D01*
X158847492Y-113948328D01*
X158847626Y-113950861D01*
X158847657Y-113953389D01*
X158847585Y-113955908D01*
X158847409Y-113958414D01*
X158847130Y-113960903D01*
X158846748Y-113963372D01*
X158846262Y-113965816D01*
X158845673Y-113968231D01*
X158844981Y-113970615D01*
X158844185Y-113972962D01*
X158843287Y-113975269D01*
X158842284Y-113977532D01*
X158841179Y-113979748D01*
X158839970Y-113981912D01*
X158838658Y-113984020D01*
X158837242Y-113986069D01*
X158835723Y-113988054D01*
X158834101Y-113989973D01*
X158832376Y-113991820D01*
X158830547Y-113993593D01*
X158828615Y-113995286D01*
X158817470Y-114004247D01*
X158811830Y-114007366D01*
X158805581Y-114009447D01*
X158798299Y-114010392D01*
X158789560Y-114010102D01*
X158778940Y-114008479D01*
X158766016Y-114005425D01*
X158750365Y-114000842D01*
X158731562Y-113994632D01*
X158682809Y-113976938D01*
X158528847Y-113917704D01*
X158433075Y-113879959D01*
X158352513Y-113848497D01*
X158320621Y-113836257D01*
X158295755Y-113826952D01*
X158278989Y-113821036D01*
X158273980Y-113819490D01*
X158271399Y-113818962D01*
X158277881Y-113826911D01*
X158301431Y-113852133D01*
X158392629Y-113946797D01*
X158530775Y-114087746D01*
X158701654Y-114259772D01*
X158701654Y-114263299D01*
X158902565Y-114464914D01*
X158979752Y-114543055D01*
X159041979Y-114606690D01*
X159089658Y-114656274D01*
X159123203Y-114692262D01*
X159134804Y-114705299D01*
X159143027Y-114715108D01*
X159147922Y-114721745D01*
X159149139Y-114723892D01*
X159149543Y-114725268D01*
X159150381Y-114728903D01*
X159150920Y-114732530D01*
X159151167Y-114736140D01*
X159272973Y-114736140D01*
X159272976Y-114735847D01*
X159272763Y-114724301D01*
X159272095Y-114713400D01*
X159270930Y-114703047D01*
X159269229Y-114693144D01*
X159266949Y-114683591D01*
X159264049Y-114674292D01*
X159260488Y-114665148D01*
X159256225Y-114656060D01*
X159251217Y-114646932D01*
X159245424Y-114637663D01*
X159238805Y-114628158D01*
X159231318Y-114618316D01*
X159222921Y-114608040D01*
X159213574Y-114597233D01*
X159203235Y-114585795D01*
X159191863Y-114573629D01*
X159174477Y-114554977D01*
X159167593Y-114547377D01*
X159161886Y-114540789D01*
X159159468Y-114537842D01*
X159157336Y-114535110D01*
X159155489Y-114532579D01*
X159153923Y-114530237D01*
X159152637Y-114528070D01*
X159151626Y-114526066D01*
X159150890Y-114524212D01*
X159150424Y-114522495D01*
X159150227Y-114520902D01*
X159150297Y-114519420D01*
X159150630Y-114518036D01*
X159151223Y-114516737D01*
X159152075Y-114515510D01*
X159153183Y-114514343D01*
X159154544Y-114513223D01*
X159156155Y-114512136D01*
X159158014Y-114511070D01*
X159160119Y-114510011D01*
X159162467Y-114508947D01*
X159165054Y-114507866D01*
X159170940Y-114505596D01*
X159177756Y-114503099D01*
X159183489Y-114501295D01*
X159188901Y-114499903D01*
X159194169Y-114499008D01*
X159199467Y-114498691D01*
X159204972Y-114499036D01*
X159210860Y-114500124D01*
X159217305Y-114502039D01*
X159224485Y-114504863D01*
X159232573Y-114508678D01*
X159241746Y-114513569D01*
X159252180Y-114519616D01*
X159264050Y-114526903D01*
X159292800Y-114545527D01*
X159329403Y-114570102D01*
X159372702Y-114598493D01*
X159391473Y-114610318D01*
X159408643Y-114620685D01*
X159424450Y-114629689D01*
X159439130Y-114637422D01*
X159452922Y-114643978D01*
X159466062Y-114649448D01*
X159478790Y-114653927D01*
X159491341Y-114657507D01*
X159503955Y-114660281D01*
X159516868Y-114662342D01*
X159530319Y-114663783D01*
X159544545Y-114664698D01*
X159559783Y-114665178D01*
X159576271Y-114665317D01*
X159595861Y-114665145D01*
X159604571Y-114664922D01*
X159612640Y-114664601D01*
X159620131Y-114664177D01*
X159627105Y-114663644D01*
X159633624Y-114662997D01*
X159639751Y-114662232D01*
X159645548Y-114661342D01*
X159651075Y-114660324D01*
X159656396Y-114659171D01*
X159661573Y-114657879D01*
X159666667Y-114656442D01*
X159671740Y-114654855D01*
X159676854Y-114653113D01*
X159682072Y-114651211D01*
X159685994Y-114649930D01*
X159689814Y-114648732D01*
X159693509Y-114647616D01*
X159697060Y-114646583D01*
X159703645Y-114644765D01*
X159709403Y-114643277D01*
X159714170Y-114642120D01*
X159717779Y-114641293D01*
X159720865Y-114640632D01*
X159853690Y-114640632D01*
X159960680Y-114235087D01*
X159960579Y-114232753D01*
X159960278Y-114230385D01*
X159959788Y-114227990D01*
X159959117Y-114225575D01*
X159958272Y-114223147D01*
X159957263Y-114220713D01*
X159956098Y-114218281D01*
X159954784Y-114215857D01*
X159953331Y-114213448D01*
X159951748Y-114211062D01*
X159948220Y-114206386D01*
X159944269Y-114201886D01*
X159939961Y-114197618D01*
X159935364Y-114193640D01*
X159930545Y-114190007D01*
X159925571Y-114186778D01*
X159920509Y-114184008D01*
X159917966Y-114182813D01*
X159915427Y-114181755D01*
X159912899Y-114180840D01*
X159910391Y-114180075D01*
X159907911Y-114179468D01*
X159905468Y-114179026D01*
X159903071Y-114178755D01*
X159900727Y-114178663D01*
X159898093Y-114178704D01*
X159895482Y-114178826D01*
X159892896Y-114179027D01*
X159890340Y-114179304D01*
X159887814Y-114179656D01*
X159885322Y-114180081D01*
X159882866Y-114180578D01*
X159880448Y-114181143D01*
X159878073Y-114181775D01*
X159875741Y-114182473D01*
X159873455Y-114183234D01*
X159871219Y-114184056D01*
X159869034Y-114184938D01*
X159866903Y-114185877D01*
X159864829Y-114186872D01*
X159862815Y-114187920D01*
X159860863Y-114189020D01*
X159858975Y-114190170D01*
X159857154Y-114191367D01*
X159855404Y-114192611D01*
X159853725Y-114193898D01*
X159852121Y-114195227D01*
X159850595Y-114196596D01*
X159849149Y-114198004D01*
X159847786Y-114199447D01*
X159846508Y-114200925D01*
X159845317Y-114202435D01*
X159844217Y-114203975D01*
X159843210Y-114205544D01*
X159842299Y-114207139D01*
X159841486Y-114208759D01*
X159840773Y-114210402D01*
X159836255Y-114226271D01*
X159828430Y-114255364D01*
X159817960Y-114293715D01*
X159805506Y-114337355D01*
X159798928Y-114359416D01*
X159792557Y-114380279D01*
X159781260Y-114416260D01*
X159770239Y-114450202D01*
X159770158Y-114450574D01*
X159769916Y-114451025D01*
X159768972Y-114452158D01*
X159767450Y-114453581D01*
X159765390Y-114455272D01*
X159759825Y-114459377D01*
X159752606Y-114464308D01*
X159744065Y-114469901D01*
X159734532Y-114475990D01*
X159713813Y-114488994D01*
X159702731Y-114495978D01*
X159691950Y-114502390D01*
X159681437Y-114508233D01*
X159671162Y-114513514D01*
X159661093Y-114518236D01*
X159651200Y-114522405D01*
X159641452Y-114526028D01*
X159631817Y-114529107D01*
X159622265Y-114531650D01*
X159612765Y-114533660D01*
X159603285Y-114535143D01*
X159593795Y-114536105D01*
X159584264Y-114536550D01*
X159574660Y-114536484D01*
X159564953Y-114535911D01*
X159555112Y-114534838D01*
X159539311Y-114532214D01*
X159532159Y-114530754D01*
X159525245Y-114529052D01*
X159518373Y-114526999D01*
X159511345Y-114524486D01*
X159503966Y-114521404D01*
X159496040Y-114517646D01*
X159487370Y-114513103D01*
X159477759Y-114507666D01*
X159467012Y-114501227D01*
X159454932Y-114493677D01*
X159425988Y-114474812D01*
X159389358Y-114450202D01*
X159350771Y-114425166D01*
X159334014Y-114414613D01*
X159318714Y-114405295D01*
X159304695Y-114397154D01*
X159291782Y-114390135D01*
X159279798Y-114384180D01*
X159268569Y-114379232D01*
X159257918Y-114375234D01*
X159252755Y-114373574D01*
X159247671Y-114372131D01*
X159242643Y-114370896D01*
X159237650Y-114369864D01*
X159232670Y-114369026D01*
X159227681Y-114368377D01*
X159217589Y-114367613D01*
X159207196Y-114367516D01*
X159196329Y-114368028D01*
X159184810Y-114369093D01*
X159177653Y-114369840D01*
X159170697Y-114370774D01*
X159163896Y-114371914D01*
X159157203Y-114373281D01*
X159150572Y-114374896D01*
X159143957Y-114376780D01*
X159137311Y-114378953D01*
X159130588Y-114381436D01*
X159123740Y-114384249D01*
X159116722Y-114387414D01*
X159109487Y-114390951D01*
X159101988Y-114394881D01*
X159094180Y-114399223D01*
X159086015Y-114404000D01*
X159077447Y-114409231D01*
X159068430Y-114414937D01*
X159065873Y-114416105D01*
X159063346Y-114416838D01*
X159060634Y-114416952D01*
X159057519Y-114416260D01*
X159053784Y-114414576D01*
X159049212Y-114411714D01*
X159043586Y-114407488D01*
X159036690Y-114401713D01*
X159018216Y-114384769D01*
X158992055Y-114359395D01*
X158909729Y-114277405D01*
X158765135Y-114129292D01*
X158803929Y-114129292D01*
X158812772Y-114128446D01*
X158821444Y-114127236D01*
X158829939Y-114125667D01*
X158838252Y-114123748D01*
X158846376Y-114121485D01*
X158854305Y-114118886D01*
X158862034Y-114115958D01*
X158869558Y-114112707D01*
X158876869Y-114109141D01*
X158883963Y-114105267D01*
X158890834Y-114101093D01*
X158897475Y-114096624D01*
X158903881Y-114091869D01*
X158910047Y-114086834D01*
X158915965Y-114081527D01*
X158921631Y-114075954D01*
X158927039Y-114070124D01*
X158932183Y-114064041D01*
X158937057Y-114057715D01*
X158941655Y-114051152D01*
X158945972Y-114044359D01*
X158950001Y-114037343D01*
X158953737Y-114030112D01*
X158957174Y-114022672D01*
X158960306Y-114015030D01*
X158963128Y-114007194D01*
X158965633Y-113999171D01*
X158967816Y-113990968D01*
X158969671Y-113982591D01*
X158971192Y-113974049D01*
X158972373Y-113965348D01*
X158973209Y-113956495D01*
X158973501Y-113944019D01*
X158973064Y-113931734D01*
X158971915Y-113919666D01*
X158970068Y-113907841D01*
X158967539Y-113896284D01*
X158964344Y-113885022D01*
X158960498Y-113874080D01*
X158956017Y-113863484D01*
X158950915Y-113853260D01*
X158945209Y-113843434D01*
X158938914Y-113834032D01*
X158932046Y-113825078D01*
X158924620Y-113816601D01*
X158916651Y-113808624D01*
X158908156Y-113801174D01*
X158899149Y-113794277D01*
X158849761Y-113771196D01*
X158738795Y-113723362D01*
X158412467Y-113586655D01*
X158080849Y-113450610D01*
X157904625Y-113381679D01*
X157895932Y-113378896D01*
X157885999Y-113375948D01*
X157875240Y-113373000D01*
X157864068Y-113370218D01*
X157852896Y-113367766D01*
X157842136Y-113365810D01*
X157837041Y-113365069D01*
X157832204Y-113364515D01*
X157827677Y-113364167D01*
X157823511Y-113364046D01*
X157802998Y-113361732D01*
X157785709Y-113360079D01*
X157770570Y-113359087D01*
X157763470Y-113358839D01*
X157756504Y-113358757D01*
X157749539Y-113358839D01*
G36*
X159771121Y-114953607D02*
G01*
X159512792Y-115910165D01*
X159502212Y-115945430D01*
X157386203Y-115945430D01*
X157160495Y-115099074D01*
X157038057Y-114640632D01*
X157164020Y-114640632D01*
X157176418Y-114689011D01*
X157210308Y-114816074D01*
X157260728Y-115002647D01*
X157322721Y-115229554D01*
X157326248Y-115233081D01*
X157484949Y-115818476D01*
X159406991Y-115818476D01*
X159565691Y-115229554D01*
X159677663Y-114813430D01*
X159710505Y-114687027D01*
X159718826Y-114652630D01*
X159720865Y-114640632D01*
X159717779Y-114641293D01*
X159714170Y-114642120D01*
X159709403Y-114643277D01*
X159703645Y-114644765D01*
X159697060Y-114646583D01*
X159693509Y-114647616D01*
X159689814Y-114648732D01*
X159685994Y-114649930D01*
X159682072Y-114651211D01*
X159676854Y-114653113D01*
X159671740Y-114654855D01*
X159666667Y-114656442D01*
X159661573Y-114657879D01*
X159656396Y-114659171D01*
X159651075Y-114660324D01*
X159645548Y-114661342D01*
X159639751Y-114662232D01*
X159633624Y-114662997D01*
X159627105Y-114663644D01*
X159620131Y-114664177D01*
X159612640Y-114664601D01*
X159604571Y-114664922D01*
X159595861Y-114665145D01*
X159576271Y-114665317D01*
X159559783Y-114665178D01*
X159544545Y-114664698D01*
X159530319Y-114663783D01*
X159516868Y-114662342D01*
X159503955Y-114660281D01*
X159491341Y-114657507D01*
X159478790Y-114653927D01*
X159466062Y-114649448D01*
X159452922Y-114643978D01*
X159439130Y-114637422D01*
X159424450Y-114629689D01*
X159408643Y-114620685D01*
X159391473Y-114610318D01*
X159372702Y-114598493D01*
X159329403Y-114570102D01*
X159292800Y-114545527D01*
X159264050Y-114526903D01*
X159252180Y-114519616D01*
X159241746Y-114513569D01*
X159232573Y-114508678D01*
X159224485Y-114504863D01*
X159217305Y-114502039D01*
X159210860Y-114500124D01*
X159204972Y-114499036D01*
X159199467Y-114498691D01*
X159194169Y-114499008D01*
X159188901Y-114499903D01*
X159183489Y-114501295D01*
X159177756Y-114503099D01*
X159170940Y-114505596D01*
X159165054Y-114507866D01*
X159162467Y-114508947D01*
X159160119Y-114510011D01*
X159158014Y-114511070D01*
X159156155Y-114512136D01*
X159154544Y-114513223D01*
X159153183Y-114514343D01*
X159152075Y-114515510D01*
X159151223Y-114516737D01*
X159150630Y-114518036D01*
X159150297Y-114519420D01*
X159150227Y-114520902D01*
X159150424Y-114522495D01*
X159150890Y-114524212D01*
X159151626Y-114526066D01*
X159152637Y-114528070D01*
X159153923Y-114530237D01*
X159155489Y-114532579D01*
X159157336Y-114535110D01*
X159159468Y-114537842D01*
X159161886Y-114540789D01*
X159167593Y-114547377D01*
X159174477Y-114554977D01*
X159191863Y-114573629D01*
X159203235Y-114585795D01*
X159213574Y-114597233D01*
X159222921Y-114608040D01*
X159231318Y-114618316D01*
X159238805Y-114628158D01*
X159245424Y-114637663D01*
X159251217Y-114646932D01*
X159256225Y-114656060D01*
X159260488Y-114665148D01*
X159264049Y-114674292D01*
X159266949Y-114683591D01*
X159269229Y-114693144D01*
X159270930Y-114703047D01*
X159272095Y-114713400D01*
X159272763Y-114724301D01*
X159272976Y-114735847D01*
X159272973Y-114736140D01*
X159272890Y-114744785D01*
X159272618Y-114753128D01*
X159272139Y-114760945D01*
X159271433Y-114768302D01*
X159270479Y-114775266D01*
X159269257Y-114781905D01*
X159267745Y-114788285D01*
X159265923Y-114794475D01*
X159263770Y-114800540D01*
X159261266Y-114806549D01*
X159258391Y-114812568D01*
X159255122Y-114818664D01*
X159251441Y-114824905D01*
X159247325Y-114831358D01*
X159242755Y-114838090D01*
X159237709Y-114845168D01*
X159234863Y-114849213D01*
X159231634Y-114853392D01*
X159228054Y-114857674D01*
X159224154Y-114862029D01*
X159219964Y-114866425D01*
X159215516Y-114870831D01*
X159210841Y-114875217D01*
X159205969Y-114879551D01*
X159200932Y-114883802D01*
X159195761Y-114887940D01*
X159190486Y-114891933D01*
X159185140Y-114895751D01*
X159179751Y-114899362D01*
X159174353Y-114902735D01*
X159168975Y-114905839D01*
X159163649Y-114908644D01*
X159164310Y-114911675D01*
X159165137Y-114915153D01*
X159166294Y-114919665D01*
X159167782Y-114925003D01*
X159168650Y-114927917D01*
X159169600Y-114930960D01*
X159170633Y-114934107D01*
X159171749Y-114937332D01*
X159172948Y-114940608D01*
X159174229Y-114943909D01*
X159176678Y-114952193D01*
X159178739Y-114960509D01*
X159180415Y-114968844D01*
X159181709Y-114977190D01*
X159182627Y-114985537D01*
X159183171Y-114993872D01*
X159183156Y-115010472D01*
X159181694Y-115026906D01*
X159178816Y-115043091D01*
X159174554Y-115058947D01*
X159168939Y-115074389D01*
X159162001Y-115089335D01*
X159153771Y-115103703D01*
X159144281Y-115117409D01*
X159133562Y-115130372D01*
X159121644Y-115142508D01*
X159115245Y-115148240D01*
X159108558Y-115153735D01*
X159101587Y-115158982D01*
X159094336Y-115163970D01*
X159086808Y-115168690D01*
X159079008Y-115173131D01*
X159075114Y-115175032D01*
X159071328Y-115176774D01*
X159067594Y-115178361D01*
X159063855Y-115179798D01*
X159060053Y-115181090D01*
X159056133Y-115182243D01*
X159052037Y-115183261D01*
X159047709Y-115184151D01*
X159043091Y-115184916D01*
X159038128Y-115185563D01*
X159032761Y-115186096D01*
X159026935Y-115186520D01*
X159020592Y-115186841D01*
X159013675Y-115187064D01*
X159006129Y-115187194D01*
X158997895Y-115187236D01*
X158983141Y-115187216D01*
X158970453Y-115187071D01*
X158959584Y-115186678D01*
X158954753Y-115186350D01*
X158950285Y-115185914D01*
X158946147Y-115185353D01*
X158942308Y-115184653D01*
X158938739Y-115183798D01*
X158935406Y-115182773D01*
X158932281Y-115181562D01*
X158929331Y-115180149D01*
X158926526Y-115178519D01*
X158923835Y-115176657D01*
X158906201Y-115166077D01*
X158885041Y-115197816D01*
X158880831Y-115204381D01*
X158876162Y-115210833D01*
X158871069Y-115217141D01*
X158865589Y-115223272D01*
X158859757Y-115229198D01*
X158853610Y-115234885D01*
X158847185Y-115240304D01*
X158840516Y-115245423D01*
X158833641Y-115250212D01*
X158826595Y-115254639D01*
X158819416Y-115258673D01*
X158812137Y-115262284D01*
X158804797Y-115265440D01*
X158797432Y-115268111D01*
X158790076Y-115270265D01*
X158786413Y-115271139D01*
X158782767Y-115271872D01*
X158775218Y-115273651D01*
X158767172Y-115275033D01*
X158758714Y-115276033D01*
X158749925Y-115276666D01*
X158740888Y-115276947D01*
X158731685Y-115276893D01*
X158722400Y-115276518D01*
X158713115Y-115275839D01*
X158703913Y-115274871D01*
X158694875Y-115273628D01*
X158686086Y-115272128D01*
X158677628Y-115270384D01*
X158669582Y-115268413D01*
X158662033Y-115266231D01*
X158655062Y-115263852D01*
X158648753Y-115261292D01*
X158645909Y-115259808D01*
X158642698Y-115258014D01*
X158635363Y-115253578D01*
X158627118Y-115248151D01*
X158622770Y-115245117D01*
X158618335Y-115241897D01*
X158613859Y-115238511D01*
X158609388Y-115234981D01*
X158604968Y-115231328D01*
X158600647Y-115227570D01*
X158596470Y-115223730D01*
X158592484Y-115219829D01*
X158588736Y-115215885D01*
X158585273Y-115211922D01*
X158546479Y-115176657D01*
X158507686Y-115215448D01*
X158496555Y-115226393D01*
X158491506Y-115231186D01*
X158486746Y-115235560D01*
X158482235Y-115239542D01*
X158477929Y-115243157D01*
X158473790Y-115246431D01*
X158469774Y-115249391D01*
X158465841Y-115252060D01*
X158461949Y-115254467D01*
X158458057Y-115256635D01*
X158454124Y-115258592D01*
X158450109Y-115260363D01*
X158445969Y-115261974D01*
X158441664Y-115263451D01*
X158437152Y-115264819D01*
X158428941Y-115267258D01*
X158420228Y-115269289D01*
X158411092Y-115270917D01*
X158401610Y-115272147D01*
X158391859Y-115272985D01*
X158381917Y-115273435D01*
X158371861Y-115273503D01*
X158361769Y-115273194D01*
X158351719Y-115272513D01*
X158341787Y-115271465D01*
X158332052Y-115270056D01*
X158322590Y-115268290D01*
X158313480Y-115266173D01*
X158304798Y-115263710D01*
X158296623Y-115260906D01*
X158289032Y-115257766D01*
X158284602Y-115254657D01*
X158277894Y-115249260D01*
X158257457Y-115231372D01*
X158227349Y-115203650D01*
X158187199Y-115165637D01*
X158136633Y-115116879D01*
X158075282Y-115056922D01*
X158002771Y-114985311D01*
X157918730Y-114901591D01*
X157675830Y-114660468D01*
X157573115Y-114559523D01*
X157567660Y-114562608D01*
X157561399Y-114566218D01*
X157553277Y-114570984D01*
X157543669Y-114576742D01*
X157532944Y-114583326D01*
X157521475Y-114590572D01*
X157509635Y-114598314D01*
X157480161Y-114616373D01*
X157466883Y-114624117D01*
X157454365Y-114631044D01*
X157442446Y-114637186D01*
X157430966Y-114642574D01*
X157419765Y-114647239D01*
X157408683Y-114651211D01*
X157397560Y-114654522D01*
X157386235Y-114657204D01*
X157374549Y-114659285D01*
X157362340Y-114660799D01*
X157349450Y-114661775D01*
X157335718Y-114662245D01*
X157320984Y-114662240D01*
X157305087Y-114661791D01*
X157285497Y-114661763D01*
X157268718Y-114661570D01*
X157254253Y-114661047D01*
X157247734Y-114660609D01*
X157241607Y-114660027D01*
X157235811Y-114659280D01*
X157230283Y-114658347D01*
X157224962Y-114657207D01*
X157219786Y-114655840D01*
X157214692Y-114654225D01*
X157209619Y-114652341D01*
X157204504Y-114650168D01*
X157199287Y-114647685D01*
X157195985Y-114646405D01*
X157192709Y-114645212D01*
X157186337Y-114643111D01*
X157180379Y-114641424D01*
X157177620Y-114640748D01*
X157175041Y-114640191D01*
X157172669Y-114639758D01*
X157170529Y-114639454D01*
X157168648Y-114639284D01*
X157167051Y-114639254D01*
X157165763Y-114639369D01*
X157164812Y-114639633D01*
X157164470Y-114639823D01*
X157164222Y-114640052D01*
X157164071Y-114640322D01*
X157164020Y-114640632D01*
X157038057Y-114640632D01*
X157000031Y-114498250D01*
X156952200Y-114312063D01*
X156934788Y-114238613D01*
X156934889Y-114236280D01*
X156935190Y-114233912D01*
X156935680Y-114231517D01*
X156936351Y-114229102D01*
X156937196Y-114226674D01*
X156938205Y-114224240D01*
X156939370Y-114221807D01*
X156940684Y-114219383D01*
X156942137Y-114216974D01*
X156943721Y-114214588D01*
X156945427Y-114212232D01*
X156947248Y-114209913D01*
X156951199Y-114205412D01*
X156955507Y-114201145D01*
X156960104Y-114197166D01*
X156964923Y-114193534D01*
X156969897Y-114190304D01*
X156972421Y-114188858D01*
X156974959Y-114187535D01*
X156977502Y-114186340D01*
X156980041Y-114185281D01*
X156982569Y-114184366D01*
X156985077Y-114183602D01*
X156987557Y-114182995D01*
X156990000Y-114182552D01*
X156992397Y-114182281D01*
X156993299Y-114182246D01*
X156995799Y-114182314D01*
X157000292Y-114182686D01*
X157004681Y-114183306D01*
X157008957Y-114184173D01*
X157013109Y-114185289D01*
X157017126Y-114186653D01*
X157020999Y-114188265D01*
X157024717Y-114190124D01*
X157028269Y-114192232D01*
X157031646Y-114194588D01*
X157034837Y-114197191D01*
X157037831Y-114200043D01*
X157040619Y-114203142D01*
X157043190Y-114206489D01*
X157045534Y-114210085D01*
X157047640Y-114213928D01*
X157052710Y-114229797D01*
X157061747Y-114258891D01*
X157073429Y-114297241D01*
X157086434Y-114340881D01*
X157109357Y-114419786D01*
X157113642Y-114433830D01*
X157117182Y-114444527D01*
X157119896Y-114451339D01*
X157120917Y-114453120D01*
X157121701Y-114453729D01*
X157126539Y-114457507D01*
X157132963Y-114462132D01*
X157149639Y-114473345D01*
X157169869Y-114486211D01*
X157191793Y-114499573D01*
X157213553Y-114512274D01*
X157233287Y-114523156D01*
X157241814Y-114527554D01*
X157249137Y-114531063D01*
X157255023Y-114533539D01*
X157259241Y-114534838D01*
X157264809Y-114536077D01*
X157270882Y-114537152D01*
X157277389Y-114538061D01*
X157284258Y-114538805D01*
X157291417Y-114539384D01*
X157298792Y-114539797D01*
X157306312Y-114540045D01*
X157313905Y-114540127D01*
X157321497Y-114540045D01*
X157329017Y-114539797D01*
X157336392Y-114539384D01*
X157343551Y-114538805D01*
X157350420Y-114538061D01*
X157356927Y-114537152D01*
X157363001Y-114536077D01*
X157368568Y-114534838D01*
X157372587Y-114533698D01*
X157377908Y-114531669D01*
X157384345Y-114528856D01*
X157391712Y-114525360D01*
X157408491Y-114516737D01*
X157426758Y-114506626D01*
X157445025Y-114495854D01*
X157461805Y-114485247D01*
X157469171Y-114480263D01*
X157475608Y-114475631D01*
X157480929Y-114471454D01*
X157484948Y-114467835D01*
X157461584Y-114442268D01*
X157435850Y-114414276D01*
X157403835Y-114379673D01*
X157362520Y-114336280D01*
X157344431Y-114316475D01*
X157327901Y-114297682D01*
X157312818Y-114279715D01*
X157299068Y-114262390D01*
X157286537Y-114245518D01*
X157275111Y-114228916D01*
X157264677Y-114212396D01*
X157255122Y-114195772D01*
X157246331Y-114178860D01*
X157238191Y-114161472D01*
X157230588Y-114143423D01*
X157223409Y-114124526D01*
X157216540Y-114104597D01*
X157209868Y-114083448D01*
X157205060Y-114066374D01*
X157201161Y-114051324D01*
X157199527Y-114044159D01*
X157198089Y-114037019D01*
X157196837Y-114029744D01*
X157195761Y-114022176D01*
X157194850Y-114014152D01*
X157194094Y-114005514D01*
X157193483Y-113996102D01*
X157193006Y-113985754D01*
X157192653Y-113974311D01*
X157192414Y-113961612D01*
X157192235Y-113931810D01*
X157192266Y-113924291D01*
X157312476Y-113924291D01*
X157312518Y-113948797D01*
X157313905Y-113973411D01*
X157316657Y-113998082D01*
X157320790Y-114022759D01*
X157326323Y-114047390D01*
X157333274Y-114071925D01*
X157341662Y-114096313D01*
X157351504Y-114120503D01*
X157362818Y-114144444D01*
X157375622Y-114168084D01*
X157379654Y-114174018D01*
X157386553Y-114182658D01*
X157396459Y-114194150D01*
X157409511Y-114208638D01*
X157445611Y-114247182D01*
X157495970Y-114299445D01*
X157561703Y-114366586D01*
X157643925Y-114449761D01*
X157862304Y-114668844D01*
X158196457Y-115002096D01*
X158301707Y-115105246D01*
X158332221Y-115134009D01*
X158345460Y-115144919D01*
X158349426Y-115146779D01*
X158353386Y-115148394D01*
X158357333Y-115149766D01*
X158361261Y-115150897D01*
X158365163Y-115151791D01*
X158369032Y-115152450D01*
X158372863Y-115152877D01*
X158376649Y-115153074D01*
X158380383Y-115153043D01*
X158384058Y-115152788D01*
X158387670Y-115152311D01*
X158391210Y-115151614D01*
X158394673Y-115150700D01*
X158398051Y-115149571D01*
X158401340Y-115148231D01*
X158404531Y-115146682D01*
X158407620Y-115144926D01*
X158410598Y-115142966D01*
X158413460Y-115140805D01*
X158416200Y-115138444D01*
X158418810Y-115135888D01*
X158421285Y-115133137D01*
X158423617Y-115130196D01*
X158425802Y-115127066D01*
X158427831Y-115123750D01*
X158429698Y-115120251D01*
X158431398Y-115116571D01*
X158432924Y-115112712D01*
X158434269Y-115108678D01*
X158435426Y-115104471D01*
X158436390Y-115100094D01*
X158437153Y-115095548D01*
X158437153Y-115070863D01*
X158229079Y-114859274D01*
X158017478Y-114647685D01*
X158063325Y-114601841D01*
X158109172Y-114555997D01*
X158408940Y-114855747D01*
X158571112Y-115017139D01*
X158624983Y-115069919D01*
X158664183Y-115107450D01*
X158691315Y-115132252D01*
X158708983Y-115146847D01*
X158719790Y-115153756D01*
X158723435Y-115155115D01*
X158726341Y-115155498D01*
X158730257Y-115155426D01*
X158734068Y-115155210D01*
X158737773Y-115154850D01*
X158741371Y-115154348D01*
X158744860Y-115153704D01*
X158748240Y-115152918D01*
X158751508Y-115151991D01*
X158754665Y-115150925D01*
X158757707Y-115149719D01*
X158760635Y-115148374D01*
X158763446Y-115146891D01*
X158766140Y-115145270D01*
X158768715Y-115143512D01*
X158771170Y-115141619D01*
X158773504Y-115139589D01*
X158775715Y-115137425D01*
X158777801Y-115135126D01*
X158779763Y-115132694D01*
X158781598Y-115130129D01*
X158783305Y-115127431D01*
X158784883Y-115124602D01*
X158786331Y-115121641D01*
X158787647Y-115118550D01*
X158788830Y-115115329D01*
X158789878Y-115111980D01*
X158790791Y-115108501D01*
X158791567Y-115104895D01*
X158792205Y-115101162D01*
X158792703Y-115097302D01*
X158793060Y-115093316D01*
X158793276Y-115089204D01*
X158793348Y-115084969D01*
X158793309Y-115083007D01*
X158793159Y-115081055D01*
X158792848Y-115079058D01*
X158792329Y-115076965D01*
X158791551Y-115074722D01*
X158790465Y-115072276D01*
X158789024Y-115069575D01*
X158787176Y-115066565D01*
X158784874Y-115063193D01*
X158782069Y-115059407D01*
X158778711Y-115055153D01*
X158774750Y-115050379D01*
X158770139Y-115045031D01*
X158764828Y-115039057D01*
X158758768Y-115032404D01*
X158751909Y-115025018D01*
X158744204Y-115016848D01*
X158735602Y-115007839D01*
X158715513Y-114987095D01*
X158691250Y-114962363D01*
X158662420Y-114933220D01*
X158628630Y-114899241D01*
X158589489Y-114860004D01*
X158493580Y-114764059D01*
X158193812Y-114464308D01*
X158239659Y-114418464D01*
X158285506Y-114372620D01*
X158627594Y-114714688D01*
X158815334Y-114902087D01*
X158876617Y-114962582D01*
X158920749Y-115005182D01*
X158951160Y-115033070D01*
X158971280Y-115049428D01*
X158978553Y-115054278D01*
X158984540Y-115057439D01*
X158989669Y-115059308D01*
X158994369Y-115060283D01*
X158998955Y-115060791D01*
X159003451Y-115061000D01*
X159007848Y-115060919D01*
X159012140Y-115060559D01*
X159016318Y-115059930D01*
X159020375Y-115059043D01*
X159024302Y-115057909D01*
X159028093Y-115056536D01*
X159031739Y-115054937D01*
X159035232Y-115053120D01*
X159038566Y-115051097D01*
X159041731Y-115048877D01*
X159044721Y-115046472D01*
X159047527Y-115043891D01*
X159050143Y-115041144D01*
X159052559Y-115038243D01*
X159054769Y-115035197D01*
X159056764Y-115032016D01*
X159058537Y-115028712D01*
X159060081Y-115025294D01*
X159061387Y-115021773D01*
X159062447Y-115018158D01*
X159063254Y-115014461D01*
X159063800Y-115010692D01*
X159064078Y-115006861D01*
X159064079Y-115002978D01*
X159063796Y-114999054D01*
X159063222Y-114995098D01*
X159062347Y-114991122D01*
X159061166Y-114987136D01*
X159059669Y-114983150D01*
X159057849Y-114979174D01*
X159055441Y-114975485D01*
X159049659Y-114968505D01*
X159028699Y-114945397D01*
X158996415Y-114911296D01*
X158954253Y-114867649D01*
X158846083Y-114757502D01*
X158715761Y-114626526D01*
X158479473Y-114389811D01*
X158407286Y-114316582D01*
X158387600Y-114296022D01*
X158380726Y-114287984D01*
X158380777Y-114287602D01*
X158380930Y-114287121D01*
X158381532Y-114285870D01*
X158382516Y-114284257D01*
X158383867Y-114282309D01*
X158385569Y-114280050D01*
X158387607Y-114277508D01*
X158389966Y-114274707D01*
X158392629Y-114271674D01*
X158395581Y-114268434D01*
X158398807Y-114265014D01*
X158402292Y-114261438D01*
X158406019Y-114257733D01*
X158409974Y-114253925D01*
X158414140Y-114250040D01*
X158418503Y-114246103D01*
X158423046Y-114242140D01*
X158465367Y-114199822D01*
X158761608Y-114496046D01*
X158906863Y-114640577D01*
X159000541Y-114731880D01*
X159031344Y-114760773D01*
X159053220Y-114780204D01*
X159067492Y-114791451D01*
X159072190Y-114794407D01*
X159075483Y-114795797D01*
X159079448Y-114796326D01*
X159083405Y-114796594D01*
X159087342Y-114796610D01*
X159091249Y-114796383D01*
X159095118Y-114795920D01*
X159098939Y-114795232D01*
X159102701Y-114794324D01*
X159106396Y-114793207D01*
X159110013Y-114791889D01*
X159113543Y-114790377D01*
X159116976Y-114788681D01*
X159120303Y-114786809D01*
X159123513Y-114784768D01*
X159126598Y-114782569D01*
X159129547Y-114780218D01*
X159132350Y-114777724D01*
X159134999Y-114775096D01*
X159137483Y-114772342D01*
X159139792Y-114769471D01*
X159141918Y-114766490D01*
X159143850Y-114763409D01*
X159145578Y-114760235D01*
X159147093Y-114756978D01*
X159148386Y-114753645D01*
X159149446Y-114750245D01*
X159150263Y-114746786D01*
X159150829Y-114743276D01*
X159151134Y-114739725D01*
X159151167Y-114736140D01*
X159150920Y-114732530D01*
X159150381Y-114728903D01*
X159149543Y-114725268D01*
X159149139Y-114723892D01*
X159147922Y-114721745D01*
X159143027Y-114715108D01*
X159134804Y-114705299D01*
X159123203Y-114692262D01*
X159089658Y-114656274D01*
X159041979Y-114606690D01*
X158979752Y-114543055D01*
X158902565Y-114464914D01*
X158701654Y-114263299D01*
X158701654Y-114259772D01*
X158530775Y-114087746D01*
X158392629Y-113946797D01*
X158301431Y-113852133D01*
X158277881Y-113826911D01*
X158271399Y-113818962D01*
X158273980Y-113819490D01*
X158278989Y-113821036D01*
X158295755Y-113826952D01*
X158320621Y-113836257D01*
X158352513Y-113848497D01*
X158433075Y-113879959D01*
X158528847Y-113917704D01*
X158682809Y-113976938D01*
X158731562Y-113994632D01*
X158750365Y-114000842D01*
X158766016Y-114005425D01*
X158778940Y-114008479D01*
X158789560Y-114010102D01*
X158798299Y-114010392D01*
X158805581Y-114009447D01*
X158811830Y-114007366D01*
X158817470Y-114004247D01*
X158828615Y-113995286D01*
X158830547Y-113993593D01*
X158832376Y-113991820D01*
X158834101Y-113989973D01*
X158835723Y-113988054D01*
X158837242Y-113986069D01*
X158838658Y-113984020D01*
X158839970Y-113981912D01*
X158841179Y-113979748D01*
X158842284Y-113977532D01*
X158843287Y-113975269D01*
X158844185Y-113972962D01*
X158844981Y-113970615D01*
X158845673Y-113968231D01*
X158846262Y-113965816D01*
X158846748Y-113963372D01*
X158847130Y-113960903D01*
X158847409Y-113958414D01*
X158847585Y-113955908D01*
X158847657Y-113953389D01*
X158847626Y-113950861D01*
X158847492Y-113948328D01*
X158847254Y-113945793D01*
X158846913Y-113943262D01*
X158846469Y-113940736D01*
X158845921Y-113938221D01*
X158845270Y-113935720D01*
X158844516Y-113933237D01*
X158843658Y-113930777D01*
X158842698Y-113928342D01*
X158841633Y-113925936D01*
X158840466Y-113923565D01*
X158839195Y-113921230D01*
X158835000Y-113913316D01*
X158833882Y-113911572D01*
X158832539Y-113909832D01*
X158830871Y-113908052D01*
X158828780Y-113906188D01*
X158826168Y-113904194D01*
X158822935Y-113902027D01*
X158818983Y-113899641D01*
X158814212Y-113896993D01*
X158808525Y-113894037D01*
X158801821Y-113890729D01*
X158794003Y-113887025D01*
X158784972Y-113882880D01*
X158774629Y-113878249D01*
X158762875Y-113873088D01*
X158749610Y-113867353D01*
X158734738Y-113860998D01*
X158699771Y-113846252D01*
X158657185Y-113828495D01*
X158606188Y-113807370D01*
X158545991Y-113782520D01*
X158394833Y-113720221D01*
X158107739Y-113600321D01*
X157957524Y-113538607D01*
X157917422Y-113522958D01*
X157891950Y-113513922D01*
X157858777Y-113505106D01*
X157846281Y-113502048D01*
X157832699Y-113499485D01*
X157818188Y-113497419D01*
X157802901Y-113495849D01*
X157786995Y-113494774D01*
X157770624Y-113494196D01*
X157753943Y-113494113D01*
X157737107Y-113494526D01*
X157720271Y-113495435D01*
X157703590Y-113496840D01*
X157687218Y-113498741D01*
X157671312Y-113501138D01*
X157656026Y-113504031D01*
X157641514Y-113507420D01*
X157627933Y-113511305D01*
X157615436Y-113515685D01*
X157590446Y-113524913D01*
X157566404Y-113535371D01*
X157543328Y-113547008D01*
X157521235Y-113559773D01*
X157500146Y-113573615D01*
X157480076Y-113588483D01*
X157461045Y-113604327D01*
X157443070Y-113621094D01*
X157426170Y-113638734D01*
X157410362Y-113657196D01*
X157395665Y-113676430D01*
X157382097Y-113696383D01*
X157369676Y-113717005D01*
X157358419Y-113738245D01*
X157348346Y-113760052D01*
X157339474Y-113782375D01*
X157331821Y-113805163D01*
X157325405Y-113828365D01*
X157320244Y-113851930D01*
X157316357Y-113875806D01*
X157313762Y-113899944D01*
X157312476Y-113924291D01*
X157192266Y-113924291D01*
X157192455Y-113878912D01*
X157192979Y-113858911D01*
X157193998Y-113841884D01*
X157194745Y-113834177D01*
X157195679Y-113826842D01*
X157196819Y-113819754D01*
X157198186Y-113812791D01*
X157199801Y-113805828D01*
X157201685Y-113798740D01*
X157206342Y-113783697D01*
X157212652Y-113762717D01*
X157219672Y-113742101D01*
X157235781Y-113702024D01*
X157254556Y-113663578D01*
X157275883Y-113626879D01*
X157299649Y-113592040D01*
X157325739Y-113559174D01*
X157354040Y-113528394D01*
X157384439Y-113499816D01*
X157416822Y-113473551D01*
X157451074Y-113449715D01*
X157487083Y-113428420D01*
X157505711Y-113418761D01*
X157524735Y-113409780D01*
X157544142Y-113401492D01*
X157563916Y-113393910D01*
X157584044Y-113387048D01*
X157604512Y-113380921D01*
X157625306Y-113375543D01*
X157646411Y-113370929D01*
X157667813Y-113367092D01*
X157689497Y-113364046D01*
X157710010Y-113361732D01*
X157727299Y-113360079D01*
X157742439Y-113359087D01*
X157749539Y-113358839D01*
X157756504Y-113358757D01*
X157763470Y-113358839D01*
X157770570Y-113359087D01*
X157785709Y-113360079D01*
X157802998Y-113361732D01*
X157823511Y-113364046D01*
X157827677Y-113364167D01*
X157832204Y-113364515D01*
X157837041Y-113365069D01*
X157842136Y-113365810D01*
X157852896Y-113367766D01*
X157864068Y-113370218D01*
X157875240Y-113373000D01*
X157885999Y-113375948D01*
X157895932Y-113378896D01*
X157904625Y-113381679D01*
X158080849Y-113450610D01*
X158412467Y-113586655D01*
X158738795Y-113723362D01*
X158849761Y-113771196D01*
X158899149Y-113794277D01*
X158908156Y-113801174D01*
X158916651Y-113808624D01*
X158924620Y-113816601D01*
X158932046Y-113825078D01*
X158938914Y-113834032D01*
X158945209Y-113843434D01*
X158950915Y-113853260D01*
X158956017Y-113863484D01*
X158960498Y-113874080D01*
X158964344Y-113885022D01*
X158967539Y-113896284D01*
X158970068Y-113907841D01*
X158971915Y-113919666D01*
X158973064Y-113931734D01*
X158973501Y-113944019D01*
X158973209Y-113956495D01*
X158972373Y-113965348D01*
X158971192Y-113974049D01*
X158969671Y-113982591D01*
X158967816Y-113990968D01*
X158965633Y-113999171D01*
X158963128Y-114007194D01*
X158960306Y-114015030D01*
X158957174Y-114022672D01*
X158953737Y-114030112D01*
X158950001Y-114037343D01*
X158945972Y-114044359D01*
X158941655Y-114051152D01*
X158937057Y-114057715D01*
X158932183Y-114064041D01*
X158927039Y-114070124D01*
X158921631Y-114075954D01*
X158915965Y-114081527D01*
X158910047Y-114086834D01*
X158903881Y-114091869D01*
X158897475Y-114096624D01*
X158890834Y-114101093D01*
X158883963Y-114105267D01*
X158876869Y-114109141D01*
X158869558Y-114112707D01*
X158862034Y-114115958D01*
X158854305Y-114118886D01*
X158846376Y-114121485D01*
X158838252Y-114123748D01*
X158829939Y-114125667D01*
X158821444Y-114127236D01*
X158812772Y-114128446D01*
X158803929Y-114129292D01*
X158765135Y-114129292D01*
X158909729Y-114277405D01*
X158992055Y-114359395D01*
X159018216Y-114384769D01*
X159036690Y-114401713D01*
X159043586Y-114407488D01*
X159049212Y-114411714D01*
X159053784Y-114414576D01*
X159057519Y-114416260D01*
X159060634Y-114416952D01*
X159063346Y-114416838D01*
X159065873Y-114416105D01*
X159068430Y-114414937D01*
X159077447Y-114409231D01*
X159086015Y-114404000D01*
X159094180Y-114399223D01*
X159101988Y-114394881D01*
X159109487Y-114390951D01*
X159116722Y-114387414D01*
X159123740Y-114384249D01*
X159130588Y-114381436D01*
X159137311Y-114378953D01*
X159143957Y-114376780D01*
X159150572Y-114374896D01*
X159157203Y-114373281D01*
X159163896Y-114371914D01*
X159170697Y-114370774D01*
X159177653Y-114369840D01*
X159184810Y-114369093D01*
X159196329Y-114368028D01*
X159207196Y-114367516D01*
X159217589Y-114367613D01*
X159227681Y-114368377D01*
X159232670Y-114369026D01*
X159237650Y-114369864D01*
X159242643Y-114370896D01*
X159247671Y-114372131D01*
X159252755Y-114373574D01*
X159257918Y-114375234D01*
X159268569Y-114379232D01*
X159279798Y-114384180D01*
X159291782Y-114390135D01*
X159304695Y-114397154D01*
X159318714Y-114405295D01*
X159334014Y-114414613D01*
X159350771Y-114425166D01*
X159389358Y-114450202D01*
X159425988Y-114474812D01*
X159454932Y-114493677D01*
X159467012Y-114501227D01*
X159477759Y-114507666D01*
X159487370Y-114513103D01*
X159496040Y-114517646D01*
X159503966Y-114521404D01*
X159511345Y-114524486D01*
X159518373Y-114526999D01*
X159525245Y-114529052D01*
X159532159Y-114530754D01*
X159539311Y-114532214D01*
X159555112Y-114534838D01*
X159564953Y-114535911D01*
X159574660Y-114536484D01*
X159584264Y-114536550D01*
X159593795Y-114536105D01*
X159603285Y-114535143D01*
X159612765Y-114533660D01*
X159622265Y-114531650D01*
X159631817Y-114529107D01*
X159641452Y-114526028D01*
X159651200Y-114522405D01*
X159661093Y-114518236D01*
X159671162Y-114513514D01*
X159681437Y-114508233D01*
X159691950Y-114502390D01*
X159702731Y-114495978D01*
X159713813Y-114488994D01*
X159734532Y-114475990D01*
X159744065Y-114469901D01*
X159752606Y-114464308D01*
X159759825Y-114459377D01*
X159765390Y-114455272D01*
X159767450Y-114453581D01*
X159768972Y-114452158D01*
X159769916Y-114451025D01*
X159770158Y-114450574D01*
X159770239Y-114450202D01*
X159781260Y-114416260D01*
X159792557Y-114380279D01*
X159798928Y-114359416D01*
X159805506Y-114337355D01*
X159817960Y-114293715D01*
X159828430Y-114255364D01*
X159836255Y-114226271D01*
X159840773Y-114210402D01*
X159841486Y-114208759D01*
X159842299Y-114207139D01*
X159843210Y-114205544D01*
X159844217Y-114203975D01*
X159845317Y-114202435D01*
X159846508Y-114200925D01*
X159847786Y-114199447D01*
X159849149Y-114198004D01*
X159850595Y-114196596D01*
X159852121Y-114195227D01*
X159853725Y-114193898D01*
X159855404Y-114192611D01*
X159857154Y-114191367D01*
X159858975Y-114190170D01*
X159860863Y-114189020D01*
X159862815Y-114187920D01*
X159864829Y-114186872D01*
X159866903Y-114185877D01*
X159869034Y-114184938D01*
X159871219Y-114184056D01*
X159873455Y-114183234D01*
X159875741Y-114182473D01*
X159878073Y-114181775D01*
X159880448Y-114181143D01*
X159882866Y-114180578D01*
X159885322Y-114180081D01*
X159887814Y-114179656D01*
X159890340Y-114179304D01*
X159892896Y-114179027D01*
X159895482Y-114178826D01*
X159898093Y-114178704D01*
X159900727Y-114178663D01*
X159903071Y-114178755D01*
X159905468Y-114179026D01*
X159907911Y-114179468D01*
X159910391Y-114180075D01*
X159912899Y-114180840D01*
X159915427Y-114181755D01*
X159917966Y-114182813D01*
X159920509Y-114184008D01*
X159925571Y-114186778D01*
X159930545Y-114190007D01*
X159935364Y-114193640D01*
X159939961Y-114197618D01*
X159944269Y-114201886D01*
X159948220Y-114206386D01*
X159951748Y-114211062D01*
X159953331Y-114213448D01*
X159954784Y-114215857D01*
X159956098Y-114218281D01*
X159957263Y-114220713D01*
X159958272Y-114223147D01*
X159959117Y-114225575D01*
X159959788Y-114227990D01*
X159960278Y-114230385D01*
X159960579Y-114232753D01*
X159960680Y-114235087D01*
X159853690Y-114640632D01*
X159771121Y-114953607D01*
G37*
D11*
X111547717Y-55775001D02*
X111547717Y-53718864D01*
X112404440Y-54746932D02*
X111890405Y-55809270D01*
D10*
X156991213Y-114182190D02*
X156993299Y-114182246D01*
X156994741Y-114182190D01*
X156991213Y-114182190D01*
G36*
X156993299Y-114182246D02*
G01*
X156991213Y-114182190D01*
X156994741Y-114182190D01*
X156993299Y-114182246D01*
G37*
X157269821Y-118992308D02*
X159615065Y-118992308D01*
X159615065Y-118350489D01*
X159488104Y-118350489D01*
X159488104Y-118861828D01*
X158976735Y-118861828D01*
X159017272Y-118839891D01*
X159056857Y-118816425D01*
X159095451Y-118791471D01*
X159133011Y-118765071D01*
X159169497Y-118737265D01*
X159204868Y-118708096D01*
X159239080Y-118677604D01*
X159272095Y-118645832D01*
X159303869Y-118612819D01*
X159334363Y-118578608D01*
X159363534Y-118543240D01*
X159391341Y-118506756D01*
X159417743Y-118469198D01*
X159442698Y-118430606D01*
X159466166Y-118391023D01*
X159488104Y-118350489D01*
X159615065Y-118350489D01*
X159615065Y-117817990D01*
X159488104Y-117817990D01*
X159486741Y-117871558D01*
X159482696Y-117924440D01*
X159476036Y-117976569D01*
X159466827Y-118027878D01*
X159455136Y-118078301D01*
X159441029Y-118127772D01*
X159424572Y-118176224D01*
X159405833Y-118223591D01*
X159384878Y-118269805D01*
X159361773Y-118314801D01*
X159336585Y-118358512D01*
X159309380Y-118400872D01*
X159280225Y-118441814D01*
X159249186Y-118481271D01*
X159216330Y-118519177D01*
X159181724Y-118555466D01*
X159145433Y-118590070D01*
X159107525Y-118622924D01*
X159068065Y-118653961D01*
X159027121Y-118683114D01*
X158984759Y-118710318D01*
X158941046Y-118735505D01*
X158896047Y-118758608D01*
X158849830Y-118779562D01*
X158802460Y-118798300D01*
X158754006Y-118814756D01*
X158704532Y-118828862D01*
X158654106Y-118840552D01*
X158602793Y-118849761D01*
X158550662Y-118856421D01*
X158497777Y-118860465D01*
X158444206Y-118861828D01*
X157911677Y-118861828D01*
X157400308Y-118861828D01*
X157400308Y-118350489D01*
X157422247Y-118391023D01*
X157445714Y-118430606D01*
X157470670Y-118469198D01*
X157497072Y-118506756D01*
X157524879Y-118543240D01*
X157554050Y-118578608D01*
X157584543Y-118612819D01*
X157616318Y-118645832D01*
X157649332Y-118677604D01*
X157683545Y-118708096D01*
X157718915Y-118737265D01*
X157755401Y-118765071D01*
X157792962Y-118791471D01*
X157831555Y-118816425D01*
X157871141Y-118839891D01*
X157911677Y-118861828D01*
X158444206Y-118861828D01*
X158390635Y-118860465D01*
X158337750Y-118856421D01*
X158285619Y-118849761D01*
X158234306Y-118840552D01*
X158183880Y-118828862D01*
X158134406Y-118814756D01*
X158085952Y-118798300D01*
X158038583Y-118779562D01*
X157992365Y-118758608D01*
X157947367Y-118735505D01*
X157903653Y-118710318D01*
X157861291Y-118683114D01*
X157820347Y-118653961D01*
X157780888Y-118622924D01*
X157742979Y-118590070D01*
X157706689Y-118555466D01*
X157672082Y-118519177D01*
X157639226Y-118481271D01*
X157608188Y-118441814D01*
X157579033Y-118400872D01*
X157551828Y-118358512D01*
X157526639Y-118314801D01*
X157503534Y-118269805D01*
X157482579Y-118223591D01*
X157463840Y-118176224D01*
X157447384Y-118127772D01*
X157433277Y-118078301D01*
X157421586Y-118027878D01*
X157412377Y-117976569D01*
X157405716Y-117924440D01*
X157401671Y-117871558D01*
X157400308Y-117817990D01*
X157401671Y-117764422D01*
X157405716Y-117711541D01*
X157412377Y-117659412D01*
X157421586Y-117608103D01*
X157433277Y-117557680D01*
X157447384Y-117508209D01*
X157463840Y-117459757D01*
X157482579Y-117412390D01*
X157503534Y-117366176D01*
X157526639Y-117321179D01*
X157551828Y-117277468D01*
X157579033Y-117235109D01*
X157608188Y-117194167D01*
X157639226Y-117154710D01*
X157672082Y-117116804D01*
X157706689Y-117080515D01*
X157742979Y-117045911D01*
X157780888Y-117013057D01*
X157820347Y-116982020D01*
X157861291Y-116952866D01*
X157903653Y-116925663D01*
X157947367Y-116900476D01*
X157992365Y-116877373D01*
X158038583Y-116856419D01*
X158085952Y-116837681D01*
X158134406Y-116821225D01*
X158183880Y-116807119D01*
X158234306Y-116795428D01*
X158285619Y-116786220D01*
X158337750Y-116779560D01*
X158390635Y-116775515D01*
X158444206Y-116774152D01*
X157911677Y-116774152D01*
X157871141Y-116796090D01*
X157831555Y-116819556D01*
X157792962Y-116844510D01*
X157755401Y-116870910D01*
X157718915Y-116898715D01*
X157683545Y-116927885D01*
X157649332Y-116958376D01*
X157616318Y-116990149D01*
X157584543Y-117023162D01*
X157554050Y-117057373D01*
X157524879Y-117092741D01*
X157497072Y-117129225D01*
X157470670Y-117166783D01*
X157445714Y-117205375D01*
X157422247Y-117244958D01*
X157400308Y-117285492D01*
X157400308Y-116774152D01*
X157911677Y-116774152D01*
X158444206Y-116774152D01*
X158497777Y-116775515D01*
X158550662Y-116779560D01*
X158602793Y-116786220D01*
X158654106Y-116795428D01*
X158704532Y-116807119D01*
X158754006Y-116821225D01*
X158802460Y-116837681D01*
X158849830Y-116856419D01*
X158896047Y-116877373D01*
X158941046Y-116900476D01*
X158984759Y-116925663D01*
X159027121Y-116952866D01*
X159068065Y-116982020D01*
X159107525Y-117013057D01*
X159145433Y-117045911D01*
X159181724Y-117080515D01*
X159216330Y-117116804D01*
X159249186Y-117154710D01*
X159280225Y-117194167D01*
X159309380Y-117235109D01*
X159336585Y-117277468D01*
X159361773Y-117321179D01*
X159384878Y-117366176D01*
X159405833Y-117412390D01*
X159424572Y-117459757D01*
X159441029Y-117508209D01*
X159455136Y-117557680D01*
X159466827Y-117608103D01*
X159476036Y-117659412D01*
X159482696Y-117711541D01*
X159486741Y-117764422D01*
X159488104Y-117817990D01*
X159615065Y-117817990D01*
X159615065Y-117285492D01*
X159488104Y-117285492D01*
X159466166Y-117244958D01*
X159442698Y-117205375D01*
X159417743Y-117166783D01*
X159391341Y-117129225D01*
X159363534Y-117092741D01*
X159334363Y-117057373D01*
X159303869Y-117023162D01*
X159272095Y-116990149D01*
X159239080Y-116958376D01*
X159204868Y-116927885D01*
X159169497Y-116898715D01*
X159133011Y-116870910D01*
X159095451Y-116844510D01*
X159056857Y-116819556D01*
X159017272Y-116796090D01*
X158976735Y-116774152D01*
X159488104Y-116774152D01*
X159488104Y-117285492D01*
X159615065Y-117285492D01*
X159615065Y-116647199D01*
X157269821Y-116647199D01*
X157269821Y-118992308D01*
G36*
X159615065Y-117817990D02*
G01*
X159615065Y-118350489D01*
X159615065Y-118992308D01*
X157269821Y-118992308D01*
X157269821Y-118861828D01*
X157400308Y-118861828D01*
X157911677Y-118861828D01*
X157871141Y-118839891D01*
X157831555Y-118816425D01*
X157792962Y-118791471D01*
X157755401Y-118765071D01*
X157718915Y-118737265D01*
X157683545Y-118708096D01*
X157649332Y-118677604D01*
X157616318Y-118645832D01*
X157584543Y-118612819D01*
X157554050Y-118578608D01*
X157524879Y-118543240D01*
X157497072Y-118506756D01*
X157470670Y-118469198D01*
X157445714Y-118430606D01*
X157422247Y-118391023D01*
X157400308Y-118350489D01*
X157400308Y-118861828D01*
X157269821Y-118861828D01*
X157269821Y-117817990D01*
X157400308Y-117817990D01*
X157401671Y-117871558D01*
X157405716Y-117924440D01*
X157412377Y-117976569D01*
X157421586Y-118027878D01*
X157433277Y-118078301D01*
X157447384Y-118127772D01*
X157463840Y-118176224D01*
X157482579Y-118223591D01*
X157503534Y-118269805D01*
X157526639Y-118314801D01*
X157551828Y-118358512D01*
X157579033Y-118400872D01*
X157608188Y-118441814D01*
X157639226Y-118481271D01*
X157672082Y-118519177D01*
X157706689Y-118555466D01*
X157742979Y-118590070D01*
X157780888Y-118622924D01*
X157820347Y-118653961D01*
X157861291Y-118683114D01*
X157903653Y-118710318D01*
X157947367Y-118735505D01*
X157992365Y-118758608D01*
X158038583Y-118779562D01*
X158085952Y-118798300D01*
X158134406Y-118814756D01*
X158183880Y-118828862D01*
X158234306Y-118840552D01*
X158285619Y-118849761D01*
X158337750Y-118856421D01*
X158390635Y-118860465D01*
X158444206Y-118861828D01*
X158976735Y-118861828D01*
X159488104Y-118861828D01*
X159488104Y-118350489D01*
X159466166Y-118391023D01*
X159442698Y-118430606D01*
X159417743Y-118469198D01*
X159391341Y-118506756D01*
X159363534Y-118543240D01*
X159334363Y-118578608D01*
X159303869Y-118612819D01*
X159272095Y-118645832D01*
X159239080Y-118677604D01*
X159204868Y-118708096D01*
X159169497Y-118737265D01*
X159133011Y-118765071D01*
X159095451Y-118791471D01*
X159056857Y-118816425D01*
X159017272Y-118839891D01*
X158976735Y-118861828D01*
X158444206Y-118861828D01*
X158497777Y-118860465D01*
X158550662Y-118856421D01*
X158602793Y-118849761D01*
X158654106Y-118840552D01*
X158704532Y-118828862D01*
X158754006Y-118814756D01*
X158802460Y-118798300D01*
X158849830Y-118779562D01*
X158896047Y-118758608D01*
X158941046Y-118735505D01*
X158984759Y-118710318D01*
X159027121Y-118683114D01*
X159068065Y-118653961D01*
X159107525Y-118622924D01*
X159145433Y-118590070D01*
X159181724Y-118555466D01*
X159216330Y-118519177D01*
X159249186Y-118481271D01*
X159280225Y-118441814D01*
X159309380Y-118400872D01*
X159336585Y-118358512D01*
X159361773Y-118314801D01*
X159384878Y-118269805D01*
X159405833Y-118223591D01*
X159424572Y-118176224D01*
X159441029Y-118127772D01*
X159455136Y-118078301D01*
X159466827Y-118027878D01*
X159476036Y-117976569D01*
X159482696Y-117924440D01*
X159486741Y-117871558D01*
X159488104Y-117817990D01*
X159486741Y-117764422D01*
X159482696Y-117711541D01*
X159476036Y-117659412D01*
X159466827Y-117608103D01*
X159455136Y-117557680D01*
X159441029Y-117508209D01*
X159424572Y-117459757D01*
X159405833Y-117412390D01*
X159384878Y-117366176D01*
X159361773Y-117321179D01*
X159336585Y-117277468D01*
X159309380Y-117235109D01*
X159280225Y-117194167D01*
X159249186Y-117154710D01*
X159216330Y-117116804D01*
X159181724Y-117080515D01*
X159145433Y-117045911D01*
X159107525Y-117013057D01*
X159068065Y-116982020D01*
X159027121Y-116952866D01*
X158984759Y-116925663D01*
X158941046Y-116900476D01*
X158896047Y-116877373D01*
X158849830Y-116856419D01*
X158802460Y-116837681D01*
X158754006Y-116821225D01*
X158704532Y-116807119D01*
X158654106Y-116795428D01*
X158602793Y-116786220D01*
X158550662Y-116779560D01*
X158497777Y-116775515D01*
X158444206Y-116774152D01*
X158976735Y-116774152D01*
X159017272Y-116796090D01*
X159056857Y-116819556D01*
X159095451Y-116844510D01*
X159133011Y-116870910D01*
X159169497Y-116898715D01*
X159204868Y-116927885D01*
X159239080Y-116958376D01*
X159272095Y-116990149D01*
X159303869Y-117023162D01*
X159334363Y-117057373D01*
X159363534Y-117092741D01*
X159391341Y-117129225D01*
X159417743Y-117166783D01*
X159442698Y-117205375D01*
X159466166Y-117244958D01*
X159488104Y-117285492D01*
X159488104Y-116774152D01*
X158976735Y-116774152D01*
X158444206Y-116774152D01*
X158390635Y-116775515D01*
X158337750Y-116779560D01*
X158285619Y-116786220D01*
X158234306Y-116795428D01*
X158183880Y-116807119D01*
X158134406Y-116821225D01*
X158085952Y-116837681D01*
X158038583Y-116856419D01*
X157992365Y-116877373D01*
X157947367Y-116900476D01*
X157903653Y-116925663D01*
X157861291Y-116952866D01*
X157820347Y-116982020D01*
X157780888Y-117013057D01*
X157742979Y-117045911D01*
X157706689Y-117080515D01*
X157672082Y-117116804D01*
X157639226Y-117154710D01*
X157608188Y-117194167D01*
X157579033Y-117235109D01*
X157551828Y-117277468D01*
X157526639Y-117321179D01*
X157503534Y-117366176D01*
X157482579Y-117412390D01*
X157463840Y-117459757D01*
X157447384Y-117508209D01*
X157433277Y-117557680D01*
X157421586Y-117608103D01*
X157412377Y-117659412D01*
X157405716Y-117711541D01*
X157401671Y-117764422D01*
X157400308Y-117817990D01*
X157269821Y-117817990D01*
X157269821Y-117285492D01*
X157400308Y-117285492D01*
X157422247Y-117244958D01*
X157445714Y-117205375D01*
X157470670Y-117166783D01*
X157497072Y-117129225D01*
X157524879Y-117092741D01*
X157554050Y-117057373D01*
X157584543Y-117023162D01*
X157616318Y-116990149D01*
X157649332Y-116958376D01*
X157683545Y-116927885D01*
X157718915Y-116898715D01*
X157755401Y-116870910D01*
X157792962Y-116844510D01*
X157831555Y-116819556D01*
X157871141Y-116796090D01*
X157911677Y-116774152D01*
X157400308Y-116774152D01*
X157400308Y-117285492D01*
X157269821Y-117285492D01*
X157269821Y-116647199D01*
X159615065Y-116647199D01*
X159615065Y-117285492D01*
X159615065Y-117817990D01*
G37*
D11*
X112918475Y-55809270D02*
X112918475Y-53718864D01*
X108771932Y-54746932D02*
X108771972Y-54756090D01*
X108772092Y-54765239D01*
X108772291Y-54774378D01*
X108772570Y-54783507D01*
X108772929Y-54792626D01*
X108773368Y-54801733D01*
X108773885Y-54810830D01*
X108774483Y-54819915D01*
X108775159Y-54828988D01*
X108775915Y-54838048D01*
X108776749Y-54847096D01*
X108777663Y-54856131D01*
X108778656Y-54865153D01*
X108779727Y-54874160D01*
X108780877Y-54883154D01*
X108782106Y-54892132D01*
X108783414Y-54901096D01*
X108784800Y-54910044D01*
X108786264Y-54918976D01*
X108787807Y-54927892D01*
X108789428Y-54936791D01*
X108791127Y-54945673D01*
X108792903Y-54954537D01*
X108794758Y-54963383D01*
X108796691Y-54972210D01*
X108798701Y-54981019D01*
X108800788Y-54989807D01*
X108802953Y-54998576D01*
X108805195Y-55007324D01*
X108807515Y-55016051D01*
X108809911Y-55024756D01*
X108812384Y-55033440D01*
X108814934Y-55042101D01*
X108817560Y-55050739D01*
X108820263Y-55059353D01*
X108823042Y-55067943D01*
X108825896Y-55076508D01*
X108828827Y-55085049D01*
X108831833Y-55093563D01*
X108834915Y-55102052D01*
X108838073Y-55110513D01*
X108841305Y-55118947D01*
X108844612Y-55127353D01*
X108847994Y-55135731D01*
X108851450Y-55144080D01*
X108854980Y-55152398D01*
X108858585Y-55160687D01*
X108862263Y-55168945D01*
X108866015Y-55177171D01*
X108869840Y-55185365D01*
X108873738Y-55193527D01*
X108877709Y-55201656D01*
X108881752Y-55209750D01*
X108885867Y-55217810D01*
X108890054Y-55225836D01*
X108894313Y-55233825D01*
X108898643Y-55241778D01*
X108903044Y-55249695D01*
X108907516Y-55257574D01*
X108912058Y-55265414D01*
X108916669Y-55273217D01*
X108921351Y-55280979D01*
X108926102Y-55288702D01*
X108930921Y-55296384D01*
X108935809Y-55304025D01*
X108940766Y-55311623D01*
X108945790Y-55319180D01*
X108950881Y-55326693D01*
X108956039Y-55334163D01*
X108961264Y-55341588D01*
X108966555Y-55348968D01*
X108971912Y-55356302D01*
X108977334Y-55363591D01*
X108982820Y-55370832D01*
X108988371Y-55378026D01*
X108993986Y-55385171D01*
X108999665Y-55392268D01*
X109005406Y-55399316D01*
X109011210Y-55406314D01*
X109017075Y-55413261D01*
X109023002Y-55420157D01*
X109028991Y-55427001D01*
X109035039Y-55433792D01*
X109041148Y-55440531D01*
X109047316Y-55447216D01*
X109053542Y-55453847D01*
X109059827Y-55460424D01*
X109066170Y-55466945D01*
X109072571Y-55473410D01*
X109075792Y-55476621D01*
X109079027Y-55479818D01*
X109082277Y-55483001D01*
X109085540Y-55486170D01*
X109088818Y-55489324D01*
X109092109Y-55492464D01*
X109095414Y-55495589D01*
X109098732Y-55498700D01*
X109102065Y-55501796D01*
X109105410Y-55504877D01*
X109108769Y-55507944D01*
X109112142Y-55510996D01*
X109115528Y-55514032D01*
X109118927Y-55517054D01*
X109122339Y-55520060D01*
X109125765Y-55523052D01*
X109129203Y-55526028D01*
X109132655Y-55528989D01*
X109136119Y-55531935D01*
X109139596Y-55534865D01*
X109143085Y-55537780D01*
X109146588Y-55540680D01*
X109150102Y-55543563D01*
X109153630Y-55546432D01*
X109157169Y-55549284D01*
X109160722Y-55552121D01*
X109164286Y-55554942D01*
X109167863Y-55557747D01*
X109171451Y-55560536D01*
X109175052Y-55563309D01*
X109178664Y-55566066D01*
X109182289Y-55568807D01*
X109185925Y-55571532D01*
X109189574Y-55574241D01*
X109193233Y-55576933D01*
X109196904Y-55579609D01*
X109200587Y-55582268D01*
X109204281Y-55584912D01*
X109207986Y-55587538D01*
X109211703Y-55590148D01*
X109215431Y-55592742D01*
X109219170Y-55595319D01*
X109222919Y-55597879D01*
X109226681Y-55600422D01*
X109230452Y-55602949D01*
X109234235Y-55605459D01*
X109238028Y-55607951D01*
X109241832Y-55610427D01*
X109245646Y-55612886D01*
X109249471Y-55615328D01*
X109253306Y-55617752D01*
X109257152Y-55620160D01*
X109261007Y-55622550D01*
X109264874Y-55624923D01*
X109268749Y-55627278D01*
X109272636Y-55629617D01*
X109276531Y-55631938D01*
X109280437Y-55634241D01*
X109284352Y-55636527D01*
X109288278Y-55638796D01*
X109292212Y-55641047D01*
X109296157Y-55643280D01*
X109300110Y-55645496D01*
X109304074Y-55647694D01*
X109308045Y-55649874D01*
X109312028Y-55652037D01*
X109316018Y-55654181D01*
X109320018Y-55656308D01*
X109324026Y-55658417D01*
X109328045Y-55660508D01*
X109332070Y-55662581D01*
X109336106Y-55664636D01*
X109340150Y-55666673D01*
X109344203Y-55668692D01*
X109348263Y-55670693D01*
X109352333Y-55672676D01*
X109356410Y-55674640D01*
X109360497Y-55676587D01*
X109364591Y-55678514D01*
X109368694Y-55680424D01*
X109372804Y-55682315D01*
X109376923Y-55684189D01*
X109381049Y-55686043D01*
X109385184Y-55687880D01*
X109389326Y-55689697D01*
X109393476Y-55691497D01*
X109397633Y-55693277D01*
X109401799Y-55695040D01*
X109405970Y-55696783D01*
X109410151Y-55698508D01*
X109414337Y-55700214D01*
X109418533Y-55701903D01*
X109422733Y-55703571D01*
X109426943Y-55705222D01*
X109431158Y-55706853D01*
X109435382Y-55708467D01*
X109439610Y-55710060D01*
X109443848Y-55711636D01*
X109448090Y-55713192D01*
X109452341Y-55714730D01*
X109456597Y-55716248D01*
X109460861Y-55717748D01*
X109465129Y-55719229D01*
X109469406Y-55720691D01*
X109473688Y-55722133D01*
X109477977Y-55723558D01*
X109482271Y-55724962D01*
X109486573Y-55726348D01*
X109490879Y-55727715D01*
X109495193Y-55729062D01*
X109499511Y-55730391D01*
X109503837Y-55731700D01*
X109508167Y-55732990D01*
X109512504Y-55734261D01*
X109516845Y-55735513D01*
X109521194Y-55736746D01*
X109525547Y-55737959D01*
X109529906Y-55739153D01*
X109534269Y-55740328D01*
X109538640Y-55741483D01*
X109543014Y-55742619D01*
X109547395Y-55743736D01*
X109551779Y-55744834D01*
X109556171Y-55745912D01*
X109560565Y-55746971D01*
X109564966Y-55748010D01*
X109569371Y-55749030D01*
X109573782Y-55750031D01*
X109578196Y-55751012D01*
X109582617Y-55751974D01*
X109587040Y-55752916D01*
X109591470Y-55753839D01*
X109595903Y-55754741D01*
X109600342Y-55755625D01*
X109604783Y-55756489D01*
X109609231Y-55757334D01*
X109613682Y-55758159D01*
X109618138Y-55758965D01*
X109622597Y-55759750D01*
X109627062Y-55760517D01*
X109631529Y-55761263D01*
X109636002Y-55761991D01*
X109640477Y-55762698D01*
X109644959Y-55763386D01*
X109649441Y-55764054D01*
X109653931Y-55764703D01*
X109658421Y-55765331D01*
X109662918Y-55765940D01*
X109667415Y-55766530D01*
X109671919Y-55767099D01*
X109676424Y-55767649D01*
X109680935Y-55768179D01*
X109685447Y-55768690D01*
X109689965Y-55769181D01*
X109694484Y-55769651D01*
X109699009Y-55770103D01*
X109703534Y-55770534D01*
X109708066Y-55770945D01*
X109712597Y-55771337D01*
X109717135Y-55771709D01*
X109721673Y-55772061D01*
X109726217Y-55772393D01*
X109730761Y-55772705D01*
X109735310Y-55772998D01*
X109739860Y-55773270D01*
X109744415Y-55773523D01*
X109748971Y-55773756D01*
X109753532Y-55773969D01*
X109758093Y-55774161D01*
X109762659Y-55774334D01*
X109767225Y-55774487D01*
X109771797Y-55774621D01*
X109776368Y-55774734D01*
X109780945Y-55774827D01*
X109785521Y-55774900D01*
X109790103Y-55774953D01*
X109794684Y-55774987D01*
X109799270Y-55775000D01*
X109800000Y-55775000D01*
X108497779Y-53753133D02*
X108497779Y-54781201D01*
X107469711Y-53753133D02*
X108497779Y-53753133D01*
X107469711Y-54781201D02*
X107469711Y-53753133D01*
D10*
X162531631Y-116946950D02*
X162492463Y-116912783D01*
X162451709Y-116880408D01*
X162409436Y-116849883D01*
X162365711Y-116821264D01*
X162320602Y-116794608D01*
X162274176Y-116769971D01*
X162226499Y-116747412D01*
X162177640Y-116726985D01*
X162127664Y-116708749D01*
X162076640Y-116692761D01*
X162024635Y-116679076D01*
X161971715Y-116667752D01*
X161917947Y-116658845D01*
X161863400Y-116652413D01*
X161808140Y-116648512D01*
X161752234Y-116647199D01*
X161696367Y-116648512D01*
X161641212Y-116652413D01*
X161586823Y-116658845D01*
X161533249Y-116667752D01*
X161480543Y-116679076D01*
X161428757Y-116692761D01*
X161377942Y-116708750D01*
X161328150Y-116726986D01*
X161279433Y-116747412D01*
X161231842Y-116769971D01*
X161185428Y-116794608D01*
X161140244Y-116821264D01*
X161096342Y-116849883D01*
X161053772Y-116880408D01*
X161012586Y-116912783D01*
X160972837Y-116946950D01*
X160641329Y-116615461D01*
X160549635Y-116707149D01*
X160881144Y-117038638D01*
X160846975Y-117077804D01*
X160814598Y-117118556D01*
X160784071Y-117160826D01*
X160755450Y-117204548D01*
X160728793Y-117249655D01*
X160704155Y-117296078D01*
X160681594Y-117343752D01*
X160661167Y-117392609D01*
X160642930Y-117442581D01*
X160626940Y-117493602D01*
X160613254Y-117545605D01*
X160601930Y-117598522D01*
X160593022Y-117652286D01*
X160586590Y-117706831D01*
X160582689Y-117762088D01*
X160581376Y-117817990D01*
X160582689Y-117873854D01*
X160586590Y-117929006D01*
X160593022Y-117983392D01*
X160601930Y-118036963D01*
X160613254Y-118089665D01*
X160626940Y-118141448D01*
X160642930Y-118192260D01*
X160661167Y-118242050D01*
X160681594Y-118290764D01*
X160704155Y-118338353D01*
X160728793Y-118384764D01*
X160755450Y-118429945D01*
X160784071Y-118473845D01*
X160814598Y-118516413D01*
X160846975Y-118557596D01*
X160881144Y-118597343D01*
X160549635Y-118928831D01*
X160641329Y-119020520D01*
X160972837Y-118689031D01*
X161012005Y-118723198D01*
X161052759Y-118755573D01*
X161095032Y-118786098D01*
X161138757Y-118814717D01*
X161183866Y-118841373D01*
X161230292Y-118866010D01*
X161277968Y-118888569D01*
X161326828Y-118908995D01*
X161376803Y-118927231D01*
X161427827Y-118943220D01*
X161479833Y-118956905D01*
X161532753Y-118968229D01*
X161586520Y-118977136D01*
X161641068Y-118983568D01*
X161696328Y-118987469D01*
X161752234Y-118988782D01*
X161808101Y-118987469D01*
X161863255Y-118983568D01*
X161917645Y-118977136D01*
X161971219Y-118968229D01*
X162023924Y-118956905D01*
X162075711Y-118943220D01*
X162126525Y-118927231D01*
X162176317Y-118908995D01*
X162225035Y-118888569D01*
X162272626Y-118866009D01*
X162319040Y-118841373D01*
X162364223Y-118814717D01*
X162408126Y-118786098D01*
X162450696Y-118755573D01*
X162491881Y-118723198D01*
X162531631Y-118689031D01*
X162863139Y-119020520D01*
X162954832Y-118928831D01*
X162623324Y-118597343D01*
X162439937Y-118597343D01*
X162404898Y-118627006D01*
X162368584Y-118655130D01*
X162331039Y-118681663D01*
X162292312Y-118706553D01*
X162252448Y-118729749D01*
X162211495Y-118751199D01*
X162169497Y-118770851D01*
X162126503Y-118788654D01*
X162082558Y-118804556D01*
X162037709Y-118818505D01*
X161992003Y-118830450D01*
X161945485Y-118840339D01*
X161898203Y-118848121D01*
X161850203Y-118853743D01*
X161801531Y-118857154D01*
X161752234Y-118858302D01*
X161748707Y-118858302D01*
X161699991Y-118857154D01*
X161651751Y-118853743D01*
X161604048Y-118848121D01*
X161556944Y-118840339D01*
X161510501Y-118830450D01*
X161464782Y-118818505D01*
X161419848Y-118804556D01*
X161375761Y-118788654D01*
X161332583Y-118770851D01*
X161290376Y-118751199D01*
X161249203Y-118729749D01*
X161209125Y-118706553D01*
X161170204Y-118681663D01*
X161132502Y-118655130D01*
X161096082Y-118627006D01*
X161061004Y-118597343D01*
X161752234Y-117909679D01*
X162439937Y-118597343D01*
X162623324Y-118597343D01*
X162657493Y-118558177D01*
X162689870Y-118517425D01*
X162720397Y-118475155D01*
X162749017Y-118431433D01*
X162775675Y-118386326D01*
X162800313Y-118339903D01*
X162822874Y-118292229D01*
X162843301Y-118243372D01*
X162861538Y-118193400D01*
X162877528Y-118142378D01*
X162891214Y-118090376D01*
X162902538Y-118037459D01*
X162911445Y-117983695D01*
X162917878Y-117929150D01*
X162921779Y-117873893D01*
X162923092Y-117817991D01*
X162792605Y-117817991D01*
X162791456Y-117866704D01*
X162788045Y-117914941D01*
X162782423Y-117962642D01*
X162774641Y-118009743D01*
X162764751Y-118056183D01*
X162752806Y-118101900D01*
X162738856Y-118146831D01*
X162722953Y-118190916D01*
X162705149Y-118234091D01*
X162685496Y-118276295D01*
X162664045Y-118317466D01*
X162640848Y-118357542D01*
X162615956Y-118396461D01*
X162589421Y-118434160D01*
X162561296Y-118470579D01*
X162531631Y-118505654D01*
X161843927Y-117817991D01*
X161847454Y-117814464D01*
X161660540Y-117814464D01*
X160969310Y-118505654D01*
X160939645Y-118469997D01*
X160911520Y-118433141D01*
X160884985Y-118395128D01*
X160860093Y-118355999D01*
X160836896Y-118315796D01*
X160815445Y-118274560D01*
X160795792Y-118232331D01*
X160777988Y-118189153D01*
X160762085Y-118145065D01*
X160748135Y-118100109D01*
X160736190Y-118054327D01*
X160726300Y-118007759D01*
X160718518Y-117960448D01*
X160712896Y-117912434D01*
X160709485Y-117863759D01*
X160708336Y-117814464D01*
X160708336Y-117810938D01*
X160709485Y-117762225D01*
X160712896Y-117713987D01*
X160718518Y-117666287D01*
X160726300Y-117619185D01*
X160736190Y-117572745D01*
X160748135Y-117527029D01*
X160762085Y-117482097D01*
X160777988Y-117438013D01*
X160795792Y-117394837D01*
X160815445Y-117352633D01*
X160836896Y-117311462D01*
X160860093Y-117271386D01*
X160884985Y-117232468D01*
X160911520Y-117194768D01*
X160939645Y-117158349D01*
X160969310Y-117123274D01*
X161660540Y-117814464D01*
X161847454Y-117814464D01*
X162531631Y-117130327D01*
X162561296Y-117165402D01*
X162589421Y-117201821D01*
X162615956Y-117239521D01*
X162640848Y-117278439D01*
X162664045Y-117318515D01*
X162685496Y-117359686D01*
X162705149Y-117401890D01*
X162722953Y-117445065D01*
X162738856Y-117489150D01*
X162752806Y-117534082D01*
X162764751Y-117579798D01*
X162774641Y-117626238D01*
X162782423Y-117673340D01*
X162788045Y-117721040D01*
X162791456Y-117769278D01*
X162792605Y-117817991D01*
X162923092Y-117817991D01*
X162923092Y-117817990D01*
X162921779Y-117762126D01*
X162917878Y-117706975D01*
X162911445Y-117652589D01*
X162902538Y-117599018D01*
X162891214Y-117546315D01*
X162877528Y-117494532D01*
X162861538Y-117443720D01*
X162843301Y-117393931D01*
X162822874Y-117345216D01*
X162800313Y-117297628D01*
X162775675Y-117251217D01*
X162749017Y-117206036D01*
X162720397Y-117162136D01*
X162689870Y-117119568D01*
X162657493Y-117078385D01*
X162623324Y-117038638D01*
X162626851Y-117035112D01*
X162443464Y-117035112D01*
X161755761Y-117722775D01*
X161064531Y-117035112D01*
X161099570Y-117005448D01*
X161135884Y-116977324D01*
X161173428Y-116950791D01*
X161212156Y-116925901D01*
X161252019Y-116902705D01*
X161292973Y-116881255D01*
X161334970Y-116861603D01*
X161377965Y-116843800D01*
X161421910Y-116827898D01*
X161466759Y-116813949D01*
X161512465Y-116802004D01*
X161558983Y-116792115D01*
X161606265Y-116784334D01*
X161654265Y-116778712D01*
X161702937Y-116775301D01*
X161752234Y-116774152D01*
X161801571Y-116775301D01*
X161850354Y-116778712D01*
X161898528Y-116784334D01*
X161946036Y-116792115D01*
X161992821Y-116802004D01*
X162038825Y-116813949D01*
X162083993Y-116827898D01*
X162128266Y-116843800D01*
X162171590Y-116861603D01*
X162213906Y-116881255D01*
X162255157Y-116902705D01*
X162295288Y-116925901D01*
X162334241Y-116950791D01*
X162371959Y-116977324D01*
X162408385Y-117005448D01*
X162443464Y-117035112D01*
X162626851Y-117035112D01*
X162954832Y-116707149D01*
X162863139Y-116615461D01*
X162531631Y-116946950D01*
G36*
X162623324Y-117038638D02*
G01*
X162657493Y-117078385D01*
X162689870Y-117119568D01*
X162720397Y-117162136D01*
X162749017Y-117206036D01*
X162775675Y-117251217D01*
X162800313Y-117297628D01*
X162822874Y-117345216D01*
X162843301Y-117393931D01*
X162861538Y-117443720D01*
X162877528Y-117494532D01*
X162891214Y-117546315D01*
X162902538Y-117599018D01*
X162911445Y-117652589D01*
X162917878Y-117706975D01*
X162921779Y-117762126D01*
X162923092Y-117817990D01*
X162923092Y-117817991D01*
X162921779Y-117873893D01*
X162917878Y-117929150D01*
X162911445Y-117983695D01*
X162902538Y-118037459D01*
X162891214Y-118090376D01*
X162877528Y-118142378D01*
X162861538Y-118193400D01*
X162843301Y-118243372D01*
X162822874Y-118292229D01*
X162800313Y-118339903D01*
X162775675Y-118386326D01*
X162749017Y-118431433D01*
X162720397Y-118475155D01*
X162689870Y-118517425D01*
X162657493Y-118558177D01*
X162623324Y-118597343D01*
X162954832Y-118928831D01*
X162863139Y-119020520D01*
X162531631Y-118689031D01*
X162491881Y-118723198D01*
X162450696Y-118755573D01*
X162408126Y-118786098D01*
X162364223Y-118814717D01*
X162319040Y-118841373D01*
X162272626Y-118866009D01*
X162225035Y-118888569D01*
X162176317Y-118908995D01*
X162126525Y-118927231D01*
X162075711Y-118943220D01*
X162023924Y-118956905D01*
X161971219Y-118968229D01*
X161917645Y-118977136D01*
X161863255Y-118983568D01*
X161808101Y-118987469D01*
X161752234Y-118988782D01*
X161696328Y-118987469D01*
X161641068Y-118983568D01*
X161586520Y-118977136D01*
X161532753Y-118968229D01*
X161479833Y-118956905D01*
X161427827Y-118943220D01*
X161376803Y-118927231D01*
X161326828Y-118908995D01*
X161277968Y-118888569D01*
X161230292Y-118866010D01*
X161183866Y-118841373D01*
X161138757Y-118814717D01*
X161095032Y-118786098D01*
X161052759Y-118755573D01*
X161012005Y-118723198D01*
X160972837Y-118689031D01*
X160641329Y-119020520D01*
X160549635Y-118928831D01*
X160881144Y-118597343D01*
X161061004Y-118597343D01*
X161096082Y-118627006D01*
X161132502Y-118655130D01*
X161170204Y-118681663D01*
X161209125Y-118706553D01*
X161249203Y-118729749D01*
X161290376Y-118751199D01*
X161332583Y-118770851D01*
X161375761Y-118788654D01*
X161419848Y-118804556D01*
X161464782Y-118818505D01*
X161510501Y-118830450D01*
X161556944Y-118840339D01*
X161604048Y-118848121D01*
X161651751Y-118853743D01*
X161699991Y-118857154D01*
X161748707Y-118858302D01*
X161752234Y-118858302D01*
X161801531Y-118857154D01*
X161850203Y-118853743D01*
X161898203Y-118848121D01*
X161945485Y-118840339D01*
X161992003Y-118830450D01*
X162037709Y-118818505D01*
X162082558Y-118804556D01*
X162126503Y-118788654D01*
X162169497Y-118770851D01*
X162211495Y-118751199D01*
X162252448Y-118729749D01*
X162292312Y-118706553D01*
X162331039Y-118681663D01*
X162368584Y-118655130D01*
X162404898Y-118627006D01*
X162439937Y-118597343D01*
X161752234Y-117909679D01*
X161061004Y-118597343D01*
X160881144Y-118597343D01*
X160846975Y-118557596D01*
X160814598Y-118516413D01*
X160784071Y-118473845D01*
X160755450Y-118429945D01*
X160728793Y-118384764D01*
X160704155Y-118338353D01*
X160681594Y-118290764D01*
X160661167Y-118242050D01*
X160642930Y-118192260D01*
X160626940Y-118141448D01*
X160613254Y-118089665D01*
X160601930Y-118036963D01*
X160593022Y-117983392D01*
X160586590Y-117929006D01*
X160582689Y-117873854D01*
X160581376Y-117817990D01*
X160581542Y-117810938D01*
X160708336Y-117810938D01*
X160708336Y-117814464D01*
X160709485Y-117863759D01*
X160712896Y-117912434D01*
X160718518Y-117960448D01*
X160726300Y-118007759D01*
X160736190Y-118054327D01*
X160748135Y-118100109D01*
X160762085Y-118145065D01*
X160777988Y-118189153D01*
X160795792Y-118232331D01*
X160815445Y-118274560D01*
X160836896Y-118315796D01*
X160860093Y-118355999D01*
X160884985Y-118395128D01*
X160911520Y-118433141D01*
X160939645Y-118469997D01*
X160969310Y-118505654D01*
X161657013Y-117817991D01*
X161843927Y-117817991D01*
X162531631Y-118505654D01*
X162561296Y-118470579D01*
X162589421Y-118434160D01*
X162615956Y-118396461D01*
X162640848Y-118357542D01*
X162664045Y-118317466D01*
X162685496Y-118276295D01*
X162705149Y-118234091D01*
X162722953Y-118190916D01*
X162738856Y-118146831D01*
X162752806Y-118101900D01*
X162764751Y-118056183D01*
X162774641Y-118009743D01*
X162782423Y-117962642D01*
X162788045Y-117914941D01*
X162791456Y-117866704D01*
X162792605Y-117817991D01*
X162791456Y-117769278D01*
X162788045Y-117721040D01*
X162782423Y-117673340D01*
X162774641Y-117626238D01*
X162764751Y-117579798D01*
X162752806Y-117534082D01*
X162738856Y-117489150D01*
X162722953Y-117445065D01*
X162705149Y-117401890D01*
X162685496Y-117359686D01*
X162664045Y-117318515D01*
X162640848Y-117278439D01*
X162615956Y-117239521D01*
X162589421Y-117201821D01*
X162561296Y-117165402D01*
X162531631Y-117130327D01*
X161847454Y-117814464D01*
X161843927Y-117817991D01*
X161657013Y-117817991D01*
X161660540Y-117814464D01*
X160969310Y-117123274D01*
X160939645Y-117158349D01*
X160911520Y-117194768D01*
X160884985Y-117232468D01*
X160860093Y-117271386D01*
X160836896Y-117311462D01*
X160815445Y-117352633D01*
X160795792Y-117394837D01*
X160777988Y-117438013D01*
X160762085Y-117482097D01*
X160748135Y-117527029D01*
X160736190Y-117572745D01*
X160726300Y-117619185D01*
X160718518Y-117666287D01*
X160712896Y-117713987D01*
X160709485Y-117762225D01*
X160708336Y-117810938D01*
X160581542Y-117810938D01*
X160582689Y-117762088D01*
X160586590Y-117706831D01*
X160593022Y-117652286D01*
X160601930Y-117598522D01*
X160613254Y-117545605D01*
X160626940Y-117493602D01*
X160642930Y-117442581D01*
X160661167Y-117392609D01*
X160681594Y-117343752D01*
X160704155Y-117296078D01*
X160728793Y-117249655D01*
X160755450Y-117204548D01*
X160784071Y-117160826D01*
X160814598Y-117118556D01*
X160846975Y-117077804D01*
X160881144Y-117038638D01*
X160877618Y-117035112D01*
X161064531Y-117035112D01*
X161755761Y-117722775D01*
X162443464Y-117035112D01*
X162408385Y-117005448D01*
X162371959Y-116977324D01*
X162334241Y-116950791D01*
X162295288Y-116925901D01*
X162255157Y-116902705D01*
X162213906Y-116881255D01*
X162171590Y-116861603D01*
X162128266Y-116843800D01*
X162083993Y-116827898D01*
X162038825Y-116813949D01*
X161992821Y-116802004D01*
X161946036Y-116792115D01*
X161898528Y-116784334D01*
X161850354Y-116778712D01*
X161801571Y-116775301D01*
X161752234Y-116774152D01*
X161702937Y-116775301D01*
X161654265Y-116778712D01*
X161606265Y-116784334D01*
X161558983Y-116792115D01*
X161512465Y-116802004D01*
X161466759Y-116813949D01*
X161421910Y-116827898D01*
X161377965Y-116843800D01*
X161334970Y-116861603D01*
X161292973Y-116881255D01*
X161252019Y-116902705D01*
X161212156Y-116925901D01*
X161173428Y-116950791D01*
X161135884Y-116977324D01*
X161099570Y-117005448D01*
X161064531Y-117035112D01*
X160877618Y-117035112D01*
X160549635Y-116707149D01*
X160641329Y-116615461D01*
X160972837Y-116946950D01*
X161012586Y-116912783D01*
X161053772Y-116880408D01*
X161096342Y-116849883D01*
X161140244Y-116821264D01*
X161185428Y-116794608D01*
X161231842Y-116769971D01*
X161279433Y-116747412D01*
X161328150Y-116726986D01*
X161377942Y-116708750D01*
X161428757Y-116692761D01*
X161480543Y-116679076D01*
X161533249Y-116667752D01*
X161586823Y-116658845D01*
X161641212Y-116652413D01*
X161696367Y-116648512D01*
X161752234Y-116647199D01*
X161808140Y-116648512D01*
X161863400Y-116652413D01*
X161917947Y-116658845D01*
X161971715Y-116667752D01*
X162024635Y-116679076D01*
X162076640Y-116692761D01*
X162127664Y-116708749D01*
X162177640Y-116726985D01*
X162226499Y-116747412D01*
X162274176Y-116769971D01*
X162320602Y-116794608D01*
X162365711Y-116821264D01*
X162409436Y-116849883D01*
X162451709Y-116880408D01*
X162492463Y-116912783D01*
X162531631Y-116946950D01*
X162863139Y-116615461D01*
X162954832Y-116707149D01*
X162626851Y-117035112D01*
X162623324Y-117038638D01*
G37*
D11*
X107949478Y-54781201D02*
X107435443Y-55809270D01*
X108497779Y-54781201D02*
X108497779Y-55809270D01*
X110828069Y-54746932D02*
X110828029Y-54737774D01*
X110827909Y-54728625D01*
X110827710Y-54719486D01*
X110827431Y-54710357D01*
X110827072Y-54701238D01*
X110826633Y-54692130D01*
X110826116Y-54683034D01*
X110825518Y-54673949D01*
X110824842Y-54664876D01*
X110824087Y-54655815D01*
X110823252Y-54646767D01*
X110822338Y-54637732D01*
X110821345Y-54628711D01*
X110820274Y-54619703D01*
X110819124Y-54610710D01*
X110817895Y-54601731D01*
X110816587Y-54592768D01*
X110815201Y-54583820D01*
X110813737Y-54574887D01*
X110812194Y-54565972D01*
X110810573Y-54557072D01*
X110808874Y-54548191D01*
X110807098Y-54539327D01*
X110805243Y-54530481D01*
X110803310Y-54521653D01*
X110801300Y-54512845D01*
X110799213Y-54504057D01*
X110797048Y-54495288D01*
X110794806Y-54486540D01*
X110792486Y-54477813D01*
X110790090Y-54469107D01*
X110787617Y-54460424D01*
X110785067Y-54451763D01*
X110782441Y-54443125D01*
X110779738Y-54434511D01*
X110776959Y-54425921D01*
X110774105Y-54417355D01*
X110771174Y-54408815D01*
X110768168Y-54400300D01*
X110765086Y-54391812D01*
X110761929Y-54383350D01*
X110758696Y-54374916D01*
X110755389Y-54366510D01*
X110752007Y-54358133D01*
X110748551Y-54349784D01*
X110745021Y-54341465D01*
X110741416Y-54333177D01*
X110737738Y-54324919D01*
X110733986Y-54316692D01*
X110730161Y-54308498D01*
X110726263Y-54300336D01*
X110722293Y-54292208D01*
X110718249Y-54284113D01*
X110714134Y-54276053D01*
X110709947Y-54268028D01*
X110705688Y-54260038D01*
X110701358Y-54252085D01*
X110696957Y-54244169D01*
X110692485Y-54236290D01*
X110687944Y-54228449D01*
X110683332Y-54220647D01*
X110678650Y-54212884D01*
X110673899Y-54205162D01*
X110669080Y-54197480D01*
X110664192Y-54189839D01*
X110659235Y-54182240D01*
X110654211Y-54174684D01*
X110649120Y-54167170D01*
X110643962Y-54159701D01*
X110638737Y-54152276D01*
X110633446Y-54144896D01*
X110628089Y-54137561D01*
X110622667Y-54130273D01*
X110617181Y-54123032D01*
X110611630Y-54115838D01*
X110606015Y-54108692D01*
X110600337Y-54101595D01*
X110594595Y-54094547D01*
X110588792Y-54087550D01*
X110582926Y-54080603D01*
X110576999Y-54073707D01*
X110571011Y-54066863D01*
X110564962Y-54060071D01*
X110558854Y-54053332D01*
X110552686Y-54046647D01*
X110546459Y-54040016D01*
X110540174Y-54033440D01*
X110533831Y-54026919D01*
X110527431Y-54020454D01*
X110524209Y-54017242D01*
X110520974Y-54014045D01*
X110517724Y-54010862D01*
X110514461Y-54007693D01*
X110511183Y-54004539D01*
X110507892Y-54001399D01*
X110504587Y-53998274D01*
X110501269Y-53995163D01*
X110497937Y-53992067D01*
X110494591Y-53988986D01*
X110491232Y-53985920D01*
X110487859Y-53982868D01*
X110484473Y-53979831D01*
X110481074Y-53976810D01*
X110477662Y-53973803D01*
X110474236Y-53970811D01*
X110470798Y-53967835D01*
X110467347Y-53964874D01*
X110463883Y-53961928D01*
X110460406Y-53958998D01*
X110456916Y-53956083D01*
X110453414Y-53953184D01*
X110449899Y-53950300D01*
X110446371Y-53947432D01*
X110442832Y-53944579D01*
X110439279Y-53941742D01*
X110435715Y-53938922D01*
X110432138Y-53936116D01*
X110428550Y-53933327D01*
X110424949Y-53930554D01*
X110421337Y-53927797D01*
X110417712Y-53925056D01*
X110414076Y-53922332D01*
X110410428Y-53919623D01*
X110406768Y-53916931D01*
X110403097Y-53914254D01*
X110399415Y-53911595D01*
X110395720Y-53908952D01*
X110392015Y-53906325D01*
X110388298Y-53903715D01*
X110384571Y-53901122D01*
X110380831Y-53898545D01*
X110377082Y-53895985D01*
X110373320Y-53893441D01*
X110369549Y-53890915D01*
X110365766Y-53888405D01*
X110361973Y-53885912D01*
X110358169Y-53883436D01*
X110354355Y-53880978D01*
X110350530Y-53878536D01*
X110346695Y-53876112D01*
X110342849Y-53873704D01*
X110338994Y-53871314D01*
X110335128Y-53868940D01*
X110331252Y-53866585D01*
X110327366Y-53864246D01*
X110323470Y-53861926D01*
X110319564Y-53859622D01*
X110315649Y-53857336D01*
X110311723Y-53855067D01*
X110307789Y-53852817D01*
X110303844Y-53850583D01*
X110299891Y-53848368D01*
X110295928Y-53846169D01*
X110291956Y-53843989D01*
X110287974Y-53841827D01*
X110283984Y-53839682D01*
X110279983Y-53837555D01*
X110275975Y-53835446D01*
X110271957Y-53833355D01*
X110267931Y-53831282D01*
X110263895Y-53829227D01*
X110259852Y-53827190D01*
X110255798Y-53825171D01*
X110251738Y-53823171D01*
X110247668Y-53821187D01*
X110243591Y-53819223D01*
X110239504Y-53817277D01*
X110235410Y-53815349D01*
X110231307Y-53813439D01*
X110227197Y-53811548D01*
X110223078Y-53809675D01*
X110218952Y-53807820D01*
X110214817Y-53805984D01*
X110210676Y-53804166D01*
X110206525Y-53802367D01*
X110202368Y-53800586D01*
X110198203Y-53798824D01*
X110194031Y-53797080D01*
X110189850Y-53795355D01*
X110185664Y-53793649D01*
X110181469Y-53791961D01*
X110177268Y-53790292D01*
X110173058Y-53788641D01*
X110168843Y-53787010D01*
X110164620Y-53785397D01*
X110160391Y-53783803D01*
X110156153Y-53782227D01*
X110151911Y-53780671D01*
X110147660Y-53779133D01*
X110143405Y-53777615D01*
X110139140Y-53776115D01*
X110134872Y-53774634D01*
X110130595Y-53773172D01*
X110126314Y-53771730D01*
X110122024Y-53770306D01*
X110117730Y-53768901D01*
X110113428Y-53767515D01*
X110109122Y-53766149D01*
X110104808Y-53764801D01*
X110100490Y-53763473D01*
X110096164Y-53762163D01*
X110091834Y-53760873D01*
X110087497Y-53759602D01*
X110083156Y-53758350D01*
X110078807Y-53757118D01*
X110074455Y-53755905D01*
X110070095Y-53754710D01*
X110065732Y-53753536D01*
X110061361Y-53752380D01*
X110056987Y-53751244D01*
X110052606Y-53750127D01*
X110048222Y-53749030D01*
X110043830Y-53747951D01*
X110039436Y-53746893D01*
X110035035Y-53745853D01*
X110030631Y-53744833D01*
X110026219Y-53743832D01*
X110021805Y-53742851D01*
X110017384Y-53741890D01*
X110012961Y-53740948D01*
X110008531Y-53740025D01*
X110004099Y-53739122D01*
X109999659Y-53738238D01*
X109995218Y-53737374D01*
X109990770Y-53736529D01*
X109986320Y-53735704D01*
X109981863Y-53734898D01*
X109977404Y-53734113D01*
X109972939Y-53733346D01*
X109968472Y-53732600D01*
X109963999Y-53731872D01*
X109959524Y-53731165D01*
X109955042Y-53730477D01*
X109950560Y-53729809D01*
X109946071Y-53729161D01*
X109941580Y-53728532D01*
X109937084Y-53727923D01*
X109932586Y-53727334D01*
X109928082Y-53726764D01*
X109923577Y-53726214D01*
X109919066Y-53725684D01*
X109914554Y-53725173D01*
X109910036Y-53724683D01*
X109905517Y-53724212D01*
X109900992Y-53723761D01*
X109896467Y-53723329D01*
X109891936Y-53722918D01*
X109887404Y-53722526D01*
X109882866Y-53722154D01*
X109878328Y-53721802D01*
X109873784Y-53721470D01*
X109869240Y-53721158D01*
X109864691Y-53720865D01*
X109860141Y-53720593D01*
X109855586Y-53720340D01*
X109851030Y-53720107D01*
X109846469Y-53719894D01*
X109841908Y-53719702D01*
X109837342Y-53719529D01*
X109832775Y-53719376D01*
X109828204Y-53719242D01*
X109823633Y-53719129D01*
X109819056Y-53719036D01*
X109814480Y-53718963D01*
X109809898Y-53718910D01*
X109805317Y-53718876D01*
X109800731Y-53718863D01*
X109800000Y-53718863D01*
X108771932Y-54746932D02*
X108771932Y-54746932D01*
X111890406Y-53718864D02*
X112918475Y-55809270D01*
D10*
X160549635Y-113635585D02*
X160747129Y-113833068D01*
X160727093Y-113848185D01*
X160708012Y-113864407D01*
X160689934Y-113881683D01*
X160672904Y-113899961D01*
X160656969Y-113919190D01*
X160642176Y-113939317D01*
X160628571Y-113960292D01*
X160616201Y-113982062D01*
X160605112Y-114004576D01*
X160595351Y-114027782D01*
X160586964Y-114051629D01*
X160579998Y-114076065D01*
X160574498Y-114101038D01*
X160570513Y-114126496D01*
X160568087Y-114152389D01*
X160567269Y-114178663D01*
X160567269Y-115553990D01*
X160849403Y-115553990D01*
X160546109Y-115857268D01*
X160637802Y-115948956D01*
X161032791Y-115553990D01*
X161776921Y-115553990D01*
X161776921Y-115423511D01*
X161163278Y-115423511D01*
X161752234Y-114834589D01*
X162341190Y-115423511D01*
X161783974Y-115423511D01*
X161783974Y-115553990D01*
X162471677Y-115553990D01*
X162866665Y-115948956D01*
X162958359Y-115857268D01*
X162655064Y-115553990D01*
X163014786Y-115553990D01*
X163014786Y-115490514D01*
X163013668Y-115441850D01*
X163012645Y-115427037D01*
X162884299Y-115427037D01*
X162528104Y-115427037D01*
X161847454Y-114746427D01*
X161850981Y-114742900D01*
X161657014Y-114742900D01*
X160979891Y-115423511D01*
X160697756Y-115423511D01*
X160697756Y-114573629D01*
X161487733Y-114573629D01*
X161484206Y-114570103D01*
X161657014Y-114742900D01*
X161850981Y-114742900D01*
X162016735Y-114577155D01*
X162059781Y-114580144D01*
X162102264Y-114585111D01*
X162144137Y-114592010D01*
X162185355Y-114600794D01*
X162225869Y-114611417D01*
X162265635Y-114623833D01*
X162304605Y-114637995D01*
X162342733Y-114653856D01*
X162379972Y-114671371D01*
X162416276Y-114690492D01*
X162451599Y-114711173D01*
X162485894Y-114733368D01*
X162519114Y-114757029D01*
X162551213Y-114782112D01*
X162582145Y-114808568D01*
X162611863Y-114836352D01*
X162640320Y-114865417D01*
X162667470Y-114895717D01*
X162693266Y-114927204D01*
X162717663Y-114959834D01*
X162740613Y-114993558D01*
X162762070Y-115028331D01*
X162781988Y-115064107D01*
X162800320Y-115100838D01*
X162817019Y-115138478D01*
X162832039Y-115176981D01*
X162845334Y-115216300D01*
X162856857Y-115256389D01*
X162866561Y-115297201D01*
X162874401Y-115338689D01*
X162880329Y-115380808D01*
X162884299Y-115423511D01*
X162884299Y-115427037D01*
X163012645Y-115427037D01*
X163010348Y-115393753D01*
X163004874Y-115346270D01*
X162997297Y-115299450D01*
X162987667Y-115253344D01*
X162976033Y-115207999D01*
X162962445Y-115163466D01*
X162946952Y-115119793D01*
X162929605Y-115077029D01*
X162910454Y-115035223D01*
X162889546Y-114994424D01*
X162866934Y-114954682D01*
X162842666Y-114916045D01*
X162816792Y-114878563D01*
X162789361Y-114842284D01*
X162760424Y-114807258D01*
X162730030Y-114773534D01*
X162698229Y-114741161D01*
X162665071Y-114710188D01*
X162630605Y-114680663D01*
X162594881Y-114652637D01*
X162557949Y-114626158D01*
X162519858Y-114601275D01*
X162480659Y-114578037D01*
X162472422Y-114573629D01*
X161833348Y-114573629D01*
X161752234Y-114654738D01*
X161671120Y-114573629D01*
X161833348Y-114573629D01*
X162472422Y-114573629D01*
X162440401Y-114556494D01*
X162399133Y-114536694D01*
X162356906Y-114518687D01*
X162313768Y-114502521D01*
X162269771Y-114488246D01*
X162224963Y-114475910D01*
X162179395Y-114465564D01*
X162133116Y-114457255D01*
X162143741Y-114446676D01*
X161360772Y-114446676D01*
X160701283Y-114446676D01*
X160701283Y-114182190D01*
X160701447Y-114171993D01*
X160701937Y-114161904D01*
X160702747Y-114151926D01*
X160703873Y-114142062D01*
X160705308Y-114132318D01*
X160707048Y-114122696D01*
X160709088Y-114113201D01*
X160711422Y-114103836D01*
X160714045Y-114094605D01*
X160716953Y-114085513D01*
X160720140Y-114076563D01*
X160723600Y-114067758D01*
X160727329Y-114059104D01*
X160731322Y-114050603D01*
X160735572Y-114042260D01*
X160740076Y-114034078D01*
X160744828Y-114026061D01*
X160749823Y-114018214D01*
X160755055Y-114010539D01*
X160760520Y-114003042D01*
X160772126Y-113988593D01*
X160784601Y-113974899D01*
X160797901Y-113961990D01*
X160811988Y-113949897D01*
X160826817Y-113938651D01*
X160842350Y-113928283D01*
X161360772Y-114446676D01*
X162143741Y-114446676D01*
X162958359Y-113635585D01*
X162866665Y-113543897D01*
X161963835Y-114443149D01*
X161544160Y-114443149D01*
X160983417Y-113882439D01*
X162284763Y-113882439D01*
X162284763Y-113751959D01*
X160997524Y-113751959D01*
X160988969Y-113752042D01*
X160980496Y-113752290D01*
X160972107Y-113752703D01*
X160963800Y-113753282D01*
X160955576Y-113754026D01*
X160947434Y-113754935D01*
X160939375Y-113756009D01*
X160931399Y-113757249D01*
X160923505Y-113758654D01*
X160915694Y-113760224D01*
X160907965Y-113761960D01*
X160900320Y-113763861D01*
X160892757Y-113765927D01*
X160885276Y-113768159D01*
X160877878Y-113770556D01*
X160870563Y-113773118D01*
X160641329Y-113543897D01*
X160549635Y-113635585D01*
G36*
X162133116Y-114457255D02*
G01*
X162179395Y-114465564D01*
X162224963Y-114475910D01*
X162269771Y-114488246D01*
X162313768Y-114502521D01*
X162356906Y-114518687D01*
X162399133Y-114536694D01*
X162440401Y-114556494D01*
X162472422Y-114573629D01*
X162480659Y-114578037D01*
X162519858Y-114601275D01*
X162557949Y-114626158D01*
X162594881Y-114652637D01*
X162630605Y-114680663D01*
X162665071Y-114710188D01*
X162698229Y-114741161D01*
X162730030Y-114773534D01*
X162760424Y-114807258D01*
X162789361Y-114842284D01*
X162816792Y-114878563D01*
X162842666Y-114916045D01*
X162866934Y-114954682D01*
X162889546Y-114994424D01*
X162910454Y-115035223D01*
X162929605Y-115077029D01*
X162946952Y-115119793D01*
X162962445Y-115163466D01*
X162976033Y-115207999D01*
X162987667Y-115253344D01*
X162997297Y-115299450D01*
X163004874Y-115346270D01*
X163010348Y-115393753D01*
X163012645Y-115427037D01*
X163013668Y-115441850D01*
X163014786Y-115490514D01*
X163014786Y-115553990D01*
X162655064Y-115553990D01*
X162958359Y-115857268D01*
X162866665Y-115948956D01*
X162471677Y-115553990D01*
X161783974Y-115553990D01*
X161783974Y-115423511D01*
X162341190Y-115423511D01*
X161752234Y-114834589D01*
X161163278Y-115423511D01*
X161776921Y-115423511D01*
X161776921Y-115553990D01*
X161032791Y-115553990D01*
X160637802Y-115948956D01*
X160546109Y-115857268D01*
X160849403Y-115553990D01*
X160567269Y-115553990D01*
X160567269Y-114573629D01*
X160697756Y-114573629D01*
X160697756Y-115423511D01*
X160979891Y-115423511D01*
X161653505Y-114746427D01*
X161847454Y-114746427D01*
X162528104Y-115427037D01*
X162884299Y-115427037D01*
X162884299Y-115423511D01*
X162880329Y-115380808D01*
X162874401Y-115338689D01*
X162866561Y-115297201D01*
X162856857Y-115256389D01*
X162845334Y-115216300D01*
X162832039Y-115176981D01*
X162817019Y-115138478D01*
X162800320Y-115100838D01*
X162781988Y-115064107D01*
X162762070Y-115028331D01*
X162740613Y-114993558D01*
X162717663Y-114959834D01*
X162693266Y-114927204D01*
X162667470Y-114895717D01*
X162640320Y-114865417D01*
X162611863Y-114836352D01*
X162582145Y-114808568D01*
X162551213Y-114782112D01*
X162519114Y-114757029D01*
X162485894Y-114733368D01*
X162451599Y-114711173D01*
X162416276Y-114690492D01*
X162379972Y-114671371D01*
X162342733Y-114653856D01*
X162304605Y-114637995D01*
X162265635Y-114623833D01*
X162225869Y-114611417D01*
X162185355Y-114600794D01*
X162144137Y-114592010D01*
X162102264Y-114585111D01*
X162059781Y-114580144D01*
X162016735Y-114577155D01*
X161850981Y-114742900D01*
X161847454Y-114746427D01*
X161653505Y-114746427D01*
X161657014Y-114742900D01*
X161487732Y-114573629D01*
X161671120Y-114573629D01*
X161752234Y-114654738D01*
X161833348Y-114573629D01*
X161671120Y-114573629D01*
X161487732Y-114573629D01*
X160697756Y-114573629D01*
X160567269Y-114573629D01*
X160567269Y-114182190D01*
X160701283Y-114182190D01*
X160701283Y-114446676D01*
X161360772Y-114446676D01*
X160842350Y-113928283D01*
X160826817Y-113938651D01*
X160811988Y-113949897D01*
X160797901Y-113961990D01*
X160784601Y-113974899D01*
X160772126Y-113988593D01*
X160760520Y-114003042D01*
X160755055Y-114010539D01*
X160749823Y-114018214D01*
X160744828Y-114026061D01*
X160740076Y-114034078D01*
X160735572Y-114042260D01*
X160731322Y-114050603D01*
X160727329Y-114059104D01*
X160723600Y-114067758D01*
X160720140Y-114076563D01*
X160716953Y-114085513D01*
X160714045Y-114094605D01*
X160711422Y-114103836D01*
X160709088Y-114113201D01*
X160707048Y-114122696D01*
X160705308Y-114132318D01*
X160703873Y-114142062D01*
X160702747Y-114151926D01*
X160701937Y-114161904D01*
X160701447Y-114171993D01*
X160701283Y-114182190D01*
X160567269Y-114182190D01*
X160567269Y-114178663D01*
X160568087Y-114152389D01*
X160570513Y-114126496D01*
X160574498Y-114101038D01*
X160579998Y-114076065D01*
X160586964Y-114051629D01*
X160595351Y-114027782D01*
X160605112Y-114004576D01*
X160616201Y-113982062D01*
X160628571Y-113960292D01*
X160642176Y-113939317D01*
X160656969Y-113919190D01*
X160672904Y-113899961D01*
X160689934Y-113881683D01*
X160708012Y-113864407D01*
X160727093Y-113848185D01*
X160747129Y-113833068D01*
X160549635Y-113635585D01*
X160641329Y-113543897D01*
X160870563Y-113773118D01*
X160877878Y-113770556D01*
X160885276Y-113768159D01*
X160892757Y-113765927D01*
X160900320Y-113763861D01*
X160907965Y-113761960D01*
X160915694Y-113760224D01*
X160923505Y-113758654D01*
X160931399Y-113757249D01*
X160939375Y-113756009D01*
X160947434Y-113754935D01*
X160955576Y-113754026D01*
X160963800Y-113753282D01*
X160972107Y-113752703D01*
X160980496Y-113752290D01*
X160988969Y-113752042D01*
X160997524Y-113751959D01*
X162284763Y-113751959D01*
X162284763Y-113882439D01*
X160983417Y-113882439D01*
X161544160Y-114443149D01*
X161963835Y-114443149D01*
X162866665Y-113543897D01*
X162958359Y-113635585D01*
X162143741Y-114446676D01*
X162133116Y-114457255D01*
G37*
D11*
X109800000Y-55775000D02*
X109809158Y-55774960D01*
X109818307Y-55774840D01*
X109827446Y-55774641D01*
X109836575Y-55774362D01*
X109845694Y-55774003D01*
X109854802Y-55773564D01*
X109863898Y-55773047D01*
X109872983Y-55772449D01*
X109882056Y-55771773D01*
X109891117Y-55771018D01*
X109900165Y-55770183D01*
X109909200Y-55769269D01*
X109918221Y-55768276D01*
X109927229Y-55767205D01*
X109936222Y-55766055D01*
X109945201Y-55764826D01*
X109954164Y-55763518D01*
X109963112Y-55762132D01*
X109972045Y-55760668D01*
X109980961Y-55759125D01*
X109989860Y-55757504D01*
X109998741Y-55755805D01*
X110007605Y-55754029D01*
X110016451Y-55752174D01*
X110025279Y-55750241D01*
X110034087Y-55748231D01*
X110042875Y-55746144D01*
X110051644Y-55743979D01*
X110060392Y-55741737D01*
X110069119Y-55739417D01*
X110077825Y-55737021D01*
X110086508Y-55734548D01*
X110095169Y-55731998D01*
X110103807Y-55729372D01*
X110112421Y-55726669D01*
X110121011Y-55723890D01*
X110129577Y-55721036D01*
X110138117Y-55718105D01*
X110146632Y-55715099D01*
X110155120Y-55712017D01*
X110163582Y-55708860D01*
X110172016Y-55705627D01*
X110180422Y-55702320D01*
X110188800Y-55698938D01*
X110197148Y-55695482D01*
X110205467Y-55691952D01*
X110213756Y-55688347D01*
X110222013Y-55684669D01*
X110230240Y-55680917D01*
X110238434Y-55677092D01*
X110246596Y-55673194D01*
X110254724Y-55669224D01*
X110262819Y-55665180D01*
X110270879Y-55661065D01*
X110278904Y-55656878D01*
X110286894Y-55652619D01*
X110294847Y-55648289D01*
X110302763Y-55643888D01*
X110310642Y-55639416D01*
X110318483Y-55634875D01*
X110326285Y-55630263D01*
X110334048Y-55625581D01*
X110341770Y-55620830D01*
X110349452Y-55616011D01*
X110357093Y-55611123D01*
X110364692Y-55606166D01*
X110372249Y-55601142D01*
X110379762Y-55596051D01*
X110387231Y-55590893D01*
X110394656Y-55585668D01*
X110402037Y-55580377D01*
X110409371Y-55575020D01*
X110416659Y-55569598D01*
X110423901Y-55564112D01*
X110431094Y-55558561D01*
X110438240Y-55552946D01*
X110445337Y-55547268D01*
X110452385Y-55541526D01*
X110459382Y-55535723D01*
X110466329Y-55529857D01*
X110473225Y-55523930D01*
X110480069Y-55517942D01*
X110486861Y-55511893D01*
X110493600Y-55505785D01*
X110500285Y-55499617D01*
X110506916Y-55493390D01*
X110513492Y-55487105D01*
X110520013Y-55480762D01*
X110526478Y-55474362D01*
X110529690Y-55471140D01*
X110532887Y-55467905D01*
X110536070Y-55464655D01*
X110539239Y-55461392D01*
X110542393Y-55458114D01*
X110545533Y-55454823D01*
X110548658Y-55451518D01*
X110551769Y-55448200D01*
X110554865Y-55444868D01*
X110557946Y-55441522D01*
X110561013Y-55438163D01*
X110564064Y-55434790D01*
X110567101Y-55431404D01*
X110570123Y-55428005D01*
X110573129Y-55424593D01*
X110576121Y-55421167D01*
X110579097Y-55417729D01*
X110582058Y-55414278D01*
X110585004Y-55410814D01*
X110587934Y-55407337D01*
X110590849Y-55403847D01*
X110593749Y-55400345D01*
X110596632Y-55396830D01*
X110599501Y-55393302D01*
X110602353Y-55389763D01*
X110605190Y-55386210D01*
X110608011Y-55382646D01*
X110610816Y-55379069D01*
X110613605Y-55375481D01*
X110616378Y-55371880D01*
X110619135Y-55368268D01*
X110621876Y-55364643D01*
X110624601Y-55361007D01*
X110627310Y-55357359D01*
X110630002Y-55353699D01*
X110632678Y-55350028D01*
X110635337Y-55346346D01*
X110637981Y-55342651D01*
X110640607Y-55338946D01*
X110643217Y-55335229D01*
X110645810Y-55331502D01*
X110648388Y-55327762D01*
X110650947Y-55324013D01*
X110653491Y-55320251D01*
X110656017Y-55316480D01*
X110658527Y-55312697D01*
X110661020Y-55308904D01*
X110663496Y-55305100D01*
X110665954Y-55301286D01*
X110668396Y-55297461D01*
X110670821Y-55293626D01*
X110673228Y-55289780D01*
X110675618Y-55285925D01*
X110677992Y-55282059D01*
X110680347Y-55278183D01*
X110682686Y-55274297D01*
X110685006Y-55270401D01*
X110687310Y-55266495D01*
X110689596Y-55262580D01*
X110691865Y-55258654D01*
X110694115Y-55254720D01*
X110696349Y-55250775D01*
X110698564Y-55246822D01*
X110700763Y-55242859D01*
X110702943Y-55238887D01*
X110705106Y-55234905D01*
X110707250Y-55230915D01*
X110709377Y-55226914D01*
X110711486Y-55222906D01*
X110713577Y-55218888D01*
X110715650Y-55214862D01*
X110717705Y-55210826D01*
X110719742Y-55206783D01*
X110721761Y-55202729D01*
X110723762Y-55198669D01*
X110725745Y-55194599D01*
X110727709Y-55190522D01*
X110729655Y-55186435D01*
X110731583Y-55182341D01*
X110733493Y-55178238D01*
X110735384Y-55174128D01*
X110737258Y-55170009D01*
X110739112Y-55165883D01*
X110740948Y-55161748D01*
X110742766Y-55157607D01*
X110744565Y-55153456D01*
X110746346Y-55149300D01*
X110748109Y-55145134D01*
X110749852Y-55140962D01*
X110751577Y-55136781D01*
X110753283Y-55132595D01*
X110754971Y-55128400D01*
X110756640Y-55124199D01*
X110758291Y-55119989D01*
X110759922Y-55115774D01*
X110761535Y-55111551D01*
X110763129Y-55107322D01*
X110764705Y-55103085D01*
X110766261Y-55098842D01*
X110767799Y-55094591D01*
X110769317Y-55090336D01*
X110770817Y-55086072D01*
X110772298Y-55081803D01*
X110773760Y-55077526D01*
X110775202Y-55073245D01*
X110776627Y-55068955D01*
X110778031Y-55064661D01*
X110779417Y-55060359D01*
X110780783Y-55056053D01*
X110782131Y-55051739D01*
X110783459Y-55047421D01*
X110784769Y-55043095D01*
X110786059Y-55038765D01*
X110787330Y-55034428D01*
X110788582Y-55030087D01*
X110789815Y-55025738D01*
X110791028Y-55021386D01*
X110792222Y-55017026D01*
X110793396Y-55012663D01*
X110794552Y-55008292D01*
X110795688Y-55003919D01*
X110796805Y-54999537D01*
X110797903Y-54995153D01*
X110798981Y-54990762D01*
X110800040Y-54986367D01*
X110801079Y-54981966D01*
X110802099Y-54977562D01*
X110803100Y-54973150D01*
X110804081Y-54968737D01*
X110805043Y-54964316D01*
X110805984Y-54959892D01*
X110806907Y-54955462D01*
X110807810Y-54951030D01*
X110808694Y-54946591D01*
X110809558Y-54942149D01*
X110810403Y-54937701D01*
X110811228Y-54933251D01*
X110812034Y-54928794D01*
X110812819Y-54924335D01*
X110813586Y-54919870D01*
X110814332Y-54915403D01*
X110815060Y-54910930D01*
X110815767Y-54906455D01*
X110816455Y-54901974D01*
X110817123Y-54897491D01*
X110817771Y-54893002D01*
X110818400Y-54888511D01*
X110819009Y-54884015D01*
X110819599Y-54879517D01*
X110820168Y-54875013D01*
X110820718Y-54870508D01*
X110821248Y-54865997D01*
X110821759Y-54861485D01*
X110822250Y-54856967D01*
X110822720Y-54852448D01*
X110823171Y-54847924D01*
X110823603Y-54843398D01*
X110824014Y-54838867D01*
X110824406Y-54834335D01*
X110824778Y-54829798D01*
X110825130Y-54825260D01*
X110825462Y-54820716D01*
X110825774Y-54816172D01*
X110826067Y-54811622D01*
X110826339Y-54807072D01*
X110826592Y-54802517D01*
X110826825Y-54797961D01*
X110827038Y-54793401D01*
X110827230Y-54788840D01*
X110827403Y-54784273D01*
X110827556Y-54779707D01*
X110827690Y-54775136D01*
X110827803Y-54770564D01*
X110827896Y-54765988D01*
X110827969Y-54761411D01*
X110828022Y-54756830D01*
X110828056Y-54752249D01*
X110828069Y-54747663D01*
X110828069Y-54746932D01*
D12*
G36*
X101276218Y-93024818D02*
G01*
X100895107Y-93024818D01*
X100895107Y-93405925D01*
X99367146Y-93405925D01*
X99367146Y-94933891D01*
X97839182Y-94933891D01*
X97839182Y-93787034D01*
X97458075Y-93787034D01*
X97458075Y-93024818D01*
X97073435Y-93024818D01*
X97073435Y-92262599D01*
X97458075Y-91877961D01*
X97073435Y-92259072D01*
X95545473Y-92259072D01*
X95164364Y-91877961D01*
X95545473Y-92262599D01*
X95545473Y-93024818D01*
X95164364Y-93024818D01*
X95164364Y-93787034D01*
X94783255Y-93787034D01*
X94783255Y-94552781D01*
X95545473Y-94552781D01*
X95545473Y-93787034D01*
X95930109Y-93787034D01*
X95930109Y-93024818D01*
X96692327Y-93024818D01*
X96692327Y-93787034D01*
X97073435Y-93787034D01*
X97073435Y-94552781D01*
X97835653Y-94552781D01*
X97835653Y-94933891D01*
X93255289Y-94933891D01*
X93255289Y-93405925D01*
X91727327Y-93405925D01*
X91727327Y-93024818D01*
X91346218Y-93024818D01*
X91346218Y-90731107D01*
X91727327Y-90731107D01*
X94017508Y-90731107D01*
X94017508Y-91496854D01*
X94402143Y-91496854D01*
X94402143Y-91877961D01*
X95164364Y-91877961D01*
X95164364Y-91496854D01*
X95545473Y-91496854D01*
X95545473Y-90731107D01*
X97073435Y-90731107D01*
X97073435Y-91496854D01*
X97458075Y-91496854D01*
X97458075Y-91877961D01*
X98220289Y-91877961D01*
X98220289Y-91496854D01*
X98604927Y-91496854D01*
X98604927Y-90731107D01*
X98220289Y-90731107D01*
X98220289Y-90350000D01*
X97458075Y-90350000D01*
X97458075Y-90731107D01*
X97073435Y-90731107D01*
X95545473Y-90731107D01*
X95164364Y-90731107D01*
X95164364Y-90350000D01*
X94402143Y-90350000D01*
X94402143Y-90731107D01*
X94017508Y-90731107D01*
X91727327Y-90731107D01*
X91727327Y-90350000D01*
X93255289Y-90350000D01*
X93255289Y-89203145D01*
X93636398Y-89203145D01*
X93636398Y-88822036D01*
X98986036Y-88822036D01*
X98986036Y-89203145D01*
X99367146Y-89203145D01*
X99367146Y-90350000D01*
X100895107Y-90350000D01*
X100895107Y-90731107D01*
X101276218Y-90731107D01*
X101276218Y-91496854D01*
X101276218Y-93024818D01*
G37*
D11*
X110759531Y-55775001D02*
X111547717Y-55775001D01*
X121299873Y-54518318D02*
X121566540Y-54137365D01*
X121757016Y-54518318D02*
X121757016Y-53718318D01*
X121757016Y-53718318D02*
X121452254Y-53718318D01*
X121452254Y-53718318D02*
X121376064Y-53756413D01*
X121376064Y-53756413D02*
X121337969Y-53794508D01*
X121337969Y-53794508D02*
X121299873Y-53870699D01*
X121299873Y-53870699D02*
X121299873Y-53984984D01*
X121299873Y-53984984D02*
X121337969Y-54061175D01*
X121337969Y-54061175D02*
X121376064Y-54099270D01*
X121376064Y-54099270D02*
X121452254Y-54137365D01*
X121452254Y-54137365D02*
X121757016Y-54137365D01*
X120957016Y-54099270D02*
X120690350Y-54099270D01*
X120576064Y-54518318D02*
X120957016Y-54518318D01*
X120957016Y-54518318D02*
X120957016Y-53718318D01*
X120957016Y-53718318D02*
X120576064Y-53718318D01*
X120347492Y-53718318D02*
X120080825Y-54518318D01*
X120080825Y-54518318D02*
X119814159Y-53718318D01*
X119547492Y-54518318D02*
X119547492Y-53718318D01*
X119204636Y-54480223D02*
X119090350Y-54518318D01*
X119090350Y-54518318D02*
X118899874Y-54518318D01*
X118899874Y-54518318D02*
X118823683Y-54480223D01*
X118823683Y-54480223D02*
X118785588Y-54442127D01*
X118785588Y-54442127D02*
X118747493Y-54365937D01*
X118747493Y-54365937D02*
X118747493Y-54289746D01*
X118747493Y-54289746D02*
X118785588Y-54213556D01*
X118785588Y-54213556D02*
X118823683Y-54175461D01*
X118823683Y-54175461D02*
X118899874Y-54137365D01*
X118899874Y-54137365D02*
X119052255Y-54099270D01*
X119052255Y-54099270D02*
X119128445Y-54061175D01*
X119128445Y-54061175D02*
X119166540Y-54023080D01*
X119166540Y-54023080D02*
X119204636Y-53946889D01*
X119204636Y-53946889D02*
X119204636Y-53870699D01*
X119204636Y-53870699D02*
X119166540Y-53794508D01*
X119166540Y-53794508D02*
X119128445Y-53756413D01*
X119128445Y-53756413D02*
X119052255Y-53718318D01*
X119052255Y-53718318D02*
X118861778Y-53718318D01*
X118861778Y-53718318D02*
X118747493Y-53756413D01*
X118404635Y-54518318D02*
X118404635Y-53718318D01*
X117871302Y-53718318D02*
X117718921Y-53718318D01*
X117718921Y-53718318D02*
X117642731Y-53756413D01*
X117642731Y-53756413D02*
X117566540Y-53832603D01*
X117566540Y-53832603D02*
X117528445Y-53984984D01*
X117528445Y-53984984D02*
X117528445Y-54251651D01*
X117528445Y-54251651D02*
X117566540Y-54404032D01*
X117566540Y-54404032D02*
X117642731Y-54480223D01*
X117642731Y-54480223D02*
X117718921Y-54518318D01*
X117718921Y-54518318D02*
X117871302Y-54518318D01*
X117871302Y-54518318D02*
X117947493Y-54480223D01*
X117947493Y-54480223D02*
X118023683Y-54404032D01*
X118023683Y-54404032D02*
X118061779Y-54251651D01*
X118061779Y-54251651D02*
X118061779Y-53984984D01*
X118061779Y-53984984D02*
X118023683Y-53832603D01*
X118023683Y-53832603D02*
X117947493Y-53756413D01*
X117947493Y-53756413D02*
X117871302Y-53718318D01*
X117185588Y-54518318D02*
X117185588Y-53718318D01*
X117185588Y-53718318D02*
X116728445Y-54518318D01*
X116728445Y-54518318D02*
X116728445Y-53718318D01*
X115318922Y-54518318D02*
X115776065Y-54518318D01*
X115547493Y-54518318D02*
X115547493Y-53718318D01*
X115547493Y-53718318D02*
X115623684Y-53832603D01*
X115623684Y-53832603D02*
X115699874Y-53908794D01*
X115699874Y-53908794D02*
X115776065Y-53946889D01*
X114976064Y-54442127D02*
X114937969Y-54480223D01*
X114937969Y-54480223D02*
X114976064Y-54518318D01*
X114976064Y-54518318D02*
X115014160Y-54480223D01*
X115014160Y-54480223D02*
X114976064Y-54442127D01*
X114976064Y-54442127D02*
X114976064Y-54518318D01*
X114671303Y-53718318D02*
X114176065Y-53718318D01*
X114176065Y-53718318D02*
X114442731Y-54023080D01*
X114442731Y-54023080D02*
X114328446Y-54023080D01*
X114328446Y-54023080D02*
X114252255Y-54061175D01*
X114252255Y-54061175D02*
X114214160Y-54099270D01*
X114214160Y-54099270D02*
X114176065Y-54175461D01*
X114176065Y-54175461D02*
X114176065Y-54365937D01*
X114176065Y-54365937D02*
X114214160Y-54442127D01*
X114214160Y-54442127D02*
X114252255Y-54480223D01*
X114252255Y-54480223D02*
X114328446Y-54518318D01*
X114328446Y-54518318D02*
X114557017Y-54518318D01*
X114557017Y-54518318D02*
X114633208Y-54480223D01*
X114633208Y-54480223D02*
X114671303Y-54442127D01*
X118937970Y-55387225D02*
X118823684Y-55425320D01*
X118823684Y-55425320D02*
X118785589Y-55463416D01*
X118785589Y-55463416D02*
X118747493Y-55539606D01*
X118747493Y-55539606D02*
X118747493Y-55653892D01*
X118747493Y-55653892D02*
X118785589Y-55730082D01*
X118785589Y-55730082D02*
X118823684Y-55768178D01*
X118823684Y-55768178D02*
X118899874Y-55806273D01*
X118899874Y-55806273D02*
X119204636Y-55806273D01*
X119204636Y-55806273D02*
X119204636Y-55006273D01*
X119204636Y-55006273D02*
X118937970Y-55006273D01*
X118937970Y-55006273D02*
X118861779Y-55044368D01*
X118861779Y-55044368D02*
X118823684Y-55082463D01*
X118823684Y-55082463D02*
X118785589Y-55158654D01*
X118785589Y-55158654D02*
X118785589Y-55234844D01*
X118785589Y-55234844D02*
X118823684Y-55311035D01*
X118823684Y-55311035D02*
X118861779Y-55349130D01*
X118861779Y-55349130D02*
X118937970Y-55387225D01*
X118937970Y-55387225D02*
X119204636Y-55387225D01*
X118252255Y-55425320D02*
X118252255Y-55806273D01*
X118518922Y-55006273D02*
X118252255Y-55425320D01*
X118252255Y-55425320D02*
X117985589Y-55006273D01*
X116690351Y-55044368D02*
X116766541Y-55006273D01*
X116766541Y-55006273D02*
X116880827Y-55006273D01*
X116880827Y-55006273D02*
X116995113Y-55044368D01*
X116995113Y-55044368D02*
X117071303Y-55120558D01*
X117071303Y-55120558D02*
X117109398Y-55196749D01*
X117109398Y-55196749D02*
X117147494Y-55349130D01*
X117147494Y-55349130D02*
X117147494Y-55463416D01*
X117147494Y-55463416D02*
X117109398Y-55615797D01*
X117109398Y-55615797D02*
X117071303Y-55691987D01*
X117071303Y-55691987D02*
X116995113Y-55768178D01*
X116995113Y-55768178D02*
X116880827Y-55806273D01*
X116880827Y-55806273D02*
X116804636Y-55806273D01*
X116804636Y-55806273D02*
X116690351Y-55768178D01*
X116690351Y-55768178D02*
X116652255Y-55730082D01*
X116652255Y-55730082D02*
X116652255Y-55463416D01*
X116652255Y-55463416D02*
X116804636Y-55463416D01*
X116309398Y-55387225D02*
X116042732Y-55387225D01*
X115928446Y-55806273D02*
X116309398Y-55806273D01*
X116309398Y-55806273D02*
X116309398Y-55006273D01*
X116309398Y-55006273D02*
X115928446Y-55006273D01*
X115585588Y-55806273D02*
X115585588Y-55006273D01*
X115242732Y-55768178D02*
X115128446Y-55806273D01*
X115128446Y-55806273D02*
X114937970Y-55806273D01*
X114937970Y-55806273D02*
X114861779Y-55768178D01*
X114861779Y-55768178D02*
X114823684Y-55730082D01*
X114823684Y-55730082D02*
X114785589Y-55653892D01*
X114785589Y-55653892D02*
X114785589Y-55577701D01*
X114785589Y-55577701D02*
X114823684Y-55501511D01*
X114823684Y-55501511D02*
X114861779Y-55463416D01*
X114861779Y-55463416D02*
X114937970Y-55425320D01*
X114937970Y-55425320D02*
X115090351Y-55387225D01*
X115090351Y-55387225D02*
X115166541Y-55349130D01*
X115166541Y-55349130D02*
X115204636Y-55311035D01*
X115204636Y-55311035D02*
X115242732Y-55234844D01*
X115242732Y-55234844D02*
X115242732Y-55158654D01*
X115242732Y-55158654D02*
X115204636Y-55082463D01*
X115204636Y-55082463D02*
X115166541Y-55044368D01*
X115166541Y-55044368D02*
X115090351Y-55006273D01*
X115090351Y-55006273D02*
X114899874Y-55006273D01*
X114899874Y-55006273D02*
X114785589Y-55044368D01*
X114557017Y-55006273D02*
X114099874Y-55006273D01*
X114328446Y-55806273D02*
X114328446Y-55006273D01*
D13*
X88964256Y-149301728D03*
D14*
X88554135Y-149711849D03*
D15*
X89862282Y-151995804D03*
X90760308Y-154689881D03*
D16*
X85372154Y-152893830D03*
D15*
X87168205Y-158281984D03*
X84474129Y-157383959D03*
D14*
X82190173Y-156075811D03*
D13*
X81780052Y-156485932D03*
D17*
X83798841Y-147926405D03*
X82561405Y-146688968D03*
X79167292Y-150083081D03*
X80404729Y-151320517D03*
D18*
X92146237Y-149768418D03*
X84962032Y-160544725D03*
D13*
X148091399Y-128697857D03*
D14*
X147511399Y-128697857D03*
D15*
X146821399Y-131237857D03*
X145551399Y-133777857D03*
D16*
X143011399Y-128697857D03*
D15*
X140471399Y-133777857D03*
X139201399Y-131237858D03*
D14*
X138511399Y-128697857D03*
D13*
X137931399Y-128697857D03*
D19*
X145411399Y-124072857D03*
X145411399Y-122322857D03*
X140611399Y-122322857D03*
X140611399Y-124072857D03*
D20*
X150011399Y-131277857D03*
X137311399Y-133817857D03*
D13*
X185950653Y-70381245D03*
D14*
X185372066Y-70340786D03*
D15*
X184506566Y-72826467D03*
X183062478Y-75271689D03*
D16*
X180883028Y-70026882D03*
D15*
X177994852Y-74917326D03*
X176905127Y-72294927D03*
D14*
X176393990Y-69712978D03*
D13*
X175815403Y-69672519D03*
D21*
X183599805Y-65580564D03*
X183721879Y-63834827D03*
X178933572Y-63499996D03*
X178811498Y-65245733D03*
D22*
X187686005Y-73088893D03*
X174839760Y-74736798D03*
D23*
X181560000Y-122470000D03*
D24*
X191951654Y-110709596D03*
X195300000Y-111300000D03*
D25*
X135297000Y-96197000D03*
X138697000Y-96197000D03*
D26*
X172900000Y-116200000D03*
X176291718Y-116437172D03*
D13*
X126804057Y-130264140D03*
D14*
X126243820Y-130414255D03*
D15*
X126234732Y-133046292D03*
X125665406Y-135828444D03*
D16*
X121897154Y-131578941D03*
D15*
X120758503Y-137143245D03*
X118874377Y-135018494D03*
D14*
X117550488Y-132743627D03*
D13*
X116990251Y-132893742D03*
D27*
X123018338Y-126490368D03*
X122565405Y-124799998D03*
X117928961Y-126042331D03*
X118381894Y-127732700D03*
D28*
X129326388Y-132259296D03*
X117716530Y-137999750D03*
D23*
X83320000Y-55720000D03*
D13*
X164191399Y-78675260D03*
D14*
X163611399Y-78675260D03*
D15*
X162921399Y-81215260D03*
X161651399Y-83755260D03*
D16*
X159111399Y-78675260D03*
D15*
X156571399Y-83755260D03*
X155301399Y-81215261D03*
D14*
X154611399Y-78675260D03*
D13*
X154031399Y-78675260D03*
D19*
X161511399Y-74050260D03*
X161511399Y-72300260D03*
X156711399Y-72300260D03*
X156711399Y-74050260D03*
D20*
X166111399Y-81255260D03*
X153411399Y-83795260D03*
D13*
X223997125Y-102568958D03*
D14*
X223425937Y-102468242D03*
D15*
X222305353Y-104849836D03*
X220613581Y-107130715D03*
D16*
X218994302Y-101686825D03*
D15*
X215610758Y-106248582D03*
X214801118Y-103526638D03*
D14*
X214562667Y-100905408D03*
D13*
X213991479Y-100804692D03*
D29*
X222160963Y-97548845D03*
X222464848Y-95825431D03*
X217737771Y-94991920D03*
X217433886Y-96715335D03*
D30*
X225439944Y-105443166D03*
X212491819Y-105739246D03*
D31*
X128663008Y-123578926D03*
X129542992Y-126863074D03*
D32*
X153510000Y-116290000D03*
X166710000Y-116290000D03*
D33*
X193250000Y-75050000D03*
D13*
X183289779Y-108433517D03*
D14*
X182711192Y-108393058D03*
D15*
X181845692Y-110878739D03*
X180401604Y-113323961D03*
D16*
X178222154Y-108079154D03*
D15*
X175333978Y-112969598D03*
X174244253Y-110347199D03*
D14*
X173733116Y-107765250D03*
D13*
X173154529Y-107724791D03*
D21*
X180938931Y-103632836D03*
X181061005Y-101887099D03*
X176272698Y-101552268D03*
X176150624Y-103298005D03*
D22*
X185025131Y-111141165D03*
X172178886Y-112789070D03*
D13*
X126147969Y-90675260D03*
D14*
X125567969Y-90675260D03*
D15*
X124877969Y-93215260D03*
X123607969Y-95755260D03*
D16*
X121067969Y-90675260D03*
D15*
X118527969Y-95755260D03*
X117257969Y-93215261D03*
D14*
X116567969Y-90675260D03*
D13*
X115987969Y-90675260D03*
D19*
X123467969Y-86050260D03*
X123467969Y-84300260D03*
X118667969Y-84300260D03*
X118667969Y-86050260D03*
D20*
X128067969Y-93255260D03*
X115367969Y-95795260D03*
D25*
X153300000Y-106300000D03*
X156700000Y-106300000D03*
D34*
X88090000Y-111450000D03*
X88090000Y-116450000D03*
X88090000Y-113950000D03*
D35*
X95590000Y-108350000D03*
X95590000Y-119550000D03*
D34*
X102590000Y-116450000D03*
X102590000Y-111450000D03*
D36*
X100249110Y-98455000D03*
X97709110Y-98455000D03*
X95169110Y-98455000D03*
X92629110Y-98455000D03*
D37*
X82400000Y-129125000D03*
X89400000Y-129125000D03*
X82400000Y-127375000D03*
X89400000Y-127375000D03*
D38*
X91200000Y-131225000D03*
X91200000Y-125275000D03*
X87200000Y-131225000D03*
X87200000Y-125275000D03*
X84200000Y-131225000D03*
X84200000Y-125275000D03*
X92700000Y-129475000D03*
X92700000Y-127025000D03*
D13*
X220685204Y-121351799D03*
D14*
X220114016Y-121251083D03*
D15*
X218993432Y-123632677D03*
X217301660Y-125913556D03*
D16*
X215682381Y-120469666D03*
D15*
X212298837Y-125031423D03*
X211489197Y-122309479D03*
D14*
X211250746Y-119688249D03*
D13*
X210679558Y-119587533D03*
D29*
X218849042Y-116331686D03*
X219152927Y-114608272D03*
X214425850Y-113774761D03*
X214121965Y-115498176D03*
D30*
X222128023Y-124226007D03*
X209179898Y-124522087D03*
D25*
X115300000Y-99200000D03*
X118700000Y-99200000D03*
D13*
X126147969Y-109747857D03*
D14*
X125567969Y-109747857D03*
D15*
X124877969Y-112287857D03*
X123607969Y-114827857D03*
D16*
X121067969Y-109747857D03*
D15*
X118527969Y-114827857D03*
X117257969Y-112287858D03*
D14*
X116567969Y-109747857D03*
D13*
X115987969Y-109747857D03*
D19*
X123467969Y-105122857D03*
X123467969Y-103372857D03*
X118667969Y-103372857D03*
X118667969Y-105122857D03*
D20*
X128067969Y-112327857D03*
X115367969Y-114867857D03*
D23*
X83320000Y-135150000D03*
X188990000Y-56730000D03*
D24*
X195251654Y-91909596D03*
X198600000Y-92500000D03*
D39*
X106672000Y-130427514D03*
X108372000Y-133372000D03*
D13*
X126147969Y-71602664D03*
D14*
X125567969Y-71602664D03*
D15*
X124877969Y-74142664D03*
X123607969Y-76682664D03*
D16*
X121067969Y-71602664D03*
D15*
X118527969Y-76682664D03*
X117257969Y-74142665D03*
D14*
X116567969Y-71602664D03*
D13*
X115987969Y-71602664D03*
D19*
X123467969Y-66977664D03*
X123467969Y-65227664D03*
X118667969Y-65227664D03*
X118667969Y-66977664D03*
D20*
X128067969Y-74182664D03*
X115367969Y-76722664D03*
D40*
X82350000Y-104800000D03*
X82350000Y-102800000D03*
D13*
X184620216Y-89407380D03*
D14*
X184041629Y-89366921D03*
D15*
X183176129Y-91852602D03*
X181732041Y-94297824D03*
D16*
X179552591Y-89053017D03*
D15*
X176664415Y-93943461D03*
X175574690Y-91321062D03*
D14*
X175063553Y-88739113D03*
D13*
X174484966Y-88698654D03*
D21*
X182269368Y-84606699D03*
X182391442Y-82860962D03*
X177603135Y-82526131D03*
X177481061Y-84271868D03*
D22*
X186355568Y-92115028D03*
X173509323Y-93762933D03*
D41*
X82309995Y-118535008D03*
X82309995Y-122785008D03*
D42*
X83209995Y-119435008D03*
X83209995Y-121885008D03*
D43*
X83209995Y-120660008D03*
D44*
X81259995Y-118810008D03*
X81259995Y-122510008D03*
D24*
X220200000Y-110600000D03*
X223548346Y-111190404D03*
D23*
X174150000Y-55720000D03*
D25*
X134300000Y-77100000D03*
X137700000Y-77100000D03*
X153400000Y-68100000D03*
X156800000Y-68100000D03*
X153379000Y-87185000D03*
X156779000Y-87185000D03*
D24*
X188625827Y-129404798D03*
X191974173Y-129995202D03*
D25*
X99180000Y-106960000D03*
X102580000Y-106960000D03*
D13*
X164191399Y-59602664D03*
D14*
X163611399Y-59602664D03*
D15*
X162921399Y-62142664D03*
X161651399Y-64682664D03*
D16*
X159111399Y-59602664D03*
D15*
X156571399Y-64682664D03*
X155301399Y-62142665D03*
D14*
X154611399Y-59602664D03*
D13*
X154031399Y-59602664D03*
D19*
X161511399Y-54977664D03*
X161511399Y-53227664D03*
X156711399Y-53227664D03*
X156711399Y-54977664D03*
D20*
X166111399Y-62182664D03*
X153411399Y-64722664D03*
D45*
X149599000Y-77350000D03*
X168649000Y-96400000D03*
X130549000Y-96400000D03*
D13*
X106646563Y-137291736D03*
D14*
X106144268Y-137581736D03*
D15*
X106816711Y-140126441D03*
X106986859Y-142961145D03*
D16*
X102247154Y-139831736D03*
D15*
X102587449Y-145501145D03*
X100217598Y-143936441D03*
D14*
X98350040Y-142081736D03*
D13*
X97847745Y-142371736D03*
D46*
X102013115Y-134626369D03*
X101138115Y-133110824D03*
X96981193Y-135510824D03*
X97856193Y-137026369D03*
D47*
X109599332Y-138566082D03*
X99870809Y-147115786D03*
D13*
X201082966Y-122972529D03*
D14*
X200511778Y-122871813D03*
D15*
X199391194Y-125253407D03*
X197699422Y-127534286D03*
D16*
X196080143Y-122090396D03*
D15*
X192696599Y-126652153D03*
X191886959Y-123930209D03*
D14*
X191648508Y-121308979D03*
D13*
X191077320Y-121208263D03*
D29*
X199246804Y-117952416D03*
X199550689Y-116229002D03*
X194823612Y-115395491D03*
X194519727Y-117118906D03*
D30*
X202525785Y-125846737D03*
X189577660Y-126142817D03*
D23*
X169950000Y-121710000D03*
D26*
X172908282Y-97162828D03*
X176300000Y-97400000D03*
D23*
X167300000Y-88050000D03*
D13*
X145141399Y-106747857D03*
D14*
X144561399Y-106747857D03*
D15*
X143871399Y-109287857D03*
X142601399Y-111827857D03*
D16*
X140061399Y-106747857D03*
D15*
X137521399Y-111827857D03*
X136251399Y-109287858D03*
D14*
X135561399Y-106747857D03*
D13*
X134981399Y-106747857D03*
D19*
X142461399Y-102122857D03*
X142461399Y-100372857D03*
X137661399Y-100372857D03*
X137661399Y-102122857D03*
D20*
X147061399Y-109327857D03*
X134361399Y-111867857D03*
D13*
X145141399Y-87675260D03*
D14*
X144561399Y-87675260D03*
D15*
X143871399Y-90215260D03*
X142601399Y-92755260D03*
D16*
X140061399Y-87675260D03*
D15*
X137521399Y-92755260D03*
X136251399Y-90215261D03*
D14*
X135561399Y-87675260D03*
D13*
X134981399Y-87675260D03*
D19*
X142461399Y-83050260D03*
X142461399Y-81300260D03*
X137661399Y-81300260D03*
X137661399Y-83050260D03*
D20*
X147061399Y-90255260D03*
X134361399Y-92795260D03*
D26*
X174300000Y-78100000D03*
X177691718Y-78337172D03*
D48*
X87070836Y-142475836D03*
X89475000Y-144880000D03*
D49*
X148200000Y-104900000D03*
X148200000Y-101500000D03*
D50*
X82500000Y-111399951D03*
D34*
X82500000Y-115000000D03*
D13*
X207706810Y-85406848D03*
D14*
X207135622Y-85306132D03*
D15*
X206015038Y-87687726D03*
X204323266Y-89968605D03*
D16*
X202703987Y-84524715D03*
D15*
X199320443Y-89086472D03*
X198510803Y-86364528D03*
D14*
X198272352Y-83743298D03*
D13*
X197701164Y-83642582D03*
D29*
X205870648Y-80386735D03*
X206174533Y-78663321D03*
X201447456Y-77829810D03*
X201143571Y-79553225D03*
D30*
X209149629Y-88281056D03*
X196201504Y-88577136D03*
D25*
X115300000Y-80100000D03*
X118700000Y-80100000D03*
D41*
X82251228Y-65426228D03*
X82301228Y-62426228D03*
D51*
X84101228Y-66176228D03*
X84101228Y-63176228D03*
X84101228Y-61676228D03*
D52*
X82201228Y-60076228D03*
X82201228Y-68026228D03*
D23*
X145400000Y-55720000D03*
D25*
X115100000Y-118290000D03*
X118500000Y-118290000D03*
D24*
X216851654Y-129209596D03*
X220200000Y-129800000D03*
D53*
X137950000Y-120100000D03*
D54*
X140490000Y-120100000D03*
X143030000Y-120100000D03*
X145570000Y-120100000D03*
X148110000Y-120100000D03*
D13*
X164191399Y-97747857D03*
D14*
X163611399Y-97747857D03*
D15*
X162921399Y-100287857D03*
X161651399Y-102827857D03*
D16*
X159111399Y-97747857D03*
D15*
X156571399Y-102827857D03*
X155301399Y-100287858D03*
D14*
X154611399Y-97747857D03*
D13*
X154031399Y-97747857D03*
D19*
X161511399Y-93122857D03*
X161511399Y-91372857D03*
X156711399Y-91372857D03*
X156711399Y-93122857D03*
D20*
X166111399Y-100327857D03*
X153411399Y-102867857D03*
D13*
X204394888Y-104189687D03*
D14*
X203823700Y-104088971D03*
D15*
X202703116Y-106470565D03*
X201011344Y-108751444D03*
D16*
X199392065Y-103307554D03*
D15*
X196008521Y-107869311D03*
X195198881Y-105147367D03*
D14*
X194960430Y-102526137D03*
D13*
X194389242Y-102425421D03*
D29*
X202558726Y-99169574D03*
X202862611Y-97446160D03*
X198135534Y-96612649D03*
X197831649Y-98336064D03*
D30*
X205837707Y-107063895D03*
X192889582Y-107359975D03*
D55*
X88780000Y-56840000D03*
X105318815Y-58035745D03*
X88780000Y-59380000D03*
X105318815Y-60575745D03*
X88780000Y-61920000D03*
X105318815Y-63115745D03*
X88780000Y-64460000D03*
X105318815Y-65655745D03*
X88780000Y-67000000D03*
X105318815Y-68195745D03*
X88780000Y-69540000D03*
X105318815Y-70735745D03*
X88780000Y-72080000D03*
X105318815Y-73275745D03*
X88780000Y-74620000D03*
X105318815Y-75815745D03*
X88780000Y-77160000D03*
X105318815Y-78355745D03*
X88780000Y-79700000D03*
X105318815Y-80895745D03*
X88780000Y-82240000D03*
X105318815Y-83435745D03*
X88780000Y-84780000D03*
X105318815Y-85975745D03*
X90078815Y-85975745D03*
X104020000Y-84780000D03*
X90078815Y-83435745D03*
X104020000Y-82240000D03*
X90078815Y-80895745D03*
X104020000Y-79700000D03*
X90078815Y-78355745D03*
X104020000Y-77160000D03*
X90078815Y-75815745D03*
X104020000Y-74620000D03*
X90078815Y-73275745D03*
X104020000Y-72080000D03*
X90078815Y-70735745D03*
X104020000Y-69540000D03*
X90078815Y-68195745D03*
X104020000Y-67000000D03*
X90078815Y-65655745D03*
X104020000Y-64460000D03*
X90078815Y-63115745D03*
X104020000Y-61920000D03*
X90078815Y-60575745D03*
X104020000Y-59380000D03*
X90078815Y-58035745D03*
X104020000Y-56840000D03*
D13*
X145141399Y-68602664D03*
D14*
X144561399Y-68602664D03*
D15*
X143871399Y-71142664D03*
X142601399Y-73682664D03*
D16*
X140061399Y-68602664D03*
D15*
X137521399Y-73682664D03*
X136251399Y-71142665D03*
D14*
X135561399Y-68602664D03*
D13*
X134981399Y-68602664D03*
D19*
X142461399Y-63977664D03*
X142461399Y-62227664D03*
X137661399Y-62227664D03*
X137661399Y-63977664D03*
D20*
X147061399Y-71182664D03*
X134361399Y-73722664D03*
D49*
X151604000Y-122605000D03*
X151604000Y-126005000D03*
D56*
X92629450Y-101301620D03*
X92629450Y-102302380D03*
X140500000Y-118150380D03*
X140500000Y-117149620D03*
X100213450Y-101301620D03*
X100213450Y-102302380D03*
X145600000Y-118150760D03*
X145600000Y-117150000D03*
X194925000Y-58850380D03*
X194925000Y-57849620D03*
X97668450Y-101301620D03*
X97668450Y-102302380D03*
X81900000Y-107999620D03*
X81900000Y-109000380D03*
D57*
X91450342Y-136358810D03*
X90583658Y-136859190D03*
D56*
X95166000Y-101301620D03*
X95166000Y-102302380D03*
X83675000Y-107999620D03*
X83675000Y-109000380D03*
X148100000Y-118150380D03*
X148100000Y-117149620D03*
D14*
X194920000Y-55650000D03*
D58*
X197460000Y-55650000D03*
X200000000Y-55650000D03*
X202540000Y-55650000D03*
X205080000Y-55650000D03*
D56*
X197425000Y-58850380D03*
X197425000Y-57849620D03*
X205100000Y-58850380D03*
X205100000Y-57849620D03*
M02*
