G04 #@! TF.GenerationSoftware,KiCad,Pcbnew,10.0.4*
G04 #@! TF.CreationDate,2026-07-21T23:25:02-06:00*
G04 #@! TF.ProjectId,klor1_3 (1),6b6c6f72-315f-4332-9028-31292e6b6963,v1.3.0*
G04 #@! TF.SameCoordinates,Original*
G04 #@! TF.FileFunction,Legend,Bot*
G04 #@! TF.FilePolarity,Positive*
%FSLAX46Y46*%
G04 Gerber Fmt 4.6, Leading zero omitted, Abs format (unit mm)*
G04 Created by KiCad (PCBNEW 10.0.4) date 2026-07-21 23:25:02*
%MOMM*%
%LPD*%
G01*
G04 APERTURE LIST*
%ADD10C,0.150000*%
%ADD11C,0.127000*%
%ADD12C,0.000000*%
%ADD13C,0.569975*%
%ADD14C,0.100000*%
%ADD15C,0.300000*%
%ADD16C,0.120000*%
%ADD17C,0.200000*%
%ADD18C,1.524000*%
G04 APERTURE END LIST*
D10*
X192600000Y-60975000D02*
X207375000Y-60975000D01*
X207375000Y-72750000D01*
X192600000Y-72750000D01*
X192600000Y-60975000D01*
X82669975Y-69294975D02*
G75*
G02*
X81680025Y-69294975I-494975J0D01*
G01*
X81680025Y-69294975D02*
G75*
G02*
X82669975Y-69294975I494975J0D01*
G01*
D11*
X143042000Y-116438500D02*
X143042000Y-118995500D01*
D10*
X84550000Y-111375000D02*
X83965000Y-111375000D01*
X90498000Y-105359000D02*
X89429000Y-105359000D01*
D12*
G36*
X177481312Y-121146755D02*
G01*
X108221313Y-121146755D01*
X108221313Y-119700160D01*
X177481312Y-119700160D01*
X177481312Y-121146755D01*
G37*
D13*
X82459987Y-58794975D02*
G75*
G02*
X81890013Y-58794975I-284987J0D01*
G01*
X81890013Y-58794975D02*
G75*
G02*
X82459987Y-58794975I284987J0D01*
G01*
D12*
G36*
X138388054Y-106680812D02*
G01*
X117606522Y-106680812D01*
X117606522Y-105234218D01*
X136941460Y-105234233D01*
X136941460Y-53262767D01*
X138388054Y-53262767D01*
X138388054Y-106680812D01*
G37*
D10*
X90531000Y-101998000D02*
X89462000Y-101998000D01*
X84256000Y-111668500D02*
X84256000Y-111083500D01*
X89975000Y-105877000D02*
X89975000Y-104808000D01*
X84560000Y-115000000D02*
X83975000Y-115000000D01*
D12*
G36*
X175787743Y-110456066D02*
G01*
X175787743Y-60954402D01*
X177234333Y-60954402D01*
X177234333Y-114443019D01*
X176140568Y-114443019D01*
X163544632Y-89357006D01*
X150948700Y-114443019D01*
X149325699Y-114443019D01*
X162733131Y-87733997D01*
X149325699Y-60954402D01*
X150948700Y-60954402D01*
X175787743Y-110456066D01*
G37*
D14*
X88039923Y-69553800D02*
X87582781Y-69553800D01*
X87297066Y-69553800D02*
X86839924Y-69553800D01*
X86582781Y-69753800D02*
X86497067Y-69782371D01*
X86497067Y-69782371D02*
X86354209Y-69782371D01*
X86354209Y-69782371D02*
X86297067Y-69753800D01*
X86297067Y-69753800D02*
X86268495Y-69725228D01*
X86268495Y-69725228D02*
X86239924Y-69668085D01*
X86239924Y-69668085D02*
X86239924Y-69610942D01*
X86239924Y-69610942D02*
X86268495Y-69553800D01*
X86268495Y-69553800D02*
X86297067Y-69525228D01*
X86297067Y-69525228D02*
X86354209Y-69496657D01*
X86354209Y-69496657D02*
X86468495Y-69468085D01*
X86468495Y-69468085D02*
X86525638Y-69439514D01*
X86525638Y-69439514D02*
X86554209Y-69410942D01*
X86554209Y-69410942D02*
X86582781Y-69353800D01*
X86582781Y-69353800D02*
X86582781Y-69296657D01*
X86582781Y-69296657D02*
X86554209Y-69239514D01*
X86554209Y-69239514D02*
X86525638Y-69210942D01*
X86525638Y-69210942D02*
X86468495Y-69182371D01*
X86468495Y-69182371D02*
X86325638Y-69182371D01*
X86325638Y-69182371D02*
X86239924Y-69210942D01*
X85639923Y-69725228D02*
X85668495Y-69753800D01*
X85668495Y-69753800D02*
X85754209Y-69782371D01*
X85754209Y-69782371D02*
X85811352Y-69782371D01*
X85811352Y-69782371D02*
X85897066Y-69753800D01*
X85897066Y-69753800D02*
X85954209Y-69696657D01*
X85954209Y-69696657D02*
X85982780Y-69639514D01*
X85982780Y-69639514D02*
X86011352Y-69525228D01*
X86011352Y-69525228D02*
X86011352Y-69439514D01*
X86011352Y-69439514D02*
X85982780Y-69325228D01*
X85982780Y-69325228D02*
X85954209Y-69268085D01*
X85954209Y-69268085D02*
X85897066Y-69210942D01*
X85897066Y-69210942D02*
X85811352Y-69182371D01*
X85811352Y-69182371D02*
X85754209Y-69182371D01*
X85754209Y-69182371D02*
X85668495Y-69210942D01*
X85668495Y-69210942D02*
X85639923Y-69239514D01*
X85097066Y-69782371D02*
X85382780Y-69782371D01*
X85382780Y-69782371D02*
X85382780Y-69182371D01*
D10*
X101690475Y-120593247D02*
X101423809Y-120593247D01*
X101309523Y-121012295D02*
X101690475Y-121012295D01*
X101690475Y-121012295D02*
X101690475Y-120212295D01*
X101690475Y-120212295D02*
X101309523Y-120212295D01*
X100966665Y-121012295D02*
X100966665Y-120212295D01*
X100966665Y-120212295D02*
X100509522Y-121012295D01*
X100509522Y-121012295D02*
X100509522Y-120212295D01*
X99671427Y-120936104D02*
X99709523Y-120974200D01*
X99709523Y-120974200D02*
X99823808Y-121012295D01*
X99823808Y-121012295D02*
X99899999Y-121012295D01*
X99899999Y-121012295D02*
X100014285Y-120974200D01*
X100014285Y-120974200D02*
X100090475Y-120898009D01*
X100090475Y-120898009D02*
X100128570Y-120821819D01*
X100128570Y-120821819D02*
X100166666Y-120669438D01*
X100166666Y-120669438D02*
X100166666Y-120555152D01*
X100166666Y-120555152D02*
X100128570Y-120402771D01*
X100128570Y-120402771D02*
X100090475Y-120326580D01*
X100090475Y-120326580D02*
X100014285Y-120250390D01*
X100014285Y-120250390D02*
X99899999Y-120212295D01*
X99899999Y-120212295D02*
X99823808Y-120212295D01*
X99823808Y-120212295D02*
X99709523Y-120250390D01*
X99709523Y-120250390D02*
X99671427Y-120288485D01*
D14*
X88039923Y-67013800D02*
X87582781Y-67013800D01*
X87297066Y-67013800D02*
X86839924Y-67013800D01*
X86582781Y-67213800D02*
X86497067Y-67242371D01*
X86497067Y-67242371D02*
X86354209Y-67242371D01*
X86354209Y-67242371D02*
X86297067Y-67213800D01*
X86297067Y-67213800D02*
X86268495Y-67185228D01*
X86268495Y-67185228D02*
X86239924Y-67128085D01*
X86239924Y-67128085D02*
X86239924Y-67070942D01*
X86239924Y-67070942D02*
X86268495Y-67013800D01*
X86268495Y-67013800D02*
X86297067Y-66985228D01*
X86297067Y-66985228D02*
X86354209Y-66956657D01*
X86354209Y-66956657D02*
X86468495Y-66928085D01*
X86468495Y-66928085D02*
X86525638Y-66899514D01*
X86525638Y-66899514D02*
X86554209Y-66870942D01*
X86554209Y-66870942D02*
X86582781Y-66813800D01*
X86582781Y-66813800D02*
X86582781Y-66756657D01*
X86582781Y-66756657D02*
X86554209Y-66699514D01*
X86554209Y-66699514D02*
X86525638Y-66670942D01*
X86525638Y-66670942D02*
X86468495Y-66642371D01*
X86468495Y-66642371D02*
X86325638Y-66642371D01*
X86325638Y-66642371D02*
X86239924Y-66670942D01*
X85982780Y-67242371D02*
X85982780Y-66642371D01*
X85982780Y-66642371D02*
X85839923Y-66642371D01*
X85839923Y-66642371D02*
X85754209Y-66670942D01*
X85754209Y-66670942D02*
X85697066Y-66728085D01*
X85697066Y-66728085D02*
X85668495Y-66785228D01*
X85668495Y-66785228D02*
X85639923Y-66899514D01*
X85639923Y-66899514D02*
X85639923Y-66985228D01*
X85639923Y-66985228D02*
X85668495Y-67099514D01*
X85668495Y-67099514D02*
X85697066Y-67156657D01*
X85697066Y-67156657D02*
X85754209Y-67213800D01*
X85754209Y-67213800D02*
X85839923Y-67242371D01*
X85839923Y-67242371D02*
X85982780Y-67242371D01*
X85411352Y-67070942D02*
X85125638Y-67070942D01*
X85468495Y-67242371D02*
X85268495Y-66642371D01*
X85268495Y-66642371D02*
X85068495Y-67242371D01*
X107900072Y-84975228D02*
X107928644Y-85003800D01*
X107928644Y-85003800D02*
X108014358Y-85032371D01*
X108014358Y-85032371D02*
X108071501Y-85032371D01*
X108071501Y-85032371D02*
X108157215Y-85003800D01*
X108157215Y-85003800D02*
X108214358Y-84946657D01*
X108214358Y-84946657D02*
X108242929Y-84889514D01*
X108242929Y-84889514D02*
X108271501Y-84775228D01*
X108271501Y-84775228D02*
X108271501Y-84689514D01*
X108271501Y-84689514D02*
X108242929Y-84575228D01*
X108242929Y-84575228D02*
X108214358Y-84518085D01*
X108214358Y-84518085D02*
X108157215Y-84460942D01*
X108157215Y-84460942D02*
X108071501Y-84432371D01*
X108071501Y-84432371D02*
X108014358Y-84432371D01*
X108014358Y-84432371D02*
X107928644Y-84460942D01*
X107928644Y-84460942D02*
X107900072Y-84489514D01*
X107528644Y-84432371D02*
X107414358Y-84432371D01*
X107414358Y-84432371D02*
X107357215Y-84460942D01*
X107357215Y-84460942D02*
X107300072Y-84518085D01*
X107300072Y-84518085D02*
X107271501Y-84632371D01*
X107271501Y-84632371D02*
X107271501Y-84832371D01*
X107271501Y-84832371D02*
X107300072Y-84946657D01*
X107300072Y-84946657D02*
X107357215Y-85003800D01*
X107357215Y-85003800D02*
X107414358Y-85032371D01*
X107414358Y-85032371D02*
X107528644Y-85032371D01*
X107528644Y-85032371D02*
X107585787Y-85003800D01*
X107585787Y-85003800D02*
X107642929Y-84946657D01*
X107642929Y-84946657D02*
X107671501Y-84832371D01*
X107671501Y-84832371D02*
X107671501Y-84632371D01*
X107671501Y-84632371D02*
X107642929Y-84518085D01*
X107642929Y-84518085D02*
X107585787Y-84460942D01*
X107585787Y-84460942D02*
X107528644Y-84432371D01*
X106728644Y-85032371D02*
X107014358Y-85032371D01*
X107014358Y-85032371D02*
X107014358Y-84432371D01*
X106242930Y-84432371D02*
X106528644Y-84432371D01*
X106528644Y-84432371D02*
X106557216Y-84718085D01*
X106557216Y-84718085D02*
X106528644Y-84689514D01*
X106528644Y-84689514D02*
X106471502Y-84660942D01*
X106471502Y-84660942D02*
X106328644Y-84660942D01*
X106328644Y-84660942D02*
X106271502Y-84689514D01*
X106271502Y-84689514D02*
X106242930Y-84718085D01*
X106242930Y-84718085D02*
X106214359Y-84775228D01*
X106214359Y-84775228D02*
X106214359Y-84918085D01*
X106214359Y-84918085D02*
X106242930Y-84975228D01*
X106242930Y-84975228D02*
X106271502Y-85003800D01*
X106271502Y-85003800D02*
X106328644Y-85032371D01*
X106328644Y-85032371D02*
X106471502Y-85032371D01*
X106471502Y-85032371D02*
X106528644Y-85003800D01*
X106528644Y-85003800D02*
X106557216Y-84975228D01*
X105957215Y-84803800D02*
X105500073Y-84803800D01*
X105214358Y-84803800D02*
X104757216Y-84803800D01*
D10*
X86013094Y-123187295D02*
X86279761Y-122806342D01*
X86470237Y-123187295D02*
X86470237Y-122387295D01*
X86470237Y-122387295D02*
X86165475Y-122387295D01*
X86165475Y-122387295D02*
X86089285Y-122425390D01*
X86089285Y-122425390D02*
X86051190Y-122463485D01*
X86051190Y-122463485D02*
X86013094Y-122539676D01*
X86013094Y-122539676D02*
X86013094Y-122653961D01*
X86013094Y-122653961D02*
X86051190Y-122730152D01*
X86051190Y-122730152D02*
X86089285Y-122768247D01*
X86089285Y-122768247D02*
X86165475Y-122806342D01*
X86165475Y-122806342D02*
X86470237Y-122806342D01*
X85708333Y-123149200D02*
X85594047Y-123187295D01*
X85594047Y-123187295D02*
X85403571Y-123187295D01*
X85403571Y-123187295D02*
X85327380Y-123149200D01*
X85327380Y-123149200D02*
X85289285Y-123111104D01*
X85289285Y-123111104D02*
X85251190Y-123034914D01*
X85251190Y-123034914D02*
X85251190Y-122958723D01*
X85251190Y-122958723D02*
X85289285Y-122882533D01*
X85289285Y-122882533D02*
X85327380Y-122844438D01*
X85327380Y-122844438D02*
X85403571Y-122806342D01*
X85403571Y-122806342D02*
X85555952Y-122768247D01*
X85555952Y-122768247D02*
X85632142Y-122730152D01*
X85632142Y-122730152D02*
X85670237Y-122692057D01*
X85670237Y-122692057D02*
X85708333Y-122615866D01*
X85708333Y-122615866D02*
X85708333Y-122539676D01*
X85708333Y-122539676D02*
X85670237Y-122463485D01*
X85670237Y-122463485D02*
X85632142Y-122425390D01*
X85632142Y-122425390D02*
X85555952Y-122387295D01*
X85555952Y-122387295D02*
X85365475Y-122387295D01*
X85365475Y-122387295D02*
X85251190Y-122425390D01*
X85022618Y-122387295D02*
X84565475Y-122387295D01*
X84794047Y-123187295D02*
X84794047Y-122387295D01*
D11*
X144021286Y-115462911D02*
X143767286Y-116224911D01*
X143767286Y-116224911D02*
X143513286Y-115462911D01*
X142823857Y-116152340D02*
X142860143Y-116188626D01*
X142860143Y-116188626D02*
X142969000Y-116224911D01*
X142969000Y-116224911D02*
X143041572Y-116224911D01*
X143041572Y-116224911D02*
X143150429Y-116188626D01*
X143150429Y-116188626D02*
X143223000Y-116116054D01*
X143223000Y-116116054D02*
X143259286Y-116043483D01*
X143259286Y-116043483D02*
X143295572Y-115898340D01*
X143295572Y-115898340D02*
X143295572Y-115789483D01*
X143295572Y-115789483D02*
X143259286Y-115644340D01*
X143259286Y-115644340D02*
X143223000Y-115571768D01*
X143223000Y-115571768D02*
X143150429Y-115499197D01*
X143150429Y-115499197D02*
X143041572Y-115462911D01*
X143041572Y-115462911D02*
X142969000Y-115462911D01*
X142969000Y-115462911D02*
X142860143Y-115499197D01*
X142860143Y-115499197D02*
X142823857Y-115535483D01*
X142061857Y-116152340D02*
X142098143Y-116188626D01*
X142098143Y-116188626D02*
X142207000Y-116224911D01*
X142207000Y-116224911D02*
X142279572Y-116224911D01*
X142279572Y-116224911D02*
X142388429Y-116188626D01*
X142388429Y-116188626D02*
X142461000Y-116116054D01*
X142461000Y-116116054D02*
X142497286Y-116043483D01*
X142497286Y-116043483D02*
X142533572Y-115898340D01*
X142533572Y-115898340D02*
X142533572Y-115789483D01*
X142533572Y-115789483D02*
X142497286Y-115644340D01*
X142497286Y-115644340D02*
X142461000Y-115571768D01*
X142461000Y-115571768D02*
X142388429Y-115499197D01*
X142388429Y-115499197D02*
X142279572Y-115462911D01*
X142279572Y-115462911D02*
X142207000Y-115462911D01*
X142207000Y-115462911D02*
X142098143Y-115499197D01*
X142098143Y-115499197D02*
X142061857Y-115535483D01*
X101139945Y-103925626D02*
X101031088Y-103961911D01*
X101031088Y-103961911D02*
X100849659Y-103961911D01*
X100849659Y-103961911D02*
X100777088Y-103925626D01*
X100777088Y-103925626D02*
X100740802Y-103889340D01*
X100740802Y-103889340D02*
X100704516Y-103816768D01*
X100704516Y-103816768D02*
X100704516Y-103744197D01*
X100704516Y-103744197D02*
X100740802Y-103671626D01*
X100740802Y-103671626D02*
X100777088Y-103635340D01*
X100777088Y-103635340D02*
X100849659Y-103599054D01*
X100849659Y-103599054D02*
X100994802Y-103562768D01*
X100994802Y-103562768D02*
X101067373Y-103526483D01*
X101067373Y-103526483D02*
X101103659Y-103490197D01*
X101103659Y-103490197D02*
X101139945Y-103417626D01*
X101139945Y-103417626D02*
X101139945Y-103345054D01*
X101139945Y-103345054D02*
X101103659Y-103272483D01*
X101103659Y-103272483D02*
X101067373Y-103236197D01*
X101067373Y-103236197D02*
X100994802Y-103199911D01*
X100994802Y-103199911D02*
X100813373Y-103199911D01*
X100813373Y-103199911D02*
X100704516Y-103236197D01*
X100377945Y-103961911D02*
X100377945Y-103199911D01*
X100377945Y-103199911D02*
X100196516Y-103199911D01*
X100196516Y-103199911D02*
X100087659Y-103236197D01*
X100087659Y-103236197D02*
X100015088Y-103308768D01*
X100015088Y-103308768D02*
X99978802Y-103381340D01*
X99978802Y-103381340D02*
X99942516Y-103526483D01*
X99942516Y-103526483D02*
X99942516Y-103635340D01*
X99942516Y-103635340D02*
X99978802Y-103780483D01*
X99978802Y-103780483D02*
X100015088Y-103853054D01*
X100015088Y-103853054D02*
X100087659Y-103925626D01*
X100087659Y-103925626D02*
X100196516Y-103961911D01*
X100196516Y-103961911D02*
X100377945Y-103961911D01*
X99652231Y-103744197D02*
X99289374Y-103744197D01*
X99724802Y-103961911D02*
X99470802Y-103199911D01*
X99470802Y-103199911D02*
X99216802Y-103961911D01*
D14*
X88039923Y-82253800D02*
X87582781Y-82253800D01*
X87297066Y-82253800D02*
X86839924Y-82253800D01*
X86211352Y-82482371D02*
X86411352Y-82196657D01*
X86554209Y-82482371D02*
X86554209Y-81882371D01*
X86554209Y-81882371D02*
X86325638Y-81882371D01*
X86325638Y-81882371D02*
X86268495Y-81910942D01*
X86268495Y-81910942D02*
X86239924Y-81939514D01*
X86239924Y-81939514D02*
X86211352Y-81996657D01*
X86211352Y-81996657D02*
X86211352Y-82082371D01*
X86211352Y-82082371D02*
X86239924Y-82139514D01*
X86239924Y-82139514D02*
X86268495Y-82168085D01*
X86268495Y-82168085D02*
X86325638Y-82196657D01*
X86325638Y-82196657D02*
X86554209Y-82196657D01*
X85839924Y-81882371D02*
X85725638Y-81882371D01*
X85725638Y-81882371D02*
X85668495Y-81910942D01*
X85668495Y-81910942D02*
X85611352Y-81968085D01*
X85611352Y-81968085D02*
X85582781Y-82082371D01*
X85582781Y-82082371D02*
X85582781Y-82282371D01*
X85582781Y-82282371D02*
X85611352Y-82396657D01*
X85611352Y-82396657D02*
X85668495Y-82453800D01*
X85668495Y-82453800D02*
X85725638Y-82482371D01*
X85725638Y-82482371D02*
X85839924Y-82482371D01*
X85839924Y-82482371D02*
X85897067Y-82453800D01*
X85897067Y-82453800D02*
X85954209Y-82396657D01*
X85954209Y-82396657D02*
X85982781Y-82282371D01*
X85982781Y-82282371D02*
X85982781Y-82082371D01*
X85982781Y-82082371D02*
X85954209Y-81968085D01*
X85954209Y-81968085D02*
X85897067Y-81910942D01*
X85897067Y-81910942D02*
X85839924Y-81882371D01*
X85382781Y-81882371D02*
X85239924Y-82482371D01*
X85239924Y-82482371D02*
X85125638Y-82053800D01*
X85125638Y-82053800D02*
X85011353Y-82482371D01*
X85011353Y-82482371D02*
X84868496Y-81882371D01*
X84697067Y-81882371D02*
X84325639Y-81882371D01*
X84325639Y-81882371D02*
X84525639Y-82110942D01*
X84525639Y-82110942D02*
X84439924Y-82110942D01*
X84439924Y-82110942D02*
X84382782Y-82139514D01*
X84382782Y-82139514D02*
X84354210Y-82168085D01*
X84354210Y-82168085D02*
X84325639Y-82225228D01*
X84325639Y-82225228D02*
X84325639Y-82368085D01*
X84325639Y-82368085D02*
X84354210Y-82425228D01*
X84354210Y-82425228D02*
X84382782Y-82453800D01*
X84382782Y-82453800D02*
X84439924Y-82482371D01*
X84439924Y-82482371D02*
X84611353Y-82482371D01*
X84611353Y-82482371D02*
X84668496Y-82453800D01*
X84668496Y-82453800D02*
X84697067Y-82425228D01*
D11*
X198522857Y-54359626D02*
X198414000Y-54395911D01*
X198414000Y-54395911D02*
X198232571Y-54395911D01*
X198232571Y-54395911D02*
X198160000Y-54359626D01*
X198160000Y-54359626D02*
X198123714Y-54323340D01*
X198123714Y-54323340D02*
X198087428Y-54250768D01*
X198087428Y-54250768D02*
X198087428Y-54178197D01*
X198087428Y-54178197D02*
X198123714Y-54105626D01*
X198123714Y-54105626D02*
X198160000Y-54069340D01*
X198160000Y-54069340D02*
X198232571Y-54033054D01*
X198232571Y-54033054D02*
X198377714Y-53996768D01*
X198377714Y-53996768D02*
X198450285Y-53960483D01*
X198450285Y-53960483D02*
X198486571Y-53924197D01*
X198486571Y-53924197D02*
X198522857Y-53851626D01*
X198522857Y-53851626D02*
X198522857Y-53779054D01*
X198522857Y-53779054D02*
X198486571Y-53706483D01*
X198486571Y-53706483D02*
X198450285Y-53670197D01*
X198450285Y-53670197D02*
X198377714Y-53633911D01*
X198377714Y-53633911D02*
X198196285Y-53633911D01*
X198196285Y-53633911D02*
X198087428Y-53670197D01*
X197760857Y-54395911D02*
X197760857Y-53633911D01*
X197760857Y-53633911D02*
X197579428Y-53633911D01*
X197579428Y-53633911D02*
X197470571Y-53670197D01*
X197470571Y-53670197D02*
X197398000Y-53742768D01*
X197398000Y-53742768D02*
X197361714Y-53815340D01*
X197361714Y-53815340D02*
X197325428Y-53960483D01*
X197325428Y-53960483D02*
X197325428Y-54069340D01*
X197325428Y-54069340D02*
X197361714Y-54214483D01*
X197361714Y-54214483D02*
X197398000Y-54287054D01*
X197398000Y-54287054D02*
X197470571Y-54359626D01*
X197470571Y-54359626D02*
X197579428Y-54395911D01*
X197579428Y-54395911D02*
X197760857Y-54395911D01*
X197035143Y-54178197D02*
X196672286Y-54178197D01*
X197107714Y-54395911D02*
X196853714Y-53633911D01*
X196853714Y-53633911D02*
X196599714Y-54395911D01*
X96130659Y-103249911D02*
X95876659Y-104011911D01*
X95876659Y-104011911D02*
X95622659Y-103249911D01*
X94933230Y-103939340D02*
X94969516Y-103975626D01*
X94969516Y-103975626D02*
X95078373Y-104011911D01*
X95078373Y-104011911D02*
X95150945Y-104011911D01*
X95150945Y-104011911D02*
X95259802Y-103975626D01*
X95259802Y-103975626D02*
X95332373Y-103903054D01*
X95332373Y-103903054D02*
X95368659Y-103830483D01*
X95368659Y-103830483D02*
X95404945Y-103685340D01*
X95404945Y-103685340D02*
X95404945Y-103576483D01*
X95404945Y-103576483D02*
X95368659Y-103431340D01*
X95368659Y-103431340D02*
X95332373Y-103358768D01*
X95332373Y-103358768D02*
X95259802Y-103286197D01*
X95259802Y-103286197D02*
X95150945Y-103249911D01*
X95150945Y-103249911D02*
X95078373Y-103249911D01*
X95078373Y-103249911D02*
X94969516Y-103286197D01*
X94969516Y-103286197D02*
X94933230Y-103322483D01*
X94171230Y-103939340D02*
X94207516Y-103975626D01*
X94207516Y-103975626D02*
X94316373Y-104011911D01*
X94316373Y-104011911D02*
X94388945Y-104011911D01*
X94388945Y-104011911D02*
X94497802Y-103975626D01*
X94497802Y-103975626D02*
X94570373Y-103903054D01*
X94570373Y-103903054D02*
X94606659Y-103830483D01*
X94606659Y-103830483D02*
X94642945Y-103685340D01*
X94642945Y-103685340D02*
X94642945Y-103576483D01*
X94642945Y-103576483D02*
X94606659Y-103431340D01*
X94606659Y-103431340D02*
X94570373Y-103358768D01*
X94570373Y-103358768D02*
X94497802Y-103286197D01*
X94497802Y-103286197D02*
X94388945Y-103249911D01*
X94388945Y-103249911D02*
X94316373Y-103249911D01*
X94316373Y-103249911D02*
X94207516Y-103286197D01*
X94207516Y-103286197D02*
X94171230Y-103322483D01*
X200993428Y-54359626D02*
X200884571Y-54395911D01*
X200884571Y-54395911D02*
X200703142Y-54395911D01*
X200703142Y-54395911D02*
X200630571Y-54359626D01*
X200630571Y-54359626D02*
X200594285Y-54323340D01*
X200594285Y-54323340D02*
X200557999Y-54250768D01*
X200557999Y-54250768D02*
X200557999Y-54178197D01*
X200557999Y-54178197D02*
X200594285Y-54105626D01*
X200594285Y-54105626D02*
X200630571Y-54069340D01*
X200630571Y-54069340D02*
X200703142Y-54033054D01*
X200703142Y-54033054D02*
X200848285Y-53996768D01*
X200848285Y-53996768D02*
X200920856Y-53960483D01*
X200920856Y-53960483D02*
X200957142Y-53924197D01*
X200957142Y-53924197D02*
X200993428Y-53851626D01*
X200993428Y-53851626D02*
X200993428Y-53779054D01*
X200993428Y-53779054D02*
X200957142Y-53706483D01*
X200957142Y-53706483D02*
X200920856Y-53670197D01*
X200920856Y-53670197D02*
X200848285Y-53633911D01*
X200848285Y-53633911D02*
X200666856Y-53633911D01*
X200666856Y-53633911D02*
X200557999Y-53670197D01*
X199795999Y-54323340D02*
X199832285Y-54359626D01*
X199832285Y-54359626D02*
X199941142Y-54395911D01*
X199941142Y-54395911D02*
X200013714Y-54395911D01*
X200013714Y-54395911D02*
X200122571Y-54359626D01*
X200122571Y-54359626D02*
X200195142Y-54287054D01*
X200195142Y-54287054D02*
X200231428Y-54214483D01*
X200231428Y-54214483D02*
X200267714Y-54069340D01*
X200267714Y-54069340D02*
X200267714Y-53960483D01*
X200267714Y-53960483D02*
X200231428Y-53815340D01*
X200231428Y-53815340D02*
X200195142Y-53742768D01*
X200195142Y-53742768D02*
X200122571Y-53670197D01*
X200122571Y-53670197D02*
X200013714Y-53633911D01*
X200013714Y-53633911D02*
X199941142Y-53633911D01*
X199941142Y-53633911D02*
X199832285Y-53670197D01*
X199832285Y-53670197D02*
X199795999Y-53706483D01*
X199106571Y-54395911D02*
X199469428Y-54395911D01*
X199469428Y-54395911D02*
X199469428Y-53633911D01*
D14*
X107900072Y-82435228D02*
X107928644Y-82463800D01*
X107928644Y-82463800D02*
X108014358Y-82492371D01*
X108014358Y-82492371D02*
X108071501Y-82492371D01*
X108071501Y-82492371D02*
X108157215Y-82463800D01*
X108157215Y-82463800D02*
X108214358Y-82406657D01*
X108214358Y-82406657D02*
X108242929Y-82349514D01*
X108242929Y-82349514D02*
X108271501Y-82235228D01*
X108271501Y-82235228D02*
X108271501Y-82149514D01*
X108271501Y-82149514D02*
X108242929Y-82035228D01*
X108242929Y-82035228D02*
X108214358Y-81978085D01*
X108214358Y-81978085D02*
X108157215Y-81920942D01*
X108157215Y-81920942D02*
X108071501Y-81892371D01*
X108071501Y-81892371D02*
X108014358Y-81892371D01*
X108014358Y-81892371D02*
X107928644Y-81920942D01*
X107928644Y-81920942D02*
X107900072Y-81949514D01*
X107528644Y-81892371D02*
X107414358Y-81892371D01*
X107414358Y-81892371D02*
X107357215Y-81920942D01*
X107357215Y-81920942D02*
X107300072Y-81978085D01*
X107300072Y-81978085D02*
X107271501Y-82092371D01*
X107271501Y-82092371D02*
X107271501Y-82292371D01*
X107271501Y-82292371D02*
X107300072Y-82406657D01*
X107300072Y-82406657D02*
X107357215Y-82463800D01*
X107357215Y-82463800D02*
X107414358Y-82492371D01*
X107414358Y-82492371D02*
X107528644Y-82492371D01*
X107528644Y-82492371D02*
X107585787Y-82463800D01*
X107585787Y-82463800D02*
X107642929Y-82406657D01*
X107642929Y-82406657D02*
X107671501Y-82292371D01*
X107671501Y-82292371D02*
X107671501Y-82092371D01*
X107671501Y-82092371D02*
X107642929Y-81978085D01*
X107642929Y-81978085D02*
X107585787Y-81920942D01*
X107585787Y-81920942D02*
X107528644Y-81892371D01*
X106728644Y-82492371D02*
X107014358Y-82492371D01*
X107014358Y-82492371D02*
X107014358Y-81892371D01*
X106271502Y-82092371D02*
X106271502Y-82492371D01*
X106414359Y-81863800D02*
X106557216Y-82292371D01*
X106557216Y-82292371D02*
X106185787Y-82292371D01*
X105957215Y-82263800D02*
X105500073Y-82263800D01*
X105214358Y-82263800D02*
X104757216Y-82263800D01*
X107905072Y-74815228D02*
X107933644Y-74843800D01*
X107933644Y-74843800D02*
X108019358Y-74872371D01*
X108019358Y-74872371D02*
X108076501Y-74872371D01*
X108076501Y-74872371D02*
X108162215Y-74843800D01*
X108162215Y-74843800D02*
X108219358Y-74786657D01*
X108219358Y-74786657D02*
X108247929Y-74729514D01*
X108247929Y-74729514D02*
X108276501Y-74615228D01*
X108276501Y-74615228D02*
X108276501Y-74529514D01*
X108276501Y-74529514D02*
X108247929Y-74415228D01*
X108247929Y-74415228D02*
X108219358Y-74358085D01*
X108219358Y-74358085D02*
X108162215Y-74300942D01*
X108162215Y-74300942D02*
X108076501Y-74272371D01*
X108076501Y-74272371D02*
X108019358Y-74272371D01*
X108019358Y-74272371D02*
X107933644Y-74300942D01*
X107933644Y-74300942D02*
X107905072Y-74329514D01*
X107533644Y-74272371D02*
X107419358Y-74272371D01*
X107419358Y-74272371D02*
X107362215Y-74300942D01*
X107362215Y-74300942D02*
X107305072Y-74358085D01*
X107305072Y-74358085D02*
X107276501Y-74472371D01*
X107276501Y-74472371D02*
X107276501Y-74672371D01*
X107276501Y-74672371D02*
X107305072Y-74786657D01*
X107305072Y-74786657D02*
X107362215Y-74843800D01*
X107362215Y-74843800D02*
X107419358Y-74872371D01*
X107419358Y-74872371D02*
X107533644Y-74872371D01*
X107533644Y-74872371D02*
X107590787Y-74843800D01*
X107590787Y-74843800D02*
X107647929Y-74786657D01*
X107647929Y-74786657D02*
X107676501Y-74672371D01*
X107676501Y-74672371D02*
X107676501Y-74472371D01*
X107676501Y-74472371D02*
X107647929Y-74358085D01*
X107647929Y-74358085D02*
X107590787Y-74300942D01*
X107590787Y-74300942D02*
X107533644Y-74272371D01*
X106733644Y-74872371D02*
X107019358Y-74872371D01*
X107019358Y-74872371D02*
X107019358Y-74272371D01*
X106219359Y-74872371D02*
X106562216Y-74872371D01*
X106390787Y-74872371D02*
X106390787Y-74272371D01*
X106390787Y-74272371D02*
X106447930Y-74358085D01*
X106447930Y-74358085D02*
X106505073Y-74415228D01*
X106505073Y-74415228D02*
X106562216Y-74443800D01*
X105962215Y-74643800D02*
X105505073Y-74643800D01*
X105219358Y-74643800D02*
X104762216Y-74643800D01*
D10*
X158752256Y-110893247D02*
X158637970Y-110931342D01*
X158637970Y-110931342D02*
X158599875Y-110969438D01*
X158599875Y-110969438D02*
X158561779Y-111045628D01*
X158561779Y-111045628D02*
X158561779Y-111159914D01*
X158561779Y-111159914D02*
X158599875Y-111236104D01*
X158599875Y-111236104D02*
X158637970Y-111274200D01*
X158637970Y-111274200D02*
X158714160Y-111312295D01*
X158714160Y-111312295D02*
X159018922Y-111312295D01*
X159018922Y-111312295D02*
X159018922Y-110512295D01*
X159018922Y-110512295D02*
X158752256Y-110512295D01*
X158752256Y-110512295D02*
X158676065Y-110550390D01*
X158676065Y-110550390D02*
X158637970Y-110588485D01*
X158637970Y-110588485D02*
X158599875Y-110664676D01*
X158599875Y-110664676D02*
X158599875Y-110740866D01*
X158599875Y-110740866D02*
X158637970Y-110817057D01*
X158637970Y-110817057D02*
X158676065Y-110855152D01*
X158676065Y-110855152D02*
X158752256Y-110893247D01*
X158752256Y-110893247D02*
X159018922Y-110893247D01*
X158218922Y-110512295D02*
X158218922Y-111159914D01*
X158218922Y-111159914D02*
X158180827Y-111236104D01*
X158180827Y-111236104D02*
X158142732Y-111274200D01*
X158142732Y-111274200D02*
X158066541Y-111312295D01*
X158066541Y-111312295D02*
X157914160Y-111312295D01*
X157914160Y-111312295D02*
X157837970Y-111274200D01*
X157837970Y-111274200D02*
X157799875Y-111236104D01*
X157799875Y-111236104D02*
X157761779Y-111159914D01*
X157761779Y-111159914D02*
X157761779Y-110512295D01*
X157457018Y-110512295D02*
X156923684Y-110512295D01*
X156923684Y-110512295D02*
X157457018Y-111312295D01*
X157457018Y-111312295D02*
X156923684Y-111312295D01*
X156695113Y-110512295D02*
X156161779Y-110512295D01*
X156161779Y-110512295D02*
X156695113Y-111312295D01*
X156695113Y-111312295D02*
X156161779Y-111312295D01*
X155857017Y-110893247D02*
X155590351Y-110893247D01*
X155476065Y-111312295D02*
X155857017Y-111312295D01*
X155857017Y-111312295D02*
X155857017Y-110512295D01*
X155857017Y-110512295D02*
X155476065Y-110512295D01*
X154676064Y-111312295D02*
X154942731Y-110931342D01*
X155133207Y-111312295D02*
X155133207Y-110512295D01*
X155133207Y-110512295D02*
X154828445Y-110512295D01*
X154828445Y-110512295D02*
X154752255Y-110550390D01*
X154752255Y-110550390D02*
X154714160Y-110588485D01*
X154714160Y-110588485D02*
X154676064Y-110664676D01*
X154676064Y-110664676D02*
X154676064Y-110778961D01*
X154676064Y-110778961D02*
X154714160Y-110855152D01*
X154714160Y-110855152D02*
X154752255Y-110893247D01*
X154752255Y-110893247D02*
X154828445Y-110931342D01*
X154828445Y-110931342D02*
X155133207Y-110931342D01*
D14*
X108700072Y-66938085D02*
X108500072Y-66938085D01*
X108414358Y-67252371D02*
X108700072Y-67252371D01*
X108700072Y-67252371D02*
X108700072Y-66652371D01*
X108700072Y-66652371D02*
X108414358Y-66652371D01*
X108157215Y-67252371D02*
X108157215Y-66652371D01*
X108157215Y-66652371D02*
X107814358Y-67252371D01*
X107814358Y-67252371D02*
X107814358Y-66652371D01*
X107185787Y-67195228D02*
X107214359Y-67223800D01*
X107214359Y-67223800D02*
X107300073Y-67252371D01*
X107300073Y-67252371D02*
X107357216Y-67252371D01*
X107357216Y-67252371D02*
X107442930Y-67223800D01*
X107442930Y-67223800D02*
X107500073Y-67166657D01*
X107500073Y-67166657D02*
X107528644Y-67109514D01*
X107528644Y-67109514D02*
X107557216Y-66995228D01*
X107557216Y-66995228D02*
X107557216Y-66909514D01*
X107557216Y-66909514D02*
X107528644Y-66795228D01*
X107528644Y-66795228D02*
X107500073Y-66738085D01*
X107500073Y-66738085D02*
X107442930Y-66680942D01*
X107442930Y-66680942D02*
X107357216Y-66652371D01*
X107357216Y-66652371D02*
X107300073Y-66652371D01*
X107300073Y-66652371D02*
X107214359Y-66680942D01*
X107214359Y-66680942D02*
X107185787Y-66709514D01*
X106500073Y-67080942D02*
X106214359Y-67080942D01*
X106557216Y-67252371D02*
X106357216Y-66652371D01*
X106357216Y-66652371D02*
X106157216Y-67252371D01*
X105957215Y-67023800D02*
X105500073Y-67023800D01*
X105214358Y-67023800D02*
X104757216Y-67023800D01*
X88039923Y-74633800D02*
X87582781Y-74633800D01*
X87297066Y-74633800D02*
X86839924Y-74633800D01*
X86211352Y-74862371D02*
X86411352Y-74576657D01*
X86554209Y-74862371D02*
X86554209Y-74262371D01*
X86554209Y-74262371D02*
X86325638Y-74262371D01*
X86325638Y-74262371D02*
X86268495Y-74290942D01*
X86268495Y-74290942D02*
X86239924Y-74319514D01*
X86239924Y-74319514D02*
X86211352Y-74376657D01*
X86211352Y-74376657D02*
X86211352Y-74462371D01*
X86211352Y-74462371D02*
X86239924Y-74519514D01*
X86239924Y-74519514D02*
X86268495Y-74548085D01*
X86268495Y-74548085D02*
X86325638Y-74576657D01*
X86325638Y-74576657D02*
X86554209Y-74576657D01*
X85839924Y-74262371D02*
X85725638Y-74262371D01*
X85725638Y-74262371D02*
X85668495Y-74290942D01*
X85668495Y-74290942D02*
X85611352Y-74348085D01*
X85611352Y-74348085D02*
X85582781Y-74462371D01*
X85582781Y-74462371D02*
X85582781Y-74662371D01*
X85582781Y-74662371D02*
X85611352Y-74776657D01*
X85611352Y-74776657D02*
X85668495Y-74833800D01*
X85668495Y-74833800D02*
X85725638Y-74862371D01*
X85725638Y-74862371D02*
X85839924Y-74862371D01*
X85839924Y-74862371D02*
X85897067Y-74833800D01*
X85897067Y-74833800D02*
X85954209Y-74776657D01*
X85954209Y-74776657D02*
X85982781Y-74662371D01*
X85982781Y-74662371D02*
X85982781Y-74462371D01*
X85982781Y-74462371D02*
X85954209Y-74348085D01*
X85954209Y-74348085D02*
X85897067Y-74290942D01*
X85897067Y-74290942D02*
X85839924Y-74262371D01*
X85382781Y-74262371D02*
X85239924Y-74862371D01*
X85239924Y-74862371D02*
X85125638Y-74433800D01*
X85125638Y-74433800D02*
X85011353Y-74862371D01*
X85011353Y-74862371D02*
X84868496Y-74262371D01*
X84525639Y-74262371D02*
X84468496Y-74262371D01*
X84468496Y-74262371D02*
X84411353Y-74290942D01*
X84411353Y-74290942D02*
X84382782Y-74319514D01*
X84382782Y-74319514D02*
X84354210Y-74376657D01*
X84354210Y-74376657D02*
X84325639Y-74490942D01*
X84325639Y-74490942D02*
X84325639Y-74633800D01*
X84325639Y-74633800D02*
X84354210Y-74748085D01*
X84354210Y-74748085D02*
X84382782Y-74805228D01*
X84382782Y-74805228D02*
X84411353Y-74833800D01*
X84411353Y-74833800D02*
X84468496Y-74862371D01*
X84468496Y-74862371D02*
X84525639Y-74862371D01*
X84525639Y-74862371D02*
X84582782Y-74833800D01*
X84582782Y-74833800D02*
X84611353Y-74805228D01*
X84611353Y-74805228D02*
X84639924Y-74748085D01*
X84639924Y-74748085D02*
X84668496Y-74633800D01*
X84668496Y-74633800D02*
X84668496Y-74490942D01*
X84668496Y-74490942D02*
X84639924Y-74376657D01*
X84639924Y-74376657D02*
X84611353Y-74319514D01*
X84611353Y-74319514D02*
X84582782Y-74290942D01*
X84582782Y-74290942D02*
X84525639Y-74262371D01*
D10*
X90533458Y-103055485D02*
X90447744Y-103084057D01*
X90447744Y-103084057D02*
X90419173Y-103112628D01*
X90419173Y-103112628D02*
X90390601Y-103169771D01*
X90390601Y-103169771D02*
X90390601Y-103255485D01*
X90390601Y-103255485D02*
X90419173Y-103312628D01*
X90419173Y-103312628D02*
X90447744Y-103341200D01*
X90447744Y-103341200D02*
X90504887Y-103369771D01*
X90504887Y-103369771D02*
X90733458Y-103369771D01*
X90733458Y-103369771D02*
X90733458Y-102769771D01*
X90733458Y-102769771D02*
X90533458Y-102769771D01*
X90533458Y-102769771D02*
X90476316Y-102798342D01*
X90476316Y-102798342D02*
X90447744Y-102826914D01*
X90447744Y-102826914D02*
X90419173Y-102884057D01*
X90419173Y-102884057D02*
X90419173Y-102941200D01*
X90419173Y-102941200D02*
X90447744Y-102998342D01*
X90447744Y-102998342D02*
X90476316Y-103026914D01*
X90476316Y-103026914D02*
X90533458Y-103055485D01*
X90533458Y-103055485D02*
X90733458Y-103055485D01*
X89847744Y-103369771D02*
X90133458Y-103369771D01*
X90133458Y-103369771D02*
X90133458Y-102769771D01*
X89647744Y-103369771D02*
X89647744Y-102769771D01*
X89304887Y-103369771D02*
X89562030Y-103026914D01*
X89304887Y-102769771D02*
X89647744Y-103112628D01*
D14*
X107242930Y-62172371D02*
X107442930Y-61886657D01*
X107585787Y-62172371D02*
X107585787Y-61572371D01*
X107585787Y-61572371D02*
X107357216Y-61572371D01*
X107357216Y-61572371D02*
X107300073Y-61600942D01*
X107300073Y-61600942D02*
X107271502Y-61629514D01*
X107271502Y-61629514D02*
X107242930Y-61686657D01*
X107242930Y-61686657D02*
X107242930Y-61772371D01*
X107242930Y-61772371D02*
X107271502Y-61829514D01*
X107271502Y-61829514D02*
X107300073Y-61858085D01*
X107300073Y-61858085D02*
X107357216Y-61886657D01*
X107357216Y-61886657D02*
X107585787Y-61886657D01*
X107014359Y-62143800D02*
X106928645Y-62172371D01*
X106928645Y-62172371D02*
X106785787Y-62172371D01*
X106785787Y-62172371D02*
X106728645Y-62143800D01*
X106728645Y-62143800D02*
X106700073Y-62115228D01*
X106700073Y-62115228D02*
X106671502Y-62058085D01*
X106671502Y-62058085D02*
X106671502Y-62000942D01*
X106671502Y-62000942D02*
X106700073Y-61943800D01*
X106700073Y-61943800D02*
X106728645Y-61915228D01*
X106728645Y-61915228D02*
X106785787Y-61886657D01*
X106785787Y-61886657D02*
X106900073Y-61858085D01*
X106900073Y-61858085D02*
X106957216Y-61829514D01*
X106957216Y-61829514D02*
X106985787Y-61800942D01*
X106985787Y-61800942D02*
X107014359Y-61743800D01*
X107014359Y-61743800D02*
X107014359Y-61686657D01*
X107014359Y-61686657D02*
X106985787Y-61629514D01*
X106985787Y-61629514D02*
X106957216Y-61600942D01*
X106957216Y-61600942D02*
X106900073Y-61572371D01*
X106900073Y-61572371D02*
X106757216Y-61572371D01*
X106757216Y-61572371D02*
X106671502Y-61600942D01*
X106500073Y-61572371D02*
X106157216Y-61572371D01*
X106328644Y-62172371D02*
X106328644Y-61572371D01*
X105957215Y-61943800D02*
X105500073Y-61943800D01*
X105214358Y-61943800D02*
X104757216Y-61943800D01*
X107900072Y-72275228D02*
X107928644Y-72303800D01*
X107928644Y-72303800D02*
X108014358Y-72332371D01*
X108014358Y-72332371D02*
X108071501Y-72332371D01*
X108071501Y-72332371D02*
X108157215Y-72303800D01*
X108157215Y-72303800D02*
X108214358Y-72246657D01*
X108214358Y-72246657D02*
X108242929Y-72189514D01*
X108242929Y-72189514D02*
X108271501Y-72075228D01*
X108271501Y-72075228D02*
X108271501Y-71989514D01*
X108271501Y-71989514D02*
X108242929Y-71875228D01*
X108242929Y-71875228D02*
X108214358Y-71818085D01*
X108214358Y-71818085D02*
X108157215Y-71760942D01*
X108157215Y-71760942D02*
X108071501Y-71732371D01*
X108071501Y-71732371D02*
X108014358Y-71732371D01*
X108014358Y-71732371D02*
X107928644Y-71760942D01*
X107928644Y-71760942D02*
X107900072Y-71789514D01*
X107528644Y-71732371D02*
X107414358Y-71732371D01*
X107414358Y-71732371D02*
X107357215Y-71760942D01*
X107357215Y-71760942D02*
X107300072Y-71818085D01*
X107300072Y-71818085D02*
X107271501Y-71932371D01*
X107271501Y-71932371D02*
X107271501Y-72132371D01*
X107271501Y-72132371D02*
X107300072Y-72246657D01*
X107300072Y-72246657D02*
X107357215Y-72303800D01*
X107357215Y-72303800D02*
X107414358Y-72332371D01*
X107414358Y-72332371D02*
X107528644Y-72332371D01*
X107528644Y-72332371D02*
X107585787Y-72303800D01*
X107585787Y-72303800D02*
X107642929Y-72246657D01*
X107642929Y-72246657D02*
X107671501Y-72132371D01*
X107671501Y-72132371D02*
X107671501Y-71932371D01*
X107671501Y-71932371D02*
X107642929Y-71818085D01*
X107642929Y-71818085D02*
X107585787Y-71760942D01*
X107585787Y-71760942D02*
X107528644Y-71732371D01*
X106728644Y-72332371D02*
X107014358Y-72332371D01*
X107014358Y-72332371D02*
X107014358Y-71732371D01*
X106414359Y-71732371D02*
X106357216Y-71732371D01*
X106357216Y-71732371D02*
X106300073Y-71760942D01*
X106300073Y-71760942D02*
X106271502Y-71789514D01*
X106271502Y-71789514D02*
X106242930Y-71846657D01*
X106242930Y-71846657D02*
X106214359Y-71960942D01*
X106214359Y-71960942D02*
X106214359Y-72103800D01*
X106214359Y-72103800D02*
X106242930Y-72218085D01*
X106242930Y-72218085D02*
X106271502Y-72275228D01*
X106271502Y-72275228D02*
X106300073Y-72303800D01*
X106300073Y-72303800D02*
X106357216Y-72332371D01*
X106357216Y-72332371D02*
X106414359Y-72332371D01*
X106414359Y-72332371D02*
X106471502Y-72303800D01*
X106471502Y-72303800D02*
X106500073Y-72275228D01*
X106500073Y-72275228D02*
X106528644Y-72218085D01*
X106528644Y-72218085D02*
X106557216Y-72103800D01*
X106557216Y-72103800D02*
X106557216Y-71960942D01*
X106557216Y-71960942D02*
X106528644Y-71846657D01*
X106528644Y-71846657D02*
X106500073Y-71789514D01*
X106500073Y-71789514D02*
X106471502Y-71760942D01*
X106471502Y-71760942D02*
X106414359Y-71732371D01*
X105957215Y-72103800D02*
X105500073Y-72103800D01*
X105214358Y-72103800D02*
X104757216Y-72103800D01*
D10*
X97206681Y-78260839D02*
X98006681Y-78260839D01*
X98006681Y-78260839D02*
X97435253Y-77994173D01*
X97435253Y-77994173D02*
X98006681Y-77727506D01*
X98006681Y-77727506D02*
X97206681Y-77727506D01*
X98006681Y-77194172D02*
X98006681Y-77041791D01*
X98006681Y-77041791D02*
X97968586Y-76965601D01*
X97968586Y-76965601D02*
X97892396Y-76889410D01*
X97892396Y-76889410D02*
X97740015Y-76851315D01*
X97740015Y-76851315D02*
X97473348Y-76851315D01*
X97473348Y-76851315D02*
X97320967Y-76889410D01*
X97320967Y-76889410D02*
X97244777Y-76965601D01*
X97244777Y-76965601D02*
X97206681Y-77041791D01*
X97206681Y-77041791D02*
X97206681Y-77194172D01*
X97206681Y-77194172D02*
X97244777Y-77270363D01*
X97244777Y-77270363D02*
X97320967Y-77346553D01*
X97320967Y-77346553D02*
X97473348Y-77384649D01*
X97473348Y-77384649D02*
X97740015Y-77384649D01*
X97740015Y-77384649D02*
X97892396Y-77346553D01*
X97892396Y-77346553D02*
X97968586Y-77270363D01*
X97968586Y-77270363D02*
X98006681Y-77194172D01*
X98006681Y-76508458D02*
X97359062Y-76508458D01*
X97359062Y-76508458D02*
X97282872Y-76470363D01*
X97282872Y-76470363D02*
X97244777Y-76432268D01*
X97244777Y-76432268D02*
X97206681Y-76356077D01*
X97206681Y-76356077D02*
X97206681Y-76203696D01*
X97206681Y-76203696D02*
X97244777Y-76127506D01*
X97244777Y-76127506D02*
X97282872Y-76089411D01*
X97282872Y-76089411D02*
X97359062Y-76051315D01*
X97359062Y-76051315D02*
X98006681Y-76051315D01*
X97206681Y-75670363D02*
X98006681Y-75670363D01*
X98006681Y-75670363D02*
X97206681Y-75213220D01*
X97206681Y-75213220D02*
X98006681Y-75213220D01*
X98006681Y-74946554D02*
X98006681Y-74489411D01*
X97206681Y-74717983D02*
X98006681Y-74717983D01*
X97206681Y-73613220D02*
X98006681Y-73613220D01*
X98006681Y-73613220D02*
X97435253Y-73346554D01*
X97435253Y-73346554D02*
X98006681Y-73079887D01*
X98006681Y-73079887D02*
X97206681Y-73079887D01*
X97282872Y-72241791D02*
X97244777Y-72279887D01*
X97244777Y-72279887D02*
X97206681Y-72394172D01*
X97206681Y-72394172D02*
X97206681Y-72470363D01*
X97206681Y-72470363D02*
X97244777Y-72584649D01*
X97244777Y-72584649D02*
X97320967Y-72660839D01*
X97320967Y-72660839D02*
X97397157Y-72698934D01*
X97397157Y-72698934D02*
X97549538Y-72737030D01*
X97549538Y-72737030D02*
X97663824Y-72737030D01*
X97663824Y-72737030D02*
X97816205Y-72698934D01*
X97816205Y-72698934D02*
X97892396Y-72660839D01*
X97892396Y-72660839D02*
X97968586Y-72584649D01*
X97968586Y-72584649D02*
X98006681Y-72470363D01*
X98006681Y-72470363D02*
X98006681Y-72394172D01*
X98006681Y-72394172D02*
X97968586Y-72279887D01*
X97968586Y-72279887D02*
X97930491Y-72241791D01*
X98006681Y-71898934D02*
X97359062Y-71898934D01*
X97359062Y-71898934D02*
X97282872Y-71860839D01*
X97282872Y-71860839D02*
X97244777Y-71822744D01*
X97244777Y-71822744D02*
X97206681Y-71746553D01*
X97206681Y-71746553D02*
X97206681Y-71594172D01*
X97206681Y-71594172D02*
X97244777Y-71517982D01*
X97244777Y-71517982D02*
X97282872Y-71479887D01*
X97282872Y-71479887D02*
X97359062Y-71441791D01*
X97359062Y-71441791D02*
X98006681Y-71441791D01*
X98006681Y-70298934D02*
X98006681Y-70146553D01*
X98006681Y-70146553D02*
X97968586Y-70070363D01*
X97968586Y-70070363D02*
X97892396Y-69994172D01*
X97892396Y-69994172D02*
X97740015Y-69956077D01*
X97740015Y-69956077D02*
X97473348Y-69956077D01*
X97473348Y-69956077D02*
X97320967Y-69994172D01*
X97320967Y-69994172D02*
X97244777Y-70070363D01*
X97244777Y-70070363D02*
X97206681Y-70146553D01*
X97206681Y-70146553D02*
X97206681Y-70298934D01*
X97206681Y-70298934D02*
X97244777Y-70375125D01*
X97244777Y-70375125D02*
X97320967Y-70451315D01*
X97320967Y-70451315D02*
X97473348Y-70489411D01*
X97473348Y-70489411D02*
X97740015Y-70489411D01*
X97740015Y-70489411D02*
X97892396Y-70451315D01*
X97892396Y-70451315D02*
X97968586Y-70375125D01*
X97968586Y-70375125D02*
X98006681Y-70298934D01*
X97206681Y-69613220D02*
X98006681Y-69613220D01*
X98006681Y-69613220D02*
X97206681Y-69156077D01*
X97206681Y-69156077D02*
X98006681Y-69156077D01*
X97625729Y-67898935D02*
X97587634Y-67784649D01*
X97587634Y-67784649D02*
X97549538Y-67746554D01*
X97549538Y-67746554D02*
X97473348Y-67708458D01*
X97473348Y-67708458D02*
X97359062Y-67708458D01*
X97359062Y-67708458D02*
X97282872Y-67746554D01*
X97282872Y-67746554D02*
X97244777Y-67784649D01*
X97244777Y-67784649D02*
X97206681Y-67860839D01*
X97206681Y-67860839D02*
X97206681Y-68165601D01*
X97206681Y-68165601D02*
X98006681Y-68165601D01*
X98006681Y-68165601D02*
X98006681Y-67898935D01*
X98006681Y-67898935D02*
X97968586Y-67822744D01*
X97968586Y-67822744D02*
X97930491Y-67784649D01*
X97930491Y-67784649D02*
X97854300Y-67746554D01*
X97854300Y-67746554D02*
X97778110Y-67746554D01*
X97778110Y-67746554D02*
X97701919Y-67784649D01*
X97701919Y-67784649D02*
X97663824Y-67822744D01*
X97663824Y-67822744D02*
X97625729Y-67898935D01*
X97625729Y-67898935D02*
X97625729Y-68165601D01*
X98006681Y-67213220D02*
X98006681Y-67060839D01*
X98006681Y-67060839D02*
X97968586Y-66984649D01*
X97968586Y-66984649D02*
X97892396Y-66908458D01*
X97892396Y-66908458D02*
X97740015Y-66870363D01*
X97740015Y-66870363D02*
X97473348Y-66870363D01*
X97473348Y-66870363D02*
X97320967Y-66908458D01*
X97320967Y-66908458D02*
X97244777Y-66984649D01*
X97244777Y-66984649D02*
X97206681Y-67060839D01*
X97206681Y-67060839D02*
X97206681Y-67213220D01*
X97206681Y-67213220D02*
X97244777Y-67289411D01*
X97244777Y-67289411D02*
X97320967Y-67365601D01*
X97320967Y-67365601D02*
X97473348Y-67403697D01*
X97473348Y-67403697D02*
X97740015Y-67403697D01*
X97740015Y-67403697D02*
X97892396Y-67365601D01*
X97892396Y-67365601D02*
X97968586Y-67289411D01*
X97968586Y-67289411D02*
X98006681Y-67213220D01*
X98006681Y-66641792D02*
X98006681Y-66184649D01*
X97206681Y-66413221D02*
X98006681Y-66413221D01*
X98006681Y-66032268D02*
X98006681Y-65575125D01*
X97206681Y-65803697D02*
X98006681Y-65803697D01*
X98006681Y-65156077D02*
X98006681Y-65003696D01*
X98006681Y-65003696D02*
X97968586Y-64927506D01*
X97968586Y-64927506D02*
X97892396Y-64851315D01*
X97892396Y-64851315D02*
X97740015Y-64813220D01*
X97740015Y-64813220D02*
X97473348Y-64813220D01*
X97473348Y-64813220D02*
X97320967Y-64851315D01*
X97320967Y-64851315D02*
X97244777Y-64927506D01*
X97244777Y-64927506D02*
X97206681Y-65003696D01*
X97206681Y-65003696D02*
X97206681Y-65156077D01*
X97206681Y-65156077D02*
X97244777Y-65232268D01*
X97244777Y-65232268D02*
X97320967Y-65308458D01*
X97320967Y-65308458D02*
X97473348Y-65346554D01*
X97473348Y-65346554D02*
X97740015Y-65346554D01*
X97740015Y-65346554D02*
X97892396Y-65308458D01*
X97892396Y-65308458D02*
X97968586Y-65232268D01*
X97968586Y-65232268D02*
X98006681Y-65156077D01*
X97206681Y-64470363D02*
X98006681Y-64470363D01*
X98006681Y-64470363D02*
X97435253Y-64203697D01*
X97435253Y-64203697D02*
X98006681Y-63937030D01*
X98006681Y-63937030D02*
X97206681Y-63937030D01*
X95994917Y-77803696D02*
X95956822Y-77841792D01*
X95956822Y-77841792D02*
X95918726Y-77956077D01*
X95918726Y-77956077D02*
X95918726Y-78032268D01*
X95918726Y-78032268D02*
X95956822Y-78146554D01*
X95956822Y-78146554D02*
X96033012Y-78222744D01*
X96033012Y-78222744D02*
X96109202Y-78260839D01*
X96109202Y-78260839D02*
X96261583Y-78298935D01*
X96261583Y-78298935D02*
X96375869Y-78298935D01*
X96375869Y-78298935D02*
X96528250Y-78260839D01*
X96528250Y-78260839D02*
X96604441Y-78222744D01*
X96604441Y-78222744D02*
X96680631Y-78146554D01*
X96680631Y-78146554D02*
X96718726Y-78032268D01*
X96718726Y-78032268D02*
X96718726Y-77956077D01*
X96718726Y-77956077D02*
X96680631Y-77841792D01*
X96680631Y-77841792D02*
X96642536Y-77803696D01*
X96718726Y-77308458D02*
X96718726Y-77156077D01*
X96718726Y-77156077D02*
X96680631Y-77079887D01*
X96680631Y-77079887D02*
X96604441Y-77003696D01*
X96604441Y-77003696D02*
X96452060Y-76965601D01*
X96452060Y-76965601D02*
X96185393Y-76965601D01*
X96185393Y-76965601D02*
X96033012Y-77003696D01*
X96033012Y-77003696D02*
X95956822Y-77079887D01*
X95956822Y-77079887D02*
X95918726Y-77156077D01*
X95918726Y-77156077D02*
X95918726Y-77308458D01*
X95918726Y-77308458D02*
X95956822Y-77384649D01*
X95956822Y-77384649D02*
X96033012Y-77460839D01*
X96033012Y-77460839D02*
X96185393Y-77498935D01*
X96185393Y-77498935D02*
X96452060Y-77498935D01*
X96452060Y-77498935D02*
X96604441Y-77460839D01*
X96604441Y-77460839D02*
X96680631Y-77384649D01*
X96680631Y-77384649D02*
X96718726Y-77308458D01*
X95918726Y-76622744D02*
X96718726Y-76622744D01*
X96718726Y-76622744D02*
X96147298Y-76356078D01*
X96147298Y-76356078D02*
X96718726Y-76089411D01*
X96718726Y-76089411D02*
X95918726Y-76089411D01*
X95918726Y-75708458D02*
X96718726Y-75708458D01*
X96718726Y-75708458D02*
X96718726Y-75403696D01*
X96718726Y-75403696D02*
X96680631Y-75327506D01*
X96680631Y-75327506D02*
X96642536Y-75289411D01*
X96642536Y-75289411D02*
X96566345Y-75251315D01*
X96566345Y-75251315D02*
X96452060Y-75251315D01*
X96452060Y-75251315D02*
X96375869Y-75289411D01*
X96375869Y-75289411D02*
X96337774Y-75327506D01*
X96337774Y-75327506D02*
X96299679Y-75403696D01*
X96299679Y-75403696D02*
X96299679Y-75708458D01*
X96718726Y-74756077D02*
X96718726Y-74603696D01*
X96718726Y-74603696D02*
X96680631Y-74527506D01*
X96680631Y-74527506D02*
X96604441Y-74451315D01*
X96604441Y-74451315D02*
X96452060Y-74413220D01*
X96452060Y-74413220D02*
X96185393Y-74413220D01*
X96185393Y-74413220D02*
X96033012Y-74451315D01*
X96033012Y-74451315D02*
X95956822Y-74527506D01*
X95956822Y-74527506D02*
X95918726Y-74603696D01*
X95918726Y-74603696D02*
X95918726Y-74756077D01*
X95918726Y-74756077D02*
X95956822Y-74832268D01*
X95956822Y-74832268D02*
X96033012Y-74908458D01*
X96033012Y-74908458D02*
X96185393Y-74946554D01*
X96185393Y-74946554D02*
X96452060Y-74946554D01*
X96452060Y-74946554D02*
X96604441Y-74908458D01*
X96604441Y-74908458D02*
X96680631Y-74832268D01*
X96680631Y-74832268D02*
X96718726Y-74756077D01*
X95918726Y-74070363D02*
X96718726Y-74070363D01*
X96718726Y-74070363D02*
X95918726Y-73613220D01*
X95918726Y-73613220D02*
X96718726Y-73613220D01*
X96337774Y-73232268D02*
X96337774Y-72965602D01*
X95918726Y-72851316D02*
X95918726Y-73232268D01*
X95918726Y-73232268D02*
X96718726Y-73232268D01*
X96718726Y-73232268D02*
X96718726Y-72851316D01*
X95918726Y-72508458D02*
X96718726Y-72508458D01*
X96718726Y-72508458D02*
X95918726Y-72051315D01*
X95918726Y-72051315D02*
X96718726Y-72051315D01*
X96718726Y-71784649D02*
X96718726Y-71327506D01*
X95918726Y-71556078D02*
X96718726Y-71556078D01*
X95956822Y-71098935D02*
X95918726Y-70984649D01*
X95918726Y-70984649D02*
X95918726Y-70794173D01*
X95918726Y-70794173D02*
X95956822Y-70717982D01*
X95956822Y-70717982D02*
X95994917Y-70679887D01*
X95994917Y-70679887D02*
X96071107Y-70641792D01*
X96071107Y-70641792D02*
X96147298Y-70641792D01*
X96147298Y-70641792D02*
X96223488Y-70679887D01*
X96223488Y-70679887D02*
X96261583Y-70717982D01*
X96261583Y-70717982D02*
X96299679Y-70794173D01*
X96299679Y-70794173D02*
X96337774Y-70946554D01*
X96337774Y-70946554D02*
X96375869Y-71022744D01*
X96375869Y-71022744D02*
X96413964Y-71060839D01*
X96413964Y-71060839D02*
X96490155Y-71098935D01*
X96490155Y-71098935D02*
X96566345Y-71098935D01*
X96566345Y-71098935D02*
X96642536Y-71060839D01*
X96642536Y-71060839D02*
X96680631Y-71022744D01*
X96680631Y-71022744D02*
X96718726Y-70946554D01*
X96718726Y-70946554D02*
X96718726Y-70756077D01*
X96718726Y-70756077D02*
X96680631Y-70641792D01*
X96337774Y-69422744D02*
X96337774Y-69689410D01*
X95918726Y-69689410D02*
X96718726Y-69689410D01*
X96718726Y-69689410D02*
X96718726Y-69308458D01*
X96147298Y-69041792D02*
X96147298Y-68660839D01*
X95918726Y-69117982D02*
X96718726Y-68851315D01*
X96718726Y-68851315D02*
X95918726Y-68584649D01*
X95994917Y-67860839D02*
X95956822Y-67898935D01*
X95956822Y-67898935D02*
X95918726Y-68013220D01*
X95918726Y-68013220D02*
X95918726Y-68089411D01*
X95918726Y-68089411D02*
X95956822Y-68203697D01*
X95956822Y-68203697D02*
X96033012Y-68279887D01*
X96033012Y-68279887D02*
X96109202Y-68317982D01*
X96109202Y-68317982D02*
X96261583Y-68356078D01*
X96261583Y-68356078D02*
X96375869Y-68356078D01*
X96375869Y-68356078D02*
X96528250Y-68317982D01*
X96528250Y-68317982D02*
X96604441Y-68279887D01*
X96604441Y-68279887D02*
X96680631Y-68203697D01*
X96680631Y-68203697D02*
X96718726Y-68089411D01*
X96718726Y-68089411D02*
X96718726Y-68013220D01*
X96718726Y-68013220D02*
X96680631Y-67898935D01*
X96680631Y-67898935D02*
X96642536Y-67860839D01*
X95918726Y-67517982D02*
X96718726Y-67517982D01*
X95918726Y-67137030D02*
X96718726Y-67137030D01*
X96718726Y-67137030D02*
X95918726Y-66679887D01*
X95918726Y-66679887D02*
X96718726Y-66679887D01*
X96680631Y-65879888D02*
X96718726Y-65956078D01*
X96718726Y-65956078D02*
X96718726Y-66070364D01*
X96718726Y-66070364D02*
X96680631Y-66184650D01*
X96680631Y-66184650D02*
X96604441Y-66260840D01*
X96604441Y-66260840D02*
X96528250Y-66298935D01*
X96528250Y-66298935D02*
X96375869Y-66337031D01*
X96375869Y-66337031D02*
X96261583Y-66337031D01*
X96261583Y-66337031D02*
X96109202Y-66298935D01*
X96109202Y-66298935D02*
X96033012Y-66260840D01*
X96033012Y-66260840D02*
X95956822Y-66184650D01*
X95956822Y-66184650D02*
X95918726Y-66070364D01*
X95918726Y-66070364D02*
X95918726Y-65994173D01*
X95918726Y-65994173D02*
X95956822Y-65879888D01*
X95956822Y-65879888D02*
X95994917Y-65841792D01*
X95994917Y-65841792D02*
X96261583Y-65841792D01*
X96261583Y-65841792D02*
X96261583Y-65994173D01*
X95918726Y-64889411D02*
X96718726Y-64889411D01*
X96718726Y-64889411D02*
X96718726Y-64584649D01*
X96718726Y-64584649D02*
X96680631Y-64508459D01*
X96680631Y-64508459D02*
X96642536Y-64470364D01*
X96642536Y-64470364D02*
X96566345Y-64432268D01*
X96566345Y-64432268D02*
X96452060Y-64432268D01*
X96452060Y-64432268D02*
X96375869Y-64470364D01*
X96375869Y-64470364D02*
X96337774Y-64508459D01*
X96337774Y-64508459D02*
X96299679Y-64584649D01*
X96299679Y-64584649D02*
X96299679Y-64889411D01*
X95994917Y-63632268D02*
X95956822Y-63670364D01*
X95956822Y-63670364D02*
X95918726Y-63784649D01*
X95918726Y-63784649D02*
X95918726Y-63860840D01*
X95918726Y-63860840D02*
X95956822Y-63975126D01*
X95956822Y-63975126D02*
X96033012Y-64051316D01*
X96033012Y-64051316D02*
X96109202Y-64089411D01*
X96109202Y-64089411D02*
X96261583Y-64127507D01*
X96261583Y-64127507D02*
X96375869Y-64127507D01*
X96375869Y-64127507D02*
X96528250Y-64089411D01*
X96528250Y-64089411D02*
X96604441Y-64051316D01*
X96604441Y-64051316D02*
X96680631Y-63975126D01*
X96680631Y-63975126D02*
X96718726Y-63860840D01*
X96718726Y-63860840D02*
X96718726Y-63784649D01*
X96718726Y-63784649D02*
X96680631Y-63670364D01*
X96680631Y-63670364D02*
X96642536Y-63632268D01*
X96337774Y-63022745D02*
X96299679Y-62908459D01*
X96299679Y-62908459D02*
X96261583Y-62870364D01*
X96261583Y-62870364D02*
X96185393Y-62832268D01*
X96185393Y-62832268D02*
X96071107Y-62832268D01*
X96071107Y-62832268D02*
X95994917Y-62870364D01*
X95994917Y-62870364D02*
X95956822Y-62908459D01*
X95956822Y-62908459D02*
X95918726Y-62984649D01*
X95918726Y-62984649D02*
X95918726Y-63289411D01*
X95918726Y-63289411D02*
X96718726Y-63289411D01*
X96718726Y-63289411D02*
X96718726Y-63022745D01*
X96718726Y-63022745D02*
X96680631Y-62946554D01*
X96680631Y-62946554D02*
X96642536Y-62908459D01*
X96642536Y-62908459D02*
X96566345Y-62870364D01*
X96566345Y-62870364D02*
X96490155Y-62870364D01*
X96490155Y-62870364D02*
X96413964Y-62908459D01*
X96413964Y-62908459D02*
X96375869Y-62946554D01*
X96375869Y-62946554D02*
X96337774Y-63022745D01*
X96337774Y-63022745D02*
X96337774Y-63289411D01*
D11*
X139356876Y-121959523D02*
X138921448Y-121959523D01*
X139139162Y-122721523D02*
X139139162Y-121959523D01*
X138232019Y-122721523D02*
X138486019Y-122358666D01*
X138667448Y-122721523D02*
X138667448Y-121959523D01*
X138667448Y-121959523D02*
X138377162Y-121959523D01*
X138377162Y-121959523D02*
X138304591Y-121995809D01*
X138304591Y-121995809D02*
X138268305Y-122032095D01*
X138268305Y-122032095D02*
X138232019Y-122104666D01*
X138232019Y-122104666D02*
X138232019Y-122213523D01*
X138232019Y-122213523D02*
X138268305Y-122286095D01*
X138268305Y-122286095D02*
X138304591Y-122322380D01*
X138304591Y-122322380D02*
X138377162Y-122358666D01*
X138377162Y-122358666D02*
X138667448Y-122358666D01*
X137941734Y-122503809D02*
X137578877Y-122503809D01*
X138014305Y-122721523D02*
X137760305Y-121959523D01*
X137760305Y-121959523D02*
X137506305Y-122721523D01*
X136816876Y-122648952D02*
X136853162Y-122685238D01*
X136853162Y-122685238D02*
X136962019Y-122721523D01*
X136962019Y-122721523D02*
X137034591Y-122721523D01*
X137034591Y-122721523D02*
X137143448Y-122685238D01*
X137143448Y-122685238D02*
X137216019Y-122612666D01*
X137216019Y-122612666D02*
X137252305Y-122540095D01*
X137252305Y-122540095D02*
X137288591Y-122394952D01*
X137288591Y-122394952D02*
X137288591Y-122286095D01*
X137288591Y-122286095D02*
X137252305Y-122140952D01*
X137252305Y-122140952D02*
X137216019Y-122068380D01*
X137216019Y-122068380D02*
X137143448Y-121995809D01*
X137143448Y-121995809D02*
X137034591Y-121959523D01*
X137034591Y-121959523D02*
X136962019Y-121959523D01*
X136962019Y-121959523D02*
X136853162Y-121995809D01*
X136853162Y-121995809D02*
X136816876Y-122032095D01*
X136490305Y-122721523D02*
X136490305Y-121959523D01*
X136054876Y-122721523D02*
X136381448Y-122286095D01*
X136054876Y-121959523D02*
X136490305Y-122394952D01*
X138994019Y-123549157D02*
X138885162Y-123585443D01*
X138885162Y-123585443D02*
X138848876Y-123621729D01*
X138848876Y-123621729D02*
X138812590Y-123694300D01*
X138812590Y-123694300D02*
X138812590Y-123803157D01*
X138812590Y-123803157D02*
X138848876Y-123875729D01*
X138848876Y-123875729D02*
X138885162Y-123912015D01*
X138885162Y-123912015D02*
X138957733Y-123948300D01*
X138957733Y-123948300D02*
X139248019Y-123948300D01*
X139248019Y-123948300D02*
X139248019Y-123186300D01*
X139248019Y-123186300D02*
X138994019Y-123186300D01*
X138994019Y-123186300D02*
X138921448Y-123222586D01*
X138921448Y-123222586D02*
X138885162Y-123258872D01*
X138885162Y-123258872D02*
X138848876Y-123331443D01*
X138848876Y-123331443D02*
X138848876Y-123404015D01*
X138848876Y-123404015D02*
X138885162Y-123476586D01*
X138885162Y-123476586D02*
X138921448Y-123512872D01*
X138921448Y-123512872D02*
X138994019Y-123549157D01*
X138994019Y-123549157D02*
X139248019Y-123549157D01*
X138522305Y-123730586D02*
X138159448Y-123730586D01*
X138594876Y-123948300D02*
X138340876Y-123186300D01*
X138340876Y-123186300D02*
X138086876Y-123948300D01*
X137470019Y-123948300D02*
X137832876Y-123948300D01*
X137832876Y-123948300D02*
X137832876Y-123186300D01*
X136853162Y-123948300D02*
X137216019Y-123948300D01*
X137216019Y-123948300D02*
X137216019Y-123186300D01*
X98597143Y-103925626D02*
X98488286Y-103961911D01*
X98488286Y-103961911D02*
X98306857Y-103961911D01*
X98306857Y-103961911D02*
X98234286Y-103925626D01*
X98234286Y-103925626D02*
X98198000Y-103889340D01*
X98198000Y-103889340D02*
X98161714Y-103816768D01*
X98161714Y-103816768D02*
X98161714Y-103744197D01*
X98161714Y-103744197D02*
X98198000Y-103671626D01*
X98198000Y-103671626D02*
X98234286Y-103635340D01*
X98234286Y-103635340D02*
X98306857Y-103599054D01*
X98306857Y-103599054D02*
X98452000Y-103562768D01*
X98452000Y-103562768D02*
X98524571Y-103526483D01*
X98524571Y-103526483D02*
X98560857Y-103490197D01*
X98560857Y-103490197D02*
X98597143Y-103417626D01*
X98597143Y-103417626D02*
X98597143Y-103345054D01*
X98597143Y-103345054D02*
X98560857Y-103272483D01*
X98560857Y-103272483D02*
X98524571Y-103236197D01*
X98524571Y-103236197D02*
X98452000Y-103199911D01*
X98452000Y-103199911D02*
X98270571Y-103199911D01*
X98270571Y-103199911D02*
X98161714Y-103236197D01*
X97399714Y-103889340D02*
X97436000Y-103925626D01*
X97436000Y-103925626D02*
X97544857Y-103961911D01*
X97544857Y-103961911D02*
X97617429Y-103961911D01*
X97617429Y-103961911D02*
X97726286Y-103925626D01*
X97726286Y-103925626D02*
X97798857Y-103853054D01*
X97798857Y-103853054D02*
X97835143Y-103780483D01*
X97835143Y-103780483D02*
X97871429Y-103635340D01*
X97871429Y-103635340D02*
X97871429Y-103526483D01*
X97871429Y-103526483D02*
X97835143Y-103381340D01*
X97835143Y-103381340D02*
X97798857Y-103308768D01*
X97798857Y-103308768D02*
X97726286Y-103236197D01*
X97726286Y-103236197D02*
X97617429Y-103199911D01*
X97617429Y-103199911D02*
X97544857Y-103199911D01*
X97544857Y-103199911D02*
X97436000Y-103236197D01*
X97436000Y-103236197D02*
X97399714Y-103272483D01*
X96710286Y-103961911D02*
X97073143Y-103961911D01*
X97073143Y-103961911D02*
X97073143Y-103199911D01*
D14*
X88039923Y-72093800D02*
X87582781Y-72093800D01*
X87297066Y-72093800D02*
X86839924Y-72093800D01*
X86211352Y-72322371D02*
X86411352Y-72036657D01*
X86554209Y-72322371D02*
X86554209Y-71722371D01*
X86554209Y-71722371D02*
X86325638Y-71722371D01*
X86325638Y-71722371D02*
X86268495Y-71750942D01*
X86268495Y-71750942D02*
X86239924Y-71779514D01*
X86239924Y-71779514D02*
X86211352Y-71836657D01*
X86211352Y-71836657D02*
X86211352Y-71922371D01*
X86211352Y-71922371D02*
X86239924Y-71979514D01*
X86239924Y-71979514D02*
X86268495Y-72008085D01*
X86268495Y-72008085D02*
X86325638Y-72036657D01*
X86325638Y-72036657D02*
X86554209Y-72036657D01*
X86011352Y-71722371D02*
X85611352Y-72322371D01*
X85611352Y-71722371D02*
X86011352Y-72322371D01*
D11*
X148985285Y-116188626D02*
X148876428Y-116224911D01*
X148876428Y-116224911D02*
X148694999Y-116224911D01*
X148694999Y-116224911D02*
X148622428Y-116188626D01*
X148622428Y-116188626D02*
X148586142Y-116152340D01*
X148586142Y-116152340D02*
X148549856Y-116079768D01*
X148549856Y-116079768D02*
X148549856Y-116007197D01*
X148549856Y-116007197D02*
X148586142Y-115934626D01*
X148586142Y-115934626D02*
X148622428Y-115898340D01*
X148622428Y-115898340D02*
X148694999Y-115862054D01*
X148694999Y-115862054D02*
X148840142Y-115825768D01*
X148840142Y-115825768D02*
X148912713Y-115789483D01*
X148912713Y-115789483D02*
X148948999Y-115753197D01*
X148948999Y-115753197D02*
X148985285Y-115680626D01*
X148985285Y-115680626D02*
X148985285Y-115608054D01*
X148985285Y-115608054D02*
X148948999Y-115535483D01*
X148948999Y-115535483D02*
X148912713Y-115499197D01*
X148912713Y-115499197D02*
X148840142Y-115462911D01*
X148840142Y-115462911D02*
X148658713Y-115462911D01*
X148658713Y-115462911D02*
X148549856Y-115499197D01*
X148223285Y-116224911D02*
X148223285Y-115462911D01*
X148223285Y-115462911D02*
X148041856Y-115462911D01*
X148041856Y-115462911D02*
X147932999Y-115499197D01*
X147932999Y-115499197D02*
X147860428Y-115571768D01*
X147860428Y-115571768D02*
X147824142Y-115644340D01*
X147824142Y-115644340D02*
X147787856Y-115789483D01*
X147787856Y-115789483D02*
X147787856Y-115898340D01*
X147787856Y-115898340D02*
X147824142Y-116043483D01*
X147824142Y-116043483D02*
X147860428Y-116116054D01*
X147860428Y-116116054D02*
X147932999Y-116188626D01*
X147932999Y-116188626D02*
X148041856Y-116224911D01*
X148041856Y-116224911D02*
X148223285Y-116224911D01*
X147497571Y-116007197D02*
X147134714Y-116007197D01*
X147570142Y-116224911D02*
X147316142Y-115462911D01*
X147316142Y-115462911D02*
X147062142Y-116224911D01*
D10*
X83395238Y-113143247D02*
X83280952Y-113181342D01*
X83280952Y-113181342D02*
X83242857Y-113219438D01*
X83242857Y-113219438D02*
X83204761Y-113295628D01*
X83204761Y-113295628D02*
X83204761Y-113409914D01*
X83204761Y-113409914D02*
X83242857Y-113486104D01*
X83242857Y-113486104D02*
X83280952Y-113524200D01*
X83280952Y-113524200D02*
X83357142Y-113562295D01*
X83357142Y-113562295D02*
X83661904Y-113562295D01*
X83661904Y-113562295D02*
X83661904Y-112762295D01*
X83661904Y-112762295D02*
X83395238Y-112762295D01*
X83395238Y-112762295D02*
X83319047Y-112800390D01*
X83319047Y-112800390D02*
X83280952Y-112838485D01*
X83280952Y-112838485D02*
X83242857Y-112914676D01*
X83242857Y-112914676D02*
X83242857Y-112990866D01*
X83242857Y-112990866D02*
X83280952Y-113067057D01*
X83280952Y-113067057D02*
X83319047Y-113105152D01*
X83319047Y-113105152D02*
X83395238Y-113143247D01*
X83395238Y-113143247D02*
X83661904Y-113143247D01*
X82900000Y-113333723D02*
X82519047Y-113333723D01*
X82976190Y-113562295D02*
X82709523Y-112762295D01*
X82709523Y-112762295D02*
X82442857Y-113562295D01*
X82290476Y-112762295D02*
X81833333Y-112762295D01*
X82061905Y-113562295D02*
X82061905Y-112762295D01*
X81680952Y-112762295D02*
X81223809Y-112762295D01*
X81452381Y-113562295D02*
X81452381Y-112762295D01*
D14*
X107900072Y-77355228D02*
X107928644Y-77383800D01*
X107928644Y-77383800D02*
X108014358Y-77412371D01*
X108014358Y-77412371D02*
X108071501Y-77412371D01*
X108071501Y-77412371D02*
X108157215Y-77383800D01*
X108157215Y-77383800D02*
X108214358Y-77326657D01*
X108214358Y-77326657D02*
X108242929Y-77269514D01*
X108242929Y-77269514D02*
X108271501Y-77155228D01*
X108271501Y-77155228D02*
X108271501Y-77069514D01*
X108271501Y-77069514D02*
X108242929Y-76955228D01*
X108242929Y-76955228D02*
X108214358Y-76898085D01*
X108214358Y-76898085D02*
X108157215Y-76840942D01*
X108157215Y-76840942D02*
X108071501Y-76812371D01*
X108071501Y-76812371D02*
X108014358Y-76812371D01*
X108014358Y-76812371D02*
X107928644Y-76840942D01*
X107928644Y-76840942D02*
X107900072Y-76869514D01*
X107528644Y-76812371D02*
X107414358Y-76812371D01*
X107414358Y-76812371D02*
X107357215Y-76840942D01*
X107357215Y-76840942D02*
X107300072Y-76898085D01*
X107300072Y-76898085D02*
X107271501Y-77012371D01*
X107271501Y-77012371D02*
X107271501Y-77212371D01*
X107271501Y-77212371D02*
X107300072Y-77326657D01*
X107300072Y-77326657D02*
X107357215Y-77383800D01*
X107357215Y-77383800D02*
X107414358Y-77412371D01*
X107414358Y-77412371D02*
X107528644Y-77412371D01*
X107528644Y-77412371D02*
X107585787Y-77383800D01*
X107585787Y-77383800D02*
X107642929Y-77326657D01*
X107642929Y-77326657D02*
X107671501Y-77212371D01*
X107671501Y-77212371D02*
X107671501Y-77012371D01*
X107671501Y-77012371D02*
X107642929Y-76898085D01*
X107642929Y-76898085D02*
X107585787Y-76840942D01*
X107585787Y-76840942D02*
X107528644Y-76812371D01*
X106728644Y-77412371D02*
X107014358Y-77412371D01*
X107014358Y-77412371D02*
X107014358Y-76812371D01*
X106557216Y-76869514D02*
X106528644Y-76840942D01*
X106528644Y-76840942D02*
X106471502Y-76812371D01*
X106471502Y-76812371D02*
X106328644Y-76812371D01*
X106328644Y-76812371D02*
X106271502Y-76840942D01*
X106271502Y-76840942D02*
X106242930Y-76869514D01*
X106242930Y-76869514D02*
X106214359Y-76926657D01*
X106214359Y-76926657D02*
X106214359Y-76983800D01*
X106214359Y-76983800D02*
X106242930Y-77069514D01*
X106242930Y-77069514D02*
X106585787Y-77412371D01*
X106585787Y-77412371D02*
X106214359Y-77412371D01*
X105957215Y-77183800D02*
X105500073Y-77183800D01*
X105214358Y-77183800D02*
X104757216Y-77183800D01*
D11*
X93143198Y-103224197D02*
X93215770Y-103187911D01*
X93215770Y-103187911D02*
X93324627Y-103187911D01*
X93324627Y-103187911D02*
X93433484Y-103224197D01*
X93433484Y-103224197D02*
X93506055Y-103296768D01*
X93506055Y-103296768D02*
X93542341Y-103369340D01*
X93542341Y-103369340D02*
X93578627Y-103514483D01*
X93578627Y-103514483D02*
X93578627Y-103623340D01*
X93578627Y-103623340D02*
X93542341Y-103768483D01*
X93542341Y-103768483D02*
X93506055Y-103841054D01*
X93506055Y-103841054D02*
X93433484Y-103913626D01*
X93433484Y-103913626D02*
X93324627Y-103949911D01*
X93324627Y-103949911D02*
X93252055Y-103949911D01*
X93252055Y-103949911D02*
X93143198Y-103913626D01*
X93143198Y-103913626D02*
X93106912Y-103877340D01*
X93106912Y-103877340D02*
X93106912Y-103623340D01*
X93106912Y-103623340D02*
X93252055Y-103623340D01*
X92780341Y-103949911D02*
X92780341Y-103187911D01*
X92780341Y-103187911D02*
X92344912Y-103949911D01*
X92344912Y-103949911D02*
X92344912Y-103187911D01*
X91982055Y-103949911D02*
X91982055Y-103187911D01*
X91982055Y-103187911D02*
X91800626Y-103187911D01*
X91800626Y-103187911D02*
X91691769Y-103224197D01*
X91691769Y-103224197D02*
X91619198Y-103296768D01*
X91619198Y-103296768D02*
X91582912Y-103369340D01*
X91582912Y-103369340D02*
X91546626Y-103514483D01*
X91546626Y-103514483D02*
X91546626Y-103623340D01*
X91546626Y-103623340D02*
X91582912Y-103768483D01*
X91582912Y-103768483D02*
X91619198Y-103841054D01*
X91619198Y-103841054D02*
X91691769Y-103913626D01*
X91691769Y-103913626D02*
X91800626Y-103949911D01*
X91800626Y-103949911D02*
X91982055Y-103949911D01*
D14*
X88039923Y-79713800D02*
X87582781Y-79713800D01*
X87297066Y-79713800D02*
X86839924Y-79713800D01*
X86211352Y-79942371D02*
X86411352Y-79656657D01*
X86554209Y-79942371D02*
X86554209Y-79342371D01*
X86554209Y-79342371D02*
X86325638Y-79342371D01*
X86325638Y-79342371D02*
X86268495Y-79370942D01*
X86268495Y-79370942D02*
X86239924Y-79399514D01*
X86239924Y-79399514D02*
X86211352Y-79456657D01*
X86211352Y-79456657D02*
X86211352Y-79542371D01*
X86211352Y-79542371D02*
X86239924Y-79599514D01*
X86239924Y-79599514D02*
X86268495Y-79628085D01*
X86268495Y-79628085D02*
X86325638Y-79656657D01*
X86325638Y-79656657D02*
X86554209Y-79656657D01*
X85839924Y-79342371D02*
X85725638Y-79342371D01*
X85725638Y-79342371D02*
X85668495Y-79370942D01*
X85668495Y-79370942D02*
X85611352Y-79428085D01*
X85611352Y-79428085D02*
X85582781Y-79542371D01*
X85582781Y-79542371D02*
X85582781Y-79742371D01*
X85582781Y-79742371D02*
X85611352Y-79856657D01*
X85611352Y-79856657D02*
X85668495Y-79913800D01*
X85668495Y-79913800D02*
X85725638Y-79942371D01*
X85725638Y-79942371D02*
X85839924Y-79942371D01*
X85839924Y-79942371D02*
X85897067Y-79913800D01*
X85897067Y-79913800D02*
X85954209Y-79856657D01*
X85954209Y-79856657D02*
X85982781Y-79742371D01*
X85982781Y-79742371D02*
X85982781Y-79542371D01*
X85982781Y-79542371D02*
X85954209Y-79428085D01*
X85954209Y-79428085D02*
X85897067Y-79370942D01*
X85897067Y-79370942D02*
X85839924Y-79342371D01*
X85382781Y-79342371D02*
X85239924Y-79942371D01*
X85239924Y-79942371D02*
X85125638Y-79513800D01*
X85125638Y-79513800D02*
X85011353Y-79942371D01*
X85011353Y-79942371D02*
X84868496Y-79342371D01*
X84668496Y-79399514D02*
X84639924Y-79370942D01*
X84639924Y-79370942D02*
X84582782Y-79342371D01*
X84582782Y-79342371D02*
X84439924Y-79342371D01*
X84439924Y-79342371D02*
X84382782Y-79370942D01*
X84382782Y-79370942D02*
X84354210Y-79399514D01*
X84354210Y-79399514D02*
X84325639Y-79456657D01*
X84325639Y-79456657D02*
X84325639Y-79513800D01*
X84325639Y-79513800D02*
X84354210Y-79599514D01*
X84354210Y-79599514D02*
X84697067Y-79942371D01*
X84697067Y-79942371D02*
X84325639Y-79942371D01*
D11*
X140940571Y-115499197D02*
X141013143Y-115462911D01*
X141013143Y-115462911D02*
X141122000Y-115462911D01*
X141122000Y-115462911D02*
X141230857Y-115499197D01*
X141230857Y-115499197D02*
X141303428Y-115571768D01*
X141303428Y-115571768D02*
X141339714Y-115644340D01*
X141339714Y-115644340D02*
X141376000Y-115789483D01*
X141376000Y-115789483D02*
X141376000Y-115898340D01*
X141376000Y-115898340D02*
X141339714Y-116043483D01*
X141339714Y-116043483D02*
X141303428Y-116116054D01*
X141303428Y-116116054D02*
X141230857Y-116188626D01*
X141230857Y-116188626D02*
X141122000Y-116224911D01*
X141122000Y-116224911D02*
X141049428Y-116224911D01*
X141049428Y-116224911D02*
X140940571Y-116188626D01*
X140940571Y-116188626D02*
X140904285Y-116152340D01*
X140904285Y-116152340D02*
X140904285Y-115898340D01*
X140904285Y-115898340D02*
X141049428Y-115898340D01*
X140577714Y-116224911D02*
X140577714Y-115462911D01*
X140577714Y-115462911D02*
X140142285Y-116224911D01*
X140142285Y-116224911D02*
X140142285Y-115462911D01*
X139779428Y-116224911D02*
X139779428Y-115462911D01*
X139779428Y-115462911D02*
X139597999Y-115462911D01*
X139597999Y-115462911D02*
X139489142Y-115499197D01*
X139489142Y-115499197D02*
X139416571Y-115571768D01*
X139416571Y-115571768D02*
X139380285Y-115644340D01*
X139380285Y-115644340D02*
X139343999Y-115789483D01*
X139343999Y-115789483D02*
X139343999Y-115898340D01*
X139343999Y-115898340D02*
X139380285Y-116043483D01*
X139380285Y-116043483D02*
X139416571Y-116116054D01*
X139416571Y-116116054D02*
X139489142Y-116188626D01*
X139489142Y-116188626D02*
X139597999Y-116224911D01*
X139597999Y-116224911D02*
X139779428Y-116224911D01*
D14*
X108785786Y-69478085D02*
X108585786Y-69478085D01*
X108500072Y-69792371D02*
X108785786Y-69792371D01*
X108785786Y-69792371D02*
X108785786Y-69192371D01*
X108785786Y-69192371D02*
X108500072Y-69192371D01*
X108242929Y-69792371D02*
X108242929Y-69192371D01*
X108242929Y-69192371D02*
X107900072Y-69792371D01*
X107900072Y-69792371D02*
X107900072Y-69192371D01*
X107271501Y-69735228D02*
X107300073Y-69763800D01*
X107300073Y-69763800D02*
X107385787Y-69792371D01*
X107385787Y-69792371D02*
X107442930Y-69792371D01*
X107442930Y-69792371D02*
X107528644Y-69763800D01*
X107528644Y-69763800D02*
X107585787Y-69706657D01*
X107585787Y-69706657D02*
X107614358Y-69649514D01*
X107614358Y-69649514D02*
X107642930Y-69535228D01*
X107642930Y-69535228D02*
X107642930Y-69449514D01*
X107642930Y-69449514D02*
X107614358Y-69335228D01*
X107614358Y-69335228D02*
X107585787Y-69278085D01*
X107585787Y-69278085D02*
X107528644Y-69220942D01*
X107528644Y-69220942D02*
X107442930Y-69192371D01*
X107442930Y-69192371D02*
X107385787Y-69192371D01*
X107385787Y-69192371D02*
X107300073Y-69220942D01*
X107300073Y-69220942D02*
X107271501Y-69249514D01*
X106357215Y-69478085D02*
X106271501Y-69506657D01*
X106271501Y-69506657D02*
X106242930Y-69535228D01*
X106242930Y-69535228D02*
X106214358Y-69592371D01*
X106214358Y-69592371D02*
X106214358Y-69678085D01*
X106214358Y-69678085D02*
X106242930Y-69735228D01*
X106242930Y-69735228D02*
X106271501Y-69763800D01*
X106271501Y-69763800D02*
X106328644Y-69792371D01*
X106328644Y-69792371D02*
X106557215Y-69792371D01*
X106557215Y-69792371D02*
X106557215Y-69192371D01*
X106557215Y-69192371D02*
X106357215Y-69192371D01*
X106357215Y-69192371D02*
X106300073Y-69220942D01*
X106300073Y-69220942D02*
X106271501Y-69249514D01*
X106271501Y-69249514D02*
X106242930Y-69306657D01*
X106242930Y-69306657D02*
X106242930Y-69363800D01*
X106242930Y-69363800D02*
X106271501Y-69420942D01*
X106271501Y-69420942D02*
X106300073Y-69449514D01*
X106300073Y-69449514D02*
X106357215Y-69478085D01*
X106357215Y-69478085D02*
X106557215Y-69478085D01*
X105957215Y-69563800D02*
X105500073Y-69563800D01*
X105214358Y-69563800D02*
X104757216Y-69563800D01*
X88039923Y-56853800D02*
X87582781Y-56853800D01*
X87297066Y-56853800D02*
X86839924Y-56853800D01*
X86268495Y-57082371D02*
X86554209Y-57082371D01*
X86554209Y-57082371D02*
X86554209Y-56482371D01*
X86068495Y-56768085D02*
X85868495Y-56768085D01*
X85782781Y-57082371D02*
X86068495Y-57082371D01*
X86068495Y-57082371D02*
X86068495Y-56482371D01*
X86068495Y-56482371D02*
X85782781Y-56482371D01*
X85525638Y-57082371D02*
X85525638Y-56482371D01*
X85525638Y-56482371D02*
X85382781Y-56482371D01*
X85382781Y-56482371D02*
X85297067Y-56510942D01*
X85297067Y-56510942D02*
X85239924Y-56568085D01*
X85239924Y-56568085D02*
X85211353Y-56625228D01*
X85211353Y-56625228D02*
X85182781Y-56739514D01*
X85182781Y-56739514D02*
X85182781Y-56825228D01*
X85182781Y-56825228D02*
X85211353Y-56939514D01*
X85211353Y-56939514D02*
X85239924Y-56996657D01*
X85239924Y-56996657D02*
X85297067Y-57053800D01*
X85297067Y-57053800D02*
X85382781Y-57082371D01*
X85382781Y-57082371D02*
X85525638Y-57082371D01*
X107900072Y-79895228D02*
X107928644Y-79923800D01*
X107928644Y-79923800D02*
X108014358Y-79952371D01*
X108014358Y-79952371D02*
X108071501Y-79952371D01*
X108071501Y-79952371D02*
X108157215Y-79923800D01*
X108157215Y-79923800D02*
X108214358Y-79866657D01*
X108214358Y-79866657D02*
X108242929Y-79809514D01*
X108242929Y-79809514D02*
X108271501Y-79695228D01*
X108271501Y-79695228D02*
X108271501Y-79609514D01*
X108271501Y-79609514D02*
X108242929Y-79495228D01*
X108242929Y-79495228D02*
X108214358Y-79438085D01*
X108214358Y-79438085D02*
X108157215Y-79380942D01*
X108157215Y-79380942D02*
X108071501Y-79352371D01*
X108071501Y-79352371D02*
X108014358Y-79352371D01*
X108014358Y-79352371D02*
X107928644Y-79380942D01*
X107928644Y-79380942D02*
X107900072Y-79409514D01*
X107528644Y-79352371D02*
X107414358Y-79352371D01*
X107414358Y-79352371D02*
X107357215Y-79380942D01*
X107357215Y-79380942D02*
X107300072Y-79438085D01*
X107300072Y-79438085D02*
X107271501Y-79552371D01*
X107271501Y-79552371D02*
X107271501Y-79752371D01*
X107271501Y-79752371D02*
X107300072Y-79866657D01*
X107300072Y-79866657D02*
X107357215Y-79923800D01*
X107357215Y-79923800D02*
X107414358Y-79952371D01*
X107414358Y-79952371D02*
X107528644Y-79952371D01*
X107528644Y-79952371D02*
X107585787Y-79923800D01*
X107585787Y-79923800D02*
X107642929Y-79866657D01*
X107642929Y-79866657D02*
X107671501Y-79752371D01*
X107671501Y-79752371D02*
X107671501Y-79552371D01*
X107671501Y-79552371D02*
X107642929Y-79438085D01*
X107642929Y-79438085D02*
X107585787Y-79380942D01*
X107585787Y-79380942D02*
X107528644Y-79352371D01*
X106728644Y-79952371D02*
X107014358Y-79952371D01*
X107014358Y-79952371D02*
X107014358Y-79352371D01*
X106585787Y-79352371D02*
X106214359Y-79352371D01*
X106214359Y-79352371D02*
X106414359Y-79580942D01*
X106414359Y-79580942D02*
X106328644Y-79580942D01*
X106328644Y-79580942D02*
X106271502Y-79609514D01*
X106271502Y-79609514D02*
X106242930Y-79638085D01*
X106242930Y-79638085D02*
X106214359Y-79695228D01*
X106214359Y-79695228D02*
X106214359Y-79838085D01*
X106214359Y-79838085D02*
X106242930Y-79895228D01*
X106242930Y-79895228D02*
X106271502Y-79923800D01*
X106271502Y-79923800D02*
X106328644Y-79952371D01*
X106328644Y-79952371D02*
X106500073Y-79952371D01*
X106500073Y-79952371D02*
X106557216Y-79923800D01*
X106557216Y-79923800D02*
X106585787Y-79895228D01*
X105957215Y-79723800D02*
X105500073Y-79723800D01*
X105214358Y-79723800D02*
X104757216Y-79723800D01*
D10*
X90390601Y-106669771D02*
X90590601Y-106384057D01*
X90733458Y-106669771D02*
X90733458Y-106069771D01*
X90733458Y-106069771D02*
X90504887Y-106069771D01*
X90504887Y-106069771D02*
X90447744Y-106098342D01*
X90447744Y-106098342D02*
X90419173Y-106126914D01*
X90419173Y-106126914D02*
X90390601Y-106184057D01*
X90390601Y-106184057D02*
X90390601Y-106269771D01*
X90390601Y-106269771D02*
X90419173Y-106326914D01*
X90419173Y-106326914D02*
X90447744Y-106355485D01*
X90447744Y-106355485D02*
X90504887Y-106384057D01*
X90504887Y-106384057D02*
X90733458Y-106384057D01*
X90133458Y-106355485D02*
X89933458Y-106355485D01*
X89847744Y-106669771D02*
X90133458Y-106669771D01*
X90133458Y-106669771D02*
X90133458Y-106069771D01*
X90133458Y-106069771D02*
X89847744Y-106069771D01*
X89590601Y-106669771D02*
X89590601Y-106069771D01*
X89590601Y-106069771D02*
X89447744Y-106069771D01*
X89447744Y-106069771D02*
X89362030Y-106098342D01*
X89362030Y-106098342D02*
X89304887Y-106155485D01*
X89304887Y-106155485D02*
X89276316Y-106212628D01*
X89276316Y-106212628D02*
X89247744Y-106326914D01*
X89247744Y-106326914D02*
X89247744Y-106412628D01*
X89247744Y-106412628D02*
X89276316Y-106526914D01*
X89276316Y-106526914D02*
X89304887Y-106584057D01*
X89304887Y-106584057D02*
X89362030Y-106641200D01*
X89362030Y-106641200D02*
X89447744Y-106669771D01*
X89447744Y-106669771D02*
X89590601Y-106669771D01*
D14*
X88039923Y-59393800D02*
X87582781Y-59393800D01*
X87297066Y-59393800D02*
X86839924Y-59393800D01*
X86639924Y-59022371D02*
X86297067Y-59022371D01*
X86468495Y-59622371D02*
X86468495Y-59022371D01*
X86154209Y-59022371D02*
X85754209Y-59622371D01*
X85754209Y-59022371D02*
X86154209Y-59622371D01*
D11*
X205680571Y-53670197D02*
X205753143Y-53633911D01*
X205753143Y-53633911D02*
X205862000Y-53633911D01*
X205862000Y-53633911D02*
X205970857Y-53670197D01*
X205970857Y-53670197D02*
X206043428Y-53742768D01*
X206043428Y-53742768D02*
X206079714Y-53815340D01*
X206079714Y-53815340D02*
X206116000Y-53960483D01*
X206116000Y-53960483D02*
X206116000Y-54069340D01*
X206116000Y-54069340D02*
X206079714Y-54214483D01*
X206079714Y-54214483D02*
X206043428Y-54287054D01*
X206043428Y-54287054D02*
X205970857Y-54359626D01*
X205970857Y-54359626D02*
X205862000Y-54395911D01*
X205862000Y-54395911D02*
X205789428Y-54395911D01*
X205789428Y-54395911D02*
X205680571Y-54359626D01*
X205680571Y-54359626D02*
X205644285Y-54323340D01*
X205644285Y-54323340D02*
X205644285Y-54069340D01*
X205644285Y-54069340D02*
X205789428Y-54069340D01*
X205317714Y-54395911D02*
X205317714Y-53633911D01*
X205317714Y-53633911D02*
X204882285Y-54395911D01*
X204882285Y-54395911D02*
X204882285Y-53633911D01*
X204519428Y-54395911D02*
X204519428Y-53633911D01*
X204519428Y-53633911D02*
X204337999Y-53633911D01*
X204337999Y-53633911D02*
X204229142Y-53670197D01*
X204229142Y-53670197D02*
X204156571Y-53742768D01*
X204156571Y-53742768D02*
X204120285Y-53815340D01*
X204120285Y-53815340D02*
X204083999Y-53960483D01*
X204083999Y-53960483D02*
X204083999Y-54069340D01*
X204083999Y-54069340D02*
X204120285Y-54214483D01*
X204120285Y-54214483D02*
X204156571Y-54287054D01*
X204156571Y-54287054D02*
X204229142Y-54359626D01*
X204229142Y-54359626D02*
X204337999Y-54395911D01*
X204337999Y-54395911D02*
X204519428Y-54395911D01*
D10*
X88470238Y-107468247D02*
X88355952Y-107506342D01*
X88355952Y-107506342D02*
X88317857Y-107544438D01*
X88317857Y-107544438D02*
X88279761Y-107620628D01*
X88279761Y-107620628D02*
X88279761Y-107734914D01*
X88279761Y-107734914D02*
X88317857Y-107811104D01*
X88317857Y-107811104D02*
X88355952Y-107849200D01*
X88355952Y-107849200D02*
X88432142Y-107887295D01*
X88432142Y-107887295D02*
X88736904Y-107887295D01*
X88736904Y-107887295D02*
X88736904Y-107087295D01*
X88736904Y-107087295D02*
X88470238Y-107087295D01*
X88470238Y-107087295D02*
X88394047Y-107125390D01*
X88394047Y-107125390D02*
X88355952Y-107163485D01*
X88355952Y-107163485D02*
X88317857Y-107239676D01*
X88317857Y-107239676D02*
X88317857Y-107315866D01*
X88317857Y-107315866D02*
X88355952Y-107392057D01*
X88355952Y-107392057D02*
X88394047Y-107430152D01*
X88394047Y-107430152D02*
X88470238Y-107468247D01*
X88470238Y-107468247D02*
X88736904Y-107468247D01*
X87975000Y-107658723D02*
X87594047Y-107658723D01*
X88051190Y-107887295D02*
X87784523Y-107087295D01*
X87784523Y-107087295D02*
X87517857Y-107887295D01*
X87365476Y-107087295D02*
X86908333Y-107087295D01*
X87136905Y-107887295D02*
X87136905Y-107087295D01*
X86755952Y-107087295D02*
X86298809Y-107087295D01*
X86527381Y-107887295D02*
X86527381Y-107087295D01*
D14*
X107757216Y-64112371D02*
X107557216Y-64712371D01*
X107557216Y-64712371D02*
X107357216Y-64112371D01*
X106814358Y-64655228D02*
X106842930Y-64683800D01*
X106842930Y-64683800D02*
X106928644Y-64712371D01*
X106928644Y-64712371D02*
X106985787Y-64712371D01*
X106985787Y-64712371D02*
X107071501Y-64683800D01*
X107071501Y-64683800D02*
X107128644Y-64626657D01*
X107128644Y-64626657D02*
X107157215Y-64569514D01*
X107157215Y-64569514D02*
X107185787Y-64455228D01*
X107185787Y-64455228D02*
X107185787Y-64369514D01*
X107185787Y-64369514D02*
X107157215Y-64255228D01*
X107157215Y-64255228D02*
X107128644Y-64198085D01*
X107128644Y-64198085D02*
X107071501Y-64140942D01*
X107071501Y-64140942D02*
X106985787Y-64112371D01*
X106985787Y-64112371D02*
X106928644Y-64112371D01*
X106928644Y-64112371D02*
X106842930Y-64140942D01*
X106842930Y-64140942D02*
X106814358Y-64169514D01*
X106214358Y-64655228D02*
X106242930Y-64683800D01*
X106242930Y-64683800D02*
X106328644Y-64712371D01*
X106328644Y-64712371D02*
X106385787Y-64712371D01*
X106385787Y-64712371D02*
X106471501Y-64683800D01*
X106471501Y-64683800D02*
X106528644Y-64626657D01*
X106528644Y-64626657D02*
X106557215Y-64569514D01*
X106557215Y-64569514D02*
X106585787Y-64455228D01*
X106585787Y-64455228D02*
X106585787Y-64369514D01*
X106585787Y-64369514D02*
X106557215Y-64255228D01*
X106557215Y-64255228D02*
X106528644Y-64198085D01*
X106528644Y-64198085D02*
X106471501Y-64140942D01*
X106471501Y-64140942D02*
X106385787Y-64112371D01*
X106385787Y-64112371D02*
X106328644Y-64112371D01*
X106328644Y-64112371D02*
X106242930Y-64140942D01*
X106242930Y-64140942D02*
X106214358Y-64169514D01*
X105957215Y-64483800D02*
X105500073Y-64483800D01*
X105214358Y-64483800D02*
X104757216Y-64483800D01*
D10*
X146875125Y-77843318D02*
X146417982Y-77843318D01*
X146646554Y-78643318D02*
X146646554Y-77843318D01*
X146151315Y-78224270D02*
X145884649Y-78224270D01*
X145770363Y-78643318D02*
X146151315Y-78643318D01*
X146151315Y-78643318D02*
X146151315Y-77843318D01*
X146151315Y-77843318D02*
X145770363Y-77843318D01*
X145427505Y-78643318D02*
X145427505Y-77843318D01*
X145427505Y-77843318D02*
X144970362Y-78643318D01*
X144970362Y-78643318D02*
X144970362Y-77843318D01*
X144703696Y-77843318D02*
X144246553Y-77843318D01*
X144475125Y-78643318D02*
X144475125Y-77843318D01*
X143979886Y-78643318D02*
X143979886Y-77843318D01*
X143598934Y-78643318D02*
X143598934Y-77843318D01*
X143598934Y-77843318D02*
X143141791Y-78643318D01*
X143141791Y-78643318D02*
X143141791Y-77843318D01*
X142341792Y-77881413D02*
X142417982Y-77843318D01*
X142417982Y-77843318D02*
X142532268Y-77843318D01*
X142532268Y-77843318D02*
X142646554Y-77881413D01*
X142646554Y-77881413D02*
X142722744Y-77957603D01*
X142722744Y-77957603D02*
X142760839Y-78033794D01*
X142760839Y-78033794D02*
X142798935Y-78186175D01*
X142798935Y-78186175D02*
X142798935Y-78300461D01*
X142798935Y-78300461D02*
X142760839Y-78452842D01*
X142760839Y-78452842D02*
X142722744Y-78529032D01*
X142722744Y-78529032D02*
X142646554Y-78605223D01*
X142646554Y-78605223D02*
X142532268Y-78643318D01*
X142532268Y-78643318D02*
X142456077Y-78643318D01*
X142456077Y-78643318D02*
X142341792Y-78605223D01*
X142341792Y-78605223D02*
X142303696Y-78567127D01*
X142303696Y-78567127D02*
X142303696Y-78300461D01*
X142303696Y-78300461D02*
X142456077Y-78300461D01*
X146760839Y-79931273D02*
X146760839Y-79131273D01*
X146760839Y-79131273D02*
X146456077Y-79131273D01*
X146456077Y-79131273D02*
X146379887Y-79169368D01*
X146379887Y-79169368D02*
X146341792Y-79207463D01*
X146341792Y-79207463D02*
X146303696Y-79283654D01*
X146303696Y-79283654D02*
X146303696Y-79397939D01*
X146303696Y-79397939D02*
X146341792Y-79474130D01*
X146341792Y-79474130D02*
X146379887Y-79512225D01*
X146379887Y-79512225D02*
X146456077Y-79550320D01*
X146456077Y-79550320D02*
X146760839Y-79550320D01*
X145960839Y-79131273D02*
X145960839Y-79778892D01*
X145960839Y-79778892D02*
X145922744Y-79855082D01*
X145922744Y-79855082D02*
X145884649Y-79893178D01*
X145884649Y-79893178D02*
X145808458Y-79931273D01*
X145808458Y-79931273D02*
X145656077Y-79931273D01*
X145656077Y-79931273D02*
X145579887Y-79893178D01*
X145579887Y-79893178D02*
X145541792Y-79855082D01*
X145541792Y-79855082D02*
X145503696Y-79778892D01*
X145503696Y-79778892D02*
X145503696Y-79131273D01*
X144665601Y-79855082D02*
X144703697Y-79893178D01*
X144703697Y-79893178D02*
X144817982Y-79931273D01*
X144817982Y-79931273D02*
X144894173Y-79931273D01*
X144894173Y-79931273D02*
X145008459Y-79893178D01*
X145008459Y-79893178D02*
X145084649Y-79816987D01*
X145084649Y-79816987D02*
X145122744Y-79740797D01*
X145122744Y-79740797D02*
X145160840Y-79588416D01*
X145160840Y-79588416D02*
X145160840Y-79474130D01*
X145160840Y-79474130D02*
X145122744Y-79321749D01*
X145122744Y-79321749D02*
X145084649Y-79245558D01*
X145084649Y-79245558D02*
X145008459Y-79169368D01*
X145008459Y-79169368D02*
X144894173Y-79131273D01*
X144894173Y-79131273D02*
X144817982Y-79131273D01*
X144817982Y-79131273D02*
X144703697Y-79169368D01*
X144703697Y-79169368D02*
X144665601Y-79207463D01*
X144322744Y-79931273D02*
X144322744Y-79131273D01*
X143865601Y-79931273D02*
X144208459Y-79474130D01*
X143865601Y-79131273D02*
X144322744Y-79588416D01*
D14*
X88039923Y-84793800D02*
X87582781Y-84793800D01*
X87297066Y-84793800D02*
X86839924Y-84793800D01*
X86582781Y-84850942D02*
X86297067Y-84850942D01*
X86639924Y-85022371D02*
X86439924Y-84422371D01*
X86439924Y-84422371D02*
X86239924Y-85022371D01*
X86039923Y-84422371D02*
X86039923Y-84908085D01*
X86039923Y-84908085D02*
X86011352Y-84965228D01*
X86011352Y-84965228D02*
X85982781Y-84993800D01*
X85982781Y-84993800D02*
X85925638Y-85022371D01*
X85925638Y-85022371D02*
X85811352Y-85022371D01*
X85811352Y-85022371D02*
X85754209Y-84993800D01*
X85754209Y-84993800D02*
X85725638Y-84965228D01*
X85725638Y-84965228D02*
X85697066Y-84908085D01*
X85697066Y-84908085D02*
X85697066Y-84422371D01*
X85411352Y-85022371D02*
X85411352Y-84422371D01*
X85411352Y-84422371D02*
X85268495Y-84422371D01*
X85268495Y-84422371D02*
X85182781Y-84450942D01*
X85182781Y-84450942D02*
X85125638Y-84508085D01*
X85125638Y-84508085D02*
X85097067Y-84565228D01*
X85097067Y-84565228D02*
X85068495Y-84679514D01*
X85068495Y-84679514D02*
X85068495Y-84765228D01*
X85068495Y-84765228D02*
X85097067Y-84879514D01*
X85097067Y-84879514D02*
X85125638Y-84936657D01*
X85125638Y-84936657D02*
X85182781Y-84993800D01*
X85182781Y-84993800D02*
X85268495Y-85022371D01*
X85268495Y-85022371D02*
X85411352Y-85022371D01*
X84811352Y-85022371D02*
X84811352Y-84422371D01*
X84411353Y-84422371D02*
X84297067Y-84422371D01*
X84297067Y-84422371D02*
X84239924Y-84450942D01*
X84239924Y-84450942D02*
X84182781Y-84508085D01*
X84182781Y-84508085D02*
X84154210Y-84622371D01*
X84154210Y-84622371D02*
X84154210Y-84822371D01*
X84154210Y-84822371D02*
X84182781Y-84936657D01*
X84182781Y-84936657D02*
X84239924Y-84993800D01*
X84239924Y-84993800D02*
X84297067Y-85022371D01*
X84297067Y-85022371D02*
X84411353Y-85022371D01*
X84411353Y-85022371D02*
X84468496Y-84993800D01*
X84468496Y-84993800D02*
X84525638Y-84936657D01*
X84525638Y-84936657D02*
X84554210Y-84822371D01*
X84554210Y-84822371D02*
X84554210Y-84622371D01*
X84554210Y-84622371D02*
X84525638Y-84508085D01*
X84525638Y-84508085D02*
X84468496Y-84450942D01*
X84468496Y-84450942D02*
X84411353Y-84422371D01*
D11*
X196015999Y-53633911D02*
X195761999Y-54395911D01*
X195761999Y-54395911D02*
X195507999Y-53633911D01*
X194818570Y-54323340D02*
X194854856Y-54359626D01*
X194854856Y-54359626D02*
X194963713Y-54395911D01*
X194963713Y-54395911D02*
X195036285Y-54395911D01*
X195036285Y-54395911D02*
X195145142Y-54359626D01*
X195145142Y-54359626D02*
X195217713Y-54287054D01*
X195217713Y-54287054D02*
X195253999Y-54214483D01*
X195253999Y-54214483D02*
X195290285Y-54069340D01*
X195290285Y-54069340D02*
X195290285Y-53960483D01*
X195290285Y-53960483D02*
X195253999Y-53815340D01*
X195253999Y-53815340D02*
X195217713Y-53742768D01*
X195217713Y-53742768D02*
X195145142Y-53670197D01*
X195145142Y-53670197D02*
X195036285Y-53633911D01*
X195036285Y-53633911D02*
X194963713Y-53633911D01*
X194963713Y-53633911D02*
X194854856Y-53670197D01*
X194854856Y-53670197D02*
X194818570Y-53706483D01*
X194056570Y-54323340D02*
X194092856Y-54359626D01*
X194092856Y-54359626D02*
X194201713Y-54395911D01*
X194201713Y-54395911D02*
X194274285Y-54395911D01*
X194274285Y-54395911D02*
X194383142Y-54359626D01*
X194383142Y-54359626D02*
X194455713Y-54287054D01*
X194455713Y-54287054D02*
X194491999Y-54214483D01*
X194491999Y-54214483D02*
X194528285Y-54069340D01*
X194528285Y-54069340D02*
X194528285Y-53960483D01*
X194528285Y-53960483D02*
X194491999Y-53815340D01*
X194491999Y-53815340D02*
X194455713Y-53742768D01*
X194455713Y-53742768D02*
X194383142Y-53670197D01*
X194383142Y-53670197D02*
X194274285Y-53633911D01*
X194274285Y-53633911D02*
X194201713Y-53633911D01*
X194201713Y-53633911D02*
X194092856Y-53670197D01*
X194092856Y-53670197D02*
X194056570Y-53706483D01*
D14*
X88039923Y-64473800D02*
X87582781Y-64473800D01*
X87297066Y-64473800D02*
X86839924Y-64473800D01*
X86239924Y-64130942D02*
X86297067Y-64102371D01*
X86297067Y-64102371D02*
X86382781Y-64102371D01*
X86382781Y-64102371D02*
X86468495Y-64130942D01*
X86468495Y-64130942D02*
X86525638Y-64188085D01*
X86525638Y-64188085D02*
X86554209Y-64245228D01*
X86554209Y-64245228D02*
X86582781Y-64359514D01*
X86582781Y-64359514D02*
X86582781Y-64445228D01*
X86582781Y-64445228D02*
X86554209Y-64559514D01*
X86554209Y-64559514D02*
X86525638Y-64616657D01*
X86525638Y-64616657D02*
X86468495Y-64673800D01*
X86468495Y-64673800D02*
X86382781Y-64702371D01*
X86382781Y-64702371D02*
X86325638Y-64702371D01*
X86325638Y-64702371D02*
X86239924Y-64673800D01*
X86239924Y-64673800D02*
X86211352Y-64645228D01*
X86211352Y-64645228D02*
X86211352Y-64445228D01*
X86211352Y-64445228D02*
X86325638Y-64445228D01*
X85954209Y-64702371D02*
X85954209Y-64102371D01*
X85954209Y-64102371D02*
X85611352Y-64702371D01*
X85611352Y-64702371D02*
X85611352Y-64102371D01*
X85325638Y-64702371D02*
X85325638Y-64102371D01*
X85325638Y-64102371D02*
X85182781Y-64102371D01*
X85182781Y-64102371D02*
X85097067Y-64130942D01*
X85097067Y-64130942D02*
X85039924Y-64188085D01*
X85039924Y-64188085D02*
X85011353Y-64245228D01*
X85011353Y-64245228D02*
X84982781Y-64359514D01*
X84982781Y-64359514D02*
X84982781Y-64445228D01*
X84982781Y-64445228D02*
X85011353Y-64559514D01*
X85011353Y-64559514D02*
X85039924Y-64616657D01*
X85039924Y-64616657D02*
X85097067Y-64673800D01*
X85097067Y-64673800D02*
X85182781Y-64702371D01*
X85182781Y-64702371D02*
X85325638Y-64702371D01*
X88039923Y-77173800D02*
X87582781Y-77173800D01*
X87297066Y-77173800D02*
X86839924Y-77173800D01*
X86211352Y-77402371D02*
X86411352Y-77116657D01*
X86554209Y-77402371D02*
X86554209Y-76802371D01*
X86554209Y-76802371D02*
X86325638Y-76802371D01*
X86325638Y-76802371D02*
X86268495Y-76830942D01*
X86268495Y-76830942D02*
X86239924Y-76859514D01*
X86239924Y-76859514D02*
X86211352Y-76916657D01*
X86211352Y-76916657D02*
X86211352Y-77002371D01*
X86211352Y-77002371D02*
X86239924Y-77059514D01*
X86239924Y-77059514D02*
X86268495Y-77088085D01*
X86268495Y-77088085D02*
X86325638Y-77116657D01*
X86325638Y-77116657D02*
X86554209Y-77116657D01*
X85839924Y-76802371D02*
X85725638Y-76802371D01*
X85725638Y-76802371D02*
X85668495Y-76830942D01*
X85668495Y-76830942D02*
X85611352Y-76888085D01*
X85611352Y-76888085D02*
X85582781Y-77002371D01*
X85582781Y-77002371D02*
X85582781Y-77202371D01*
X85582781Y-77202371D02*
X85611352Y-77316657D01*
X85611352Y-77316657D02*
X85668495Y-77373800D01*
X85668495Y-77373800D02*
X85725638Y-77402371D01*
X85725638Y-77402371D02*
X85839924Y-77402371D01*
X85839924Y-77402371D02*
X85897067Y-77373800D01*
X85897067Y-77373800D02*
X85954209Y-77316657D01*
X85954209Y-77316657D02*
X85982781Y-77202371D01*
X85982781Y-77202371D02*
X85982781Y-77002371D01*
X85982781Y-77002371D02*
X85954209Y-76888085D01*
X85954209Y-76888085D02*
X85897067Y-76830942D01*
X85897067Y-76830942D02*
X85839924Y-76802371D01*
X85382781Y-76802371D02*
X85239924Y-77402371D01*
X85239924Y-77402371D02*
X85125638Y-76973800D01*
X85125638Y-76973800D02*
X85011353Y-77402371D01*
X85011353Y-77402371D02*
X84868496Y-76802371D01*
X84325639Y-77402371D02*
X84668496Y-77402371D01*
X84497067Y-77402371D02*
X84497067Y-76802371D01*
X84497067Y-76802371D02*
X84554210Y-76888085D01*
X84554210Y-76888085D02*
X84611353Y-76945228D01*
X84611353Y-76945228D02*
X84668496Y-76973800D01*
X88039923Y-61933800D02*
X87582781Y-61933800D01*
X87297066Y-61933800D02*
X86839924Y-61933800D01*
X86239924Y-61590942D02*
X86297067Y-61562371D01*
X86297067Y-61562371D02*
X86382781Y-61562371D01*
X86382781Y-61562371D02*
X86468495Y-61590942D01*
X86468495Y-61590942D02*
X86525638Y-61648085D01*
X86525638Y-61648085D02*
X86554209Y-61705228D01*
X86554209Y-61705228D02*
X86582781Y-61819514D01*
X86582781Y-61819514D02*
X86582781Y-61905228D01*
X86582781Y-61905228D02*
X86554209Y-62019514D01*
X86554209Y-62019514D02*
X86525638Y-62076657D01*
X86525638Y-62076657D02*
X86468495Y-62133800D01*
X86468495Y-62133800D02*
X86382781Y-62162371D01*
X86382781Y-62162371D02*
X86325638Y-62162371D01*
X86325638Y-62162371D02*
X86239924Y-62133800D01*
X86239924Y-62133800D02*
X86211352Y-62105228D01*
X86211352Y-62105228D02*
X86211352Y-61905228D01*
X86211352Y-61905228D02*
X86325638Y-61905228D01*
X85954209Y-62162371D02*
X85954209Y-61562371D01*
X85954209Y-61562371D02*
X85611352Y-62162371D01*
X85611352Y-62162371D02*
X85611352Y-61562371D01*
X85325638Y-62162371D02*
X85325638Y-61562371D01*
X85325638Y-61562371D02*
X85182781Y-61562371D01*
X85182781Y-61562371D02*
X85097067Y-61590942D01*
X85097067Y-61590942D02*
X85039924Y-61648085D01*
X85039924Y-61648085D02*
X85011353Y-61705228D01*
X85011353Y-61705228D02*
X84982781Y-61819514D01*
X84982781Y-61819514D02*
X84982781Y-61905228D01*
X84982781Y-61905228D02*
X85011353Y-62019514D01*
X85011353Y-62019514D02*
X85039924Y-62076657D01*
X85039924Y-62076657D02*
X85097067Y-62133800D01*
X85097067Y-62133800D02*
X85182781Y-62162371D01*
X85182781Y-62162371D02*
X85325638Y-62162371D01*
D10*
X109911904Y-100462295D02*
X109759523Y-100462295D01*
X109759523Y-100462295D02*
X109683333Y-100500390D01*
X109683333Y-100500390D02*
X109607142Y-100576580D01*
X109607142Y-100576580D02*
X109569047Y-100728961D01*
X109569047Y-100728961D02*
X109569047Y-100995628D01*
X109569047Y-100995628D02*
X109607142Y-101148009D01*
X109607142Y-101148009D02*
X109683333Y-101224200D01*
X109683333Y-101224200D02*
X109759523Y-101262295D01*
X109759523Y-101262295D02*
X109911904Y-101262295D01*
X109911904Y-101262295D02*
X109988095Y-101224200D01*
X109988095Y-101224200D02*
X110064285Y-101148009D01*
X110064285Y-101148009D02*
X110102381Y-100995628D01*
X110102381Y-100995628D02*
X110102381Y-100728961D01*
X110102381Y-100728961D02*
X110064285Y-100576580D01*
X110064285Y-100576580D02*
X109988095Y-100500390D01*
X109988095Y-100500390D02*
X109911904Y-100462295D01*
X108845238Y-101262295D02*
X109226190Y-101262295D01*
X109226190Y-101262295D02*
X109226190Y-100462295D01*
X108578571Y-100843247D02*
X108311905Y-100843247D01*
X108197619Y-101262295D02*
X108578571Y-101262295D01*
X108578571Y-101262295D02*
X108578571Y-100462295D01*
X108578571Y-100462295D02*
X108197619Y-100462295D01*
X107854761Y-101262295D02*
X107854761Y-100462295D01*
X107854761Y-100462295D02*
X107664285Y-100462295D01*
X107664285Y-100462295D02*
X107549999Y-100500390D01*
X107549999Y-100500390D02*
X107473809Y-100576580D01*
X107473809Y-100576580D02*
X107435714Y-100652771D01*
X107435714Y-100652771D02*
X107397618Y-100805152D01*
X107397618Y-100805152D02*
X107397618Y-100919438D01*
X107397618Y-100919438D02*
X107435714Y-101071819D01*
X107435714Y-101071819D02*
X107473809Y-101148009D01*
X107473809Y-101148009D02*
X107549999Y-101224200D01*
X107549999Y-101224200D02*
X107664285Y-101262295D01*
X107664285Y-101262295D02*
X107854761Y-101262295D01*
D14*
X94287782Y-138120918D02*
X94668734Y-138120918D01*
X94668734Y-138120918D02*
X94668734Y-137320918D01*
X93868734Y-137320918D02*
X93716353Y-137320918D01*
X93716353Y-137320918D02*
X93640163Y-137359013D01*
X93640163Y-137359013D02*
X93563972Y-137435203D01*
X93563972Y-137435203D02*
X93525877Y-137587584D01*
X93525877Y-137587584D02*
X93525877Y-137854251D01*
X93525877Y-137854251D02*
X93563972Y-138006632D01*
X93563972Y-138006632D02*
X93640163Y-138082823D01*
X93640163Y-138082823D02*
X93716353Y-138120918D01*
X93716353Y-138120918D02*
X93868734Y-138120918D01*
X93868734Y-138120918D02*
X93944925Y-138082823D01*
X93944925Y-138082823D02*
X94021115Y-138006632D01*
X94021115Y-138006632D02*
X94059211Y-137854251D01*
X94059211Y-137854251D02*
X94059211Y-137587584D01*
X94059211Y-137587584D02*
X94021115Y-137435203D01*
X94021115Y-137435203D02*
X93944925Y-137359013D01*
X93944925Y-137359013D02*
X93868734Y-137320918D01*
X93221116Y-138082823D02*
X93106830Y-138120918D01*
X93106830Y-138120918D02*
X92916354Y-138120918D01*
X92916354Y-138120918D02*
X92840163Y-138082823D01*
X92840163Y-138082823D02*
X92802068Y-138044727D01*
X92802068Y-138044727D02*
X92763973Y-137968537D01*
X92763973Y-137968537D02*
X92763973Y-137892346D01*
X92763973Y-137892346D02*
X92802068Y-137816156D01*
X92802068Y-137816156D02*
X92840163Y-137778061D01*
X92840163Y-137778061D02*
X92916354Y-137739965D01*
X92916354Y-137739965D02*
X93068735Y-137701870D01*
X93068735Y-137701870D02*
X93144925Y-137663775D01*
X93144925Y-137663775D02*
X93183020Y-137625680D01*
X93183020Y-137625680D02*
X93221116Y-137549489D01*
X93221116Y-137549489D02*
X93221116Y-137473299D01*
X93221116Y-137473299D02*
X93183020Y-137397108D01*
X93183020Y-137397108D02*
X93144925Y-137359013D01*
X93144925Y-137359013D02*
X93068735Y-137320918D01*
X93068735Y-137320918D02*
X92878258Y-137320918D01*
X92878258Y-137320918D02*
X92763973Y-137359013D01*
X92535401Y-137320918D02*
X92078258Y-137320918D01*
X92306830Y-138120918D02*
X92306830Y-137320918D01*
X94783020Y-138608873D02*
X94325877Y-138608873D01*
X94554449Y-139408873D02*
X94554449Y-138608873D01*
X94059210Y-139408873D02*
X94059210Y-138608873D01*
X94059210Y-138989825D02*
X93602067Y-138989825D01*
X93602067Y-139408873D02*
X93602067Y-138608873D01*
X93221115Y-138608873D02*
X93221115Y-139256492D01*
X93221115Y-139256492D02*
X93183020Y-139332682D01*
X93183020Y-139332682D02*
X93144925Y-139370778D01*
X93144925Y-139370778D02*
X93068734Y-139408873D01*
X93068734Y-139408873D02*
X92916353Y-139408873D01*
X92916353Y-139408873D02*
X92840163Y-139370778D01*
X92840163Y-139370778D02*
X92802068Y-139332682D01*
X92802068Y-139332682D02*
X92763972Y-139256492D01*
X92763972Y-139256492D02*
X92763972Y-138608873D01*
X92383020Y-139408873D02*
X92383020Y-138608873D01*
X92383020Y-138608873D02*
X92116354Y-139180301D01*
X92116354Y-139180301D02*
X91849687Y-138608873D01*
X91849687Y-138608873D02*
X91849687Y-139408873D01*
X91202068Y-138989825D02*
X91087782Y-139027920D01*
X91087782Y-139027920D02*
X91049687Y-139066016D01*
X91049687Y-139066016D02*
X91011591Y-139142206D01*
X91011591Y-139142206D02*
X91011591Y-139256492D01*
X91011591Y-139256492D02*
X91049687Y-139332682D01*
X91049687Y-139332682D02*
X91087782Y-139370778D01*
X91087782Y-139370778D02*
X91163972Y-139408873D01*
X91163972Y-139408873D02*
X91468734Y-139408873D01*
X91468734Y-139408873D02*
X91468734Y-138608873D01*
X91468734Y-138608873D02*
X91202068Y-138608873D01*
X91202068Y-138608873D02*
X91125877Y-138646968D01*
X91125877Y-138646968D02*
X91087782Y-138685063D01*
X91087782Y-138685063D02*
X91049687Y-138761254D01*
X91049687Y-138761254D02*
X91049687Y-138837444D01*
X91049687Y-138837444D02*
X91087782Y-138913635D01*
X91087782Y-138913635D02*
X91125877Y-138951730D01*
X91125877Y-138951730D02*
X91202068Y-138989825D01*
X91202068Y-138989825D02*
X91468734Y-138989825D01*
X90554449Y-139332682D02*
X90516353Y-139370778D01*
X90516353Y-139370778D02*
X90554449Y-139408873D01*
X90554449Y-139408873D02*
X90592544Y-139370778D01*
X90592544Y-139370778D02*
X90554449Y-139332682D01*
X90554449Y-139332682D02*
X90554449Y-139408873D01*
X90706830Y-138646968D02*
X90630639Y-138608873D01*
X90630639Y-138608873D02*
X90440163Y-138608873D01*
X90440163Y-138608873D02*
X90363972Y-138646968D01*
X90363972Y-138646968D02*
X90325877Y-138723158D01*
X90325877Y-138723158D02*
X90325877Y-138799349D01*
X90325877Y-138799349D02*
X90363972Y-138875539D01*
X90363972Y-138875539D02*
X90402068Y-138913635D01*
X90402068Y-138913635D02*
X90478258Y-138951730D01*
X90478258Y-138951730D02*
X90516353Y-138989825D01*
X90516353Y-138989825D02*
X90554449Y-139066016D01*
X90554449Y-139066016D02*
X90554449Y-139104111D01*
X108528644Y-56778085D02*
X108442930Y-56806657D01*
X108442930Y-56806657D02*
X108414359Y-56835228D01*
X108414359Y-56835228D02*
X108385787Y-56892371D01*
X108385787Y-56892371D02*
X108385787Y-56978085D01*
X108385787Y-56978085D02*
X108414359Y-57035228D01*
X108414359Y-57035228D02*
X108442930Y-57063800D01*
X108442930Y-57063800D02*
X108500073Y-57092371D01*
X108500073Y-57092371D02*
X108728644Y-57092371D01*
X108728644Y-57092371D02*
X108728644Y-56492371D01*
X108728644Y-56492371D02*
X108528644Y-56492371D01*
X108528644Y-56492371D02*
X108471502Y-56520942D01*
X108471502Y-56520942D02*
X108442930Y-56549514D01*
X108442930Y-56549514D02*
X108414359Y-56606657D01*
X108414359Y-56606657D02*
X108414359Y-56663800D01*
X108414359Y-56663800D02*
X108442930Y-56720942D01*
X108442930Y-56720942D02*
X108471502Y-56749514D01*
X108471502Y-56749514D02*
X108528644Y-56778085D01*
X108528644Y-56778085D02*
X108728644Y-56778085D01*
X108157216Y-56920942D02*
X107871502Y-56920942D01*
X108214359Y-57092371D02*
X108014359Y-56492371D01*
X108014359Y-56492371D02*
X107814359Y-57092371D01*
X107700073Y-56492371D02*
X107357216Y-56492371D01*
X107528644Y-57092371D02*
X107528644Y-56492371D01*
X107242930Y-56492371D02*
X106900073Y-56492371D01*
X107071501Y-57092371D02*
X107071501Y-56492371D01*
X106700072Y-56863800D02*
X106242930Y-56863800D01*
X106471501Y-57092371D02*
X106471501Y-56635228D01*
X105957215Y-56863800D02*
X105500073Y-56863800D01*
X105214358Y-56863800D02*
X104757216Y-56863800D01*
D11*
X146401769Y-116188626D02*
X146292912Y-116224911D01*
X146292912Y-116224911D02*
X146111483Y-116224911D01*
X146111483Y-116224911D02*
X146038912Y-116188626D01*
X146038912Y-116188626D02*
X146002626Y-116152340D01*
X146002626Y-116152340D02*
X145966340Y-116079768D01*
X145966340Y-116079768D02*
X145966340Y-116007197D01*
X145966340Y-116007197D02*
X146002626Y-115934626D01*
X146002626Y-115934626D02*
X146038912Y-115898340D01*
X146038912Y-115898340D02*
X146111483Y-115862054D01*
X146111483Y-115862054D02*
X146256626Y-115825768D01*
X146256626Y-115825768D02*
X146329197Y-115789483D01*
X146329197Y-115789483D02*
X146365483Y-115753197D01*
X146365483Y-115753197D02*
X146401769Y-115680626D01*
X146401769Y-115680626D02*
X146401769Y-115608054D01*
X146401769Y-115608054D02*
X146365483Y-115535483D01*
X146365483Y-115535483D02*
X146329197Y-115499197D01*
X146329197Y-115499197D02*
X146256626Y-115462911D01*
X146256626Y-115462911D02*
X146075197Y-115462911D01*
X146075197Y-115462911D02*
X145966340Y-115499197D01*
X145204340Y-116152340D02*
X145240626Y-116188626D01*
X145240626Y-116188626D02*
X145349483Y-116224911D01*
X145349483Y-116224911D02*
X145422055Y-116224911D01*
X145422055Y-116224911D02*
X145530912Y-116188626D01*
X145530912Y-116188626D02*
X145603483Y-116116054D01*
X145603483Y-116116054D02*
X145639769Y-116043483D01*
X145639769Y-116043483D02*
X145676055Y-115898340D01*
X145676055Y-115898340D02*
X145676055Y-115789483D01*
X145676055Y-115789483D02*
X145639769Y-115644340D01*
X145639769Y-115644340D02*
X145603483Y-115571768D01*
X145603483Y-115571768D02*
X145530912Y-115499197D01*
X145530912Y-115499197D02*
X145422055Y-115462911D01*
X145422055Y-115462911D02*
X145349483Y-115462911D01*
X145349483Y-115462911D02*
X145240626Y-115499197D01*
X145240626Y-115499197D02*
X145204340Y-115535483D01*
X144514912Y-116224911D02*
X144877769Y-116224911D01*
X144877769Y-116224911D02*
X144877769Y-115462911D01*
D14*
X107471501Y-59060942D02*
X107528644Y-59032371D01*
X107528644Y-59032371D02*
X107614358Y-59032371D01*
X107614358Y-59032371D02*
X107700072Y-59060942D01*
X107700072Y-59060942D02*
X107757215Y-59118085D01*
X107757215Y-59118085D02*
X107785786Y-59175228D01*
X107785786Y-59175228D02*
X107814358Y-59289514D01*
X107814358Y-59289514D02*
X107814358Y-59375228D01*
X107814358Y-59375228D02*
X107785786Y-59489514D01*
X107785786Y-59489514D02*
X107757215Y-59546657D01*
X107757215Y-59546657D02*
X107700072Y-59603800D01*
X107700072Y-59603800D02*
X107614358Y-59632371D01*
X107614358Y-59632371D02*
X107557215Y-59632371D01*
X107557215Y-59632371D02*
X107471501Y-59603800D01*
X107471501Y-59603800D02*
X107442929Y-59575228D01*
X107442929Y-59575228D02*
X107442929Y-59375228D01*
X107442929Y-59375228D02*
X107557215Y-59375228D01*
X107185786Y-59632371D02*
X107185786Y-59032371D01*
X107185786Y-59032371D02*
X106842929Y-59632371D01*
X106842929Y-59632371D02*
X106842929Y-59032371D01*
X106557215Y-59632371D02*
X106557215Y-59032371D01*
X106557215Y-59032371D02*
X106414358Y-59032371D01*
X106414358Y-59032371D02*
X106328644Y-59060942D01*
X106328644Y-59060942D02*
X106271501Y-59118085D01*
X106271501Y-59118085D02*
X106242930Y-59175228D01*
X106242930Y-59175228D02*
X106214358Y-59289514D01*
X106214358Y-59289514D02*
X106214358Y-59375228D01*
X106214358Y-59375228D02*
X106242930Y-59489514D01*
X106242930Y-59489514D02*
X106271501Y-59546657D01*
X106271501Y-59546657D02*
X106328644Y-59603800D01*
X106328644Y-59603800D02*
X106414358Y-59632371D01*
X106414358Y-59632371D02*
X106557215Y-59632371D01*
X105957215Y-59403800D02*
X105500073Y-59403800D01*
X105214358Y-59403800D02*
X104757216Y-59403800D01*
D10*
X207202380Y-74112295D02*
X207202380Y-73312295D01*
X207202380Y-73693247D02*
X206745237Y-73693247D01*
X206745237Y-74112295D02*
X206745237Y-73312295D01*
X206402381Y-73883723D02*
X206021428Y-73883723D01*
X206478571Y-74112295D02*
X206211904Y-73312295D01*
X206211904Y-73312295D02*
X205945238Y-74112295D01*
X205678571Y-74112295D02*
X205678571Y-73312295D01*
X205678571Y-73312295D02*
X205373809Y-73312295D01*
X205373809Y-73312295D02*
X205297619Y-73350390D01*
X205297619Y-73350390D02*
X205259524Y-73388485D01*
X205259524Y-73388485D02*
X205221428Y-73464676D01*
X205221428Y-73464676D02*
X205221428Y-73578961D01*
X205221428Y-73578961D02*
X205259524Y-73655152D01*
X205259524Y-73655152D02*
X205297619Y-73693247D01*
X205297619Y-73693247D02*
X205373809Y-73731342D01*
X205373809Y-73731342D02*
X205678571Y-73731342D01*
X204992857Y-73312295D02*
X204535714Y-73312295D01*
X204764286Y-74112295D02*
X204764286Y-73312295D01*
X204269047Y-74112295D02*
X204269047Y-73312295D01*
X203430952Y-74036104D02*
X203469048Y-74074200D01*
X203469048Y-74074200D02*
X203583333Y-74112295D01*
X203583333Y-74112295D02*
X203659524Y-74112295D01*
X203659524Y-74112295D02*
X203773810Y-74074200D01*
X203773810Y-74074200D02*
X203850000Y-73998009D01*
X203850000Y-73998009D02*
X203888095Y-73921819D01*
X203888095Y-73921819D02*
X203926191Y-73769438D01*
X203926191Y-73769438D02*
X203926191Y-73655152D01*
X203926191Y-73655152D02*
X203888095Y-73502771D01*
X203888095Y-73502771D02*
X203850000Y-73426580D01*
X203850000Y-73426580D02*
X203773810Y-73350390D01*
X203773810Y-73350390D02*
X203659524Y-73312295D01*
X203659524Y-73312295D02*
X203583333Y-73312295D01*
X203583333Y-73312295D02*
X203469048Y-73350390D01*
X203469048Y-73350390D02*
X203430952Y-73388485D01*
X202211905Y-73693247D02*
X202097619Y-73731342D01*
X202097619Y-73731342D02*
X202059524Y-73769438D01*
X202059524Y-73769438D02*
X202021428Y-73845628D01*
X202021428Y-73845628D02*
X202021428Y-73959914D01*
X202021428Y-73959914D02*
X202059524Y-74036104D01*
X202059524Y-74036104D02*
X202097619Y-74074200D01*
X202097619Y-74074200D02*
X202173809Y-74112295D01*
X202173809Y-74112295D02*
X202478571Y-74112295D01*
X202478571Y-74112295D02*
X202478571Y-73312295D01*
X202478571Y-73312295D02*
X202211905Y-73312295D01*
X202211905Y-73312295D02*
X202135714Y-73350390D01*
X202135714Y-73350390D02*
X202097619Y-73388485D01*
X202097619Y-73388485D02*
X202059524Y-73464676D01*
X202059524Y-73464676D02*
X202059524Y-73540866D01*
X202059524Y-73540866D02*
X202097619Y-73617057D01*
X202097619Y-73617057D02*
X202135714Y-73655152D01*
X202135714Y-73655152D02*
X202211905Y-73693247D01*
X202211905Y-73693247D02*
X202478571Y-73693247D01*
X201678571Y-73312295D02*
X201678571Y-73959914D01*
X201678571Y-73959914D02*
X201640476Y-74036104D01*
X201640476Y-74036104D02*
X201602381Y-74074200D01*
X201602381Y-74074200D02*
X201526190Y-74112295D01*
X201526190Y-74112295D02*
X201373809Y-74112295D01*
X201373809Y-74112295D02*
X201297619Y-74074200D01*
X201297619Y-74074200D02*
X201259524Y-74036104D01*
X201259524Y-74036104D02*
X201221428Y-73959914D01*
X201221428Y-73959914D02*
X201221428Y-73312295D01*
X200916667Y-73312295D02*
X200383333Y-73312295D01*
X200383333Y-73312295D02*
X200916667Y-74112295D01*
X200916667Y-74112295D02*
X200383333Y-74112295D01*
X200154762Y-73312295D02*
X199621428Y-73312295D01*
X199621428Y-73312295D02*
X200154762Y-74112295D01*
X200154762Y-74112295D02*
X199621428Y-74112295D01*
X92955523Y-132689295D02*
X92498380Y-132689295D01*
X92726952Y-133489295D02*
X92726952Y-132689295D01*
X91774570Y-133489295D02*
X92041237Y-133108342D01*
X92231713Y-133489295D02*
X92231713Y-132689295D01*
X92231713Y-132689295D02*
X91926951Y-132689295D01*
X91926951Y-132689295D02*
X91850761Y-132727390D01*
X91850761Y-132727390D02*
X91812666Y-132765485D01*
X91812666Y-132765485D02*
X91774570Y-132841676D01*
X91774570Y-132841676D02*
X91774570Y-132955961D01*
X91774570Y-132955961D02*
X91812666Y-133032152D01*
X91812666Y-133032152D02*
X91850761Y-133070247D01*
X91850761Y-133070247D02*
X91926951Y-133108342D01*
X91926951Y-133108342D02*
X92231713Y-133108342D01*
X90974570Y-133489295D02*
X91241237Y-133108342D01*
X91431713Y-133489295D02*
X91431713Y-132689295D01*
X91431713Y-132689295D02*
X91126951Y-132689295D01*
X91126951Y-132689295D02*
X91050761Y-132727390D01*
X91050761Y-132727390D02*
X91012666Y-132765485D01*
X91012666Y-132765485D02*
X90974570Y-132841676D01*
X90974570Y-132841676D02*
X90974570Y-132955961D01*
X90974570Y-132955961D02*
X91012666Y-133032152D01*
X91012666Y-133032152D02*
X91050761Y-133070247D01*
X91050761Y-133070247D02*
X91126951Y-133108342D01*
X91126951Y-133108342D02*
X91431713Y-133108342D01*
X90669809Y-133451200D02*
X90555523Y-133489295D01*
X90555523Y-133489295D02*
X90365047Y-133489295D01*
X90365047Y-133489295D02*
X90288856Y-133451200D01*
X90288856Y-133451200D02*
X90250761Y-133413104D01*
X90250761Y-133413104D02*
X90212666Y-133336914D01*
X90212666Y-133336914D02*
X90212666Y-133260723D01*
X90212666Y-133260723D02*
X90250761Y-133184533D01*
X90250761Y-133184533D02*
X90288856Y-133146438D01*
X90288856Y-133146438D02*
X90365047Y-133108342D01*
X90365047Y-133108342D02*
X90517428Y-133070247D01*
X90517428Y-133070247D02*
X90593618Y-133032152D01*
X90593618Y-133032152D02*
X90631713Y-132994057D01*
X90631713Y-132994057D02*
X90669809Y-132917866D01*
X90669809Y-132917866D02*
X90669809Y-132841676D01*
X90669809Y-132841676D02*
X90631713Y-132765485D01*
X90631713Y-132765485D02*
X90593618Y-132727390D01*
X90593618Y-132727390D02*
X90517428Y-132689295D01*
X90517428Y-132689295D02*
X90326951Y-132689295D01*
X90326951Y-132689295D02*
X90212666Y-132727390D01*
D15*
X82558293Y-148141648D02*
X84007862Y-146692079D01*
X83583598Y-149166953D02*
X82558293Y-148141648D01*
X84007862Y-146692079D02*
X85033167Y-147717384D01*
D14*
X84240783Y-158267842D02*
X84947890Y-158974948D01*
X84947890Y-158974948D02*
X85089311Y-158833527D01*
D15*
X85033167Y-147717384D02*
X83583598Y-149166953D01*
D14*
X85103453Y-158819385D02*
X86694444Y-160410375D01*
X86538880Y-160565939D02*
X86786368Y-160813426D01*
X86680302Y-160424517D02*
X86538880Y-160565939D01*
X86786368Y-160813426D02*
X92726065Y-154873728D01*
X87776317Y-154732308D02*
X84240783Y-158267842D01*
X90321901Y-149499717D02*
X88002591Y-151819028D01*
X90321901Y-149499717D02*
X90576460Y-149754276D01*
X90435039Y-149895697D02*
X90576460Y-149754276D01*
X91997745Y-151500830D02*
X90413825Y-149916910D01*
X92160379Y-151338195D02*
X92018958Y-151479616D01*
X92867486Y-152045302D02*
X92160379Y-151338195D01*
X88015170Y-151836814D02*
G75*
G02*
X87776316Y-154732307I-1727311J-1315110D01*
G01*
X92867485Y-152045301D02*
G75*
G02*
X92726065Y-154873728I-1484921J-1343504D01*
G01*
X138411399Y-131697857D02*
X138411399Y-132697857D01*
X138411399Y-132697857D02*
X138611399Y-132697857D01*
X138411399Y-134947857D02*
X138411399Y-135297857D01*
X138411399Y-135297857D02*
X146811400Y-135297857D01*
X138611399Y-134947857D02*
X138411399Y-134947857D01*
X138631399Y-132697857D02*
X138631399Y-134947857D01*
X143411399Y-131697857D02*
X138411399Y-131697857D01*
D15*
X144381999Y-123347857D02*
X146431999Y-123347857D01*
X144381999Y-124797857D02*
X144381999Y-123347857D01*
X146431999Y-123347857D02*
X146431999Y-124797857D01*
X146431999Y-124797857D02*
X144381999Y-124797857D01*
D14*
X148681399Y-132397857D02*
X148681399Y-130157857D01*
X148711399Y-130157857D02*
X148911399Y-130157857D01*
X148911399Y-129797857D02*
X145631399Y-129797857D01*
X148911399Y-129797857D02*
X148911399Y-130157857D01*
X148911399Y-132397857D02*
X148711399Y-132397857D01*
X148911399Y-133397857D02*
X148911399Y-132397857D01*
X145627717Y-129819328D02*
G75*
G02*
X143411399Y-131697857I-2151317J291470D01*
G01*
X148911399Y-133397856D02*
G75*
G02*
X146811400Y-135297858I-1999999J99997D01*
G01*
X175833841Y-76289925D02*
X184213380Y-76875879D01*
X175858255Y-75940778D02*
X175833841Y-76289925D01*
X176015206Y-73696258D02*
X176214720Y-73710210D01*
X176057768Y-75954729D02*
X175858255Y-75940778D01*
X176084964Y-72698694D02*
X176015206Y-73696258D01*
X176234672Y-73711605D02*
X176077719Y-75956124D01*
X181072784Y-73047477D02*
X176084964Y-72698694D01*
D15*
X182522340Y-66231990D02*
X182623486Y-64785523D01*
X182623486Y-64785523D02*
X184668493Y-64928523D01*
X184567346Y-66374991D02*
X182522340Y-66231990D01*
X184668493Y-64928523D02*
X184567346Y-66374991D01*
D14*
X186281117Y-74113388D02*
X186437372Y-71878845D01*
X186440800Y-75126996D02*
X186510557Y-74129432D01*
X186467299Y-71880937D02*
X186666811Y-71894889D01*
X186510557Y-74129432D02*
X186311044Y-74115481D01*
X186691924Y-71535766D02*
X183419914Y-71306964D01*
X186691924Y-71535766D02*
X186666811Y-71894889D01*
X183414743Y-71328126D02*
G75*
G02*
X181072784Y-73047477I-2125745J440828D01*
G01*
X186440801Y-75126995D02*
G75*
G02*
X184213380Y-76875881I-1988152J239266D01*
G01*
D10*
X193133423Y-110917974D02*
X194141304Y-110384892D01*
X193254977Y-110228607D02*
X193011869Y-111607339D01*
X193898196Y-111763623D02*
X193133423Y-110917974D01*
X194141304Y-110384892D02*
X193898196Y-111763623D01*
X136497000Y-95497000D02*
X136497000Y-96897000D01*
X136497000Y-96197000D02*
X137397000Y-95497000D01*
X137397000Y-95497000D02*
X137397000Y-96897000D01*
X137397000Y-96897000D02*
X136497000Y-96197000D01*
X174097077Y-116283708D02*
X175043714Y-115648194D01*
X174145907Y-115585413D02*
X174048247Y-116982003D01*
X174946055Y-117044783D02*
X174097077Y-116283708D01*
X175043714Y-115648194D02*
X174946055Y-117044783D01*
D14*
X118230352Y-135667286D02*
X118489171Y-136633212D01*
X118489171Y-136633212D02*
X118682357Y-136581448D01*
X118701675Y-136576272D02*
X119284018Y-138749605D01*
X119071514Y-138806545D02*
X119162101Y-139144619D01*
X119162101Y-139144619D02*
X127275879Y-136970539D01*
X119264699Y-138754781D02*
X119071514Y-138806545D01*
D15*
X121836370Y-126056500D02*
X123816518Y-125525921D01*
X122211658Y-127457093D02*
X121836370Y-126056500D01*
D14*
X123059981Y-134373191D02*
X118230352Y-135667286D01*
D15*
X123816518Y-125525921D02*
X124191806Y-126926514D01*
X124191806Y-126926514D02*
X122211658Y-127457093D01*
D14*
X127780807Y-131513924D02*
X127973992Y-131462160D01*
X127880817Y-131114427D02*
X124712581Y-131963354D01*
X127880817Y-131114427D02*
X127973992Y-131462160D01*
X128331584Y-133685363D02*
X127751829Y-131521689D01*
X128553747Y-133625834D02*
X128360562Y-133677598D01*
X128812566Y-134591760D02*
X128553747Y-133625834D01*
X124714581Y-131985046D02*
G75*
G02*
X123059981Y-134373190I-2153450J-275263D01*
G01*
X128812566Y-134591759D02*
G75*
G02*
X127275879Y-136970540I-1957732J-421048D01*
G01*
X154511399Y-81675260D02*
X154511399Y-82675260D01*
X154511399Y-82675260D02*
X154711399Y-82675260D01*
X154511399Y-84925260D02*
X154511399Y-85275260D01*
X154511399Y-85275260D02*
X162911400Y-85275260D01*
X154711399Y-84925260D02*
X154511399Y-84925260D01*
X154731399Y-82675260D02*
X154731399Y-84925260D01*
X159511399Y-81675260D02*
X154511399Y-81675260D01*
D15*
X160481999Y-73325260D02*
X162531999Y-73325260D01*
X160481999Y-74775260D02*
X160481999Y-73325260D01*
X162531999Y-73325260D02*
X162531999Y-74775260D01*
X162531999Y-74775260D02*
X160481999Y-74775260D01*
D14*
X164781399Y-82375260D02*
X164781399Y-80135260D01*
X164811399Y-80135260D02*
X165011399Y-80135260D01*
X165011399Y-79775260D02*
X161731399Y-79775260D01*
X165011399Y-79775260D02*
X165011399Y-80135260D01*
X165011399Y-82375260D02*
X164811399Y-82375260D01*
X165011399Y-83375260D02*
X165011399Y-82375260D01*
X161727717Y-79796731D02*
G75*
G02*
X159511399Y-81675260I-2151317J291470D01*
G01*
X165011399Y-83375259D02*
G75*
G02*
X162911400Y-85275261I-1999999J99997D01*
G01*
X213318108Y-107387776D02*
X221590493Y-108846419D01*
X213378885Y-107043092D02*
X213318108Y-107387776D01*
X213575847Y-107077820D02*
X213378885Y-107043092D01*
X213769594Y-104827274D02*
X213966555Y-104862004D01*
X213943242Y-103842467D02*
X213769594Y-104827274D01*
X213986251Y-104865477D02*
X213595543Y-107081294D01*
X218867282Y-104710708D02*
X213943242Y-103842467D01*
D15*
X221021307Y-98084077D02*
X221273097Y-96656106D01*
X221273097Y-96656106D02*
X223291953Y-97012084D01*
X223040163Y-98440056D02*
X221021307Y-98084077D01*
X223291953Y-97012084D02*
X223040163Y-98440056D01*
D14*
X223935664Y-106315199D02*
X224324636Y-104109229D01*
X223988521Y-107339946D02*
X224162169Y-106355138D01*
X224162169Y-106355138D02*
X223965208Y-106320408D01*
X224354180Y-104114439D02*
X224551141Y-104149169D01*
X224613655Y-103794638D02*
X221383485Y-103225072D01*
X224613655Y-103794638D02*
X224551141Y-104149169D01*
X221376131Y-103245577D02*
G75*
G02*
X218867282Y-104710708I-2068021J660614D01*
G01*
X223988521Y-107339945D02*
G75*
G02*
X221590493Y-108846419I-1952250J445775D01*
G01*
D10*
X128530380Y-125788544D02*
X128973590Y-124738037D01*
X128973590Y-124738037D02*
X129882676Y-125426197D01*
X129649739Y-124556864D02*
X128297442Y-124919209D01*
X129882676Y-125426197D02*
X128530380Y-125788544D01*
D16*
X154510000Y-111690000D02*
X154510000Y-114940000D01*
X154510000Y-117640000D02*
X154510000Y-120890000D01*
X154510000Y-120890000D02*
X165710000Y-120890000D01*
X165710000Y-111690000D02*
X154510000Y-111690000D01*
X165710000Y-114940000D02*
X165710000Y-111690000D01*
X165710000Y-120890000D02*
X165710000Y-117640000D01*
D14*
X173172967Y-114342197D02*
X181552506Y-114928151D01*
X173197381Y-113993050D02*
X173172967Y-114342197D01*
X173354332Y-111748530D02*
X173553846Y-111762482D01*
X173396894Y-114007001D02*
X173197381Y-113993050D01*
X173424090Y-110750966D02*
X173354332Y-111748530D01*
X173573798Y-111763877D02*
X173416845Y-114008396D01*
X178411910Y-111099749D02*
X173424090Y-110750966D01*
D15*
X179861466Y-104284262D02*
X179962612Y-102837795D01*
X179962612Y-102837795D02*
X182007619Y-102980795D01*
X181906472Y-104427263D02*
X179861466Y-104284262D01*
X182007619Y-102980795D02*
X181906472Y-104427263D01*
D14*
X183620243Y-112165660D02*
X183776498Y-109931117D01*
X183779926Y-113179268D02*
X183849683Y-112181704D01*
X183806425Y-109933209D02*
X184005937Y-109947161D01*
X183849683Y-112181704D02*
X183650170Y-112167753D01*
X184031050Y-109588038D02*
X180759040Y-109359236D01*
X184031050Y-109588038D02*
X184005937Y-109947161D01*
X180753869Y-109380398D02*
G75*
G02*
X178411910Y-111099749I-2125745J440828D01*
G01*
X183779927Y-113179267D02*
G75*
G02*
X181552506Y-114928153I-1988152J239266D01*
G01*
X116467969Y-93675260D02*
X116467969Y-94675260D01*
X116467969Y-94675260D02*
X116667969Y-94675260D01*
X116467969Y-96925260D02*
X116467969Y-97275260D01*
X116467969Y-97275260D02*
X124867970Y-97275260D01*
X116667969Y-96925260D02*
X116467969Y-96925260D01*
X116687969Y-94675260D02*
X116687969Y-96925260D01*
X121467969Y-93675260D02*
X116467969Y-93675260D01*
D15*
X122438569Y-85325260D02*
X124488569Y-85325260D01*
X122438569Y-86775260D02*
X122438569Y-85325260D01*
X124488569Y-85325260D02*
X124488569Y-86775260D01*
X124488569Y-86775260D02*
X122438569Y-86775260D01*
D14*
X126737969Y-94375260D02*
X126737969Y-92135260D01*
X126767969Y-92135260D02*
X126967969Y-92135260D01*
X126967969Y-91775260D02*
X123687969Y-91775260D01*
X126967969Y-91775260D02*
X126967969Y-92135260D01*
X126967969Y-94375260D02*
X126767969Y-94375260D01*
X126967969Y-95375260D02*
X126967969Y-94375260D01*
X123684287Y-91796731D02*
G75*
G02*
X121467969Y-93675260I-2151317J291470D01*
G01*
X126967969Y-95375259D02*
G75*
G02*
X124867970Y-97275261I-1999999J99997D01*
G01*
D10*
X154500000Y-105600000D02*
X154500000Y-107000000D01*
X154500000Y-106300000D02*
X155400000Y-105600000D01*
X155400000Y-105600000D02*
X155400000Y-107000000D01*
X155400000Y-107000000D02*
X154500000Y-106300000D01*
D16*
X89490000Y-108050000D02*
X89490000Y-119850000D01*
X93590000Y-108050000D02*
X89490000Y-108050000D01*
X93590000Y-119850000D02*
X89490000Y-119850000D01*
X95090000Y-113950000D02*
X96090000Y-113950000D01*
X95590000Y-113450000D02*
X95590000Y-114450000D01*
X97590000Y-108050000D02*
X101690000Y-108050000D01*
X101690000Y-108050000D02*
X101690000Y-110450000D01*
X101690000Y-112650000D02*
X101690000Y-115250000D01*
X101690000Y-117450000D02*
X101690000Y-119850000D01*
X101690000Y-119850000D02*
X97590000Y-119850000D01*
X98590000Y-113950000D02*
G75*
G02*
X92590000Y-113950000I-3000000J0D01*
G01*
X92590000Y-113950000D02*
G75*
G02*
X98590000Y-113950000I3000000J0D01*
G01*
X91429110Y-97255000D02*
X101429110Y-97255000D01*
X101429110Y-99655000D01*
X91429110Y-99655000D01*
X91429110Y-97255000D01*
X83179110Y-80255000D02*
X109579110Y-80255000D01*
X109579110Y-96855000D01*
X83179110Y-96855000D01*
X83179110Y-80255000D01*
X82729110Y-72855000D02*
X110129110Y-72855000D01*
X110129110Y-100155000D01*
X82729110Y-100155000D01*
X82729110Y-72855000D01*
D10*
X80900000Y-126125000D02*
X92900000Y-126125000D01*
X80900000Y-132125000D02*
X80900000Y-126125000D01*
X92900000Y-126125000D02*
X92900000Y-132125000D01*
X92900000Y-132125000D02*
X80900000Y-132125000D01*
D14*
X210006187Y-126170617D02*
X218278572Y-127629260D01*
X210066964Y-125825933D02*
X210006187Y-126170617D01*
X210263926Y-125860661D02*
X210066964Y-125825933D01*
X210457673Y-123610115D02*
X210654634Y-123644845D01*
X210631321Y-122625308D02*
X210457673Y-123610115D01*
X210674330Y-123648318D02*
X210283622Y-125864135D01*
X215555361Y-123493549D02*
X210631321Y-122625308D01*
D15*
X217709386Y-116866918D02*
X217961176Y-115438947D01*
X217961176Y-115438947D02*
X219980032Y-115794925D01*
X219728242Y-117222897D02*
X217709386Y-116866918D01*
X219980032Y-115794925D02*
X219728242Y-117222897D01*
D14*
X220623743Y-125098040D02*
X221012715Y-122892070D01*
X220676600Y-126122787D02*
X220850248Y-125137979D01*
X220850248Y-125137979D02*
X220653287Y-125103249D01*
X221042259Y-122897280D02*
X221239220Y-122932010D01*
X221301734Y-122577479D02*
X218071564Y-122007913D01*
X221301734Y-122577479D02*
X221239220Y-122932010D01*
X218064210Y-122028418D02*
G75*
G02*
X215555361Y-123493549I-2068021J660614D01*
G01*
X220676600Y-126122786D02*
G75*
G02*
X218278572Y-127629260I-1952250J445775D01*
G01*
D10*
X116500000Y-98500000D02*
X116500000Y-99900000D01*
X116500000Y-99200000D02*
X117400000Y-98500000D01*
X117400000Y-98500000D02*
X117400000Y-99900000D01*
X117400000Y-99900000D02*
X116500000Y-99200000D01*
D14*
X116467969Y-112747857D02*
X116467969Y-113747857D01*
X116467969Y-113747857D02*
X116667969Y-113747857D01*
X116467969Y-115997857D02*
X116467969Y-116347857D01*
X116467969Y-116347857D02*
X124867970Y-116347857D01*
X116667969Y-115997857D02*
X116467969Y-115997857D01*
X116687969Y-113747857D02*
X116687969Y-115997857D01*
X121467969Y-112747857D02*
X116467969Y-112747857D01*
D15*
X122438569Y-104397857D02*
X124488569Y-104397857D01*
X122438569Y-105847857D02*
X122438569Y-104397857D01*
X124488569Y-104397857D02*
X124488569Y-105847857D01*
X124488569Y-105847857D02*
X122438569Y-105847857D01*
D14*
X126737969Y-113447857D02*
X126737969Y-111207857D01*
X126767969Y-111207857D02*
X126967969Y-111207857D01*
X126967969Y-110847857D02*
X123687969Y-110847857D01*
X126967969Y-110847857D02*
X126967969Y-111207857D01*
X126967969Y-113447857D02*
X126767969Y-113447857D01*
X126967969Y-114447857D02*
X126967969Y-113447857D01*
X123684287Y-110869328D02*
G75*
G02*
X121467969Y-112747857I-2151317J291470D01*
G01*
X126967969Y-114447856D02*
G75*
G02*
X124867970Y-116347858I-1999999J99997D01*
G01*
D10*
X196433423Y-92117974D02*
X197441304Y-91584892D01*
X196554977Y-91428607D02*
X196311869Y-92807339D01*
X197198196Y-92963623D02*
X196433423Y-92117974D01*
X197441304Y-91584892D02*
X197198196Y-92963623D01*
X107115782Y-132596167D02*
X107272000Y-131466744D01*
X107272000Y-131466744D02*
X108328218Y-131896167D01*
X107878218Y-131116744D02*
X106665782Y-131816744D01*
X108328218Y-131896167D02*
X107115782Y-132596167D01*
D14*
X116467969Y-74602664D02*
X116467969Y-75602664D01*
X116467969Y-75602664D02*
X116667969Y-75602664D01*
X116467969Y-77852664D02*
X116467969Y-78202664D01*
X116467969Y-78202664D02*
X124867970Y-78202664D01*
X116667969Y-77852664D02*
X116467969Y-77852664D01*
X116687969Y-75602664D02*
X116687969Y-77852664D01*
X121467969Y-74602664D02*
X116467969Y-74602664D01*
D15*
X122438569Y-66252664D02*
X124488569Y-66252664D01*
X122438569Y-67702664D02*
X122438569Y-66252664D01*
X124488569Y-66252664D02*
X124488569Y-67702664D01*
X124488569Y-67702664D02*
X122438569Y-67702664D01*
D14*
X126737969Y-75302664D02*
X126737969Y-73062664D01*
X126767969Y-73062664D02*
X126967969Y-73062664D01*
X126967969Y-72702664D02*
X123687969Y-72702664D01*
X126967969Y-72702664D02*
X126967969Y-73062664D01*
X126967969Y-75302664D02*
X126767969Y-75302664D01*
X126967969Y-76302664D02*
X126967969Y-75302664D01*
X123684287Y-72724135D02*
G75*
G02*
X121467969Y-74602664I-2151317J291470D01*
G01*
X126967969Y-76302663D02*
G75*
G02*
X124867970Y-78202665I-1999999J99997D01*
G01*
D16*
X80890000Y-100740000D02*
X88710000Y-100740000D01*
X80890000Y-101660000D02*
X80890000Y-100740000D01*
X80890000Y-105940000D02*
X82490000Y-105940000D01*
X80890000Y-106860000D02*
X80890000Y-105940000D01*
X82490000Y-100740000D02*
X82490000Y-101660000D01*
X82490000Y-101660000D02*
X80890000Y-101660000D01*
X82490000Y-101940000D02*
X81275000Y-101940000D01*
X82490000Y-101940000D02*
X82490000Y-101660000D01*
X82490000Y-105940000D02*
X82490000Y-105660000D01*
X82490000Y-106860000D02*
X82490000Y-105940000D01*
X84350000Y-103300000D02*
X84350000Y-104300000D01*
X84350000Y-104300000D02*
X88710000Y-104300000D01*
X84850000Y-101500000D02*
X86450000Y-101500000D01*
X84850000Y-102500000D02*
X84850000Y-101500000D01*
X84850000Y-105100000D02*
X84850000Y-106100000D01*
X84850000Y-106100000D02*
X86450000Y-106100000D01*
X86450000Y-101500000D02*
X86450000Y-102500000D01*
X86450000Y-102000000D02*
X88710000Y-102000000D01*
X86450000Y-102500000D02*
X84850000Y-102500000D01*
X86450000Y-102500000D02*
X88710000Y-102500000D01*
X86450000Y-105100000D02*
X84850000Y-105100000D01*
X86450000Y-106100000D02*
X86450000Y-105100000D01*
X88710000Y-100740000D02*
X88710000Y-106860000D01*
X88710000Y-103300000D02*
X84350000Y-103300000D01*
X88710000Y-106860000D02*
X80890000Y-106860000D01*
D14*
X174503404Y-95316060D02*
X182882943Y-95902014D01*
X174527818Y-94966913D02*
X174503404Y-95316060D01*
X174684769Y-92722393D02*
X174884283Y-92736345D01*
X174727331Y-94980864D02*
X174527818Y-94966913D01*
X174754527Y-91724829D02*
X174684769Y-92722393D01*
X174904235Y-92737740D02*
X174747282Y-94982259D01*
X179742347Y-92073612D02*
X174754527Y-91724829D01*
D15*
X181191903Y-85258125D02*
X181293049Y-83811658D01*
X181293049Y-83811658D02*
X183338056Y-83954658D01*
X183236909Y-85401126D02*
X181191903Y-85258125D01*
X183338056Y-83954658D02*
X183236909Y-85401126D01*
D14*
X184950680Y-93139523D02*
X185106935Y-90904980D01*
X185110363Y-94153131D02*
X185180120Y-93155567D01*
X185136862Y-90907072D02*
X185336374Y-90921024D01*
X185180120Y-93155567D02*
X184980607Y-93141616D01*
X185361487Y-90561901D02*
X182089477Y-90333099D01*
X185361487Y-90561901D02*
X185336374Y-90921024D01*
X182084306Y-90354261D02*
G75*
G02*
X179742347Y-92073612I-2125745J440828D01*
G01*
X185110364Y-94153130D02*
G75*
G02*
X182882943Y-95902016I-1988152J239266D01*
G01*
D16*
X81009995Y-121660008D02*
X81009995Y-119660008D01*
X83809995Y-118260008D02*
X82809995Y-118260008D01*
X83809995Y-118860008D02*
X83809995Y-118260008D01*
X83809995Y-122460008D02*
X83809995Y-123060008D01*
X83809995Y-123060008D02*
X82809995Y-123060008D01*
D10*
X221381769Y-110808378D02*
X222389650Y-110275296D01*
X221503323Y-110119011D02*
X221260215Y-111497743D01*
X222146542Y-111654027D02*
X221381769Y-110808378D01*
X222389650Y-110275296D02*
X222146542Y-111654027D01*
X135500000Y-76400000D02*
X135500000Y-77800000D01*
X135500000Y-77100000D02*
X136400000Y-76400000D01*
X136400000Y-76400000D02*
X136400000Y-77800000D01*
X136400000Y-77800000D02*
X135500000Y-77100000D01*
X154600000Y-67400000D02*
X154600000Y-68800000D01*
X154600000Y-68100000D02*
X155500000Y-67400000D01*
X155500000Y-67400000D02*
X155500000Y-68800000D01*
X155500000Y-68800000D02*
X154600000Y-68100000D01*
X154579000Y-86485000D02*
X154579000Y-87885000D01*
X154579000Y-87185000D02*
X155479000Y-86485000D01*
X155479000Y-86485000D02*
X155479000Y-87885000D01*
X155479000Y-87885000D02*
X154579000Y-87185000D01*
X189807596Y-129613176D02*
X190815477Y-129080094D01*
X189929150Y-128923809D02*
X189686042Y-130302541D01*
X190572369Y-130458825D02*
X189807596Y-129613176D01*
X190815477Y-129080094D02*
X190572369Y-130458825D01*
X100380000Y-106260000D02*
X100380000Y-107660000D01*
X100380000Y-106960000D02*
X101280000Y-106260000D01*
X101280000Y-106260000D02*
X101280000Y-107660000D01*
X101280000Y-107660000D02*
X100380000Y-106960000D01*
D14*
X154511399Y-62602664D02*
X154511399Y-63602664D01*
X154511399Y-63602664D02*
X154711399Y-63602664D01*
X154511399Y-65852664D02*
X154511399Y-66202664D01*
X154511399Y-66202664D02*
X162911400Y-66202664D01*
X154711399Y-65852664D02*
X154511399Y-65852664D01*
X154731399Y-63602664D02*
X154731399Y-65852664D01*
X159511399Y-62602664D02*
X154511399Y-62602664D01*
D15*
X160481999Y-54252664D02*
X162531999Y-54252664D01*
X160481999Y-55702664D02*
X160481999Y-54252664D01*
X162531999Y-54252664D02*
X162531999Y-55702664D01*
X162531999Y-55702664D02*
X160481999Y-55702664D01*
D14*
X164781399Y-63302664D02*
X164781399Y-61062664D01*
X164811399Y-61062664D02*
X165011399Y-61062664D01*
X165011399Y-60702664D02*
X161731399Y-60702664D01*
X165011399Y-60702664D02*
X165011399Y-61062664D01*
X165011399Y-63302664D02*
X164811399Y-63302664D01*
X165011399Y-64302664D02*
X165011399Y-63302664D01*
X161727717Y-60724135D02*
G75*
G02*
X159511399Y-62602664I-2151317J291470D01*
G01*
X165011399Y-64302663D02*
G75*
G02*
X162911400Y-66202665I-1999999J99997D01*
G01*
D17*
X129279000Y-93542500D02*
G75*
G02*
X130312865Y-89391955I20320000J-2857500D01*
G01*
X130312865Y-103408045D02*
G75*
G02*
X129279000Y-99257500I19286154J7008051D01*
G01*
X142590954Y-77113865D02*
G75*
G02*
X146741500Y-76080000I7008046J-19286135D01*
G01*
X152456500Y-76080000D02*
G75*
G02*
X156607044Y-77113864I-2857530J-20320120D01*
G01*
X168885135Y-89391954D02*
G75*
G02*
X169919000Y-93542500I-19286135J-7008046D01*
G01*
X169919000Y-99257500D02*
G75*
G02*
X168885134Y-103408049I-20320000J2857500D01*
G01*
D14*
X99763437Y-144729812D02*
X100263437Y-145595838D01*
X100263437Y-145595838D02*
X100436642Y-145495838D01*
X100453963Y-145485838D02*
X101578963Y-147434395D01*
D15*
X100759128Y-134513200D02*
X102534480Y-133488200D01*
D14*
X101388437Y-147544395D02*
X101563437Y-147847504D01*
D15*
X101484128Y-135768937D02*
X100759128Y-134513200D01*
D14*
X101561642Y-147444395D02*
X101388437Y-147544395D01*
X101563437Y-147847504D02*
X108838051Y-143647503D01*
D15*
X102534480Y-133488200D02*
X103259480Y-134743937D01*
X103259480Y-134743937D02*
X101484128Y-135768937D01*
D14*
X104093564Y-142229812D02*
X99763437Y-144729812D01*
X107906704Y-137834364D02*
X105066141Y-139474364D01*
X107906704Y-137834364D02*
X108086704Y-138146133D01*
X107913499Y-138246133D02*
X108086704Y-138146133D01*
X109007518Y-140201030D02*
X107887518Y-138261133D01*
X109206704Y-140086030D02*
X109033499Y-140186030D01*
X109706704Y-140952055D02*
X109206704Y-140086030D01*
X105073687Y-139494799D02*
G75*
G02*
X104093564Y-142229811I-2008830J-823238D01*
G01*
X109706703Y-140952055D02*
G75*
G02*
X108838051Y-143647503I-1782047J-913399D01*
G01*
X190403949Y-127791347D02*
X198676334Y-129249990D01*
X190464726Y-127446663D02*
X190403949Y-127791347D01*
X190661688Y-127481391D02*
X190464726Y-127446663D01*
X190855435Y-125230845D02*
X191052396Y-125265575D01*
X191029083Y-124246038D02*
X190855435Y-125230845D01*
X191072092Y-125269048D02*
X190681384Y-127484865D01*
X195953123Y-125114279D02*
X191029083Y-124246038D01*
D15*
X198107148Y-118487648D02*
X198358938Y-117059677D01*
X198358938Y-117059677D02*
X200377794Y-117415655D01*
X200126004Y-118843627D02*
X198107148Y-118487648D01*
X200377794Y-117415655D02*
X200126004Y-118843627D01*
D14*
X201021505Y-126718770D02*
X201410477Y-124512800D01*
X201074362Y-127743517D02*
X201248010Y-126758709D01*
X201248010Y-126758709D02*
X201051049Y-126723979D01*
X201440021Y-124518010D02*
X201636982Y-124552740D01*
X201699496Y-124198209D02*
X198469326Y-123628643D01*
X201699496Y-124198209D02*
X201636982Y-124552740D01*
X198461972Y-123649148D02*
G75*
G02*
X195953123Y-125114279I-2068021J660614D01*
G01*
X201074362Y-127743516D02*
G75*
G02*
X198676334Y-129249990I-1952250J445775D01*
G01*
D10*
X174105359Y-97246536D02*
X175051996Y-96611022D01*
X174154189Y-96548241D02*
X174056529Y-97944831D01*
X174954337Y-98007611D02*
X174105359Y-97246536D01*
X175051996Y-96611022D02*
X174954337Y-98007611D01*
D14*
X135461399Y-109747857D02*
X135461399Y-110747857D01*
X135461399Y-110747857D02*
X135661399Y-110747857D01*
X135461399Y-112997857D02*
X135461399Y-113347857D01*
X135461399Y-113347857D02*
X143861400Y-113347857D01*
X135661399Y-112997857D02*
X135461399Y-112997857D01*
X135681399Y-110747857D02*
X135681399Y-112997857D01*
X140461399Y-109747857D02*
X135461399Y-109747857D01*
D15*
X141431999Y-101397857D02*
X143481999Y-101397857D01*
X141431999Y-102847857D02*
X141431999Y-101397857D01*
X143481999Y-101397857D02*
X143481999Y-102847857D01*
X143481999Y-102847857D02*
X141431999Y-102847857D01*
D14*
X145731399Y-110447857D02*
X145731399Y-108207857D01*
X145761399Y-108207857D02*
X145961399Y-108207857D01*
X145961399Y-107847857D02*
X142681399Y-107847857D01*
X145961399Y-107847857D02*
X145961399Y-108207857D01*
X145961399Y-110447857D02*
X145761399Y-110447857D01*
X145961399Y-111447857D02*
X145961399Y-110447857D01*
X142677717Y-107869328D02*
G75*
G02*
X140461399Y-109747857I-2151317J291470D01*
G01*
X145961399Y-111447856D02*
G75*
G02*
X143861400Y-113347858I-1999999J99997D01*
G01*
X135461399Y-90675260D02*
X135461399Y-91675260D01*
X135461399Y-91675260D02*
X135661399Y-91675260D01*
X135461399Y-93925260D02*
X135461399Y-94275260D01*
X135461399Y-94275260D02*
X143861400Y-94275260D01*
X135661399Y-93925260D02*
X135461399Y-93925260D01*
X135681399Y-91675260D02*
X135681399Y-93925260D01*
X140461399Y-90675260D02*
X135461399Y-90675260D01*
D15*
X141431999Y-82325260D02*
X143481999Y-82325260D01*
X141431999Y-83775260D02*
X141431999Y-82325260D01*
X143481999Y-82325260D02*
X143481999Y-83775260D01*
X143481999Y-83775260D02*
X141431999Y-83775260D01*
D14*
X145731399Y-91375260D02*
X145731399Y-89135260D01*
X145761399Y-89135260D02*
X145961399Y-89135260D01*
X145961399Y-88775260D02*
X142681399Y-88775260D01*
X145961399Y-88775260D02*
X145961399Y-89135260D01*
X145961399Y-91375260D02*
X145761399Y-91375260D01*
X145961399Y-92375260D02*
X145961399Y-91375260D01*
X142677717Y-88796731D02*
G75*
G02*
X140461399Y-90675260I-2151317J291470D01*
G01*
X145961399Y-92375259D02*
G75*
G02*
X143861400Y-94275261I-1999999J99997D01*
G01*
D10*
X175497077Y-78183708D02*
X176443714Y-77548194D01*
X175545907Y-77485413D02*
X175448247Y-78882003D01*
X176346055Y-78944783D02*
X175497077Y-78183708D01*
X176443714Y-77548194D02*
X176346055Y-78944783D01*
X87919365Y-143324365D02*
X89050735Y-143465786D01*
X88060786Y-144455735D02*
X87919365Y-143324365D01*
X88414339Y-142829390D02*
X87424390Y-143819339D01*
X89050735Y-143465786D02*
X88060786Y-144455735D01*
X147500000Y-102800000D02*
X148900000Y-102800000D01*
X147500000Y-103700000D02*
X148900000Y-103700000D01*
X148200000Y-103700000D02*
X147500000Y-102800000D01*
X148900000Y-102800000D02*
X148200000Y-103700000D01*
D14*
X197027793Y-90225666D02*
X205300178Y-91684309D01*
X197088570Y-89880982D02*
X197027793Y-90225666D01*
X197285532Y-89915710D02*
X197088570Y-89880982D01*
X197479279Y-87665164D02*
X197676240Y-87699894D01*
X197652927Y-86680357D02*
X197479279Y-87665164D01*
X197695936Y-87703367D02*
X197305228Y-89919184D01*
X202576967Y-87548598D02*
X197652927Y-86680357D01*
D15*
X204730992Y-80921967D02*
X204982782Y-79493996D01*
X204982782Y-79493996D02*
X207001638Y-79849974D01*
X206749848Y-81277946D02*
X204730992Y-80921967D01*
X207001638Y-79849974D02*
X206749848Y-81277946D01*
D14*
X207645349Y-89153089D02*
X208034321Y-86947119D01*
X207698206Y-90177836D02*
X207871854Y-89193028D01*
X207871854Y-89193028D02*
X207674893Y-89158298D01*
X208063865Y-86952329D02*
X208260826Y-86987059D01*
X208323340Y-86632528D02*
X205093170Y-86062962D01*
X208323340Y-86632528D02*
X208260826Y-86987059D01*
X205085816Y-86083467D02*
G75*
G02*
X202576967Y-87548598I-2068021J660614D01*
G01*
X207698206Y-90177835D02*
G75*
G02*
X205300178Y-91684309I-1952250J445775D01*
G01*
D10*
X116500000Y-79400000D02*
X116500000Y-80800000D01*
X116500000Y-80100000D02*
X117400000Y-79400000D01*
X117400000Y-79400000D02*
X117400000Y-80800000D01*
X117400000Y-80800000D02*
X116500000Y-80100000D01*
X80721228Y-60676228D02*
X80721228Y-67426228D01*
X80721228Y-67426228D02*
X83571228Y-67426228D01*
X83571228Y-67426228D02*
X83621228Y-60676228D01*
X83621228Y-60676228D02*
X80721228Y-60676228D01*
X116300000Y-117590000D02*
X116300000Y-118990000D01*
X116300000Y-118290000D02*
X117200000Y-117590000D01*
X117200000Y-117590000D02*
X117200000Y-118990000D01*
X117200000Y-118990000D02*
X116300000Y-118290000D01*
X218033423Y-129417974D02*
X219041304Y-128884892D01*
X218154977Y-128728607D02*
X217911869Y-130107339D01*
X218798196Y-130263623D02*
X218033423Y-129417974D01*
X219041304Y-128884892D02*
X218798196Y-130263623D01*
D16*
X136700000Y-118850000D02*
X149350000Y-118850000D01*
X149350000Y-121350000D01*
X136700000Y-121350000D01*
X136700000Y-118850000D01*
D14*
X154511399Y-100747857D02*
X154511399Y-101747857D01*
X154511399Y-101747857D02*
X154711399Y-101747857D01*
X154511399Y-103997857D02*
X154511399Y-104347857D01*
X154511399Y-104347857D02*
X162911400Y-104347857D01*
X154711399Y-103997857D02*
X154511399Y-103997857D01*
X154731399Y-101747857D02*
X154731399Y-103997857D01*
X159511399Y-100747857D02*
X154511399Y-100747857D01*
D15*
X160481999Y-92397857D02*
X162531999Y-92397857D01*
X160481999Y-93847857D02*
X160481999Y-92397857D01*
X162531999Y-92397857D02*
X162531999Y-93847857D01*
X162531999Y-93847857D02*
X160481999Y-93847857D01*
D14*
X164781399Y-101447857D02*
X164781399Y-99207857D01*
X164811399Y-99207857D02*
X165011399Y-99207857D01*
X165011399Y-98847857D02*
X161731399Y-98847857D01*
X165011399Y-98847857D02*
X165011399Y-99207857D01*
X165011399Y-101447857D02*
X164811399Y-101447857D01*
X165011399Y-102447857D02*
X165011399Y-101447857D01*
X161727717Y-98869328D02*
G75*
G02*
X159511399Y-100747857I-2151317J291470D01*
G01*
X165011399Y-102447856D02*
G75*
G02*
X162911400Y-104347858I-1999999J99997D01*
G01*
X193715871Y-109008505D02*
X201988256Y-110467148D01*
X193776648Y-108663821D02*
X193715871Y-109008505D01*
X193973610Y-108698549D02*
X193776648Y-108663821D01*
X194167357Y-106448003D02*
X194364318Y-106482733D01*
X194341005Y-105463196D02*
X194167357Y-106448003D01*
X194384014Y-106486206D02*
X193993306Y-108702023D01*
X199265045Y-106331437D02*
X194341005Y-105463196D01*
D15*
X201419070Y-99704806D02*
X201670860Y-98276835D01*
X201670860Y-98276835D02*
X203689716Y-98632813D01*
X203437926Y-100060785D02*
X201419070Y-99704806D01*
X203689716Y-98632813D02*
X203437926Y-100060785D01*
D14*
X204333427Y-107935928D02*
X204722399Y-105729958D01*
X204386284Y-108960675D02*
X204559932Y-107975867D01*
X204559932Y-107975867D02*
X204362971Y-107941137D01*
X204751943Y-105735168D02*
X204948904Y-105769898D01*
X205011418Y-105415367D02*
X201781248Y-104845801D01*
X205011418Y-105415367D02*
X204948904Y-105769898D01*
X201773894Y-104866306D02*
G75*
G02*
X199265045Y-106331437I-2068021J660614D01*
G01*
X204386284Y-108960674D02*
G75*
G02*
X201988256Y-110467148I-1952250J445775D01*
G01*
D10*
X87510000Y-53030000D02*
X105290000Y-53030000D01*
X87510000Y-55570000D02*
X90050000Y-55570000D01*
X87510000Y-86050000D02*
X87510000Y-53030000D01*
X87510000Y-86050000D02*
X87510000Y-55570000D01*
X90050000Y-55570000D02*
X90050000Y-86050000D01*
X90050000Y-86050000D02*
X87510000Y-86050000D01*
X102750000Y-55570000D02*
X105290000Y-55570000D01*
X102750000Y-86050000D02*
X102750000Y-55570000D01*
X105290000Y-53030000D02*
X105290000Y-86050000D01*
X105290000Y-55570000D02*
X105290000Y-86050000D01*
X105290000Y-86050000D02*
X102750000Y-86050000D01*
D14*
X135461399Y-71602664D02*
X135461399Y-72602664D01*
X135461399Y-72602664D02*
X135661399Y-72602664D01*
X135461399Y-74852664D02*
X135461399Y-75202664D01*
X135461399Y-75202664D02*
X143861400Y-75202664D01*
X135661399Y-74852664D02*
X135461399Y-74852664D01*
X135681399Y-72602664D02*
X135681399Y-74852664D01*
X140461399Y-71602664D02*
X135461399Y-71602664D01*
D15*
X141431999Y-63252664D02*
X143481999Y-63252664D01*
X141431999Y-64702664D02*
X141431999Y-63252664D01*
X143481999Y-63252664D02*
X143481999Y-64702664D01*
X143481999Y-64702664D02*
X141431999Y-64702664D01*
D14*
X145731399Y-72302664D02*
X145731399Y-70062664D01*
X145761399Y-70062664D02*
X145961399Y-70062664D01*
X145961399Y-69702664D02*
X142681399Y-69702664D01*
X145961399Y-69702664D02*
X145961399Y-70062664D01*
X145961399Y-72302664D02*
X145761399Y-72302664D01*
X145961399Y-73302664D02*
X145961399Y-72302664D01*
X142677717Y-69724135D02*
G75*
G02*
X140461399Y-71602664I-2151317J291470D01*
G01*
X145961399Y-73302663D02*
G75*
G02*
X143861400Y-75202665I-1999999J99997D01*
G01*
D10*
X150904000Y-124705000D02*
X151604000Y-123805000D01*
X151604000Y-123805000D02*
X152304000Y-124705000D01*
X152304000Y-123805000D02*
X150904000Y-123805000D01*
X152304000Y-124705000D02*
X150904000Y-124705000D01*
X91740450Y-100659000D02*
X91740450Y-102945000D01*
X91740450Y-102945000D02*
X93518450Y-102945000D01*
X93518450Y-100659000D02*
X91740450Y-100659000D01*
X93518450Y-102945000D02*
X93518450Y-100659000D01*
X139611000Y-116507000D02*
X139611000Y-118793000D01*
X139611000Y-118793000D02*
X141389000Y-118793000D01*
X141389000Y-116507000D02*
X139611000Y-116507000D01*
X141389000Y-118793000D02*
X141389000Y-116507000D01*
X99324450Y-100659000D02*
X99324450Y-102945000D01*
X99324450Y-102945000D02*
X101102450Y-102945000D01*
X101102450Y-100659000D02*
X99324450Y-100659000D01*
X101102450Y-102945000D02*
X101102450Y-100659000D01*
X144711000Y-116507380D02*
X144711000Y-118793380D01*
X144711000Y-118793380D02*
X146489000Y-118793380D01*
X146489000Y-116507380D02*
X144711000Y-116507380D01*
X146489000Y-118793380D02*
X146489000Y-116507380D01*
X194036000Y-57207000D02*
X194036000Y-59493000D01*
X194036000Y-59493000D02*
X195814000Y-59493000D01*
X195814000Y-57207000D02*
X194036000Y-57207000D01*
X195814000Y-59493000D02*
X195814000Y-57207000D01*
X96779450Y-100659000D02*
X96779450Y-102945000D01*
X96779450Y-102945000D02*
X98557450Y-102945000D01*
X98557450Y-100659000D02*
X96779450Y-100659000D01*
X98557450Y-102945000D02*
X98557450Y-100659000D01*
X81011000Y-107357000D02*
X81011000Y-109643000D01*
X81011000Y-109643000D02*
X82789000Y-109643000D01*
X82789000Y-107357000D02*
X81011000Y-107357000D01*
X82789000Y-109643000D02*
X82789000Y-107357000D01*
X89582633Y-136410603D02*
X90471633Y-137950397D01*
X90471633Y-137950397D02*
X92451367Y-136807397D01*
X91562367Y-135267603D02*
X89582633Y-136410603D01*
X92451367Y-136807397D02*
X91562367Y-135267603D01*
X94277000Y-100659000D02*
X94277000Y-102945000D01*
X94277000Y-102945000D02*
X96055000Y-102945000D01*
X96055000Y-100659000D02*
X94277000Y-100659000D01*
X96055000Y-102945000D02*
X96055000Y-100659000D01*
X82786000Y-107357000D02*
X82786000Y-109643000D01*
X82786000Y-109643000D02*
X84564000Y-109643000D01*
X84564000Y-107357000D02*
X82786000Y-107357000D01*
X84564000Y-109643000D02*
X84564000Y-107357000D01*
X147211000Y-116507000D02*
X147211000Y-118793000D01*
X147211000Y-118793000D02*
X148989000Y-118793000D01*
X148989000Y-116507000D02*
X147211000Y-116507000D01*
X148989000Y-118793000D02*
X148989000Y-116507000D01*
X196536000Y-57207000D02*
X196536000Y-59493000D01*
X196536000Y-59493000D02*
X198314000Y-59493000D01*
X198314000Y-57207000D02*
X196536000Y-57207000D01*
X198314000Y-59493000D02*
X198314000Y-57207000D01*
X204211000Y-57207000D02*
X204211000Y-59493000D01*
X204211000Y-59493000D02*
X205989000Y-59493000D01*
X205989000Y-57207000D02*
X204211000Y-57207000D01*
X205989000Y-59493000D02*
X205989000Y-57207000D01*
D18*
X105318815Y-58035745D03*
X105318815Y-60575745D03*
X105318815Y-63115745D03*
X105318815Y-65655745D03*
X105318815Y-68195745D03*
X105318815Y-70735745D03*
X105318815Y-73275745D03*
X105318815Y-75815745D03*
X105318815Y-78355745D03*
X105318815Y-80895745D03*
X105318815Y-83435745D03*
X105318815Y-85975745D03*
X90078815Y-85975745D03*
X90078815Y-83435745D03*
X90078815Y-80895745D03*
X90078815Y-78355745D03*
X90078815Y-75815745D03*
X90078815Y-73275745D03*
X90078815Y-70735745D03*
X90078815Y-68195745D03*
X90078815Y-65655745D03*
X90078815Y-63115745D03*
X90078815Y-60575745D03*
X90078815Y-58035745D03*
M02*
