G04 #@! TF.GenerationSoftware,KiCad,Pcbnew,10.0.4*
G04 #@! TF.CreationDate,2026-07-21T23:25:02-06:00*
G04 #@! TF.ProjectId,klor1_3 (1),6b6c6f72-315f-4332-9028-31292e6b6963,v1.3.0*
G04 #@! TF.SameCoordinates,Original*
G04 #@! TF.FileFunction,Soldermask,Top*
G04 #@! TF.FilePolarity,Negative*
%FSLAX46Y46*%
G04 Gerber Fmt 4.6, Leading zero omitted, Abs format (unit mm)*
G04 Created by KiCad (PCBNEW 10.0.4) date 2026-07-21 23:25:02*
%MOMM*%
%LPD*%
G01*
G04 APERTURE LIST*
G04 Aperture macros list*
%AMRoundRect*
0 Rectangle with rounded corners*
0 $1 Rounding radius*
0 $2 $3 $4 $5 $6 $7 $8 $9 X,Y pos of 4 corners*
0 Add a 4 corners polygon primitive as box body*
4,1,4,$2,$3,$4,$5,$6,$7,$8,$9,$2,$3,0*
0 Add four circle primitives for the rounded corners*
1,1,$1+$1,$2,$3*
1,1,$1+$1,$4,$5*
1,1,$1+$1,$6,$7*
1,1,$1+$1,$8,$9*
0 Add four rect primitives between the rounded corners*
20,1,$1+$1,$2,$3,$4,$5,0*
20,1,$1+$1,$4,$5,$6,$7,0*
20,1,$1+$1,$6,$7,$8,$9,0*
20,1,$1+$1,$8,$9,$2,$3,0*%
%AMRotRect*
0 Rectangle, with rotation*
0 The origin of the aperture is its center*
0 $1 length*
0 $2 width*
0 $3 Rotation angle, in degrees counterclockwise*
0 Add horizontal line*
21,1,$1,$2,0,0,$3*%
G04 Aperture macros list end*
%ADD10C,0.150000*%
%ADD11C,0.000000*%
%ADD12C,0.000001*%
%ADD13R,1.143000X0.635000*%
%ADD14C,1.900000*%
%ADD15C,1.700000*%
%ADD16C,3.000000*%
%ADD17C,4.100000*%
%ADD18RotRect,1.600000X1.000000X225.000000*%
%ADD19RotRect,2.300000X2.000000X45.000000*%
%ADD20R,1.600000X1.000000*%
%ADD21R,2.300000X2.000000*%
%ADD22RotRect,1.600000X1.000000X176.000000*%
%ADD23RotRect,2.300000X2.000000X356.000000*%
%ADD24C,3.200000*%
%ADD25RotRect,1.800000X1.500000X350.000000*%
%ADD26R,1.800000X1.500000*%
%ADD27RotRect,1.800000X1.500000X356.000000*%
%ADD28RotRect,1.600000X1.000000X195.000000*%
%ADD29RotRect,2.300000X2.000000X15.000000*%
%ADD30RotRect,1.600000X1.000000X170.000000*%
%ADD31RotRect,2.300000X2.000000X350.000000*%
%ADD32RotRect,1.800000X1.500000X285.000000*%
%ADD33R,2.200000X2.200000*%
%ADD34C,2.200000*%
%ADD35C,2.000000*%
%ADD36R,3.200000X2.000000*%
%ADD37O,1.600000X2.000000*%
%ADD38C,1.200000*%
%ADD39O,2.500000X1.700000*%
%ADD40RotRect,1.800000X1.500000X300.000000*%
%ADD41O,1.750000X1.200000*%
%ADD42C,0.900000*%
%ADD43RoundRect,0.187500X-0.712500X0.187500X-0.712500X-0.187500X0.712500X-0.187500X0.712500X0.187500X0*%
%ADD44RoundRect,0.150000X-0.750000X0.150000X-0.750000X-0.150000X0.750000X-0.150000X0.750000X0.150000X0*%
%ADD45RoundRect,0.225000X-0.225000X0.425000X-0.225000X-0.425000X0.225000X-0.425000X0.225000X0.425000X0*%
%ADD46C,4.400000*%
%ADD47RotRect,1.600000X1.000000X210.000000*%
%ADD48RotRect,2.300000X2.000000X30.000000*%
%ADD49RotRect,1.800000X1.500000X315.000000*%
%ADD50R,1.500000X1.800000*%
%ADD51RoundRect,0.142858X-0.857142X0.857142X-0.857142X-0.857142X0.857142X-0.857142X0.857142X0.857142X0*%
%ADD52R,1.000000X0.700000*%
%ADD53R,2.800000X1.000000*%
%ADD54R,1.524000X1.524000*%
%ADD55C,1.800000*%
%ADD56C,1.524000*%
%ADD57O,1.700000X1.700000*%
G04 APERTURE END LIST*
D10*
X110576959Y-55760934D02*
X110567801Y-55760894D01*
X110558652Y-55760774D01*
X110549513Y-55760575D01*
X110540384Y-55760296D01*
X110531265Y-55759937D01*
X110522157Y-55759498D01*
X110513061Y-55758981D01*
X110503976Y-55758383D01*
X110494903Y-55757707D01*
X110485842Y-55756952D01*
X110476794Y-55756117D01*
X110467759Y-55755203D01*
X110458738Y-55754210D01*
X110449730Y-55753139D01*
X110440737Y-55751989D01*
X110431758Y-55750760D01*
X110422795Y-55749452D01*
X110413847Y-55748066D01*
X110404914Y-55746602D01*
X110395998Y-55745059D01*
X110387099Y-55743438D01*
X110378218Y-55741739D01*
X110369354Y-55739963D01*
X110360508Y-55738108D01*
X110351680Y-55736175D01*
X110342872Y-55734165D01*
X110334084Y-55732078D01*
X110325315Y-55729913D01*
X110316567Y-55727671D01*
X110307840Y-55725351D01*
X110299134Y-55722955D01*
X110290451Y-55720482D01*
X110281790Y-55717932D01*
X110273152Y-55715306D01*
X110264538Y-55712603D01*
X110255948Y-55709824D01*
X110247382Y-55706970D01*
X110238842Y-55704039D01*
X110230327Y-55701033D01*
X110221839Y-55697951D01*
X110213377Y-55694794D01*
X110204943Y-55691561D01*
X110196537Y-55688254D01*
X110188159Y-55684872D01*
X110179811Y-55681416D01*
X110171492Y-55677886D01*
X110163203Y-55674281D01*
X110154946Y-55670603D01*
X110146719Y-55666851D01*
X110138525Y-55663026D01*
X110130363Y-55659128D01*
X110122235Y-55655158D01*
X110114140Y-55651114D01*
X110106080Y-55646999D01*
X110098055Y-55642812D01*
X110090065Y-55638553D01*
X110082112Y-55634223D01*
X110074196Y-55629822D01*
X110066317Y-55625350D01*
X110058476Y-55620809D01*
X110050674Y-55616197D01*
X110042911Y-55611515D01*
X110035189Y-55606764D01*
X110027507Y-55601945D01*
X110019866Y-55597057D01*
X110012267Y-55592100D01*
X110004710Y-55587076D01*
X109997197Y-55581985D01*
X109989728Y-55576827D01*
X109982303Y-55571602D01*
X109974922Y-55566311D01*
X109967588Y-55560954D01*
X109960300Y-55555532D01*
X109953058Y-55550046D01*
X109945865Y-55544495D01*
X109938719Y-55538880D01*
X109931622Y-55533202D01*
X109924574Y-55527460D01*
X109917577Y-55521657D01*
X109910630Y-55515791D01*
X109903734Y-55509864D01*
X109896890Y-55503876D01*
X109890098Y-55497827D01*
X109883359Y-55491719D01*
X109876674Y-55485551D01*
X109870043Y-55479324D01*
X109863467Y-55473039D01*
X109856946Y-55466696D01*
X109850481Y-55460296D01*
X109847269Y-55457074D01*
X109844072Y-55453839D01*
X109840889Y-55450589D01*
X109837720Y-55447326D01*
X109834566Y-55444048D01*
X109831426Y-55440757D01*
X109828301Y-55437452D01*
X109825190Y-55434134D01*
X109822094Y-55430802D01*
X109819013Y-55427456D01*
X109815946Y-55424097D01*
X109812895Y-55420724D01*
X109809858Y-55417338D01*
X109806836Y-55413939D01*
X109803830Y-55410527D01*
X109800838Y-55407101D01*
X109797862Y-55403663D01*
X109794901Y-55400212D01*
X109791955Y-55396748D01*
X109789025Y-55393271D01*
X109786110Y-55389781D01*
X109783210Y-55386279D01*
X109780327Y-55382764D01*
X109777458Y-55379236D01*
X109774606Y-55375697D01*
X109771769Y-55372144D01*
X109768948Y-55368580D01*
X109766143Y-55365003D01*
X109763354Y-55361415D01*
X109760581Y-55357814D01*
X109757824Y-55354202D01*
X109755083Y-55350577D01*
X109752358Y-55346941D01*
X109749649Y-55343293D01*
X109746957Y-55339633D01*
X109744281Y-55335962D01*
X109741622Y-55332280D01*
X109738978Y-55328585D01*
X109736352Y-55324880D01*
X109733742Y-55321163D01*
X109731149Y-55317436D01*
X109728571Y-55313696D01*
X109726012Y-55309947D01*
X109723468Y-55306185D01*
X109720942Y-55302414D01*
X109718432Y-55298631D01*
X109715939Y-55294838D01*
X109713463Y-55291034D01*
X109711005Y-55287220D01*
X109708563Y-55283395D01*
X109706138Y-55279560D01*
X109703731Y-55275714D01*
X109701341Y-55271859D01*
X109698967Y-55267993D01*
X109696612Y-55264117D01*
X109694273Y-55260231D01*
X109691953Y-55256335D01*
X109689649Y-55252429D01*
X109687363Y-55248514D01*
X109685094Y-55244588D01*
X109682844Y-55240654D01*
X109680610Y-55236709D01*
X109678395Y-55232756D01*
X109676196Y-55228793D01*
X109674016Y-55224821D01*
X109671853Y-55220839D01*
X109669709Y-55216849D01*
X109667582Y-55212848D01*
X109665473Y-55208840D01*
X109663382Y-55204822D01*
X109661309Y-55200796D01*
X109659254Y-55196760D01*
X109657217Y-55192717D01*
X109655198Y-55188663D01*
X109653197Y-55184603D01*
X109651214Y-55180533D01*
X109649250Y-55176456D01*
X109647304Y-55172369D01*
X109645376Y-55168275D01*
X109643466Y-55164172D01*
X109641575Y-55160062D01*
X109639701Y-55155943D01*
X109637847Y-55151817D01*
X109636011Y-55147682D01*
X109634193Y-55143541D01*
X109632394Y-55139390D01*
X109630613Y-55135234D01*
X109628850Y-55131068D01*
X109627107Y-55126896D01*
X109625382Y-55122715D01*
X109623676Y-55118529D01*
X109621988Y-55114334D01*
X109620319Y-55110133D01*
X109618668Y-55105923D01*
X109617037Y-55101708D01*
X109615424Y-55097485D01*
X109613830Y-55093256D01*
X109612254Y-55089019D01*
X109610698Y-55084776D01*
X109609160Y-55080525D01*
X109607642Y-55076270D01*
X109606142Y-55072006D01*
X109604661Y-55067737D01*
X109603199Y-55063460D01*
X109601757Y-55059179D01*
X109600332Y-55054889D01*
X109598928Y-55050595D01*
X109597542Y-55046293D01*
X109596176Y-55041987D01*
X109594828Y-55037673D01*
X109593500Y-55033355D01*
X109592190Y-55029029D01*
X109590900Y-55024699D01*
X109589629Y-55020362D01*
X109588377Y-55016021D01*
X109587144Y-55011672D01*
X109585931Y-55007320D01*
X109584737Y-55002960D01*
X109583563Y-54998597D01*
X109582407Y-54994226D01*
X109581271Y-54989853D01*
X109580154Y-54985471D01*
X109579056Y-54981087D01*
X109577978Y-54976696D01*
X109576919Y-54972301D01*
X109575880Y-54967900D01*
X109574860Y-54963496D01*
X109573859Y-54959084D01*
X109572878Y-54954671D01*
X109571916Y-54950250D01*
X109570975Y-54945826D01*
X109570052Y-54941396D01*
X109569149Y-54936964D01*
X109568265Y-54932525D01*
X109567401Y-54928083D01*
X109566556Y-54923635D01*
X109565731Y-54919185D01*
X109564925Y-54914728D01*
X109564140Y-54910269D01*
X109563373Y-54905804D01*
X109562627Y-54901337D01*
X109561899Y-54896864D01*
X109561192Y-54892389D01*
X109560504Y-54887908D01*
X109559836Y-54883425D01*
X109559188Y-54878936D01*
X109558559Y-54874445D01*
X109557950Y-54869949D01*
X109557360Y-54865451D01*
X109556791Y-54860947D01*
X109556241Y-54856442D01*
X109555711Y-54851931D01*
X109555200Y-54847419D01*
X109554709Y-54842901D01*
X109554239Y-54838382D01*
X109553788Y-54833858D01*
X109553356Y-54829332D01*
X109552945Y-54824801D01*
X109552553Y-54820269D01*
X109552181Y-54815732D01*
X109551829Y-54811194D01*
X109551497Y-54806650D01*
X109551185Y-54802106D01*
X109550892Y-54797556D01*
X109550620Y-54793006D01*
X109550367Y-54788451D01*
X109550134Y-54783895D01*
X109549921Y-54779335D01*
X109549729Y-54774774D01*
X109549556Y-54770207D01*
X109549403Y-54765641D01*
X109549269Y-54761070D01*
X109549156Y-54756498D01*
X109549063Y-54751922D01*
X109548990Y-54747345D01*
X109548937Y-54742764D01*
X109548903Y-54738183D01*
X109548890Y-54733597D01*
X109548890Y-54732866D01*
D11*
G36*
X98985966Y-89203149D02*
G01*
X99367075Y-89203149D01*
X99367075Y-90350004D01*
X100895037Y-90350004D01*
X100895037Y-90731111D01*
X101276146Y-90731111D01*
X101276146Y-93024822D01*
X100895037Y-93024822D01*
X100895037Y-93405929D01*
X99367075Y-93405929D01*
X99367075Y-94933895D01*
X94786711Y-94933895D01*
X94786711Y-94552785D01*
X95548929Y-94552785D01*
X95548929Y-93787038D01*
X95930037Y-93787038D01*
X95930037Y-93024822D01*
X96692255Y-93024822D01*
X96692255Y-93787038D01*
X97076891Y-93787038D01*
X97076891Y-94552785D01*
X97839109Y-94552785D01*
X97839109Y-93787038D01*
X97458000Y-93787038D01*
X97458000Y-93024822D01*
X97076891Y-93024822D01*
X97076891Y-92262603D01*
X97458000Y-91877965D01*
X97076891Y-92259076D01*
X95548929Y-92259076D01*
X95164289Y-91877965D01*
X95548929Y-92262603D01*
X95548929Y-93024822D01*
X95164289Y-93024822D01*
X95164289Y-93787038D01*
X94783182Y-93787038D01*
X94783182Y-94933895D01*
X93255218Y-94933895D01*
X93255218Y-93405929D01*
X91727257Y-93405929D01*
X91727257Y-93024822D01*
X91346146Y-93024822D01*
X91346146Y-91496858D01*
X91346146Y-90731111D01*
X91727257Y-90731111D01*
X94017437Y-90731111D01*
X94017437Y-91496858D01*
X94402075Y-91496858D01*
X94402075Y-91877965D01*
X95164289Y-91877965D01*
X95164289Y-91496858D01*
X95548929Y-91496858D01*
X95548929Y-90731111D01*
X97076891Y-90731111D01*
X97076891Y-91496858D01*
X97458000Y-91496858D01*
X97458000Y-91877965D01*
X98220221Y-91877965D01*
X98220221Y-91496858D01*
X98604856Y-91496858D01*
X98604856Y-90731111D01*
X98220221Y-90731111D01*
X98220221Y-90350004D01*
X97458000Y-90350004D01*
X97458000Y-90731111D01*
X97076891Y-90731111D01*
X95548929Y-90731111D01*
X95164289Y-90731111D01*
X95164289Y-90350004D01*
X94402075Y-90350004D01*
X94402075Y-90731111D01*
X94017437Y-90731111D01*
X91727257Y-90731111D01*
X91727257Y-90350004D01*
X93255218Y-90350004D01*
X93255218Y-89203149D01*
X93636328Y-89203149D01*
X93636328Y-88822040D01*
X98985966Y-88822040D01*
X98985966Y-89203149D01*
G37*
D10*
X112907248Y-53739067D02*
X112907248Y-54767135D01*
X108829242Y-55760935D02*
X109617428Y-55760935D01*
X111605027Y-54732866D02*
X111605027Y-54732866D01*
X112941516Y-55795204D02*
X112427481Y-54767135D01*
D12*
X163196891Y-114183038D02*
X163194805Y-114183094D01*
X163193363Y-114183038D01*
X163196891Y-114183038D01*
G36*
X163194805Y-114183094D02*
G01*
X163193363Y-114183038D01*
X163196891Y-114183038D01*
X163194805Y-114183094D01*
G37*
D10*
X108829242Y-53704798D02*
X108829242Y-55760935D01*
X112907248Y-54767135D02*
X111913449Y-54767135D01*
X107458484Y-55795204D02*
X108486553Y-53704798D01*
D12*
X159638469Y-113636433D02*
X159440975Y-113833916D01*
X159461011Y-113849033D01*
X159480092Y-113865255D01*
X159498170Y-113882531D01*
X159515200Y-113900809D01*
X159531135Y-113920038D01*
X159545928Y-113940165D01*
X159559533Y-113961140D01*
X159571903Y-113982910D01*
X159582992Y-114005424D01*
X159592753Y-114028630D01*
X159601140Y-114052477D01*
X159608106Y-114076913D01*
X159613606Y-114101886D01*
X159617591Y-114127344D01*
X159620017Y-114153237D01*
X159620835Y-114179511D01*
X159620835Y-115554838D01*
X159338701Y-115554838D01*
X159641995Y-115858116D01*
X159550302Y-115949804D01*
X159155313Y-115554838D01*
X158411183Y-115554838D01*
X158411183Y-115424359D01*
X159024826Y-115424359D01*
X158435870Y-114835437D01*
X157846914Y-115424359D01*
X158404130Y-115424359D01*
X158404130Y-115554838D01*
X157716427Y-115554838D01*
X157321439Y-115949804D01*
X157229745Y-115858116D01*
X157533040Y-115554838D01*
X157173318Y-115554838D01*
X157173318Y-115491362D01*
X157174436Y-115442698D01*
X157175459Y-115427885D01*
X157303805Y-115427885D01*
X157660000Y-115427885D01*
X158340650Y-114747275D01*
X158337123Y-114743748D01*
X158531090Y-114743748D01*
X159208213Y-115424359D01*
X159490348Y-115424359D01*
X159490348Y-114574477D01*
X158700371Y-114574477D01*
X158703898Y-114570951D01*
X158531090Y-114743748D01*
X158337123Y-114743748D01*
X158171369Y-114578003D01*
X158128323Y-114580992D01*
X158085840Y-114585959D01*
X158043967Y-114592858D01*
X158002749Y-114601642D01*
X157962235Y-114612265D01*
X157922469Y-114624681D01*
X157883499Y-114638843D01*
X157845371Y-114654704D01*
X157808132Y-114672219D01*
X157771828Y-114691340D01*
X157736505Y-114712021D01*
X157702210Y-114734216D01*
X157668990Y-114757877D01*
X157636891Y-114782960D01*
X157605959Y-114809416D01*
X157576241Y-114837200D01*
X157547784Y-114866265D01*
X157520634Y-114896565D01*
X157494838Y-114928052D01*
X157470441Y-114960682D01*
X157447491Y-114994406D01*
X157426034Y-115029179D01*
X157406116Y-115064955D01*
X157387784Y-115101686D01*
X157371085Y-115139326D01*
X157356065Y-115177829D01*
X157342770Y-115217148D01*
X157331247Y-115257237D01*
X157321543Y-115298049D01*
X157313703Y-115339537D01*
X157307775Y-115381656D01*
X157303805Y-115424359D01*
X157303805Y-115427885D01*
X157175459Y-115427885D01*
X157177756Y-115394601D01*
X157183230Y-115347118D01*
X157190807Y-115300298D01*
X157200437Y-115254192D01*
X157212071Y-115208847D01*
X157225659Y-115164314D01*
X157241152Y-115120641D01*
X157258499Y-115077877D01*
X157277650Y-115036071D01*
X157298558Y-114995272D01*
X157321170Y-114955530D01*
X157345438Y-114916893D01*
X157371312Y-114879411D01*
X157398743Y-114843132D01*
X157427680Y-114808106D01*
X157458074Y-114774382D01*
X157489875Y-114742009D01*
X157523033Y-114711036D01*
X157557499Y-114681511D01*
X157593223Y-114653485D01*
X157630155Y-114627006D01*
X157668246Y-114602123D01*
X157707445Y-114578885D01*
X157715682Y-114574477D01*
X158354756Y-114574477D01*
X158435870Y-114655586D01*
X158516984Y-114574477D01*
X158354756Y-114574477D01*
X157715682Y-114574477D01*
X157747703Y-114557342D01*
X157788971Y-114537542D01*
X157831198Y-114519535D01*
X157874336Y-114503369D01*
X157918333Y-114489094D01*
X157963141Y-114476758D01*
X158008709Y-114466412D01*
X158054988Y-114458103D01*
X158044363Y-114447524D01*
X158827332Y-114447524D01*
X159486821Y-114447524D01*
X159486821Y-114183038D01*
X159486657Y-114172841D01*
X159486167Y-114162752D01*
X159485357Y-114152774D01*
X159484231Y-114142910D01*
X159482796Y-114133166D01*
X159481056Y-114123544D01*
X159479016Y-114114049D01*
X159476682Y-114104684D01*
X159474059Y-114095453D01*
X159471151Y-114086361D01*
X159467964Y-114077411D01*
X159464504Y-114068606D01*
X159460775Y-114059952D01*
X159456782Y-114051451D01*
X159452532Y-114043108D01*
X159448028Y-114034926D01*
X159443276Y-114026909D01*
X159438281Y-114019062D01*
X159433049Y-114011387D01*
X159427584Y-114003890D01*
X159415978Y-113989441D01*
X159403503Y-113975747D01*
X159390203Y-113962838D01*
X159376116Y-113950745D01*
X159361287Y-113939499D01*
X159345754Y-113929131D01*
X158827332Y-114447524D01*
X158044363Y-114447524D01*
X157229745Y-113636433D01*
X157321439Y-113544745D01*
X158224269Y-114443997D01*
X158643944Y-114443997D01*
X159204687Y-113883287D01*
X157903341Y-113883287D01*
X157903341Y-113752807D01*
X159190580Y-113752807D01*
X159199135Y-113752890D01*
X159207608Y-113753138D01*
X159215997Y-113753551D01*
X159224304Y-113754130D01*
X159232528Y-113754874D01*
X159240670Y-113755783D01*
X159248729Y-113756857D01*
X159256705Y-113758097D01*
X159264599Y-113759502D01*
X159272410Y-113761072D01*
X159280139Y-113762808D01*
X159287784Y-113764709D01*
X159295347Y-113766775D01*
X159302828Y-113769007D01*
X159310226Y-113771404D01*
X159317541Y-113773966D01*
X159546775Y-113544745D01*
X159638469Y-113636433D01*
G36*
X159638469Y-113636433D02*
G01*
X159440975Y-113833916D01*
X159461011Y-113849033D01*
X159480092Y-113865255D01*
X159498170Y-113882531D01*
X159515200Y-113900809D01*
X159531135Y-113920038D01*
X159545928Y-113940165D01*
X159559533Y-113961140D01*
X159571903Y-113982910D01*
X159582992Y-114005424D01*
X159592753Y-114028630D01*
X159601140Y-114052477D01*
X159608106Y-114076913D01*
X159613606Y-114101886D01*
X159617591Y-114127344D01*
X159620017Y-114153237D01*
X159620835Y-114179511D01*
X159620835Y-115554838D01*
X159338701Y-115554838D01*
X159641995Y-115858116D01*
X159550302Y-115949804D01*
X159155313Y-115554838D01*
X158411183Y-115554838D01*
X158411183Y-115424359D01*
X159024826Y-115424359D01*
X158435870Y-114835437D01*
X157846914Y-115424359D01*
X158404130Y-115424359D01*
X158404130Y-115554838D01*
X157716427Y-115554838D01*
X157321439Y-115949804D01*
X157229745Y-115858116D01*
X157533040Y-115554838D01*
X157173318Y-115554838D01*
X157173318Y-115491362D01*
X157174436Y-115442698D01*
X157175459Y-115427885D01*
X157175702Y-115424359D01*
X157303805Y-115424359D01*
X157303805Y-115427885D01*
X157660000Y-115427885D01*
X158340650Y-114747275D01*
X158337123Y-114743748D01*
X158531090Y-114743748D01*
X159208213Y-115424359D01*
X159490348Y-115424359D01*
X159490348Y-114574477D01*
X158700372Y-114574477D01*
X158531090Y-114743748D01*
X158337123Y-114743748D01*
X158171369Y-114578003D01*
X158128323Y-114580992D01*
X158085840Y-114585959D01*
X158043967Y-114592858D01*
X158002749Y-114601642D01*
X157962235Y-114612265D01*
X157922469Y-114624681D01*
X157883499Y-114638843D01*
X157845371Y-114654704D01*
X157808132Y-114672219D01*
X157771828Y-114691340D01*
X157736505Y-114712021D01*
X157702210Y-114734216D01*
X157668990Y-114757877D01*
X157636891Y-114782960D01*
X157605959Y-114809416D01*
X157576241Y-114837200D01*
X157547784Y-114866265D01*
X157520634Y-114896565D01*
X157494838Y-114928052D01*
X157470441Y-114960682D01*
X157447491Y-114994406D01*
X157426034Y-115029179D01*
X157406116Y-115064955D01*
X157387784Y-115101686D01*
X157371085Y-115139326D01*
X157356065Y-115177829D01*
X157342770Y-115217148D01*
X157331247Y-115257237D01*
X157321543Y-115298049D01*
X157313703Y-115339537D01*
X157307775Y-115381656D01*
X157303805Y-115424359D01*
X157175702Y-115424359D01*
X157177756Y-115394601D01*
X157183230Y-115347118D01*
X157190807Y-115300298D01*
X157200437Y-115254192D01*
X157212071Y-115208847D01*
X157225659Y-115164314D01*
X157241152Y-115120641D01*
X157258499Y-115077877D01*
X157277650Y-115036071D01*
X157298558Y-114995272D01*
X157321170Y-114955530D01*
X157345438Y-114916893D01*
X157371312Y-114879411D01*
X157398743Y-114843132D01*
X157427680Y-114808106D01*
X157458074Y-114774382D01*
X157489875Y-114742009D01*
X157523033Y-114711036D01*
X157557499Y-114681511D01*
X157593223Y-114653485D01*
X157630155Y-114627006D01*
X157668246Y-114602123D01*
X157707445Y-114578885D01*
X157715682Y-114574477D01*
X158354756Y-114574477D01*
X158435870Y-114655586D01*
X158516984Y-114574477D01*
X158354756Y-114574477D01*
X157715682Y-114574477D01*
X157747703Y-114557342D01*
X157788971Y-114537542D01*
X157831198Y-114519535D01*
X157874336Y-114503369D01*
X157918333Y-114489094D01*
X157963141Y-114476758D01*
X158008709Y-114466412D01*
X158054988Y-114458103D01*
X158044363Y-114447524D01*
X158827332Y-114447524D01*
X159486821Y-114447524D01*
X159486821Y-114183038D01*
X159486657Y-114172841D01*
X159486167Y-114162752D01*
X159485357Y-114152774D01*
X159484231Y-114142910D01*
X159482796Y-114133166D01*
X159481056Y-114123544D01*
X159479016Y-114114049D01*
X159476682Y-114104684D01*
X159474059Y-114095453D01*
X159471151Y-114086361D01*
X159467964Y-114077411D01*
X159464504Y-114068606D01*
X159460775Y-114059952D01*
X159456782Y-114051451D01*
X159452532Y-114043108D01*
X159448028Y-114034926D01*
X159443276Y-114026909D01*
X159438281Y-114019062D01*
X159433049Y-114011387D01*
X159427584Y-114003890D01*
X159415978Y-113989441D01*
X159403503Y-113975747D01*
X159390203Y-113962838D01*
X159376116Y-113950745D01*
X159361287Y-113939499D01*
X159345754Y-113929131D01*
X158827332Y-114447524D01*
X158044363Y-114447524D01*
X157229745Y-113636433D01*
X157321439Y-113544745D01*
X158224269Y-114443997D01*
X158643944Y-114443997D01*
X159204687Y-113883287D01*
X157903341Y-113883287D01*
X157903341Y-113752807D01*
X159190580Y-113752807D01*
X159199135Y-113752890D01*
X159207608Y-113753138D01*
X159215997Y-113753551D01*
X159224304Y-113754130D01*
X159232528Y-113754874D01*
X159240670Y-113755783D01*
X159248729Y-113756857D01*
X159256705Y-113758097D01*
X159264599Y-113759502D01*
X159272410Y-113761072D01*
X159280139Y-113762808D01*
X159287784Y-113764709D01*
X159295347Y-113766775D01*
X159302828Y-113769007D01*
X159310226Y-113771404D01*
X159317541Y-113773966D01*
X159546775Y-113544745D01*
X159638469Y-113636433D01*
G37*
X161756046Y-117586388D02*
X161768016Y-117587271D01*
X161779793Y-117588726D01*
X161791363Y-117590740D01*
X161802715Y-117593299D01*
X161813833Y-117596389D01*
X161824705Y-117599997D01*
X161835316Y-117604109D01*
X161845654Y-117608712D01*
X161855704Y-117613792D01*
X161865453Y-117619336D01*
X161874888Y-117625330D01*
X161883995Y-117631760D01*
X161892760Y-117638613D01*
X161901170Y-117645876D01*
X161909211Y-117653535D01*
X161916870Y-117661576D01*
X161924133Y-117669985D01*
X161930987Y-117678750D01*
X161937418Y-117687856D01*
X161943412Y-117697290D01*
X161948956Y-117707039D01*
X161954036Y-117717088D01*
X161958640Y-117727425D01*
X161962752Y-117738036D01*
X161966360Y-117748907D01*
X161969451Y-117760025D01*
X161972009Y-117771376D01*
X161974023Y-117782946D01*
X161975478Y-117794722D01*
X161976362Y-117806691D01*
X161976659Y-117818838D01*
X161976362Y-117830986D01*
X161975478Y-117842955D01*
X161974023Y-117854731D01*
X161972009Y-117866301D01*
X161969451Y-117877652D01*
X161966360Y-117888770D01*
X161962752Y-117899641D01*
X161958640Y-117910251D01*
X161954036Y-117920588D01*
X161948956Y-117930638D01*
X161943412Y-117940387D01*
X161937418Y-117949821D01*
X161930987Y-117958927D01*
X161924133Y-117967692D01*
X161916870Y-117976101D01*
X161909211Y-117984142D01*
X161901170Y-117991801D01*
X161892760Y-117999063D01*
X161883995Y-118005917D01*
X161874888Y-118012347D01*
X161865453Y-118018341D01*
X161855704Y-118023885D01*
X161845654Y-118028965D01*
X161835316Y-118033568D01*
X161824705Y-118037680D01*
X161813833Y-118041288D01*
X161802715Y-118044378D01*
X161791363Y-118046937D01*
X161779793Y-118048950D01*
X161768016Y-118050406D01*
X161756046Y-118051289D01*
X161743898Y-118051586D01*
X161731750Y-118051289D01*
X161719780Y-118050406D01*
X161708003Y-118048950D01*
X161696432Y-118046937D01*
X161685081Y-118044378D01*
X161673963Y-118041288D01*
X161663091Y-118037680D01*
X161652480Y-118033568D01*
X161642142Y-118028965D01*
X161632092Y-118023885D01*
X161622343Y-118018341D01*
X161612908Y-118012347D01*
X161603801Y-118005917D01*
X161595036Y-117999063D01*
X161586626Y-117991801D01*
X161578585Y-117984142D01*
X161570926Y-117976101D01*
X161563663Y-117967692D01*
X161556809Y-117958927D01*
X161550378Y-117949821D01*
X161544384Y-117940387D01*
X161538840Y-117930638D01*
X161533759Y-117920588D01*
X161529156Y-117910251D01*
X161525044Y-117899641D01*
X161521436Y-117888770D01*
X161518345Y-117877652D01*
X161515787Y-117866301D01*
X161513773Y-117854731D01*
X161512318Y-117842955D01*
X161511434Y-117830986D01*
X161511137Y-117818838D01*
X161511434Y-117807001D01*
X161512318Y-117795303D01*
X161513773Y-117783760D01*
X161515787Y-117772388D01*
X161518345Y-117761202D01*
X161521436Y-117750217D01*
X161525044Y-117739449D01*
X161529156Y-117728913D01*
X161533759Y-117718626D01*
X161538840Y-117708602D01*
X161544384Y-117698856D01*
X161550378Y-117689406D01*
X161556809Y-117680265D01*
X161563663Y-117671450D01*
X161570926Y-117662975D01*
X161578585Y-117654857D01*
X161586626Y-117647111D01*
X161595036Y-117639753D01*
X161603801Y-117632797D01*
X161612908Y-117626260D01*
X161622343Y-117620156D01*
X161632092Y-117614502D01*
X161642142Y-117609313D01*
X161652480Y-117604605D01*
X161663091Y-117600392D01*
X161673963Y-117596691D01*
X161685081Y-117593517D01*
X161696432Y-117590885D01*
X161708003Y-117588811D01*
X161719780Y-117587310D01*
X161731750Y-117586398D01*
X161743898Y-117586091D01*
X161756046Y-117586388D01*
G36*
X161756046Y-117586388D02*
G01*
X161768016Y-117587271D01*
X161779793Y-117588726D01*
X161791363Y-117590740D01*
X161802715Y-117593299D01*
X161813833Y-117596389D01*
X161824705Y-117599997D01*
X161835316Y-117604109D01*
X161845654Y-117608712D01*
X161855704Y-117613792D01*
X161865453Y-117619336D01*
X161874888Y-117625330D01*
X161883995Y-117631760D01*
X161892760Y-117638613D01*
X161901170Y-117645876D01*
X161909211Y-117653535D01*
X161916870Y-117661576D01*
X161924133Y-117669985D01*
X161930987Y-117678750D01*
X161937418Y-117687856D01*
X161943412Y-117697290D01*
X161948956Y-117707039D01*
X161954036Y-117717088D01*
X161958640Y-117727425D01*
X161962752Y-117738036D01*
X161966360Y-117748907D01*
X161969451Y-117760025D01*
X161972009Y-117771376D01*
X161974023Y-117782946D01*
X161975478Y-117794722D01*
X161976362Y-117806691D01*
X161976659Y-117818838D01*
X161976362Y-117830986D01*
X161975478Y-117842955D01*
X161974023Y-117854731D01*
X161972009Y-117866301D01*
X161969451Y-117877652D01*
X161966360Y-117888770D01*
X161962752Y-117899641D01*
X161958640Y-117910251D01*
X161954036Y-117920588D01*
X161948956Y-117930638D01*
X161943412Y-117940387D01*
X161937418Y-117949821D01*
X161930987Y-117958927D01*
X161924133Y-117967692D01*
X161916870Y-117976101D01*
X161909211Y-117984142D01*
X161901170Y-117991801D01*
X161892760Y-117999063D01*
X161883995Y-118005917D01*
X161874888Y-118012347D01*
X161865453Y-118018341D01*
X161855704Y-118023885D01*
X161845654Y-118028965D01*
X161835316Y-118033568D01*
X161824705Y-118037680D01*
X161813833Y-118041288D01*
X161802715Y-118044378D01*
X161791363Y-118046937D01*
X161779793Y-118048950D01*
X161768016Y-118050406D01*
X161756046Y-118051289D01*
X161743898Y-118051586D01*
X161731750Y-118051289D01*
X161719780Y-118050406D01*
X161708003Y-118048950D01*
X161696432Y-118046937D01*
X161685081Y-118044378D01*
X161673963Y-118041288D01*
X161663091Y-118037680D01*
X161652480Y-118033568D01*
X161642142Y-118028965D01*
X161632092Y-118023885D01*
X161622343Y-118018341D01*
X161612908Y-118012347D01*
X161603801Y-118005917D01*
X161595036Y-117999063D01*
X161586626Y-117991801D01*
X161578585Y-117984142D01*
X161570926Y-117976101D01*
X161563663Y-117967692D01*
X161556809Y-117958927D01*
X161550378Y-117949821D01*
X161544384Y-117940387D01*
X161538840Y-117930638D01*
X161533759Y-117920588D01*
X161529156Y-117910251D01*
X161525044Y-117899641D01*
X161521436Y-117888770D01*
X161518345Y-117877652D01*
X161515787Y-117866301D01*
X161513773Y-117854731D01*
X161512318Y-117842955D01*
X161511434Y-117830986D01*
X161511137Y-117818838D01*
X161511434Y-117807001D01*
X161512318Y-117795303D01*
X161513773Y-117783760D01*
X161515787Y-117772388D01*
X161518345Y-117761202D01*
X161521436Y-117750217D01*
X161525044Y-117739449D01*
X161529156Y-117728913D01*
X161533759Y-117718626D01*
X161538840Y-117708602D01*
X161544384Y-117698856D01*
X161550378Y-117689406D01*
X161556809Y-117680265D01*
X161563663Y-117671450D01*
X161570926Y-117662975D01*
X161578585Y-117654857D01*
X161586626Y-117647111D01*
X161595036Y-117639753D01*
X161603801Y-117632797D01*
X161612908Y-117626260D01*
X161622343Y-117620156D01*
X161632092Y-117614502D01*
X161642142Y-117609313D01*
X161652480Y-117604605D01*
X161663091Y-117600392D01*
X161673963Y-117596691D01*
X161685081Y-117593517D01*
X161696432Y-117590885D01*
X161708003Y-117588811D01*
X161719780Y-117587310D01*
X161731750Y-117586398D01*
X161743898Y-117586091D01*
X161756046Y-117586388D01*
G37*
D10*
X110576959Y-53704797D02*
X110586117Y-53704837D01*
X110595266Y-53704957D01*
X110604405Y-53705156D01*
X110613534Y-53705435D01*
X110622653Y-53705794D01*
X110631760Y-53706233D01*
X110640857Y-53706750D01*
X110649942Y-53707348D01*
X110659015Y-53708024D01*
X110668075Y-53708780D01*
X110677123Y-53709614D01*
X110686158Y-53710528D01*
X110695180Y-53711521D01*
X110704187Y-53712592D01*
X110713181Y-53713742D01*
X110722159Y-53714971D01*
X110731123Y-53716279D01*
X110740071Y-53717665D01*
X110749003Y-53719129D01*
X110757919Y-53720672D01*
X110766818Y-53722293D01*
X110775700Y-53723992D01*
X110784564Y-53725768D01*
X110793410Y-53727623D01*
X110802237Y-53729556D01*
X110811045Y-53731566D01*
X110819834Y-53733653D01*
X110828603Y-53735818D01*
X110837351Y-53738060D01*
X110846078Y-53740380D01*
X110854783Y-53742776D01*
X110863467Y-53745249D01*
X110872128Y-53747799D01*
X110880765Y-53750425D01*
X110889380Y-53753128D01*
X110897970Y-53755907D01*
X110906535Y-53758761D01*
X110915076Y-53761692D01*
X110923590Y-53764698D01*
X110932079Y-53767780D01*
X110940540Y-53770937D01*
X110948974Y-53774170D01*
X110957380Y-53777477D01*
X110965758Y-53780859D01*
X110974107Y-53784315D01*
X110982425Y-53787845D01*
X110990714Y-53791450D01*
X110998972Y-53795128D01*
X111007198Y-53798880D01*
X111015392Y-53802705D01*
X111023554Y-53806603D01*
X111031683Y-53810574D01*
X111039777Y-53814617D01*
X111047837Y-53818732D01*
X111055863Y-53822919D01*
X111063852Y-53827178D01*
X111071805Y-53831508D01*
X111079722Y-53835909D01*
X111087601Y-53840381D01*
X111095441Y-53844923D01*
X111103243Y-53849534D01*
X111111006Y-53854216D01*
X111118729Y-53858967D01*
X111126411Y-53863786D01*
X111134051Y-53868674D01*
X111141650Y-53873631D01*
X111149207Y-53878655D01*
X111156720Y-53883746D01*
X111164190Y-53888904D01*
X111171615Y-53894129D01*
X111178995Y-53899420D01*
X111186329Y-53904777D01*
X111193617Y-53910199D01*
X111200859Y-53915685D01*
X111208053Y-53921236D01*
X111215198Y-53926851D01*
X111222295Y-53932530D01*
X111229343Y-53938271D01*
X111236340Y-53944075D01*
X111243288Y-53949940D01*
X111250183Y-53955867D01*
X111257028Y-53961855D01*
X111263819Y-53967904D01*
X111270558Y-53974013D01*
X111277243Y-53980180D01*
X111283874Y-53986407D01*
X111290450Y-53992692D01*
X111296971Y-53999035D01*
X111303437Y-54005436D01*
X111306648Y-54008657D01*
X111309845Y-54011892D01*
X111313028Y-54015142D01*
X111316197Y-54018405D01*
X111319351Y-54021683D01*
X111322491Y-54024974D01*
X111325616Y-54028279D01*
X111328727Y-54031597D01*
X111331823Y-54034930D01*
X111334904Y-54038275D01*
X111337971Y-54041634D01*
X111341022Y-54045007D01*
X111344059Y-54048393D01*
X111347081Y-54051792D01*
X111350087Y-54055204D01*
X111353079Y-54058630D01*
X111356055Y-54062068D01*
X111359016Y-54065520D01*
X111361962Y-54068984D01*
X111364892Y-54072461D01*
X111367807Y-54075950D01*
X111370707Y-54079453D01*
X111373590Y-54082967D01*
X111376459Y-54086495D01*
X111379311Y-54090034D01*
X111382148Y-54093587D01*
X111384969Y-54097151D01*
X111387774Y-54100728D01*
X111390563Y-54104316D01*
X111393336Y-54107917D01*
X111396093Y-54111529D01*
X111398834Y-54115154D01*
X111401559Y-54118790D01*
X111404268Y-54122439D01*
X111406960Y-54126098D01*
X111409636Y-54129769D01*
X111412295Y-54133452D01*
X111414939Y-54137146D01*
X111417565Y-54140851D01*
X111420175Y-54144568D01*
X111422769Y-54148296D01*
X111425346Y-54152035D01*
X111427905Y-54155785D01*
X111430449Y-54159546D01*
X111432975Y-54163317D01*
X111435485Y-54167100D01*
X111437978Y-54170893D01*
X111440454Y-54174697D01*
X111442912Y-54178511D01*
X111445354Y-54182336D01*
X111447779Y-54186171D01*
X111450186Y-54190017D01*
X111452576Y-54193872D01*
X111454950Y-54197739D01*
X111457305Y-54201614D01*
X111459644Y-54205501D01*
X111461964Y-54209396D01*
X111464268Y-54213302D01*
X111466554Y-54217217D01*
X111468823Y-54221143D01*
X111471073Y-54225077D01*
X111473307Y-54229022D01*
X111475522Y-54232975D01*
X111477721Y-54236939D01*
X111479901Y-54240910D01*
X111482064Y-54244893D01*
X111484208Y-54248883D01*
X111486335Y-54252883D01*
X111488444Y-54256891D01*
X111490535Y-54260910D01*
X111492608Y-54264935D01*
X111494663Y-54268971D01*
X111496700Y-54273015D01*
X111498719Y-54277068D01*
X111500720Y-54281128D01*
X111502703Y-54285198D01*
X111504667Y-54289275D01*
X111506613Y-54293362D01*
X111508541Y-54297456D01*
X111510451Y-54301559D01*
X111512342Y-54305669D01*
X111514216Y-54309789D01*
X111516070Y-54313914D01*
X111517906Y-54318049D01*
X111519724Y-54322191D01*
X111521524Y-54326341D01*
X111523304Y-54330498D01*
X111525067Y-54334664D01*
X111526810Y-54338835D01*
X111528535Y-54343016D01*
X111530241Y-54347202D01*
X111531929Y-54351398D01*
X111533598Y-54355598D01*
X111535249Y-54359808D01*
X111536880Y-54364023D01*
X111538493Y-54368247D01*
X111540087Y-54372475D01*
X111541663Y-54376713D01*
X111543219Y-54380955D01*
X111544757Y-54385206D01*
X111546275Y-54389462D01*
X111547775Y-54393726D01*
X111549256Y-54397994D01*
X111550718Y-54402272D01*
X111552160Y-54406553D01*
X111553585Y-54410843D01*
X111554989Y-54415136D01*
X111556375Y-54419438D01*
X111557741Y-54423744D01*
X111559089Y-54428059D01*
X111560417Y-54432377D01*
X111561727Y-54436702D01*
X111563017Y-54441032D01*
X111564288Y-54445370D01*
X111565540Y-54449711D01*
X111566773Y-54454060D01*
X111567986Y-54458412D01*
X111569180Y-54462772D01*
X111570354Y-54467135D01*
X111571510Y-54471505D01*
X111572646Y-54475879D01*
X111573763Y-54480260D01*
X111574861Y-54484644D01*
X111575939Y-54489036D01*
X111576998Y-54493430D01*
X111578037Y-54497832D01*
X111579057Y-54502236D01*
X111580058Y-54506647D01*
X111581039Y-54511061D01*
X111582001Y-54515482D01*
X111582942Y-54519905D01*
X111583865Y-54524335D01*
X111584768Y-54528768D01*
X111585652Y-54533207D01*
X111586516Y-54537649D01*
X111587361Y-54542097D01*
X111588186Y-54546547D01*
X111588992Y-54551004D01*
X111589777Y-54555462D01*
X111590544Y-54559927D01*
X111591290Y-54564394D01*
X111592018Y-54568868D01*
X111592725Y-54573343D01*
X111593413Y-54577824D01*
X111594081Y-54582307D01*
X111594729Y-54586796D01*
X111595358Y-54591286D01*
X111595967Y-54595783D01*
X111596557Y-54600281D01*
X111597126Y-54604785D01*
X111597676Y-54609290D01*
X111598206Y-54613801D01*
X111598717Y-54618313D01*
X111599208Y-54622831D01*
X111599678Y-54627350D01*
X111600129Y-54631874D01*
X111600561Y-54636400D01*
X111600972Y-54640931D01*
X111601364Y-54645463D01*
X111601736Y-54650000D01*
X111602088Y-54654538D01*
X111602420Y-54659082D01*
X111602732Y-54663626D01*
X111603025Y-54668176D01*
X111603297Y-54672726D01*
X111603550Y-54677281D01*
X111603783Y-54681836D01*
X111603996Y-54686397D01*
X111604188Y-54690958D01*
X111604361Y-54695525D01*
X111604514Y-54700091D01*
X111604648Y-54704662D01*
X111604761Y-54709234D01*
X111604854Y-54713810D01*
X111604927Y-54718387D01*
X111604980Y-54722968D01*
X111605014Y-54727549D01*
X111605027Y-54732135D01*
X111605027Y-54732866D01*
X109548890Y-54732866D02*
X109548930Y-54723708D01*
X109549050Y-54714559D01*
X109549249Y-54705420D01*
X109549528Y-54696291D01*
X109549887Y-54687172D01*
X109550326Y-54678064D01*
X109550843Y-54668968D01*
X109551441Y-54659883D01*
X109552117Y-54650810D01*
X109552872Y-54641749D01*
X109553707Y-54632701D01*
X109554621Y-54623666D01*
X109555614Y-54614645D01*
X109556685Y-54605637D01*
X109557835Y-54596644D01*
X109559064Y-54587665D01*
X109560372Y-54578702D01*
X109561758Y-54569754D01*
X109563222Y-54560821D01*
X109564765Y-54551906D01*
X109566386Y-54543006D01*
X109568085Y-54534125D01*
X109569861Y-54525261D01*
X109571716Y-54516415D01*
X109573649Y-54507587D01*
X109575659Y-54498779D01*
X109577746Y-54489991D01*
X109579911Y-54481222D01*
X109582153Y-54472474D01*
X109584473Y-54463747D01*
X109586869Y-54455041D01*
X109589342Y-54446358D01*
X109591892Y-54437697D01*
X109594518Y-54429059D01*
X109597221Y-54420445D01*
X109600000Y-54411855D01*
X109602854Y-54403289D01*
X109605785Y-54394749D01*
X109608791Y-54386234D01*
X109611873Y-54377746D01*
X109615030Y-54369284D01*
X109618263Y-54360850D01*
X109621570Y-54352444D01*
X109624952Y-54344067D01*
X109628408Y-54335718D01*
X109631938Y-54327399D01*
X109635543Y-54319111D01*
X109639221Y-54310853D01*
X109642973Y-54302626D01*
X109646798Y-54294432D01*
X109650696Y-54286270D01*
X109654666Y-54278142D01*
X109658710Y-54270047D01*
X109662825Y-54261987D01*
X109667012Y-54253962D01*
X109671271Y-54245972D01*
X109675601Y-54238019D01*
X109680002Y-54230103D01*
X109684474Y-54222224D01*
X109689015Y-54214383D01*
X109693627Y-54206581D01*
X109698309Y-54198818D01*
X109703060Y-54191096D01*
X109707879Y-54183414D01*
X109712767Y-54175773D01*
X109717724Y-54168174D01*
X109722748Y-54160618D01*
X109727839Y-54153104D01*
X109732997Y-54145635D01*
X109738222Y-54138210D01*
X109743513Y-54130830D01*
X109748870Y-54123495D01*
X109754292Y-54116207D01*
X109759778Y-54108966D01*
X109765329Y-54101772D01*
X109770944Y-54094626D01*
X109776622Y-54087529D01*
X109782364Y-54080481D01*
X109788167Y-54073484D01*
X109794033Y-54066537D01*
X109799960Y-54059641D01*
X109805948Y-54052797D01*
X109811997Y-54046005D01*
X109818105Y-54039266D01*
X109824273Y-54032581D01*
X109830500Y-54025950D01*
X109836785Y-54019374D01*
X109843128Y-54012853D01*
X109849528Y-54006388D01*
X109852750Y-54003176D01*
X109855985Y-53999979D01*
X109859235Y-53996796D01*
X109862498Y-53993627D01*
X109865776Y-53990473D01*
X109869067Y-53987333D01*
X109872372Y-53984208D01*
X109875690Y-53981097D01*
X109879022Y-53978001D01*
X109882368Y-53974920D01*
X109885727Y-53971854D01*
X109889100Y-53968802D01*
X109892486Y-53965765D01*
X109895885Y-53962744D01*
X109899297Y-53959737D01*
X109902723Y-53956745D01*
X109906161Y-53953769D01*
X109909612Y-53950808D01*
X109913076Y-53947862D01*
X109916553Y-53944932D01*
X109920043Y-53942017D01*
X109923545Y-53939118D01*
X109927060Y-53936234D01*
X109930588Y-53933366D01*
X109934127Y-53930513D01*
X109937680Y-53927676D01*
X109941244Y-53924856D01*
X109944821Y-53922050D01*
X109948409Y-53919261D01*
X109952010Y-53916488D01*
X109955622Y-53913731D01*
X109959247Y-53910990D01*
X109962883Y-53908266D01*
X109966531Y-53905557D01*
X109970191Y-53902865D01*
X109973862Y-53900188D01*
X109977544Y-53897529D01*
X109981239Y-53894886D01*
X109984944Y-53892259D01*
X109988661Y-53889649D01*
X109992388Y-53887056D01*
X109996128Y-53884479D01*
X109999877Y-53881919D01*
X110003639Y-53879375D01*
X110007410Y-53876849D01*
X110011193Y-53874339D01*
X110014986Y-53871846D01*
X110018790Y-53869370D01*
X110022604Y-53866912D01*
X110026429Y-53864470D01*
X110030264Y-53862046D01*
X110034110Y-53859638D01*
X110037965Y-53857248D01*
X110041831Y-53854874D01*
X110045707Y-53852519D01*
X110049593Y-53850180D01*
X110053489Y-53847860D01*
X110057395Y-53845556D01*
X110061310Y-53843270D01*
X110065236Y-53841001D01*
X110069170Y-53838751D01*
X110073115Y-53836517D01*
X110077068Y-53834302D01*
X110081031Y-53832103D01*
X110085003Y-53829923D01*
X110088985Y-53827761D01*
X110092975Y-53825616D01*
X110096976Y-53823489D01*
X110100984Y-53821380D01*
X110105002Y-53819289D01*
X110109028Y-53817216D01*
X110113064Y-53815161D01*
X110117107Y-53813124D01*
X110121161Y-53811105D01*
X110125221Y-53809105D01*
X110129291Y-53807121D01*
X110133368Y-53805157D01*
X110137455Y-53803211D01*
X110141549Y-53801283D01*
X110145652Y-53799373D01*
X110149762Y-53797482D01*
X110153881Y-53795609D01*
X110158007Y-53793754D01*
X110162142Y-53791918D01*
X110166283Y-53790100D01*
X110170434Y-53788301D01*
X110174591Y-53786520D01*
X110178756Y-53784758D01*
X110182928Y-53783014D01*
X110187109Y-53781289D01*
X110191295Y-53779583D01*
X110195490Y-53777895D01*
X110199691Y-53776226D01*
X110203901Y-53774575D01*
X110208116Y-53772944D01*
X110212339Y-53771331D01*
X110216568Y-53769737D01*
X110220806Y-53768161D01*
X110225048Y-53766605D01*
X110229299Y-53765067D01*
X110233554Y-53763549D01*
X110237819Y-53762049D01*
X110242087Y-53760568D01*
X110246364Y-53759106D01*
X110250645Y-53757664D01*
X110254935Y-53756240D01*
X110259229Y-53754835D01*
X110263531Y-53753449D01*
X110267837Y-53752083D01*
X110272151Y-53750735D01*
X110276469Y-53749407D01*
X110280795Y-53748097D01*
X110285125Y-53746807D01*
X110289462Y-53745536D01*
X110293803Y-53744284D01*
X110298152Y-53743052D01*
X110302504Y-53741839D01*
X110306864Y-53740644D01*
X110311227Y-53739470D01*
X110315598Y-53738314D01*
X110319972Y-53737178D01*
X110324353Y-53736061D01*
X110328737Y-53734964D01*
X110333129Y-53733885D01*
X110337523Y-53732827D01*
X110341924Y-53731787D01*
X110346328Y-53730767D01*
X110350740Y-53729766D01*
X110355154Y-53728785D01*
X110359575Y-53727824D01*
X110363998Y-53726882D01*
X110368428Y-53725959D01*
X110372860Y-53725056D01*
X110377300Y-53724172D01*
X110381741Y-53723308D01*
X110386189Y-53722463D01*
X110390639Y-53721638D01*
X110395096Y-53720832D01*
X110399555Y-53720047D01*
X110404020Y-53719280D01*
X110408487Y-53718534D01*
X110412960Y-53717806D01*
X110417435Y-53717099D01*
X110421917Y-53716411D01*
X110426399Y-53715743D01*
X110430888Y-53715095D01*
X110435379Y-53714466D01*
X110439875Y-53713857D01*
X110444373Y-53713268D01*
X110448877Y-53712698D01*
X110453382Y-53712148D01*
X110457893Y-53711618D01*
X110462405Y-53711107D01*
X110466923Y-53710617D01*
X110471442Y-53710146D01*
X110475967Y-53709695D01*
X110480492Y-53709263D01*
X110485023Y-53708852D01*
X110489555Y-53708460D01*
X110494093Y-53708088D01*
X110498631Y-53707736D01*
X110503175Y-53707404D01*
X110507719Y-53707092D01*
X110512268Y-53706799D01*
X110516818Y-53706527D01*
X110521373Y-53706274D01*
X110525929Y-53706041D01*
X110530490Y-53705828D01*
X110535051Y-53705636D01*
X110539617Y-53705463D01*
X110544184Y-53705310D01*
X110548755Y-53705176D01*
X110553326Y-53705063D01*
X110557903Y-53704970D01*
X110562479Y-53704897D01*
X110567061Y-53704844D01*
X110571642Y-53704810D01*
X110576228Y-53704797D01*
X110576959Y-53704797D01*
X108486554Y-55795204D02*
X107972519Y-54732866D01*
X111879180Y-53739067D02*
X112907248Y-53739067D01*
D12*
X157656473Y-116947798D02*
X157695641Y-116913631D01*
X157736395Y-116881256D01*
X157778668Y-116850731D01*
X157822393Y-116822112D01*
X157867502Y-116795456D01*
X157913928Y-116770819D01*
X157961605Y-116748260D01*
X158010464Y-116727833D01*
X158060440Y-116709597D01*
X158111464Y-116693609D01*
X158163469Y-116679924D01*
X158216389Y-116668600D01*
X158270157Y-116659693D01*
X158324704Y-116653261D01*
X158379964Y-116649360D01*
X158435870Y-116648047D01*
X158491737Y-116649360D01*
X158546892Y-116653261D01*
X158601281Y-116659693D01*
X158654855Y-116668600D01*
X158707561Y-116679924D01*
X158759347Y-116693609D01*
X158810162Y-116709598D01*
X158859954Y-116727834D01*
X158908671Y-116748260D01*
X158956262Y-116770819D01*
X159002676Y-116795456D01*
X159047860Y-116822112D01*
X159091762Y-116850731D01*
X159134332Y-116881256D01*
X159175518Y-116913631D01*
X159215267Y-116947798D01*
X159546775Y-116616309D01*
X159638469Y-116707997D01*
X159306960Y-117039486D01*
X159341129Y-117078652D01*
X159373506Y-117119404D01*
X159404033Y-117161674D01*
X159432654Y-117205396D01*
X159459311Y-117250503D01*
X159483949Y-117296926D01*
X159506510Y-117344600D01*
X159526937Y-117393457D01*
X159545174Y-117443429D01*
X159561164Y-117494450D01*
X159574850Y-117546453D01*
X159586174Y-117599370D01*
X159595082Y-117653134D01*
X159601514Y-117707679D01*
X159605415Y-117762936D01*
X159606728Y-117818838D01*
X159605415Y-117874702D01*
X159601514Y-117929854D01*
X159595082Y-117984240D01*
X159586174Y-118037811D01*
X159574850Y-118090513D01*
X159561164Y-118142296D01*
X159545174Y-118193108D01*
X159526937Y-118242898D01*
X159506510Y-118291612D01*
X159483949Y-118339201D01*
X159459311Y-118385612D01*
X159432654Y-118430793D01*
X159404033Y-118474693D01*
X159373506Y-118517261D01*
X159341129Y-118558444D01*
X159306960Y-118598191D01*
X159638469Y-118929679D01*
X159546775Y-119021368D01*
X159215267Y-118689879D01*
X159176099Y-118724046D01*
X159135345Y-118756421D01*
X159093072Y-118786946D01*
X159049347Y-118815565D01*
X159004238Y-118842221D01*
X158957812Y-118866858D01*
X158910136Y-118889417D01*
X158861276Y-118909843D01*
X158811301Y-118928079D01*
X158760277Y-118944068D01*
X158708271Y-118957753D01*
X158655351Y-118969077D01*
X158601584Y-118977984D01*
X158547036Y-118984416D01*
X158491776Y-118988317D01*
X158435870Y-118989630D01*
X158380003Y-118988317D01*
X158324849Y-118984416D01*
X158270459Y-118977984D01*
X158216885Y-118969077D01*
X158164180Y-118957753D01*
X158112393Y-118944068D01*
X158061579Y-118928079D01*
X158011787Y-118909843D01*
X157963069Y-118889417D01*
X157915478Y-118866857D01*
X157869064Y-118842221D01*
X157823881Y-118815565D01*
X157779978Y-118786946D01*
X157737408Y-118756421D01*
X157696223Y-118724046D01*
X157656473Y-118689879D01*
X157324965Y-119021368D01*
X157233272Y-118929679D01*
X157564780Y-118598191D01*
X157748167Y-118598191D01*
X157783206Y-118627854D01*
X157819520Y-118655978D01*
X157857065Y-118682511D01*
X157895792Y-118707401D01*
X157935656Y-118730597D01*
X157976609Y-118752047D01*
X158018607Y-118771699D01*
X158061601Y-118789502D01*
X158105546Y-118805404D01*
X158150395Y-118819353D01*
X158196101Y-118831298D01*
X158242619Y-118841187D01*
X158289901Y-118848969D01*
X158337901Y-118854591D01*
X158386573Y-118858002D01*
X158435870Y-118859150D01*
X158439397Y-118859150D01*
X158488113Y-118858002D01*
X158536353Y-118854591D01*
X158584056Y-118848969D01*
X158631160Y-118841187D01*
X158677603Y-118831298D01*
X158723322Y-118819353D01*
X158768256Y-118805404D01*
X158812343Y-118789502D01*
X158855521Y-118771699D01*
X158897728Y-118752047D01*
X158938901Y-118730597D01*
X158978979Y-118707401D01*
X159017900Y-118682511D01*
X159055602Y-118655978D01*
X159092022Y-118627854D01*
X159127100Y-118598191D01*
X158435870Y-117910527D01*
X157748167Y-118598191D01*
X157564780Y-118598191D01*
X157530611Y-118559025D01*
X157498234Y-118518273D01*
X157467707Y-118476003D01*
X157439087Y-118432281D01*
X157412429Y-118387174D01*
X157387791Y-118340751D01*
X157365230Y-118293077D01*
X157344803Y-118244220D01*
X157326566Y-118194248D01*
X157310576Y-118143226D01*
X157296890Y-118091224D01*
X157285566Y-118038307D01*
X157276659Y-117984543D01*
X157270226Y-117929998D01*
X157266325Y-117874741D01*
X157265012Y-117818839D01*
X157395499Y-117818839D01*
X157396648Y-117867552D01*
X157400059Y-117915789D01*
X157405681Y-117963490D01*
X157413463Y-118010591D01*
X157423353Y-118057031D01*
X157435298Y-118102748D01*
X157449248Y-118147679D01*
X157465151Y-118191764D01*
X157482955Y-118234939D01*
X157502608Y-118277143D01*
X157524059Y-118318314D01*
X157547256Y-118358390D01*
X157572148Y-118397309D01*
X157598683Y-118435008D01*
X157626808Y-118471427D01*
X157656473Y-118506502D01*
X158344177Y-117818839D01*
X158340650Y-117815312D01*
X158527564Y-117815312D01*
X159218794Y-118506502D01*
X159248459Y-118470845D01*
X159276584Y-118433989D01*
X159303119Y-118395976D01*
X159328011Y-118356847D01*
X159351208Y-118316644D01*
X159372659Y-118275408D01*
X159392312Y-118233179D01*
X159410116Y-118190001D01*
X159426019Y-118145913D01*
X159439969Y-118100957D01*
X159451914Y-118055175D01*
X159461804Y-118008607D01*
X159469586Y-117961296D01*
X159475208Y-117913282D01*
X159478619Y-117864607D01*
X159479768Y-117815312D01*
X159479768Y-117811786D01*
X159478619Y-117763073D01*
X159475208Y-117714835D01*
X159469586Y-117667135D01*
X159461804Y-117620033D01*
X159451914Y-117573593D01*
X159439969Y-117527877D01*
X159426019Y-117482945D01*
X159410116Y-117438861D01*
X159392312Y-117395685D01*
X159372659Y-117353481D01*
X159351208Y-117312310D01*
X159328011Y-117272234D01*
X159303119Y-117233316D01*
X159276584Y-117195616D01*
X159248459Y-117159197D01*
X159218794Y-117124122D01*
X158527564Y-117815312D01*
X158340650Y-117815312D01*
X157656473Y-117131175D01*
X157626808Y-117166250D01*
X157598683Y-117202669D01*
X157572148Y-117240369D01*
X157547256Y-117279287D01*
X157524059Y-117319363D01*
X157502608Y-117360534D01*
X157482955Y-117402738D01*
X157465151Y-117445913D01*
X157449248Y-117489998D01*
X157435298Y-117534930D01*
X157423353Y-117580646D01*
X157413463Y-117627086D01*
X157405681Y-117674188D01*
X157400059Y-117721888D01*
X157396648Y-117770126D01*
X157395499Y-117818839D01*
X157265012Y-117818839D01*
X157265012Y-117818838D01*
X157266325Y-117762974D01*
X157270226Y-117707823D01*
X157276659Y-117653437D01*
X157285566Y-117599866D01*
X157296890Y-117547163D01*
X157310576Y-117495380D01*
X157326566Y-117444568D01*
X157344803Y-117394779D01*
X157365230Y-117346064D01*
X157387791Y-117298476D01*
X157412429Y-117252065D01*
X157439087Y-117206884D01*
X157467707Y-117162984D01*
X157498234Y-117120416D01*
X157530611Y-117079233D01*
X157564780Y-117039486D01*
X157561253Y-117035960D01*
X157744640Y-117035960D01*
X158432343Y-117723623D01*
X159123573Y-117035960D01*
X159088534Y-117006296D01*
X159052220Y-116978172D01*
X159014676Y-116951639D01*
X158975948Y-116926749D01*
X158936085Y-116903553D01*
X158895131Y-116882103D01*
X158853134Y-116862451D01*
X158810139Y-116844648D01*
X158766194Y-116828746D01*
X158721345Y-116814797D01*
X158675639Y-116802852D01*
X158629121Y-116792963D01*
X158581839Y-116785182D01*
X158533839Y-116779560D01*
X158485167Y-116776149D01*
X158435870Y-116775000D01*
X158386533Y-116776149D01*
X158337750Y-116779560D01*
X158289576Y-116785182D01*
X158242068Y-116792963D01*
X158195283Y-116802852D01*
X158149279Y-116814797D01*
X158104111Y-116828746D01*
X158059838Y-116844648D01*
X158016514Y-116862451D01*
X157974198Y-116882103D01*
X157932947Y-116903553D01*
X157892816Y-116926749D01*
X157853863Y-116951639D01*
X157816145Y-116978172D01*
X157779719Y-117006296D01*
X157744640Y-117035960D01*
X157561253Y-117035960D01*
X157233272Y-116707997D01*
X157324965Y-116616309D01*
X157656473Y-116947798D01*
G36*
X159638469Y-116707997D02*
G01*
X159306960Y-117039486D01*
X159341129Y-117078652D01*
X159373506Y-117119404D01*
X159404033Y-117161674D01*
X159432654Y-117205396D01*
X159459311Y-117250503D01*
X159483949Y-117296926D01*
X159506510Y-117344600D01*
X159526937Y-117393457D01*
X159545174Y-117443429D01*
X159561164Y-117494450D01*
X159574850Y-117546453D01*
X159586174Y-117599370D01*
X159595082Y-117653134D01*
X159601514Y-117707679D01*
X159605415Y-117762936D01*
X159606728Y-117818838D01*
X159605415Y-117874702D01*
X159601514Y-117929854D01*
X159595082Y-117984240D01*
X159586174Y-118037811D01*
X159574850Y-118090513D01*
X159561164Y-118142296D01*
X159545174Y-118193108D01*
X159526937Y-118242898D01*
X159506510Y-118291612D01*
X159483949Y-118339201D01*
X159459311Y-118385612D01*
X159432654Y-118430793D01*
X159404033Y-118474693D01*
X159373506Y-118517261D01*
X159341129Y-118558444D01*
X159306960Y-118598191D01*
X159638469Y-118929679D01*
X159546775Y-119021368D01*
X159215267Y-118689879D01*
X159176099Y-118724046D01*
X159135345Y-118756421D01*
X159093072Y-118786946D01*
X159049347Y-118815565D01*
X159004238Y-118842221D01*
X158957812Y-118866858D01*
X158910136Y-118889417D01*
X158861276Y-118909843D01*
X158811301Y-118928079D01*
X158760277Y-118944068D01*
X158708271Y-118957753D01*
X158655351Y-118969077D01*
X158601584Y-118977984D01*
X158547036Y-118984416D01*
X158491776Y-118988317D01*
X158435870Y-118989630D01*
X158380003Y-118988317D01*
X158324849Y-118984416D01*
X158270459Y-118977984D01*
X158216885Y-118969077D01*
X158164180Y-118957753D01*
X158112393Y-118944068D01*
X158061579Y-118928079D01*
X158011787Y-118909843D01*
X157963069Y-118889417D01*
X157915478Y-118866857D01*
X157869064Y-118842221D01*
X157823881Y-118815565D01*
X157779978Y-118786946D01*
X157737408Y-118756421D01*
X157696223Y-118724046D01*
X157656473Y-118689879D01*
X157324965Y-119021368D01*
X157233272Y-118929679D01*
X157564780Y-118598191D01*
X157748167Y-118598191D01*
X157783206Y-118627854D01*
X157819520Y-118655978D01*
X157857065Y-118682511D01*
X157895792Y-118707401D01*
X157935656Y-118730597D01*
X157976609Y-118752047D01*
X158018607Y-118771699D01*
X158061601Y-118789502D01*
X158105546Y-118805404D01*
X158150395Y-118819353D01*
X158196101Y-118831298D01*
X158242619Y-118841187D01*
X158289901Y-118848969D01*
X158337901Y-118854591D01*
X158386573Y-118858002D01*
X158435870Y-118859150D01*
X158439397Y-118859150D01*
X158488113Y-118858002D01*
X158536353Y-118854591D01*
X158584056Y-118848969D01*
X158631160Y-118841187D01*
X158677603Y-118831298D01*
X158723322Y-118819353D01*
X158768256Y-118805404D01*
X158812343Y-118789502D01*
X158855521Y-118771699D01*
X158897728Y-118752047D01*
X158938901Y-118730597D01*
X158978979Y-118707401D01*
X159017900Y-118682511D01*
X159055602Y-118655978D01*
X159092022Y-118627854D01*
X159127100Y-118598191D01*
X158435870Y-117910527D01*
X157748167Y-118598191D01*
X157564780Y-118598191D01*
X157530611Y-118559025D01*
X157498234Y-118518273D01*
X157467707Y-118476003D01*
X157439087Y-118432281D01*
X157412429Y-118387174D01*
X157387791Y-118340751D01*
X157365230Y-118293077D01*
X157344803Y-118244220D01*
X157326566Y-118194248D01*
X157310576Y-118143226D01*
X157296890Y-118091224D01*
X157285566Y-118038307D01*
X157276659Y-117984543D01*
X157270226Y-117929998D01*
X157266325Y-117874741D01*
X157265012Y-117818839D01*
X157395499Y-117818839D01*
X157396648Y-117867552D01*
X157400059Y-117915789D01*
X157405681Y-117963490D01*
X157413463Y-118010591D01*
X157423353Y-118057031D01*
X157435298Y-118102748D01*
X157449248Y-118147679D01*
X157465151Y-118191764D01*
X157482955Y-118234939D01*
X157502608Y-118277143D01*
X157524059Y-118318314D01*
X157547256Y-118358390D01*
X157572148Y-118397309D01*
X157598683Y-118435008D01*
X157626808Y-118471427D01*
X157656473Y-118506502D01*
X158344177Y-117818839D01*
X158340650Y-117815312D01*
X158527564Y-117815312D01*
X159218794Y-118506502D01*
X159248459Y-118470845D01*
X159276584Y-118433989D01*
X159303119Y-118395976D01*
X159328011Y-118356847D01*
X159351208Y-118316644D01*
X159372659Y-118275408D01*
X159392312Y-118233179D01*
X159410116Y-118190001D01*
X159426019Y-118145913D01*
X159439969Y-118100957D01*
X159451914Y-118055175D01*
X159461804Y-118008607D01*
X159469586Y-117961296D01*
X159475208Y-117913282D01*
X159478619Y-117864607D01*
X159479768Y-117815312D01*
X159479768Y-117811786D01*
X159478619Y-117763073D01*
X159475208Y-117714835D01*
X159469586Y-117667135D01*
X159461804Y-117620033D01*
X159451914Y-117573593D01*
X159439969Y-117527877D01*
X159426019Y-117482945D01*
X159410116Y-117438861D01*
X159392312Y-117395685D01*
X159372659Y-117353481D01*
X159351208Y-117312310D01*
X159328011Y-117272234D01*
X159303119Y-117233316D01*
X159276584Y-117195616D01*
X159248459Y-117159197D01*
X159218794Y-117124122D01*
X158527564Y-117815312D01*
X158340650Y-117815312D01*
X157656473Y-117131175D01*
X157626808Y-117166250D01*
X157598683Y-117202669D01*
X157572148Y-117240369D01*
X157547256Y-117279287D01*
X157524059Y-117319363D01*
X157502608Y-117360534D01*
X157482955Y-117402738D01*
X157465151Y-117445913D01*
X157449248Y-117489998D01*
X157435298Y-117534930D01*
X157423353Y-117580646D01*
X157413463Y-117627086D01*
X157405681Y-117674188D01*
X157400059Y-117721888D01*
X157396648Y-117770126D01*
X157395499Y-117818839D01*
X157265012Y-117818839D01*
X157265012Y-117818838D01*
X157266325Y-117762974D01*
X157270226Y-117707823D01*
X157276659Y-117653437D01*
X157285566Y-117599866D01*
X157296890Y-117547163D01*
X157310576Y-117495380D01*
X157326566Y-117444568D01*
X157344803Y-117394779D01*
X157365230Y-117346064D01*
X157387791Y-117298476D01*
X157412429Y-117252065D01*
X157439087Y-117206884D01*
X157467707Y-117162984D01*
X157498234Y-117120416D01*
X157530611Y-117079233D01*
X157564780Y-117039486D01*
X157561253Y-117035960D01*
X157744640Y-117035960D01*
X158432343Y-117723623D01*
X159123573Y-117035960D01*
X159088534Y-117006296D01*
X159052220Y-116978172D01*
X159014676Y-116951639D01*
X158975948Y-116926749D01*
X158936085Y-116903553D01*
X158895131Y-116882103D01*
X158853134Y-116862451D01*
X158810139Y-116844648D01*
X158766194Y-116828746D01*
X158721345Y-116814797D01*
X158675639Y-116802852D01*
X158629121Y-116792963D01*
X158581839Y-116785182D01*
X158533839Y-116779560D01*
X158485167Y-116776149D01*
X158435870Y-116775000D01*
X158386533Y-116776149D01*
X158337750Y-116779560D01*
X158289576Y-116785182D01*
X158242068Y-116792963D01*
X158195283Y-116802852D01*
X158149279Y-116814797D01*
X158104111Y-116828746D01*
X158059838Y-116844648D01*
X158016514Y-116862451D01*
X157974198Y-116882103D01*
X157932947Y-116903553D01*
X157892816Y-116926749D01*
X157853863Y-116951639D01*
X157816145Y-116978172D01*
X157779719Y-117006296D01*
X157744640Y-117035960D01*
X157561253Y-117035960D01*
X157233272Y-116707997D01*
X157324965Y-116616309D01*
X157656473Y-116947798D01*
X157695641Y-116913631D01*
X157736395Y-116881256D01*
X157778668Y-116850731D01*
X157822393Y-116822112D01*
X157867502Y-116795456D01*
X157913928Y-116770819D01*
X157961605Y-116748260D01*
X158010464Y-116727833D01*
X158060440Y-116709597D01*
X158111464Y-116693609D01*
X158163469Y-116679924D01*
X158216389Y-116668600D01*
X158270157Y-116659693D01*
X158324704Y-116653261D01*
X158379964Y-116649360D01*
X158435870Y-116648047D01*
X158491737Y-116649360D01*
X158546892Y-116653261D01*
X158601281Y-116659693D01*
X158654855Y-116668600D01*
X158707561Y-116679924D01*
X158759347Y-116693609D01*
X158810162Y-116709598D01*
X158859954Y-116727834D01*
X158908671Y-116748260D01*
X158956262Y-116770819D01*
X159002676Y-116795456D01*
X159047860Y-116822112D01*
X159091762Y-116850731D01*
X159134332Y-116881256D01*
X159175518Y-116913631D01*
X159215267Y-116947798D01*
X159546775Y-116616309D01*
X159638469Y-116707997D01*
G37*
X162918283Y-118993156D02*
X160573039Y-118993156D01*
X160573039Y-118351337D01*
X160700000Y-118351337D01*
X160700000Y-118862676D01*
X161211369Y-118862676D01*
X161170832Y-118840739D01*
X161131247Y-118817273D01*
X161092653Y-118792319D01*
X161055093Y-118765919D01*
X161018607Y-118738113D01*
X160983236Y-118708944D01*
X160949024Y-118678452D01*
X160916009Y-118646680D01*
X160884235Y-118613667D01*
X160853741Y-118579456D01*
X160824570Y-118544088D01*
X160796763Y-118507604D01*
X160770361Y-118470046D01*
X160745406Y-118431454D01*
X160721938Y-118391871D01*
X160700000Y-118351337D01*
X160573039Y-118351337D01*
X160573039Y-117818838D01*
X160700000Y-117818838D01*
X160701363Y-117872406D01*
X160705408Y-117925288D01*
X160712068Y-117977417D01*
X160721277Y-118028726D01*
X160732968Y-118079149D01*
X160747075Y-118128620D01*
X160763532Y-118177072D01*
X160782271Y-118224439D01*
X160803226Y-118270653D01*
X160826331Y-118315649D01*
X160851519Y-118359360D01*
X160878724Y-118401720D01*
X160907879Y-118442662D01*
X160938918Y-118482119D01*
X160971774Y-118520025D01*
X161006380Y-118556314D01*
X161042671Y-118590918D01*
X161080579Y-118623772D01*
X161120039Y-118654809D01*
X161160983Y-118683962D01*
X161203345Y-118711166D01*
X161247058Y-118736353D01*
X161292057Y-118759456D01*
X161338274Y-118780410D01*
X161385644Y-118799148D01*
X161434098Y-118815604D01*
X161483572Y-118829710D01*
X161533998Y-118841400D01*
X161585311Y-118850609D01*
X161637442Y-118857269D01*
X161690327Y-118861313D01*
X161743898Y-118862676D01*
X162276427Y-118862676D01*
X162787796Y-118862676D01*
X162787796Y-118351337D01*
X162765857Y-118391871D01*
X162742390Y-118431454D01*
X162717434Y-118470046D01*
X162691032Y-118507604D01*
X162663225Y-118544088D01*
X162634054Y-118579456D01*
X162603561Y-118613667D01*
X162571786Y-118646680D01*
X162538772Y-118678452D01*
X162504559Y-118708944D01*
X162469189Y-118738113D01*
X162432703Y-118765919D01*
X162395142Y-118792319D01*
X162356549Y-118817273D01*
X162316963Y-118840739D01*
X162276427Y-118862676D01*
X161743898Y-118862676D01*
X161797469Y-118861313D01*
X161850354Y-118857269D01*
X161902485Y-118850609D01*
X161953798Y-118841400D01*
X162004224Y-118829710D01*
X162053698Y-118815604D01*
X162102152Y-118799148D01*
X162149521Y-118780410D01*
X162195739Y-118759456D01*
X162240737Y-118736353D01*
X162284451Y-118711166D01*
X162326813Y-118683962D01*
X162367757Y-118654809D01*
X162407216Y-118623772D01*
X162445125Y-118590918D01*
X162481415Y-118556314D01*
X162516022Y-118520025D01*
X162548878Y-118482119D01*
X162579916Y-118442662D01*
X162609071Y-118401720D01*
X162636276Y-118359360D01*
X162661465Y-118315649D01*
X162684570Y-118270653D01*
X162705525Y-118224439D01*
X162724264Y-118177072D01*
X162740720Y-118128620D01*
X162754827Y-118079149D01*
X162766518Y-118028726D01*
X162775727Y-117977417D01*
X162782388Y-117925288D01*
X162786433Y-117872406D01*
X162787796Y-117818838D01*
X162786433Y-117765270D01*
X162782388Y-117712389D01*
X162775727Y-117660260D01*
X162766518Y-117608951D01*
X162754827Y-117558528D01*
X162740720Y-117509057D01*
X162724264Y-117460605D01*
X162705525Y-117413238D01*
X162684570Y-117367024D01*
X162661465Y-117322027D01*
X162636276Y-117278316D01*
X162609071Y-117235957D01*
X162579916Y-117195015D01*
X162548878Y-117155558D01*
X162516022Y-117117652D01*
X162481415Y-117081363D01*
X162445125Y-117046759D01*
X162407216Y-117013905D01*
X162367757Y-116982868D01*
X162326813Y-116953714D01*
X162284451Y-116926511D01*
X162240737Y-116901324D01*
X162195739Y-116878221D01*
X162149521Y-116857267D01*
X162102152Y-116838529D01*
X162053698Y-116822073D01*
X162004224Y-116807967D01*
X161953798Y-116796276D01*
X161902485Y-116787068D01*
X161850354Y-116780408D01*
X161797469Y-116776363D01*
X161743898Y-116775000D01*
X162276427Y-116775000D01*
X162316963Y-116796938D01*
X162356549Y-116820404D01*
X162395142Y-116845358D01*
X162432703Y-116871758D01*
X162469189Y-116899563D01*
X162504559Y-116928733D01*
X162538772Y-116959224D01*
X162571786Y-116990997D01*
X162603561Y-117024010D01*
X162634054Y-117058221D01*
X162663225Y-117093589D01*
X162691032Y-117130073D01*
X162717434Y-117167631D01*
X162742390Y-117206223D01*
X162765857Y-117245806D01*
X162787796Y-117286340D01*
X162787796Y-116775000D01*
X162276427Y-116775000D01*
X161743898Y-116775000D01*
X161690327Y-116776363D01*
X161637442Y-116780408D01*
X161585311Y-116787068D01*
X161533998Y-116796276D01*
X161483572Y-116807967D01*
X161434098Y-116822073D01*
X161385644Y-116838529D01*
X161338274Y-116857267D01*
X161292057Y-116878221D01*
X161247058Y-116901324D01*
X161203345Y-116926511D01*
X161160983Y-116953714D01*
X161120039Y-116982868D01*
X161080579Y-117013905D01*
X161042671Y-117046759D01*
X161006380Y-117081363D01*
X160971774Y-117117652D01*
X160938918Y-117155558D01*
X160907879Y-117195015D01*
X160878724Y-117235957D01*
X160851519Y-117278316D01*
X160826331Y-117322027D01*
X160803226Y-117367024D01*
X160782271Y-117413238D01*
X160763532Y-117460605D01*
X160747075Y-117509057D01*
X160732968Y-117558528D01*
X160721277Y-117608951D01*
X160712068Y-117660260D01*
X160705408Y-117712389D01*
X160701363Y-117765270D01*
X160700000Y-117818838D01*
X160573039Y-117818838D01*
X160573039Y-117286340D01*
X160700000Y-117286340D01*
X160721938Y-117245806D01*
X160745406Y-117206223D01*
X160770361Y-117167631D01*
X160796763Y-117130073D01*
X160824570Y-117093589D01*
X160853741Y-117058221D01*
X160884235Y-117024010D01*
X160916009Y-116990997D01*
X160949024Y-116959224D01*
X160983236Y-116928733D01*
X161018607Y-116899563D01*
X161055093Y-116871758D01*
X161092653Y-116845358D01*
X161131247Y-116820404D01*
X161170832Y-116796938D01*
X161211369Y-116775000D01*
X160700000Y-116775000D01*
X160700000Y-117286340D01*
X160573039Y-117286340D01*
X160573039Y-116648047D01*
X162918283Y-116648047D01*
X162918283Y-118993156D01*
G36*
X162918283Y-118993156D02*
G01*
X160573039Y-118993156D01*
X160573039Y-118862676D01*
X160700000Y-118862676D01*
X161211369Y-118862676D01*
X161170832Y-118840739D01*
X161131247Y-118817273D01*
X161092653Y-118792319D01*
X161055093Y-118765919D01*
X161018607Y-118738113D01*
X160983236Y-118708944D01*
X160949024Y-118678452D01*
X160916009Y-118646680D01*
X160884235Y-118613667D01*
X160853741Y-118579456D01*
X160824570Y-118544088D01*
X160796763Y-118507604D01*
X160770361Y-118470046D01*
X160745406Y-118431454D01*
X160721938Y-118391871D01*
X160700000Y-118351337D01*
X160700000Y-118862676D01*
X160573039Y-118862676D01*
X160573039Y-118351337D01*
X160573039Y-117818838D01*
X160700000Y-117818838D01*
X160701363Y-117872406D01*
X160705408Y-117925288D01*
X160712068Y-117977417D01*
X160721277Y-118028726D01*
X160732968Y-118079149D01*
X160747075Y-118128620D01*
X160763532Y-118177072D01*
X160782271Y-118224439D01*
X160803226Y-118270653D01*
X160826331Y-118315649D01*
X160851519Y-118359360D01*
X160878724Y-118401720D01*
X160907879Y-118442662D01*
X160938918Y-118482119D01*
X160971774Y-118520025D01*
X161006380Y-118556314D01*
X161042671Y-118590918D01*
X161080579Y-118623772D01*
X161120039Y-118654809D01*
X161160983Y-118683962D01*
X161203345Y-118711166D01*
X161247058Y-118736353D01*
X161292057Y-118759456D01*
X161338274Y-118780410D01*
X161385644Y-118799148D01*
X161434098Y-118815604D01*
X161483572Y-118829710D01*
X161533998Y-118841400D01*
X161585311Y-118850609D01*
X161637442Y-118857269D01*
X161690327Y-118861313D01*
X161743898Y-118862676D01*
X162276427Y-118862676D01*
X162787796Y-118862676D01*
X162787796Y-118351337D01*
X162765857Y-118391871D01*
X162742390Y-118431454D01*
X162717434Y-118470046D01*
X162691032Y-118507604D01*
X162663225Y-118544088D01*
X162634054Y-118579456D01*
X162603561Y-118613667D01*
X162571786Y-118646680D01*
X162538772Y-118678452D01*
X162504559Y-118708944D01*
X162469189Y-118738113D01*
X162432703Y-118765919D01*
X162395142Y-118792319D01*
X162356549Y-118817273D01*
X162316963Y-118840739D01*
X162276427Y-118862676D01*
X161743898Y-118862676D01*
X161797469Y-118861313D01*
X161850354Y-118857269D01*
X161902485Y-118850609D01*
X161953798Y-118841400D01*
X162004224Y-118829710D01*
X162053698Y-118815604D01*
X162102152Y-118799148D01*
X162149521Y-118780410D01*
X162195739Y-118759456D01*
X162240737Y-118736353D01*
X162284451Y-118711166D01*
X162326813Y-118683962D01*
X162367757Y-118654809D01*
X162407216Y-118623772D01*
X162445125Y-118590918D01*
X162481415Y-118556314D01*
X162516022Y-118520025D01*
X162548878Y-118482119D01*
X162579916Y-118442662D01*
X162609071Y-118401720D01*
X162636276Y-118359360D01*
X162661465Y-118315649D01*
X162684570Y-118270653D01*
X162705525Y-118224439D01*
X162724264Y-118177072D01*
X162740720Y-118128620D01*
X162754827Y-118079149D01*
X162766518Y-118028726D01*
X162775727Y-117977417D01*
X162782388Y-117925288D01*
X162786433Y-117872406D01*
X162787796Y-117818838D01*
X162786433Y-117765270D01*
X162782388Y-117712389D01*
X162775727Y-117660260D01*
X162766518Y-117608951D01*
X162754827Y-117558528D01*
X162740720Y-117509057D01*
X162724264Y-117460605D01*
X162705525Y-117413238D01*
X162684570Y-117367024D01*
X162661465Y-117322027D01*
X162636276Y-117278316D01*
X162609071Y-117235957D01*
X162579916Y-117195015D01*
X162548878Y-117155558D01*
X162516022Y-117117652D01*
X162481415Y-117081363D01*
X162445125Y-117046759D01*
X162407216Y-117013905D01*
X162367757Y-116982868D01*
X162326813Y-116953714D01*
X162284451Y-116926511D01*
X162240737Y-116901324D01*
X162195739Y-116878221D01*
X162149521Y-116857267D01*
X162102152Y-116838529D01*
X162053698Y-116822073D01*
X162004224Y-116807967D01*
X161953798Y-116796276D01*
X161902485Y-116787068D01*
X161850354Y-116780408D01*
X161797469Y-116776363D01*
X161743898Y-116775000D01*
X162276427Y-116775000D01*
X162316963Y-116796938D01*
X162356549Y-116820404D01*
X162395142Y-116845358D01*
X162432703Y-116871758D01*
X162469189Y-116899563D01*
X162504559Y-116928733D01*
X162538772Y-116959224D01*
X162571786Y-116990997D01*
X162603561Y-117024010D01*
X162634054Y-117058221D01*
X162663225Y-117093589D01*
X162691032Y-117130073D01*
X162717434Y-117167631D01*
X162742390Y-117206223D01*
X162765857Y-117245806D01*
X162787796Y-117286340D01*
X162787796Y-116775000D01*
X162276427Y-116775000D01*
X161743898Y-116775000D01*
X161690327Y-116776363D01*
X161637442Y-116780408D01*
X161585311Y-116787068D01*
X161533998Y-116796276D01*
X161483572Y-116807967D01*
X161434098Y-116822073D01*
X161385644Y-116838529D01*
X161338274Y-116857267D01*
X161292057Y-116878221D01*
X161247058Y-116901324D01*
X161203345Y-116926511D01*
X161160983Y-116953714D01*
X161120039Y-116982868D01*
X161080579Y-117013905D01*
X161042671Y-117046759D01*
X161006380Y-117081363D01*
X160971774Y-117117652D01*
X160938918Y-117155558D01*
X160907879Y-117195015D01*
X160878724Y-117235957D01*
X160851519Y-117278316D01*
X160826331Y-117322027D01*
X160803226Y-117367024D01*
X160782271Y-117413238D01*
X160763532Y-117460605D01*
X160747075Y-117509057D01*
X160732968Y-117558528D01*
X160721277Y-117608951D01*
X160712068Y-117660260D01*
X160705408Y-117712389D01*
X160701363Y-117765270D01*
X160700000Y-117818838D01*
X160573039Y-117818838D01*
X160573039Y-117286340D01*
X160573039Y-116775000D01*
X160700000Y-116775000D01*
X160700000Y-117286340D01*
X160721938Y-117245806D01*
X160745406Y-117206223D01*
X160770361Y-117167631D01*
X160796763Y-117130073D01*
X160824570Y-117093589D01*
X160853741Y-117058221D01*
X160884235Y-117024010D01*
X160916009Y-116990997D01*
X160949024Y-116959224D01*
X160983236Y-116928733D01*
X161018607Y-116899563D01*
X161055093Y-116871758D01*
X161092653Y-116845358D01*
X161131247Y-116820404D01*
X161170832Y-116796938D01*
X161211369Y-116775000D01*
X160700000Y-116775000D01*
X160573039Y-116775000D01*
X160573039Y-116648047D01*
X162918283Y-116648047D01*
X162918283Y-118993156D01*
G37*
D10*
X111879180Y-54767135D02*
X111879180Y-53739067D01*
X107458484Y-53704798D02*
X107458484Y-55795204D01*
X111879180Y-55795204D02*
X111879180Y-54767135D01*
X111605027Y-54732866D02*
X111604987Y-54742024D01*
X111604867Y-54751173D01*
X111604668Y-54760312D01*
X111604389Y-54769441D01*
X111604030Y-54778560D01*
X111603591Y-54787667D01*
X111603074Y-54796764D01*
X111602476Y-54805849D01*
X111601800Y-54814922D01*
X111601044Y-54823982D01*
X111600210Y-54833030D01*
X111599296Y-54842065D01*
X111598303Y-54851087D01*
X111597232Y-54860094D01*
X111596082Y-54869088D01*
X111594853Y-54878066D01*
X111593545Y-54887030D01*
X111592159Y-54895978D01*
X111590695Y-54904910D01*
X111589152Y-54913826D01*
X111587531Y-54922725D01*
X111585832Y-54931607D01*
X111584056Y-54940471D01*
X111582201Y-54949317D01*
X111580268Y-54958144D01*
X111578258Y-54966953D01*
X111576171Y-54975741D01*
X111574006Y-54984510D01*
X111571764Y-54993258D01*
X111569444Y-55001985D01*
X111567048Y-55010690D01*
X111564575Y-55019374D01*
X111562025Y-55028035D01*
X111559399Y-55036673D01*
X111556696Y-55045287D01*
X111553917Y-55053877D01*
X111551063Y-55062442D01*
X111548132Y-55070983D01*
X111545126Y-55079497D01*
X111542044Y-55087986D01*
X111538886Y-55096447D01*
X111535654Y-55104881D01*
X111532347Y-55113287D01*
X111528965Y-55121665D01*
X111525509Y-55130014D01*
X111521979Y-55138332D01*
X111518374Y-55146621D01*
X111514696Y-55154879D01*
X111510944Y-55163105D01*
X111507119Y-55171299D01*
X111503221Y-55179461D01*
X111499250Y-55187590D01*
X111495207Y-55195684D01*
X111491092Y-55203744D01*
X111486905Y-55211770D01*
X111482646Y-55219759D01*
X111478316Y-55227712D01*
X111473915Y-55235629D01*
X111469443Y-55243508D01*
X111464901Y-55251348D01*
X111460290Y-55259151D01*
X111455608Y-55266913D01*
X111450857Y-55274636D01*
X111446038Y-55282318D01*
X111441150Y-55289959D01*
X111436193Y-55297557D01*
X111431169Y-55305114D01*
X111426078Y-55312627D01*
X111420920Y-55320097D01*
X111415695Y-55327522D01*
X111410404Y-55334902D01*
X111405047Y-55342236D01*
X111399625Y-55349525D01*
X111394139Y-55356766D01*
X111388588Y-55363960D01*
X111382973Y-55371105D01*
X111377294Y-55378202D01*
X111371553Y-55385250D01*
X111365749Y-55392248D01*
X111359884Y-55399195D01*
X111353957Y-55406091D01*
X111347968Y-55412935D01*
X111341920Y-55419726D01*
X111335811Y-55426465D01*
X111329643Y-55433150D01*
X111323417Y-55439781D01*
X111317132Y-55446358D01*
X111310789Y-55452879D01*
X111304388Y-55459344D01*
X111301167Y-55462555D01*
X111297932Y-55465752D01*
X111294682Y-55468935D01*
X111291419Y-55472104D01*
X111288141Y-55475258D01*
X111284850Y-55478398D01*
X111281545Y-55481523D01*
X111278227Y-55484634D01*
X111274894Y-55487730D01*
X111271549Y-55490811D01*
X111268190Y-55493878D01*
X111264817Y-55496930D01*
X111261431Y-55499966D01*
X111258032Y-55502988D01*
X111254620Y-55505994D01*
X111251194Y-55508986D01*
X111247756Y-55511962D01*
X111244304Y-55514923D01*
X111240840Y-55517869D01*
X111237363Y-55520799D01*
X111233874Y-55523714D01*
X111230371Y-55526614D01*
X111226857Y-55529497D01*
X111223329Y-55532366D01*
X111219790Y-55535218D01*
X111216237Y-55538055D01*
X111212673Y-55540876D01*
X111209096Y-55543681D01*
X111205508Y-55546470D01*
X111201907Y-55549243D01*
X111198295Y-55552000D01*
X111194670Y-55554741D01*
X111191034Y-55557466D01*
X111187385Y-55560175D01*
X111183726Y-55562867D01*
X111180055Y-55565543D01*
X111176372Y-55568202D01*
X111172678Y-55570846D01*
X111168973Y-55573472D01*
X111165256Y-55576082D01*
X111161528Y-55578676D01*
X111157789Y-55581253D01*
X111154040Y-55583813D01*
X111150278Y-55586356D01*
X111146507Y-55588883D01*
X111142724Y-55591393D01*
X111138931Y-55593885D01*
X111135127Y-55596361D01*
X111131313Y-55598820D01*
X111127488Y-55601262D01*
X111123653Y-55603686D01*
X111119807Y-55606094D01*
X111115952Y-55608484D01*
X111112085Y-55610857D01*
X111108210Y-55613212D01*
X111104323Y-55615551D01*
X111100428Y-55617872D01*
X111096522Y-55620175D01*
X111092607Y-55622461D01*
X111088681Y-55624730D01*
X111084747Y-55626981D01*
X111080802Y-55629214D01*
X111076849Y-55631430D01*
X111072885Y-55633628D01*
X111068914Y-55635808D01*
X111064931Y-55637971D01*
X111060941Y-55640115D01*
X111056941Y-55642242D01*
X111052933Y-55644351D01*
X111048914Y-55646442D01*
X111044889Y-55648515D01*
X111040853Y-55650570D01*
X111036809Y-55652607D01*
X111032756Y-55654626D01*
X111028696Y-55656627D01*
X111024626Y-55658610D01*
X111020549Y-55660574D01*
X111016462Y-55662521D01*
X111012368Y-55664448D01*
X111008265Y-55666358D01*
X111004155Y-55668249D01*
X111000036Y-55670123D01*
X110995910Y-55671977D01*
X110991775Y-55673814D01*
X110987633Y-55675631D01*
X110983483Y-55677431D01*
X110979326Y-55679211D01*
X110975160Y-55680974D01*
X110970989Y-55682717D01*
X110966808Y-55684442D01*
X110962622Y-55686148D01*
X110958426Y-55687837D01*
X110954226Y-55689505D01*
X110950016Y-55691156D01*
X110945801Y-55692787D01*
X110941577Y-55694401D01*
X110937349Y-55695994D01*
X110933111Y-55697570D01*
X110928869Y-55699126D01*
X110924618Y-55700664D01*
X110920362Y-55702182D01*
X110916098Y-55703682D01*
X110911830Y-55705163D01*
X110907553Y-55706625D01*
X110903271Y-55708067D01*
X110898982Y-55709492D01*
X110894688Y-55710896D01*
X110890386Y-55712282D01*
X110886080Y-55713649D01*
X110881766Y-55714996D01*
X110877448Y-55716325D01*
X110873122Y-55717634D01*
X110868792Y-55718924D01*
X110864455Y-55720195D01*
X110860114Y-55721447D01*
X110855765Y-55722680D01*
X110851412Y-55723893D01*
X110847053Y-55725087D01*
X110842690Y-55726262D01*
X110838319Y-55727417D01*
X110833945Y-55728553D01*
X110829564Y-55729670D01*
X110825180Y-55730768D01*
X110820788Y-55731846D01*
X110816394Y-55732905D01*
X110811993Y-55733944D01*
X110807588Y-55734964D01*
X110803177Y-55735965D01*
X110798763Y-55736946D01*
X110794342Y-55737908D01*
X110789919Y-55738850D01*
X110785489Y-55739773D01*
X110781056Y-55740675D01*
X110776617Y-55741559D01*
X110772176Y-55742423D01*
X110767728Y-55743268D01*
X110763277Y-55744093D01*
X110758821Y-55744899D01*
X110754362Y-55745684D01*
X110749897Y-55746451D01*
X110745430Y-55747197D01*
X110740957Y-55747925D01*
X110736482Y-55748632D01*
X110732000Y-55749320D01*
X110727518Y-55749988D01*
X110723028Y-55750637D01*
X110718538Y-55751265D01*
X110714041Y-55751874D01*
X110709544Y-55752464D01*
X110705040Y-55753033D01*
X110700535Y-55753583D01*
X110696024Y-55754113D01*
X110691512Y-55754624D01*
X110686994Y-55755115D01*
X110682475Y-55755585D01*
X110677950Y-55756037D01*
X110673425Y-55756468D01*
X110668893Y-55756879D01*
X110664362Y-55757271D01*
X110659824Y-55757643D01*
X110655286Y-55757995D01*
X110650742Y-55758327D01*
X110646198Y-55758639D01*
X110641649Y-55758932D01*
X110637099Y-55759204D01*
X110632544Y-55759457D01*
X110627988Y-55759690D01*
X110623427Y-55759903D01*
X110618866Y-55760095D01*
X110614300Y-55760268D01*
X110609734Y-55760421D01*
X110605162Y-55760555D01*
X110600591Y-55760668D01*
X110596014Y-55760761D01*
X110591438Y-55760834D01*
X110586856Y-55760887D01*
X110582275Y-55760921D01*
X110577689Y-55760934D01*
X110576959Y-55760934D01*
D12*
X162438565Y-113359687D02*
X162445665Y-113359935D01*
X162460805Y-113360927D01*
X162478094Y-113362580D01*
X162498607Y-113364894D01*
X162520291Y-113367940D01*
X162541693Y-113371777D01*
X162562798Y-113376391D01*
X162583592Y-113381769D01*
X162604060Y-113387896D01*
X162624188Y-113394758D01*
X162643962Y-113402340D01*
X162663369Y-113410628D01*
X162682393Y-113419609D01*
X162701021Y-113429268D01*
X162737030Y-113450563D01*
X162771282Y-113474399D01*
X162803665Y-113500664D01*
X162834064Y-113529242D01*
X162862365Y-113560022D01*
X162888455Y-113592888D01*
X162912221Y-113627727D01*
X162933548Y-113664426D01*
X162952323Y-113702872D01*
X162968432Y-113742949D01*
X162975452Y-113763565D01*
X162981762Y-113784545D01*
X162986419Y-113799588D01*
X162988303Y-113806676D01*
X162989918Y-113813639D01*
X162991285Y-113820602D01*
X162992425Y-113827690D01*
X162993359Y-113835025D01*
X162994106Y-113842732D01*
X162995125Y-113859759D01*
X162995649Y-113879760D01*
X162995869Y-113932658D01*
X162995690Y-113962460D01*
X162995451Y-113975159D01*
X162995098Y-113986602D01*
X162994621Y-113996950D01*
X162994010Y-114006362D01*
X162993254Y-114015000D01*
X162992343Y-114023024D01*
X162991267Y-114030592D01*
X162990015Y-114037867D01*
X162988577Y-114045007D01*
X162986943Y-114052172D01*
X162983044Y-114067222D01*
X162978236Y-114084296D01*
X162971564Y-114105445D01*
X162964695Y-114125374D01*
X162957516Y-114144271D01*
X162949913Y-114162320D01*
X162941773Y-114179708D01*
X162932982Y-114196620D01*
X162923427Y-114213244D01*
X162912993Y-114229764D01*
X162901567Y-114246366D01*
X162889036Y-114263238D01*
X162875286Y-114280563D01*
X162860203Y-114298530D01*
X162843673Y-114317323D01*
X162825584Y-114337128D01*
X162784269Y-114380521D01*
X162752254Y-114415124D01*
X162726520Y-114443116D01*
X162703156Y-114468683D01*
X162707175Y-114472302D01*
X162712496Y-114476479D01*
X162718933Y-114481111D01*
X162726299Y-114486095D01*
X162743079Y-114496702D01*
X162761346Y-114507474D01*
X162779613Y-114517585D01*
X162796392Y-114526208D01*
X162803759Y-114529704D01*
X162810196Y-114532517D01*
X162815517Y-114534546D01*
X162819536Y-114535686D01*
X162825103Y-114536925D01*
X162831177Y-114538000D01*
X162837684Y-114538909D01*
X162844553Y-114539653D01*
X162851712Y-114540232D01*
X162859087Y-114540645D01*
X162866607Y-114540893D01*
X162874199Y-114540975D01*
X162881792Y-114540893D01*
X162889312Y-114540645D01*
X162896687Y-114540232D01*
X162903846Y-114539653D01*
X162910715Y-114538909D01*
X162917222Y-114538000D01*
X162923295Y-114536925D01*
X162928863Y-114535686D01*
X162933081Y-114534387D01*
X162938967Y-114531911D01*
X162946290Y-114528402D01*
X162954817Y-114524004D01*
X162974551Y-114513122D01*
X162996311Y-114500421D01*
X163018235Y-114487059D01*
X163038465Y-114474193D01*
X163055141Y-114462980D01*
X163061565Y-114458355D01*
X163066403Y-114454577D01*
X163067187Y-114453968D01*
X163068208Y-114452187D01*
X163070922Y-114445375D01*
X163074462Y-114434678D01*
X163078747Y-114420634D01*
X163101670Y-114341729D01*
X163114675Y-114298089D01*
X163126357Y-114259739D01*
X163135394Y-114230645D01*
X163140464Y-114214776D01*
X163142570Y-114210933D01*
X163144914Y-114207337D01*
X163147485Y-114203990D01*
X163150273Y-114200891D01*
X163153267Y-114198039D01*
X163156458Y-114195436D01*
X163159835Y-114193080D01*
X163163387Y-114190972D01*
X163167105Y-114189113D01*
X163170978Y-114187501D01*
X163174995Y-114186137D01*
X163179147Y-114185021D01*
X163183423Y-114184154D01*
X163187812Y-114183534D01*
X163192305Y-114183162D01*
X163194805Y-114183094D01*
X163195707Y-114183129D01*
X163198104Y-114183400D01*
X163200547Y-114183843D01*
X163203027Y-114184450D01*
X163205535Y-114185214D01*
X163208063Y-114186129D01*
X163210602Y-114187188D01*
X163213145Y-114188383D01*
X163215683Y-114189706D01*
X163218207Y-114191152D01*
X163223181Y-114194382D01*
X163228000Y-114198014D01*
X163232597Y-114201993D01*
X163236905Y-114206260D01*
X163240856Y-114210761D01*
X163242677Y-114213080D01*
X163244383Y-114215436D01*
X163245967Y-114217822D01*
X163247420Y-114220231D01*
X163248734Y-114222655D01*
X163249899Y-114225088D01*
X163250908Y-114227522D01*
X163251753Y-114229950D01*
X163252424Y-114232365D01*
X163252914Y-114234760D01*
X163253215Y-114237128D01*
X163253316Y-114239461D01*
X163235904Y-114312911D01*
X163188073Y-114499098D01*
X163027609Y-115099922D01*
X162801901Y-115946278D01*
X160685892Y-115946278D01*
X160675312Y-115911013D01*
X160416983Y-114954455D01*
X160334414Y-114641480D01*
X160467239Y-114641480D01*
X160469278Y-114653478D01*
X160477599Y-114687875D01*
X160510441Y-114814278D01*
X160622413Y-115230402D01*
X160781113Y-115819324D01*
X162703155Y-115819324D01*
X162861856Y-115233929D01*
X162865383Y-115230402D01*
X162927376Y-115003495D01*
X162977796Y-114816922D01*
X163011686Y-114689859D01*
X163024084Y-114641480D01*
X163024033Y-114641170D01*
X163023882Y-114640900D01*
X163023634Y-114640671D01*
X163023292Y-114640481D01*
X163022341Y-114640217D01*
X163021053Y-114640102D01*
X163019456Y-114640132D01*
X163017575Y-114640302D01*
X163015435Y-114640606D01*
X163013063Y-114641039D01*
X163010484Y-114641596D01*
X163007725Y-114642272D01*
X163001767Y-114643959D01*
X162995395Y-114646060D01*
X162992119Y-114647253D01*
X162988817Y-114648533D01*
X162983600Y-114651016D01*
X162978485Y-114653189D01*
X162973412Y-114655073D01*
X162968318Y-114656688D01*
X162963142Y-114658055D01*
X162957821Y-114659195D01*
X162952293Y-114660128D01*
X162946497Y-114660875D01*
X162940370Y-114661457D01*
X162933851Y-114661895D01*
X162919386Y-114662418D01*
X162902607Y-114662611D01*
X162883017Y-114662639D01*
X162867120Y-114663088D01*
X162852386Y-114663093D01*
X162838654Y-114662623D01*
X162825764Y-114661647D01*
X162813555Y-114660133D01*
X162801869Y-114658052D01*
X162790544Y-114655370D01*
X162779421Y-114652059D01*
X162768339Y-114648087D01*
X162757138Y-114643422D01*
X162745658Y-114638034D01*
X162733739Y-114631892D01*
X162721221Y-114624965D01*
X162707943Y-114617221D01*
X162678469Y-114599162D01*
X162666629Y-114591420D01*
X162655160Y-114584174D01*
X162644435Y-114577590D01*
X162634827Y-114571832D01*
X162626705Y-114567066D01*
X162620444Y-114563456D01*
X162614989Y-114560371D01*
X162512274Y-114661316D01*
X162269374Y-114902439D01*
X162185333Y-114986159D01*
X162112822Y-115057770D01*
X162051471Y-115117727D01*
X162000905Y-115166485D01*
X161960755Y-115204498D01*
X161930647Y-115232220D01*
X161910210Y-115250108D01*
X161903502Y-115255505D01*
X161899072Y-115258614D01*
X161891481Y-115261754D01*
X161883306Y-115264558D01*
X161874624Y-115267021D01*
X161865514Y-115269138D01*
X161856052Y-115270904D01*
X161846317Y-115272313D01*
X161836385Y-115273361D01*
X161826335Y-115274042D01*
X161816243Y-115274351D01*
X161806187Y-115274283D01*
X161796245Y-115273833D01*
X161786494Y-115272995D01*
X161777012Y-115271765D01*
X161767876Y-115270137D01*
X161759163Y-115268106D01*
X161750952Y-115265667D01*
X161746440Y-115264299D01*
X161742135Y-115262822D01*
X161737995Y-115261211D01*
X161733980Y-115259440D01*
X161730047Y-115257483D01*
X161726155Y-115255315D01*
X161722263Y-115252908D01*
X161718330Y-115250239D01*
X161714314Y-115247279D01*
X161710175Y-115244005D01*
X161705869Y-115240390D01*
X161701358Y-115236408D01*
X161696598Y-115232034D01*
X161691549Y-115227241D01*
X161680418Y-115216296D01*
X161641625Y-115177505D01*
X161602831Y-115212770D01*
X161599368Y-115216733D01*
X161595620Y-115220677D01*
X161591634Y-115224578D01*
X161587457Y-115228418D01*
X161583136Y-115232176D01*
X161578716Y-115235829D01*
X161574245Y-115239359D01*
X161569769Y-115242745D01*
X161565334Y-115245965D01*
X161560986Y-115248999D01*
X161552741Y-115254426D01*
X161545406Y-115258862D01*
X161542195Y-115260656D01*
X161539351Y-115262140D01*
X161533042Y-115264700D01*
X161526071Y-115267079D01*
X161518522Y-115269261D01*
X161510476Y-115271232D01*
X161502018Y-115272976D01*
X161493229Y-115274476D01*
X161484191Y-115275719D01*
X161474989Y-115276687D01*
X161465704Y-115277366D01*
X161456419Y-115277741D01*
X161447216Y-115277795D01*
X161438179Y-115277514D01*
X161429390Y-115276881D01*
X161420932Y-115275881D01*
X161412886Y-115274499D01*
X161405337Y-115272720D01*
X161401691Y-115271987D01*
X161398028Y-115271113D01*
X161390672Y-115268959D01*
X161383307Y-115266288D01*
X161375967Y-115263132D01*
X161368688Y-115259521D01*
X161361509Y-115255487D01*
X161354463Y-115251060D01*
X161347588Y-115246271D01*
X161340919Y-115241152D01*
X161334494Y-115235733D01*
X161328347Y-115230046D01*
X161322515Y-115224120D01*
X161317035Y-115217989D01*
X161311942Y-115211681D01*
X161307273Y-115205229D01*
X161303063Y-115198664D01*
X161281903Y-115166925D01*
X161264269Y-115177505D01*
X161261578Y-115179367D01*
X161258773Y-115180997D01*
X161255823Y-115182410D01*
X161252698Y-115183621D01*
X161249365Y-115184646D01*
X161245796Y-115185501D01*
X161241957Y-115186201D01*
X161237819Y-115186762D01*
X161233351Y-115187198D01*
X161228520Y-115187526D01*
X161217651Y-115187919D01*
X161204963Y-115188064D01*
X161190209Y-115188084D01*
X161181975Y-115188042D01*
X161174429Y-115187912D01*
X161167512Y-115187689D01*
X161161169Y-115187368D01*
X161155343Y-115186944D01*
X161149976Y-115186411D01*
X161145013Y-115185764D01*
X161140395Y-115184999D01*
X161136067Y-115184109D01*
X161131971Y-115183091D01*
X161128051Y-115181938D01*
X161124249Y-115180646D01*
X161120510Y-115179209D01*
X161116776Y-115177622D01*
X161112990Y-115175880D01*
X161109096Y-115173979D01*
X161101296Y-115169538D01*
X161093768Y-115164818D01*
X161086517Y-115159830D01*
X161079546Y-115154583D01*
X161072859Y-115149088D01*
X161066460Y-115143356D01*
X161054542Y-115131220D01*
X161043823Y-115118257D01*
X161034333Y-115104551D01*
X161026103Y-115090183D01*
X161019165Y-115075237D01*
X161013550Y-115059795D01*
X161009288Y-115043939D01*
X161006410Y-115027754D01*
X161004948Y-115011320D01*
X161004933Y-114994720D01*
X161005477Y-114986385D01*
X161006395Y-114978038D01*
X161007689Y-114969692D01*
X161009365Y-114961357D01*
X161011426Y-114953041D01*
X161013875Y-114944757D01*
X161015156Y-114941456D01*
X161016355Y-114938180D01*
X161017471Y-114934955D01*
X161018504Y-114931808D01*
X161019454Y-114928765D01*
X161020322Y-114925851D01*
X161021810Y-114920513D01*
X161022967Y-114916001D01*
X161023794Y-114912523D01*
X161024455Y-114909492D01*
X161019129Y-114906687D01*
X161013751Y-114903583D01*
X161008353Y-114900210D01*
X161002964Y-114896599D01*
X160997618Y-114892781D01*
X160992343Y-114888788D01*
X160987172Y-114884650D01*
X160982135Y-114880399D01*
X160977263Y-114876065D01*
X160972588Y-114871679D01*
X160968140Y-114867273D01*
X160963950Y-114862877D01*
X160960050Y-114858522D01*
X160956470Y-114854240D01*
X160953241Y-114850061D01*
X160950395Y-114846016D01*
X160945349Y-114838938D01*
X160940779Y-114832206D01*
X160936663Y-114825753D01*
X160932982Y-114819512D01*
X160929713Y-114813416D01*
X160926838Y-114807397D01*
X160924334Y-114801388D01*
X160922181Y-114795323D01*
X160920359Y-114789133D01*
X160918847Y-114782753D01*
X160917625Y-114776114D01*
X160916671Y-114769150D01*
X160915965Y-114761793D01*
X160915486Y-114753976D01*
X160915214Y-114745633D01*
X160915131Y-114736988D01*
X161036937Y-114736988D01*
X161036970Y-114740573D01*
X161037275Y-114744124D01*
X161037841Y-114747634D01*
X161038658Y-114751093D01*
X161039718Y-114754493D01*
X161041011Y-114757826D01*
X161042526Y-114761083D01*
X161044254Y-114764257D01*
X161046186Y-114767338D01*
X161048312Y-114770319D01*
X161050621Y-114773190D01*
X161053105Y-114775944D01*
X161055754Y-114778572D01*
X161058557Y-114781066D01*
X161061506Y-114783417D01*
X161064591Y-114785616D01*
X161067801Y-114787657D01*
X161071128Y-114789529D01*
X161074561Y-114791225D01*
X161078091Y-114792737D01*
X161081708Y-114794055D01*
X161085403Y-114795172D01*
X161089165Y-114796080D01*
X161092986Y-114796768D01*
X161096855Y-114797231D01*
X161100762Y-114797458D01*
X161104699Y-114797442D01*
X161108656Y-114797174D01*
X161112621Y-114796645D01*
X161115914Y-114795255D01*
X161120612Y-114792299D01*
X161134884Y-114781052D01*
X161156760Y-114761621D01*
X161187563Y-114732728D01*
X161281241Y-114641425D01*
X161426496Y-114496894D01*
X161722737Y-114200670D01*
X161765058Y-114242988D01*
X161769601Y-114246951D01*
X161773964Y-114250888D01*
X161778130Y-114254773D01*
X161782085Y-114258581D01*
X161785812Y-114262286D01*
X161789297Y-114265862D01*
X161792523Y-114269282D01*
X161795475Y-114272522D01*
X161798138Y-114275555D01*
X161800497Y-114278356D01*
X161802535Y-114280898D01*
X161804237Y-114283157D01*
X161805588Y-114285105D01*
X161806572Y-114286718D01*
X161807174Y-114287969D01*
X161807327Y-114288450D01*
X161807378Y-114288832D01*
X161800504Y-114296870D01*
X161780818Y-114317430D01*
X161708631Y-114390659D01*
X161472343Y-114627374D01*
X161342021Y-114758350D01*
X161233851Y-114868497D01*
X161191689Y-114912144D01*
X161159405Y-114946245D01*
X161138445Y-114969353D01*
X161132663Y-114976333D01*
X161130255Y-114980022D01*
X161128435Y-114983998D01*
X161126938Y-114987984D01*
X161125757Y-114991970D01*
X161124882Y-114995946D01*
X161124308Y-114999902D01*
X161124025Y-115003826D01*
X161124026Y-115007709D01*
X161124304Y-115011540D01*
X161124850Y-115015309D01*
X161125657Y-115019006D01*
X161126717Y-115022621D01*
X161128023Y-115026142D01*
X161129567Y-115029560D01*
X161131340Y-115032864D01*
X161133335Y-115036045D01*
X161135545Y-115039091D01*
X161137961Y-115041992D01*
X161140577Y-115044739D01*
X161143383Y-115047320D01*
X161146373Y-115049725D01*
X161149538Y-115051945D01*
X161152872Y-115053968D01*
X161156365Y-115055785D01*
X161160011Y-115057384D01*
X161163802Y-115058757D01*
X161167729Y-115059891D01*
X161171786Y-115060778D01*
X161175964Y-115061407D01*
X161180256Y-115061767D01*
X161184653Y-115061848D01*
X161189149Y-115061639D01*
X161193735Y-115061131D01*
X161198435Y-115060156D01*
X161203564Y-115058287D01*
X161209551Y-115055126D01*
X161216824Y-115050276D01*
X161236944Y-115033918D01*
X161267355Y-115006030D01*
X161311487Y-114963430D01*
X161372770Y-114902935D01*
X161560510Y-114715536D01*
X161902598Y-114373468D01*
X161948445Y-114419312D01*
X161994292Y-114465156D01*
X161694524Y-114764907D01*
X161598615Y-114860852D01*
X161559474Y-114900089D01*
X161525684Y-114934068D01*
X161496854Y-114963211D01*
X161472591Y-114987943D01*
X161452502Y-115008687D01*
X161443900Y-115017696D01*
X161436195Y-115025866D01*
X161429336Y-115033252D01*
X161423276Y-115039905D01*
X161417965Y-115045879D01*
X161413354Y-115051227D01*
X161409393Y-115056001D01*
X161406035Y-115060255D01*
X161403230Y-115064041D01*
X161400928Y-115067413D01*
X161399080Y-115070423D01*
X161397639Y-115073124D01*
X161396553Y-115075570D01*
X161395775Y-115077813D01*
X161395256Y-115079906D01*
X161394945Y-115081903D01*
X161394795Y-115083855D01*
X161394756Y-115085817D01*
X161394828Y-115090052D01*
X161395044Y-115094164D01*
X161395401Y-115098150D01*
X161395899Y-115102010D01*
X161396537Y-115105743D01*
X161397313Y-115109349D01*
X161398226Y-115112828D01*
X161399274Y-115116177D01*
X161400457Y-115119398D01*
X161401773Y-115122489D01*
X161403221Y-115125450D01*
X161404799Y-115128279D01*
X161406506Y-115130977D01*
X161408341Y-115133542D01*
X161410303Y-115135974D01*
X161412389Y-115138273D01*
X161414600Y-115140437D01*
X161416934Y-115142467D01*
X161419389Y-115144360D01*
X161421964Y-115146118D01*
X161424658Y-115147739D01*
X161427469Y-115149222D01*
X161430397Y-115150567D01*
X161433439Y-115151773D01*
X161436596Y-115152839D01*
X161439864Y-115153766D01*
X161443244Y-115154552D01*
X161446733Y-115155196D01*
X161450331Y-115155698D01*
X161454036Y-115156058D01*
X161457847Y-115156274D01*
X161461763Y-115156346D01*
X161464669Y-115155963D01*
X161468314Y-115154604D01*
X161479121Y-115147695D01*
X161496789Y-115133100D01*
X161523921Y-115108298D01*
X161563121Y-115070767D01*
X161616992Y-115017987D01*
X161779164Y-114856595D01*
X162078932Y-114556845D01*
X162124779Y-114602689D01*
X162170626Y-114648533D01*
X161959025Y-114860122D01*
X161750951Y-115071711D01*
X161750951Y-115096396D01*
X161751714Y-115100942D01*
X161752678Y-115105319D01*
X161753835Y-115109526D01*
X161755180Y-115113560D01*
X161756706Y-115117419D01*
X161758406Y-115121099D01*
X161760273Y-115124598D01*
X161762302Y-115127914D01*
X161764487Y-115131044D01*
X161766819Y-115133985D01*
X161769294Y-115136736D01*
X161771904Y-115139292D01*
X161774644Y-115141653D01*
X161777506Y-115143814D01*
X161780484Y-115145774D01*
X161783573Y-115147530D01*
X161786764Y-115149079D01*
X161790053Y-115150419D01*
X161793431Y-115151548D01*
X161796894Y-115152462D01*
X161800434Y-115153159D01*
X161804046Y-115153636D01*
X161807721Y-115153891D01*
X161811455Y-115153922D01*
X161815241Y-115153725D01*
X161819072Y-115153298D01*
X161822941Y-115152639D01*
X161826843Y-115151745D01*
X161830771Y-115150614D01*
X161834718Y-115149242D01*
X161838678Y-115147627D01*
X161842644Y-115145767D01*
X161855883Y-115134857D01*
X161886397Y-115106094D01*
X161991647Y-115002944D01*
X162325800Y-114669692D01*
X162544179Y-114450609D01*
X162626401Y-114367434D01*
X162692134Y-114300293D01*
X162742493Y-114248030D01*
X162778593Y-114209486D01*
X162791645Y-114194998D01*
X162801551Y-114183506D01*
X162808450Y-114174866D01*
X162812482Y-114168932D01*
X162825286Y-114145292D01*
X162836600Y-114121351D01*
X162846442Y-114097161D01*
X162854830Y-114072773D01*
X162861781Y-114048238D01*
X162867314Y-114023607D01*
X162871447Y-113998930D01*
X162874199Y-113974259D01*
X162875586Y-113949645D01*
X162875628Y-113925139D01*
X162874342Y-113900792D01*
X162871747Y-113876654D01*
X162867860Y-113852778D01*
X162862699Y-113829213D01*
X162856283Y-113806011D01*
X162848630Y-113783223D01*
X162839758Y-113760900D01*
X162829685Y-113739093D01*
X162818428Y-113717853D01*
X162806007Y-113697231D01*
X162792439Y-113677278D01*
X162777742Y-113658044D01*
X162761934Y-113639582D01*
X162745034Y-113621942D01*
X162727059Y-113605175D01*
X162708028Y-113589331D01*
X162687958Y-113574463D01*
X162666869Y-113560621D01*
X162644776Y-113547856D01*
X162621700Y-113536219D01*
X162597658Y-113525761D01*
X162572668Y-113516533D01*
X162560171Y-113512153D01*
X162546590Y-113508268D01*
X162532078Y-113504879D01*
X162516792Y-113501986D01*
X162500886Y-113499589D01*
X162484514Y-113497688D01*
X162467833Y-113496283D01*
X162450997Y-113495374D01*
X162434161Y-113494961D01*
X162417480Y-113495044D01*
X162401109Y-113495622D01*
X162385203Y-113496697D01*
X162369916Y-113498267D01*
X162355405Y-113500333D01*
X162341823Y-113502896D01*
X162329327Y-113505954D01*
X162296154Y-113514770D01*
X162270682Y-113523806D01*
X162230580Y-113539455D01*
X162080365Y-113601169D01*
X161793271Y-113721069D01*
X161642113Y-113783368D01*
X161581916Y-113808218D01*
X161530919Y-113829343D01*
X161488333Y-113847100D01*
X161453366Y-113861846D01*
X161438494Y-113868201D01*
X161425229Y-113873936D01*
X161413475Y-113879097D01*
X161403132Y-113883728D01*
X161394101Y-113887873D01*
X161386283Y-113891577D01*
X161379579Y-113894885D01*
X161373892Y-113897841D01*
X161369121Y-113900489D01*
X161365169Y-113902875D01*
X161361936Y-113905042D01*
X161359324Y-113907036D01*
X161357233Y-113908900D01*
X161355565Y-113910680D01*
X161354222Y-113912420D01*
X161353104Y-113914164D01*
X161348909Y-113922078D01*
X161347638Y-113924413D01*
X161346471Y-113926784D01*
X161345406Y-113929190D01*
X161344446Y-113931625D01*
X161343588Y-113934085D01*
X161342834Y-113936568D01*
X161342183Y-113939069D01*
X161341635Y-113941584D01*
X161341191Y-113944110D01*
X161340850Y-113946641D01*
X161340612Y-113949176D01*
X161340478Y-113951709D01*
X161340447Y-113954237D01*
X161340519Y-113956756D01*
X161340695Y-113959262D01*
X161340974Y-113961751D01*
X161341356Y-113964220D01*
X161341842Y-113966664D01*
X161342431Y-113969079D01*
X161343123Y-113971463D01*
X161343919Y-113973810D01*
X161344817Y-113976117D01*
X161345820Y-113978380D01*
X161346925Y-113980596D01*
X161348134Y-113982760D01*
X161349446Y-113984868D01*
X161350862Y-113986917D01*
X161352381Y-113988902D01*
X161354003Y-113990821D01*
X161355728Y-113992668D01*
X161357557Y-113994441D01*
X161359489Y-113996134D01*
X161370634Y-114005095D01*
X161376274Y-114008214D01*
X161382523Y-114010295D01*
X161389805Y-114011240D01*
X161398544Y-114010950D01*
X161409164Y-114009327D01*
X161422088Y-114006273D01*
X161437739Y-114001690D01*
X161456542Y-113995480D01*
X161505295Y-113977786D01*
X161659257Y-113918552D01*
X161755029Y-113880807D01*
X161835591Y-113849345D01*
X161867483Y-113837105D01*
X161892349Y-113827800D01*
X161909115Y-113821884D01*
X161914124Y-113820338D01*
X161916705Y-113819810D01*
X161910223Y-113827759D01*
X161886673Y-113852981D01*
X161795475Y-113947645D01*
X161657329Y-114088594D01*
X161486450Y-114260620D01*
X161486450Y-114264147D01*
X161285539Y-114465762D01*
X161208352Y-114543903D01*
X161146125Y-114607538D01*
X161098446Y-114657122D01*
X161064901Y-114693110D01*
X161053300Y-114706147D01*
X161045077Y-114715956D01*
X161040182Y-114722593D01*
X161038965Y-114724740D01*
X161038561Y-114726116D01*
X161037723Y-114729751D01*
X161037184Y-114733378D01*
X161036937Y-114736988D01*
X160915131Y-114736988D01*
X160915128Y-114736695D01*
X160915341Y-114725149D01*
X160916009Y-114714248D01*
X160917174Y-114703895D01*
X160918875Y-114693992D01*
X160921155Y-114684439D01*
X160924055Y-114675140D01*
X160927616Y-114665996D01*
X160931879Y-114656908D01*
X160936887Y-114647780D01*
X160942680Y-114638511D01*
X160949299Y-114629006D01*
X160956786Y-114619164D01*
X160965183Y-114608888D01*
X160974530Y-114598081D01*
X160984869Y-114586643D01*
X160996241Y-114574477D01*
X161013627Y-114555825D01*
X161020511Y-114548225D01*
X161026218Y-114541637D01*
X161028636Y-114538690D01*
X161030768Y-114535958D01*
X161032615Y-114533427D01*
X161034181Y-114531085D01*
X161035467Y-114528918D01*
X161036478Y-114526914D01*
X161037214Y-114525060D01*
X161037680Y-114523343D01*
X161037877Y-114521750D01*
X161037807Y-114520268D01*
X161037474Y-114518884D01*
X161036881Y-114517585D01*
X161036029Y-114516358D01*
X161034921Y-114515191D01*
X161033560Y-114514071D01*
X161031949Y-114512984D01*
X161030090Y-114511918D01*
X161027985Y-114510859D01*
X161025637Y-114509795D01*
X161023050Y-114508714D01*
X161017164Y-114506444D01*
X161010348Y-114503947D01*
X161004615Y-114502143D01*
X160999203Y-114500751D01*
X160993935Y-114499856D01*
X160988637Y-114499539D01*
X160983132Y-114499884D01*
X160977244Y-114500972D01*
X160970799Y-114502887D01*
X160963619Y-114505711D01*
X160955531Y-114509526D01*
X160946358Y-114514417D01*
X160935924Y-114520464D01*
X160924054Y-114527751D01*
X160895304Y-114546375D01*
X160858701Y-114570950D01*
X160815402Y-114599341D01*
X160796631Y-114611166D01*
X160779461Y-114621533D01*
X160763654Y-114630537D01*
X160748974Y-114638270D01*
X160735182Y-114644826D01*
X160722042Y-114650296D01*
X160709314Y-114654775D01*
X160696763Y-114658355D01*
X160684149Y-114661129D01*
X160671236Y-114663190D01*
X160657785Y-114664631D01*
X160643559Y-114665546D01*
X160628321Y-114666026D01*
X160611833Y-114666165D01*
X160592243Y-114665993D01*
X160583533Y-114665770D01*
X160575464Y-114665449D01*
X160567973Y-114665025D01*
X160560999Y-114664492D01*
X160554480Y-114663845D01*
X160548353Y-114663080D01*
X160542556Y-114662190D01*
X160537029Y-114661172D01*
X160531708Y-114660019D01*
X160526531Y-114658727D01*
X160521437Y-114657290D01*
X160516364Y-114655703D01*
X160511250Y-114653961D01*
X160506032Y-114652059D01*
X160502110Y-114650778D01*
X160498290Y-114649580D01*
X160494595Y-114648464D01*
X160491044Y-114647431D01*
X160484459Y-114645613D01*
X160478701Y-114644125D01*
X160473934Y-114642968D01*
X160470325Y-114642141D01*
X160467239Y-114641480D01*
X160334414Y-114641480D01*
X160227424Y-114235935D01*
X160227525Y-114233601D01*
X160227826Y-114231233D01*
X160228316Y-114228838D01*
X160228987Y-114226423D01*
X160229832Y-114223995D01*
X160230841Y-114221561D01*
X160232006Y-114219129D01*
X160233320Y-114216705D01*
X160234773Y-114214296D01*
X160236356Y-114211910D01*
X160239884Y-114207234D01*
X160243835Y-114202734D01*
X160248143Y-114198466D01*
X160252740Y-114194488D01*
X160257559Y-114190855D01*
X160262533Y-114187626D01*
X160267595Y-114184856D01*
X160270138Y-114183661D01*
X160272677Y-114182603D01*
X160275205Y-114181688D01*
X160277713Y-114180923D01*
X160280193Y-114180316D01*
X160282636Y-114179874D01*
X160285033Y-114179603D01*
X160287377Y-114179511D01*
X160290011Y-114179552D01*
X160292622Y-114179674D01*
X160295208Y-114179875D01*
X160297764Y-114180152D01*
X160300290Y-114180504D01*
X160302782Y-114180929D01*
X160305238Y-114181426D01*
X160307656Y-114181991D01*
X160310031Y-114182623D01*
X160312363Y-114183321D01*
X160314649Y-114184082D01*
X160316885Y-114184904D01*
X160319070Y-114185786D01*
X160321201Y-114186725D01*
X160323275Y-114187720D01*
X160325289Y-114188768D01*
X160327241Y-114189868D01*
X160329129Y-114191018D01*
X160330950Y-114192215D01*
X160332700Y-114193459D01*
X160334379Y-114194746D01*
X160335983Y-114196075D01*
X160337509Y-114197444D01*
X160338955Y-114198852D01*
X160340318Y-114200295D01*
X160341596Y-114201773D01*
X160342787Y-114203283D01*
X160343887Y-114204823D01*
X160344894Y-114206392D01*
X160345805Y-114207987D01*
X160346618Y-114209607D01*
X160347331Y-114211250D01*
X160351849Y-114227119D01*
X160359674Y-114256212D01*
X160370144Y-114294563D01*
X160382598Y-114338203D01*
X160389176Y-114360264D01*
X160395547Y-114381127D01*
X160406844Y-114417108D01*
X160417865Y-114451050D01*
X160417946Y-114451422D01*
X160418188Y-114451873D01*
X160419132Y-114453006D01*
X160420654Y-114454429D01*
X160422714Y-114456120D01*
X160428279Y-114460225D01*
X160435498Y-114465156D01*
X160444039Y-114470749D01*
X160453572Y-114476838D01*
X160474291Y-114489842D01*
X160485373Y-114496826D01*
X160496154Y-114503238D01*
X160506667Y-114509081D01*
X160516942Y-114514362D01*
X160527011Y-114519084D01*
X160536904Y-114523253D01*
X160546652Y-114526876D01*
X160556287Y-114529955D01*
X160565839Y-114532498D01*
X160575339Y-114534508D01*
X160584819Y-114535991D01*
X160594309Y-114536953D01*
X160603840Y-114537398D01*
X160613444Y-114537332D01*
X160623151Y-114536759D01*
X160632992Y-114535686D01*
X160648793Y-114533062D01*
X160655945Y-114531602D01*
X160662859Y-114529900D01*
X160669731Y-114527847D01*
X160676759Y-114525334D01*
X160684138Y-114522252D01*
X160692064Y-114518494D01*
X160700734Y-114513951D01*
X160710345Y-114508514D01*
X160721092Y-114502075D01*
X160733172Y-114494525D01*
X160762116Y-114475660D01*
X160798746Y-114451050D01*
X160837333Y-114426014D01*
X160854090Y-114415461D01*
X160869390Y-114406143D01*
X160883409Y-114398002D01*
X160896322Y-114390983D01*
X160908306Y-114385028D01*
X160919535Y-114380080D01*
X160930186Y-114376082D01*
X160935349Y-114374422D01*
X160940433Y-114372979D01*
X160945461Y-114371744D01*
X160950454Y-114370712D01*
X160955434Y-114369874D01*
X160960423Y-114369225D01*
X160970515Y-114368461D01*
X160980908Y-114368364D01*
X160991775Y-114368876D01*
X161003294Y-114369941D01*
X161010451Y-114370688D01*
X161017407Y-114371622D01*
X161024208Y-114372762D01*
X161030901Y-114374129D01*
X161037532Y-114375744D01*
X161044147Y-114377628D01*
X161050793Y-114379801D01*
X161057516Y-114382284D01*
X161064364Y-114385097D01*
X161071382Y-114388262D01*
X161078617Y-114391799D01*
X161086116Y-114395729D01*
X161093924Y-114400071D01*
X161102089Y-114404848D01*
X161110657Y-114410079D01*
X161119674Y-114415785D01*
X161122231Y-114416953D01*
X161124758Y-114417686D01*
X161127470Y-114417800D01*
X161130585Y-114417108D01*
X161134320Y-114415424D01*
X161138892Y-114412562D01*
X161144518Y-114408336D01*
X161151414Y-114402561D01*
X161169888Y-114385617D01*
X161196049Y-114360243D01*
X161278375Y-114278253D01*
X161422969Y-114130140D01*
X161384175Y-114130140D01*
X161375332Y-114129294D01*
X161366660Y-114128084D01*
X161358165Y-114126515D01*
X161349852Y-114124596D01*
X161341728Y-114122333D01*
X161333799Y-114119734D01*
X161326070Y-114116806D01*
X161318546Y-114113555D01*
X161311235Y-114109989D01*
X161304141Y-114106115D01*
X161297270Y-114101941D01*
X161290629Y-114097472D01*
X161284223Y-114092717D01*
X161278057Y-114087682D01*
X161272139Y-114082375D01*
X161266473Y-114076802D01*
X161261065Y-114070972D01*
X161255921Y-114064889D01*
X161251047Y-114058563D01*
X161246449Y-114052000D01*
X161242132Y-114045207D01*
X161238103Y-114038191D01*
X161234367Y-114030960D01*
X161230930Y-114023520D01*
X161227798Y-114015878D01*
X161224976Y-114008042D01*
X161222471Y-114000019D01*
X161220288Y-113991816D01*
X161218433Y-113983439D01*
X161216912Y-113974897D01*
X161215731Y-113966196D01*
X161214895Y-113957343D01*
X161214603Y-113944867D01*
X161215040Y-113932582D01*
X161216189Y-113920514D01*
X161218036Y-113908689D01*
X161220565Y-113897132D01*
X161223760Y-113885870D01*
X161227606Y-113874928D01*
X161232087Y-113864332D01*
X161237189Y-113854108D01*
X161242895Y-113844282D01*
X161249190Y-113834880D01*
X161256058Y-113825926D01*
X161263484Y-113817449D01*
X161271453Y-113809472D01*
X161279948Y-113802022D01*
X161288955Y-113795125D01*
X161338343Y-113772044D01*
X161449309Y-113724210D01*
X161775637Y-113587503D01*
X162107255Y-113451458D01*
X162283479Y-113382527D01*
X162292172Y-113379744D01*
X162302105Y-113376796D01*
X162312864Y-113373848D01*
X162324036Y-113371066D01*
X162335208Y-113368614D01*
X162345968Y-113366658D01*
X162351063Y-113365917D01*
X162355900Y-113365363D01*
X162360427Y-113365015D01*
X162364593Y-113364894D01*
X162385106Y-113362580D01*
X162402395Y-113360927D01*
X162417534Y-113359935D01*
X162424634Y-113359687D01*
X162431600Y-113359605D01*
X162438565Y-113359687D01*
G36*
X162438565Y-113359687D02*
G01*
X162445665Y-113359935D01*
X162460805Y-113360927D01*
X162478094Y-113362580D01*
X162498607Y-113364894D01*
X162520291Y-113367940D01*
X162541693Y-113371777D01*
X162562798Y-113376391D01*
X162583592Y-113381769D01*
X162604060Y-113387896D01*
X162624188Y-113394758D01*
X162643962Y-113402340D01*
X162663369Y-113410628D01*
X162682393Y-113419609D01*
X162701021Y-113429268D01*
X162737030Y-113450563D01*
X162771282Y-113474399D01*
X162803665Y-113500664D01*
X162834064Y-113529242D01*
X162862365Y-113560022D01*
X162888455Y-113592888D01*
X162912221Y-113627727D01*
X162933548Y-113664426D01*
X162952323Y-113702872D01*
X162968432Y-113742949D01*
X162975452Y-113763565D01*
X162981762Y-113784545D01*
X162986419Y-113799588D01*
X162988303Y-113806676D01*
X162989918Y-113813639D01*
X162991285Y-113820602D01*
X162992425Y-113827690D01*
X162993359Y-113835025D01*
X162994106Y-113842732D01*
X162995125Y-113859759D01*
X162995649Y-113879760D01*
X162995869Y-113932658D01*
X162995690Y-113962460D01*
X162995451Y-113975159D01*
X162995098Y-113986602D01*
X162994621Y-113996950D01*
X162994010Y-114006362D01*
X162993254Y-114015000D01*
X162992343Y-114023024D01*
X162991267Y-114030592D01*
X162990015Y-114037867D01*
X162988577Y-114045007D01*
X162986943Y-114052172D01*
X162983044Y-114067222D01*
X162978236Y-114084296D01*
X162971564Y-114105445D01*
X162964695Y-114125374D01*
X162957516Y-114144271D01*
X162949913Y-114162320D01*
X162941773Y-114179708D01*
X162932982Y-114196620D01*
X162923427Y-114213244D01*
X162912993Y-114229764D01*
X162901567Y-114246366D01*
X162889036Y-114263238D01*
X162875286Y-114280563D01*
X162860203Y-114298530D01*
X162843673Y-114317323D01*
X162825584Y-114337128D01*
X162784269Y-114380521D01*
X162752254Y-114415124D01*
X162726520Y-114443116D01*
X162703156Y-114468683D01*
X162707175Y-114472302D01*
X162712496Y-114476479D01*
X162718933Y-114481111D01*
X162726299Y-114486095D01*
X162743079Y-114496702D01*
X162761346Y-114507474D01*
X162779613Y-114517585D01*
X162796392Y-114526208D01*
X162803759Y-114529704D01*
X162810196Y-114532517D01*
X162815517Y-114534546D01*
X162819536Y-114535686D01*
X162825103Y-114536925D01*
X162831177Y-114538000D01*
X162837684Y-114538909D01*
X162844553Y-114539653D01*
X162851712Y-114540232D01*
X162859087Y-114540645D01*
X162866607Y-114540893D01*
X162874199Y-114540975D01*
X162881792Y-114540893D01*
X162889312Y-114540645D01*
X162896687Y-114540232D01*
X162903846Y-114539653D01*
X162910715Y-114538909D01*
X162917222Y-114538000D01*
X162923295Y-114536925D01*
X162928863Y-114535686D01*
X162933081Y-114534387D01*
X162938967Y-114531911D01*
X162946290Y-114528402D01*
X162954817Y-114524004D01*
X162974551Y-114513122D01*
X162996311Y-114500421D01*
X163018235Y-114487059D01*
X163038465Y-114474193D01*
X163055141Y-114462980D01*
X163061565Y-114458355D01*
X163066403Y-114454577D01*
X163067187Y-114453968D01*
X163068208Y-114452187D01*
X163070922Y-114445375D01*
X163074462Y-114434678D01*
X163078747Y-114420634D01*
X163101670Y-114341729D01*
X163114675Y-114298089D01*
X163126357Y-114259739D01*
X163135394Y-114230645D01*
X163140464Y-114214776D01*
X163142570Y-114210933D01*
X163144914Y-114207337D01*
X163147485Y-114203990D01*
X163150273Y-114200891D01*
X163153267Y-114198039D01*
X163156458Y-114195436D01*
X163159835Y-114193080D01*
X163163387Y-114190972D01*
X163167105Y-114189113D01*
X163170978Y-114187501D01*
X163174995Y-114186137D01*
X163179147Y-114185021D01*
X163183423Y-114184154D01*
X163187812Y-114183534D01*
X163192305Y-114183162D01*
X163194805Y-114183094D01*
X163195707Y-114183129D01*
X163198104Y-114183400D01*
X163200547Y-114183843D01*
X163203027Y-114184450D01*
X163205535Y-114185214D01*
X163208063Y-114186129D01*
X163210602Y-114187188D01*
X163213145Y-114188383D01*
X163215683Y-114189706D01*
X163218207Y-114191152D01*
X163223181Y-114194382D01*
X163228000Y-114198014D01*
X163232597Y-114201993D01*
X163236905Y-114206260D01*
X163240856Y-114210761D01*
X163242677Y-114213080D01*
X163244383Y-114215436D01*
X163245967Y-114217822D01*
X163247420Y-114220231D01*
X163248734Y-114222655D01*
X163249899Y-114225088D01*
X163250908Y-114227522D01*
X163251753Y-114229950D01*
X163252424Y-114232365D01*
X163252914Y-114234760D01*
X163253215Y-114237128D01*
X163253316Y-114239461D01*
X163235904Y-114312911D01*
X163188073Y-114499098D01*
X163027609Y-115099922D01*
X162801901Y-115946278D01*
X160685892Y-115946278D01*
X160675312Y-115911013D01*
X160416983Y-114954455D01*
X160334414Y-114641480D01*
X160467239Y-114641480D01*
X160469278Y-114653478D01*
X160477599Y-114687875D01*
X160510441Y-114814278D01*
X160622413Y-115230402D01*
X160781113Y-115819324D01*
X162703155Y-115819324D01*
X162861856Y-115233929D01*
X162865383Y-115230402D01*
X162927376Y-115003495D01*
X162977796Y-114816922D01*
X163011686Y-114689859D01*
X163024084Y-114641480D01*
X163024033Y-114641170D01*
X163023882Y-114640900D01*
X163023634Y-114640671D01*
X163023292Y-114640481D01*
X163022341Y-114640217D01*
X163021053Y-114640102D01*
X163019456Y-114640132D01*
X163017575Y-114640302D01*
X163015435Y-114640606D01*
X163013063Y-114641039D01*
X163010484Y-114641596D01*
X163007725Y-114642272D01*
X163001767Y-114643959D01*
X162995395Y-114646060D01*
X162992119Y-114647253D01*
X162988817Y-114648533D01*
X162983600Y-114651016D01*
X162978485Y-114653189D01*
X162973412Y-114655073D01*
X162968318Y-114656688D01*
X162963142Y-114658055D01*
X162957821Y-114659195D01*
X162952293Y-114660128D01*
X162946497Y-114660875D01*
X162940370Y-114661457D01*
X162933851Y-114661895D01*
X162919386Y-114662418D01*
X162902607Y-114662611D01*
X162883017Y-114662639D01*
X162867120Y-114663088D01*
X162852386Y-114663093D01*
X162838654Y-114662623D01*
X162825764Y-114661647D01*
X162813555Y-114660133D01*
X162801869Y-114658052D01*
X162790544Y-114655370D01*
X162779421Y-114652059D01*
X162768339Y-114648087D01*
X162757138Y-114643422D01*
X162745658Y-114638034D01*
X162733739Y-114631892D01*
X162721221Y-114624965D01*
X162707943Y-114617221D01*
X162678469Y-114599162D01*
X162666629Y-114591420D01*
X162655160Y-114584174D01*
X162644435Y-114577590D01*
X162634827Y-114571832D01*
X162626705Y-114567066D01*
X162620444Y-114563456D01*
X162614989Y-114560371D01*
X162512274Y-114661316D01*
X162269374Y-114902439D01*
X162185333Y-114986159D01*
X162112822Y-115057770D01*
X162051471Y-115117727D01*
X162000905Y-115166485D01*
X161960755Y-115204498D01*
X161930647Y-115232220D01*
X161910210Y-115250108D01*
X161903502Y-115255505D01*
X161899072Y-115258614D01*
X161891481Y-115261754D01*
X161883306Y-115264558D01*
X161874624Y-115267021D01*
X161865514Y-115269138D01*
X161856052Y-115270904D01*
X161846317Y-115272313D01*
X161836385Y-115273361D01*
X161826335Y-115274042D01*
X161816243Y-115274351D01*
X161806187Y-115274283D01*
X161796245Y-115273833D01*
X161786494Y-115272995D01*
X161777012Y-115271765D01*
X161767876Y-115270137D01*
X161759163Y-115268106D01*
X161750952Y-115265667D01*
X161746440Y-115264299D01*
X161742135Y-115262822D01*
X161737995Y-115261211D01*
X161733980Y-115259440D01*
X161730047Y-115257483D01*
X161726155Y-115255315D01*
X161722263Y-115252908D01*
X161718330Y-115250239D01*
X161714314Y-115247279D01*
X161710175Y-115244005D01*
X161705869Y-115240390D01*
X161701358Y-115236408D01*
X161696598Y-115232034D01*
X161691549Y-115227241D01*
X161680418Y-115216296D01*
X161641625Y-115177505D01*
X161602831Y-115212770D01*
X161599368Y-115216733D01*
X161595620Y-115220677D01*
X161591634Y-115224578D01*
X161587457Y-115228418D01*
X161583136Y-115232176D01*
X161578716Y-115235829D01*
X161574245Y-115239359D01*
X161569769Y-115242745D01*
X161565334Y-115245965D01*
X161560986Y-115248999D01*
X161552741Y-115254426D01*
X161545406Y-115258862D01*
X161542195Y-115260656D01*
X161539351Y-115262140D01*
X161533042Y-115264700D01*
X161526071Y-115267079D01*
X161518522Y-115269261D01*
X161510476Y-115271232D01*
X161502018Y-115272976D01*
X161493229Y-115274476D01*
X161484191Y-115275719D01*
X161474989Y-115276687D01*
X161465704Y-115277366D01*
X161456419Y-115277741D01*
X161447216Y-115277795D01*
X161438179Y-115277514D01*
X161429390Y-115276881D01*
X161420932Y-115275881D01*
X161412886Y-115274499D01*
X161405337Y-115272720D01*
X161401691Y-115271987D01*
X161398028Y-115271113D01*
X161390672Y-115268959D01*
X161383307Y-115266288D01*
X161375967Y-115263132D01*
X161368688Y-115259521D01*
X161361509Y-115255487D01*
X161354463Y-115251060D01*
X161347588Y-115246271D01*
X161340919Y-115241152D01*
X161334494Y-115235733D01*
X161328347Y-115230046D01*
X161322515Y-115224120D01*
X161317035Y-115217989D01*
X161311942Y-115211681D01*
X161307273Y-115205229D01*
X161303063Y-115198664D01*
X161281903Y-115166925D01*
X161264269Y-115177505D01*
X161261578Y-115179367D01*
X161258773Y-115180997D01*
X161255823Y-115182410D01*
X161252698Y-115183621D01*
X161249365Y-115184646D01*
X161245796Y-115185501D01*
X161241957Y-115186201D01*
X161237819Y-115186762D01*
X161233351Y-115187198D01*
X161228520Y-115187526D01*
X161217651Y-115187919D01*
X161204963Y-115188064D01*
X161190209Y-115188084D01*
X161181975Y-115188042D01*
X161174429Y-115187912D01*
X161167512Y-115187689D01*
X161161169Y-115187368D01*
X161155343Y-115186944D01*
X161149976Y-115186411D01*
X161145013Y-115185764D01*
X161140395Y-115184999D01*
X161136067Y-115184109D01*
X161131971Y-115183091D01*
X161128051Y-115181938D01*
X161124249Y-115180646D01*
X161120510Y-115179209D01*
X161116776Y-115177622D01*
X161112990Y-115175880D01*
X161109096Y-115173979D01*
X161101296Y-115169538D01*
X161093768Y-115164818D01*
X161086517Y-115159830D01*
X161079546Y-115154583D01*
X161072859Y-115149088D01*
X161066460Y-115143356D01*
X161054542Y-115131220D01*
X161043823Y-115118257D01*
X161034333Y-115104551D01*
X161026103Y-115090183D01*
X161019165Y-115075237D01*
X161013550Y-115059795D01*
X161009288Y-115043939D01*
X161006410Y-115027754D01*
X161004948Y-115011320D01*
X161004933Y-114994720D01*
X161005477Y-114986385D01*
X161006395Y-114978038D01*
X161007689Y-114969692D01*
X161009365Y-114961357D01*
X161011426Y-114953041D01*
X161013875Y-114944757D01*
X161015156Y-114941456D01*
X161016355Y-114938180D01*
X161017471Y-114934955D01*
X161018504Y-114931808D01*
X161019454Y-114928765D01*
X161020322Y-114925851D01*
X161021810Y-114920513D01*
X161022967Y-114916001D01*
X161023794Y-114912523D01*
X161024455Y-114909492D01*
X161019129Y-114906687D01*
X161013751Y-114903583D01*
X161008353Y-114900210D01*
X161002964Y-114896599D01*
X160997618Y-114892781D01*
X160992343Y-114888788D01*
X160987172Y-114884650D01*
X160982135Y-114880399D01*
X160977263Y-114876065D01*
X160972588Y-114871679D01*
X160968140Y-114867273D01*
X160963950Y-114862877D01*
X160960050Y-114858522D01*
X160956470Y-114854240D01*
X160953241Y-114850061D01*
X160950395Y-114846016D01*
X160945349Y-114838938D01*
X160940779Y-114832206D01*
X160936663Y-114825753D01*
X160932982Y-114819512D01*
X160929713Y-114813416D01*
X160926838Y-114807397D01*
X160924334Y-114801388D01*
X160922181Y-114795323D01*
X160920359Y-114789133D01*
X160918847Y-114782753D01*
X160917625Y-114776114D01*
X160916671Y-114769150D01*
X160915965Y-114761793D01*
X160915486Y-114753976D01*
X160915214Y-114745633D01*
X160915131Y-114736988D01*
X161036937Y-114736988D01*
X161036970Y-114740573D01*
X161037275Y-114744124D01*
X161037841Y-114747634D01*
X161038658Y-114751093D01*
X161039718Y-114754493D01*
X161041011Y-114757826D01*
X161042526Y-114761083D01*
X161044254Y-114764257D01*
X161046186Y-114767338D01*
X161048312Y-114770319D01*
X161050621Y-114773190D01*
X161053105Y-114775944D01*
X161055754Y-114778572D01*
X161058557Y-114781066D01*
X161061506Y-114783417D01*
X161064591Y-114785616D01*
X161067801Y-114787657D01*
X161071128Y-114789529D01*
X161074561Y-114791225D01*
X161078091Y-114792737D01*
X161081708Y-114794055D01*
X161085403Y-114795172D01*
X161089165Y-114796080D01*
X161092986Y-114796768D01*
X161096855Y-114797231D01*
X161100762Y-114797458D01*
X161104699Y-114797442D01*
X161108656Y-114797174D01*
X161112621Y-114796645D01*
X161115914Y-114795255D01*
X161120612Y-114792299D01*
X161134884Y-114781052D01*
X161156760Y-114761621D01*
X161187563Y-114732728D01*
X161281241Y-114641425D01*
X161426496Y-114496894D01*
X161722737Y-114200670D01*
X161765058Y-114242988D01*
X161769601Y-114246951D01*
X161773964Y-114250888D01*
X161778130Y-114254773D01*
X161782085Y-114258581D01*
X161785812Y-114262286D01*
X161789297Y-114265862D01*
X161792523Y-114269282D01*
X161795475Y-114272522D01*
X161798138Y-114275555D01*
X161800497Y-114278356D01*
X161802535Y-114280898D01*
X161804237Y-114283157D01*
X161805588Y-114285105D01*
X161806572Y-114286718D01*
X161807174Y-114287969D01*
X161807327Y-114288450D01*
X161807378Y-114288832D01*
X161800504Y-114296870D01*
X161780818Y-114317430D01*
X161708631Y-114390659D01*
X161472343Y-114627374D01*
X161342021Y-114758350D01*
X161233851Y-114868497D01*
X161191689Y-114912144D01*
X161159405Y-114946245D01*
X161138445Y-114969353D01*
X161132663Y-114976333D01*
X161130255Y-114980022D01*
X161128435Y-114983998D01*
X161126938Y-114987984D01*
X161125757Y-114991970D01*
X161124882Y-114995946D01*
X161124308Y-114999902D01*
X161124025Y-115003826D01*
X161124026Y-115007709D01*
X161124304Y-115011540D01*
X161124850Y-115015309D01*
X161125657Y-115019006D01*
X161126717Y-115022621D01*
X161128023Y-115026142D01*
X161129567Y-115029560D01*
X161131340Y-115032864D01*
X161133335Y-115036045D01*
X161135545Y-115039091D01*
X161137961Y-115041992D01*
X161140577Y-115044739D01*
X161143383Y-115047320D01*
X161146373Y-115049725D01*
X161149538Y-115051945D01*
X161152872Y-115053968D01*
X161156365Y-115055785D01*
X161160011Y-115057384D01*
X161163802Y-115058757D01*
X161167729Y-115059891D01*
X161171786Y-115060778D01*
X161175964Y-115061407D01*
X161180256Y-115061767D01*
X161184653Y-115061848D01*
X161189149Y-115061639D01*
X161193735Y-115061131D01*
X161198435Y-115060156D01*
X161203564Y-115058287D01*
X161209551Y-115055126D01*
X161216824Y-115050276D01*
X161236944Y-115033918D01*
X161267355Y-115006030D01*
X161311487Y-114963430D01*
X161372770Y-114902935D01*
X161560510Y-114715536D01*
X161902598Y-114373468D01*
X161948445Y-114419312D01*
X161994292Y-114465156D01*
X161694524Y-114764907D01*
X161598615Y-114860852D01*
X161559474Y-114900089D01*
X161525684Y-114934068D01*
X161496854Y-114963211D01*
X161472591Y-114987943D01*
X161452502Y-115008687D01*
X161443900Y-115017696D01*
X161436195Y-115025866D01*
X161429336Y-115033252D01*
X161423276Y-115039905D01*
X161417965Y-115045879D01*
X161413354Y-115051227D01*
X161409393Y-115056001D01*
X161406035Y-115060255D01*
X161403230Y-115064041D01*
X161400928Y-115067413D01*
X161399080Y-115070423D01*
X161397639Y-115073124D01*
X161396553Y-115075570D01*
X161395775Y-115077813D01*
X161395256Y-115079906D01*
X161394945Y-115081903D01*
X161394795Y-115083855D01*
X161394756Y-115085817D01*
X161394828Y-115090052D01*
X161395044Y-115094164D01*
X161395401Y-115098150D01*
X161395899Y-115102010D01*
X161396537Y-115105743D01*
X161397313Y-115109349D01*
X161398226Y-115112828D01*
X161399274Y-115116177D01*
X161400457Y-115119398D01*
X161401773Y-115122489D01*
X161403221Y-115125450D01*
X161404799Y-115128279D01*
X161406506Y-115130977D01*
X161408341Y-115133542D01*
X161410303Y-115135974D01*
X161412389Y-115138273D01*
X161414600Y-115140437D01*
X161416934Y-115142467D01*
X161419389Y-115144360D01*
X161421964Y-115146118D01*
X161424658Y-115147739D01*
X161427469Y-115149222D01*
X161430397Y-115150567D01*
X161433439Y-115151773D01*
X161436596Y-115152839D01*
X161439864Y-115153766D01*
X161443244Y-115154552D01*
X161446733Y-115155196D01*
X161450331Y-115155698D01*
X161454036Y-115156058D01*
X161457847Y-115156274D01*
X161461763Y-115156346D01*
X161464669Y-115155963D01*
X161468314Y-115154604D01*
X161479121Y-115147695D01*
X161496789Y-115133100D01*
X161523921Y-115108298D01*
X161563121Y-115070767D01*
X161616992Y-115017987D01*
X161779164Y-114856595D01*
X162078932Y-114556845D01*
X162124779Y-114602689D01*
X162170626Y-114648533D01*
X161959025Y-114860122D01*
X161750951Y-115071711D01*
X161750951Y-115096396D01*
X161751714Y-115100942D01*
X161752678Y-115105319D01*
X161753835Y-115109526D01*
X161755180Y-115113560D01*
X161756706Y-115117419D01*
X161758406Y-115121099D01*
X161760273Y-115124598D01*
X161762302Y-115127914D01*
X161764487Y-115131044D01*
X161766819Y-115133985D01*
X161769294Y-115136736D01*
X161771904Y-115139292D01*
X161774644Y-115141653D01*
X161777506Y-115143814D01*
X161780484Y-115145774D01*
X161783573Y-115147530D01*
X161786764Y-115149079D01*
X161790053Y-115150419D01*
X161793431Y-115151548D01*
X161796894Y-115152462D01*
X161800434Y-115153159D01*
X161804046Y-115153636D01*
X161807721Y-115153891D01*
X161811455Y-115153922D01*
X161815241Y-115153725D01*
X161819072Y-115153298D01*
X161822941Y-115152639D01*
X161826843Y-115151745D01*
X161830771Y-115150614D01*
X161834718Y-115149242D01*
X161838678Y-115147627D01*
X161842644Y-115145767D01*
X161855883Y-115134857D01*
X161886397Y-115106094D01*
X161991647Y-115002944D01*
X162325800Y-114669692D01*
X162544179Y-114450609D01*
X162626401Y-114367434D01*
X162692134Y-114300293D01*
X162742493Y-114248030D01*
X162778593Y-114209486D01*
X162791645Y-114194998D01*
X162801551Y-114183506D01*
X162808450Y-114174866D01*
X162812482Y-114168932D01*
X162825286Y-114145292D01*
X162836600Y-114121351D01*
X162846442Y-114097161D01*
X162854830Y-114072773D01*
X162861781Y-114048238D01*
X162867314Y-114023607D01*
X162871447Y-113998930D01*
X162874199Y-113974259D01*
X162875586Y-113949645D01*
X162875628Y-113925139D01*
X162874342Y-113900792D01*
X162871747Y-113876654D01*
X162867860Y-113852778D01*
X162862699Y-113829213D01*
X162856283Y-113806011D01*
X162848630Y-113783223D01*
X162839758Y-113760900D01*
X162829685Y-113739093D01*
X162818428Y-113717853D01*
X162806007Y-113697231D01*
X162792439Y-113677278D01*
X162777742Y-113658044D01*
X162761934Y-113639582D01*
X162745034Y-113621942D01*
X162727059Y-113605175D01*
X162708028Y-113589331D01*
X162687958Y-113574463D01*
X162666869Y-113560621D01*
X162644776Y-113547856D01*
X162621700Y-113536219D01*
X162597658Y-113525761D01*
X162572668Y-113516533D01*
X162560171Y-113512153D01*
X162546590Y-113508268D01*
X162532078Y-113504879D01*
X162516792Y-113501986D01*
X162500886Y-113499589D01*
X162484514Y-113497688D01*
X162467833Y-113496283D01*
X162450997Y-113495374D01*
X162434161Y-113494961D01*
X162417480Y-113495044D01*
X162401109Y-113495622D01*
X162385203Y-113496697D01*
X162369916Y-113498267D01*
X162355405Y-113500333D01*
X162341823Y-113502896D01*
X162329327Y-113505954D01*
X162296154Y-113514770D01*
X162270682Y-113523806D01*
X162230580Y-113539455D01*
X162080365Y-113601169D01*
X161793271Y-113721069D01*
X161642113Y-113783368D01*
X161581916Y-113808218D01*
X161530919Y-113829343D01*
X161488333Y-113847100D01*
X161453366Y-113861846D01*
X161438494Y-113868201D01*
X161425229Y-113873936D01*
X161413475Y-113879097D01*
X161403132Y-113883728D01*
X161394101Y-113887873D01*
X161386283Y-113891577D01*
X161379579Y-113894885D01*
X161373892Y-113897841D01*
X161369121Y-113900489D01*
X161365169Y-113902875D01*
X161361936Y-113905042D01*
X161359324Y-113907036D01*
X161357233Y-113908900D01*
X161355565Y-113910680D01*
X161354222Y-113912420D01*
X161353104Y-113914164D01*
X161348909Y-113922078D01*
X161347638Y-113924413D01*
X161346471Y-113926784D01*
X161345406Y-113929190D01*
X161344446Y-113931625D01*
X161343588Y-113934085D01*
X161342834Y-113936568D01*
X161342183Y-113939069D01*
X161341635Y-113941584D01*
X161341191Y-113944110D01*
X161340850Y-113946641D01*
X161340612Y-113949176D01*
X161340478Y-113951709D01*
X161340447Y-113954237D01*
X161340519Y-113956756D01*
X161340695Y-113959262D01*
X161340974Y-113961751D01*
X161341356Y-113964220D01*
X161341842Y-113966664D01*
X161342431Y-113969079D01*
X161343123Y-113971463D01*
X161343919Y-113973810D01*
X161344817Y-113976117D01*
X161345820Y-113978380D01*
X161346925Y-113980596D01*
X161348134Y-113982760D01*
X161349446Y-113984868D01*
X161350862Y-113986917D01*
X161352381Y-113988902D01*
X161354003Y-113990821D01*
X161355728Y-113992668D01*
X161357557Y-113994441D01*
X161359489Y-113996134D01*
X161370634Y-114005095D01*
X161376274Y-114008214D01*
X161382523Y-114010295D01*
X161389805Y-114011240D01*
X161398544Y-114010950D01*
X161409164Y-114009327D01*
X161422088Y-114006273D01*
X161437739Y-114001690D01*
X161456542Y-113995480D01*
X161505295Y-113977786D01*
X161659257Y-113918552D01*
X161755029Y-113880807D01*
X161835591Y-113849345D01*
X161867483Y-113837105D01*
X161892349Y-113827800D01*
X161909115Y-113821884D01*
X161914124Y-113820338D01*
X161916705Y-113819810D01*
X161910223Y-113827759D01*
X161886673Y-113852981D01*
X161795475Y-113947645D01*
X161657329Y-114088594D01*
X161486450Y-114260620D01*
X161486450Y-114264147D01*
X161285539Y-114465762D01*
X161208352Y-114543903D01*
X161146125Y-114607538D01*
X161098446Y-114657122D01*
X161064901Y-114693110D01*
X161053300Y-114706147D01*
X161045077Y-114715956D01*
X161040182Y-114722593D01*
X161038965Y-114724740D01*
X161038561Y-114726116D01*
X161037723Y-114729751D01*
X161037184Y-114733378D01*
X161036937Y-114736988D01*
X160915131Y-114736988D01*
X160915128Y-114736695D01*
X160915341Y-114725149D01*
X160916009Y-114714248D01*
X160917174Y-114703895D01*
X160918875Y-114693992D01*
X160921155Y-114684439D01*
X160924055Y-114675140D01*
X160927616Y-114665996D01*
X160931879Y-114656908D01*
X160936887Y-114647780D01*
X160942680Y-114638511D01*
X160949299Y-114629006D01*
X160956786Y-114619164D01*
X160965183Y-114608888D01*
X160974530Y-114598081D01*
X160984869Y-114586643D01*
X160996241Y-114574477D01*
X161013627Y-114555825D01*
X161020511Y-114548225D01*
X161026218Y-114541637D01*
X161028636Y-114538690D01*
X161030768Y-114535958D01*
X161032615Y-114533427D01*
X161034181Y-114531085D01*
X161035467Y-114528918D01*
X161036478Y-114526914D01*
X161037214Y-114525060D01*
X161037680Y-114523343D01*
X161037877Y-114521750D01*
X161037807Y-114520268D01*
X161037474Y-114518884D01*
X161036881Y-114517585D01*
X161036029Y-114516358D01*
X161034921Y-114515191D01*
X161033560Y-114514071D01*
X161031949Y-114512984D01*
X161030090Y-114511918D01*
X161027985Y-114510859D01*
X161025637Y-114509795D01*
X161023050Y-114508714D01*
X161017164Y-114506444D01*
X161010348Y-114503947D01*
X161004615Y-114502143D01*
X160999203Y-114500751D01*
X160993935Y-114499856D01*
X160988637Y-114499539D01*
X160983132Y-114499884D01*
X160977244Y-114500972D01*
X160970799Y-114502887D01*
X160963619Y-114505711D01*
X160955531Y-114509526D01*
X160946358Y-114514417D01*
X160935924Y-114520464D01*
X160924054Y-114527751D01*
X160895304Y-114546375D01*
X160858701Y-114570950D01*
X160815402Y-114599341D01*
X160796631Y-114611166D01*
X160779461Y-114621533D01*
X160763654Y-114630537D01*
X160748974Y-114638270D01*
X160735182Y-114644826D01*
X160722042Y-114650296D01*
X160709314Y-114654775D01*
X160696763Y-114658355D01*
X160684149Y-114661129D01*
X160671236Y-114663190D01*
X160657785Y-114664631D01*
X160643559Y-114665546D01*
X160628321Y-114666026D01*
X160611833Y-114666165D01*
X160592243Y-114665993D01*
X160583533Y-114665770D01*
X160575464Y-114665449D01*
X160567973Y-114665025D01*
X160560999Y-114664492D01*
X160554480Y-114663845D01*
X160548353Y-114663080D01*
X160542556Y-114662190D01*
X160537029Y-114661172D01*
X160531708Y-114660019D01*
X160526531Y-114658727D01*
X160521437Y-114657290D01*
X160516364Y-114655703D01*
X160511250Y-114653961D01*
X160506032Y-114652059D01*
X160502110Y-114650778D01*
X160498290Y-114649580D01*
X160494595Y-114648464D01*
X160491044Y-114647431D01*
X160484459Y-114645613D01*
X160478701Y-114644125D01*
X160473934Y-114642968D01*
X160470325Y-114642141D01*
X160467239Y-114641480D01*
X160334414Y-114641480D01*
X160227424Y-114235935D01*
X160227525Y-114233601D01*
X160227826Y-114231233D01*
X160228316Y-114228838D01*
X160228987Y-114226423D01*
X160229832Y-114223995D01*
X160230841Y-114221561D01*
X160232006Y-114219129D01*
X160233320Y-114216705D01*
X160234773Y-114214296D01*
X160236356Y-114211910D01*
X160239884Y-114207234D01*
X160243835Y-114202734D01*
X160248143Y-114198466D01*
X160252740Y-114194488D01*
X160257559Y-114190855D01*
X160262533Y-114187626D01*
X160267595Y-114184856D01*
X160270138Y-114183661D01*
X160272677Y-114182603D01*
X160275205Y-114181688D01*
X160277713Y-114180923D01*
X160280193Y-114180316D01*
X160282636Y-114179874D01*
X160285033Y-114179603D01*
X160287377Y-114179511D01*
X160290011Y-114179552D01*
X160292622Y-114179674D01*
X160295208Y-114179875D01*
X160297764Y-114180152D01*
X160300290Y-114180504D01*
X160302782Y-114180929D01*
X160305238Y-114181426D01*
X160307656Y-114181991D01*
X160310031Y-114182623D01*
X160312363Y-114183321D01*
X160314649Y-114184082D01*
X160316885Y-114184904D01*
X160319070Y-114185786D01*
X160321201Y-114186725D01*
X160323275Y-114187720D01*
X160325289Y-114188768D01*
X160327241Y-114189868D01*
X160329129Y-114191018D01*
X160330950Y-114192215D01*
X160332700Y-114193459D01*
X160334379Y-114194746D01*
X160335983Y-114196075D01*
X160337509Y-114197444D01*
X160338955Y-114198852D01*
X160340318Y-114200295D01*
X160341596Y-114201773D01*
X160342787Y-114203283D01*
X160343887Y-114204823D01*
X160344894Y-114206392D01*
X160345805Y-114207987D01*
X160346618Y-114209607D01*
X160347331Y-114211250D01*
X160351849Y-114227119D01*
X160359674Y-114256212D01*
X160370144Y-114294563D01*
X160382598Y-114338203D01*
X160389176Y-114360264D01*
X160395547Y-114381127D01*
X160406844Y-114417108D01*
X160417865Y-114451050D01*
X160417946Y-114451422D01*
X160418188Y-114451873D01*
X160419132Y-114453006D01*
X160420654Y-114454429D01*
X160422714Y-114456120D01*
X160428279Y-114460225D01*
X160435498Y-114465156D01*
X160444039Y-114470749D01*
X160453572Y-114476838D01*
X160474291Y-114489842D01*
X160485373Y-114496826D01*
X160496154Y-114503238D01*
X160506667Y-114509081D01*
X160516942Y-114514362D01*
X160527011Y-114519084D01*
X160536904Y-114523253D01*
X160546652Y-114526876D01*
X160556287Y-114529955D01*
X160565839Y-114532498D01*
X160575339Y-114534508D01*
X160584819Y-114535991D01*
X160594309Y-114536953D01*
X160603840Y-114537398D01*
X160613444Y-114537332D01*
X160623151Y-114536759D01*
X160632992Y-114535686D01*
X160648793Y-114533062D01*
X160655945Y-114531602D01*
X160662859Y-114529900D01*
X160669731Y-114527847D01*
X160676759Y-114525334D01*
X160684138Y-114522252D01*
X160692064Y-114518494D01*
X160700734Y-114513951D01*
X160710345Y-114508514D01*
X160721092Y-114502075D01*
X160733172Y-114494525D01*
X160762116Y-114475660D01*
X160798746Y-114451050D01*
X160837333Y-114426014D01*
X160854090Y-114415461D01*
X160869390Y-114406143D01*
X160883409Y-114398002D01*
X160896322Y-114390983D01*
X160908306Y-114385028D01*
X160919535Y-114380080D01*
X160930186Y-114376082D01*
X160935349Y-114374422D01*
X160940433Y-114372979D01*
X160945461Y-114371744D01*
X160950454Y-114370712D01*
X160955434Y-114369874D01*
X160960423Y-114369225D01*
X160970515Y-114368461D01*
X160980908Y-114368364D01*
X160991775Y-114368876D01*
X161003294Y-114369941D01*
X161010451Y-114370688D01*
X161017407Y-114371622D01*
X161024208Y-114372762D01*
X161030901Y-114374129D01*
X161037532Y-114375744D01*
X161044147Y-114377628D01*
X161050793Y-114379801D01*
X161057516Y-114382284D01*
X161064364Y-114385097D01*
X161071382Y-114388262D01*
X161078617Y-114391799D01*
X161086116Y-114395729D01*
X161093924Y-114400071D01*
X161102089Y-114404848D01*
X161110657Y-114410079D01*
X161119674Y-114415785D01*
X161122231Y-114416953D01*
X161124758Y-114417686D01*
X161127470Y-114417800D01*
X161130585Y-114417108D01*
X161134320Y-114415424D01*
X161138892Y-114412562D01*
X161144518Y-114408336D01*
X161151414Y-114402561D01*
X161169888Y-114385617D01*
X161196049Y-114360243D01*
X161278375Y-114278253D01*
X161422969Y-114130140D01*
X161384175Y-114130140D01*
X161375332Y-114129294D01*
X161366660Y-114128084D01*
X161358165Y-114126515D01*
X161349852Y-114124596D01*
X161341728Y-114122333D01*
X161333799Y-114119734D01*
X161326070Y-114116806D01*
X161318546Y-114113555D01*
X161311235Y-114109989D01*
X161304141Y-114106115D01*
X161297270Y-114101941D01*
X161290629Y-114097472D01*
X161284223Y-114092717D01*
X161278057Y-114087682D01*
X161272139Y-114082375D01*
X161266473Y-114076802D01*
X161261065Y-114070972D01*
X161255921Y-114064889D01*
X161251047Y-114058563D01*
X161246449Y-114052000D01*
X161242132Y-114045207D01*
X161238103Y-114038191D01*
X161234367Y-114030960D01*
X161230930Y-114023520D01*
X161227798Y-114015878D01*
X161224976Y-114008042D01*
X161222471Y-114000019D01*
X161220288Y-113991816D01*
X161218433Y-113983439D01*
X161216912Y-113974897D01*
X161215731Y-113966196D01*
X161214895Y-113957343D01*
X161214603Y-113944867D01*
X161215040Y-113932582D01*
X161216189Y-113920514D01*
X161218036Y-113908689D01*
X161220565Y-113897132D01*
X161223760Y-113885870D01*
X161227606Y-113874928D01*
X161232087Y-113864332D01*
X161237189Y-113854108D01*
X161242895Y-113844282D01*
X161249190Y-113834880D01*
X161256058Y-113825926D01*
X161263484Y-113817449D01*
X161271453Y-113809472D01*
X161279948Y-113802022D01*
X161288955Y-113795125D01*
X161338343Y-113772044D01*
X161449309Y-113724210D01*
X161775637Y-113587503D01*
X162107255Y-113451458D01*
X162283479Y-113382527D01*
X162292172Y-113379744D01*
X162302105Y-113376796D01*
X162312864Y-113373848D01*
X162324036Y-113371066D01*
X162335208Y-113368614D01*
X162345968Y-113366658D01*
X162351063Y-113365917D01*
X162355900Y-113365363D01*
X162360427Y-113365015D01*
X162364593Y-113364894D01*
X162385106Y-113362580D01*
X162402395Y-113360927D01*
X162417534Y-113359935D01*
X162424634Y-113359687D01*
X162431600Y-113359605D01*
X162438565Y-113359687D01*
G37*
D10*
X114621303Y-54518318D02*
X114354636Y-54137365D01*
X114164160Y-54518318D02*
X114164160Y-53718318D01*
X114164160Y-53718318D02*
X114468922Y-53718318D01*
X114468922Y-53718318D02*
X114545112Y-53756413D01*
X114545112Y-53756413D02*
X114583207Y-53794508D01*
X114583207Y-53794508D02*
X114621303Y-53870699D01*
X114621303Y-53870699D02*
X114621303Y-53984984D01*
X114621303Y-53984984D02*
X114583207Y-54061175D01*
X114583207Y-54061175D02*
X114545112Y-54099270D01*
X114545112Y-54099270D02*
X114468922Y-54137365D01*
X114468922Y-54137365D02*
X114164160Y-54137365D01*
X114964160Y-54099270D02*
X115230826Y-54099270D01*
X115345112Y-54518318D02*
X114964160Y-54518318D01*
X114964160Y-54518318D02*
X114964160Y-53718318D01*
X114964160Y-53718318D02*
X115345112Y-53718318D01*
X115573684Y-53718318D02*
X115840351Y-54518318D01*
X115840351Y-54518318D02*
X116107017Y-53718318D01*
X116373684Y-54518318D02*
X116373684Y-53718318D01*
X116716540Y-54480223D02*
X116830826Y-54518318D01*
X116830826Y-54518318D02*
X117021302Y-54518318D01*
X117021302Y-54518318D02*
X117097493Y-54480223D01*
X117097493Y-54480223D02*
X117135588Y-54442127D01*
X117135588Y-54442127D02*
X117173683Y-54365937D01*
X117173683Y-54365937D02*
X117173683Y-54289746D01*
X117173683Y-54289746D02*
X117135588Y-54213556D01*
X117135588Y-54213556D02*
X117097493Y-54175461D01*
X117097493Y-54175461D02*
X117021302Y-54137365D01*
X117021302Y-54137365D02*
X116868921Y-54099270D01*
X116868921Y-54099270D02*
X116792731Y-54061175D01*
X116792731Y-54061175D02*
X116754636Y-54023080D01*
X116754636Y-54023080D02*
X116716540Y-53946889D01*
X116716540Y-53946889D02*
X116716540Y-53870699D01*
X116716540Y-53870699D02*
X116754636Y-53794508D01*
X116754636Y-53794508D02*
X116792731Y-53756413D01*
X116792731Y-53756413D02*
X116868921Y-53718318D01*
X116868921Y-53718318D02*
X117059398Y-53718318D01*
X117059398Y-53718318D02*
X117173683Y-53756413D01*
X117516541Y-54518318D02*
X117516541Y-53718318D01*
X118049874Y-53718318D02*
X118202255Y-53718318D01*
X118202255Y-53718318D02*
X118278445Y-53756413D01*
X118278445Y-53756413D02*
X118354636Y-53832603D01*
X118354636Y-53832603D02*
X118392731Y-53984984D01*
X118392731Y-53984984D02*
X118392731Y-54251651D01*
X118392731Y-54251651D02*
X118354636Y-54404032D01*
X118354636Y-54404032D02*
X118278445Y-54480223D01*
X118278445Y-54480223D02*
X118202255Y-54518318D01*
X118202255Y-54518318D02*
X118049874Y-54518318D01*
X118049874Y-54518318D02*
X117973683Y-54480223D01*
X117973683Y-54480223D02*
X117897493Y-54404032D01*
X117897493Y-54404032D02*
X117859397Y-54251651D01*
X117859397Y-54251651D02*
X117859397Y-53984984D01*
X117859397Y-53984984D02*
X117897493Y-53832603D01*
X117897493Y-53832603D02*
X117973683Y-53756413D01*
X117973683Y-53756413D02*
X118049874Y-53718318D01*
X118735588Y-54518318D02*
X118735588Y-53718318D01*
X118735588Y-53718318D02*
X119192731Y-54518318D01*
X119192731Y-54518318D02*
X119192731Y-53718318D01*
X120602254Y-54518318D02*
X120145111Y-54518318D01*
X120373683Y-54518318D02*
X120373683Y-53718318D01*
X120373683Y-53718318D02*
X120297492Y-53832603D01*
X120297492Y-53832603D02*
X120221302Y-53908794D01*
X120221302Y-53908794D02*
X120145111Y-53946889D01*
X120945112Y-54442127D02*
X120983207Y-54480223D01*
X120983207Y-54480223D02*
X120945112Y-54518318D01*
X120945112Y-54518318D02*
X120907016Y-54480223D01*
X120907016Y-54480223D02*
X120945112Y-54442127D01*
X120945112Y-54442127D02*
X120945112Y-54518318D01*
X121249873Y-53718318D02*
X121745111Y-53718318D01*
X121745111Y-53718318D02*
X121478445Y-54023080D01*
X121478445Y-54023080D02*
X121592730Y-54023080D01*
X121592730Y-54023080D02*
X121668921Y-54061175D01*
X121668921Y-54061175D02*
X121707016Y-54099270D01*
X121707016Y-54099270D02*
X121745111Y-54175461D01*
X121745111Y-54175461D02*
X121745111Y-54365937D01*
X121745111Y-54365937D02*
X121707016Y-54442127D01*
X121707016Y-54442127D02*
X121668921Y-54480223D01*
X121668921Y-54480223D02*
X121592730Y-54518318D01*
X121592730Y-54518318D02*
X121364159Y-54518318D01*
X121364159Y-54518318D02*
X121287968Y-54480223D01*
X121287968Y-54480223D02*
X121249873Y-54442127D01*
X114430826Y-55387225D02*
X114545112Y-55425320D01*
X114545112Y-55425320D02*
X114583207Y-55463416D01*
X114583207Y-55463416D02*
X114621303Y-55539606D01*
X114621303Y-55539606D02*
X114621303Y-55653892D01*
X114621303Y-55653892D02*
X114583207Y-55730082D01*
X114583207Y-55730082D02*
X114545112Y-55768178D01*
X114545112Y-55768178D02*
X114468922Y-55806273D01*
X114468922Y-55806273D02*
X114164160Y-55806273D01*
X114164160Y-55806273D02*
X114164160Y-55006273D01*
X114164160Y-55006273D02*
X114430826Y-55006273D01*
X114430826Y-55006273D02*
X114507017Y-55044368D01*
X114507017Y-55044368D02*
X114545112Y-55082463D01*
X114545112Y-55082463D02*
X114583207Y-55158654D01*
X114583207Y-55158654D02*
X114583207Y-55234844D01*
X114583207Y-55234844D02*
X114545112Y-55311035D01*
X114545112Y-55311035D02*
X114507017Y-55349130D01*
X114507017Y-55349130D02*
X114430826Y-55387225D01*
X114430826Y-55387225D02*
X114164160Y-55387225D01*
X115116541Y-55425320D02*
X115116541Y-55806273D01*
X114849874Y-55006273D02*
X115116541Y-55425320D01*
X115116541Y-55425320D02*
X115383207Y-55006273D01*
X116678445Y-55044368D02*
X116602255Y-55006273D01*
X116602255Y-55006273D02*
X116487969Y-55006273D01*
X116487969Y-55006273D02*
X116373683Y-55044368D01*
X116373683Y-55044368D02*
X116297493Y-55120558D01*
X116297493Y-55120558D02*
X116259398Y-55196749D01*
X116259398Y-55196749D02*
X116221302Y-55349130D01*
X116221302Y-55349130D02*
X116221302Y-55463416D01*
X116221302Y-55463416D02*
X116259398Y-55615797D01*
X116259398Y-55615797D02*
X116297493Y-55691987D01*
X116297493Y-55691987D02*
X116373683Y-55768178D01*
X116373683Y-55768178D02*
X116487969Y-55806273D01*
X116487969Y-55806273D02*
X116564160Y-55806273D01*
X116564160Y-55806273D02*
X116678445Y-55768178D01*
X116678445Y-55768178D02*
X116716541Y-55730082D01*
X116716541Y-55730082D02*
X116716541Y-55463416D01*
X116716541Y-55463416D02*
X116564160Y-55463416D01*
X117059398Y-55387225D02*
X117326064Y-55387225D01*
X117440350Y-55806273D02*
X117059398Y-55806273D01*
X117059398Y-55806273D02*
X117059398Y-55006273D01*
X117059398Y-55006273D02*
X117440350Y-55006273D01*
X117783208Y-55806273D02*
X117783208Y-55006273D01*
X118126064Y-55768178D02*
X118240350Y-55806273D01*
X118240350Y-55806273D02*
X118430826Y-55806273D01*
X118430826Y-55806273D02*
X118507017Y-55768178D01*
X118507017Y-55768178D02*
X118545112Y-55730082D01*
X118545112Y-55730082D02*
X118583207Y-55653892D01*
X118583207Y-55653892D02*
X118583207Y-55577701D01*
X118583207Y-55577701D02*
X118545112Y-55501511D01*
X118545112Y-55501511D02*
X118507017Y-55463416D01*
X118507017Y-55463416D02*
X118430826Y-55425320D01*
X118430826Y-55425320D02*
X118278445Y-55387225D01*
X118278445Y-55387225D02*
X118202255Y-55349130D01*
X118202255Y-55349130D02*
X118164160Y-55311035D01*
X118164160Y-55311035D02*
X118126064Y-55234844D01*
X118126064Y-55234844D02*
X118126064Y-55158654D01*
X118126064Y-55158654D02*
X118164160Y-55082463D01*
X118164160Y-55082463D02*
X118202255Y-55044368D01*
X118202255Y-55044368D02*
X118278445Y-55006273D01*
X118278445Y-55006273D02*
X118468922Y-55006273D01*
X118468922Y-55006273D02*
X118583207Y-55044368D01*
X118811779Y-55006273D02*
X119268922Y-55006273D01*
X119040350Y-55806273D02*
X119040350Y-55006273D01*
D13*
X81900000Y-107999240D03*
X81900000Y-109000000D03*
D14*
X88964256Y-149301728D03*
D15*
X88554135Y-149711849D03*
D16*
X89862282Y-151995804D03*
X90760308Y-154689881D03*
D17*
X85372154Y-152893830D03*
D16*
X87168205Y-158281984D03*
X84474129Y-157383959D03*
D15*
X82190173Y-156075811D03*
D14*
X81780052Y-156485932D03*
D18*
X82561405Y-146688968D03*
X83798841Y-147926405D03*
X80404729Y-151320517D03*
X79167292Y-150083081D03*
D19*
X82246742Y-159667913D03*
X93023049Y-152483708D03*
D14*
X148091399Y-128697857D03*
D15*
X147511399Y-128697857D03*
D16*
X146821399Y-131237857D03*
X145551399Y-133777857D03*
D17*
X143011399Y-128697857D03*
D16*
X140471399Y-133777857D03*
X139201399Y-131237858D03*
D15*
X138511399Y-128697857D03*
D14*
X137931399Y-128697857D03*
D20*
X145411399Y-122322857D03*
X145411399Y-124072857D03*
X140611399Y-124072857D03*
X140611399Y-122322857D03*
D21*
X136011399Y-131277857D03*
X148711399Y-133817857D03*
D14*
X185950653Y-70381245D03*
D15*
X185372066Y-70340786D03*
D16*
X184506566Y-72826467D03*
X183062478Y-75271689D03*
D17*
X180883028Y-70026882D03*
D16*
X177994852Y-74917326D03*
X176905127Y-72294927D03*
D15*
X176393990Y-69712978D03*
D14*
X175815403Y-69672519D03*
D22*
X183721879Y-63834827D03*
X183599805Y-65580564D03*
X178811498Y-65245733D03*
X178933572Y-63499996D03*
D23*
X173720108Y-72112302D03*
X186211990Y-75532022D03*
D24*
X181560000Y-122470000D03*
D25*
X191951654Y-110709596D03*
X195300000Y-111300000D03*
D26*
X135297000Y-96197000D03*
X138697000Y-96197000D03*
D27*
X172900000Y-116200000D03*
X176291718Y-116437172D03*
D13*
X92621000Y-101301620D03*
X92621000Y-102302380D03*
D14*
X126804057Y-130264140D03*
D15*
X126243820Y-130414255D03*
D16*
X126234732Y-133046292D03*
X125665406Y-135828444D03*
D17*
X121897154Y-131578941D03*
D16*
X120758503Y-137143245D03*
X118874377Y-135018494D03*
D15*
X117550488Y-132743627D03*
D14*
X116990251Y-132893742D03*
D28*
X122565405Y-124799998D03*
X123018338Y-126490368D03*
X118381894Y-127732700D03*
X117928961Y-126042331D03*
D29*
X115803426Y-135882763D03*
X128728085Y-135049213D03*
D24*
X83320000Y-55720000D03*
D14*
X164191399Y-78675260D03*
D15*
X163611399Y-78675260D03*
D16*
X162921399Y-81215260D03*
X161651399Y-83755260D03*
D17*
X159111399Y-78675260D03*
D16*
X156571399Y-83755260D03*
X155301399Y-81215261D03*
D15*
X154611399Y-78675260D03*
D14*
X154031399Y-78675260D03*
D20*
X161511399Y-72300260D03*
X161511399Y-74050260D03*
X156711399Y-74050260D03*
X156711399Y-72300260D03*
D21*
X152111399Y-81255260D03*
X164811399Y-83795260D03*
D13*
X137950000Y-118150380D03*
X137950000Y-117149620D03*
D14*
X223997125Y-102568958D03*
D15*
X223425937Y-102468242D03*
D16*
X222305353Y-104849836D03*
X220613581Y-107130715D03*
D17*
X218994302Y-101686825D03*
D16*
X215610758Y-106248582D03*
X214801118Y-103526638D03*
D15*
X214562667Y-100905408D03*
D14*
X213991479Y-100804692D03*
D30*
X222464848Y-95825431D03*
X222160963Y-97548845D03*
X217433886Y-96715335D03*
X217737771Y-94991920D03*
D31*
X211652635Y-103012092D03*
X223718628Y-107718835D03*
D32*
X128663008Y-123578926D03*
X129542992Y-126863074D03*
D33*
X153510000Y-116290000D03*
X166710000Y-116290000D03*
D34*
X193250000Y-75050000D03*
D14*
X183289779Y-108433517D03*
D15*
X182711192Y-108393058D03*
D16*
X181845692Y-110878739D03*
X180401604Y-113323961D03*
D17*
X178222154Y-108079154D03*
D16*
X175333978Y-112969598D03*
X174244253Y-110347199D03*
D15*
X173733116Y-107765250D03*
D14*
X173154529Y-107724791D03*
D22*
X181061005Y-101887099D03*
X180938931Y-103632836D03*
X176150624Y-103298005D03*
X176272698Y-101552268D03*
D23*
X171059234Y-110164574D03*
X183551116Y-113584294D03*
D14*
X126147969Y-90675260D03*
D15*
X125567969Y-90675260D03*
D16*
X124877969Y-93215260D03*
X123607969Y-95755260D03*
D17*
X121067969Y-90675260D03*
D16*
X118527969Y-95755260D03*
X117257969Y-93215261D03*
D15*
X116567969Y-90675260D03*
D14*
X115987969Y-90675260D03*
D20*
X123467969Y-84300260D03*
X123467969Y-86050260D03*
X118667969Y-86050260D03*
X118667969Y-84300260D03*
D21*
X114067969Y-93255260D03*
X126767969Y-95795260D03*
D13*
X140500000Y-118150380D03*
X140500000Y-117149620D03*
D26*
X153300000Y-106300000D03*
X156700000Y-106300000D03*
D35*
X88090000Y-111450000D03*
X88090000Y-116450000D03*
X88090000Y-113950000D03*
D36*
X95590000Y-108350000D03*
X95590000Y-119550000D03*
D35*
X102590000Y-116450000D03*
X102590000Y-111450000D03*
D37*
X100249110Y-98455000D03*
X97709110Y-98455000D03*
X95169110Y-98455000D03*
X92629110Y-98455000D03*
D38*
X82400000Y-129125000D03*
X89400000Y-129125000D03*
X82400000Y-127375000D03*
X89400000Y-127375000D03*
D39*
X91200000Y-131225000D03*
X91200000Y-125275000D03*
X87200000Y-131225000D03*
X87200000Y-125275000D03*
X84200000Y-131225000D03*
X84200000Y-125275000D03*
X92700000Y-129475000D03*
X92700000Y-127025000D03*
D14*
X220685204Y-121351799D03*
D15*
X220114016Y-121251083D03*
D16*
X218993432Y-123632677D03*
X217301660Y-125913556D03*
D17*
X215682381Y-120469666D03*
D16*
X212298837Y-125031423D03*
X211489197Y-122309479D03*
D15*
X211250746Y-119688249D03*
D14*
X210679558Y-119587533D03*
D30*
X219152927Y-114608272D03*
X218849042Y-116331686D03*
X214121965Y-115498176D03*
X214425850Y-113774761D03*
D31*
X208340714Y-121794933D03*
X220406707Y-126501676D03*
D26*
X115300000Y-99200000D03*
X118700000Y-99200000D03*
D13*
X97660000Y-101301620D03*
X97660000Y-102302380D03*
D14*
X126147969Y-109747857D03*
D15*
X125567969Y-109747857D03*
D16*
X124877969Y-112287857D03*
X123607969Y-114827857D03*
D17*
X121067969Y-109747857D03*
D16*
X118527969Y-114827857D03*
X117257969Y-112287858D03*
D15*
X116567969Y-109747857D03*
D14*
X115987969Y-109747857D03*
D20*
X123467969Y-103372857D03*
X123467969Y-105122857D03*
X118667969Y-105122857D03*
X118667969Y-103372857D03*
D21*
X114067969Y-112327857D03*
X126767969Y-114867857D03*
D24*
X83320000Y-135150000D03*
D13*
X95166000Y-101301620D03*
X95166000Y-102302380D03*
D24*
X188990000Y-56730000D03*
D25*
X195251654Y-91909596D03*
X198600000Y-92500000D03*
D13*
X145600000Y-118150380D03*
X145600000Y-117149620D03*
D40*
X106672000Y-130427514D03*
X108372000Y-133372000D03*
D14*
X126147969Y-71602664D03*
D15*
X125567969Y-71602664D03*
D16*
X124877969Y-74142664D03*
X123607969Y-76682664D03*
D17*
X121067969Y-71602664D03*
D16*
X118527969Y-76682664D03*
X117257969Y-74142665D03*
D15*
X116567969Y-71602664D03*
D14*
X115987969Y-71602664D03*
D20*
X123467969Y-65227664D03*
X123467969Y-66977664D03*
X118667969Y-66977664D03*
X118667969Y-65227664D03*
D21*
X114067969Y-74182664D03*
X126767969Y-76722664D03*
D41*
X82350000Y-104800000D03*
X82350000Y-102800000D03*
D13*
X202525000Y-58850380D03*
X202525000Y-57849620D03*
D14*
X184620216Y-89407380D03*
D15*
X184041629Y-89366921D03*
D16*
X183176129Y-91852602D03*
X181732041Y-94297824D03*
D17*
X179552591Y-89053017D03*
D16*
X176664415Y-93943461D03*
X175574690Y-91321062D03*
D15*
X175063553Y-88739113D03*
D14*
X174484966Y-88698654D03*
D22*
X182391442Y-82860962D03*
X182269368Y-84606699D03*
X177481061Y-84271868D03*
X177603135Y-82526131D03*
D23*
X172389671Y-91138437D03*
X184881553Y-94558157D03*
D42*
X82309995Y-118535008D03*
X82309995Y-122785008D03*
D43*
X83209995Y-119435008D03*
X83209995Y-121885008D03*
D44*
X83209995Y-120660008D03*
D45*
X81259995Y-118810008D03*
X81259995Y-122510008D03*
D13*
X194925000Y-58850380D03*
X194925000Y-57849620D03*
D25*
X220200000Y-110600000D03*
X223548346Y-111190404D03*
D24*
X174150000Y-55720000D03*
D26*
X134300000Y-77100000D03*
X137700000Y-77100000D03*
X153400000Y-68100000D03*
X156800000Y-68100000D03*
X153379000Y-87185000D03*
X156779000Y-87185000D03*
D25*
X188625827Y-129404798D03*
X191974173Y-129995202D03*
D26*
X99180000Y-106960000D03*
X102580000Y-106960000D03*
D14*
X164191399Y-59602664D03*
D15*
X163611399Y-59602664D03*
D16*
X162921399Y-62142664D03*
X161651399Y-64682664D03*
D17*
X159111399Y-59602664D03*
D16*
X156571399Y-64682664D03*
X155301399Y-62142665D03*
D15*
X154611399Y-59602664D03*
D14*
X154031399Y-59602664D03*
D20*
X161511399Y-53227664D03*
X161511399Y-54977664D03*
X156711399Y-54977664D03*
X156711399Y-53227664D03*
D21*
X152111399Y-62182664D03*
X164811399Y-64722664D03*
D46*
X149599000Y-77350000D03*
X168649000Y-96400000D03*
X130549000Y-96400000D03*
D14*
X106646563Y-137291736D03*
D15*
X106144268Y-137581736D03*
D16*
X106816711Y-140126441D03*
X106986859Y-142961145D03*
D17*
X102247154Y-139831736D03*
D16*
X102587449Y-145501145D03*
X100217598Y-143936441D03*
D15*
X98350040Y-142081736D03*
D14*
X97847745Y-142371736D03*
D47*
X101138115Y-133110824D03*
X102013115Y-134626369D03*
X97856193Y-137026369D03*
X96981193Y-135510824D03*
D48*
X97474976Y-145566082D03*
X109743499Y-141415786D03*
D13*
X100205000Y-101301620D03*
X100205000Y-102302380D03*
D14*
X201082966Y-122972529D03*
D15*
X200511778Y-122871813D03*
D16*
X199391194Y-125253407D03*
X197699422Y-127534286D03*
D17*
X196080143Y-122090396D03*
D16*
X192696599Y-126652153D03*
X191886959Y-123930209D03*
D15*
X191648508Y-121308979D03*
D14*
X191077320Y-121208263D03*
D30*
X199550689Y-116229002D03*
X199246804Y-117952416D03*
X194519727Y-117118906D03*
X194823612Y-115395491D03*
D31*
X188738476Y-123415663D03*
X200804469Y-128122406D03*
D24*
X169950000Y-121710000D03*
D27*
X172908282Y-97162828D03*
X176300000Y-97400000D03*
D24*
X167300000Y-88050000D03*
D14*
X145141399Y-106747857D03*
D15*
X144561399Y-106747857D03*
D16*
X143871399Y-109287857D03*
X142601399Y-111827857D03*
D17*
X140061399Y-106747857D03*
D16*
X137521399Y-111827857D03*
X136251399Y-109287858D03*
D15*
X135561399Y-106747857D03*
D14*
X134981399Y-106747857D03*
D20*
X142461399Y-100372857D03*
X142461399Y-102122857D03*
X137661399Y-102122857D03*
X137661399Y-100372857D03*
D21*
X133061399Y-109327857D03*
X145761399Y-111867857D03*
D14*
X145141399Y-87675260D03*
D15*
X144561399Y-87675260D03*
D16*
X143871399Y-90215260D03*
X142601399Y-92755260D03*
D17*
X140061399Y-87675260D03*
D16*
X137521399Y-92755260D03*
X136251399Y-90215261D03*
D15*
X135561399Y-87675260D03*
D14*
X134981399Y-87675260D03*
D20*
X142461399Y-81300260D03*
X142461399Y-83050260D03*
X137661399Y-83050260D03*
X137661399Y-81300260D03*
D21*
X133061399Y-90255260D03*
X145761399Y-92795260D03*
D27*
X174300000Y-78100000D03*
X177691718Y-78337172D03*
D49*
X87070836Y-142475836D03*
X89475000Y-144880000D03*
D50*
X148200000Y-104900000D03*
X148200000Y-101500000D03*
D51*
X82500000Y-111399951D03*
D35*
X82500000Y-115000000D03*
D14*
X207706810Y-85406848D03*
D15*
X207135622Y-85306132D03*
D16*
X206015038Y-87687726D03*
X204323266Y-89968605D03*
D17*
X202703987Y-84524715D03*
D16*
X199320443Y-89086472D03*
X198510803Y-86364528D03*
D15*
X198272352Y-83743298D03*
D14*
X197701164Y-83642582D03*
D30*
X206174533Y-78663321D03*
X205870648Y-80386735D03*
X201143571Y-79553225D03*
X201447456Y-77829810D03*
D31*
X195362320Y-85849982D03*
X207428313Y-90556725D03*
D26*
X115300000Y-80100000D03*
X118700000Y-80100000D03*
D42*
X82251228Y-65426228D03*
X82301228Y-62426228D03*
D52*
X84101228Y-61676228D03*
X84101228Y-64676228D03*
X84101228Y-66176228D03*
D53*
X82201228Y-60076228D03*
X82201228Y-68026228D03*
D24*
X145400000Y-55720000D03*
D13*
X83675000Y-107999240D03*
X83675000Y-109000000D03*
X205100000Y-58850380D03*
X205100000Y-57849620D03*
D26*
X115100000Y-118290000D03*
X118500000Y-118290000D03*
D25*
X216851654Y-129209596D03*
X220200000Y-129800000D03*
D54*
X137950000Y-120100000D03*
D55*
X140490000Y-120100000D03*
X143030000Y-120100000D03*
X145570000Y-120100000D03*
X148110000Y-120100000D03*
D14*
X164191399Y-97747857D03*
D15*
X163611399Y-97747857D03*
D16*
X162921399Y-100287857D03*
X161651399Y-102827857D03*
D17*
X159111399Y-97747857D03*
D16*
X156571399Y-102827857D03*
X155301399Y-100287858D03*
D15*
X154611399Y-97747857D03*
D14*
X154031399Y-97747857D03*
D20*
X161511399Y-91372857D03*
X161511399Y-93122857D03*
X156711399Y-93122857D03*
X156711399Y-91372857D03*
D21*
X152111399Y-100327857D03*
X164811399Y-102867857D03*
D14*
X204394888Y-104189687D03*
D15*
X203823700Y-104088971D03*
D16*
X202703116Y-106470565D03*
X201011344Y-108751444D03*
D17*
X199392065Y-103307554D03*
D16*
X196008521Y-107869311D03*
X195198881Y-105147367D03*
D15*
X194960430Y-102526137D03*
D14*
X194389242Y-102425421D03*
D30*
X202862611Y-97446160D03*
X202558726Y-99169574D03*
X197831649Y-98336064D03*
X198135534Y-96612649D03*
D31*
X192050398Y-104632821D03*
X204116391Y-109339564D03*
D56*
X88780000Y-56840000D03*
X105318815Y-58035745D03*
X88780000Y-59380000D03*
X105318815Y-60575745D03*
X88780000Y-61920000D03*
X105318815Y-63115745D03*
X88780000Y-64460000D03*
X105318815Y-65655745D03*
X88780000Y-67000000D03*
X105318815Y-68195745D03*
X88780000Y-69540000D03*
X105318815Y-70735745D03*
X88780000Y-72080000D03*
X105318815Y-73275745D03*
X88780000Y-74620000D03*
X105318815Y-75815745D03*
X88780000Y-77160000D03*
X105318815Y-78355745D03*
X88780000Y-79700000D03*
X105318815Y-80895745D03*
X88780000Y-82240000D03*
X105318815Y-83435745D03*
X88780000Y-84780000D03*
X105318815Y-85975745D03*
X90078815Y-85975745D03*
X104020000Y-84780000D03*
X90078815Y-83435745D03*
X104020000Y-82240000D03*
X90078815Y-80895745D03*
X104020000Y-79700000D03*
X90078815Y-78355745D03*
X104020000Y-77160000D03*
X90078815Y-75815745D03*
X104020000Y-74620000D03*
X90078815Y-73275745D03*
X104020000Y-72080000D03*
X90078815Y-70735745D03*
X104020000Y-69540000D03*
X90078815Y-68195745D03*
X104020000Y-67000000D03*
X90078815Y-65655745D03*
X104020000Y-64460000D03*
X90078815Y-63115745D03*
X104020000Y-61920000D03*
X90078815Y-60575745D03*
X104020000Y-59380000D03*
X90078815Y-58035745D03*
X104020000Y-56840000D03*
D14*
X145141399Y-68602664D03*
D15*
X144561399Y-68602664D03*
D16*
X143871399Y-71142664D03*
X142601399Y-73682664D03*
D17*
X140061399Y-68602664D03*
D16*
X137521399Y-73682664D03*
X136251399Y-71142665D03*
D15*
X135561399Y-68602664D03*
D14*
X134981399Y-68602664D03*
D20*
X142461399Y-62227664D03*
X142461399Y-63977664D03*
X137661399Y-63977664D03*
X137661399Y-62227664D03*
D21*
X133061399Y-71182664D03*
X145761399Y-73722664D03*
D50*
X151604000Y-122605000D03*
X151604000Y-126005000D03*
D15*
X194920000Y-55650000D03*
D57*
X197460000Y-55650000D03*
X200000000Y-55650000D03*
X202540000Y-55650000D03*
X205080000Y-55650000D03*
M02*
