G04 #@! TF.GenerationSoftware,KiCad,Pcbnew,10.0.4*
G04 #@! TF.CreationDate,2026-07-21T23:25:02-06:00*
G04 #@! TF.ProjectId,klor1_3 (1),6b6c6f72-315f-4332-9028-31292e6b6963,v1.3.0*
G04 #@! TF.SameCoordinates,Original*
G04 #@! TF.FileFunction,Legend,Top*
G04 #@! TF.FilePolarity,Positive*
%FSLAX46Y46*%
G04 Gerber Fmt 4.6, Leading zero omitted, Abs format (unit mm)*
G04 Created by KiCad (PCBNEW 10.0.4) date 2026-07-21 23:25:02*
%MOMM*%
%LPD*%
G01*
G04 APERTURE LIST*
%ADD10C,0.150000*%
%ADD11C,0.000000*%
%ADD12C,0.569975*%
%ADD13C,0.127000*%
%ADD14C,0.100000*%
%ADD15C,0.300000*%
%ADD16C,0.120000*%
%ADD17C,0.200000*%
%ADD18C,1.200000*%
%ADD19O,2.500000X1.700000*%
%ADD20C,1.524000*%
G04 APERTURE END LIST*
D10*
X192600000Y-60975000D02*
X207375000Y-60975000D01*
X207375000Y-72750000D01*
X192600000Y-72750000D01*
X192600000Y-60975000D01*
D11*
G36*
X196189538Y-92174098D02*
G01*
X184120096Y-92174098D01*
X196718912Y-117230555D01*
X195095529Y-117230555D01*
X182496728Y-92174098D01*
X170215532Y-92174098D01*
X170215532Y-117230555D01*
X168768610Y-117230555D01*
X168768610Y-90691889D01*
X168768610Y-65211947D01*
X170215524Y-65211947D01*
X170215524Y-90691889D01*
X194742624Y-90691889D01*
X194742624Y-65211947D01*
X170215524Y-65211947D01*
X168768610Y-65211947D01*
X168768610Y-63765025D01*
X196189538Y-63765025D01*
X196189538Y-92174098D01*
G37*
D10*
X84560000Y-115000000D02*
X83975000Y-115000000D01*
D11*
G36*
X131925027Y-77281397D02*
G01*
X133296433Y-77316267D01*
X134650216Y-77419743D01*
X135984678Y-77590126D01*
X137298120Y-77825716D01*
X138588841Y-78124815D01*
X139855143Y-78485722D01*
X141095325Y-78906737D01*
X142307689Y-79386162D01*
X143490535Y-79922297D01*
X144642163Y-80513443D01*
X145760874Y-81157899D01*
X146844968Y-81853967D01*
X147892746Y-82599947D01*
X148902509Y-83394139D01*
X149872556Y-84234845D01*
X150801189Y-85120364D01*
X151686708Y-86048997D01*
X152527413Y-87019044D01*
X153321605Y-88028806D01*
X154067585Y-89076584D01*
X154763653Y-90160678D01*
X155408109Y-91279389D01*
X155999255Y-92431016D01*
X156535389Y-93613862D01*
X157014814Y-94826225D01*
X157435830Y-96066407D01*
X157796736Y-97332707D01*
X158095835Y-98623428D01*
X158331425Y-99936868D01*
X158501808Y-101271330D01*
X158605284Y-102625112D01*
X158640153Y-103996516D01*
X158605284Y-105367921D01*
X158501808Y-106721705D01*
X158331425Y-108056167D01*
X158095835Y-109369609D01*
X157796736Y-110660330D01*
X157435830Y-111926632D01*
X157014814Y-113166815D01*
X156535389Y-114379179D01*
X155999255Y-115562025D01*
X155408109Y-116713653D01*
X154763653Y-117832364D01*
X154067585Y-118916459D01*
X153321605Y-119964237D01*
X152527413Y-120974000D01*
X151686708Y-121944048D01*
X150801189Y-122872681D01*
X149872556Y-123758200D01*
X148902509Y-124598906D01*
X147892746Y-125393099D01*
X146844968Y-126139079D01*
X145760874Y-126835147D01*
X144642163Y-127479603D01*
X143490535Y-128070749D01*
X142307689Y-128606884D01*
X141095325Y-129086309D01*
X139855143Y-129507325D01*
X138588841Y-129868232D01*
X137298120Y-130167330D01*
X135984678Y-130402921D01*
X134650216Y-130573304D01*
X133296433Y-130676780D01*
X131925027Y-130711649D01*
X130553623Y-130676780D01*
X129199840Y-130573303D01*
X127865378Y-130402920D01*
X126551937Y-130167330D01*
X125261216Y-129868231D01*
X123994915Y-129507324D01*
X122754733Y-129086308D01*
X121542369Y-128606882D01*
X120359524Y-128070746D01*
X119207896Y-127479600D01*
X118089186Y-126835143D01*
X117005091Y-126139074D01*
X115957313Y-125393094D01*
X114947551Y-124598900D01*
X113977504Y-123758194D01*
X113048871Y-122872674D01*
X112163352Y-121944041D01*
X111322646Y-120973992D01*
X110528454Y-119964229D01*
X109782474Y-118916450D01*
X109086406Y-117832355D01*
X108441950Y-116713644D01*
X107850805Y-115562015D01*
X107314670Y-114379169D01*
X106835245Y-113166805D01*
X106414229Y-111926622D01*
X106053322Y-110660321D01*
X105754224Y-109369599D01*
X105518634Y-108056158D01*
X105348251Y-106721696D01*
X105244775Y-105367913D01*
X105209905Y-103996508D01*
X105210803Y-103961215D01*
X106656827Y-103961215D01*
X106689750Y-105260159D01*
X106787453Y-106542206D01*
X106948342Y-107805759D01*
X107170818Y-109049221D01*
X107453288Y-110270997D01*
X107794154Y-111469491D01*
X108191820Y-112643107D01*
X108644691Y-113790248D01*
X109151170Y-114909318D01*
X109709661Y-115998721D01*
X110318568Y-117056862D01*
X110976296Y-118082144D01*
X111681246Y-119072970D01*
X112431825Y-120027746D01*
X113226435Y-120944874D01*
X114063481Y-121822759D01*
X114941366Y-122659805D01*
X115858495Y-123454415D01*
X116813270Y-124204993D01*
X117804097Y-124909944D01*
X118829379Y-125567671D01*
X119887520Y-126176578D01*
X120976923Y-126735069D01*
X122095994Y-127241547D01*
X123243135Y-127694418D01*
X124416750Y-128092084D01*
X125615244Y-128432950D01*
X126837021Y-128715420D01*
X128080483Y-128937897D01*
X129344036Y-129098785D01*
X130626083Y-129196488D01*
X131925027Y-129229411D01*
X133220868Y-129196488D01*
X134500204Y-129098785D01*
X135761421Y-128937897D01*
X137002903Y-128715420D01*
X138223035Y-128432950D01*
X139420202Y-128092084D01*
X140592787Y-127694418D01*
X141739175Y-127241547D01*
X142857752Y-126735069D01*
X143946900Y-126176578D01*
X145005006Y-125567671D01*
X146030452Y-124909944D01*
X147021625Y-124204993D01*
X147976908Y-123454415D01*
X148894686Y-122659805D01*
X149773344Y-121822759D01*
X150611265Y-120944874D01*
X151406835Y-120027746D01*
X152158438Y-119072970D01*
X152864458Y-118082144D01*
X153523280Y-117056862D01*
X154133289Y-115998721D01*
X154692869Y-114909318D01*
X155200405Y-113790248D01*
X155654280Y-112643107D01*
X156052880Y-111469491D01*
X156394590Y-110270997D01*
X156677793Y-109049221D01*
X156900874Y-107805759D01*
X157062218Y-106542206D01*
X157160208Y-105260159D01*
X157193231Y-103961215D01*
X157160309Y-102662270D01*
X157062605Y-101380224D01*
X156901717Y-100116672D01*
X156679240Y-98873210D01*
X156396770Y-97651434D01*
X156055904Y-96452941D01*
X155658238Y-95279325D01*
X155205367Y-94132185D01*
X154698888Y-93013115D01*
X154140396Y-91923711D01*
X153531489Y-90865570D01*
X152873762Y-89840289D01*
X152168811Y-88849462D01*
X151418232Y-87894686D01*
X150623622Y-86977558D01*
X149786576Y-86099673D01*
X148908690Y-85262627D01*
X147991562Y-84468017D01*
X147036786Y-83717438D01*
X146045959Y-83012487D01*
X145020677Y-82354760D01*
X143962536Y-81745853D01*
X142873132Y-81187362D01*
X141754062Y-80680883D01*
X140606920Y-80228012D01*
X139433305Y-79830345D01*
X138234811Y-79489479D01*
X137013034Y-79207010D01*
X135769572Y-78984533D01*
X134506019Y-78823644D01*
X133223972Y-78725941D01*
X131925027Y-78693018D01*
X130626083Y-78725941D01*
X129344036Y-78823644D01*
X128080483Y-78984533D01*
X126837021Y-79207010D01*
X125615244Y-79489479D01*
X124416750Y-79830345D01*
X123243135Y-80228012D01*
X122095994Y-80680883D01*
X120976923Y-81187362D01*
X119887520Y-81745853D01*
X118829379Y-82354760D01*
X117804097Y-83012487D01*
X116813270Y-83717438D01*
X115858495Y-84468017D01*
X114941366Y-85262627D01*
X114063481Y-86099673D01*
X113226435Y-86977558D01*
X112431825Y-87894686D01*
X111681246Y-88849462D01*
X110976296Y-89840289D01*
X110318568Y-90865570D01*
X109709661Y-91923711D01*
X109151170Y-93013115D01*
X108644691Y-94132185D01*
X108191820Y-95279325D01*
X107794154Y-96452941D01*
X107453288Y-97651434D01*
X107170818Y-98873210D01*
X106948342Y-100116672D01*
X106787453Y-101380224D01*
X106689750Y-102662270D01*
X106656827Y-103961215D01*
X105210803Y-103961215D01*
X105244775Y-102625104D01*
X105348251Y-101271322D01*
X105518634Y-99936861D01*
X105754224Y-98623420D01*
X106053323Y-97332700D01*
X106414229Y-96066399D01*
X106835245Y-94826217D01*
X107314670Y-93613854D01*
X107850805Y-92431009D01*
X108441951Y-91279381D01*
X109086407Y-90160671D01*
X109782475Y-89076577D01*
X110528455Y-88028799D01*
X111322648Y-87019036D01*
X112163353Y-86048989D01*
X113048872Y-85120356D01*
X113977505Y-84234837D01*
X114947553Y-83394132D01*
X115957315Y-82599939D01*
X117005093Y-81853960D01*
X118089187Y-81157892D01*
X119207898Y-80513435D01*
X120359526Y-79922290D01*
X121542371Y-79386155D01*
X122754734Y-78906730D01*
X123994916Y-78485714D01*
X125261218Y-78124807D01*
X126551938Y-77825709D01*
X127865379Y-77590118D01*
X129199841Y-77419736D01*
X130553623Y-77316259D01*
X131925027Y-77281390D01*
X131925027Y-77281397D01*
G37*
D10*
X84259000Y-111083500D02*
X84259000Y-111668500D01*
D12*
X82459987Y-69300000D02*
G75*
G02*
X81890013Y-69300000I-284987J0D01*
G01*
X81890013Y-69300000D02*
G75*
G02*
X82459987Y-69300000I284987J0D01*
G01*
D10*
X84550000Y-111375000D02*
X83965000Y-111375000D01*
X90537000Y-101998000D02*
X89468000Y-101998000D01*
D13*
X143043000Y-118997000D02*
X143043000Y-116440000D01*
D10*
X82669975Y-58800000D02*
G75*
G02*
X81680025Y-58800000I-494975J0D01*
G01*
X81680025Y-58800000D02*
G75*
G02*
X82669975Y-58800000I494975J0D01*
G01*
X90502000Y-105352000D02*
X89433000Y-105352000D01*
X89991000Y-101447000D02*
X89991000Y-102516000D01*
D14*
X85391497Y-68122085D02*
X85591497Y-68122085D01*
X85677211Y-68436371D02*
X85391497Y-68436371D01*
X85391497Y-68436371D02*
X85391497Y-67836371D01*
X85391497Y-67836371D02*
X85677211Y-67836371D01*
X85934354Y-68436371D02*
X85934354Y-67836371D01*
X85934354Y-67836371D02*
X86277211Y-68436371D01*
X86277211Y-68436371D02*
X86277211Y-67836371D01*
X86905782Y-68379228D02*
X86877210Y-68407800D01*
X86877210Y-68407800D02*
X86791496Y-68436371D01*
X86791496Y-68436371D02*
X86734353Y-68436371D01*
X86734353Y-68436371D02*
X86648639Y-68407800D01*
X86648639Y-68407800D02*
X86591496Y-68350657D01*
X86591496Y-68350657D02*
X86562925Y-68293514D01*
X86562925Y-68293514D02*
X86534353Y-68179228D01*
X86534353Y-68179228D02*
X86534353Y-68093514D01*
X86534353Y-68093514D02*
X86562925Y-67979228D01*
X86562925Y-67979228D02*
X86591496Y-67922085D01*
X86591496Y-67922085D02*
X86648639Y-67864942D01*
X86648639Y-67864942D02*
X86734353Y-67836371D01*
X86734353Y-67836371D02*
X86791496Y-67836371D01*
X86791496Y-67836371D02*
X86877210Y-67864942D01*
X86877210Y-67864942D02*
X86905782Y-67893514D01*
X87591496Y-68264942D02*
X87877211Y-68264942D01*
X87534353Y-68436371D02*
X87734353Y-67836371D01*
X87734353Y-67836371D02*
X87934353Y-68436371D01*
X88134354Y-68207800D02*
X88591497Y-68207800D01*
X88877211Y-68207800D02*
X89334354Y-68207800D01*
D13*
X136969341Y-116188626D02*
X137078199Y-116224911D01*
X137078199Y-116224911D02*
X137259627Y-116224911D01*
X137259627Y-116224911D02*
X137332199Y-116188626D01*
X137332199Y-116188626D02*
X137368484Y-116152340D01*
X137368484Y-116152340D02*
X137404770Y-116079768D01*
X137404770Y-116079768D02*
X137404770Y-116007197D01*
X137404770Y-116007197D02*
X137368484Y-115934626D01*
X137368484Y-115934626D02*
X137332199Y-115898340D01*
X137332199Y-115898340D02*
X137259627Y-115862054D01*
X137259627Y-115862054D02*
X137114484Y-115825768D01*
X137114484Y-115825768D02*
X137041913Y-115789483D01*
X137041913Y-115789483D02*
X137005627Y-115753197D01*
X137005627Y-115753197D02*
X136969341Y-115680626D01*
X136969341Y-115680626D02*
X136969341Y-115608054D01*
X136969341Y-115608054D02*
X137005627Y-115535483D01*
X137005627Y-115535483D02*
X137041913Y-115499197D01*
X137041913Y-115499197D02*
X137114484Y-115462911D01*
X137114484Y-115462911D02*
X137295913Y-115462911D01*
X137295913Y-115462911D02*
X137404770Y-115499197D01*
X137731341Y-116224911D02*
X137731341Y-115462911D01*
X137731341Y-115462911D02*
X137912770Y-115462911D01*
X137912770Y-115462911D02*
X138021627Y-115499197D01*
X138021627Y-115499197D02*
X138094198Y-115571768D01*
X138094198Y-115571768D02*
X138130484Y-115644340D01*
X138130484Y-115644340D02*
X138166770Y-115789483D01*
X138166770Y-115789483D02*
X138166770Y-115898340D01*
X138166770Y-115898340D02*
X138130484Y-116043483D01*
X138130484Y-116043483D02*
X138094198Y-116116054D01*
X138094198Y-116116054D02*
X138021627Y-116188626D01*
X138021627Y-116188626D02*
X137912770Y-116224911D01*
X137912770Y-116224911D02*
X137731341Y-116224911D01*
X138457055Y-116007197D02*
X138819913Y-116007197D01*
X138384484Y-116224911D02*
X138638484Y-115462911D01*
X138638484Y-115462911D02*
X138892484Y-116224911D01*
D14*
X106051646Y-85977800D02*
X106508789Y-85977800D01*
X106794503Y-85977800D02*
X107251646Y-85977800D01*
X107508788Y-86034942D02*
X107794503Y-86034942D01*
X107451645Y-86206371D02*
X107651645Y-85606371D01*
X107651645Y-85606371D02*
X107851645Y-86206371D01*
X108051646Y-85606371D02*
X108051646Y-86092085D01*
X108051646Y-86092085D02*
X108080217Y-86149228D01*
X108080217Y-86149228D02*
X108108789Y-86177800D01*
X108108789Y-86177800D02*
X108165931Y-86206371D01*
X108165931Y-86206371D02*
X108280217Y-86206371D01*
X108280217Y-86206371D02*
X108337360Y-86177800D01*
X108337360Y-86177800D02*
X108365931Y-86149228D01*
X108365931Y-86149228D02*
X108394503Y-86092085D01*
X108394503Y-86092085D02*
X108394503Y-85606371D01*
X108680217Y-86206371D02*
X108680217Y-85606371D01*
X108680217Y-85606371D02*
X108823074Y-85606371D01*
X108823074Y-85606371D02*
X108908788Y-85634942D01*
X108908788Y-85634942D02*
X108965931Y-85692085D01*
X108965931Y-85692085D02*
X108994502Y-85749228D01*
X108994502Y-85749228D02*
X109023074Y-85863514D01*
X109023074Y-85863514D02*
X109023074Y-85949228D01*
X109023074Y-85949228D02*
X108994502Y-86063514D01*
X108994502Y-86063514D02*
X108965931Y-86120657D01*
X108965931Y-86120657D02*
X108908788Y-86177800D01*
X108908788Y-86177800D02*
X108823074Y-86206371D01*
X108823074Y-86206371D02*
X108680217Y-86206371D01*
X109280217Y-86206371D02*
X109280217Y-85606371D01*
X109680216Y-85606371D02*
X109794502Y-85606371D01*
X109794502Y-85606371D02*
X109851645Y-85634942D01*
X109851645Y-85634942D02*
X109908788Y-85692085D01*
X109908788Y-85692085D02*
X109937359Y-85806371D01*
X109937359Y-85806371D02*
X109937359Y-86006371D01*
X109937359Y-86006371D02*
X109908788Y-86120657D01*
X109908788Y-86120657D02*
X109851645Y-86177800D01*
X109851645Y-86177800D02*
X109794502Y-86206371D01*
X109794502Y-86206371D02*
X109680216Y-86206371D01*
X109680216Y-86206371D02*
X109623074Y-86177800D01*
X109623074Y-86177800D02*
X109565931Y-86120657D01*
X109565931Y-86120657D02*
X109537359Y-86006371D01*
X109537359Y-86006371D02*
X109537359Y-85806371D01*
X109537359Y-85806371D02*
X109565931Y-85692085D01*
X109565931Y-85692085D02*
X109623074Y-85634942D01*
X109623074Y-85634942D02*
X109680216Y-85606371D01*
X106051646Y-80897800D02*
X106508789Y-80897800D01*
X106794503Y-80897800D02*
X107251646Y-80897800D01*
X107880217Y-81126371D02*
X107680217Y-80840657D01*
X107537360Y-81126371D02*
X107537360Y-80526371D01*
X107537360Y-80526371D02*
X107765931Y-80526371D01*
X107765931Y-80526371D02*
X107823074Y-80554942D01*
X107823074Y-80554942D02*
X107851645Y-80583514D01*
X107851645Y-80583514D02*
X107880217Y-80640657D01*
X107880217Y-80640657D02*
X107880217Y-80726371D01*
X107880217Y-80726371D02*
X107851645Y-80783514D01*
X107851645Y-80783514D02*
X107823074Y-80812085D01*
X107823074Y-80812085D02*
X107765931Y-80840657D01*
X107765931Y-80840657D02*
X107537360Y-80840657D01*
X108251645Y-80526371D02*
X108365931Y-80526371D01*
X108365931Y-80526371D02*
X108423074Y-80554942D01*
X108423074Y-80554942D02*
X108480217Y-80612085D01*
X108480217Y-80612085D02*
X108508788Y-80726371D01*
X108508788Y-80726371D02*
X108508788Y-80926371D01*
X108508788Y-80926371D02*
X108480217Y-81040657D01*
X108480217Y-81040657D02*
X108423074Y-81097800D01*
X108423074Y-81097800D02*
X108365931Y-81126371D01*
X108365931Y-81126371D02*
X108251645Y-81126371D01*
X108251645Y-81126371D02*
X108194503Y-81097800D01*
X108194503Y-81097800D02*
X108137360Y-81040657D01*
X108137360Y-81040657D02*
X108108788Y-80926371D01*
X108108788Y-80926371D02*
X108108788Y-80726371D01*
X108108788Y-80726371D02*
X108137360Y-80612085D01*
X108137360Y-80612085D02*
X108194503Y-80554942D01*
X108194503Y-80554942D02*
X108251645Y-80526371D01*
X108708788Y-80526371D02*
X108851645Y-81126371D01*
X108851645Y-81126371D02*
X108965931Y-80697800D01*
X108965931Y-80697800D02*
X109080216Y-81126371D01*
X109080216Y-81126371D02*
X109223074Y-80526371D01*
X109423073Y-80583514D02*
X109451645Y-80554942D01*
X109451645Y-80554942D02*
X109508788Y-80526371D01*
X109508788Y-80526371D02*
X109651645Y-80526371D01*
X109651645Y-80526371D02*
X109708788Y-80554942D01*
X109708788Y-80554942D02*
X109737359Y-80583514D01*
X109737359Y-80583514D02*
X109765930Y-80640657D01*
X109765930Y-80640657D02*
X109765930Y-80697800D01*
X109765930Y-80697800D02*
X109737359Y-80783514D01*
X109737359Y-80783514D02*
X109394502Y-81126371D01*
X109394502Y-81126371D02*
X109765930Y-81126371D01*
D13*
X99618715Y-103236197D02*
X99546144Y-103199911D01*
X99546144Y-103199911D02*
X99437286Y-103199911D01*
X99437286Y-103199911D02*
X99328429Y-103236197D01*
X99328429Y-103236197D02*
X99255858Y-103308768D01*
X99255858Y-103308768D02*
X99219572Y-103381340D01*
X99219572Y-103381340D02*
X99183286Y-103526483D01*
X99183286Y-103526483D02*
X99183286Y-103635340D01*
X99183286Y-103635340D02*
X99219572Y-103780483D01*
X99219572Y-103780483D02*
X99255858Y-103853054D01*
X99255858Y-103853054D02*
X99328429Y-103925626D01*
X99328429Y-103925626D02*
X99437286Y-103961911D01*
X99437286Y-103961911D02*
X99509858Y-103961911D01*
X99509858Y-103961911D02*
X99618715Y-103925626D01*
X99618715Y-103925626D02*
X99655001Y-103889340D01*
X99655001Y-103889340D02*
X99655001Y-103635340D01*
X99655001Y-103635340D02*
X99509858Y-103635340D01*
X99981572Y-103961911D02*
X99981572Y-103199911D01*
X99981572Y-103199911D02*
X100417001Y-103961911D01*
X100417001Y-103961911D02*
X100417001Y-103199911D01*
X100779858Y-103961911D02*
X100779858Y-103199911D01*
X100779858Y-103199911D02*
X100961287Y-103199911D01*
X100961287Y-103199911D02*
X101070144Y-103236197D01*
X101070144Y-103236197D02*
X101142715Y-103308768D01*
X101142715Y-103308768D02*
X101179001Y-103381340D01*
X101179001Y-103381340D02*
X101215287Y-103526483D01*
X101215287Y-103526483D02*
X101215287Y-103635340D01*
X101215287Y-103635340D02*
X101179001Y-103780483D01*
X101179001Y-103780483D02*
X101142715Y-103853054D01*
X101142715Y-103853054D02*
X101070144Y-103925626D01*
X101070144Y-103925626D02*
X100961287Y-103961911D01*
X100961287Y-103961911D02*
X100779858Y-103961911D01*
D10*
X107588095Y-100462295D02*
X107740476Y-100462295D01*
X107740476Y-100462295D02*
X107816666Y-100500390D01*
X107816666Y-100500390D02*
X107892857Y-100576580D01*
X107892857Y-100576580D02*
X107930952Y-100728961D01*
X107930952Y-100728961D02*
X107930952Y-100995628D01*
X107930952Y-100995628D02*
X107892857Y-101148009D01*
X107892857Y-101148009D02*
X107816666Y-101224200D01*
X107816666Y-101224200D02*
X107740476Y-101262295D01*
X107740476Y-101262295D02*
X107588095Y-101262295D01*
X107588095Y-101262295D02*
X107511904Y-101224200D01*
X107511904Y-101224200D02*
X107435714Y-101148009D01*
X107435714Y-101148009D02*
X107397618Y-100995628D01*
X107397618Y-100995628D02*
X107397618Y-100728961D01*
X107397618Y-100728961D02*
X107435714Y-100576580D01*
X107435714Y-100576580D02*
X107511904Y-100500390D01*
X107511904Y-100500390D02*
X107588095Y-100462295D01*
X108654761Y-101262295D02*
X108273809Y-101262295D01*
X108273809Y-101262295D02*
X108273809Y-100462295D01*
X108921428Y-100843247D02*
X109188094Y-100843247D01*
X109302380Y-101262295D02*
X108921428Y-101262295D01*
X108921428Y-101262295D02*
X108921428Y-100462295D01*
X108921428Y-100462295D02*
X109302380Y-100462295D01*
X109645238Y-101262295D02*
X109645238Y-100462295D01*
X109645238Y-100462295D02*
X109835714Y-100462295D01*
X109835714Y-100462295D02*
X109950000Y-100500390D01*
X109950000Y-100500390D02*
X110026190Y-100576580D01*
X110026190Y-100576580D02*
X110064285Y-100652771D01*
X110064285Y-100652771D02*
X110102381Y-100805152D01*
X110102381Y-100805152D02*
X110102381Y-100919438D01*
X110102381Y-100919438D02*
X110064285Y-101071819D01*
X110064285Y-101071819D02*
X110026190Y-101148009D01*
X110026190Y-101148009D02*
X109950000Y-101224200D01*
X109950000Y-101224200D02*
X109835714Y-101262295D01*
X109835714Y-101262295D02*
X109645238Y-101262295D01*
D13*
X141933340Y-115462911D02*
X142187340Y-116224911D01*
X142187340Y-116224911D02*
X142441340Y-115462911D01*
X143130769Y-116152340D02*
X143094483Y-116188626D01*
X143094483Y-116188626D02*
X142985626Y-116224911D01*
X142985626Y-116224911D02*
X142913054Y-116224911D01*
X142913054Y-116224911D02*
X142804197Y-116188626D01*
X142804197Y-116188626D02*
X142731626Y-116116054D01*
X142731626Y-116116054D02*
X142695340Y-116043483D01*
X142695340Y-116043483D02*
X142659054Y-115898340D01*
X142659054Y-115898340D02*
X142659054Y-115789483D01*
X142659054Y-115789483D02*
X142695340Y-115644340D01*
X142695340Y-115644340D02*
X142731626Y-115571768D01*
X142731626Y-115571768D02*
X142804197Y-115499197D01*
X142804197Y-115499197D02*
X142913054Y-115462911D01*
X142913054Y-115462911D02*
X142985626Y-115462911D01*
X142985626Y-115462911D02*
X143094483Y-115499197D01*
X143094483Y-115499197D02*
X143130769Y-115535483D01*
X143892769Y-116152340D02*
X143856483Y-116188626D01*
X143856483Y-116188626D02*
X143747626Y-116224911D01*
X143747626Y-116224911D02*
X143675054Y-116224911D01*
X143675054Y-116224911D02*
X143566197Y-116188626D01*
X143566197Y-116188626D02*
X143493626Y-116116054D01*
X143493626Y-116116054D02*
X143457340Y-116043483D01*
X143457340Y-116043483D02*
X143421054Y-115898340D01*
X143421054Y-115898340D02*
X143421054Y-115789483D01*
X143421054Y-115789483D02*
X143457340Y-115644340D01*
X143457340Y-115644340D02*
X143493626Y-115571768D01*
X143493626Y-115571768D02*
X143566197Y-115499197D01*
X143566197Y-115499197D02*
X143675054Y-115462911D01*
X143675054Y-115462911D02*
X143747626Y-115462911D01*
X143747626Y-115462911D02*
X143856483Y-115499197D01*
X143856483Y-115499197D02*
X143892769Y-115535483D01*
D10*
X86679761Y-107468247D02*
X86794047Y-107506342D01*
X86794047Y-107506342D02*
X86832142Y-107544438D01*
X86832142Y-107544438D02*
X86870238Y-107620628D01*
X86870238Y-107620628D02*
X86870238Y-107734914D01*
X86870238Y-107734914D02*
X86832142Y-107811104D01*
X86832142Y-107811104D02*
X86794047Y-107849200D01*
X86794047Y-107849200D02*
X86717857Y-107887295D01*
X86717857Y-107887295D02*
X86413095Y-107887295D01*
X86413095Y-107887295D02*
X86413095Y-107087295D01*
X86413095Y-107087295D02*
X86679761Y-107087295D01*
X86679761Y-107087295D02*
X86755952Y-107125390D01*
X86755952Y-107125390D02*
X86794047Y-107163485D01*
X86794047Y-107163485D02*
X86832142Y-107239676D01*
X86832142Y-107239676D02*
X86832142Y-107315866D01*
X86832142Y-107315866D02*
X86794047Y-107392057D01*
X86794047Y-107392057D02*
X86755952Y-107430152D01*
X86755952Y-107430152D02*
X86679761Y-107468247D01*
X86679761Y-107468247D02*
X86413095Y-107468247D01*
X87174999Y-107658723D02*
X87555952Y-107658723D01*
X87098809Y-107887295D02*
X87365476Y-107087295D01*
X87365476Y-107087295D02*
X87632142Y-107887295D01*
X87784523Y-107087295D02*
X88241666Y-107087295D01*
X88013094Y-107887295D02*
X88013094Y-107087295D01*
X88394047Y-107087295D02*
X88851190Y-107087295D01*
X88622618Y-107887295D02*
X88622618Y-107087295D01*
D13*
X199106571Y-54359626D02*
X199215429Y-54395911D01*
X199215429Y-54395911D02*
X199396857Y-54395911D01*
X199396857Y-54395911D02*
X199469429Y-54359626D01*
X199469429Y-54359626D02*
X199505714Y-54323340D01*
X199505714Y-54323340D02*
X199542000Y-54250768D01*
X199542000Y-54250768D02*
X199542000Y-54178197D01*
X199542000Y-54178197D02*
X199505714Y-54105626D01*
X199505714Y-54105626D02*
X199469429Y-54069340D01*
X199469429Y-54069340D02*
X199396857Y-54033054D01*
X199396857Y-54033054D02*
X199251714Y-53996768D01*
X199251714Y-53996768D02*
X199179143Y-53960483D01*
X199179143Y-53960483D02*
X199142857Y-53924197D01*
X199142857Y-53924197D02*
X199106571Y-53851626D01*
X199106571Y-53851626D02*
X199106571Y-53779054D01*
X199106571Y-53779054D02*
X199142857Y-53706483D01*
X199142857Y-53706483D02*
X199179143Y-53670197D01*
X199179143Y-53670197D02*
X199251714Y-53633911D01*
X199251714Y-53633911D02*
X199433143Y-53633911D01*
X199433143Y-53633911D02*
X199542000Y-53670197D01*
X200304000Y-54323340D02*
X200267714Y-54359626D01*
X200267714Y-54359626D02*
X200158857Y-54395911D01*
X200158857Y-54395911D02*
X200086285Y-54395911D01*
X200086285Y-54395911D02*
X199977428Y-54359626D01*
X199977428Y-54359626D02*
X199904857Y-54287054D01*
X199904857Y-54287054D02*
X199868571Y-54214483D01*
X199868571Y-54214483D02*
X199832285Y-54069340D01*
X199832285Y-54069340D02*
X199832285Y-53960483D01*
X199832285Y-53960483D02*
X199868571Y-53815340D01*
X199868571Y-53815340D02*
X199904857Y-53742768D01*
X199904857Y-53742768D02*
X199977428Y-53670197D01*
X199977428Y-53670197D02*
X200086285Y-53633911D01*
X200086285Y-53633911D02*
X200158857Y-53633911D01*
X200158857Y-53633911D02*
X200267714Y-53670197D01*
X200267714Y-53670197D02*
X200304000Y-53706483D01*
X200993428Y-54395911D02*
X200630571Y-54395911D01*
X200630571Y-54395911D02*
X200630571Y-53633911D01*
D14*
X86334353Y-65296371D02*
X86534353Y-65896371D01*
X86534353Y-65896371D02*
X86734353Y-65296371D01*
X87277211Y-65839228D02*
X87248639Y-65867800D01*
X87248639Y-65867800D02*
X87162925Y-65896371D01*
X87162925Y-65896371D02*
X87105782Y-65896371D01*
X87105782Y-65896371D02*
X87020068Y-65867800D01*
X87020068Y-65867800D02*
X86962925Y-65810657D01*
X86962925Y-65810657D02*
X86934354Y-65753514D01*
X86934354Y-65753514D02*
X86905782Y-65639228D01*
X86905782Y-65639228D02*
X86905782Y-65553514D01*
X86905782Y-65553514D02*
X86934354Y-65439228D01*
X86934354Y-65439228D02*
X86962925Y-65382085D01*
X86962925Y-65382085D02*
X87020068Y-65324942D01*
X87020068Y-65324942D02*
X87105782Y-65296371D01*
X87105782Y-65296371D02*
X87162925Y-65296371D01*
X87162925Y-65296371D02*
X87248639Y-65324942D01*
X87248639Y-65324942D02*
X87277211Y-65353514D01*
X87877211Y-65839228D02*
X87848639Y-65867800D01*
X87848639Y-65867800D02*
X87762925Y-65896371D01*
X87762925Y-65896371D02*
X87705782Y-65896371D01*
X87705782Y-65896371D02*
X87620068Y-65867800D01*
X87620068Y-65867800D02*
X87562925Y-65810657D01*
X87562925Y-65810657D02*
X87534354Y-65753514D01*
X87534354Y-65753514D02*
X87505782Y-65639228D01*
X87505782Y-65639228D02*
X87505782Y-65553514D01*
X87505782Y-65553514D02*
X87534354Y-65439228D01*
X87534354Y-65439228D02*
X87562925Y-65382085D01*
X87562925Y-65382085D02*
X87620068Y-65324942D01*
X87620068Y-65324942D02*
X87705782Y-65296371D01*
X87705782Y-65296371D02*
X87762925Y-65296371D01*
X87762925Y-65296371D02*
X87848639Y-65324942D01*
X87848639Y-65324942D02*
X87877211Y-65353514D01*
X88134354Y-65667800D02*
X88591497Y-65667800D01*
X88877211Y-65667800D02*
X89334354Y-65667800D01*
D10*
X89666541Y-106355485D02*
X89752255Y-106384057D01*
X89752255Y-106384057D02*
X89780826Y-106412628D01*
X89780826Y-106412628D02*
X89809398Y-106469771D01*
X89809398Y-106469771D02*
X89809398Y-106555485D01*
X89809398Y-106555485D02*
X89780826Y-106612628D01*
X89780826Y-106612628D02*
X89752255Y-106641200D01*
X89752255Y-106641200D02*
X89695112Y-106669771D01*
X89695112Y-106669771D02*
X89466541Y-106669771D01*
X89466541Y-106669771D02*
X89466541Y-106069771D01*
X89466541Y-106069771D02*
X89666541Y-106069771D01*
X89666541Y-106069771D02*
X89723684Y-106098342D01*
X89723684Y-106098342D02*
X89752255Y-106126914D01*
X89752255Y-106126914D02*
X89780826Y-106184057D01*
X89780826Y-106184057D02*
X89780826Y-106241200D01*
X89780826Y-106241200D02*
X89752255Y-106298342D01*
X89752255Y-106298342D02*
X89723684Y-106326914D01*
X89723684Y-106326914D02*
X89666541Y-106355485D01*
X89666541Y-106355485D02*
X89466541Y-106355485D01*
X90352255Y-106669771D02*
X90066541Y-106669771D01*
X90066541Y-106669771D02*
X90066541Y-106069771D01*
X90552255Y-106669771D02*
X90552255Y-106069771D01*
X90895112Y-106669771D02*
X90637969Y-106326914D01*
X90895112Y-106069771D02*
X90552255Y-106412628D01*
D14*
X106051646Y-58037800D02*
X106508789Y-58037800D01*
X106794503Y-58037800D02*
X107251646Y-58037800D01*
X107823074Y-58266371D02*
X107537360Y-58266371D01*
X107537360Y-58266371D02*
X107537360Y-57666371D01*
X108023074Y-57952085D02*
X108223074Y-57952085D01*
X108308788Y-58266371D02*
X108023074Y-58266371D01*
X108023074Y-58266371D02*
X108023074Y-57666371D01*
X108023074Y-57666371D02*
X108308788Y-57666371D01*
X108565931Y-58266371D02*
X108565931Y-57666371D01*
X108565931Y-57666371D02*
X108708788Y-57666371D01*
X108708788Y-57666371D02*
X108794502Y-57694942D01*
X108794502Y-57694942D02*
X108851645Y-57752085D01*
X108851645Y-57752085D02*
X108880216Y-57809228D01*
X108880216Y-57809228D02*
X108908788Y-57923514D01*
X108908788Y-57923514D02*
X108908788Y-58009228D01*
X108908788Y-58009228D02*
X108880216Y-58123514D01*
X108880216Y-58123514D02*
X108851645Y-58180657D01*
X108851645Y-58180657D02*
X108794502Y-58237800D01*
X108794502Y-58237800D02*
X108708788Y-58266371D01*
X108708788Y-58266371D02*
X108565931Y-58266371D01*
D13*
X194419428Y-53670197D02*
X194346857Y-53633911D01*
X194346857Y-53633911D02*
X194237999Y-53633911D01*
X194237999Y-53633911D02*
X194129142Y-53670197D01*
X194129142Y-53670197D02*
X194056571Y-53742768D01*
X194056571Y-53742768D02*
X194020285Y-53815340D01*
X194020285Y-53815340D02*
X193983999Y-53960483D01*
X193983999Y-53960483D02*
X193983999Y-54069340D01*
X193983999Y-54069340D02*
X194020285Y-54214483D01*
X194020285Y-54214483D02*
X194056571Y-54287054D01*
X194056571Y-54287054D02*
X194129142Y-54359626D01*
X194129142Y-54359626D02*
X194237999Y-54395911D01*
X194237999Y-54395911D02*
X194310571Y-54395911D01*
X194310571Y-54395911D02*
X194419428Y-54359626D01*
X194419428Y-54359626D02*
X194455714Y-54323340D01*
X194455714Y-54323340D02*
X194455714Y-54069340D01*
X194455714Y-54069340D02*
X194310571Y-54069340D01*
X194782285Y-54395911D02*
X194782285Y-53633911D01*
X194782285Y-53633911D02*
X195217714Y-54395911D01*
X195217714Y-54395911D02*
X195217714Y-53633911D01*
X195580571Y-54395911D02*
X195580571Y-53633911D01*
X195580571Y-53633911D02*
X195762000Y-53633911D01*
X195762000Y-53633911D02*
X195870857Y-53670197D01*
X195870857Y-53670197D02*
X195943428Y-53742768D01*
X195943428Y-53742768D02*
X195979714Y-53815340D01*
X195979714Y-53815340D02*
X196016000Y-53960483D01*
X196016000Y-53960483D02*
X196016000Y-54069340D01*
X196016000Y-54069340D02*
X195979714Y-54214483D01*
X195979714Y-54214483D02*
X195943428Y-54287054D01*
X195943428Y-54287054D02*
X195870857Y-54359626D01*
X195870857Y-54359626D02*
X195762000Y-54395911D01*
X195762000Y-54395911D02*
X195580571Y-54395911D01*
D14*
X86191497Y-86159228D02*
X86162925Y-86187800D01*
X86162925Y-86187800D02*
X86077211Y-86216371D01*
X86077211Y-86216371D02*
X86020068Y-86216371D01*
X86020068Y-86216371D02*
X85934354Y-86187800D01*
X85934354Y-86187800D02*
X85877211Y-86130657D01*
X85877211Y-86130657D02*
X85848640Y-86073514D01*
X85848640Y-86073514D02*
X85820068Y-85959228D01*
X85820068Y-85959228D02*
X85820068Y-85873514D01*
X85820068Y-85873514D02*
X85848640Y-85759228D01*
X85848640Y-85759228D02*
X85877211Y-85702085D01*
X85877211Y-85702085D02*
X85934354Y-85644942D01*
X85934354Y-85644942D02*
X86020068Y-85616371D01*
X86020068Y-85616371D02*
X86077211Y-85616371D01*
X86077211Y-85616371D02*
X86162925Y-85644942D01*
X86162925Y-85644942D02*
X86191497Y-85673514D01*
X86562925Y-85616371D02*
X86677211Y-85616371D01*
X86677211Y-85616371D02*
X86734354Y-85644942D01*
X86734354Y-85644942D02*
X86791497Y-85702085D01*
X86791497Y-85702085D02*
X86820068Y-85816371D01*
X86820068Y-85816371D02*
X86820068Y-86016371D01*
X86820068Y-86016371D02*
X86791497Y-86130657D01*
X86791497Y-86130657D02*
X86734354Y-86187800D01*
X86734354Y-86187800D02*
X86677211Y-86216371D01*
X86677211Y-86216371D02*
X86562925Y-86216371D01*
X86562925Y-86216371D02*
X86505783Y-86187800D01*
X86505783Y-86187800D02*
X86448640Y-86130657D01*
X86448640Y-86130657D02*
X86420068Y-86016371D01*
X86420068Y-86016371D02*
X86420068Y-85816371D01*
X86420068Y-85816371D02*
X86448640Y-85702085D01*
X86448640Y-85702085D02*
X86505783Y-85644942D01*
X86505783Y-85644942D02*
X86562925Y-85616371D01*
X87362925Y-86216371D02*
X87077211Y-86216371D01*
X87077211Y-86216371D02*
X87077211Y-85616371D01*
X87848639Y-85616371D02*
X87562925Y-85616371D01*
X87562925Y-85616371D02*
X87534353Y-85902085D01*
X87534353Y-85902085D02*
X87562925Y-85873514D01*
X87562925Y-85873514D02*
X87620068Y-85844942D01*
X87620068Y-85844942D02*
X87762925Y-85844942D01*
X87762925Y-85844942D02*
X87820068Y-85873514D01*
X87820068Y-85873514D02*
X87848639Y-85902085D01*
X87848639Y-85902085D02*
X87877210Y-85959228D01*
X87877210Y-85959228D02*
X87877210Y-86102085D01*
X87877210Y-86102085D02*
X87848639Y-86159228D01*
X87848639Y-86159228D02*
X87820068Y-86187800D01*
X87820068Y-86187800D02*
X87762925Y-86216371D01*
X87762925Y-86216371D02*
X87620068Y-86216371D01*
X87620068Y-86216371D02*
X87562925Y-86187800D01*
X87562925Y-86187800D02*
X87534353Y-86159228D01*
X88134354Y-85987800D02*
X88591497Y-85987800D01*
X88877211Y-85987800D02*
X89334354Y-85987800D01*
D10*
X96743318Y-78310839D02*
X95943318Y-78310839D01*
X95943318Y-78310839D02*
X96514746Y-78044173D01*
X96514746Y-78044173D02*
X95943318Y-77777506D01*
X95943318Y-77777506D02*
X96743318Y-77777506D01*
X95943318Y-77244172D02*
X95943318Y-77091791D01*
X95943318Y-77091791D02*
X95981413Y-77015601D01*
X95981413Y-77015601D02*
X96057603Y-76939410D01*
X96057603Y-76939410D02*
X96209984Y-76901315D01*
X96209984Y-76901315D02*
X96476651Y-76901315D01*
X96476651Y-76901315D02*
X96629032Y-76939410D01*
X96629032Y-76939410D02*
X96705223Y-77015601D01*
X96705223Y-77015601D02*
X96743318Y-77091791D01*
X96743318Y-77091791D02*
X96743318Y-77244172D01*
X96743318Y-77244172D02*
X96705223Y-77320363D01*
X96705223Y-77320363D02*
X96629032Y-77396553D01*
X96629032Y-77396553D02*
X96476651Y-77434649D01*
X96476651Y-77434649D02*
X96209984Y-77434649D01*
X96209984Y-77434649D02*
X96057603Y-77396553D01*
X96057603Y-77396553D02*
X95981413Y-77320363D01*
X95981413Y-77320363D02*
X95943318Y-77244172D01*
X95943318Y-76558458D02*
X96590937Y-76558458D01*
X96590937Y-76558458D02*
X96667127Y-76520363D01*
X96667127Y-76520363D02*
X96705223Y-76482268D01*
X96705223Y-76482268D02*
X96743318Y-76406077D01*
X96743318Y-76406077D02*
X96743318Y-76253696D01*
X96743318Y-76253696D02*
X96705223Y-76177506D01*
X96705223Y-76177506D02*
X96667127Y-76139411D01*
X96667127Y-76139411D02*
X96590937Y-76101315D01*
X96590937Y-76101315D02*
X95943318Y-76101315D01*
X96743318Y-75720363D02*
X95943318Y-75720363D01*
X95943318Y-75720363D02*
X96743318Y-75263220D01*
X96743318Y-75263220D02*
X95943318Y-75263220D01*
X95943318Y-74996554D02*
X95943318Y-74539411D01*
X96743318Y-74767983D02*
X95943318Y-74767983D01*
X96743318Y-73663220D02*
X95943318Y-73663220D01*
X95943318Y-73663220D02*
X96514746Y-73396554D01*
X96514746Y-73396554D02*
X95943318Y-73129887D01*
X95943318Y-73129887D02*
X96743318Y-73129887D01*
X96667127Y-72291791D02*
X96705223Y-72329887D01*
X96705223Y-72329887D02*
X96743318Y-72444172D01*
X96743318Y-72444172D02*
X96743318Y-72520363D01*
X96743318Y-72520363D02*
X96705223Y-72634649D01*
X96705223Y-72634649D02*
X96629032Y-72710839D01*
X96629032Y-72710839D02*
X96552842Y-72748934D01*
X96552842Y-72748934D02*
X96400461Y-72787030D01*
X96400461Y-72787030D02*
X96286175Y-72787030D01*
X96286175Y-72787030D02*
X96133794Y-72748934D01*
X96133794Y-72748934D02*
X96057603Y-72710839D01*
X96057603Y-72710839D02*
X95981413Y-72634649D01*
X95981413Y-72634649D02*
X95943318Y-72520363D01*
X95943318Y-72520363D02*
X95943318Y-72444172D01*
X95943318Y-72444172D02*
X95981413Y-72329887D01*
X95981413Y-72329887D02*
X96019508Y-72291791D01*
X95943318Y-71948934D02*
X96590937Y-71948934D01*
X96590937Y-71948934D02*
X96667127Y-71910839D01*
X96667127Y-71910839D02*
X96705223Y-71872744D01*
X96705223Y-71872744D02*
X96743318Y-71796553D01*
X96743318Y-71796553D02*
X96743318Y-71644172D01*
X96743318Y-71644172D02*
X96705223Y-71567982D01*
X96705223Y-71567982D02*
X96667127Y-71529887D01*
X96667127Y-71529887D02*
X96590937Y-71491791D01*
X96590937Y-71491791D02*
X95943318Y-71491791D01*
X95943318Y-70348934D02*
X95943318Y-70196553D01*
X95943318Y-70196553D02*
X95981413Y-70120363D01*
X95981413Y-70120363D02*
X96057603Y-70044172D01*
X96057603Y-70044172D02*
X96209984Y-70006077D01*
X96209984Y-70006077D02*
X96476651Y-70006077D01*
X96476651Y-70006077D02*
X96629032Y-70044172D01*
X96629032Y-70044172D02*
X96705223Y-70120363D01*
X96705223Y-70120363D02*
X96743318Y-70196553D01*
X96743318Y-70196553D02*
X96743318Y-70348934D01*
X96743318Y-70348934D02*
X96705223Y-70425125D01*
X96705223Y-70425125D02*
X96629032Y-70501315D01*
X96629032Y-70501315D02*
X96476651Y-70539411D01*
X96476651Y-70539411D02*
X96209984Y-70539411D01*
X96209984Y-70539411D02*
X96057603Y-70501315D01*
X96057603Y-70501315D02*
X95981413Y-70425125D01*
X95981413Y-70425125D02*
X95943318Y-70348934D01*
X96743318Y-69663220D02*
X95943318Y-69663220D01*
X95943318Y-69663220D02*
X96743318Y-69206077D01*
X96743318Y-69206077D02*
X95943318Y-69206077D01*
X96324270Y-67948935D02*
X96362365Y-67834649D01*
X96362365Y-67834649D02*
X96400461Y-67796554D01*
X96400461Y-67796554D02*
X96476651Y-67758458D01*
X96476651Y-67758458D02*
X96590937Y-67758458D01*
X96590937Y-67758458D02*
X96667127Y-67796554D01*
X96667127Y-67796554D02*
X96705223Y-67834649D01*
X96705223Y-67834649D02*
X96743318Y-67910839D01*
X96743318Y-67910839D02*
X96743318Y-68215601D01*
X96743318Y-68215601D02*
X95943318Y-68215601D01*
X95943318Y-68215601D02*
X95943318Y-67948935D01*
X95943318Y-67948935D02*
X95981413Y-67872744D01*
X95981413Y-67872744D02*
X96019508Y-67834649D01*
X96019508Y-67834649D02*
X96095699Y-67796554D01*
X96095699Y-67796554D02*
X96171889Y-67796554D01*
X96171889Y-67796554D02*
X96248080Y-67834649D01*
X96248080Y-67834649D02*
X96286175Y-67872744D01*
X96286175Y-67872744D02*
X96324270Y-67948935D01*
X96324270Y-67948935D02*
X96324270Y-68215601D01*
X95943318Y-67263220D02*
X95943318Y-67110839D01*
X95943318Y-67110839D02*
X95981413Y-67034649D01*
X95981413Y-67034649D02*
X96057603Y-66958458D01*
X96057603Y-66958458D02*
X96209984Y-66920363D01*
X96209984Y-66920363D02*
X96476651Y-66920363D01*
X96476651Y-66920363D02*
X96629032Y-66958458D01*
X96629032Y-66958458D02*
X96705223Y-67034649D01*
X96705223Y-67034649D02*
X96743318Y-67110839D01*
X96743318Y-67110839D02*
X96743318Y-67263220D01*
X96743318Y-67263220D02*
X96705223Y-67339411D01*
X96705223Y-67339411D02*
X96629032Y-67415601D01*
X96629032Y-67415601D02*
X96476651Y-67453697D01*
X96476651Y-67453697D02*
X96209984Y-67453697D01*
X96209984Y-67453697D02*
X96057603Y-67415601D01*
X96057603Y-67415601D02*
X95981413Y-67339411D01*
X95981413Y-67339411D02*
X95943318Y-67263220D01*
X95943318Y-66691792D02*
X95943318Y-66234649D01*
X96743318Y-66463221D02*
X95943318Y-66463221D01*
X95943318Y-66082268D02*
X95943318Y-65625125D01*
X96743318Y-65853697D02*
X95943318Y-65853697D01*
X95943318Y-65206077D02*
X95943318Y-65053696D01*
X95943318Y-65053696D02*
X95981413Y-64977506D01*
X95981413Y-64977506D02*
X96057603Y-64901315D01*
X96057603Y-64901315D02*
X96209984Y-64863220D01*
X96209984Y-64863220D02*
X96476651Y-64863220D01*
X96476651Y-64863220D02*
X96629032Y-64901315D01*
X96629032Y-64901315D02*
X96705223Y-64977506D01*
X96705223Y-64977506D02*
X96743318Y-65053696D01*
X96743318Y-65053696D02*
X96743318Y-65206077D01*
X96743318Y-65206077D02*
X96705223Y-65282268D01*
X96705223Y-65282268D02*
X96629032Y-65358458D01*
X96629032Y-65358458D02*
X96476651Y-65396554D01*
X96476651Y-65396554D02*
X96209984Y-65396554D01*
X96209984Y-65396554D02*
X96057603Y-65358458D01*
X96057603Y-65358458D02*
X95981413Y-65282268D01*
X95981413Y-65282268D02*
X95943318Y-65206077D01*
X96743318Y-64520363D02*
X95943318Y-64520363D01*
X95943318Y-64520363D02*
X96514746Y-64253697D01*
X96514746Y-64253697D02*
X95943318Y-63987030D01*
X95943318Y-63987030D02*
X96743318Y-63987030D01*
X97955082Y-77853696D02*
X97993178Y-77891792D01*
X97993178Y-77891792D02*
X98031273Y-78006077D01*
X98031273Y-78006077D02*
X98031273Y-78082268D01*
X98031273Y-78082268D02*
X97993178Y-78196554D01*
X97993178Y-78196554D02*
X97916987Y-78272744D01*
X97916987Y-78272744D02*
X97840797Y-78310839D01*
X97840797Y-78310839D02*
X97688416Y-78348935D01*
X97688416Y-78348935D02*
X97574130Y-78348935D01*
X97574130Y-78348935D02*
X97421749Y-78310839D01*
X97421749Y-78310839D02*
X97345558Y-78272744D01*
X97345558Y-78272744D02*
X97269368Y-78196554D01*
X97269368Y-78196554D02*
X97231273Y-78082268D01*
X97231273Y-78082268D02*
X97231273Y-78006077D01*
X97231273Y-78006077D02*
X97269368Y-77891792D01*
X97269368Y-77891792D02*
X97307463Y-77853696D01*
X97231273Y-77358458D02*
X97231273Y-77206077D01*
X97231273Y-77206077D02*
X97269368Y-77129887D01*
X97269368Y-77129887D02*
X97345558Y-77053696D01*
X97345558Y-77053696D02*
X97497939Y-77015601D01*
X97497939Y-77015601D02*
X97764606Y-77015601D01*
X97764606Y-77015601D02*
X97916987Y-77053696D01*
X97916987Y-77053696D02*
X97993178Y-77129887D01*
X97993178Y-77129887D02*
X98031273Y-77206077D01*
X98031273Y-77206077D02*
X98031273Y-77358458D01*
X98031273Y-77358458D02*
X97993178Y-77434649D01*
X97993178Y-77434649D02*
X97916987Y-77510839D01*
X97916987Y-77510839D02*
X97764606Y-77548935D01*
X97764606Y-77548935D02*
X97497939Y-77548935D01*
X97497939Y-77548935D02*
X97345558Y-77510839D01*
X97345558Y-77510839D02*
X97269368Y-77434649D01*
X97269368Y-77434649D02*
X97231273Y-77358458D01*
X98031273Y-76672744D02*
X97231273Y-76672744D01*
X97231273Y-76672744D02*
X97802701Y-76406078D01*
X97802701Y-76406078D02*
X97231273Y-76139411D01*
X97231273Y-76139411D02*
X98031273Y-76139411D01*
X98031273Y-75758458D02*
X97231273Y-75758458D01*
X97231273Y-75758458D02*
X97231273Y-75453696D01*
X97231273Y-75453696D02*
X97269368Y-75377506D01*
X97269368Y-75377506D02*
X97307463Y-75339411D01*
X97307463Y-75339411D02*
X97383654Y-75301315D01*
X97383654Y-75301315D02*
X97497939Y-75301315D01*
X97497939Y-75301315D02*
X97574130Y-75339411D01*
X97574130Y-75339411D02*
X97612225Y-75377506D01*
X97612225Y-75377506D02*
X97650320Y-75453696D01*
X97650320Y-75453696D02*
X97650320Y-75758458D01*
X97231273Y-74806077D02*
X97231273Y-74653696D01*
X97231273Y-74653696D02*
X97269368Y-74577506D01*
X97269368Y-74577506D02*
X97345558Y-74501315D01*
X97345558Y-74501315D02*
X97497939Y-74463220D01*
X97497939Y-74463220D02*
X97764606Y-74463220D01*
X97764606Y-74463220D02*
X97916987Y-74501315D01*
X97916987Y-74501315D02*
X97993178Y-74577506D01*
X97993178Y-74577506D02*
X98031273Y-74653696D01*
X98031273Y-74653696D02*
X98031273Y-74806077D01*
X98031273Y-74806077D02*
X97993178Y-74882268D01*
X97993178Y-74882268D02*
X97916987Y-74958458D01*
X97916987Y-74958458D02*
X97764606Y-74996554D01*
X97764606Y-74996554D02*
X97497939Y-74996554D01*
X97497939Y-74996554D02*
X97345558Y-74958458D01*
X97345558Y-74958458D02*
X97269368Y-74882268D01*
X97269368Y-74882268D02*
X97231273Y-74806077D01*
X98031273Y-74120363D02*
X97231273Y-74120363D01*
X97231273Y-74120363D02*
X98031273Y-73663220D01*
X98031273Y-73663220D02*
X97231273Y-73663220D01*
X97612225Y-73282268D02*
X97612225Y-73015602D01*
X98031273Y-72901316D02*
X98031273Y-73282268D01*
X98031273Y-73282268D02*
X97231273Y-73282268D01*
X97231273Y-73282268D02*
X97231273Y-72901316D01*
X98031273Y-72558458D02*
X97231273Y-72558458D01*
X97231273Y-72558458D02*
X98031273Y-72101315D01*
X98031273Y-72101315D02*
X97231273Y-72101315D01*
X97231273Y-71834649D02*
X97231273Y-71377506D01*
X98031273Y-71606078D02*
X97231273Y-71606078D01*
X97993178Y-71148935D02*
X98031273Y-71034649D01*
X98031273Y-71034649D02*
X98031273Y-70844173D01*
X98031273Y-70844173D02*
X97993178Y-70767982D01*
X97993178Y-70767982D02*
X97955082Y-70729887D01*
X97955082Y-70729887D02*
X97878892Y-70691792D01*
X97878892Y-70691792D02*
X97802701Y-70691792D01*
X97802701Y-70691792D02*
X97726511Y-70729887D01*
X97726511Y-70729887D02*
X97688416Y-70767982D01*
X97688416Y-70767982D02*
X97650320Y-70844173D01*
X97650320Y-70844173D02*
X97612225Y-70996554D01*
X97612225Y-70996554D02*
X97574130Y-71072744D01*
X97574130Y-71072744D02*
X97536035Y-71110839D01*
X97536035Y-71110839D02*
X97459844Y-71148935D01*
X97459844Y-71148935D02*
X97383654Y-71148935D01*
X97383654Y-71148935D02*
X97307463Y-71110839D01*
X97307463Y-71110839D02*
X97269368Y-71072744D01*
X97269368Y-71072744D02*
X97231273Y-70996554D01*
X97231273Y-70996554D02*
X97231273Y-70806077D01*
X97231273Y-70806077D02*
X97269368Y-70691792D01*
X97612225Y-69472744D02*
X97612225Y-69739410D01*
X98031273Y-69739410D02*
X97231273Y-69739410D01*
X97231273Y-69739410D02*
X97231273Y-69358458D01*
X97802701Y-69091792D02*
X97802701Y-68710839D01*
X98031273Y-69167982D02*
X97231273Y-68901315D01*
X97231273Y-68901315D02*
X98031273Y-68634649D01*
X97955082Y-67910839D02*
X97993178Y-67948935D01*
X97993178Y-67948935D02*
X98031273Y-68063220D01*
X98031273Y-68063220D02*
X98031273Y-68139411D01*
X98031273Y-68139411D02*
X97993178Y-68253697D01*
X97993178Y-68253697D02*
X97916987Y-68329887D01*
X97916987Y-68329887D02*
X97840797Y-68367982D01*
X97840797Y-68367982D02*
X97688416Y-68406078D01*
X97688416Y-68406078D02*
X97574130Y-68406078D01*
X97574130Y-68406078D02*
X97421749Y-68367982D01*
X97421749Y-68367982D02*
X97345558Y-68329887D01*
X97345558Y-68329887D02*
X97269368Y-68253697D01*
X97269368Y-68253697D02*
X97231273Y-68139411D01*
X97231273Y-68139411D02*
X97231273Y-68063220D01*
X97231273Y-68063220D02*
X97269368Y-67948935D01*
X97269368Y-67948935D02*
X97307463Y-67910839D01*
X98031273Y-67567982D02*
X97231273Y-67567982D01*
X98031273Y-67187030D02*
X97231273Y-67187030D01*
X97231273Y-67187030D02*
X98031273Y-66729887D01*
X98031273Y-66729887D02*
X97231273Y-66729887D01*
X97269368Y-65929888D02*
X97231273Y-66006078D01*
X97231273Y-66006078D02*
X97231273Y-66120364D01*
X97231273Y-66120364D02*
X97269368Y-66234650D01*
X97269368Y-66234650D02*
X97345558Y-66310840D01*
X97345558Y-66310840D02*
X97421749Y-66348935D01*
X97421749Y-66348935D02*
X97574130Y-66387031D01*
X97574130Y-66387031D02*
X97688416Y-66387031D01*
X97688416Y-66387031D02*
X97840797Y-66348935D01*
X97840797Y-66348935D02*
X97916987Y-66310840D01*
X97916987Y-66310840D02*
X97993178Y-66234650D01*
X97993178Y-66234650D02*
X98031273Y-66120364D01*
X98031273Y-66120364D02*
X98031273Y-66044173D01*
X98031273Y-66044173D02*
X97993178Y-65929888D01*
X97993178Y-65929888D02*
X97955082Y-65891792D01*
X97955082Y-65891792D02*
X97688416Y-65891792D01*
X97688416Y-65891792D02*
X97688416Y-66044173D01*
X98031273Y-64939411D02*
X97231273Y-64939411D01*
X97231273Y-64939411D02*
X97231273Y-64634649D01*
X97231273Y-64634649D02*
X97269368Y-64558459D01*
X97269368Y-64558459D02*
X97307463Y-64520364D01*
X97307463Y-64520364D02*
X97383654Y-64482268D01*
X97383654Y-64482268D02*
X97497939Y-64482268D01*
X97497939Y-64482268D02*
X97574130Y-64520364D01*
X97574130Y-64520364D02*
X97612225Y-64558459D01*
X97612225Y-64558459D02*
X97650320Y-64634649D01*
X97650320Y-64634649D02*
X97650320Y-64939411D01*
X97955082Y-63682268D02*
X97993178Y-63720364D01*
X97993178Y-63720364D02*
X98031273Y-63834649D01*
X98031273Y-63834649D02*
X98031273Y-63910840D01*
X98031273Y-63910840D02*
X97993178Y-64025126D01*
X97993178Y-64025126D02*
X97916987Y-64101316D01*
X97916987Y-64101316D02*
X97840797Y-64139411D01*
X97840797Y-64139411D02*
X97688416Y-64177507D01*
X97688416Y-64177507D02*
X97574130Y-64177507D01*
X97574130Y-64177507D02*
X97421749Y-64139411D01*
X97421749Y-64139411D02*
X97345558Y-64101316D01*
X97345558Y-64101316D02*
X97269368Y-64025126D01*
X97269368Y-64025126D02*
X97231273Y-63910840D01*
X97231273Y-63910840D02*
X97231273Y-63834649D01*
X97231273Y-63834649D02*
X97269368Y-63720364D01*
X97269368Y-63720364D02*
X97307463Y-63682268D01*
X97612225Y-63072745D02*
X97650320Y-62958459D01*
X97650320Y-62958459D02*
X97688416Y-62920364D01*
X97688416Y-62920364D02*
X97764606Y-62882268D01*
X97764606Y-62882268D02*
X97878892Y-62882268D01*
X97878892Y-62882268D02*
X97955082Y-62920364D01*
X97955082Y-62920364D02*
X97993178Y-62958459D01*
X97993178Y-62958459D02*
X98031273Y-63034649D01*
X98031273Y-63034649D02*
X98031273Y-63339411D01*
X98031273Y-63339411D02*
X97231273Y-63339411D01*
X97231273Y-63339411D02*
X97231273Y-63072745D01*
X97231273Y-63072745D02*
X97269368Y-62996554D01*
X97269368Y-62996554D02*
X97307463Y-62958459D01*
X97307463Y-62958459D02*
X97383654Y-62920364D01*
X97383654Y-62920364D02*
X97459844Y-62920364D01*
X97459844Y-62920364D02*
X97536035Y-62958459D01*
X97536035Y-62958459D02*
X97574130Y-62996554D01*
X97574130Y-62996554D02*
X97612225Y-63072745D01*
X97612225Y-63072745D02*
X97612225Y-63339411D01*
D14*
X86848639Y-63356371D02*
X86648639Y-63070657D01*
X86505782Y-63356371D02*
X86505782Y-62756371D01*
X86505782Y-62756371D02*
X86734353Y-62756371D01*
X86734353Y-62756371D02*
X86791496Y-62784942D01*
X86791496Y-62784942D02*
X86820067Y-62813514D01*
X86820067Y-62813514D02*
X86848639Y-62870657D01*
X86848639Y-62870657D02*
X86848639Y-62956371D01*
X86848639Y-62956371D02*
X86820067Y-63013514D01*
X86820067Y-63013514D02*
X86791496Y-63042085D01*
X86791496Y-63042085D02*
X86734353Y-63070657D01*
X86734353Y-63070657D02*
X86505782Y-63070657D01*
X87077210Y-63327800D02*
X87162925Y-63356371D01*
X87162925Y-63356371D02*
X87305782Y-63356371D01*
X87305782Y-63356371D02*
X87362925Y-63327800D01*
X87362925Y-63327800D02*
X87391496Y-63299228D01*
X87391496Y-63299228D02*
X87420067Y-63242085D01*
X87420067Y-63242085D02*
X87420067Y-63184942D01*
X87420067Y-63184942D02*
X87391496Y-63127800D01*
X87391496Y-63127800D02*
X87362925Y-63099228D01*
X87362925Y-63099228D02*
X87305782Y-63070657D01*
X87305782Y-63070657D02*
X87191496Y-63042085D01*
X87191496Y-63042085D02*
X87134353Y-63013514D01*
X87134353Y-63013514D02*
X87105782Y-62984942D01*
X87105782Y-62984942D02*
X87077210Y-62927800D01*
X87077210Y-62927800D02*
X87077210Y-62870657D01*
X87077210Y-62870657D02*
X87105782Y-62813514D01*
X87105782Y-62813514D02*
X87134353Y-62784942D01*
X87134353Y-62784942D02*
X87191496Y-62756371D01*
X87191496Y-62756371D02*
X87334353Y-62756371D01*
X87334353Y-62756371D02*
X87420067Y-62784942D01*
X87591496Y-62756371D02*
X87934354Y-62756371D01*
X87762925Y-63356371D02*
X87762925Y-62756371D01*
X88134354Y-63127800D02*
X88591497Y-63127800D01*
X88877211Y-63127800D02*
X89334354Y-63127800D01*
X106051646Y-63117800D02*
X106508789Y-63117800D01*
X106794503Y-63117800D02*
X107251646Y-63117800D01*
X107851645Y-62774942D02*
X107794503Y-62746371D01*
X107794503Y-62746371D02*
X107708788Y-62746371D01*
X107708788Y-62746371D02*
X107623074Y-62774942D01*
X107623074Y-62774942D02*
X107565931Y-62832085D01*
X107565931Y-62832085D02*
X107537360Y-62889228D01*
X107537360Y-62889228D02*
X107508788Y-63003514D01*
X107508788Y-63003514D02*
X107508788Y-63089228D01*
X107508788Y-63089228D02*
X107537360Y-63203514D01*
X107537360Y-63203514D02*
X107565931Y-63260657D01*
X107565931Y-63260657D02*
X107623074Y-63317800D01*
X107623074Y-63317800D02*
X107708788Y-63346371D01*
X107708788Y-63346371D02*
X107765931Y-63346371D01*
X107765931Y-63346371D02*
X107851645Y-63317800D01*
X107851645Y-63317800D02*
X107880217Y-63289228D01*
X107880217Y-63289228D02*
X107880217Y-63089228D01*
X107880217Y-63089228D02*
X107765931Y-63089228D01*
X108137360Y-63346371D02*
X108137360Y-62746371D01*
X108137360Y-62746371D02*
X108480217Y-63346371D01*
X108480217Y-63346371D02*
X108480217Y-62746371D01*
X108765931Y-63346371D02*
X108765931Y-62746371D01*
X108765931Y-62746371D02*
X108908788Y-62746371D01*
X108908788Y-62746371D02*
X108994502Y-62774942D01*
X108994502Y-62774942D02*
X109051645Y-62832085D01*
X109051645Y-62832085D02*
X109080216Y-62889228D01*
X109080216Y-62889228D02*
X109108788Y-63003514D01*
X109108788Y-63003514D02*
X109108788Y-63089228D01*
X109108788Y-63089228D02*
X109080216Y-63203514D01*
X109080216Y-63203514D02*
X109051645Y-63260657D01*
X109051645Y-63260657D02*
X108994502Y-63317800D01*
X108994502Y-63317800D02*
X108908788Y-63346371D01*
X108908788Y-63346371D02*
X108765931Y-63346371D01*
X106051646Y-60577800D02*
X106508789Y-60577800D01*
X106794503Y-60577800D02*
X107251646Y-60577800D01*
X107451645Y-60206371D02*
X107794503Y-60206371D01*
X107623074Y-60806371D02*
X107623074Y-60206371D01*
X107937360Y-60206371D02*
X108337360Y-60806371D01*
X108337360Y-60206371D02*
X107937360Y-60806371D01*
D13*
X145014055Y-115499197D02*
X144941484Y-115462911D01*
X144941484Y-115462911D02*
X144832626Y-115462911D01*
X144832626Y-115462911D02*
X144723769Y-115499197D01*
X144723769Y-115499197D02*
X144651198Y-115571768D01*
X144651198Y-115571768D02*
X144614912Y-115644340D01*
X144614912Y-115644340D02*
X144578626Y-115789483D01*
X144578626Y-115789483D02*
X144578626Y-115898340D01*
X144578626Y-115898340D02*
X144614912Y-116043483D01*
X144614912Y-116043483D02*
X144651198Y-116116054D01*
X144651198Y-116116054D02*
X144723769Y-116188626D01*
X144723769Y-116188626D02*
X144832626Y-116224911D01*
X144832626Y-116224911D02*
X144905198Y-116224911D01*
X144905198Y-116224911D02*
X145014055Y-116188626D01*
X145014055Y-116188626D02*
X145050341Y-116152340D01*
X145050341Y-116152340D02*
X145050341Y-115898340D01*
X145050341Y-115898340D02*
X144905198Y-115898340D01*
X145376912Y-116224911D02*
X145376912Y-115462911D01*
X145376912Y-115462911D02*
X145812341Y-116224911D01*
X145812341Y-116224911D02*
X145812341Y-115462911D01*
X146175198Y-116224911D02*
X146175198Y-115462911D01*
X146175198Y-115462911D02*
X146356627Y-115462911D01*
X146356627Y-115462911D02*
X146465484Y-115499197D01*
X146465484Y-115499197D02*
X146538055Y-115571768D01*
X146538055Y-115571768D02*
X146574341Y-115644340D01*
X146574341Y-115644340D02*
X146610627Y-115789483D01*
X146610627Y-115789483D02*
X146610627Y-115898340D01*
X146610627Y-115898340D02*
X146574341Y-116043483D01*
X146574341Y-116043483D02*
X146538055Y-116116054D01*
X146538055Y-116116054D02*
X146465484Y-116188626D01*
X146465484Y-116188626D02*
X146356627Y-116224911D01*
X146356627Y-116224911D02*
X146175198Y-116224911D01*
D14*
X86620068Y-60244942D02*
X86562926Y-60216371D01*
X86562926Y-60216371D02*
X86477211Y-60216371D01*
X86477211Y-60216371D02*
X86391497Y-60244942D01*
X86391497Y-60244942D02*
X86334354Y-60302085D01*
X86334354Y-60302085D02*
X86305783Y-60359228D01*
X86305783Y-60359228D02*
X86277211Y-60473514D01*
X86277211Y-60473514D02*
X86277211Y-60559228D01*
X86277211Y-60559228D02*
X86305783Y-60673514D01*
X86305783Y-60673514D02*
X86334354Y-60730657D01*
X86334354Y-60730657D02*
X86391497Y-60787800D01*
X86391497Y-60787800D02*
X86477211Y-60816371D01*
X86477211Y-60816371D02*
X86534354Y-60816371D01*
X86534354Y-60816371D02*
X86620068Y-60787800D01*
X86620068Y-60787800D02*
X86648640Y-60759228D01*
X86648640Y-60759228D02*
X86648640Y-60559228D01*
X86648640Y-60559228D02*
X86534354Y-60559228D01*
X86905783Y-60816371D02*
X86905783Y-60216371D01*
X86905783Y-60216371D02*
X87248640Y-60816371D01*
X87248640Y-60816371D02*
X87248640Y-60216371D01*
X87534354Y-60816371D02*
X87534354Y-60216371D01*
X87534354Y-60216371D02*
X87677211Y-60216371D01*
X87677211Y-60216371D02*
X87762925Y-60244942D01*
X87762925Y-60244942D02*
X87820068Y-60302085D01*
X87820068Y-60302085D02*
X87848639Y-60359228D01*
X87848639Y-60359228D02*
X87877211Y-60473514D01*
X87877211Y-60473514D02*
X87877211Y-60559228D01*
X87877211Y-60559228D02*
X87848639Y-60673514D01*
X87848639Y-60673514D02*
X87820068Y-60730657D01*
X87820068Y-60730657D02*
X87762925Y-60787800D01*
X87762925Y-60787800D02*
X87677211Y-60816371D01*
X87677211Y-60816371D02*
X87534354Y-60816371D01*
X88134354Y-60587800D02*
X88591497Y-60587800D01*
X88877211Y-60587800D02*
X89334354Y-60587800D01*
D10*
X85011905Y-123187295D02*
X84745238Y-122806342D01*
X84554762Y-123187295D02*
X84554762Y-122387295D01*
X84554762Y-122387295D02*
X84859524Y-122387295D01*
X84859524Y-122387295D02*
X84935714Y-122425390D01*
X84935714Y-122425390D02*
X84973809Y-122463485D01*
X84973809Y-122463485D02*
X85011905Y-122539676D01*
X85011905Y-122539676D02*
X85011905Y-122653961D01*
X85011905Y-122653961D02*
X84973809Y-122730152D01*
X84973809Y-122730152D02*
X84935714Y-122768247D01*
X84935714Y-122768247D02*
X84859524Y-122806342D01*
X84859524Y-122806342D02*
X84554762Y-122806342D01*
X85316666Y-123149200D02*
X85430952Y-123187295D01*
X85430952Y-123187295D02*
X85621428Y-123187295D01*
X85621428Y-123187295D02*
X85697619Y-123149200D01*
X85697619Y-123149200D02*
X85735714Y-123111104D01*
X85735714Y-123111104D02*
X85773809Y-123034914D01*
X85773809Y-123034914D02*
X85773809Y-122958723D01*
X85773809Y-122958723D02*
X85735714Y-122882533D01*
X85735714Y-122882533D02*
X85697619Y-122844438D01*
X85697619Y-122844438D02*
X85621428Y-122806342D01*
X85621428Y-122806342D02*
X85469047Y-122768247D01*
X85469047Y-122768247D02*
X85392857Y-122730152D01*
X85392857Y-122730152D02*
X85354762Y-122692057D01*
X85354762Y-122692057D02*
X85316666Y-122615866D01*
X85316666Y-122615866D02*
X85316666Y-122539676D01*
X85316666Y-122539676D02*
X85354762Y-122463485D01*
X85354762Y-122463485D02*
X85392857Y-122425390D01*
X85392857Y-122425390D02*
X85469047Y-122387295D01*
X85469047Y-122387295D02*
X85659524Y-122387295D01*
X85659524Y-122387295D02*
X85773809Y-122425390D01*
X86002381Y-122387295D02*
X86459524Y-122387295D01*
X86230952Y-123187295D02*
X86230952Y-122387295D01*
X89809398Y-103369771D02*
X89609398Y-103084057D01*
X89466541Y-103369771D02*
X89466541Y-102769771D01*
X89466541Y-102769771D02*
X89695112Y-102769771D01*
X89695112Y-102769771D02*
X89752255Y-102798342D01*
X89752255Y-102798342D02*
X89780826Y-102826914D01*
X89780826Y-102826914D02*
X89809398Y-102884057D01*
X89809398Y-102884057D02*
X89809398Y-102969771D01*
X89809398Y-102969771D02*
X89780826Y-103026914D01*
X89780826Y-103026914D02*
X89752255Y-103055485D01*
X89752255Y-103055485D02*
X89695112Y-103084057D01*
X89695112Y-103084057D02*
X89466541Y-103084057D01*
X90066541Y-103055485D02*
X90266541Y-103055485D01*
X90352255Y-103369771D02*
X90066541Y-103369771D01*
X90066541Y-103369771D02*
X90066541Y-102769771D01*
X90066541Y-102769771D02*
X90352255Y-102769771D01*
X90609398Y-103369771D02*
X90609398Y-102769771D01*
X90609398Y-102769771D02*
X90752255Y-102769771D01*
X90752255Y-102769771D02*
X90837969Y-102798342D01*
X90837969Y-102798342D02*
X90895112Y-102855485D01*
X90895112Y-102855485D02*
X90923683Y-102912628D01*
X90923683Y-102912628D02*
X90952255Y-103026914D01*
X90952255Y-103026914D02*
X90952255Y-103112628D01*
X90952255Y-103112628D02*
X90923683Y-103226914D01*
X90923683Y-103226914D02*
X90895112Y-103284057D01*
X90895112Y-103284057D02*
X90837969Y-103341200D01*
X90837969Y-103341200D02*
X90752255Y-103369771D01*
X90752255Y-103369771D02*
X90609398Y-103369771D01*
D14*
X106051646Y-73277800D02*
X106508789Y-73277800D01*
X106794503Y-73277800D02*
X107251646Y-73277800D01*
X107880217Y-73506371D02*
X107680217Y-73220657D01*
X107537360Y-73506371D02*
X107537360Y-72906371D01*
X107537360Y-72906371D02*
X107765931Y-72906371D01*
X107765931Y-72906371D02*
X107823074Y-72934942D01*
X107823074Y-72934942D02*
X107851645Y-72963514D01*
X107851645Y-72963514D02*
X107880217Y-73020657D01*
X107880217Y-73020657D02*
X107880217Y-73106371D01*
X107880217Y-73106371D02*
X107851645Y-73163514D01*
X107851645Y-73163514D02*
X107823074Y-73192085D01*
X107823074Y-73192085D02*
X107765931Y-73220657D01*
X107765931Y-73220657D02*
X107537360Y-73220657D01*
X108080217Y-72906371D02*
X108480217Y-73506371D01*
X108480217Y-72906371D02*
X108080217Y-73506371D01*
X86191497Y-83619228D02*
X86162925Y-83647800D01*
X86162925Y-83647800D02*
X86077211Y-83676371D01*
X86077211Y-83676371D02*
X86020068Y-83676371D01*
X86020068Y-83676371D02*
X85934354Y-83647800D01*
X85934354Y-83647800D02*
X85877211Y-83590657D01*
X85877211Y-83590657D02*
X85848640Y-83533514D01*
X85848640Y-83533514D02*
X85820068Y-83419228D01*
X85820068Y-83419228D02*
X85820068Y-83333514D01*
X85820068Y-83333514D02*
X85848640Y-83219228D01*
X85848640Y-83219228D02*
X85877211Y-83162085D01*
X85877211Y-83162085D02*
X85934354Y-83104942D01*
X85934354Y-83104942D02*
X86020068Y-83076371D01*
X86020068Y-83076371D02*
X86077211Y-83076371D01*
X86077211Y-83076371D02*
X86162925Y-83104942D01*
X86162925Y-83104942D02*
X86191497Y-83133514D01*
X86562925Y-83076371D02*
X86677211Y-83076371D01*
X86677211Y-83076371D02*
X86734354Y-83104942D01*
X86734354Y-83104942D02*
X86791497Y-83162085D01*
X86791497Y-83162085D02*
X86820068Y-83276371D01*
X86820068Y-83276371D02*
X86820068Y-83476371D01*
X86820068Y-83476371D02*
X86791497Y-83590657D01*
X86791497Y-83590657D02*
X86734354Y-83647800D01*
X86734354Y-83647800D02*
X86677211Y-83676371D01*
X86677211Y-83676371D02*
X86562925Y-83676371D01*
X86562925Y-83676371D02*
X86505783Y-83647800D01*
X86505783Y-83647800D02*
X86448640Y-83590657D01*
X86448640Y-83590657D02*
X86420068Y-83476371D01*
X86420068Y-83476371D02*
X86420068Y-83276371D01*
X86420068Y-83276371D02*
X86448640Y-83162085D01*
X86448640Y-83162085D02*
X86505783Y-83104942D01*
X86505783Y-83104942D02*
X86562925Y-83076371D01*
X87362925Y-83676371D02*
X87077211Y-83676371D01*
X87077211Y-83676371D02*
X87077211Y-83076371D01*
X87820068Y-83276371D02*
X87820068Y-83676371D01*
X87677210Y-83047800D02*
X87534353Y-83476371D01*
X87534353Y-83476371D02*
X87905782Y-83476371D01*
X88134354Y-83447800D02*
X88591497Y-83447800D01*
X88877211Y-83447800D02*
X89334354Y-83447800D01*
X106051646Y-78357800D02*
X106508789Y-78357800D01*
X106794503Y-78357800D02*
X107251646Y-78357800D01*
X107880217Y-78586371D02*
X107680217Y-78300657D01*
X107537360Y-78586371D02*
X107537360Y-77986371D01*
X107537360Y-77986371D02*
X107765931Y-77986371D01*
X107765931Y-77986371D02*
X107823074Y-78014942D01*
X107823074Y-78014942D02*
X107851645Y-78043514D01*
X107851645Y-78043514D02*
X107880217Y-78100657D01*
X107880217Y-78100657D02*
X107880217Y-78186371D01*
X107880217Y-78186371D02*
X107851645Y-78243514D01*
X107851645Y-78243514D02*
X107823074Y-78272085D01*
X107823074Y-78272085D02*
X107765931Y-78300657D01*
X107765931Y-78300657D02*
X107537360Y-78300657D01*
X108251645Y-77986371D02*
X108365931Y-77986371D01*
X108365931Y-77986371D02*
X108423074Y-78014942D01*
X108423074Y-78014942D02*
X108480217Y-78072085D01*
X108480217Y-78072085D02*
X108508788Y-78186371D01*
X108508788Y-78186371D02*
X108508788Y-78386371D01*
X108508788Y-78386371D02*
X108480217Y-78500657D01*
X108480217Y-78500657D02*
X108423074Y-78557800D01*
X108423074Y-78557800D02*
X108365931Y-78586371D01*
X108365931Y-78586371D02*
X108251645Y-78586371D01*
X108251645Y-78586371D02*
X108194503Y-78557800D01*
X108194503Y-78557800D02*
X108137360Y-78500657D01*
X108137360Y-78500657D02*
X108108788Y-78386371D01*
X108108788Y-78386371D02*
X108108788Y-78186371D01*
X108108788Y-78186371D02*
X108137360Y-78072085D01*
X108137360Y-78072085D02*
X108194503Y-78014942D01*
X108194503Y-78014942D02*
X108251645Y-77986371D01*
X108708788Y-77986371D02*
X108851645Y-78586371D01*
X108851645Y-78586371D02*
X108965931Y-78157800D01*
X108965931Y-78157800D02*
X109080216Y-78586371D01*
X109080216Y-78586371D02*
X109223074Y-77986371D01*
X109765930Y-78586371D02*
X109423073Y-78586371D01*
X109594502Y-78586371D02*
X109594502Y-77986371D01*
X109594502Y-77986371D02*
X109537359Y-78072085D01*
X109537359Y-78072085D02*
X109480216Y-78129228D01*
X109480216Y-78129228D02*
X109423073Y-78157800D01*
D10*
X81604761Y-113143247D02*
X81719047Y-113181342D01*
X81719047Y-113181342D02*
X81757142Y-113219438D01*
X81757142Y-113219438D02*
X81795238Y-113295628D01*
X81795238Y-113295628D02*
X81795238Y-113409914D01*
X81795238Y-113409914D02*
X81757142Y-113486104D01*
X81757142Y-113486104D02*
X81719047Y-113524200D01*
X81719047Y-113524200D02*
X81642857Y-113562295D01*
X81642857Y-113562295D02*
X81338095Y-113562295D01*
X81338095Y-113562295D02*
X81338095Y-112762295D01*
X81338095Y-112762295D02*
X81604761Y-112762295D01*
X81604761Y-112762295D02*
X81680952Y-112800390D01*
X81680952Y-112800390D02*
X81719047Y-112838485D01*
X81719047Y-112838485D02*
X81757142Y-112914676D01*
X81757142Y-112914676D02*
X81757142Y-112990866D01*
X81757142Y-112990866D02*
X81719047Y-113067057D01*
X81719047Y-113067057D02*
X81680952Y-113105152D01*
X81680952Y-113105152D02*
X81604761Y-113143247D01*
X81604761Y-113143247D02*
X81338095Y-113143247D01*
X82099999Y-113333723D02*
X82480952Y-113333723D01*
X82023809Y-113562295D02*
X82290476Y-112762295D01*
X82290476Y-112762295D02*
X82557142Y-113562295D01*
X82709523Y-112762295D02*
X83166666Y-112762295D01*
X82938094Y-113562295D02*
X82938094Y-112762295D01*
X83319047Y-112762295D02*
X83776190Y-112762295D01*
X83547618Y-113562295D02*
X83547618Y-112762295D01*
X99709524Y-120593247D02*
X99976190Y-120593247D01*
X100090476Y-121012295D02*
X99709524Y-121012295D01*
X99709524Y-121012295D02*
X99709524Y-120212295D01*
X99709524Y-120212295D02*
X100090476Y-120212295D01*
X100433334Y-121012295D02*
X100433334Y-120212295D01*
X100433334Y-120212295D02*
X100890477Y-121012295D01*
X100890477Y-121012295D02*
X100890477Y-120212295D01*
X101728572Y-120936104D02*
X101690476Y-120974200D01*
X101690476Y-120974200D02*
X101576191Y-121012295D01*
X101576191Y-121012295D02*
X101500000Y-121012295D01*
X101500000Y-121012295D02*
X101385714Y-120974200D01*
X101385714Y-120974200D02*
X101309524Y-120898009D01*
X101309524Y-120898009D02*
X101271429Y-120821819D01*
X101271429Y-120821819D02*
X101233333Y-120669438D01*
X101233333Y-120669438D02*
X101233333Y-120555152D01*
X101233333Y-120555152D02*
X101271429Y-120402771D01*
X101271429Y-120402771D02*
X101309524Y-120326580D01*
X101309524Y-120326580D02*
X101385714Y-120250390D01*
X101385714Y-120250390D02*
X101500000Y-120212295D01*
X101500000Y-120212295D02*
X101576191Y-120212295D01*
X101576191Y-120212295D02*
X101690476Y-120250390D01*
X101690476Y-120250390D02*
X101728572Y-120288485D01*
D13*
X136012305Y-121962523D02*
X136447734Y-121962523D01*
X136230019Y-122724523D02*
X136230019Y-121962523D01*
X137137162Y-122724523D02*
X136883162Y-122361666D01*
X136701733Y-122724523D02*
X136701733Y-121962523D01*
X136701733Y-121962523D02*
X136992019Y-121962523D01*
X136992019Y-121962523D02*
X137064590Y-121998809D01*
X137064590Y-121998809D02*
X137100876Y-122035095D01*
X137100876Y-122035095D02*
X137137162Y-122107666D01*
X137137162Y-122107666D02*
X137137162Y-122216523D01*
X137137162Y-122216523D02*
X137100876Y-122289095D01*
X137100876Y-122289095D02*
X137064590Y-122325380D01*
X137064590Y-122325380D02*
X136992019Y-122361666D01*
X136992019Y-122361666D02*
X136701733Y-122361666D01*
X137427447Y-122506809D02*
X137790305Y-122506809D01*
X137354876Y-122724523D02*
X137608876Y-121962523D01*
X137608876Y-121962523D02*
X137862876Y-122724523D01*
X138552305Y-122651952D02*
X138516019Y-122688238D01*
X138516019Y-122688238D02*
X138407162Y-122724523D01*
X138407162Y-122724523D02*
X138334590Y-122724523D01*
X138334590Y-122724523D02*
X138225733Y-122688238D01*
X138225733Y-122688238D02*
X138153162Y-122615666D01*
X138153162Y-122615666D02*
X138116876Y-122543095D01*
X138116876Y-122543095D02*
X138080590Y-122397952D01*
X138080590Y-122397952D02*
X138080590Y-122289095D01*
X138080590Y-122289095D02*
X138116876Y-122143952D01*
X138116876Y-122143952D02*
X138153162Y-122071380D01*
X138153162Y-122071380D02*
X138225733Y-121998809D01*
X138225733Y-121998809D02*
X138334590Y-121962523D01*
X138334590Y-121962523D02*
X138407162Y-121962523D01*
X138407162Y-121962523D02*
X138516019Y-121998809D01*
X138516019Y-121998809D02*
X138552305Y-122035095D01*
X138878876Y-122724523D02*
X138878876Y-121962523D01*
X139314305Y-122724523D02*
X138987733Y-122289095D01*
X139314305Y-121962523D02*
X138878876Y-122397952D01*
X137246019Y-123552157D02*
X137354876Y-123588443D01*
X137354876Y-123588443D02*
X137391162Y-123624729D01*
X137391162Y-123624729D02*
X137427448Y-123697300D01*
X137427448Y-123697300D02*
X137427448Y-123806157D01*
X137427448Y-123806157D02*
X137391162Y-123878729D01*
X137391162Y-123878729D02*
X137354876Y-123915015D01*
X137354876Y-123915015D02*
X137282305Y-123951300D01*
X137282305Y-123951300D02*
X136992019Y-123951300D01*
X136992019Y-123951300D02*
X136992019Y-123189300D01*
X136992019Y-123189300D02*
X137246019Y-123189300D01*
X137246019Y-123189300D02*
X137318591Y-123225586D01*
X137318591Y-123225586D02*
X137354876Y-123261872D01*
X137354876Y-123261872D02*
X137391162Y-123334443D01*
X137391162Y-123334443D02*
X137391162Y-123407015D01*
X137391162Y-123407015D02*
X137354876Y-123479586D01*
X137354876Y-123479586D02*
X137318591Y-123515872D01*
X137318591Y-123515872D02*
X137246019Y-123552157D01*
X137246019Y-123552157D02*
X136992019Y-123552157D01*
X137717733Y-123733586D02*
X138080591Y-123733586D01*
X137645162Y-123951300D02*
X137899162Y-123189300D01*
X137899162Y-123189300D02*
X138153162Y-123951300D01*
X138770019Y-123951300D02*
X138407162Y-123951300D01*
X138407162Y-123951300D02*
X138407162Y-123189300D01*
X139386876Y-123951300D02*
X139024019Y-123951300D01*
X139024019Y-123951300D02*
X139024019Y-123189300D01*
D14*
X86191497Y-73459228D02*
X86162925Y-73487800D01*
X86162925Y-73487800D02*
X86077211Y-73516371D01*
X86077211Y-73516371D02*
X86020068Y-73516371D01*
X86020068Y-73516371D02*
X85934354Y-73487800D01*
X85934354Y-73487800D02*
X85877211Y-73430657D01*
X85877211Y-73430657D02*
X85848640Y-73373514D01*
X85848640Y-73373514D02*
X85820068Y-73259228D01*
X85820068Y-73259228D02*
X85820068Y-73173514D01*
X85820068Y-73173514D02*
X85848640Y-73059228D01*
X85848640Y-73059228D02*
X85877211Y-73002085D01*
X85877211Y-73002085D02*
X85934354Y-72944942D01*
X85934354Y-72944942D02*
X86020068Y-72916371D01*
X86020068Y-72916371D02*
X86077211Y-72916371D01*
X86077211Y-72916371D02*
X86162925Y-72944942D01*
X86162925Y-72944942D02*
X86191497Y-72973514D01*
X86562925Y-72916371D02*
X86677211Y-72916371D01*
X86677211Y-72916371D02*
X86734354Y-72944942D01*
X86734354Y-72944942D02*
X86791497Y-73002085D01*
X86791497Y-73002085D02*
X86820068Y-73116371D01*
X86820068Y-73116371D02*
X86820068Y-73316371D01*
X86820068Y-73316371D02*
X86791497Y-73430657D01*
X86791497Y-73430657D02*
X86734354Y-73487800D01*
X86734354Y-73487800D02*
X86677211Y-73516371D01*
X86677211Y-73516371D02*
X86562925Y-73516371D01*
X86562925Y-73516371D02*
X86505783Y-73487800D01*
X86505783Y-73487800D02*
X86448640Y-73430657D01*
X86448640Y-73430657D02*
X86420068Y-73316371D01*
X86420068Y-73316371D02*
X86420068Y-73116371D01*
X86420068Y-73116371D02*
X86448640Y-73002085D01*
X86448640Y-73002085D02*
X86505783Y-72944942D01*
X86505783Y-72944942D02*
X86562925Y-72916371D01*
X87362925Y-73516371D02*
X87077211Y-73516371D01*
X87077211Y-73516371D02*
X87077211Y-72916371D01*
X87677210Y-72916371D02*
X87734353Y-72916371D01*
X87734353Y-72916371D02*
X87791496Y-72944942D01*
X87791496Y-72944942D02*
X87820068Y-72973514D01*
X87820068Y-72973514D02*
X87848639Y-73030657D01*
X87848639Y-73030657D02*
X87877210Y-73144942D01*
X87877210Y-73144942D02*
X87877210Y-73287800D01*
X87877210Y-73287800D02*
X87848639Y-73402085D01*
X87848639Y-73402085D02*
X87820068Y-73459228D01*
X87820068Y-73459228D02*
X87791496Y-73487800D01*
X87791496Y-73487800D02*
X87734353Y-73516371D01*
X87734353Y-73516371D02*
X87677210Y-73516371D01*
X87677210Y-73516371D02*
X87620068Y-73487800D01*
X87620068Y-73487800D02*
X87591496Y-73459228D01*
X87591496Y-73459228D02*
X87562925Y-73402085D01*
X87562925Y-73402085D02*
X87534353Y-73287800D01*
X87534353Y-73287800D02*
X87534353Y-73144942D01*
X87534353Y-73144942D02*
X87562925Y-73030657D01*
X87562925Y-73030657D02*
X87591496Y-72973514D01*
X87591496Y-72973514D02*
X87620068Y-72944942D01*
X87620068Y-72944942D02*
X87677210Y-72916371D01*
X88134354Y-73287800D02*
X88591497Y-73287800D01*
X88877211Y-73287800D02*
X89334354Y-73287800D01*
D10*
X154805826Y-121618247D02*
X154920112Y-121656342D01*
X154920112Y-121656342D02*
X154958207Y-121694438D01*
X154958207Y-121694438D02*
X154996303Y-121770628D01*
X154996303Y-121770628D02*
X154996303Y-121884914D01*
X154996303Y-121884914D02*
X154958207Y-121961104D01*
X154958207Y-121961104D02*
X154920112Y-121999200D01*
X154920112Y-121999200D02*
X154843922Y-122037295D01*
X154843922Y-122037295D02*
X154539160Y-122037295D01*
X154539160Y-122037295D02*
X154539160Y-121237295D01*
X154539160Y-121237295D02*
X154805826Y-121237295D01*
X154805826Y-121237295D02*
X154882017Y-121275390D01*
X154882017Y-121275390D02*
X154920112Y-121313485D01*
X154920112Y-121313485D02*
X154958207Y-121389676D01*
X154958207Y-121389676D02*
X154958207Y-121465866D01*
X154958207Y-121465866D02*
X154920112Y-121542057D01*
X154920112Y-121542057D02*
X154882017Y-121580152D01*
X154882017Y-121580152D02*
X154805826Y-121618247D01*
X154805826Y-121618247D02*
X154539160Y-121618247D01*
X155339160Y-121237295D02*
X155339160Y-121884914D01*
X155339160Y-121884914D02*
X155377255Y-121961104D01*
X155377255Y-121961104D02*
X155415350Y-121999200D01*
X155415350Y-121999200D02*
X155491541Y-122037295D01*
X155491541Y-122037295D02*
X155643922Y-122037295D01*
X155643922Y-122037295D02*
X155720112Y-121999200D01*
X155720112Y-121999200D02*
X155758207Y-121961104D01*
X155758207Y-121961104D02*
X155796303Y-121884914D01*
X155796303Y-121884914D02*
X155796303Y-121237295D01*
X156101064Y-121237295D02*
X156634398Y-121237295D01*
X156634398Y-121237295D02*
X156101064Y-122037295D01*
X156101064Y-122037295D02*
X156634398Y-122037295D01*
X156862969Y-121237295D02*
X157396303Y-121237295D01*
X157396303Y-121237295D02*
X156862969Y-122037295D01*
X156862969Y-122037295D02*
X157396303Y-122037295D01*
X157701065Y-121618247D02*
X157967731Y-121618247D01*
X158082017Y-122037295D02*
X157701065Y-122037295D01*
X157701065Y-122037295D02*
X157701065Y-121237295D01*
X157701065Y-121237295D02*
X158082017Y-121237295D01*
X158882018Y-122037295D02*
X158615351Y-121656342D01*
X158424875Y-122037295D02*
X158424875Y-121237295D01*
X158424875Y-121237295D02*
X158729637Y-121237295D01*
X158729637Y-121237295D02*
X158805827Y-121275390D01*
X158805827Y-121275390D02*
X158843922Y-121313485D01*
X158843922Y-121313485D02*
X158882018Y-121389676D01*
X158882018Y-121389676D02*
X158882018Y-121503961D01*
X158882018Y-121503961D02*
X158843922Y-121580152D01*
X158843922Y-121580152D02*
X158805827Y-121618247D01*
X158805827Y-121618247D02*
X158729637Y-121656342D01*
X158729637Y-121656342D02*
X158424875Y-121656342D01*
D13*
X204084000Y-53633911D02*
X204338000Y-54395911D01*
X204338000Y-54395911D02*
X204592000Y-53633911D01*
X205281429Y-54323340D02*
X205245143Y-54359626D01*
X205245143Y-54359626D02*
X205136286Y-54395911D01*
X205136286Y-54395911D02*
X205063714Y-54395911D01*
X205063714Y-54395911D02*
X204954857Y-54359626D01*
X204954857Y-54359626D02*
X204882286Y-54287054D01*
X204882286Y-54287054D02*
X204846000Y-54214483D01*
X204846000Y-54214483D02*
X204809714Y-54069340D01*
X204809714Y-54069340D02*
X204809714Y-53960483D01*
X204809714Y-53960483D02*
X204846000Y-53815340D01*
X204846000Y-53815340D02*
X204882286Y-53742768D01*
X204882286Y-53742768D02*
X204954857Y-53670197D01*
X204954857Y-53670197D02*
X205063714Y-53633911D01*
X205063714Y-53633911D02*
X205136286Y-53633911D01*
X205136286Y-53633911D02*
X205245143Y-53670197D01*
X205245143Y-53670197D02*
X205281429Y-53706483D01*
X206043429Y-54323340D02*
X206007143Y-54359626D01*
X206007143Y-54359626D02*
X205898286Y-54395911D01*
X205898286Y-54395911D02*
X205825714Y-54395911D01*
X205825714Y-54395911D02*
X205716857Y-54359626D01*
X205716857Y-54359626D02*
X205644286Y-54287054D01*
X205644286Y-54287054D02*
X205608000Y-54214483D01*
X205608000Y-54214483D02*
X205571714Y-54069340D01*
X205571714Y-54069340D02*
X205571714Y-53960483D01*
X205571714Y-53960483D02*
X205608000Y-53815340D01*
X205608000Y-53815340D02*
X205644286Y-53742768D01*
X205644286Y-53742768D02*
X205716857Y-53670197D01*
X205716857Y-53670197D02*
X205825714Y-53633911D01*
X205825714Y-53633911D02*
X205898286Y-53633911D01*
X205898286Y-53633911D02*
X206007143Y-53670197D01*
X206007143Y-53670197D02*
X206043429Y-53706483D01*
D14*
X86191497Y-81079228D02*
X86162925Y-81107800D01*
X86162925Y-81107800D02*
X86077211Y-81136371D01*
X86077211Y-81136371D02*
X86020068Y-81136371D01*
X86020068Y-81136371D02*
X85934354Y-81107800D01*
X85934354Y-81107800D02*
X85877211Y-81050657D01*
X85877211Y-81050657D02*
X85848640Y-80993514D01*
X85848640Y-80993514D02*
X85820068Y-80879228D01*
X85820068Y-80879228D02*
X85820068Y-80793514D01*
X85820068Y-80793514D02*
X85848640Y-80679228D01*
X85848640Y-80679228D02*
X85877211Y-80622085D01*
X85877211Y-80622085D02*
X85934354Y-80564942D01*
X85934354Y-80564942D02*
X86020068Y-80536371D01*
X86020068Y-80536371D02*
X86077211Y-80536371D01*
X86077211Y-80536371D02*
X86162925Y-80564942D01*
X86162925Y-80564942D02*
X86191497Y-80593514D01*
X86562925Y-80536371D02*
X86677211Y-80536371D01*
X86677211Y-80536371D02*
X86734354Y-80564942D01*
X86734354Y-80564942D02*
X86791497Y-80622085D01*
X86791497Y-80622085D02*
X86820068Y-80736371D01*
X86820068Y-80736371D02*
X86820068Y-80936371D01*
X86820068Y-80936371D02*
X86791497Y-81050657D01*
X86791497Y-81050657D02*
X86734354Y-81107800D01*
X86734354Y-81107800D02*
X86677211Y-81136371D01*
X86677211Y-81136371D02*
X86562925Y-81136371D01*
X86562925Y-81136371D02*
X86505783Y-81107800D01*
X86505783Y-81107800D02*
X86448640Y-81050657D01*
X86448640Y-81050657D02*
X86420068Y-80936371D01*
X86420068Y-80936371D02*
X86420068Y-80736371D01*
X86420068Y-80736371D02*
X86448640Y-80622085D01*
X86448640Y-80622085D02*
X86505783Y-80564942D01*
X86505783Y-80564942D02*
X86562925Y-80536371D01*
X87362925Y-81136371D02*
X87077211Y-81136371D01*
X87077211Y-81136371D02*
X87077211Y-80536371D01*
X87505782Y-80536371D02*
X87877210Y-80536371D01*
X87877210Y-80536371D02*
X87677210Y-80764942D01*
X87677210Y-80764942D02*
X87762925Y-80764942D01*
X87762925Y-80764942D02*
X87820068Y-80793514D01*
X87820068Y-80793514D02*
X87848639Y-80822085D01*
X87848639Y-80822085D02*
X87877210Y-80879228D01*
X87877210Y-80879228D02*
X87877210Y-81022085D01*
X87877210Y-81022085D02*
X87848639Y-81079228D01*
X87848639Y-81079228D02*
X87820068Y-81107800D01*
X87820068Y-81107800D02*
X87762925Y-81136371D01*
X87762925Y-81136371D02*
X87591496Y-81136371D01*
X87591496Y-81136371D02*
X87534353Y-81107800D01*
X87534353Y-81107800D02*
X87505782Y-81079228D01*
X88134354Y-80907800D02*
X88591497Y-80907800D01*
X88877211Y-80907800D02*
X89334354Y-80907800D01*
X85305783Y-70662085D02*
X85505783Y-70662085D01*
X85591497Y-70976371D02*
X85305783Y-70976371D01*
X85305783Y-70976371D02*
X85305783Y-70376371D01*
X85305783Y-70376371D02*
X85591497Y-70376371D01*
X85848640Y-70976371D02*
X85848640Y-70376371D01*
X85848640Y-70376371D02*
X86191497Y-70976371D01*
X86191497Y-70976371D02*
X86191497Y-70376371D01*
X86820068Y-70919228D02*
X86791496Y-70947800D01*
X86791496Y-70947800D02*
X86705782Y-70976371D01*
X86705782Y-70976371D02*
X86648639Y-70976371D01*
X86648639Y-70976371D02*
X86562925Y-70947800D01*
X86562925Y-70947800D02*
X86505782Y-70890657D01*
X86505782Y-70890657D02*
X86477211Y-70833514D01*
X86477211Y-70833514D02*
X86448639Y-70719228D01*
X86448639Y-70719228D02*
X86448639Y-70633514D01*
X86448639Y-70633514D02*
X86477211Y-70519228D01*
X86477211Y-70519228D02*
X86505782Y-70462085D01*
X86505782Y-70462085D02*
X86562925Y-70404942D01*
X86562925Y-70404942D02*
X86648639Y-70376371D01*
X86648639Y-70376371D02*
X86705782Y-70376371D01*
X86705782Y-70376371D02*
X86791496Y-70404942D01*
X86791496Y-70404942D02*
X86820068Y-70433514D01*
X87734354Y-70662085D02*
X87820068Y-70690657D01*
X87820068Y-70690657D02*
X87848639Y-70719228D01*
X87848639Y-70719228D02*
X87877211Y-70776371D01*
X87877211Y-70776371D02*
X87877211Y-70862085D01*
X87877211Y-70862085D02*
X87848639Y-70919228D01*
X87848639Y-70919228D02*
X87820068Y-70947800D01*
X87820068Y-70947800D02*
X87762925Y-70976371D01*
X87762925Y-70976371D02*
X87534354Y-70976371D01*
X87534354Y-70976371D02*
X87534354Y-70376371D01*
X87534354Y-70376371D02*
X87734354Y-70376371D01*
X87734354Y-70376371D02*
X87791497Y-70404942D01*
X87791497Y-70404942D02*
X87820068Y-70433514D01*
X87820068Y-70433514D02*
X87848639Y-70490657D01*
X87848639Y-70490657D02*
X87848639Y-70547800D01*
X87848639Y-70547800D02*
X87820068Y-70604942D01*
X87820068Y-70604942D02*
X87791497Y-70633514D01*
X87791497Y-70633514D02*
X87734354Y-70662085D01*
X87734354Y-70662085D02*
X87534354Y-70662085D01*
X88134354Y-70747800D02*
X88591497Y-70747800D01*
X88877211Y-70747800D02*
X89334354Y-70747800D01*
X106051646Y-75817800D02*
X106508789Y-75817800D01*
X106794503Y-75817800D02*
X107251646Y-75817800D01*
X107880217Y-76046371D02*
X107680217Y-75760657D01*
X107537360Y-76046371D02*
X107537360Y-75446371D01*
X107537360Y-75446371D02*
X107765931Y-75446371D01*
X107765931Y-75446371D02*
X107823074Y-75474942D01*
X107823074Y-75474942D02*
X107851645Y-75503514D01*
X107851645Y-75503514D02*
X107880217Y-75560657D01*
X107880217Y-75560657D02*
X107880217Y-75646371D01*
X107880217Y-75646371D02*
X107851645Y-75703514D01*
X107851645Y-75703514D02*
X107823074Y-75732085D01*
X107823074Y-75732085D02*
X107765931Y-75760657D01*
X107765931Y-75760657D02*
X107537360Y-75760657D01*
X108251645Y-75446371D02*
X108365931Y-75446371D01*
X108365931Y-75446371D02*
X108423074Y-75474942D01*
X108423074Y-75474942D02*
X108480217Y-75532085D01*
X108480217Y-75532085D02*
X108508788Y-75646371D01*
X108508788Y-75646371D02*
X108508788Y-75846371D01*
X108508788Y-75846371D02*
X108480217Y-75960657D01*
X108480217Y-75960657D02*
X108423074Y-76017800D01*
X108423074Y-76017800D02*
X108365931Y-76046371D01*
X108365931Y-76046371D02*
X108251645Y-76046371D01*
X108251645Y-76046371D02*
X108194503Y-76017800D01*
X108194503Y-76017800D02*
X108137360Y-75960657D01*
X108137360Y-75960657D02*
X108108788Y-75846371D01*
X108108788Y-75846371D02*
X108108788Y-75646371D01*
X108108788Y-75646371D02*
X108137360Y-75532085D01*
X108137360Y-75532085D02*
X108194503Y-75474942D01*
X108194503Y-75474942D02*
X108251645Y-75446371D01*
X108708788Y-75446371D02*
X108851645Y-76046371D01*
X108851645Y-76046371D02*
X108965931Y-75617800D01*
X108965931Y-75617800D02*
X109080216Y-76046371D01*
X109080216Y-76046371D02*
X109223074Y-75446371D01*
X109565930Y-75446371D02*
X109623073Y-75446371D01*
X109623073Y-75446371D02*
X109680216Y-75474942D01*
X109680216Y-75474942D02*
X109708788Y-75503514D01*
X109708788Y-75503514D02*
X109737359Y-75560657D01*
X109737359Y-75560657D02*
X109765930Y-75674942D01*
X109765930Y-75674942D02*
X109765930Y-75817800D01*
X109765930Y-75817800D02*
X109737359Y-75932085D01*
X109737359Y-75932085D02*
X109708788Y-75989228D01*
X109708788Y-75989228D02*
X109680216Y-76017800D01*
X109680216Y-76017800D02*
X109623073Y-76046371D01*
X109623073Y-76046371D02*
X109565930Y-76046371D01*
X109565930Y-76046371D02*
X109508788Y-76017800D01*
X109508788Y-76017800D02*
X109480216Y-75989228D01*
X109480216Y-75989228D02*
X109451645Y-75932085D01*
X109451645Y-75932085D02*
X109423073Y-75817800D01*
X109423073Y-75817800D02*
X109423073Y-75674942D01*
X109423073Y-75674942D02*
X109451645Y-75560657D01*
X109451645Y-75560657D02*
X109480216Y-75503514D01*
X109480216Y-75503514D02*
X109508788Y-75474942D01*
X109508788Y-75474942D02*
X109565930Y-75446371D01*
D10*
X199647619Y-74112295D02*
X199647619Y-73312295D01*
X199647619Y-73693247D02*
X200104762Y-73693247D01*
X200104762Y-74112295D02*
X200104762Y-73312295D01*
X200447618Y-73883723D02*
X200828571Y-73883723D01*
X200371428Y-74112295D02*
X200638095Y-73312295D01*
X200638095Y-73312295D02*
X200904761Y-74112295D01*
X201171428Y-74112295D02*
X201171428Y-73312295D01*
X201171428Y-73312295D02*
X201476190Y-73312295D01*
X201476190Y-73312295D02*
X201552380Y-73350390D01*
X201552380Y-73350390D02*
X201590475Y-73388485D01*
X201590475Y-73388485D02*
X201628571Y-73464676D01*
X201628571Y-73464676D02*
X201628571Y-73578961D01*
X201628571Y-73578961D02*
X201590475Y-73655152D01*
X201590475Y-73655152D02*
X201552380Y-73693247D01*
X201552380Y-73693247D02*
X201476190Y-73731342D01*
X201476190Y-73731342D02*
X201171428Y-73731342D01*
X201857142Y-73312295D02*
X202314285Y-73312295D01*
X202085713Y-74112295D02*
X202085713Y-73312295D01*
X202580952Y-74112295D02*
X202580952Y-73312295D01*
X203419047Y-74036104D02*
X203380951Y-74074200D01*
X203380951Y-74074200D02*
X203266666Y-74112295D01*
X203266666Y-74112295D02*
X203190475Y-74112295D01*
X203190475Y-74112295D02*
X203076189Y-74074200D01*
X203076189Y-74074200D02*
X202999999Y-73998009D01*
X202999999Y-73998009D02*
X202961904Y-73921819D01*
X202961904Y-73921819D02*
X202923808Y-73769438D01*
X202923808Y-73769438D02*
X202923808Y-73655152D01*
X202923808Y-73655152D02*
X202961904Y-73502771D01*
X202961904Y-73502771D02*
X202999999Y-73426580D01*
X202999999Y-73426580D02*
X203076189Y-73350390D01*
X203076189Y-73350390D02*
X203190475Y-73312295D01*
X203190475Y-73312295D02*
X203266666Y-73312295D01*
X203266666Y-73312295D02*
X203380951Y-73350390D01*
X203380951Y-73350390D02*
X203419047Y-73388485D01*
X204638094Y-73693247D02*
X204752380Y-73731342D01*
X204752380Y-73731342D02*
X204790475Y-73769438D01*
X204790475Y-73769438D02*
X204828571Y-73845628D01*
X204828571Y-73845628D02*
X204828571Y-73959914D01*
X204828571Y-73959914D02*
X204790475Y-74036104D01*
X204790475Y-74036104D02*
X204752380Y-74074200D01*
X204752380Y-74074200D02*
X204676190Y-74112295D01*
X204676190Y-74112295D02*
X204371428Y-74112295D01*
X204371428Y-74112295D02*
X204371428Y-73312295D01*
X204371428Y-73312295D02*
X204638094Y-73312295D01*
X204638094Y-73312295D02*
X204714285Y-73350390D01*
X204714285Y-73350390D02*
X204752380Y-73388485D01*
X204752380Y-73388485D02*
X204790475Y-73464676D01*
X204790475Y-73464676D02*
X204790475Y-73540866D01*
X204790475Y-73540866D02*
X204752380Y-73617057D01*
X204752380Y-73617057D02*
X204714285Y-73655152D01*
X204714285Y-73655152D02*
X204638094Y-73693247D01*
X204638094Y-73693247D02*
X204371428Y-73693247D01*
X205171428Y-73312295D02*
X205171428Y-73959914D01*
X205171428Y-73959914D02*
X205209523Y-74036104D01*
X205209523Y-74036104D02*
X205247618Y-74074200D01*
X205247618Y-74074200D02*
X205323809Y-74112295D01*
X205323809Y-74112295D02*
X205476190Y-74112295D01*
X205476190Y-74112295D02*
X205552380Y-74074200D01*
X205552380Y-74074200D02*
X205590475Y-74036104D01*
X205590475Y-74036104D02*
X205628571Y-73959914D01*
X205628571Y-73959914D02*
X205628571Y-73312295D01*
X205933332Y-73312295D02*
X206466666Y-73312295D01*
X206466666Y-73312295D02*
X205933332Y-74112295D01*
X205933332Y-74112295D02*
X206466666Y-74112295D01*
X206695237Y-73312295D02*
X207228571Y-73312295D01*
X207228571Y-73312295D02*
X206695237Y-74112295D01*
X206695237Y-74112295D02*
X207228571Y-74112295D01*
X142302506Y-77668318D02*
X142759649Y-77668318D01*
X142531077Y-78468318D02*
X142531077Y-77668318D01*
X143026316Y-78049270D02*
X143292982Y-78049270D01*
X143407268Y-78468318D02*
X143026316Y-78468318D01*
X143026316Y-78468318D02*
X143026316Y-77668318D01*
X143026316Y-77668318D02*
X143407268Y-77668318D01*
X143750126Y-78468318D02*
X143750126Y-77668318D01*
X143750126Y-77668318D02*
X144207269Y-78468318D01*
X144207269Y-78468318D02*
X144207269Y-77668318D01*
X144473935Y-77668318D02*
X144931078Y-77668318D01*
X144702506Y-78468318D02*
X144702506Y-77668318D01*
X145197745Y-78468318D02*
X145197745Y-77668318D01*
X145578697Y-78468318D02*
X145578697Y-77668318D01*
X145578697Y-77668318D02*
X146035840Y-78468318D01*
X146035840Y-78468318D02*
X146035840Y-77668318D01*
X146835839Y-77706413D02*
X146759649Y-77668318D01*
X146759649Y-77668318D02*
X146645363Y-77668318D01*
X146645363Y-77668318D02*
X146531077Y-77706413D01*
X146531077Y-77706413D02*
X146454887Y-77782603D01*
X146454887Y-77782603D02*
X146416792Y-77858794D01*
X146416792Y-77858794D02*
X146378696Y-78011175D01*
X146378696Y-78011175D02*
X146378696Y-78125461D01*
X146378696Y-78125461D02*
X146416792Y-78277842D01*
X146416792Y-78277842D02*
X146454887Y-78354032D01*
X146454887Y-78354032D02*
X146531077Y-78430223D01*
X146531077Y-78430223D02*
X146645363Y-78468318D01*
X146645363Y-78468318D02*
X146721554Y-78468318D01*
X146721554Y-78468318D02*
X146835839Y-78430223D01*
X146835839Y-78430223D02*
X146873935Y-78392127D01*
X146873935Y-78392127D02*
X146873935Y-78125461D01*
X146873935Y-78125461D02*
X146721554Y-78125461D01*
X143978697Y-79756273D02*
X143978697Y-78956273D01*
X143978697Y-78956273D02*
X144283459Y-78956273D01*
X144283459Y-78956273D02*
X144359649Y-78994368D01*
X144359649Y-78994368D02*
X144397744Y-79032463D01*
X144397744Y-79032463D02*
X144435840Y-79108654D01*
X144435840Y-79108654D02*
X144435840Y-79222939D01*
X144435840Y-79222939D02*
X144397744Y-79299130D01*
X144397744Y-79299130D02*
X144359649Y-79337225D01*
X144359649Y-79337225D02*
X144283459Y-79375320D01*
X144283459Y-79375320D02*
X143978697Y-79375320D01*
X144778697Y-78956273D02*
X144778697Y-79603892D01*
X144778697Y-79603892D02*
X144816792Y-79680082D01*
X144816792Y-79680082D02*
X144854887Y-79718178D01*
X144854887Y-79718178D02*
X144931078Y-79756273D01*
X144931078Y-79756273D02*
X145083459Y-79756273D01*
X145083459Y-79756273D02*
X145159649Y-79718178D01*
X145159649Y-79718178D02*
X145197744Y-79680082D01*
X145197744Y-79680082D02*
X145235840Y-79603892D01*
X145235840Y-79603892D02*
X145235840Y-78956273D01*
X146073935Y-79680082D02*
X146035839Y-79718178D01*
X146035839Y-79718178D02*
X145921554Y-79756273D01*
X145921554Y-79756273D02*
X145845363Y-79756273D01*
X145845363Y-79756273D02*
X145731077Y-79718178D01*
X145731077Y-79718178D02*
X145654887Y-79641987D01*
X145654887Y-79641987D02*
X145616792Y-79565797D01*
X145616792Y-79565797D02*
X145578696Y-79413416D01*
X145578696Y-79413416D02*
X145578696Y-79299130D01*
X145578696Y-79299130D02*
X145616792Y-79146749D01*
X145616792Y-79146749D02*
X145654887Y-79070558D01*
X145654887Y-79070558D02*
X145731077Y-78994368D01*
X145731077Y-78994368D02*
X145845363Y-78956273D01*
X145845363Y-78956273D02*
X145921554Y-78956273D01*
X145921554Y-78956273D02*
X146035839Y-78994368D01*
X146035839Y-78994368D02*
X146073935Y-79032463D01*
X146416792Y-79756273D02*
X146416792Y-78956273D01*
X146873935Y-79756273D02*
X146531077Y-79299130D01*
X146873935Y-78956273D02*
X146416792Y-79413416D01*
D14*
X86191497Y-78539228D02*
X86162925Y-78567800D01*
X86162925Y-78567800D02*
X86077211Y-78596371D01*
X86077211Y-78596371D02*
X86020068Y-78596371D01*
X86020068Y-78596371D02*
X85934354Y-78567800D01*
X85934354Y-78567800D02*
X85877211Y-78510657D01*
X85877211Y-78510657D02*
X85848640Y-78453514D01*
X85848640Y-78453514D02*
X85820068Y-78339228D01*
X85820068Y-78339228D02*
X85820068Y-78253514D01*
X85820068Y-78253514D02*
X85848640Y-78139228D01*
X85848640Y-78139228D02*
X85877211Y-78082085D01*
X85877211Y-78082085D02*
X85934354Y-78024942D01*
X85934354Y-78024942D02*
X86020068Y-77996371D01*
X86020068Y-77996371D02*
X86077211Y-77996371D01*
X86077211Y-77996371D02*
X86162925Y-78024942D01*
X86162925Y-78024942D02*
X86191497Y-78053514D01*
X86562925Y-77996371D02*
X86677211Y-77996371D01*
X86677211Y-77996371D02*
X86734354Y-78024942D01*
X86734354Y-78024942D02*
X86791497Y-78082085D01*
X86791497Y-78082085D02*
X86820068Y-78196371D01*
X86820068Y-78196371D02*
X86820068Y-78396371D01*
X86820068Y-78396371D02*
X86791497Y-78510657D01*
X86791497Y-78510657D02*
X86734354Y-78567800D01*
X86734354Y-78567800D02*
X86677211Y-78596371D01*
X86677211Y-78596371D02*
X86562925Y-78596371D01*
X86562925Y-78596371D02*
X86505783Y-78567800D01*
X86505783Y-78567800D02*
X86448640Y-78510657D01*
X86448640Y-78510657D02*
X86420068Y-78396371D01*
X86420068Y-78396371D02*
X86420068Y-78196371D01*
X86420068Y-78196371D02*
X86448640Y-78082085D01*
X86448640Y-78082085D02*
X86505783Y-78024942D01*
X86505783Y-78024942D02*
X86562925Y-77996371D01*
X87362925Y-78596371D02*
X87077211Y-78596371D01*
X87077211Y-78596371D02*
X87077211Y-77996371D01*
X87534353Y-78053514D02*
X87562925Y-78024942D01*
X87562925Y-78024942D02*
X87620068Y-77996371D01*
X87620068Y-77996371D02*
X87762925Y-77996371D01*
X87762925Y-77996371D02*
X87820068Y-78024942D01*
X87820068Y-78024942D02*
X87848639Y-78053514D01*
X87848639Y-78053514D02*
X87877210Y-78110657D01*
X87877210Y-78110657D02*
X87877210Y-78167800D01*
X87877210Y-78167800D02*
X87848639Y-78253514D01*
X87848639Y-78253514D02*
X87505782Y-78596371D01*
X87505782Y-78596371D02*
X87877210Y-78596371D01*
X88134354Y-78367800D02*
X88591497Y-78367800D01*
X88877211Y-78367800D02*
X89334354Y-78367800D01*
D13*
X201577142Y-54359626D02*
X201686000Y-54395911D01*
X201686000Y-54395911D02*
X201867428Y-54395911D01*
X201867428Y-54395911D02*
X201940000Y-54359626D01*
X201940000Y-54359626D02*
X201976285Y-54323340D01*
X201976285Y-54323340D02*
X202012571Y-54250768D01*
X202012571Y-54250768D02*
X202012571Y-54178197D01*
X202012571Y-54178197D02*
X201976285Y-54105626D01*
X201976285Y-54105626D02*
X201940000Y-54069340D01*
X201940000Y-54069340D02*
X201867428Y-54033054D01*
X201867428Y-54033054D02*
X201722285Y-53996768D01*
X201722285Y-53996768D02*
X201649714Y-53960483D01*
X201649714Y-53960483D02*
X201613428Y-53924197D01*
X201613428Y-53924197D02*
X201577142Y-53851626D01*
X201577142Y-53851626D02*
X201577142Y-53779054D01*
X201577142Y-53779054D02*
X201613428Y-53706483D01*
X201613428Y-53706483D02*
X201649714Y-53670197D01*
X201649714Y-53670197D02*
X201722285Y-53633911D01*
X201722285Y-53633911D02*
X201903714Y-53633911D01*
X201903714Y-53633911D02*
X202012571Y-53670197D01*
X202339142Y-54395911D02*
X202339142Y-53633911D01*
X202339142Y-53633911D02*
X202520571Y-53633911D01*
X202520571Y-53633911D02*
X202629428Y-53670197D01*
X202629428Y-53670197D02*
X202701999Y-53742768D01*
X202701999Y-53742768D02*
X202738285Y-53815340D01*
X202738285Y-53815340D02*
X202774571Y-53960483D01*
X202774571Y-53960483D02*
X202774571Y-54069340D01*
X202774571Y-54069340D02*
X202738285Y-54214483D01*
X202738285Y-54214483D02*
X202701999Y-54287054D01*
X202701999Y-54287054D02*
X202629428Y-54359626D01*
X202629428Y-54359626D02*
X202520571Y-54395911D01*
X202520571Y-54395911D02*
X202339142Y-54395911D01*
X203064856Y-54178197D02*
X203427714Y-54178197D01*
X202992285Y-54395911D02*
X203246285Y-53633911D01*
X203246285Y-53633911D02*
X203500285Y-54395911D01*
X96538000Y-103199911D02*
X96792000Y-103961911D01*
X96792000Y-103961911D02*
X97046000Y-103199911D01*
X97735429Y-103889340D02*
X97699143Y-103925626D01*
X97699143Y-103925626D02*
X97590286Y-103961911D01*
X97590286Y-103961911D02*
X97517714Y-103961911D01*
X97517714Y-103961911D02*
X97408857Y-103925626D01*
X97408857Y-103925626D02*
X97336286Y-103853054D01*
X97336286Y-103853054D02*
X97300000Y-103780483D01*
X97300000Y-103780483D02*
X97263714Y-103635340D01*
X97263714Y-103635340D02*
X97263714Y-103526483D01*
X97263714Y-103526483D02*
X97300000Y-103381340D01*
X97300000Y-103381340D02*
X97336286Y-103308768D01*
X97336286Y-103308768D02*
X97408857Y-103236197D01*
X97408857Y-103236197D02*
X97517714Y-103199911D01*
X97517714Y-103199911D02*
X97590286Y-103199911D01*
X97590286Y-103199911D02*
X97699143Y-103236197D01*
X97699143Y-103236197D02*
X97735429Y-103272483D01*
X98497429Y-103889340D02*
X98461143Y-103925626D01*
X98461143Y-103925626D02*
X98352286Y-103961911D01*
X98352286Y-103961911D02*
X98279714Y-103961911D01*
X98279714Y-103961911D02*
X98170857Y-103925626D01*
X98170857Y-103925626D02*
X98098286Y-103853054D01*
X98098286Y-103853054D02*
X98062000Y-103780483D01*
X98062000Y-103780483D02*
X98025714Y-103635340D01*
X98025714Y-103635340D02*
X98025714Y-103526483D01*
X98025714Y-103526483D02*
X98062000Y-103381340D01*
X98062000Y-103381340D02*
X98098286Y-103308768D01*
X98098286Y-103308768D02*
X98170857Y-103236197D01*
X98170857Y-103236197D02*
X98279714Y-103199911D01*
X98279714Y-103199911D02*
X98352286Y-103199911D01*
X98352286Y-103199911D02*
X98461143Y-103236197D01*
X98461143Y-103236197D02*
X98497429Y-103272483D01*
X94157517Y-103925626D02*
X94266375Y-103961911D01*
X94266375Y-103961911D02*
X94447803Y-103961911D01*
X94447803Y-103961911D02*
X94520375Y-103925626D01*
X94520375Y-103925626D02*
X94556660Y-103889340D01*
X94556660Y-103889340D02*
X94592946Y-103816768D01*
X94592946Y-103816768D02*
X94592946Y-103744197D01*
X94592946Y-103744197D02*
X94556660Y-103671626D01*
X94556660Y-103671626D02*
X94520375Y-103635340D01*
X94520375Y-103635340D02*
X94447803Y-103599054D01*
X94447803Y-103599054D02*
X94302660Y-103562768D01*
X94302660Y-103562768D02*
X94230089Y-103526483D01*
X94230089Y-103526483D02*
X94193803Y-103490197D01*
X94193803Y-103490197D02*
X94157517Y-103417626D01*
X94157517Y-103417626D02*
X94157517Y-103345054D01*
X94157517Y-103345054D02*
X94193803Y-103272483D01*
X94193803Y-103272483D02*
X94230089Y-103236197D01*
X94230089Y-103236197D02*
X94302660Y-103199911D01*
X94302660Y-103199911D02*
X94484089Y-103199911D01*
X94484089Y-103199911D02*
X94592946Y-103236197D01*
X95354946Y-103889340D02*
X95318660Y-103925626D01*
X95318660Y-103925626D02*
X95209803Y-103961911D01*
X95209803Y-103961911D02*
X95137231Y-103961911D01*
X95137231Y-103961911D02*
X95028374Y-103925626D01*
X95028374Y-103925626D02*
X94955803Y-103853054D01*
X94955803Y-103853054D02*
X94919517Y-103780483D01*
X94919517Y-103780483D02*
X94883231Y-103635340D01*
X94883231Y-103635340D02*
X94883231Y-103526483D01*
X94883231Y-103526483D02*
X94919517Y-103381340D01*
X94919517Y-103381340D02*
X94955803Y-103308768D01*
X94955803Y-103308768D02*
X95028374Y-103236197D01*
X95028374Y-103236197D02*
X95137231Y-103199911D01*
X95137231Y-103199911D02*
X95209803Y-103199911D01*
X95209803Y-103199911D02*
X95318660Y-103236197D01*
X95318660Y-103236197D02*
X95354946Y-103272483D01*
X96044374Y-103961911D02*
X95681517Y-103961911D01*
X95681517Y-103961911D02*
X95681517Y-103199911D01*
X139552857Y-116188626D02*
X139661715Y-116224911D01*
X139661715Y-116224911D02*
X139843143Y-116224911D01*
X139843143Y-116224911D02*
X139915715Y-116188626D01*
X139915715Y-116188626D02*
X139952000Y-116152340D01*
X139952000Y-116152340D02*
X139988286Y-116079768D01*
X139988286Y-116079768D02*
X139988286Y-116007197D01*
X139988286Y-116007197D02*
X139952000Y-115934626D01*
X139952000Y-115934626D02*
X139915715Y-115898340D01*
X139915715Y-115898340D02*
X139843143Y-115862054D01*
X139843143Y-115862054D02*
X139698000Y-115825768D01*
X139698000Y-115825768D02*
X139625429Y-115789483D01*
X139625429Y-115789483D02*
X139589143Y-115753197D01*
X139589143Y-115753197D02*
X139552857Y-115680626D01*
X139552857Y-115680626D02*
X139552857Y-115608054D01*
X139552857Y-115608054D02*
X139589143Y-115535483D01*
X139589143Y-115535483D02*
X139625429Y-115499197D01*
X139625429Y-115499197D02*
X139698000Y-115462911D01*
X139698000Y-115462911D02*
X139879429Y-115462911D01*
X139879429Y-115462911D02*
X139988286Y-115499197D01*
X140750286Y-116152340D02*
X140714000Y-116188626D01*
X140714000Y-116188626D02*
X140605143Y-116224911D01*
X140605143Y-116224911D02*
X140532571Y-116224911D01*
X140532571Y-116224911D02*
X140423714Y-116188626D01*
X140423714Y-116188626D02*
X140351143Y-116116054D01*
X140351143Y-116116054D02*
X140314857Y-116043483D01*
X140314857Y-116043483D02*
X140278571Y-115898340D01*
X140278571Y-115898340D02*
X140278571Y-115789483D01*
X140278571Y-115789483D02*
X140314857Y-115644340D01*
X140314857Y-115644340D02*
X140351143Y-115571768D01*
X140351143Y-115571768D02*
X140423714Y-115499197D01*
X140423714Y-115499197D02*
X140532571Y-115462911D01*
X140532571Y-115462911D02*
X140605143Y-115462911D01*
X140605143Y-115462911D02*
X140714000Y-115499197D01*
X140714000Y-115499197D02*
X140750286Y-115535483D01*
X141439714Y-116224911D02*
X141076857Y-116224911D01*
X141076857Y-116224911D02*
X141076857Y-115462911D01*
D14*
X85562925Y-57962085D02*
X85648639Y-57990657D01*
X85648639Y-57990657D02*
X85677210Y-58019228D01*
X85677210Y-58019228D02*
X85705782Y-58076371D01*
X85705782Y-58076371D02*
X85705782Y-58162085D01*
X85705782Y-58162085D02*
X85677210Y-58219228D01*
X85677210Y-58219228D02*
X85648639Y-58247800D01*
X85648639Y-58247800D02*
X85591496Y-58276371D01*
X85591496Y-58276371D02*
X85362925Y-58276371D01*
X85362925Y-58276371D02*
X85362925Y-57676371D01*
X85362925Y-57676371D02*
X85562925Y-57676371D01*
X85562925Y-57676371D02*
X85620068Y-57704942D01*
X85620068Y-57704942D02*
X85648639Y-57733514D01*
X85648639Y-57733514D02*
X85677210Y-57790657D01*
X85677210Y-57790657D02*
X85677210Y-57847800D01*
X85677210Y-57847800D02*
X85648639Y-57904942D01*
X85648639Y-57904942D02*
X85620068Y-57933514D01*
X85620068Y-57933514D02*
X85562925Y-57962085D01*
X85562925Y-57962085D02*
X85362925Y-57962085D01*
X85934353Y-58104942D02*
X86220068Y-58104942D01*
X85877210Y-58276371D02*
X86077210Y-57676371D01*
X86077210Y-57676371D02*
X86277210Y-58276371D01*
X86391496Y-57676371D02*
X86734354Y-57676371D01*
X86562925Y-58276371D02*
X86562925Y-57676371D01*
X86848639Y-57676371D02*
X87191497Y-57676371D01*
X87020068Y-58276371D02*
X87020068Y-57676371D01*
X87391497Y-58047800D02*
X87848640Y-58047800D01*
X87620068Y-58276371D02*
X87620068Y-57819228D01*
X88134354Y-58047800D02*
X88591497Y-58047800D01*
X88877211Y-58047800D02*
X89334354Y-58047800D01*
D13*
X91674714Y-103909626D02*
X91783572Y-103945911D01*
X91783572Y-103945911D02*
X91965000Y-103945911D01*
X91965000Y-103945911D02*
X92037572Y-103909626D01*
X92037572Y-103909626D02*
X92073857Y-103873340D01*
X92073857Y-103873340D02*
X92110143Y-103800768D01*
X92110143Y-103800768D02*
X92110143Y-103728197D01*
X92110143Y-103728197D02*
X92073857Y-103655626D01*
X92073857Y-103655626D02*
X92037572Y-103619340D01*
X92037572Y-103619340D02*
X91965000Y-103583054D01*
X91965000Y-103583054D02*
X91819857Y-103546768D01*
X91819857Y-103546768D02*
X91747286Y-103510483D01*
X91747286Y-103510483D02*
X91711000Y-103474197D01*
X91711000Y-103474197D02*
X91674714Y-103401626D01*
X91674714Y-103401626D02*
X91674714Y-103329054D01*
X91674714Y-103329054D02*
X91711000Y-103256483D01*
X91711000Y-103256483D02*
X91747286Y-103220197D01*
X91747286Y-103220197D02*
X91819857Y-103183911D01*
X91819857Y-103183911D02*
X92001286Y-103183911D01*
X92001286Y-103183911D02*
X92110143Y-103220197D01*
X92436714Y-103945911D02*
X92436714Y-103183911D01*
X92436714Y-103183911D02*
X92618143Y-103183911D01*
X92618143Y-103183911D02*
X92727000Y-103220197D01*
X92727000Y-103220197D02*
X92799571Y-103292768D01*
X92799571Y-103292768D02*
X92835857Y-103365340D01*
X92835857Y-103365340D02*
X92872143Y-103510483D01*
X92872143Y-103510483D02*
X92872143Y-103619340D01*
X92872143Y-103619340D02*
X92835857Y-103764483D01*
X92835857Y-103764483D02*
X92799571Y-103837054D01*
X92799571Y-103837054D02*
X92727000Y-103909626D01*
X92727000Y-103909626D02*
X92618143Y-103945911D01*
X92618143Y-103945911D02*
X92436714Y-103945911D01*
X93162428Y-103728197D02*
X93525286Y-103728197D01*
X93089857Y-103945911D02*
X93343857Y-103183911D01*
X93343857Y-103183911D02*
X93597857Y-103945911D01*
D14*
X106051646Y-68197800D02*
X106508789Y-68197800D01*
X106794503Y-68197800D02*
X107251646Y-68197800D01*
X107508788Y-68397800D02*
X107594503Y-68426371D01*
X107594503Y-68426371D02*
X107737360Y-68426371D01*
X107737360Y-68426371D02*
X107794503Y-68397800D01*
X107794503Y-68397800D02*
X107823074Y-68369228D01*
X107823074Y-68369228D02*
X107851645Y-68312085D01*
X107851645Y-68312085D02*
X107851645Y-68254942D01*
X107851645Y-68254942D02*
X107823074Y-68197800D01*
X107823074Y-68197800D02*
X107794503Y-68169228D01*
X107794503Y-68169228D02*
X107737360Y-68140657D01*
X107737360Y-68140657D02*
X107623074Y-68112085D01*
X107623074Y-68112085D02*
X107565931Y-68083514D01*
X107565931Y-68083514D02*
X107537360Y-68054942D01*
X107537360Y-68054942D02*
X107508788Y-67997800D01*
X107508788Y-67997800D02*
X107508788Y-67940657D01*
X107508788Y-67940657D02*
X107537360Y-67883514D01*
X107537360Y-67883514D02*
X107565931Y-67854942D01*
X107565931Y-67854942D02*
X107623074Y-67826371D01*
X107623074Y-67826371D02*
X107765931Y-67826371D01*
X107765931Y-67826371D02*
X107851645Y-67854942D01*
X108108789Y-68426371D02*
X108108789Y-67826371D01*
X108108789Y-67826371D02*
X108251646Y-67826371D01*
X108251646Y-67826371D02*
X108337360Y-67854942D01*
X108337360Y-67854942D02*
X108394503Y-67912085D01*
X108394503Y-67912085D02*
X108423074Y-67969228D01*
X108423074Y-67969228D02*
X108451646Y-68083514D01*
X108451646Y-68083514D02*
X108451646Y-68169228D01*
X108451646Y-68169228D02*
X108423074Y-68283514D01*
X108423074Y-68283514D02*
X108394503Y-68340657D01*
X108394503Y-68340657D02*
X108337360Y-68397800D01*
X108337360Y-68397800D02*
X108251646Y-68426371D01*
X108251646Y-68426371D02*
X108108789Y-68426371D01*
X108680217Y-68254942D02*
X108965932Y-68254942D01*
X108623074Y-68426371D02*
X108823074Y-67826371D01*
X108823074Y-67826371D02*
X109023074Y-68426371D01*
X106051646Y-83437800D02*
X106508789Y-83437800D01*
X106794503Y-83437800D02*
X107251646Y-83437800D01*
X107880217Y-83666371D02*
X107680217Y-83380657D01*
X107537360Y-83666371D02*
X107537360Y-83066371D01*
X107537360Y-83066371D02*
X107765931Y-83066371D01*
X107765931Y-83066371D02*
X107823074Y-83094942D01*
X107823074Y-83094942D02*
X107851645Y-83123514D01*
X107851645Y-83123514D02*
X107880217Y-83180657D01*
X107880217Y-83180657D02*
X107880217Y-83266371D01*
X107880217Y-83266371D02*
X107851645Y-83323514D01*
X107851645Y-83323514D02*
X107823074Y-83352085D01*
X107823074Y-83352085D02*
X107765931Y-83380657D01*
X107765931Y-83380657D02*
X107537360Y-83380657D01*
X108251645Y-83066371D02*
X108365931Y-83066371D01*
X108365931Y-83066371D02*
X108423074Y-83094942D01*
X108423074Y-83094942D02*
X108480217Y-83152085D01*
X108480217Y-83152085D02*
X108508788Y-83266371D01*
X108508788Y-83266371D02*
X108508788Y-83466371D01*
X108508788Y-83466371D02*
X108480217Y-83580657D01*
X108480217Y-83580657D02*
X108423074Y-83637800D01*
X108423074Y-83637800D02*
X108365931Y-83666371D01*
X108365931Y-83666371D02*
X108251645Y-83666371D01*
X108251645Y-83666371D02*
X108194503Y-83637800D01*
X108194503Y-83637800D02*
X108137360Y-83580657D01*
X108137360Y-83580657D02*
X108108788Y-83466371D01*
X108108788Y-83466371D02*
X108108788Y-83266371D01*
X108108788Y-83266371D02*
X108137360Y-83152085D01*
X108137360Y-83152085D02*
X108194503Y-83094942D01*
X108194503Y-83094942D02*
X108251645Y-83066371D01*
X108708788Y-83066371D02*
X108851645Y-83666371D01*
X108851645Y-83666371D02*
X108965931Y-83237800D01*
X108965931Y-83237800D02*
X109080216Y-83666371D01*
X109080216Y-83666371D02*
X109223074Y-83066371D01*
X109394502Y-83066371D02*
X109765930Y-83066371D01*
X109765930Y-83066371D02*
X109565930Y-83294942D01*
X109565930Y-83294942D02*
X109651645Y-83294942D01*
X109651645Y-83294942D02*
X109708788Y-83323514D01*
X109708788Y-83323514D02*
X109737359Y-83352085D01*
X109737359Y-83352085D02*
X109765930Y-83409228D01*
X109765930Y-83409228D02*
X109765930Y-83552085D01*
X109765930Y-83552085D02*
X109737359Y-83609228D01*
X109737359Y-83609228D02*
X109708788Y-83637800D01*
X109708788Y-83637800D02*
X109651645Y-83666371D01*
X109651645Y-83666371D02*
X109480216Y-83666371D01*
X109480216Y-83666371D02*
X109423073Y-83637800D01*
X109423073Y-83637800D02*
X109394502Y-83609228D01*
X86186497Y-75999228D02*
X86157925Y-76027800D01*
X86157925Y-76027800D02*
X86072211Y-76056371D01*
X86072211Y-76056371D02*
X86015068Y-76056371D01*
X86015068Y-76056371D02*
X85929354Y-76027800D01*
X85929354Y-76027800D02*
X85872211Y-75970657D01*
X85872211Y-75970657D02*
X85843640Y-75913514D01*
X85843640Y-75913514D02*
X85815068Y-75799228D01*
X85815068Y-75799228D02*
X85815068Y-75713514D01*
X85815068Y-75713514D02*
X85843640Y-75599228D01*
X85843640Y-75599228D02*
X85872211Y-75542085D01*
X85872211Y-75542085D02*
X85929354Y-75484942D01*
X85929354Y-75484942D02*
X86015068Y-75456371D01*
X86015068Y-75456371D02*
X86072211Y-75456371D01*
X86072211Y-75456371D02*
X86157925Y-75484942D01*
X86157925Y-75484942D02*
X86186497Y-75513514D01*
X86557925Y-75456371D02*
X86672211Y-75456371D01*
X86672211Y-75456371D02*
X86729354Y-75484942D01*
X86729354Y-75484942D02*
X86786497Y-75542085D01*
X86786497Y-75542085D02*
X86815068Y-75656371D01*
X86815068Y-75656371D02*
X86815068Y-75856371D01*
X86815068Y-75856371D02*
X86786497Y-75970657D01*
X86786497Y-75970657D02*
X86729354Y-76027800D01*
X86729354Y-76027800D02*
X86672211Y-76056371D01*
X86672211Y-76056371D02*
X86557925Y-76056371D01*
X86557925Y-76056371D02*
X86500783Y-76027800D01*
X86500783Y-76027800D02*
X86443640Y-75970657D01*
X86443640Y-75970657D02*
X86415068Y-75856371D01*
X86415068Y-75856371D02*
X86415068Y-75656371D01*
X86415068Y-75656371D02*
X86443640Y-75542085D01*
X86443640Y-75542085D02*
X86500783Y-75484942D01*
X86500783Y-75484942D02*
X86557925Y-75456371D01*
X87357925Y-76056371D02*
X87072211Y-76056371D01*
X87072211Y-76056371D02*
X87072211Y-75456371D01*
X87872210Y-76056371D02*
X87529353Y-76056371D01*
X87700782Y-76056371D02*
X87700782Y-75456371D01*
X87700782Y-75456371D02*
X87643639Y-75542085D01*
X87643639Y-75542085D02*
X87586496Y-75599228D01*
X87586496Y-75599228D02*
X87529353Y-75627800D01*
X88129354Y-75827800D02*
X88586497Y-75827800D01*
X88872211Y-75827800D02*
X89329354Y-75827800D01*
X106051646Y-65657800D02*
X106508789Y-65657800D01*
X106794503Y-65657800D02*
X107251646Y-65657800D01*
X107851645Y-65314942D02*
X107794503Y-65286371D01*
X107794503Y-65286371D02*
X107708788Y-65286371D01*
X107708788Y-65286371D02*
X107623074Y-65314942D01*
X107623074Y-65314942D02*
X107565931Y-65372085D01*
X107565931Y-65372085D02*
X107537360Y-65429228D01*
X107537360Y-65429228D02*
X107508788Y-65543514D01*
X107508788Y-65543514D02*
X107508788Y-65629228D01*
X107508788Y-65629228D02*
X107537360Y-65743514D01*
X107537360Y-65743514D02*
X107565931Y-65800657D01*
X107565931Y-65800657D02*
X107623074Y-65857800D01*
X107623074Y-65857800D02*
X107708788Y-65886371D01*
X107708788Y-65886371D02*
X107765931Y-65886371D01*
X107765931Y-65886371D02*
X107851645Y-65857800D01*
X107851645Y-65857800D02*
X107880217Y-65829228D01*
X107880217Y-65829228D02*
X107880217Y-65629228D01*
X107880217Y-65629228D02*
X107765931Y-65629228D01*
X108137360Y-65886371D02*
X108137360Y-65286371D01*
X108137360Y-65286371D02*
X108480217Y-65886371D01*
X108480217Y-65886371D02*
X108480217Y-65286371D01*
X108765931Y-65886371D02*
X108765931Y-65286371D01*
X108765931Y-65286371D02*
X108908788Y-65286371D01*
X108908788Y-65286371D02*
X108994502Y-65314942D01*
X108994502Y-65314942D02*
X109051645Y-65372085D01*
X109051645Y-65372085D02*
X109080216Y-65429228D01*
X109080216Y-65429228D02*
X109108788Y-65543514D01*
X109108788Y-65543514D02*
X109108788Y-65629228D01*
X109108788Y-65629228D02*
X109080216Y-65743514D01*
X109080216Y-65743514D02*
X109051645Y-65800657D01*
X109051645Y-65800657D02*
X108994502Y-65857800D01*
X108994502Y-65857800D02*
X108908788Y-65886371D01*
X108908788Y-65886371D02*
X108765931Y-65886371D01*
X106051646Y-70737800D02*
X106508789Y-70737800D01*
X106794503Y-70737800D02*
X107251646Y-70737800D01*
X107508788Y-70937800D02*
X107594503Y-70966371D01*
X107594503Y-70966371D02*
X107737360Y-70966371D01*
X107737360Y-70966371D02*
X107794503Y-70937800D01*
X107794503Y-70937800D02*
X107823074Y-70909228D01*
X107823074Y-70909228D02*
X107851645Y-70852085D01*
X107851645Y-70852085D02*
X107851645Y-70794942D01*
X107851645Y-70794942D02*
X107823074Y-70737800D01*
X107823074Y-70737800D02*
X107794503Y-70709228D01*
X107794503Y-70709228D02*
X107737360Y-70680657D01*
X107737360Y-70680657D02*
X107623074Y-70652085D01*
X107623074Y-70652085D02*
X107565931Y-70623514D01*
X107565931Y-70623514D02*
X107537360Y-70594942D01*
X107537360Y-70594942D02*
X107508788Y-70537800D01*
X107508788Y-70537800D02*
X107508788Y-70480657D01*
X107508788Y-70480657D02*
X107537360Y-70423514D01*
X107537360Y-70423514D02*
X107565931Y-70394942D01*
X107565931Y-70394942D02*
X107623074Y-70366371D01*
X107623074Y-70366371D02*
X107765931Y-70366371D01*
X107765931Y-70366371D02*
X107851645Y-70394942D01*
X108451646Y-70909228D02*
X108423074Y-70937800D01*
X108423074Y-70937800D02*
X108337360Y-70966371D01*
X108337360Y-70966371D02*
X108280217Y-70966371D01*
X108280217Y-70966371D02*
X108194503Y-70937800D01*
X108194503Y-70937800D02*
X108137360Y-70880657D01*
X108137360Y-70880657D02*
X108108789Y-70823514D01*
X108108789Y-70823514D02*
X108080217Y-70709228D01*
X108080217Y-70709228D02*
X108080217Y-70623514D01*
X108080217Y-70623514D02*
X108108789Y-70509228D01*
X108108789Y-70509228D02*
X108137360Y-70452085D01*
X108137360Y-70452085D02*
X108194503Y-70394942D01*
X108194503Y-70394942D02*
X108280217Y-70366371D01*
X108280217Y-70366371D02*
X108337360Y-70366371D01*
X108337360Y-70366371D02*
X108423074Y-70394942D01*
X108423074Y-70394942D02*
X108451646Y-70423514D01*
X108994503Y-70966371D02*
X108708789Y-70966371D01*
X108708789Y-70966371D02*
X108708789Y-70366371D01*
D10*
X90305476Y-123015295D02*
X90762619Y-123015295D01*
X90534047Y-123815295D02*
X90534047Y-123015295D01*
X91486429Y-123815295D02*
X91219762Y-123434342D01*
X91029286Y-123815295D02*
X91029286Y-123015295D01*
X91029286Y-123015295D02*
X91334048Y-123015295D01*
X91334048Y-123015295D02*
X91410238Y-123053390D01*
X91410238Y-123053390D02*
X91448333Y-123091485D01*
X91448333Y-123091485D02*
X91486429Y-123167676D01*
X91486429Y-123167676D02*
X91486429Y-123281961D01*
X91486429Y-123281961D02*
X91448333Y-123358152D01*
X91448333Y-123358152D02*
X91410238Y-123396247D01*
X91410238Y-123396247D02*
X91334048Y-123434342D01*
X91334048Y-123434342D02*
X91029286Y-123434342D01*
X92286429Y-123815295D02*
X92019762Y-123434342D01*
X91829286Y-123815295D02*
X91829286Y-123015295D01*
X91829286Y-123015295D02*
X92134048Y-123015295D01*
X92134048Y-123015295D02*
X92210238Y-123053390D01*
X92210238Y-123053390D02*
X92248333Y-123091485D01*
X92248333Y-123091485D02*
X92286429Y-123167676D01*
X92286429Y-123167676D02*
X92286429Y-123281961D01*
X92286429Y-123281961D02*
X92248333Y-123358152D01*
X92248333Y-123358152D02*
X92210238Y-123396247D01*
X92210238Y-123396247D02*
X92134048Y-123434342D01*
X92134048Y-123434342D02*
X91829286Y-123434342D01*
X92591190Y-123777200D02*
X92705476Y-123815295D01*
X92705476Y-123815295D02*
X92895952Y-123815295D01*
X92895952Y-123815295D02*
X92972143Y-123777200D01*
X92972143Y-123777200D02*
X93010238Y-123739104D01*
X93010238Y-123739104D02*
X93048333Y-123662914D01*
X93048333Y-123662914D02*
X93048333Y-123586723D01*
X93048333Y-123586723D02*
X93010238Y-123510533D01*
X93010238Y-123510533D02*
X92972143Y-123472438D01*
X92972143Y-123472438D02*
X92895952Y-123434342D01*
X92895952Y-123434342D02*
X92743571Y-123396247D01*
X92743571Y-123396247D02*
X92667381Y-123358152D01*
X92667381Y-123358152D02*
X92629286Y-123320057D01*
X92629286Y-123320057D02*
X92591190Y-123243866D01*
X92591190Y-123243866D02*
X92591190Y-123167676D01*
X92591190Y-123167676D02*
X92629286Y-123091485D01*
X92629286Y-123091485D02*
X92667381Y-123053390D01*
X92667381Y-123053390D02*
X92743571Y-123015295D01*
X92743571Y-123015295D02*
X92934048Y-123015295D01*
X92934048Y-123015295D02*
X93048333Y-123053390D01*
X81011000Y-107356620D02*
X82789000Y-107356620D01*
X81011000Y-109642620D02*
X81011000Y-107356620D01*
X82789000Y-107356620D02*
X82789000Y-109642620D01*
X82789000Y-109642620D02*
X81011000Y-109642620D01*
D15*
X81302896Y-146886251D02*
X82752465Y-145436682D01*
D14*
X81978041Y-157843577D02*
X82232600Y-158098136D01*
X81978041Y-157843577D02*
X84297352Y-155524267D01*
D15*
X82328201Y-147911556D02*
X81302896Y-146886251D01*
D14*
X82374021Y-157956715D02*
X82232600Y-158098136D01*
D15*
X82752465Y-145436682D02*
X83777770Y-146461987D01*
X83777770Y-146461987D02*
X82328201Y-147911556D01*
D14*
X83816519Y-159682055D02*
X83957940Y-159540634D01*
X83979154Y-159519421D02*
X82395234Y-157935501D01*
X84523626Y-160389162D02*
X83816519Y-159682055D01*
X87210632Y-155297993D02*
X90746166Y-151762459D01*
X90746166Y-151762459D02*
X91453272Y-152469566D01*
X91297709Y-152625129D02*
X92888699Y-154216120D01*
X91453272Y-152469566D02*
X91311851Y-152610987D01*
X92902841Y-154201978D02*
X93044263Y-154060556D01*
X93044263Y-154060556D02*
X93291750Y-154308044D01*
X93291750Y-154308044D02*
X87352054Y-160247741D01*
X87210632Y-155297993D02*
G75*
G02*
X84315138Y-155536846I-1580384J1488460D01*
G01*
X87352054Y-160247741D02*
G75*
G02*
X84523625Y-160389163I-1484925J1343503D01*
G01*
X137111399Y-129797857D02*
X137111399Y-130157857D01*
X137111399Y-129797857D02*
X140391399Y-129797857D01*
X137111399Y-132397857D02*
X137311399Y-132397857D01*
X137111399Y-133397857D02*
X137111399Y-132397857D01*
X137311399Y-130157857D02*
X137111399Y-130157857D01*
X137341399Y-132397857D02*
X137341399Y-130157857D01*
X142611399Y-131697857D02*
X147611399Y-131697857D01*
D15*
X144381999Y-121572457D02*
X146431999Y-121572457D01*
X144381999Y-123022457D02*
X144381999Y-121572457D01*
X146431999Y-121572457D02*
X146431999Y-123022457D01*
X146431999Y-123022457D02*
X144381999Y-123022457D01*
D14*
X147391399Y-132697857D02*
X147391399Y-134947857D01*
X147411399Y-134947857D02*
X147611399Y-134947857D01*
X147611399Y-131697857D02*
X147611399Y-132697857D01*
X147611399Y-132697857D02*
X147411399Y-132697857D01*
X147611399Y-134947857D02*
X147611399Y-135297857D01*
X147611399Y-135297857D02*
X139211399Y-135297858D01*
X139211399Y-135297858D02*
G75*
G02*
X137111398Y-133397857I-100000J2000001D01*
G01*
X142611399Y-131697857D02*
G75*
G02*
X140395081Y-129819328I-65000J2170000D01*
G01*
X174669545Y-74303870D02*
X174739301Y-73306306D01*
X174739301Y-73306306D02*
X174938814Y-73320257D01*
X174920668Y-70712639D02*
X174895556Y-71071762D01*
X174920668Y-70712639D02*
X178192678Y-70941440D01*
X174968741Y-73322350D02*
X175124995Y-71087806D01*
X175095068Y-71085714D02*
X174895556Y-71071762D01*
X180274733Y-72991672D02*
X185262553Y-73340454D01*
D15*
X182646185Y-64460915D02*
X182747332Y-63014447D01*
X182747332Y-63014447D02*
X184792338Y-63157448D01*
X184691191Y-64603916D02*
X182646185Y-64460915D01*
X184792338Y-63157448D02*
X184691191Y-64603916D01*
D14*
X184836332Y-76568586D02*
X185035845Y-76582537D01*
X184973333Y-74322672D02*
X184816381Y-76567191D01*
X185011430Y-76931685D02*
X176631892Y-76345731D01*
X185035845Y-76582537D02*
X185011430Y-76931685D01*
X185192797Y-74338018D02*
X184993284Y-74324067D01*
X185262553Y-73340454D02*
X185192797Y-74338018D01*
X176631892Y-76345731D02*
G75*
G02*
X174669543Y-74303870I39756J2002105D01*
G01*
X180274733Y-72991672D02*
G75*
G02*
X178194853Y-70963116I86530J2169249D01*
G01*
D10*
X193133423Y-110917974D02*
X194141304Y-110384892D01*
X193254977Y-110228607D02*
X193011869Y-111607339D01*
X193898196Y-111763623D02*
X193133423Y-110917974D01*
X194141304Y-110384892D02*
X193898196Y-111763623D01*
X136497000Y-95497000D02*
X136497000Y-96897000D01*
X136497000Y-96197000D02*
X137397000Y-95497000D01*
X137397000Y-95497000D02*
X137397000Y-96897000D01*
X137397000Y-96897000D02*
X136497000Y-96197000D01*
X174097077Y-116283708D02*
X175043714Y-115648194D01*
X174145907Y-115585413D02*
X174048247Y-116982003D01*
X174946055Y-117044783D02*
X174097077Y-116283708D01*
X175043714Y-115648194D02*
X174946055Y-117044783D01*
X91732000Y-100659000D02*
X93510000Y-100659000D01*
X91732000Y-102945000D02*
X91732000Y-100659000D01*
X93510000Y-100659000D02*
X93510000Y-102945000D01*
X93510000Y-102945000D02*
X91732000Y-102945000D01*
D14*
X116482893Y-134168492D02*
X116576067Y-134516225D01*
X116482893Y-134168492D02*
X119651129Y-133319565D01*
X116769253Y-134464461D02*
X116576067Y-134516225D01*
X117155822Y-136679899D02*
X117349007Y-136628135D01*
X117377985Y-136620371D02*
X116798230Y-134456697D01*
X117414641Y-137645825D02*
X117155822Y-136679899D01*
D15*
X121376863Y-124341596D02*
X123357011Y-123811017D01*
X121752150Y-125742188D02*
X121376863Y-124341596D01*
D14*
X122287241Y-134580246D02*
X127116870Y-133286151D01*
D15*
X123357011Y-123811017D02*
X123732298Y-125211609D01*
X123732298Y-125211609D02*
X121752150Y-125742188D01*
D14*
X127116870Y-133286151D02*
X127375689Y-134252077D01*
X127163185Y-134309017D02*
X127745528Y-136482350D01*
X127375689Y-134252077D02*
X127182504Y-134303841D01*
X127764847Y-136477174D02*
X127958032Y-136425410D01*
X127958032Y-136425410D02*
X128048618Y-136763484D01*
X128048618Y-136763484D02*
X119934842Y-138937565D01*
X119934842Y-138937565D02*
G75*
G02*
X117414640Y-137645825I-614231J1905971D01*
G01*
X122287241Y-134580246D02*
G75*
G02*
X119660242Y-133339352I-624423J2079236D01*
G01*
X153211399Y-79775260D02*
X153211399Y-80135260D01*
X153211399Y-79775260D02*
X156491399Y-79775260D01*
X153211399Y-82375260D02*
X153411399Y-82375260D01*
X153211399Y-83375260D02*
X153211399Y-82375260D01*
X153411399Y-80135260D02*
X153211399Y-80135260D01*
X153441399Y-82375260D02*
X153441399Y-80135260D01*
X158711399Y-81675260D02*
X163711399Y-81675260D01*
D15*
X160481999Y-71549860D02*
X162531999Y-71549860D01*
X160481999Y-72999860D02*
X160481999Y-71549860D01*
X162531999Y-71549860D02*
X162531999Y-72999860D01*
X162531999Y-72999860D02*
X160481999Y-72999860D01*
D14*
X163491399Y-82675260D02*
X163491399Y-84925260D01*
X163511399Y-84925260D02*
X163711399Y-84925260D01*
X163711399Y-81675260D02*
X163711399Y-82675260D01*
X163711399Y-82675260D02*
X163511399Y-82675260D01*
X163711399Y-84925260D02*
X163711399Y-85275260D01*
X163711399Y-85275260D02*
X155311399Y-85275261D01*
X155311399Y-85275261D02*
G75*
G02*
X153211398Y-83375260I-100000J2000001D01*
G01*
X158711399Y-81675260D02*
G75*
G02*
X156495081Y-79796731I-65000J2170000D01*
G01*
D10*
X137061000Y-116507000D02*
X138839000Y-116507000D01*
X137061000Y-118793000D02*
X137061000Y-116507000D01*
X138839000Y-116507000D02*
X138839000Y-118793000D01*
X138839000Y-118793000D02*
X137061000Y-118793000D01*
D14*
X212367790Y-105290897D02*
X212541438Y-104306089D01*
X212541438Y-104306089D02*
X212738400Y-104340819D01*
X212767944Y-104346029D02*
X213156916Y-102140059D01*
X212992923Y-101745589D02*
X212930410Y-102100120D01*
X212992923Y-101745589D02*
X216223093Y-102315155D01*
X213127371Y-102134850D02*
X212930410Y-102100120D01*
X218079434Y-104571789D02*
X223003473Y-105440030D01*
D15*
X221329602Y-96335649D02*
X221581392Y-94907678D01*
X221581392Y-94907678D02*
X223600248Y-95263657D01*
D14*
X222242155Y-108605925D02*
X222439117Y-108640655D01*
X222378340Y-108985338D02*
X214105954Y-107526694D01*
X222439117Y-108640655D02*
X222378340Y-108985338D01*
X222613167Y-106386635D02*
X222222459Y-108602452D01*
X222829825Y-106424838D02*
X222632863Y-106390108D01*
X223003473Y-105440030D02*
X222829825Y-106424838D01*
D15*
X223348458Y-96691628D02*
X221329602Y-96335649D01*
X223600248Y-95263657D02*
X223348458Y-96691628D01*
D14*
X214105954Y-107526694D02*
G75*
G02*
X212367789Y-105290897I248816J1986981D01*
G01*
X218079434Y-104571789D02*
G75*
G02*
X216222990Y-102336939I312804J2148320D01*
G01*
D10*
X128530380Y-125788544D02*
X128973590Y-124738037D01*
X128973590Y-124738037D02*
X129882676Y-125426197D01*
X129649739Y-124556864D02*
X128297442Y-124919209D01*
X129882676Y-125426197D02*
X128530380Y-125788544D01*
D16*
X154510000Y-111690000D02*
X165710000Y-111690000D01*
X154510000Y-114940000D02*
X154510000Y-111690000D01*
X154510000Y-120890000D02*
X154510000Y-117640000D01*
X165710000Y-111690000D02*
X165710000Y-114940000D01*
X165710000Y-117640000D02*
X165710000Y-120890000D01*
X165710000Y-120890000D02*
X154510000Y-120890000D01*
D14*
X172008671Y-112356142D02*
X172078427Y-111358578D01*
X172078427Y-111358578D02*
X172277940Y-111372529D01*
X172259794Y-108764911D02*
X172234682Y-109124034D01*
X172259794Y-108764911D02*
X175531804Y-108993712D01*
X172307867Y-111374622D02*
X172464121Y-109140078D01*
X172434194Y-109137986D02*
X172234682Y-109124034D01*
X177613859Y-111043944D02*
X182601679Y-111392726D01*
D15*
X179985311Y-102513187D02*
X180086458Y-101066719D01*
X180086458Y-101066719D02*
X182131464Y-101209720D01*
X182030317Y-102656188D02*
X179985311Y-102513187D01*
X182131464Y-101209720D02*
X182030317Y-102656188D01*
D14*
X182175458Y-114620858D02*
X182374971Y-114634809D01*
X182312459Y-112374944D02*
X182155507Y-114619463D01*
X182350556Y-114983957D02*
X173971018Y-114398003D01*
X182374971Y-114634809D02*
X182350556Y-114983957D01*
X182531923Y-112390290D02*
X182332410Y-112376339D01*
X182601679Y-111392726D02*
X182531923Y-112390290D01*
X173971018Y-114398003D02*
G75*
G02*
X172008669Y-112356142I39756J2002105D01*
G01*
X177613859Y-111043944D02*
G75*
G02*
X175533979Y-109015388I86530J2169249D01*
G01*
X115167969Y-91775260D02*
X115167969Y-92135260D01*
X115167969Y-91775260D02*
X118447969Y-91775260D01*
X115167969Y-94375260D02*
X115367969Y-94375260D01*
X115167969Y-95375260D02*
X115167969Y-94375260D01*
X115367969Y-92135260D02*
X115167969Y-92135260D01*
X115397969Y-94375260D02*
X115397969Y-92135260D01*
X120667969Y-93675260D02*
X125667969Y-93675260D01*
D15*
X122438569Y-83549860D02*
X124488569Y-83549860D01*
X122438569Y-84999860D02*
X122438569Y-83549860D01*
X124488569Y-83549860D02*
X124488569Y-84999860D01*
X124488569Y-84999860D02*
X122438569Y-84999860D01*
D14*
X125447969Y-94675260D02*
X125447969Y-96925260D01*
X125467969Y-96925260D02*
X125667969Y-96925260D01*
X125667969Y-93675260D02*
X125667969Y-94675260D01*
X125667969Y-94675260D02*
X125467969Y-94675260D01*
X125667969Y-96925260D02*
X125667969Y-97275260D01*
X125667969Y-97275260D02*
X117267969Y-97275261D01*
X117267969Y-97275261D02*
G75*
G02*
X115167968Y-95375260I-100000J2000001D01*
G01*
X120667969Y-93675260D02*
G75*
G02*
X118451651Y-91796731I-65000J2170000D01*
G01*
D10*
X139611000Y-116507000D02*
X141389000Y-116507000D01*
X139611000Y-118793000D02*
X139611000Y-116507000D01*
X141389000Y-116507000D02*
X141389000Y-118793000D01*
X141389000Y-118793000D02*
X139611000Y-118793000D01*
X154500000Y-105600000D02*
X154500000Y-107000000D01*
X154500000Y-106300000D02*
X155400000Y-105600000D01*
X155400000Y-105600000D02*
X155400000Y-107000000D01*
X155400000Y-107000000D02*
X154500000Y-106300000D01*
D16*
X89490000Y-108050000D02*
X89490000Y-119850000D01*
X93590000Y-108050000D02*
X89490000Y-108050000D01*
X93590000Y-119850000D02*
X89490000Y-119850000D01*
X95090000Y-113950000D02*
X96090000Y-113950000D01*
X95590000Y-113450000D02*
X95590000Y-114450000D01*
X97590000Y-108050000D02*
X101690000Y-108050000D01*
X101690000Y-108050000D02*
X101690000Y-110450000D01*
X101690000Y-112650000D02*
X101690000Y-115250000D01*
X101690000Y-117450000D02*
X101690000Y-119850000D01*
X101690000Y-119850000D02*
X97590000Y-119850000D01*
X98590000Y-113950000D02*
G75*
G02*
X92590000Y-113950000I-3000000J0D01*
G01*
X92590000Y-113950000D02*
G75*
G02*
X98590000Y-113950000I3000000J0D01*
G01*
X82679110Y-72855000D02*
X110079110Y-72855000D01*
X110079110Y-100155000D01*
X82679110Y-100155000D01*
X82679110Y-72855000D01*
X83229110Y-80255000D02*
X109629110Y-80255000D01*
X109629110Y-96855000D01*
X83229110Y-96855000D01*
X83229110Y-80255000D01*
X91379110Y-97255000D02*
X101379110Y-97255000D01*
X101379110Y-99655000D01*
X91379110Y-99655000D01*
X91379110Y-97255000D01*
D10*
X80900000Y-124375000D02*
X92900000Y-124375000D01*
X80900000Y-130375000D02*
X80900000Y-124375000D01*
X92900000Y-124375000D02*
X92900000Y-130375000D01*
X92900000Y-130375000D02*
X80900000Y-130375000D01*
D14*
X209055869Y-124073738D02*
X209229517Y-123088930D01*
X209229517Y-123088930D02*
X209426479Y-123123660D01*
X209456023Y-123128870D02*
X209844995Y-120922900D01*
X209681002Y-120528430D02*
X209618489Y-120882961D01*
X209681002Y-120528430D02*
X212911172Y-121097996D01*
X209815450Y-120917691D02*
X209618489Y-120882961D01*
X214767513Y-123354630D02*
X219691552Y-124222871D01*
D15*
X218017681Y-115118490D02*
X218269471Y-113690519D01*
X218269471Y-113690519D02*
X220288327Y-114046498D01*
D14*
X218930234Y-127388766D02*
X219127196Y-127423496D01*
X219066419Y-127768179D02*
X210794033Y-126309535D01*
X219127196Y-127423496D02*
X219066419Y-127768179D01*
X219301246Y-125169476D02*
X218910538Y-127385293D01*
X219517904Y-125207679D02*
X219320942Y-125172949D01*
X219691552Y-124222871D02*
X219517904Y-125207679D01*
D15*
X220036537Y-115474469D02*
X218017681Y-115118490D01*
X220288327Y-114046498D02*
X220036537Y-115474469D01*
D14*
X210794033Y-126309535D02*
G75*
G02*
X209055868Y-124073738I248816J1986981D01*
G01*
X214767513Y-123354630D02*
G75*
G02*
X212911069Y-121119780I312804J2148320D01*
G01*
D10*
X116500000Y-98500000D02*
X116500000Y-99900000D01*
X116500000Y-99200000D02*
X117400000Y-98500000D01*
X117400000Y-98500000D02*
X117400000Y-99900000D01*
X117400000Y-99900000D02*
X116500000Y-99200000D01*
X96771000Y-100659000D02*
X98549000Y-100659000D01*
X96771000Y-102945000D02*
X96771000Y-100659000D01*
X98549000Y-100659000D02*
X98549000Y-102945000D01*
X98549000Y-102945000D02*
X96771000Y-102945000D01*
D14*
X115167969Y-110847857D02*
X115167969Y-111207857D01*
X115167969Y-110847857D02*
X118447969Y-110847857D01*
X115167969Y-113447857D02*
X115367969Y-113447857D01*
X115167969Y-114447857D02*
X115167969Y-113447857D01*
X115367969Y-111207857D02*
X115167969Y-111207857D01*
X115397969Y-113447857D02*
X115397969Y-111207857D01*
X120667969Y-112747857D02*
X125667969Y-112747857D01*
D15*
X122438569Y-102622457D02*
X124488569Y-102622457D01*
X122438569Y-104072457D02*
X122438569Y-102622457D01*
X124488569Y-102622457D02*
X124488569Y-104072457D01*
X124488569Y-104072457D02*
X122438569Y-104072457D01*
D14*
X125447969Y-113747857D02*
X125447969Y-115997857D01*
X125467969Y-115997857D02*
X125667969Y-115997857D01*
X125667969Y-112747857D02*
X125667969Y-113747857D01*
X125667969Y-113747857D02*
X125467969Y-113747857D01*
X125667969Y-115997857D02*
X125667969Y-116347857D01*
X125667969Y-116347857D02*
X117267969Y-116347858D01*
X117267969Y-116347858D02*
G75*
G02*
X115167968Y-114447857I-100000J2000001D01*
G01*
X120667969Y-112747857D02*
G75*
G02*
X118451651Y-110869328I-65000J2170000D01*
G01*
D10*
X94277000Y-100659000D02*
X96055000Y-100659000D01*
X94277000Y-102945000D02*
X94277000Y-100659000D01*
X96055000Y-100659000D02*
X96055000Y-102945000D01*
X96055000Y-102945000D02*
X94277000Y-102945000D01*
X196433423Y-92117974D02*
X197441304Y-91584892D01*
X196554977Y-91428607D02*
X196311869Y-92807339D01*
X197198196Y-92963623D02*
X196433423Y-92117974D01*
X197441304Y-91584892D02*
X197198196Y-92963623D01*
X144711000Y-116507000D02*
X146489000Y-116507000D01*
X144711000Y-118793000D02*
X144711000Y-116507000D01*
X146489000Y-116507000D02*
X146489000Y-118793000D01*
X146489000Y-118793000D02*
X144711000Y-118793000D01*
X107115782Y-132596167D02*
X107272000Y-131466744D01*
X107272000Y-131466744D02*
X108328218Y-131896167D01*
X107878218Y-131116744D02*
X106665782Y-131816744D01*
X108328218Y-131896167D02*
X107115782Y-132596167D01*
D14*
X115167969Y-72702664D02*
X115167969Y-73062664D01*
X115167969Y-72702664D02*
X118447969Y-72702664D01*
X115167969Y-75302664D02*
X115367969Y-75302664D01*
X115167969Y-76302664D02*
X115167969Y-75302664D01*
X115367969Y-73062664D02*
X115167969Y-73062664D01*
X115397969Y-75302664D02*
X115397969Y-73062664D01*
X120667969Y-74602664D02*
X125667969Y-74602664D01*
D15*
X122438569Y-64477264D02*
X124488569Y-64477264D01*
X122438569Y-65927264D02*
X122438569Y-64477264D01*
X124488569Y-64477264D02*
X124488569Y-65927264D01*
X124488569Y-65927264D02*
X122438569Y-65927264D01*
D14*
X125447969Y-75602664D02*
X125447969Y-77852664D01*
X125467969Y-77852664D02*
X125667969Y-77852664D01*
X125667969Y-74602664D02*
X125667969Y-75602664D01*
X125667969Y-75602664D02*
X125467969Y-75602664D01*
X125667969Y-77852664D02*
X125667969Y-78202664D01*
X125667969Y-78202664D02*
X117267969Y-78202665D01*
X117267969Y-78202665D02*
G75*
G02*
X115167968Y-76302664I-100000J2000001D01*
G01*
X120667969Y-74602664D02*
G75*
G02*
X118451651Y-72724135I-65000J2170000D01*
G01*
D16*
X80890000Y-100740000D02*
X80890000Y-101660000D01*
X80890000Y-101660000D02*
X82490000Y-101660000D01*
X80890000Y-105940000D02*
X80890000Y-106860000D01*
X80890000Y-106860000D02*
X88710000Y-106860000D01*
X82490000Y-100740000D02*
X82490000Y-101660000D01*
X82490000Y-101660000D02*
X82490000Y-101940000D01*
X82490000Y-105660000D02*
X81275000Y-105660000D01*
X82490000Y-105660000D02*
X82490000Y-105940000D01*
X82490000Y-105940000D02*
X80890000Y-105940000D01*
X82490000Y-106860000D02*
X82490000Y-105940000D01*
X84350000Y-103300000D02*
X88710000Y-103300000D01*
X84350000Y-104300000D02*
X84350000Y-103300000D01*
X84850000Y-101500000D02*
X86450000Y-101500000D01*
X84850000Y-102500000D02*
X84850000Y-101500000D01*
X84850000Y-105100000D02*
X84850000Y-106100000D01*
X84850000Y-106100000D02*
X86450000Y-106100000D01*
X86450000Y-101500000D02*
X86450000Y-102500000D01*
X86450000Y-102500000D02*
X84850000Y-102500000D01*
X86450000Y-105100000D02*
X84850000Y-105100000D01*
X86450000Y-105100000D02*
X88710000Y-105100000D01*
X86450000Y-105600000D02*
X88710000Y-105600000D01*
X86450000Y-106100000D02*
X86450000Y-105100000D01*
X88710000Y-100740000D02*
X80890000Y-100740000D01*
X88710000Y-104300000D02*
X84350000Y-104300000D01*
X88710000Y-106860000D02*
X88710000Y-100740000D01*
D10*
X201636000Y-57207000D02*
X203414000Y-57207000D01*
X201636000Y-59493000D02*
X201636000Y-57207000D01*
X203414000Y-57207000D02*
X203414000Y-59493000D01*
X203414000Y-59493000D02*
X201636000Y-59493000D01*
D14*
X173339108Y-93330005D02*
X173408864Y-92332441D01*
X173408864Y-92332441D02*
X173608377Y-92346392D01*
X173590231Y-89738774D02*
X173565119Y-90097897D01*
X173590231Y-89738774D02*
X176862241Y-89967575D01*
X173638304Y-92348485D02*
X173794558Y-90113941D01*
X173764631Y-90111849D02*
X173565119Y-90097897D01*
X178944296Y-92017807D02*
X183932116Y-92366589D01*
D15*
X181315748Y-83487050D02*
X181416895Y-82040582D01*
X181416895Y-82040582D02*
X183461901Y-82183583D01*
X183360754Y-83630051D02*
X181315748Y-83487050D01*
X183461901Y-82183583D02*
X183360754Y-83630051D01*
D14*
X183505895Y-95594721D02*
X183705408Y-95608672D01*
X183642896Y-93348807D02*
X183485944Y-95593326D01*
X183680993Y-95957820D02*
X175301455Y-95371866D01*
X183705408Y-95608672D02*
X183680993Y-95957820D01*
X183862360Y-93364153D02*
X183662847Y-93350202D01*
X183932116Y-92366589D02*
X183862360Y-93364153D01*
X175301455Y-95371866D02*
G75*
G02*
X173339106Y-93330005I39756J2002105D01*
G01*
X178944296Y-92017807D02*
G75*
G02*
X176864416Y-89989251I86530J2169249D01*
G01*
D16*
X81009995Y-119660008D02*
X81009995Y-121660008D01*
X83809995Y-118260008D02*
X82809995Y-118260008D01*
X83809995Y-118860008D02*
X83809995Y-118260008D01*
X83809995Y-122460008D02*
X83809995Y-123060008D01*
X83809995Y-123060008D02*
X82809995Y-123060008D01*
D10*
X194036000Y-57207000D02*
X195814000Y-57207000D01*
X194036000Y-59493000D02*
X194036000Y-57207000D01*
X195814000Y-57207000D02*
X195814000Y-59493000D01*
X195814000Y-59493000D02*
X194036000Y-59493000D01*
X221381769Y-110808378D02*
X222389650Y-110275296D01*
X221503323Y-110119011D02*
X221260215Y-111497743D01*
X222146542Y-111654027D02*
X221381769Y-110808378D01*
X222389650Y-110275296D02*
X222146542Y-111654027D01*
X135500000Y-76400000D02*
X135500000Y-77800000D01*
X135500000Y-77100000D02*
X136400000Y-76400000D01*
X136400000Y-76400000D02*
X136400000Y-77800000D01*
X136400000Y-77800000D02*
X135500000Y-77100000D01*
X154600000Y-67400000D02*
X154600000Y-68800000D01*
X154600000Y-68100000D02*
X155500000Y-67400000D01*
X155500000Y-67400000D02*
X155500000Y-68800000D01*
X155500000Y-68800000D02*
X154600000Y-68100000D01*
X154579000Y-86485000D02*
X154579000Y-87885000D01*
X154579000Y-87185000D02*
X155479000Y-86485000D01*
X155479000Y-86485000D02*
X155479000Y-87885000D01*
X155479000Y-87885000D02*
X154579000Y-87185000D01*
X189807596Y-129613176D02*
X190815477Y-129080094D01*
X189929150Y-128923809D02*
X189686042Y-130302541D01*
X190572369Y-130458825D02*
X189807596Y-129613176D01*
X190815477Y-129080094D02*
X190572369Y-130458825D01*
X100380000Y-106260000D02*
X100380000Y-107660000D01*
X100380000Y-106960000D02*
X101280000Y-106260000D01*
X101280000Y-106260000D02*
X101280000Y-107660000D01*
X101280000Y-107660000D02*
X100380000Y-106960000D01*
D14*
X153211399Y-60702664D02*
X153211399Y-61062664D01*
X153211399Y-60702664D02*
X156491399Y-60702664D01*
X153211399Y-63302664D02*
X153411399Y-63302664D01*
X153211399Y-64302664D02*
X153211399Y-63302664D01*
X153411399Y-61062664D02*
X153211399Y-61062664D01*
X153441399Y-63302664D02*
X153441399Y-61062664D01*
X158711399Y-62602664D02*
X163711399Y-62602664D01*
D15*
X160481999Y-52477264D02*
X162531999Y-52477264D01*
X160481999Y-53927264D02*
X160481999Y-52477264D01*
X162531999Y-52477264D02*
X162531999Y-53927264D01*
X162531999Y-53927264D02*
X160481999Y-53927264D01*
D14*
X163491399Y-63602664D02*
X163491399Y-65852664D01*
X163511399Y-65852664D02*
X163711399Y-65852664D01*
X163711399Y-62602664D02*
X163711399Y-63602664D01*
X163711399Y-63602664D02*
X163511399Y-63602664D01*
X163711399Y-65852664D02*
X163711399Y-66202664D01*
X163711399Y-66202664D02*
X155311399Y-66202665D01*
X155311399Y-66202665D02*
G75*
G02*
X153211398Y-64302664I-100000J2000001D01*
G01*
X158711399Y-62602664D02*
G75*
G02*
X156495081Y-60724135I-65000J2170000D01*
G01*
D17*
X129279000Y-93542500D02*
G75*
G02*
X130312865Y-89391954I20320000J-2857500D01*
G01*
X130312866Y-103408047D02*
G75*
G02*
X129279000Y-99257500I19286134J7008047D01*
G01*
X142590953Y-77113866D02*
G75*
G02*
X146741500Y-76080000I7008037J-19286087D01*
G01*
X152456500Y-76080000D02*
G75*
G02*
X156607048Y-77113866I-2857496J-20319983D01*
G01*
X168885134Y-89391952D02*
G75*
G02*
X169919000Y-93542500I-19286117J-7008044D01*
G01*
X169919000Y-99257500D02*
G75*
G02*
X168885134Y-103408047I-20320000J2857500D01*
G01*
D14*
X97687604Y-143734364D02*
X97867604Y-144046133D01*
X97687604Y-143734364D02*
X100528167Y-142094364D01*
X98040809Y-143946133D02*
X97867604Y-144046133D01*
X98987604Y-145986030D02*
X99160809Y-145886030D01*
X99186790Y-145871030D02*
X98066790Y-143931133D01*
X99487604Y-146852055D02*
X98987604Y-145986030D01*
D15*
X99871428Y-132975659D02*
X101646780Y-131950659D01*
X100596428Y-134231395D02*
X99871428Y-132975659D01*
X101646780Y-131950659D02*
X102371780Y-133206395D01*
X102371780Y-133206395D02*
X100596428Y-134231395D01*
D14*
X103400744Y-142629812D02*
X107730871Y-140129812D01*
X107730871Y-140129812D02*
X108230871Y-140995838D01*
X108040345Y-141105838D02*
X109165345Y-143054395D01*
X108230871Y-140995838D02*
X108057666Y-141095838D01*
X109182666Y-143044395D02*
X109355871Y-142944395D01*
X109355871Y-142944395D02*
X109530871Y-143247504D01*
X109530871Y-143247504D02*
X102256258Y-147447505D01*
X102256258Y-147447505D02*
G75*
G02*
X99487603Y-146852056I-1086603J1682052D01*
G01*
X103400744Y-142629812D02*
G75*
G02*
X100542091Y-142111117I-1141292J1846775D01*
G01*
D10*
X99316000Y-100659000D02*
X101094000Y-100659000D01*
X99316000Y-102945000D02*
X99316000Y-100659000D01*
X101094000Y-100659000D02*
X101094000Y-102945000D01*
X101094000Y-102945000D02*
X99316000Y-102945000D01*
D14*
X189453631Y-125694468D02*
X189627279Y-124709660D01*
X189627279Y-124709660D02*
X189824241Y-124744390D01*
X189853785Y-124749600D02*
X190242757Y-122543630D01*
X190078764Y-122149160D02*
X190016251Y-122503691D01*
X190078764Y-122149160D02*
X193308934Y-122718726D01*
X190213212Y-122538421D02*
X190016251Y-122503691D01*
X195165275Y-124975360D02*
X200089314Y-125843601D01*
D15*
X198415443Y-116739220D02*
X198667233Y-115311249D01*
X198667233Y-115311249D02*
X200686089Y-115667228D01*
D14*
X199327996Y-129009496D02*
X199524958Y-129044226D01*
X199464181Y-129388909D02*
X191191795Y-127930265D01*
X199524958Y-129044226D02*
X199464181Y-129388909D01*
X199699008Y-126790206D02*
X199308300Y-129006023D01*
X199915666Y-126828409D02*
X199718704Y-126793679D01*
X200089314Y-125843601D02*
X199915666Y-126828409D01*
D15*
X200434299Y-117095199D02*
X198415443Y-116739220D01*
X200686089Y-115667228D02*
X200434299Y-117095199D01*
D14*
X191191795Y-127930265D02*
G75*
G02*
X189453630Y-125694468I248816J1986981D01*
G01*
X195165275Y-124975360D02*
G75*
G02*
X193308831Y-122740510I312804J2148320D01*
G01*
D10*
X174105359Y-97246536D02*
X175051996Y-96611022D01*
X174154189Y-96548241D02*
X174056529Y-97944831D01*
X174954337Y-98007611D02*
X174105359Y-97246536D01*
X175051996Y-96611022D02*
X174954337Y-98007611D01*
D14*
X134161399Y-107847857D02*
X134161399Y-108207857D01*
X134161399Y-107847857D02*
X137441399Y-107847857D01*
X134161399Y-110447857D02*
X134361399Y-110447857D01*
X134161399Y-111447857D02*
X134161399Y-110447857D01*
X134361399Y-108207857D02*
X134161399Y-108207857D01*
X134391399Y-110447857D02*
X134391399Y-108207857D01*
X139661399Y-109747857D02*
X144661399Y-109747857D01*
D15*
X141431999Y-99622457D02*
X143481999Y-99622457D01*
X141431999Y-101072457D02*
X141431999Y-99622457D01*
X143481999Y-99622457D02*
X143481999Y-101072457D01*
X143481999Y-101072457D02*
X141431999Y-101072457D01*
D14*
X144441399Y-110747857D02*
X144441399Y-112997857D01*
X144461399Y-112997857D02*
X144661399Y-112997857D01*
X144661399Y-109747857D02*
X144661399Y-110747857D01*
X144661399Y-110747857D02*
X144461399Y-110747857D01*
X144661399Y-112997857D02*
X144661399Y-113347857D01*
X144661399Y-113347857D02*
X136261399Y-113347858D01*
X136261399Y-113347858D02*
G75*
G02*
X134161398Y-111447857I-100000J2000001D01*
G01*
X139661399Y-109747857D02*
G75*
G02*
X137445081Y-107869328I-65000J2170000D01*
G01*
X134161399Y-88775260D02*
X134161399Y-89135260D01*
X134161399Y-88775260D02*
X137441399Y-88775260D01*
X134161399Y-91375260D02*
X134361399Y-91375260D01*
X134161399Y-92375260D02*
X134161399Y-91375260D01*
X134361399Y-89135260D02*
X134161399Y-89135260D01*
X134391399Y-91375260D02*
X134391399Y-89135260D01*
X139661399Y-90675260D02*
X144661399Y-90675260D01*
D15*
X141431999Y-80549860D02*
X143481999Y-80549860D01*
X141431999Y-81999860D02*
X141431999Y-80549860D01*
X143481999Y-80549860D02*
X143481999Y-81999860D01*
X143481999Y-81999860D02*
X141431999Y-81999860D01*
D14*
X144441399Y-91675260D02*
X144441399Y-93925260D01*
X144461399Y-93925260D02*
X144661399Y-93925260D01*
X144661399Y-90675260D02*
X144661399Y-91675260D01*
X144661399Y-91675260D02*
X144461399Y-91675260D01*
X144661399Y-93925260D02*
X144661399Y-94275260D01*
X144661399Y-94275260D02*
X136261399Y-94275261D01*
X136261399Y-94275261D02*
G75*
G02*
X134161398Y-92375260I-100000J2000001D01*
G01*
X139661399Y-90675260D02*
G75*
G02*
X137445081Y-88796731I-65000J2170000D01*
G01*
D10*
X175497077Y-78183708D02*
X176443714Y-77548194D01*
X175545907Y-77485413D02*
X175448247Y-78882003D01*
X176346055Y-78944783D02*
X175497077Y-78183708D01*
X176443714Y-77548194D02*
X176346055Y-78944783D01*
X87919365Y-143324365D02*
X89050735Y-143465786D01*
X88060786Y-144455735D02*
X87919365Y-143324365D01*
X88414339Y-142829390D02*
X87424390Y-143819339D01*
X89050735Y-143465786D02*
X88060786Y-144455735D01*
X147500000Y-102800000D02*
X148900000Y-102800000D01*
X147500000Y-103700000D02*
X148900000Y-103700000D01*
X148200000Y-103700000D02*
X147500000Y-102800000D01*
X148900000Y-102800000D02*
X148200000Y-103700000D01*
D14*
X196077475Y-88128787D02*
X196251123Y-87143979D01*
X196251123Y-87143979D02*
X196448085Y-87178709D01*
X196477629Y-87183919D02*
X196866601Y-84977949D01*
X196702608Y-84583479D02*
X196640095Y-84938010D01*
X196702608Y-84583479D02*
X199932778Y-85153045D01*
X196837056Y-84972740D02*
X196640095Y-84938010D01*
X201789119Y-87409679D02*
X206713158Y-88277920D01*
D15*
X205039287Y-79173539D02*
X205291077Y-77745568D01*
X205291077Y-77745568D02*
X207309933Y-78101547D01*
D14*
X205951840Y-91443815D02*
X206148802Y-91478545D01*
X206088025Y-91823228D02*
X197815639Y-90364584D01*
X206148802Y-91478545D02*
X206088025Y-91823228D01*
X206322852Y-89224525D02*
X205932144Y-91440342D01*
X206539510Y-89262728D02*
X206342548Y-89227998D01*
X206713158Y-88277920D02*
X206539510Y-89262728D01*
D15*
X207058143Y-79529518D02*
X205039287Y-79173539D01*
X207309933Y-78101547D02*
X207058143Y-79529518D01*
D14*
X197815639Y-90364584D02*
G75*
G02*
X196077474Y-88128787I248816J1986981D01*
G01*
X201789119Y-87409679D02*
G75*
G02*
X199932675Y-85174829I312804J2148320D01*
G01*
D10*
X116500000Y-79400000D02*
X116500000Y-80800000D01*
X116500000Y-80100000D02*
X117400000Y-79400000D01*
X117400000Y-79400000D02*
X117400000Y-80800000D01*
X117400000Y-80800000D02*
X116500000Y-80100000D01*
X80701228Y-60676228D02*
X83601228Y-60676228D01*
X80751228Y-67426228D02*
X80701228Y-60676228D01*
X83601228Y-60676228D02*
X83601228Y-67426228D01*
X83601228Y-67426228D02*
X80751228Y-67426228D01*
X82786000Y-107356620D02*
X84564000Y-107356620D01*
X82786000Y-109642620D02*
X82786000Y-107356620D01*
X84564000Y-107356620D02*
X84564000Y-109642620D01*
X84564000Y-109642620D02*
X82786000Y-109642620D01*
X204211000Y-57207000D02*
X205989000Y-57207000D01*
X204211000Y-59493000D02*
X204211000Y-57207000D01*
X205989000Y-57207000D02*
X205989000Y-59493000D01*
X205989000Y-59493000D02*
X204211000Y-59493000D01*
X116300000Y-117590000D02*
X116300000Y-118990000D01*
X116300000Y-118290000D02*
X117200000Y-117590000D01*
X117200000Y-117590000D02*
X117200000Y-118990000D01*
X117200000Y-118990000D02*
X116300000Y-118290000D01*
X218033423Y-129417974D02*
X219041304Y-128884892D01*
X218154977Y-128728607D02*
X217911869Y-130107339D01*
X218798196Y-130263623D02*
X218033423Y-129417974D01*
X219041304Y-128884892D02*
X218798196Y-130263623D01*
D16*
X136700000Y-118850000D02*
X149350000Y-118850000D01*
X149350000Y-121350000D01*
X136700000Y-121350000D01*
X136700000Y-118850000D01*
D14*
X153211399Y-98847857D02*
X153211399Y-99207857D01*
X153211399Y-98847857D02*
X156491399Y-98847857D01*
X153211399Y-101447857D02*
X153411399Y-101447857D01*
X153211399Y-102447857D02*
X153211399Y-101447857D01*
X153411399Y-99207857D02*
X153211399Y-99207857D01*
X153441399Y-101447857D02*
X153441399Y-99207857D01*
X158711399Y-100747857D02*
X163711399Y-100747857D01*
D15*
X160481999Y-90622457D02*
X162531999Y-90622457D01*
X160481999Y-92072457D02*
X160481999Y-90622457D01*
X162531999Y-90622457D02*
X162531999Y-92072457D01*
X162531999Y-92072457D02*
X160481999Y-92072457D01*
D14*
X163491399Y-101747857D02*
X163491399Y-103997857D01*
X163511399Y-103997857D02*
X163711399Y-103997857D01*
X163711399Y-100747857D02*
X163711399Y-101747857D01*
X163711399Y-101747857D02*
X163511399Y-101747857D01*
X163711399Y-103997857D02*
X163711399Y-104347857D01*
X163711399Y-104347857D02*
X155311399Y-104347858D01*
X155311399Y-104347858D02*
G75*
G02*
X153211398Y-102447857I-100000J2000001D01*
G01*
X158711399Y-100747857D02*
G75*
G02*
X156495081Y-98869328I-65000J2170000D01*
G01*
X192765553Y-106911626D02*
X192939201Y-105926818D01*
X192939201Y-105926818D02*
X193136163Y-105961548D01*
X193165707Y-105966758D02*
X193554679Y-103760788D01*
X193390686Y-103366318D02*
X193328173Y-103720849D01*
X193390686Y-103366318D02*
X196620856Y-103935884D01*
X193525134Y-103755579D02*
X193328173Y-103720849D01*
X198477197Y-106192518D02*
X203401236Y-107060759D01*
D15*
X201727365Y-97956378D02*
X201979155Y-96528407D01*
X201979155Y-96528407D02*
X203998011Y-96884386D01*
D14*
X202639918Y-110226654D02*
X202836880Y-110261384D01*
X202776103Y-110606067D02*
X194503717Y-109147423D01*
X202836880Y-110261384D02*
X202776103Y-110606067D01*
X203010930Y-108007364D02*
X202620222Y-110223181D01*
X203227588Y-108045567D02*
X203030626Y-108010837D01*
X203401236Y-107060759D02*
X203227588Y-108045567D01*
D15*
X203746221Y-98312357D02*
X201727365Y-97956378D01*
X203998011Y-96884386D02*
X203746221Y-98312357D01*
D14*
X194503717Y-109147423D02*
G75*
G02*
X192765552Y-106911626I248816J1986981D01*
G01*
X198477197Y-106192518D02*
G75*
G02*
X196620753Y-103957668I312804J2148320D01*
G01*
D10*
X88808815Y-54225745D02*
X88808815Y-87245745D01*
X88808815Y-56765745D02*
X88808815Y-87245745D01*
X88808815Y-87245745D02*
X91348815Y-87245745D01*
X91348815Y-56765745D02*
X88808815Y-56765745D01*
X91348815Y-87245745D02*
X91348815Y-56765745D01*
X104048815Y-56765745D02*
X104048815Y-87245745D01*
X104048815Y-87245745D02*
X106588815Y-87245745D01*
X106588815Y-54225745D02*
X88808815Y-54225745D01*
X106588815Y-56765745D02*
X104048815Y-56765745D01*
X106588815Y-87245745D02*
X106588815Y-54225745D01*
X106588815Y-87245745D02*
X106588815Y-56765745D01*
D14*
X134161399Y-69702664D02*
X134161399Y-70062664D01*
X134161399Y-69702664D02*
X137441399Y-69702664D01*
X134161399Y-72302664D02*
X134361399Y-72302664D01*
X134161399Y-73302664D02*
X134161399Y-72302664D01*
X134361399Y-70062664D02*
X134161399Y-70062664D01*
X134391399Y-72302664D02*
X134391399Y-70062664D01*
X139661399Y-71602664D02*
X144661399Y-71602664D01*
D15*
X141431999Y-61477264D02*
X143481999Y-61477264D01*
X141431999Y-62927264D02*
X141431999Y-61477264D01*
X143481999Y-61477264D02*
X143481999Y-62927264D01*
X143481999Y-62927264D02*
X141431999Y-62927264D01*
D14*
X144441399Y-72602664D02*
X144441399Y-74852664D01*
X144461399Y-74852664D02*
X144661399Y-74852664D01*
X144661399Y-71602664D02*
X144661399Y-72602664D01*
X144661399Y-72602664D02*
X144461399Y-72602664D01*
X144661399Y-74852664D02*
X144661399Y-75202664D01*
X144661399Y-75202664D02*
X136261399Y-75202665D01*
X136261399Y-75202665D02*
G75*
G02*
X134161398Y-73302664I-100000J2000001D01*
G01*
X139661399Y-71602664D02*
G75*
G02*
X137445081Y-69724135I-65000J2170000D01*
G01*
D10*
X150904000Y-124705000D02*
X151604000Y-123805000D01*
X151604000Y-123805000D02*
X152304000Y-124705000D01*
X152304000Y-123805000D02*
X150904000Y-123805000D01*
X152304000Y-124705000D02*
X150904000Y-124705000D01*
D18*
X82400000Y-129125000D03*
X89400000Y-129125000D03*
X82400000Y-127375000D03*
X89400000Y-127375000D03*
D19*
X91200000Y-131225000D03*
X91200000Y-125275000D03*
X87200000Y-131225000D03*
X87200000Y-125275000D03*
X84200000Y-131225000D03*
X84200000Y-125275000D03*
X92700000Y-129475000D03*
X92700000Y-127025000D03*
D20*
X88780000Y-56840000D03*
X88780000Y-59380000D03*
X88780000Y-61920000D03*
X88780000Y-64460000D03*
X88780000Y-67000000D03*
X88780000Y-69540000D03*
X88780000Y-72080000D03*
X88780000Y-74620000D03*
X88780000Y-77160000D03*
X88780000Y-79700000D03*
X88780000Y-82240000D03*
X88780000Y-84780000D03*
X104020000Y-84780000D03*
X104020000Y-82240000D03*
X104020000Y-79700000D03*
X104020000Y-77160000D03*
X104020000Y-74620000D03*
X104020000Y-72080000D03*
X104020000Y-69540000D03*
X104020000Y-67000000D03*
X104020000Y-64460000D03*
X104020000Y-61920000D03*
X104020000Y-59380000D03*
X104020000Y-56840000D03*
M02*
