%TF.GenerationSoftware,KiCad,Pcbnew,10.0.4*%
%TF.CreationDate,2026-08-20T21:04:31-06:00*%
%TF.ProjectId,KLON -nice_view - Copy,4b4c4f4e-202d-46e6-9963-655f76696577,v1.0.0*%
%TF.SameCoordinates,Original*%
%TF.FileFunction,Paste,Bot*%
%TF.FilePolarity,Positive*%
%FSLAX46Y46*%
G04 Gerber Fmt 4.6, Leading zero omitted, Abs format (unit mm)*
G04 Created by KiCad (PCBNEW 10.0.4) date 2026-08-20 21:04:31*
%MOMM*%
%LPD*%
G01*
G04 APERTURE LIST*
G04 Aperture macros list*
%AMRotRect*
0 Rectangle, with rotation*
0 The origin of the aperture is its center*
0 $1 length*
0 $2 width*
0 $3 Rotation angle, in degrees counterclockwise*
0 Add horizontal line*
21,1,$1,$2,0,0,$3*%
%AMOutline5P*
0 Free polygon, 5 corners , with rotation*
0 The origin of the aperture is its center*
0 number of corners: always 5*
0 $1 to $10 corner X, Y*
0 $11 Rotation angle, in degrees counterclockwise*
0 create outline with 5 corners*
4,1,5,$1,$2,$3,$4,$5,$6,$7,$8,$9,$10,$1,$2,$11*%
%AMOutline6P*
0 Free polygon, 6 corners , with rotation*
0 The origin of the aperture is its center*
0 number of corners: always 6*
0 $1 to $12 corner X, Y*
0 $13 Rotation angle, in degrees counterclockwise*
0 create outline with 6 corners*
4,1,6,$1,$2,$3,$4,$5,$6,$7,$8,$9,$10,$11,$12,$1,$2,$13*%
%AMOutline7P*
0 Free polygon, 7 corners , with rotation*
0 The origin of the aperture is its center*
0 number of corners: always 7*
0 $1 to $14 corner X, Y*
0 $15 Rotation angle, in degrees counterclockwise*
0 create outline with 7 corners*
4,1,7,$1,$2,$3,$4,$5,$6,$7,$8,$9,$10,$11,$12,$13,$14,$1,$2,$15*%
%AMOutline8P*
0 Free polygon, 8 corners , with rotation*
0 The origin of the aperture is its center*
0 number of corners: always 8*
0 $1 to $16 corner X, Y*
0 $17 Rotation angle, in degrees counterclockwise*
0 create outline with 8 corners*
4,1,8,$1,$2,$3,$4,$5,$6,$7,$8,$9,$10,$11,$12,$13,$14,$15,$16,$1,$2,$17*%
%AMFreePoly0*
4,1,6,0.500000,-0.625000,-0.650000,-0.625000,-0.150000,0.000000,-0.650000,0.625000,0.500000,0.625000,0.500000,-0.625000,0.500000,-0.625000,$1*%
%AMFreePoly1*
4,1,6,0.250000,0.000000,-0.250000,-0.625000,-0.500000,-0.625000,-0.500000,0.625000,-0.250000,0.625000,0.250000,0.000000,0.250000,0.000000,$1*%
%AMFreePoly2*
4,1,6,0.600000,-1.000000,0.000000,-0.400000,-0.600000,-1.000000,-0.600000,0.250000,0.600000,0.250000,0.600000,-1.000000,0.600000,-1.000000,$1*%
%AMFreePoly3*
4,1,6,0.600000,-0.200000,0.600000,-0.400000,-0.600000,-0.400000,-0.600000,-0.200000,0.000000,0.400000,0.600000,-0.200000,0.600000,-0.200000,$1*%
G04 Aperture macros list end*
%ADD10FreePoly0,180.000000*%
%ADD11FreePoly0,0.000000*%
%ADD12FreePoly1,0.000000*%
%ADD13FreePoly1,180.000000*%
%ADD14RotRect,0.900000X1.200000X356.000000*%
%ADD15FreePoly2,270.000000*%
%ADD16FreePoly3,270.000000*%
%ADD17R,0.900000X1.200000*%
%ADD18RotRect,0.900000X1.200000X350.000000*%
%ADD19FreePoly1,270.000000*%
%ADD20FreePoly0,270.000000*%
%ADD21RotRect,0.900000X1.200000X30.000000*%
%ADD22RotRect,0.900000X1.200000X15.000000*%
%ADD23R,1.000000X1.550000*%
%ADD24RotRect,0.900000X1.200000X45.000000*%
%ADD25R,0.800000X1.000000*%
%ADD26R,1.500000X0.700000*%
%ADD27R,1.200000X0.600000*%
%ADD28Outline5P,-1.300000X1.300000X1.300000X1.300000X1.300000X-1.300000X-0.117000X-1.300000X-1.300000X-0.117000X350.000000*%
%ADD29RotRect,2.600000X2.600000X350.000000*%
%ADD30RotRect,2.550000X2.500000X170.000000*%
%ADD31Outline5P,-1.275000X1.250000X1.275000X1.250000X1.275000X-1.250000X-0.775000X-1.250000X-1.275000X-0.750000X170.000000*%
%ADD32RotRect,2.550000X2.500000X225.000000*%
%ADD33Outline5P,-1.275000X1.250000X1.275000X1.250000X1.275000X-1.250000X-0.775000X-1.250000X-1.275000X-0.750000X225.000000*%
%ADD34Outline5P,-1.300000X1.300000X1.300000X1.300000X1.300000X-1.300000X-0.117000X-1.300000X-1.300000X-0.117000X0.000000*%
%ADD35Outline5P,-1.300000X1.300000X1.300000X1.300000X1.300000X0.780000X-0.780000X-1.300000X-1.300000X-1.300000X0.000000*%
%ADD36R,2.600000X2.600000*%
%ADD37R,2.550000X2.500000*%
%ADD38Outline5P,-1.275000X1.250000X1.275000X1.250000X1.275000X-1.250000X-0.775000X-1.250000X-1.275000X-0.750000X180.000000*%
%ADD39Outline5P,-1.275000X0.250000X-0.275000X1.250000X1.275000X1.250000X1.275000X-1.250000X-1.275000X-1.250000X180.000000*%
%ADD40Outline5P,-1.300000X1.300000X1.300000X1.300000X1.300000X-1.300000X-0.117000X-1.300000X-1.300000X-0.117000X30.000000*%
%ADD41RotRect,2.600000X2.600000X30.000000*%
%ADD42Outline5P,-1.300000X1.300000X1.300000X1.300000X1.300000X-1.300000X-0.117000X-1.300000X-1.300000X-0.117000X356.000000*%
%ADD43RotRect,2.600000X2.600000X356.000000*%
%ADD44RotRect,2.550000X2.500000X210.000000*%
%ADD45Outline5P,-1.275000X1.250000X1.275000X1.250000X1.275000X-1.250000X-0.775000X-1.250000X-1.275000X-0.750000X210.000000*%
%ADD46Outline5P,-1.300000X1.300000X1.300000X1.300000X1.300000X-1.300000X-0.117000X-1.300000X-1.300000X-0.117000X45.000000*%
%ADD47RotRect,2.600000X2.600000X45.000000*%
%ADD48RotRect,2.550000X2.500000X176.000000*%
%ADD49Outline5P,-1.275000X1.250000X1.275000X1.250000X1.275000X-1.250000X-0.775000X-1.250000X-1.275000X-0.750000X176.000000*%
%ADD50Outline5P,-1.300000X1.300000X1.300000X1.300000X1.300000X-1.300000X-0.117000X-1.300000X-1.300000X-0.117000X15.000000*%
%ADD51RotRect,2.600000X2.600000X15.000000*%
%ADD52RotRect,2.550000X2.500000X195.000000*%
%ADD53Outline5P,-1.275000X1.250000X1.275000X1.250000X1.275000X-1.250000X-0.775000X-1.250000X-1.275000X-0.750000X195.000000*%
G04 APERTURE END LIST*
D10*
%TO.C,MCU1*%
X154793149Y-102905133D03*
X154793149Y-105445134D03*
X154793149Y-107985134D03*
X154793148Y-110525133D03*
X154793149Y-113065134D03*
X154793149Y-115605134D03*
X154793149Y-118145133D03*
X154793148Y-120685135D03*
X154793151Y-123225134D03*
X154793149Y-125765134D03*
X154793149Y-128305135D03*
X154793151Y-130845134D03*
D11*
X145243147Y-130845133D03*
X145243149Y-128305135D03*
X145243149Y-125765134D03*
X145243149Y-123225134D03*
X145243150Y-120685135D03*
X145243149Y-118145134D03*
X145243149Y-115605134D03*
X145243149Y-113065135D03*
X145243150Y-110525133D03*
X145243147Y-107985134D03*
X145243149Y-105445134D03*
X145243149Y-102905133D03*
D12*
X144518149Y-102905135D03*
X144518149Y-105445134D03*
X144518148Y-107985133D03*
X144518149Y-110525134D03*
X144518150Y-113065133D03*
X144518149Y-115605134D03*
X144518147Y-118145133D03*
X144518149Y-120685134D03*
X144518148Y-123225135D03*
X144518149Y-125765134D03*
X144518149Y-128305133D03*
X144518148Y-130845133D03*
D13*
X155518150Y-130845132D03*
X155518149Y-128305133D03*
X155518149Y-125765134D03*
X155518150Y-123225135D03*
X155518149Y-120685134D03*
X155518148Y-118145135D03*
X155518149Y-115605134D03*
X155518151Y-113065135D03*
X155518149Y-110525134D03*
X155518150Y-107985133D03*
X155518149Y-105445134D03*
X155518149Y-102905135D03*
%TD*%
D14*
%TO.C,D11*%
X230104616Y-141315615D03*
X233396578Y-141545811D03*
%TD*%
%TO.C,D12*%
X231429988Y-122361896D03*
X234721950Y-122592092D03*
%TD*%
D15*
%TO.C,JST1*%
X138116152Y-147730134D03*
X138116152Y-149730134D03*
D16*
X137100153Y-149730133D03*
X137100153Y-147730135D03*
%TD*%
D17*
%TO.C,D9*%
X210368156Y-112105131D03*
X213668156Y-112105133D03*
%TD*%
D18*
%TO.C,D15*%
X252403833Y-136611812D03*
X255653699Y-137184850D03*
%TD*%
D17*
%TO.C,D3*%
X172368154Y-125105134D03*
X175668154Y-125105136D03*
%TD*%
%TO.C,D8*%
X210368147Y-131105136D03*
X213668147Y-131105138D03*
%TD*%
%TO.C,D5*%
X191368153Y-140105136D03*
X194668153Y-140105138D03*
%TD*%
D18*
%TO.C,D17*%
X268684104Y-153698437D03*
X271933970Y-154271475D03*
%TD*%
D19*
%TO.C,XX6*%
X150610182Y-146456872D03*
D20*
X150610182Y-147181872D03*
%TD*%
D18*
%TO.C,D16*%
X265384792Y-172409785D03*
X268634658Y-172982823D03*
%TD*%
D21*
%TO.C,D20*%
X158024961Y-191875226D03*
X160882845Y-190225224D03*
%TD*%
D17*
%TO.C,D18*%
X194318156Y-181055138D03*
X197618156Y-181055140D03*
%TD*%
%TO.C,D4*%
X191368155Y-159105134D03*
X194668155Y-159105136D03*
%TD*%
D14*
%TO.C,D10*%
X228779240Y-160269332D03*
X232071202Y-160499528D03*
%TD*%
D19*
%TO.C,XX5*%
X148116184Y-146456873D03*
D20*
X148116184Y-147181873D03*
%TD*%
D22*
%TO.C,D19*%
X175460088Y-184073635D03*
X178647644Y-183219535D03*
%TD*%
D19*
%TO.C,XX4*%
X145571183Y-146456876D03*
D20*
X145571183Y-147181876D03*
%TD*%
D17*
%TO.C,D7*%
X210368159Y-150105132D03*
X213668159Y-150105134D03*
%TD*%
D23*
%TO.C,RST1*%
X134410160Y-167230134D03*
X136110157Y-167230134D03*
X134410161Y-161980136D03*
X136110158Y-161980136D03*
%TD*%
D24*
%TO.C,D21*%
X143172584Y-203928241D03*
X145506040Y-201594787D03*
%TD*%
D17*
%TO.C,D2*%
X172368154Y-144105131D03*
X175668154Y-144105133D03*
%TD*%
D19*
%TO.C,XX7*%
X153155187Y-146456877D03*
D20*
X153155187Y-147181877D03*
%TD*%
D18*
%TO.C,D13*%
X245805204Y-174034510D03*
X249055070Y-174607548D03*
%TD*%
%TO.C,D14*%
X249104518Y-155323161D03*
X252354384Y-155896199D03*
%TD*%
D17*
%TO.C,D6*%
X191368155Y-121105130D03*
X194668155Y-121105132D03*
%TD*%
D25*
%TO.C,PWR1*%
X136366155Y-112655133D03*
X136366155Y-105355133D03*
X134156154Y-112655132D03*
X134156154Y-105355134D03*
D26*
X137016154Y-111255133D03*
X137016155Y-108255134D03*
X137016154Y-106755133D03*
%TD*%
D17*
%TO.C,D1*%
X172368156Y-163105134D03*
X175668156Y-163105136D03*
%TD*%
%TO.C,D22*%
X152180184Y-151817277D03*
X155480184Y-151817279D03*
%TD*%
D27*
%TO.C,DISP1*%
X155098155Y-135555132D03*
X152558154Y-135555131D03*
X147478156Y-135555131D03*
X144938153Y-135555132D03*
X155098154Y-134655133D03*
X152558154Y-134655133D03*
X147478155Y-134655135D03*
X144938156Y-134655133D03*
%TD*%
D28*
%TO.C,S13*%
X246714105Y-159521853D03*
D29*
X257706609Y-163694067D03*
%TD*%
D30*
%TO.C,S34*%
X255442441Y-169681866D03*
D31*
X242270764Y-169938528D03*
%TD*%
D30*
%TO.C,S38*%
X278321345Y-149345803D03*
D31*
X265149668Y-149602465D03*
%TD*%
D32*
%TO.C,S42*%
X145134805Y-193537305D03*
D33*
X137790088Y-204474126D03*
%TD*%
D34*
%TO.C,S7*%
X208743151Y-135655140D03*
D35*
X220293151Y-137855140D03*
%TD*%
D34*
%TO.C,S18*%
X192693150Y-166605137D03*
D36*
X204243150Y-168805137D03*
%TD*%
D34*
%TO.C,S5*%
X189743156Y-125655137D03*
D36*
X201293156Y-127855137D03*
%TD*%
D37*
%TO.C,S22*%
X181103151Y-157145135D03*
D38*
X168176151Y-159685135D03*
%TD*%
D37*
%TO.C,S27*%
X200103153Y-115145137D03*
D38*
X187176153Y-117685137D03*
%TD*%
D30*
%TO.C,S36*%
X262041071Y-132259178D03*
D31*
X248869394Y-132515840D03*
%TD*%
D37*
%TO.C,S39*%
X203053150Y-175095137D03*
D38*
X190126150Y-177635137D03*
%TD*%
D28*
%TO.C,S16*%
X266293694Y-157897133D03*
D29*
X277286198Y-162069347D03*
%TD*%
D39*
%TO.C,S23*%
X181103153Y-138145131D03*
D38*
X168176153Y-140685131D03*
%TD*%
D34*
%TO.C,S1*%
X170743151Y-148655135D03*
D36*
X182293151Y-150855135D03*
%TD*%
D28*
%TO.C,S17*%
X269593009Y-139185790D03*
D29*
X280585513Y-143358004D03*
%TD*%
D37*
%TO.C,S29*%
X219103154Y-125145137D03*
D38*
X206176154Y-127685137D03*
%TD*%
D34*
%TO.C,S3*%
X170743154Y-110655134D03*
D36*
X182293154Y-112855134D03*
%TD*%
D40*
%TO.C,S20*%
X149392669Y-180173661D03*
D41*
X160495262Y-176303917D03*
%TD*%
D42*
%TO.C,S10*%
X228166182Y-145741175D03*
D43*
X239534583Y-148741503D03*
%TD*%
D44*
%TO.C,S41*%
X162609693Y-182346217D03*
D45*
X152684582Y-191009421D03*
%TD*%
D42*
%TO.C,S12*%
X230816927Y-107833739D03*
D43*
X242185328Y-110834067D03*
%TD*%
D34*
%TO.C,S6*%
X189743153Y-106655137D03*
D36*
X201293153Y-108855137D03*
%TD*%
D37*
%TO.C,S30*%
X219103151Y-106145132D03*
D38*
X206176151Y-108685132D03*
%TD*%
D46*
%TO.C,S21*%
X131805842Y-194859595D03*
D47*
X141528560Y-188248147D03*
%TD*%
D37*
%TO.C,S25*%
X200103153Y-153145130D03*
D38*
X187176153Y-155685130D03*
%TD*%
D37*
%TO.C,S24*%
X181103154Y-119145134D03*
D38*
X168176154Y-121685134D03*
%TD*%
D30*
%TO.C,S37*%
X275022030Y-168057146D03*
D31*
X261850353Y-168313808D03*
%TD*%
D48*
%TO.C,S33*%
X240559460Y-117025736D03*
D49*
X227486767Y-118657806D03*
%TD*%
D42*
%TO.C,S11*%
X229491554Y-126787455D03*
D43*
X240859955Y-129787783D03*
%TD*%
D34*
%TO.C,S8*%
X208743154Y-116655137D03*
D36*
X220293154Y-118855137D03*
%TD*%
D28*
%TO.C,S14*%
X250013421Y-140810510D03*
D29*
X261005925Y-144982724D03*
%TD*%
D37*
%TO.C,S26*%
X200103156Y-134145137D03*
D38*
X187176156Y-136685137D03*
%TD*%
D28*
%TO.C,S15*%
X253312735Y-122099165D03*
D29*
X264305239Y-126271379D03*
%TD*%
D48*
%TO.C,S32*%
X239234087Y-135979452D03*
D49*
X226161394Y-137611522D03*
%TD*%
D50*
%TO.C,S19*%
X170150526Y-170536590D03*
D51*
X181876371Y-169672267D03*
%TD*%
D37*
%TO.C,S28*%
X219103151Y-144145140D03*
D38*
X206176151Y-146685140D03*
%TD*%
D34*
%TO.C,S2*%
X170743153Y-129655131D03*
D36*
X182293153Y-131855131D03*
%TD*%
D52*
%TO.C,S40*%
X182354891Y-176055935D03*
D53*
X170525769Y-181855140D03*
%TD*%
D34*
%TO.C,S9*%
X208743151Y-97655132D03*
D36*
X220293151Y-99855132D03*
%TD*%
D48*
%TO.C,S31*%
X237908715Y-154933172D03*
D49*
X224836022Y-156565242D03*
%TD*%
D34*
%TO.C,S4*%
X189743153Y-144655130D03*
D36*
X201293153Y-146855130D03*
%TD*%
D30*
%TO.C,S35*%
X258741757Y-150970523D03*
D31*
X245570080Y-151227185D03*
%TD*%
M02*
