%TF.GenerationSoftware,KiCad,Pcbnew,10.0.4*%
%TF.CreationDate,2026-08-20T21:04:31-06:00*%
%TF.ProjectId,KLON -nice_view - Copy,4b4c4f4e-202d-46e6-9963-655f76696577,v1.0.0*%
%TF.SameCoordinates,Original*%
%TF.FileFunction,Copper,L1,Top*%
%TF.FilePolarity,Positive*%
%FSLAX46Y46*%
G04 Gerber Fmt 4.6, Leading zero omitted, Abs format (unit mm)*
G04 Created by KiCad (PCBNEW 10.0.4) date 2026-08-20 21:04:31*
%MOMM*%
%LPD*%
G01*
G04 APERTURE LIST*
G04 Aperture macros list*
%AMRotRect*
0 Rectangle, with rotation*
0 The origin of the aperture is its center*
0 $1 length*
0 $2 width*
0 $3 Rotation angle, in degrees counterclockwise*
0 Add horizontal line*
21,1,$1,$2,0,0,$3*%
%AMOutline5P*
0 Free polygon, 5 corners , with rotation*
0 The origin of the aperture is its center*
0 number of corners: always 5*
0 $1 to $10 corner X, Y*
0 $11 Rotation angle, in degrees counterclockwise*
0 create outline with 5 corners*
4,1,5,$1,$2,$3,$4,$5,$6,$7,$8,$9,$10,$1,$2,$11*%
%AMOutline6P*
0 Free polygon, 6 corners , with rotation*
0 The origin of the aperture is its center*
0 number of corners: always 6*
0 $1 to $12 corner X, Y*
0 $13 Rotation angle, in degrees counterclockwise*
0 create outline with 6 corners*
4,1,6,$1,$2,$3,$4,$5,$6,$7,$8,$9,$10,$11,$12,$1,$2,$13*%
%AMOutline7P*
0 Free polygon, 7 corners , with rotation*
0 The origin of the aperture is its center*
0 number of corners: always 7*
0 $1 to $14 corner X, Y*
0 $15 Rotation angle, in degrees counterclockwise*
0 create outline with 7 corners*
4,1,7,$1,$2,$3,$4,$5,$6,$7,$8,$9,$10,$11,$12,$13,$14,$1,$2,$15*%
%AMOutline8P*
0 Free polygon, 8 corners , with rotation*
0 The origin of the aperture is its center*
0 number of corners: always 8*
0 $1 to $16 corner X, Y*
0 $17 Rotation angle, in degrees counterclockwise*
0 create outline with 8 corners*
4,1,8,$1,$2,$3,$4,$5,$6,$7,$8,$9,$10,$11,$12,$13,$14,$15,$16,$1,$2,$17*%
%AMFreePoly0*
4,1,6,0.500000,-0.625000,-0.650000,-0.625000,-0.150000,0.000000,-0.650000,0.625000,0.500000,0.625000,0.500000,-0.625000,0.500000,-0.625000,$1*%
%AMFreePoly1*
4,1,6,0.250000,0.000000,-0.250000,-0.625000,-0.500000,-0.625000,-0.500000,0.625000,-0.250000,0.625000,0.250000,0.000000,0.250000,0.000000,$1*%
%AMFreePoly2*
4,1,6,0.600000,-1.000000,0.000000,-0.400000,-0.600000,-1.000000,-0.600000,0.250000,0.600000,0.250000,0.600000,-1.000000,0.600000,-1.000000,$1*%
%AMFreePoly3*
4,1,6,0.600000,-0.200000,0.600000,-0.400000,-0.600000,-0.400000,-0.600000,-0.200000,0.000000,0.400000,0.600000,-0.200000,0.600000,-0.200000,$1*%
G04 Aperture macros list end*
%TA.AperFunction,ComponentPad*%
%ADD10C,0.800000*%
%TD*%
%TA.AperFunction,SMDPad,CuDef*%
%ADD11FreePoly0,0.000000*%
%TD*%
%TA.AperFunction,SMDPad,CuDef*%
%ADD12FreePoly0,180.000000*%
%TD*%
%TA.AperFunction,SMDPad,CuDef*%
%ADD13FreePoly1,0.000000*%
%TD*%
%TA.AperFunction,ComponentPad*%
%ADD14C,1.700000*%
%TD*%
%TA.AperFunction,SMDPad,CuDef*%
%ADD15FreePoly1,180.000000*%
%TD*%
%TA.AperFunction,ComponentPad*%
%ADD16C,0.600000*%
%TD*%
%TA.AperFunction,SMDPad,CuDef*%
%ADD17RotRect,0.900000X1.200000X356.000000*%
%TD*%
%TA.AperFunction,SMDPad,CuDef*%
%ADD18FreePoly2,270.000000*%
%TD*%
%TA.AperFunction,ComponentPad*%
%ADD19O,1.750000X1.200000*%
%TD*%
%TA.AperFunction,SMDPad,CuDef*%
%ADD20FreePoly3,270.000000*%
%TD*%
%TA.AperFunction,ComponentPad*%
%ADD21O,1.600000X2.000000*%
%TD*%
%TA.AperFunction,SMDPad,CuDef*%
%ADD22R,0.900000X1.200000*%
%TD*%
%TA.AperFunction,SMDPad,CuDef*%
%ADD23RotRect,0.900000X1.200000X350.000000*%
%TD*%
%TA.AperFunction,ComponentPad*%
%ADD24C,3.800000*%
%TD*%
%TA.AperFunction,SMDPad,CuDef*%
%ADD25FreePoly1,270.000000*%
%TD*%
%TA.AperFunction,SMDPad,CuDef*%
%ADD26FreePoly0,270.000000*%
%TD*%
%TA.AperFunction,SMDPad,CuDef*%
%ADD27RotRect,0.900000X1.200000X30.000000*%
%TD*%
%TA.AperFunction,ComponentPad*%
%ADD28C,2.000000*%
%TD*%
%TA.AperFunction,ComponentPad*%
%ADD29R,3.200000X2.000000*%
%TD*%
%TA.AperFunction,SMDPad,CuDef*%
%ADD30RotRect,0.900000X1.200000X15.000000*%
%TD*%
%TA.AperFunction,ComponentPad*%
%ADD31O,2.500000X1.700000*%
%TD*%
%TA.AperFunction,SMDPad,CuDef*%
%ADD32R,1.000000X1.550000*%
%TD*%
%TA.AperFunction,SMDPad,CuDef*%
%ADD33RotRect,0.900000X1.200000X45.000000*%
%TD*%
%TA.AperFunction,SMDPad,CuDef*%
%ADD34R,0.800000X1.000000*%
%TD*%
%TA.AperFunction,SMDPad,CuDef*%
%ADD35R,1.500000X0.700000*%
%TD*%
%TA.AperFunction,ComponentPad*%
%ADD36O,1.700000X1.700000*%
%TD*%
%TA.AperFunction,SMDPad,CuDef*%
%ADD37R,1.200000X0.600000*%
%TD*%
%TA.AperFunction,SMDPad,CuDef*%
%ADD38Outline5P,-1.300000X1.300000X1.300000X1.300000X1.300000X-0.117000X0.117000X-1.300000X-1.300000X-1.300000X350.000000*%
%TD*%
%TA.AperFunction,SMDPad,CuDef*%
%ADD39RotRect,2.600000X2.600000X350.000000*%
%TD*%
%TA.AperFunction,SMDPad,CuDef*%
%ADD40RotRect,2.550000X2.500000X170.000000*%
%TD*%
%TA.AperFunction,SMDPad,CuDef*%
%ADD41Outline5P,-1.275000X1.250000X1.275000X1.250000X1.275000X-0.750000X0.775000X-1.250000X-1.275000X-1.250000X170.000000*%
%TD*%
%TA.AperFunction,SMDPad,CuDef*%
%ADD42RotRect,2.550000X2.500000X225.000000*%
%TD*%
%TA.AperFunction,SMDPad,CuDef*%
%ADD43Outline5P,-1.275000X1.250000X1.275000X1.250000X1.275000X-0.750000X0.775000X-1.250000X-1.275000X-1.250000X225.000000*%
%TD*%
%TA.AperFunction,SMDPad,CuDef*%
%ADD44Outline5P,-1.300000X1.300000X1.300000X1.300000X1.300000X-0.117000X0.117000X-1.300000X-1.300000X-1.300000X0.000000*%
%TD*%
%TA.AperFunction,SMDPad,CuDef*%
%ADD45R,2.600000X2.600000*%
%TD*%
%TA.AperFunction,SMDPad,CuDef*%
%ADD46R,2.550000X2.500000*%
%TD*%
%TA.AperFunction,SMDPad,CuDef*%
%ADD47Outline5P,-1.275000X1.250000X1.275000X1.250000X1.275000X-0.750000X0.775000X-1.250000X-1.275000X-1.250000X180.000000*%
%TD*%
%TA.AperFunction,SMDPad,CuDef*%
%ADD48Outline5P,-1.300000X1.300000X1.300000X1.300000X1.300000X-0.117000X0.117000X-1.300000X-1.300000X-1.300000X30.000000*%
%TD*%
%TA.AperFunction,SMDPad,CuDef*%
%ADD49RotRect,2.600000X2.600000X30.000000*%
%TD*%
%TA.AperFunction,SMDPad,CuDef*%
%ADD50Outline5P,-1.300000X1.300000X1.300000X1.300000X1.300000X-0.117000X0.117000X-1.300000X-1.300000X-1.300000X356.000000*%
%TD*%
%TA.AperFunction,SMDPad,CuDef*%
%ADD51RotRect,2.600000X2.600000X356.000000*%
%TD*%
%TA.AperFunction,SMDPad,CuDef*%
%ADD52RotRect,2.550000X2.500000X210.000000*%
%TD*%
%TA.AperFunction,SMDPad,CuDef*%
%ADD53Outline5P,-1.275000X1.250000X1.275000X1.250000X1.275000X-0.750000X0.775000X-1.250000X-1.275000X-1.250000X210.000000*%
%TD*%
%TA.AperFunction,SMDPad,CuDef*%
%ADD54Outline5P,-1.300000X1.300000X1.300000X1.300000X1.300000X-0.117000X0.117000X-1.300000X-1.300000X-1.300000X45.000000*%
%TD*%
%TA.AperFunction,SMDPad,CuDef*%
%ADD55RotRect,2.600000X2.600000X45.000000*%
%TD*%
%TA.AperFunction,SMDPad,CuDef*%
%ADD56RotRect,2.550000X2.500000X176.000000*%
%TD*%
%TA.AperFunction,SMDPad,CuDef*%
%ADD57Outline5P,-1.275000X1.250000X1.275000X1.250000X1.275000X-0.750000X0.775000X-1.250000X-1.275000X-1.250000X176.000000*%
%TD*%
%TA.AperFunction,SMDPad,CuDef*%
%ADD58Outline5P,-1.300000X1.300000X1.300000X1.300000X1.300000X-1.300000X1.040000X-1.300000X-1.300000X1.040000X0.000000*%
%TD*%
%TA.AperFunction,SMDPad,CuDef*%
%ADD59Outline5P,-1.300000X1.300000X1.300000X1.300000X1.300000X-0.117000X0.117000X-1.300000X-1.300000X-1.300000X15.000000*%
%TD*%
%TA.AperFunction,SMDPad,CuDef*%
%ADD60RotRect,2.600000X2.600000X15.000000*%
%TD*%
%TA.AperFunction,SMDPad,CuDef*%
%ADD61RotRect,2.550000X2.500000X195.000000*%
%TD*%
%TA.AperFunction,SMDPad,CuDef*%
%ADD62Outline5P,-1.275000X1.250000X1.275000X1.250000X1.275000X-0.750000X0.775000X-1.250000X-1.275000X-1.250000X195.000000*%
%TD*%
%TA.AperFunction,ViaPad*%
%ADD63C,0.600000*%
%TD*%
%TA.AperFunction,Conductor*%
%ADD64C,0.200000*%
%TD*%
%TA.AperFunction,Conductor*%
%ADD65C,0.250000*%
%TD*%
G04 APERTURE END LIST*
D10*
%TO.P,MCU1,124*%
%TO.N,RAW*%
X146618152Y-102905132D03*
D11*
X145243149Y-102905133D03*
D10*
%TO.P,MCU1,123*%
%TO.N,GND*%
X146618150Y-105445132D03*
D11*
X145243149Y-105445134D03*
D10*
%TO.P,MCU1,122*%
%TO.N,RST*%
X146618148Y-107985134D03*
D11*
X145243147Y-107985134D03*
D10*
%TO.P,MCU1,121*%
%TO.N,VCC*%
X146618148Y-110525133D03*
D11*
X145243150Y-110525133D03*
D10*
%TO.P,MCU1,120*%
%TO.N,CS*%
X146618150Y-113065134D03*
D11*
X145243149Y-113065135D03*
D10*
%TO.P,MCU1,119*%
%TO.N,SCK*%
X146618148Y-115605133D03*
D11*
X145243149Y-115605134D03*
D10*
%TO.P,MCU1,118*%
%TO.N,MOSI*%
X146618149Y-118145134D03*
D11*
X145243149Y-118145134D03*
D10*
%TO.P,MCU1,117*%
%TO.N,P18*%
X146618149Y-120685134D03*
D11*
X145243150Y-120685135D03*
D10*
%TO.P,MCU1,116*%
%TO.N,P15*%
X146618149Y-123225134D03*
D11*
X145243149Y-123225134D03*
D10*
%TO.P,MCU1,115*%
%TO.N,P14*%
X146618150Y-125765136D03*
D11*
X145243149Y-125765134D03*
D10*
%TO.P,MCU1,114*%
%TO.N,P16*%
X146618149Y-128305133D03*
D11*
X145243149Y-128305135D03*
D10*
%TO.P,MCU1,113*%
%TO.N,P10*%
X146618149Y-130845134D03*
D11*
X145243147Y-130845133D03*
D12*
%TO.P,MCU1,112*%
%TO.N,row4*%
X154793151Y-130845134D03*
D10*
X153418149Y-130845134D03*
D12*
%TO.P,MCU1,111*%
%TO.N,row3*%
X154793149Y-128305135D03*
D10*
X153418146Y-128305136D03*
D12*
%TO.P,MCU1,110*%
%TO.N,row2*%
X154793149Y-125765134D03*
D10*
X153418148Y-125765136D03*
D12*
%TO.P,MCU1,109*%
%TO.N,row1*%
X154793151Y-123225134D03*
D10*
X153418150Y-123225134D03*
D12*
%TO.P,MCU1,108*%
%TO.N,col6*%
X154793148Y-120685135D03*
D10*
X153418150Y-120685135D03*
D12*
%TO.P,MCU1,107*%
%TO.N,col5*%
X154793149Y-118145133D03*
D10*
X153418148Y-118145134D03*
D12*
%TO.P,MCU1,106*%
%TO.N,col4*%
X154793149Y-115605134D03*
D10*
X153418150Y-115605135D03*
D12*
%TO.P,MCU1,105*%
%TO.N,col3*%
X154793149Y-113065134D03*
D10*
X153418149Y-113065134D03*
D12*
%TO.P,MCU1,104*%
%TO.N,GND*%
X154793148Y-110525133D03*
D10*
X153418149Y-110525134D03*
D12*
%TO.P,MCU1,103*%
X154793149Y-107985134D03*
D10*
X153418149Y-107985134D03*
D12*
%TO.P,MCU1,102*%
%TO.N,col2*%
X154793149Y-105445134D03*
D10*
X153418148Y-105445132D03*
D12*
%TO.P,MCU1,101*%
%TO.N,col1*%
X154793149Y-102905133D03*
D10*
X153418149Y-102905135D03*
D13*
%TO.P,MCU1,24*%
%TO.N,MCU1_24*%
X144518149Y-102905135D03*
D14*
X142398149Y-102905134D03*
D13*
%TO.P,MCU1,23*%
%TO.N,MCU1_23*%
X144518149Y-105445134D03*
D14*
X142398148Y-105445133D03*
D13*
%TO.P,MCU1,22*%
%TO.N,MCU1_22*%
X144518148Y-107985133D03*
D14*
X142398149Y-107985134D03*
D13*
%TO.P,MCU1,21*%
%TO.N,MCU1_21*%
X144518149Y-110525134D03*
D14*
X142398149Y-110525134D03*
D13*
%TO.P,MCU1,20*%
%TO.N,MCU1_20*%
X144518150Y-113065133D03*
D14*
X142398151Y-113065134D03*
D13*
%TO.P,MCU1,19*%
%TO.N,MCU1_19*%
X144518149Y-115605134D03*
D14*
X142398149Y-115605134D03*
D13*
%TO.P,MCU1,18*%
%TO.N,MCU1_18*%
X144518147Y-118145133D03*
D14*
X142398149Y-118145135D03*
D13*
%TO.P,MCU1,17*%
%TO.N,MCU1_17*%
X144518149Y-120685134D03*
D14*
X142398150Y-120685134D03*
D13*
%TO.P,MCU1,16*%
%TO.N,MCU1_16*%
X144518148Y-123225135D03*
D14*
X142398149Y-123225134D03*
D13*
%TO.P,MCU1,15*%
%TO.N,MCU1_15*%
X144518149Y-125765134D03*
D14*
X142398148Y-125765135D03*
D13*
%TO.P,MCU1,14*%
%TO.N,MCU1_14*%
X144518149Y-128305133D03*
D14*
X142398149Y-128305134D03*
D13*
%TO.P,MCU1,13*%
%TO.N,MCU1_13*%
X144518148Y-130845133D03*
D14*
X142398149Y-130845134D03*
%TO.P,MCU1,12*%
%TO.N,MCU1_12*%
X157638149Y-130845134D03*
D15*
X155518150Y-130845132D03*
D14*
%TO.P,MCU1,11*%
%TO.N,MCU1_11*%
X157638149Y-128305134D03*
D15*
X155518149Y-128305133D03*
D14*
%TO.P,MCU1,10*%
%TO.N,MCU1_10*%
X157638150Y-125765135D03*
D15*
X155518149Y-125765134D03*
D14*
%TO.P,MCU1,9*%
%TO.N,MCU1_9*%
X157638149Y-123225134D03*
D15*
X155518150Y-123225135D03*
D14*
%TO.P,MCU1,8*%
%TO.N,MCU1_8*%
X157638149Y-120685134D03*
D15*
X155518149Y-120685134D03*
D14*
%TO.P,MCU1,7*%
%TO.N,MCU1_7*%
X157638147Y-118145134D03*
D15*
X155518148Y-118145135D03*
D14*
%TO.P,MCU1,6*%
%TO.N,MCU1_6*%
X157638149Y-115605134D03*
D15*
X155518149Y-115605134D03*
D14*
%TO.P,MCU1,5*%
%TO.N,MCU1_5*%
X157638149Y-113065133D03*
D15*
X155518151Y-113065135D03*
D14*
%TO.P,MCU1,4*%
%TO.N,MCU1_4*%
X157638148Y-110525134D03*
D15*
X155518149Y-110525134D03*
D14*
%TO.P,MCU1,3*%
%TO.N,MCU1_3*%
X157638149Y-107985134D03*
D15*
X155518150Y-107985133D03*
D14*
%TO.P,MCU1,2*%
%TO.N,MCU1_2*%
X157638150Y-105445133D03*
D15*
X155518149Y-105445134D03*
D14*
%TO.P,MCU1,1*%
%TO.N,MCU1_1*%
X157638149Y-102905134D03*
D15*
X155518149Y-102905135D03*
%TD*%
D16*
%TO.P,D11,1*%
%TO.N,row2*%
X230104616Y-141315615D03*
D17*
X230104616Y-141315615D03*
D16*
%TO.N,ring_home*%
X233396578Y-141545811D03*
D17*
%TO.P,D11,2*%
X233396578Y-141545811D03*
%TD*%
D16*
%TO.P,D12,1*%
%TO.N,row1*%
X231429988Y-122361896D03*
D17*
X231429988Y-122361896D03*
D16*
%TO.N,ring_top*%
X234721950Y-122592092D03*
D17*
%TO.P,D12,2*%
X234721950Y-122592092D03*
%TD*%
D18*
%TO.P,JST1,1*%
%TO.N,BAT_P*%
X138116152Y-149730134D03*
%TO.P,JST1,2*%
%TO.N,GND*%
X138116152Y-147730134D03*
D19*
%TO.P,JST1,11*%
%TO.N,JST1_1*%
X135300152Y-149730134D03*
%TO.P,JST1,12*%
%TO.N,JST1_2*%
X135300152Y-147730134D03*
D20*
%TO.P,JST1,21*%
%TO.N,JST1_1*%
X137100153Y-149730133D03*
%TO.P,JST1,22*%
%TO.N,JST1_2*%
X137100153Y-147730135D03*
%TD*%
D21*
%TO.P,SSD1306,1*%
%TO.N,dis1-pad4*%
X153238152Y-143405134D03*
%TO.P,SSD1306,2*%
%TO.N,dis1-pad3*%
X150698152Y-143405134D03*
%TO.P,SSD1306,3*%
%TO.N,dis1-pad2*%
X148158152Y-143405136D03*
%TO.P,SSD1306,4*%
%TO.N,dis1-pad1*%
X145618152Y-143405134D03*
%TD*%
D16*
%TO.P,D9,1*%
%TO.N,row1*%
X210368156Y-112105131D03*
D22*
X210368156Y-112105131D03*
D16*
%TO.N,middle_top*%
X213668156Y-112105133D03*
D22*
%TO.P,D9,2*%
X213668156Y-112105133D03*
%TD*%
D16*
%TO.P,D15,1*%
%TO.N,row1*%
X252403833Y-136611812D03*
D23*
X252403833Y-136611812D03*
D16*
%TO.N,pinky_top*%
X255653699Y-137184850D03*
D23*
%TO.P,D15,2*%
X255653699Y-137184850D03*
%TD*%
D24*
%TO.P,H1,*%
%TO.N,*%
X202556153Y-121280133D03*
%TD*%
D16*
%TO.P,D3,1*%
%TO.N,row1*%
X172368154Y-125105134D03*
D22*
X172368154Y-125105134D03*
D16*
%TO.N,inner_top*%
X175668154Y-125105136D03*
D22*
%TO.P,D3,2*%
X175668154Y-125105136D03*
%TD*%
D16*
%TO.P,D8,1*%
%TO.N,row2*%
X210368147Y-131105136D03*
D22*
X210368147Y-131105136D03*
D16*
%TO.N,middle_home*%
X213668147Y-131105138D03*
D22*
%TO.P,D8,2*%
X213668147Y-131105138D03*
%TD*%
D16*
%TO.P,D5,1*%
%TO.N,row2*%
X191368153Y-140105136D03*
D22*
X191368153Y-140105136D03*
D16*
%TO.N,index_home*%
X194668153Y-140105138D03*
D22*
%TO.P,D5,2*%
X194668153Y-140105138D03*
%TD*%
D16*
%TO.P,D17,1*%
%TO.N,row2*%
X268684104Y-153698437D03*
D23*
X268684104Y-153698437D03*
D16*
%TO.N,pinky_extra_home*%
X271933970Y-154271475D03*
D23*
%TO.P,D17,2*%
X271933970Y-154271475D03*
%TD*%
D24*
%TO.P,H2,*%
%TO.N,*%
X183506154Y-140330138D03*
%TD*%
D25*
%TO.P,XX6,1*%
%TO.N,dis1-pad3*%
X150610182Y-146456872D03*
D26*
%TO.P,XX6,2*%
%TO.N,VCC*%
X150610182Y-147181872D03*
%TD*%
D16*
%TO.P,D16,1*%
%TO.N,row3*%
X265384792Y-172409785D03*
D23*
X265384792Y-172409785D03*
D16*
%TO.N,pinky_extra_bottom*%
X268634658Y-172982823D03*
D23*
%TO.P,D16,2*%
X268634658Y-172982823D03*
%TD*%
D16*
%TO.P,D20,1*%
%TO.N,row4*%
X158024961Y-191875226D03*
D27*
X158024961Y-191875226D03*
D16*
%TO.N,3_r0*%
X160882845Y-190225224D03*
D27*
%TO.P,D20,2*%
X160882845Y-190225224D03*
%TD*%
D16*
%TO.P,D18,1*%
%TO.N,row4*%
X194318156Y-181055138D03*
D22*
X194318156Y-181055138D03*
D16*
%TO.N,1_r0*%
X197618156Y-181055140D03*
D22*
%TO.P,D18,2*%
X197618156Y-181055140D03*
%TD*%
D28*
%TO.P,SW25,A*%
%TO.N,ENCA*%
X141040154Y-156307137D03*
%TO.P,SW25,B*%
%TO.N,ENCB*%
X141040154Y-161307137D03*
%TO.P,SW25,C*%
%TO.N,GND*%
X141040154Y-158807137D03*
D29*
%TO.P,SW25,MP*%
%TO.N,N/C*%
X148540154Y-153207137D03*
X148540154Y-164407137D03*
D28*
%TO.P,SW25,S1*%
%TO.N,col3*%
X155540154Y-161307137D03*
%TO.P,SW25,S2*%
%TO.N,SW18B*%
X155540154Y-156307137D03*
%TD*%
D16*
%TO.P,D4,1*%
%TO.N,row3*%
X191368155Y-159105134D03*
D22*
X191368155Y-159105134D03*
D16*
%TO.N,index_bottom*%
X194668155Y-159105136D03*
D22*
%TO.P,D4,2*%
X194668155Y-159105136D03*
%TD*%
D16*
%TO.P,D10,1*%
%TO.N,row3*%
X228779240Y-160269332D03*
D17*
X228779240Y-160269332D03*
D16*
%TO.N,ring_bottom*%
X232071202Y-160499528D03*
D17*
%TO.P,D10,2*%
X232071202Y-160499528D03*
%TD*%
D25*
%TO.P,XX5,1*%
%TO.N,dis1-pad2*%
X148116184Y-146456873D03*
D26*
%TO.P,XX5,2*%
%TO.N,SCK*%
X148116184Y-147181873D03*
%TD*%
D16*
%TO.P,D19,1*%
%TO.N,row4*%
X175460088Y-184073635D03*
D30*
X175460088Y-184073635D03*
D16*
%TO.N,2_r0*%
X178647644Y-183219535D03*
D30*
%TO.P,D19,2*%
X178647644Y-183219535D03*
%TD*%
D31*
%TO.P,J1,1*%
%TO.N,VCC*%
X144076153Y-176075135D03*
X144076153Y-170125135D03*
%TO.P,J1,2*%
%TO.N,GND*%
X140076154Y-176075136D03*
X140076153Y-170125135D03*
%TO.P,J1,3*%
%TO.N,P18*%
X137076152Y-176075135D03*
X137076152Y-170125134D03*
%TO.P,J1,4*%
%TO.N,P15*%
X145576154Y-174325135D03*
X145576153Y-171875135D03*
%TD*%
D25*
%TO.P,XX4,1*%
%TO.N,dis1-pad1*%
X145571183Y-146456876D03*
D26*
%TO.P,XX4,2*%
%TO.N,MOSI*%
X145571183Y-147181876D03*
%TD*%
D16*
%TO.P,D7,1*%
%TO.N,row3*%
X210368159Y-150105132D03*
D22*
X210368159Y-150105132D03*
D16*
%TO.N,middle_bottom*%
X213668159Y-150105134D03*
D22*
%TO.P,D7,2*%
X213668159Y-150105134D03*
%TD*%
D32*
%TO.P,RST1,1*%
%TO.N,GND*%
X134410161Y-161980136D03*
%TO.P,RST1,2*%
%TO.N,RST*%
X136110158Y-161980136D03*
%TO.P,RST1,3*%
%TO.N,GND*%
X134410160Y-167230134D03*
%TO.P,RST1,4*%
%TO.N,RST*%
X136110157Y-167230134D03*
%TD*%
D16*
%TO.P,D21,1*%
%TO.N,row4*%
X143172584Y-203928241D03*
D33*
X143172584Y-203928241D03*
D16*
%TO.N,4_r0*%
X145506040Y-201594787D03*
D33*
%TO.P,D21,2*%
X145506040Y-201594787D03*
%TD*%
D16*
%TO.P,D2,1*%
%TO.N,row2*%
X172368154Y-144105131D03*
D22*
X172368154Y-144105131D03*
D16*
%TO.N,inner_home*%
X175668154Y-144105133D03*
D22*
%TO.P,D2,2*%
X175668154Y-144105133D03*
%TD*%
D25*
%TO.P,XX7,1*%
%TO.N,dis1-pad4*%
X153155187Y-146456877D03*
D26*
%TO.P,XX7,2*%
%TO.N,GND*%
X153155187Y-147181877D03*
%TD*%
D16*
%TO.P,D13,1*%
%TO.N,row3*%
X245805204Y-174034510D03*
D23*
X245805204Y-174034510D03*
D16*
%TO.N,pinky_bottom*%
X249055070Y-174607548D03*
D23*
%TO.P,D13,2*%
X249055070Y-174607548D03*
%TD*%
D16*
%TO.P,D14,1*%
%TO.N,row2*%
X249104518Y-155323161D03*
D23*
X249104518Y-155323161D03*
D16*
%TO.N,pinky_home*%
X252354384Y-155896199D03*
D23*
%TO.P,D14,2*%
X252354384Y-155896199D03*
%TD*%
D16*
%TO.P,D6,1*%
%TO.N,row1*%
X191368155Y-121105130D03*
D22*
X191368155Y-121105130D03*
D16*
%TO.N,index_top*%
X194668155Y-121105132D03*
D22*
%TO.P,D6,2*%
X194668155Y-121105132D03*
%TD*%
D34*
%TO.P,PWR1,*%
%TO.N,*%
X136366155Y-112655133D03*
X136366155Y-105355133D03*
X134156154Y-112655132D03*
X134156154Y-105355134D03*
D35*
%TO.P,PWR1,1*%
%TO.N,BAT_P*%
X137016154Y-106755133D03*
%TO.P,PWR1,2*%
%TO.N,RAW*%
X137016155Y-109755132D03*
%TO.P,PWR1,3*%
%TO.N,N/C*%
X137016154Y-111255133D03*
%TD*%
D16*
%TO.P,D1,1*%
%TO.N,row3*%
X172368156Y-163105134D03*
D22*
X172368156Y-163105134D03*
D16*
%TO.N,inner_bottom*%
X175668156Y-163105136D03*
D22*
%TO.P,D1,2*%
X175668156Y-163105136D03*
%TD*%
D24*
%TO.P,H3,*%
%TO.N,*%
X221606152Y-140330135D03*
%TD*%
D16*
%TO.P,D22,1*%
%TO.N,row3*%
X152180184Y-151817277D03*
D22*
X152180184Y-151817277D03*
D16*
%TO.N,SW18B*%
X155480184Y-151817279D03*
D22*
%TO.P,D22,2*%
X155480184Y-151817279D03*
%TD*%
D36*
%TO.P,DISP1,1*%
%TO.N,DISP1_1*%
X144938155Y-137305132D03*
%TO.P,DISP1,2*%
%TO.N,DISP1_2*%
X147478156Y-137305133D03*
%TO.P,DISP1,3*%
%TO.N,VCC*%
X150018156Y-137305133D03*
%TO.P,DISP1,4*%
%TO.N,DISP1_4*%
X152558154Y-137305133D03*
D14*
%TO.P,DISP1,5*%
%TO.N,DISP1_5*%
X155098156Y-137305131D03*
D37*
%TO.P,DISP1,10*%
%TO.N,DISP1_1*%
X144938153Y-135555132D03*
%TO.P,DISP1,11*%
%TO.N,DISP1_2*%
X147478156Y-135555131D03*
%TO.P,DISP1,12*%
%TO.N,DISP1_4*%
X152558154Y-135555131D03*
%TO.P,DISP1,13*%
%TO.N,DISP1_5*%
X155098155Y-135555132D03*
%TO.P,DISP1,14*%
%TO.N,CS*%
X144938156Y-134655133D03*
%TO.P,DISP1,15*%
%TO.N,GND*%
X147478155Y-134655135D03*
%TO.P,DISP1,16*%
%TO.N,SCK*%
X152558154Y-134655133D03*
%TO.P,DISP1,17*%
%TO.N,MOSI*%
X155098154Y-134655133D03*
%TD*%
D38*
%TO.P,S13,1*%
%TO.N,col5*%
X253164596Y-160659249D03*
D39*
%TO.P,S13,2*%
%TO.N,pinky_bottom*%
X241408041Y-160820189D03*
%TD*%
D40*
%TO.P,S34,1*%
%TO.N,col5*%
X241487715Y-167221271D03*
D41*
%TO.P,S34,2*%
%TO.N,pinky_bottom*%
X253777258Y-171967433D03*
%TD*%
D40*
%TO.P,S38,1*%
%TO.N,col6*%
X264366619Y-146885208D03*
D41*
%TO.P,S38,2*%
%TO.N,pinky_extra_home*%
X276656162Y-151631370D03*
%TD*%
D42*
%TO.P,S42,1*%
%TO.N,col1*%
X135115101Y-203557009D03*
D43*
%TO.P,S42,2*%
%TO.N,4_r0*%
X146051924Y-196212291D03*
%TD*%
D44*
%TO.P,S7,1*%
%TO.N,col3*%
X215293151Y-135655140D03*
D45*
%TO.P,S7,2*%
%TO.N,middle_bottom*%
X203743151Y-137855140D03*
%TD*%
D44*
%TO.P,S18,1*%
%TO.N,col4*%
X199243150Y-166605137D03*
D45*
%TO.P,S18,2*%
%TO.N,1_r0*%
X187693150Y-168805137D03*
%TD*%
D44*
%TO.P,S5,1*%
%TO.N,col2*%
X196293156Y-125655137D03*
D45*
%TO.P,S5,2*%
%TO.N,index_home*%
X184743156Y-127855137D03*
%TD*%
D46*
%TO.P,S22,1*%
%TO.N,col1*%
X166933151Y-157145135D03*
D47*
%TO.P,S22,2*%
%TO.N,inner_bottom*%
X179860151Y-159685135D03*
%TD*%
D46*
%TO.P,S27,1*%
%TO.N,col2*%
X185933153Y-115145137D03*
D47*
%TO.P,S27,2*%
%TO.N,index_top*%
X198860153Y-117685137D03*
%TD*%
D40*
%TO.P,S36,1*%
%TO.N,col5*%
X248086345Y-129798583D03*
D41*
%TO.P,S36,2*%
%TO.N,pinky_top*%
X260375888Y-134544745D03*
%TD*%
D46*
%TO.P,S39,1*%
%TO.N,col4*%
X188883150Y-175095137D03*
D47*
%TO.P,S39,2*%
%TO.N,1_r0*%
X201810150Y-177635137D03*
%TD*%
D38*
%TO.P,S16,1*%
%TO.N,col6*%
X272744185Y-159034529D03*
D39*
%TO.P,S16,2*%
%TO.N,pinky_extra_bottom*%
X260987630Y-159195469D03*
%TD*%
D46*
%TO.P,S23,1*%
%TO.N,col1*%
X166933153Y-138145131D03*
D47*
%TO.P,S23,2*%
%TO.N,inner_home*%
X179860153Y-140685131D03*
%TD*%
D44*
%TO.P,S1,1*%
%TO.N,col1*%
X177293151Y-148655135D03*
D45*
%TO.P,S1,2*%
%TO.N,inner_bottom*%
X165743151Y-150855135D03*
%TD*%
D38*
%TO.P,S17,1*%
%TO.N,col6*%
X276043500Y-140323186D03*
D39*
%TO.P,S17,2*%
%TO.N,pinky_extra_home*%
X264286945Y-140484126D03*
%TD*%
D46*
%TO.P,S29,1*%
%TO.N,col3*%
X204933154Y-125145137D03*
D47*
%TO.P,S29,2*%
%TO.N,middle_home*%
X217860154Y-127685137D03*
%TD*%
D44*
%TO.P,S3,1*%
%TO.N,col1*%
X177293154Y-110655134D03*
D45*
%TO.P,S3,2*%
%TO.N,inner_top*%
X165743154Y-112855134D03*
%TD*%
D48*
%TO.P,S20,1*%
%TO.N,col2*%
X155065135Y-176898661D03*
D49*
%TO.P,S20,2*%
%TO.N,3_r0*%
X146162542Y-184578917D03*
%TD*%
D50*
%TO.P,S10,1*%
%TO.N,col4*%
X234700224Y-146198077D03*
D51*
%TO.P,S10,2*%
%TO.N,ring_bottom*%
X223024898Y-147587033D03*
%TD*%
D52*
%TO.P,S41,1*%
%TO.N,col2*%
X150338112Y-189431217D03*
D53*
%TO.P,S41,2*%
%TO.N,3_r0*%
X162803222Y-185167421D03*
%TD*%
D50*
%TO.P,S12,1*%
%TO.N,col4*%
X237350969Y-108290641D03*
D51*
%TO.P,S12,2*%
%TO.N,ring_top*%
X225675643Y-109679597D03*
%TD*%
D44*
%TO.P,S6,1*%
%TO.N,col2*%
X196293153Y-106655137D03*
D45*
%TO.P,S6,2*%
%TO.N,index_top*%
X184743153Y-108855137D03*
%TD*%
D46*
%TO.P,S30,1*%
%TO.N,col3*%
X204933151Y-106145132D03*
D47*
%TO.P,S30,2*%
%TO.N,middle_top*%
X217860151Y-108685132D03*
%TD*%
D54*
%TO.P,S21,1*%
%TO.N,col1*%
X136437392Y-190228047D03*
D55*
%TO.P,S21,2*%
%TO.N,4_r0*%
X129825943Y-199950764D03*
%TD*%
D46*
%TO.P,S25,1*%
%TO.N,col2*%
X185933153Y-153145130D03*
D47*
%TO.P,S25,2*%
%TO.N,index_bottom*%
X198860153Y-155685130D03*
%TD*%
D46*
%TO.P,S24,1*%
%TO.N,col1*%
X166933154Y-119145134D03*
D47*
%TO.P,S24,2*%
%TO.N,inner_top*%
X179860154Y-121685134D03*
%TD*%
D40*
%TO.P,S37,1*%
%TO.N,col6*%
X261067304Y-165596551D03*
D41*
%TO.P,S37,2*%
%TO.N,pinky_extra_bottom*%
X273356847Y-170342713D03*
%TD*%
D56*
%TO.P,S33,1*%
%TO.N,col4*%
X226423976Y-116037286D03*
D57*
%TO.P,S33,2*%
%TO.N,ring_top*%
X239142305Y-119472841D03*
%TD*%
D50*
%TO.P,S11,1*%
%TO.N,col4*%
X236025596Y-127244357D03*
D51*
%TO.P,S11,2*%
%TO.N,ring_home*%
X224350270Y-128633313D03*
%TD*%
D44*
%TO.P,S8,1*%
%TO.N,col3*%
X215293154Y-116655137D03*
D58*
%TO.P,S8,2*%
%TO.N,middle_home*%
X203743154Y-118855137D03*
%TD*%
D38*
%TO.P,S14,1*%
%TO.N,col5*%
X256463912Y-141947906D03*
D39*
%TO.P,S14,2*%
%TO.N,pinky_home*%
X244707357Y-142108846D03*
%TD*%
D46*
%TO.P,S26,1*%
%TO.N,col2*%
X185933156Y-134145137D03*
D47*
%TO.P,S26,2*%
%TO.N,index_home*%
X198860156Y-136685137D03*
%TD*%
D38*
%TO.P,S15,1*%
%TO.N,col5*%
X259763226Y-123236561D03*
D39*
%TO.P,S15,2*%
%TO.N,pinky_top*%
X248006671Y-123397501D03*
%TD*%
D56*
%TO.P,S32,1*%
%TO.N,col4*%
X225098603Y-134991002D03*
D57*
%TO.P,S32,2*%
%TO.N,ring_home*%
X237816932Y-138426557D03*
%TD*%
D59*
%TO.P,S19,1*%
%TO.N,col3*%
X176477340Y-168841325D03*
D60*
%TO.P,S19,2*%
%TO.N,2_r0*%
X165890298Y-173955722D03*
%TD*%
D46*
%TO.P,S28,1*%
%TO.N,col3*%
X204933151Y-144145140D03*
D47*
%TO.P,S28,2*%
%TO.N,middle_bottom*%
X217860151Y-146685140D03*
%TD*%
D44*
%TO.P,S2,1*%
%TO.N,col1*%
X177293153Y-129655131D03*
D45*
%TO.P,S2,2*%
%TO.N,inner_home*%
X165743153Y-131855131D03*
%TD*%
D61*
%TO.P,S40,1*%
%TO.N,col3*%
X168667721Y-179723400D03*
D62*
%TO.P,S40,2*%
%TO.N,2_r0*%
X181811646Y-178831099D03*
%TD*%
D44*
%TO.P,S9,1*%
%TO.N,col3*%
X215293151Y-97655132D03*
D45*
%TO.P,S9,2*%
%TO.N,middle_top*%
X203743151Y-99855132D03*
%TD*%
D56*
%TO.P,S31,1*%
%TO.N,col4*%
X223773231Y-153944722D03*
D57*
%TO.P,S31,2*%
%TO.N,ring_bottom*%
X236491560Y-157380277D03*
%TD*%
D44*
%TO.P,S4,1*%
%TO.N,col2*%
X196293153Y-144655130D03*
D45*
%TO.P,S4,2*%
%TO.N,index_bottom*%
X184743153Y-146855130D03*
%TD*%
D40*
%TO.P,S35,1*%
%TO.N,col5*%
X244787031Y-148509928D03*
D41*
%TO.P,S35,2*%
%TO.N,pinky_home*%
X257076574Y-153256090D03*
%TD*%
D63*
%TO.N,GND*%
X134410161Y-159750000D03*
X146750000Y-150000000D03*
%TO.N,P18*%
X141500000Y-141500000D03*
%TO.N,ring_home*%
X231858090Y-139893463D03*
X232558031Y-129883909D03*
%TO.N,ring_top*%
X233183461Y-120939748D03*
X233883398Y-110930193D03*
%TO.N,BAT_P*%
X138493203Y-105964968D03*
X136371203Y-148760968D03*
%TO.N,GND*%
X139216003Y-147694167D03*
X150188803Y-133673367D03*
X155472005Y-147033767D03*
X148493204Y-138714968D03*
X143686403Y-147135367D03*
%TO.N,col1*%
X174018152Y-160535137D03*
X174018153Y-131730134D03*
X174018152Y-150730140D03*
X142522046Y-200944246D03*
X135588865Y-194011064D03*
X174018153Y-141535135D03*
X174018149Y-112730137D03*
X167023040Y-104959179D03*
X174018158Y-122535132D03*
%TO.N,col2*%
X193018155Y-127730136D03*
X193018153Y-137535138D03*
X193018155Y-108730132D03*
X193018156Y-146730133D03*
X193018158Y-156535135D03*
X193018150Y-118535133D03*
X158168902Y-188824544D03*
X183743203Y-165464968D03*
X153266404Y-180333167D03*
%TO.N,col3*%
X212018154Y-137730138D03*
X173850976Y-171693247D03*
X176388699Y-181164155D03*
X212018150Y-118730133D03*
X212018156Y-147535135D03*
X212018153Y-99730136D03*
X212018152Y-109535134D03*
X212018158Y-128535136D03*
%TO.N,col4*%
X231288458Y-148039573D03*
X233939201Y-110132140D03*
X162993204Y-158464966D03*
X232613829Y-129085856D03*
X195968151Y-168680129D03*
X233255244Y-119913255D03*
X162993203Y-122964967D03*
X186493203Y-165714968D03*
X162993203Y-160714967D03*
X231929871Y-138866970D03*
X230604497Y-157820691D03*
X195968153Y-178485134D03*
X172243204Y-166214967D03*
%TO.N,col5*%
X218993205Y-111714968D03*
X263310747Y-129185179D03*
X256177661Y-124711333D03*
X164743204Y-99714967D03*
X260011430Y-147896525D03*
X249579034Y-162134031D03*
X215993203Y-112714967D03*
X252878351Y-143422686D03*
X247876412Y-171790072D03*
X251175727Y-153078724D03*
X201243204Y-105714968D03*
X254475043Y-134367377D03*
%TO.N,col6*%
X272457935Y-141797960D03*
X270755316Y-151453999D03*
X276908333Y-164470009D03*
X267456000Y-170165344D03*
X165743203Y-98964968D03*
X279924044Y-145822810D03*
X269158620Y-160509309D03*
%TO.N,row4*%
X159743203Y-169214967D03*
X166243204Y-186214969D03*
%TO.N,MOSI*%
X151048865Y-117176119D03*
X149122003Y-133165367D03*
X149270830Y-149326030D03*
%TO.N,SCK*%
X145743203Y-132714968D03*
X150138004Y-135197367D03*
X149376004Y-148151367D03*
%TO.N,CS*%
X150087205Y-132250967D03*
%TO.N,VCC*%
X149274404Y-146576567D03*
%TO.N,RST*%
X136110159Y-158209767D03*
%TO.N,RAW*%
X135609203Y-109136967D03*
%TO.N,middle_top*%
X212018156Y-110564134D03*
X212018154Y-100530136D03*
%TO.N,pinky_top*%
X254296362Y-135380745D03*
X256038747Y-125499184D03*
%TO.N,inner_top*%
X174018152Y-113530133D03*
X174018152Y-123564134D03*
%TO.N,middle_home*%
X212018158Y-119530134D03*
X212018153Y-129564138D03*
%TO.N,index_home*%
X193018153Y-128530135D03*
X193018153Y-138564135D03*
%TO.N,pinky_extra_home*%
X270576629Y-152467368D03*
X272319018Y-142585807D03*
%TO.N,pinky_extra_bottom*%
X269019704Y-161297154D03*
X267277315Y-171178712D03*
%TO.N,3_r0*%
X158683402Y-189715684D03*
X153666399Y-181025987D03*
%TO.N,1_r0*%
X195968151Y-169480136D03*
X195968151Y-179514137D03*
%TO.N,index_bottom*%
X193018154Y-147530135D03*
X193018153Y-157564132D03*
%TO.N,ring_bottom*%
X231232657Y-148837625D03*
X230532720Y-158847185D03*
%TO.N,2_r0*%
X176655025Y-182158092D03*
X174058032Y-172465996D03*
%TO.N,middle_bottom*%
X212018152Y-148564134D03*
X212018151Y-138530134D03*
%TO.N,4_r0*%
X143249659Y-201671861D03*
X136154550Y-194576752D03*
%TO.N,inner_home*%
X174018154Y-142564136D03*
X174018150Y-132530135D03*
%TO.N,pinky_bottom*%
X249440115Y-162921878D03*
X247697729Y-172803439D03*
%TO.N,pinky_home*%
X250997040Y-154092087D03*
X252739431Y-144210530D03*
%TO.N,index_top*%
X193018152Y-109530136D03*
X193018153Y-119564138D03*
%TO.N,inner_bottom*%
X174018156Y-151530134D03*
X174018153Y-161564134D03*
%TD*%
%TO.N,GND*%
D64*
X134410161Y-159750000D02*
X134410161Y-159061236D01*
%TO.N,MOSI*%
X150993205Y-133066573D02*
X151000000Y-133073368D01*
X150993205Y-132193496D02*
X150993205Y-133066573D01*
X151000000Y-133073368D02*
X150250000Y-133073368D01*
X150250000Y-133073368D02*
X149214005Y-133073368D01*
X150993205Y-132193496D02*
X150993204Y-117214968D01*
%TO.N,GND*%
X139500000Y-157609767D02*
X139500000Y-147978164D01*
X139500000Y-147978164D02*
X139216003Y-147694167D01*
X139500000Y-157609767D02*
X139842784Y-157609767D01*
X140076153Y-170125135D02*
X140076154Y-176075136D01*
X139740154Y-160107137D02*
X141040154Y-158807137D01*
X139740154Y-169789136D02*
X139740154Y-160107137D01*
X140076153Y-170125135D02*
X139740154Y-169789136D01*
X139842784Y-157609767D02*
X141040154Y-158807137D01*
X134410161Y-161980136D02*
X134410161Y-159750000D01*
X134410161Y-159061236D02*
X135861630Y-157609767D01*
X135861630Y-157609767D02*
X139500000Y-157609767D01*
X134410161Y-161980136D02*
X134410160Y-167230134D01*
X150878147Y-105445132D02*
X146618150Y-105445132D01*
X153418149Y-107985134D02*
X150878147Y-105445132D01*
X149445389Y-150000000D02*
X146750000Y-150000000D01*
X151798152Y-147647237D02*
X149445389Y-150000000D01*
X151798152Y-142019916D02*
X151798152Y-147647237D01*
X148493204Y-138714968D02*
X151798152Y-142019916D01*
X152505772Y-150000000D02*
X146750000Y-150000000D01*
X155472005Y-147033767D02*
X152505772Y-150000000D01*
X139216003Y-114620936D02*
X139216003Y-147694167D01*
X152028149Y-111915134D02*
X141921805Y-111915134D01*
X141921805Y-111915134D02*
X139216003Y-114620936D01*
X153418149Y-110525134D02*
X152028149Y-111915134D01*
X153418149Y-110525134D02*
X153418149Y-107985134D01*
X143127603Y-147694167D02*
X143686403Y-147135367D01*
X139216003Y-147694167D02*
X143127603Y-147694167D01*
%TO.N,P15*%
X141921803Y-124375134D02*
X145468149Y-124375134D01*
X145468149Y-124375134D02*
X146618149Y-123225134D01*
X141248148Y-132748148D02*
X141248148Y-125048789D01*
X141248148Y-125048789D02*
X141921803Y-124375134D01*
X142500000Y-134000000D02*
X141248148Y-132748148D01*
%TO.N,P18*%
X145468149Y-121835134D02*
X146618149Y-120685134D01*
X141921804Y-121835134D02*
X145468149Y-121835134D01*
X140250000Y-123506938D02*
X141921804Y-121835134D01*
X140250000Y-140250000D02*
X140250000Y-123506938D01*
X141500000Y-141500000D02*
X140250000Y-140250000D01*
%TO.N,P15*%
X142500000Y-136493323D02*
X142500000Y-134000000D01*
X144286403Y-138279726D02*
X142500000Y-136493323D01*
X144286403Y-147453432D02*
X144286403Y-138279726D01*
X145576153Y-148743182D02*
X144286403Y-147453432D01*
X145576153Y-171875135D02*
X145576153Y-148743182D01*
%TO.N,row2*%
X256636015Y-157565049D02*
X249834558Y-156365768D01*
X159188151Y-134090813D02*
X159188149Y-128178957D01*
X268684109Y-153698435D02*
X266635753Y-153337257D01*
X192515779Y-141252761D02*
X198474683Y-141252762D01*
X157924328Y-126915135D02*
X154568147Y-126915136D01*
X248251048Y-155323161D02*
X249104516Y-155323159D01*
X154568147Y-126915136D02*
X153418149Y-125765135D01*
X210368150Y-131105134D02*
X211765774Y-132502761D01*
X172368153Y-144105132D02*
X169202468Y-144105131D01*
X182474684Y-145252763D02*
X187622311Y-140105136D01*
X261576109Y-149531561D02*
X261619622Y-149593704D01*
X219224686Y-132502761D02*
X228037540Y-141315616D01*
X228037540Y-141315616D02*
X230104615Y-141315615D01*
X159188149Y-128178957D02*
X157924328Y-126915135D01*
X201974685Y-137752762D02*
X201974684Y-136252761D01*
X207122312Y-131105135D02*
X210368150Y-131105134D01*
X260718051Y-154706775D02*
X256636015Y-157565049D01*
D65*
X154793152Y-125765131D02*
X153418151Y-125765135D01*
D64*
X187622311Y-140105136D02*
X191368152Y-140105136D01*
X263680188Y-149116276D02*
X261710572Y-148768977D01*
X241224683Y-145002763D02*
X241224685Y-148296801D01*
X231541761Y-142752761D02*
X238974684Y-142752760D01*
X238974684Y-142752760D02*
X241224683Y-145002763D01*
X172368153Y-144105133D02*
X173515783Y-145252763D01*
X261710572Y-148768977D02*
X261576109Y-149531561D01*
X261619622Y-149593704D02*
X260718051Y-154706775D01*
X230104615Y-141315615D02*
X231541761Y-142752761D01*
X169202468Y-144105131D02*
X159188151Y-134090813D01*
X241224685Y-148296801D02*
X248251048Y-155323161D01*
X211765774Y-132502761D02*
X219224686Y-132502761D01*
X191368152Y-140105136D02*
X192515779Y-141252761D01*
X198474683Y-141252762D02*
X201974685Y-137752762D01*
X201974684Y-136252761D02*
X207122312Y-131105135D01*
X173515783Y-145252763D02*
X182474684Y-145252763D01*
X266635753Y-153337257D02*
X263680188Y-149116276D01*
X249834558Y-156365768D02*
X249104516Y-155323159D01*
%TO.N,ring_home*%
X238104436Y-131770906D02*
X239130128Y-132796597D01*
X239130128Y-136205365D02*
X235289271Y-140046221D01*
X230327031Y-130909779D02*
X231585402Y-129815896D01*
X226070422Y-130612129D02*
X230327031Y-130909779D01*
X224350271Y-128633318D02*
X226070422Y-130612129D01*
X235289271Y-140046221D02*
X232010847Y-140046222D01*
X231163017Y-130101415D02*
X233524037Y-130101416D01*
X231858089Y-140007323D02*
X233396577Y-141545811D01*
X232010847Y-140046222D02*
X231858090Y-139893463D01*
X231585402Y-129815896D02*
X232558031Y-129883909D01*
X235193527Y-131770906D02*
X238104436Y-131770906D01*
X229967380Y-131297051D02*
X231163017Y-130101415D01*
X237816936Y-138426562D02*
X235811439Y-140169911D01*
X239130128Y-132796597D02*
X239130128Y-136205365D01*
X227424701Y-131297052D02*
X229967380Y-131297051D01*
X224350272Y-128633313D02*
X224760963Y-128633313D01*
X233524037Y-130101416D02*
X235193527Y-131770906D01*
X235811439Y-140169911D02*
X231858090Y-139893463D01*
X224760963Y-128633313D02*
X227424701Y-131297052D01*
X231858090Y-139893463D02*
X231858089Y-140007323D01*
%TO.N,row1*%
X172368152Y-125105135D02*
X172368153Y-125269739D01*
X172368153Y-125269739D02*
X173573463Y-126475049D01*
D65*
X154793152Y-123225137D02*
X153418155Y-123225136D01*
D64*
X231429989Y-122361896D02*
X233014416Y-124624693D01*
X249843330Y-136160328D02*
X252403834Y-136611813D01*
X207193382Y-112105131D02*
X210368156Y-112105131D01*
X181573464Y-126475050D02*
X186943381Y-121105132D01*
X172368154Y-125105133D02*
X171878157Y-124615136D01*
X218823463Y-113475050D02*
X227710311Y-122361897D01*
X191368155Y-121105132D02*
X193238075Y-122975049D01*
X211738072Y-113475050D02*
X218823463Y-113475050D01*
X244384292Y-126629509D02*
X244139977Y-128015093D01*
X233014416Y-124624693D02*
X244384292Y-126629509D01*
X173573463Y-126475049D02*
X181573464Y-126475050D01*
X197323463Y-122975049D02*
X201323466Y-118975050D01*
X210368156Y-112105131D02*
X211738072Y-113475050D01*
X193238075Y-122975049D02*
X197323463Y-122975049D01*
X227710311Y-122361897D02*
X231429988Y-122361897D01*
X154808151Y-124615135D02*
X153418151Y-123225134D01*
X171878157Y-124615136D02*
X154808151Y-124615135D01*
X201323466Y-118975050D02*
X201323465Y-117975049D01*
X244139977Y-128015093D02*
X249843330Y-136160328D01*
X201323465Y-117975049D02*
X207193382Y-112105131D01*
X186943381Y-121105132D02*
X191368155Y-121105132D01*
%TO.N,ring_top*%
X232691242Y-121431967D02*
X233183461Y-120939748D01*
X232910771Y-110862179D02*
X233883398Y-110930193D01*
X228877284Y-121431966D02*
X232691242Y-121431967D01*
X231652403Y-111956065D02*
X232910771Y-110862179D01*
X227395797Y-111658411D02*
X231652403Y-111956065D01*
X224764885Y-117319568D02*
X228877284Y-121431966D01*
X225675642Y-109679597D02*
X224764886Y-110590353D01*
X237136808Y-121216192D02*
X233183461Y-120939748D01*
X233183464Y-121053603D02*
X234721950Y-122592092D01*
X225675643Y-109679601D02*
X227395797Y-111658411D01*
X224764886Y-110590353D02*
X224764885Y-117319568D01*
X239142305Y-119472846D02*
X237136808Y-121216192D01*
X233183461Y-120939748D02*
X233183464Y-121053603D01*
%TO.N,BAT_P*%
X137806321Y-105964968D02*
X138493203Y-105964968D01*
X137146986Y-148760968D02*
X138116152Y-149730135D01*
X136371203Y-148760968D02*
X137146986Y-148760968D01*
X137016154Y-106755133D02*
X137806321Y-105964968D01*
%TO.N,GND*%
X148868154Y-138340018D02*
X148868153Y-134994017D01*
X155323893Y-147181878D02*
X155472005Y-147033767D01*
D65*
X154793150Y-110525134D02*
X153418152Y-110525133D01*
D64*
X147478152Y-134655136D02*
X149207037Y-134655136D01*
D65*
X154793157Y-107985134D02*
X153418153Y-107985137D01*
X145243152Y-105445137D02*
X146618153Y-105445135D01*
D64*
X149207037Y-134655136D02*
X150188803Y-133673367D01*
X148868153Y-134994017D02*
X150188803Y-133673367D01*
X153155185Y-147181878D02*
X155323893Y-147181878D01*
X138116152Y-147730134D02*
X139180036Y-147730135D01*
X148493204Y-138714968D02*
X148868154Y-138340018D01*
X139180036Y-147730135D02*
X139216003Y-147694167D01*
%TO.N,JST1_1*%
D65*
X137100155Y-149730135D02*
X135300153Y-149730138D01*
%TO.N,JST1_2*%
X137100150Y-147730134D02*
X135300155Y-147730136D01*
%TO.N,MCU1_1*%
X155518155Y-102905132D02*
X157638154Y-102905134D01*
%TO.N,MCU1_2*%
X155518155Y-105445136D02*
X157638157Y-105445135D01*
%TO.N,MCU1_3*%
X155518151Y-107985138D02*
X157638157Y-107985135D01*
%TO.N,MCU1_4*%
X155518153Y-110525135D02*
X157638150Y-110525135D01*
%TO.N,MCU1_5*%
X155518150Y-113065134D02*
X157638150Y-113065135D01*
%TO.N,MCU1_6*%
X155518159Y-115605135D02*
X157638159Y-115605137D01*
%TO.N,MCU1_7*%
X155518152Y-118145134D02*
X157638157Y-118145135D01*
%TO.N,MCU1_8*%
X155518151Y-120685136D02*
X157638155Y-120685132D01*
%TO.N,MCU1_9*%
X155518157Y-123225135D02*
X157638150Y-123225137D01*
%TO.N,MCU1_10*%
X155518153Y-125765133D02*
X157638150Y-125765138D01*
%TO.N,MCU1_11*%
X155518155Y-128305137D02*
X157638150Y-128305134D01*
%TO.N,MCU1_12*%
X155518156Y-130845133D02*
X157638157Y-130845138D01*
%TO.N,MCU1_13*%
X142398154Y-130845136D02*
X144518151Y-130845137D01*
%TO.N,MCU1_14*%
X142398153Y-128305137D02*
X144518155Y-128305134D01*
%TO.N,MCU1_15*%
X142398152Y-125765136D02*
X144518156Y-125765137D01*
%TO.N,MCU1_16*%
X142398153Y-123225135D02*
X144518151Y-123225134D01*
%TO.N,MCU1_17*%
X142398153Y-120685132D02*
X144518150Y-120685134D01*
%TO.N,MCU1_18*%
X142398148Y-118145132D02*
X144518156Y-118145135D01*
%TO.N,MCU1_19*%
X142398151Y-115605136D02*
X144518152Y-115605132D01*
%TO.N,MCU1_20*%
X142398155Y-113065135D02*
X144518153Y-113065138D01*
%TO.N,MCU1_21*%
X142398156Y-110525136D02*
X144518152Y-110525135D01*
%TO.N,MCU1_22*%
X142398153Y-107985134D02*
X144518152Y-107985133D01*
%TO.N,MCU1_23*%
X142398157Y-105445136D02*
X144518155Y-105445138D01*
%TO.N,MCU1_24*%
X142398153Y-102905132D02*
X144518154Y-102905135D01*
%TO.N,col1*%
D64*
X172989156Y-123564136D02*
X169852152Y-123564135D01*
X154808147Y-104295134D02*
X153418150Y-102905136D01*
X174018153Y-141535135D02*
X172989150Y-142564133D01*
X174018158Y-122535132D02*
X172989156Y-123564136D01*
X172989150Y-142564133D02*
X169852150Y-142564135D01*
X175218151Y-131730135D02*
X174018153Y-131730134D01*
X169852157Y-161564135D02*
X166933150Y-158645137D01*
X175218150Y-112730137D02*
X174018149Y-112730137D01*
X136437392Y-190228042D02*
X136437388Y-193162538D01*
X177293154Y-129655132D02*
X175218151Y-131730135D01*
X142522046Y-200944246D02*
X142522043Y-202399471D01*
X166933150Y-158645137D02*
X166933149Y-157145132D01*
X175218153Y-150730137D02*
X174018152Y-150730140D01*
X140303852Y-204617669D02*
X136175766Y-204617669D01*
X172989151Y-161564131D02*
X169852157Y-161564135D01*
X166933153Y-120645138D02*
X166933157Y-119145136D01*
X136175766Y-204617669D02*
X135115106Y-203557005D01*
D65*
X154793153Y-102905136D02*
X153418153Y-102905132D01*
D64*
X169852152Y-123564135D02*
X166933153Y-120645138D01*
X136437388Y-193162538D02*
X135588865Y-194011064D01*
X167023040Y-104959179D02*
X166358994Y-104295134D01*
X142522043Y-202399471D02*
X140303852Y-204617669D01*
X166933151Y-139645133D02*
X166933150Y-138145135D01*
X166358994Y-104295134D02*
X154808147Y-104295134D01*
X177293150Y-110655136D02*
X175218150Y-112730137D01*
X177293152Y-148655136D02*
X175218153Y-150730137D01*
X174018152Y-160535137D02*
X172989151Y-161564131D01*
X169852150Y-142564135D02*
X166933151Y-139645133D01*
%TO.N,col2*%
X193018153Y-137535138D02*
X191989154Y-138564135D01*
X185933152Y-116645136D02*
X185933150Y-115145133D01*
X193018155Y-108730132D02*
X192476854Y-108730132D01*
X163998130Y-172912219D02*
X171878203Y-165032144D01*
X190341855Y-106595133D02*
X154568149Y-106595133D01*
D65*
X154793148Y-105445134D02*
X153418153Y-105445132D01*
D64*
X185933152Y-135645135D02*
X185933154Y-134145139D01*
X153266404Y-180333167D02*
X158580680Y-180333166D01*
X188852154Y-138564131D02*
X185933152Y-135645135D01*
X191989154Y-138564135D02*
X188852154Y-138564131D01*
X188852153Y-157564138D02*
X185933151Y-154645133D01*
X183310383Y-165032145D02*
X183743203Y-165464968D01*
X196293151Y-125655135D02*
X194218153Y-127730132D01*
X158580680Y-180333166D02*
X163998131Y-174915715D01*
X151088117Y-190730260D02*
X150338115Y-189431220D01*
X194218148Y-108730136D02*
X193018155Y-108730132D01*
X154568149Y-106595133D02*
X153418151Y-105445133D01*
X196293152Y-144655133D02*
X194218154Y-146730137D01*
X163998131Y-174915715D02*
X163998130Y-172912219D01*
X188852150Y-119564134D02*
X185933152Y-116645136D01*
X154305630Y-179733169D02*
X153266404Y-180333167D01*
X193018158Y-156535135D02*
X191989156Y-157564135D01*
X155065135Y-176898666D02*
X154305630Y-179733169D01*
X193018150Y-118535133D02*
X191989150Y-119564134D01*
X157792268Y-190230185D02*
X155075538Y-191798689D01*
X194218154Y-146730137D02*
X193018156Y-146730133D01*
X194218153Y-127730132D02*
X193018155Y-127730136D01*
X191989156Y-157564135D02*
X188852153Y-157564138D01*
X192476854Y-108730132D02*
X190341855Y-106595133D01*
X155075538Y-191798689D02*
X151088117Y-190730260D01*
X171878203Y-165032144D02*
X183310383Y-165032145D01*
X196293152Y-106655137D02*
X194218148Y-108730136D01*
X185933151Y-154645133D02*
X185933156Y-153145137D01*
X191989150Y-119564134D02*
X188852150Y-119564134D01*
X158168902Y-188824544D02*
X157792268Y-190230185D01*
%TO.N,col3*%
X175010088Y-171382671D02*
X173850976Y-171693247D01*
X204933155Y-126645134D02*
X204933153Y-125145133D01*
X213218156Y-118730135D02*
X212018150Y-118730133D01*
X207852151Y-110564137D02*
X204933152Y-107645133D01*
X169055954Y-181172287D02*
X168667720Y-179723399D01*
X172630979Y-183236334D02*
X169055954Y-181172287D01*
X207852151Y-148564137D02*
X204933159Y-145645134D01*
D65*
X154793151Y-113065138D02*
X153418151Y-113065132D01*
D64*
X215293151Y-135655136D02*
X213218154Y-137730133D01*
X210989154Y-129564133D02*
X207852151Y-129564134D01*
X215293152Y-97655138D02*
X213218152Y-99730135D01*
X210989157Y-148564132D02*
X207852151Y-148564137D01*
X207852151Y-129564134D02*
X204933155Y-126645134D01*
X213218154Y-137730133D02*
X212018154Y-137730138D01*
X204933152Y-107645133D02*
X204933154Y-106145137D01*
X210989154Y-110564137D02*
X207852151Y-110564137D01*
X176477341Y-168841325D02*
X175010088Y-171382671D01*
X215293151Y-116655133D02*
X213218156Y-118730135D01*
X212018156Y-147535135D02*
X210989157Y-148564132D01*
X176388699Y-181164155D02*
X175661088Y-182424421D01*
X212018158Y-128535136D02*
X210989154Y-129564133D01*
X204933159Y-145645134D02*
X204933152Y-144145136D01*
X212018152Y-109535134D02*
X210989154Y-110564137D01*
X175661088Y-182424421D02*
X172630979Y-183236334D01*
X213218152Y-99730135D02*
X212018153Y-99730136D01*
%TO.N,col4*%
X224993969Y-136487352D02*
X225098603Y-134991007D01*
X162743204Y-116714968D02*
X162703037Y-116755135D01*
X233255244Y-119913255D02*
X232156970Y-120867968D01*
D65*
X154793154Y-115605134D02*
X153418155Y-115605135D01*
D64*
X231929871Y-138866970D02*
X230831596Y-139821685D01*
X186093150Y-167205137D02*
X186343150Y-166955138D01*
X186093152Y-172305136D02*
X186093150Y-167205137D01*
X230831596Y-139821685D02*
X227702242Y-139602862D01*
X235136283Y-110215850D02*
X233939201Y-110132140D01*
X162993203Y-122964967D02*
X162743203Y-122714966D01*
X188883151Y-175095137D02*
X186093152Y-172305136D01*
X185993203Y-166214967D02*
X172243204Y-166214967D01*
X188883153Y-176595136D02*
X188883151Y-175095135D01*
X229506224Y-158775405D02*
X226376867Y-158556577D01*
X232485539Y-148123285D02*
X231288458Y-148039573D01*
X197168152Y-168680133D02*
X195968151Y-168680129D01*
X236025599Y-127244359D02*
X233810912Y-129169567D01*
X191802156Y-179514135D02*
X188883153Y-176595136D01*
X193701856Y-166955136D02*
X195426849Y-168680128D01*
X227702242Y-139602862D02*
X224993969Y-136487352D01*
X232156970Y-120867968D02*
X229027613Y-120649148D01*
X223668592Y-155441070D02*
X223773232Y-153944724D01*
X195968153Y-178485134D02*
X194939152Y-179514134D01*
X162993203Y-160714967D02*
X162993204Y-158464966D01*
X199243148Y-166605131D02*
X197168152Y-168680133D01*
X186343150Y-166955138D02*
X193701856Y-166955136D01*
X226319343Y-117533638D02*
X226423976Y-116037286D01*
X194939152Y-179514134D02*
X191802156Y-179514135D01*
X162703037Y-116755135D02*
X154568150Y-116755135D01*
X186493203Y-165714968D02*
X185993203Y-166214967D01*
X195426849Y-168680128D02*
X195968151Y-168680129D01*
X230604497Y-157820691D02*
X229506224Y-158775405D01*
X229027613Y-120649148D02*
X226319343Y-117533638D01*
X162743203Y-122714966D02*
X162743204Y-116714968D01*
X154568150Y-116755135D02*
X153418152Y-115605137D01*
X233810912Y-129169567D02*
X232613829Y-129085856D01*
X234700226Y-146198081D02*
X232485539Y-148123285D01*
X237350973Y-108290649D02*
X235136283Y-110215850D01*
X226376867Y-158556577D02*
X223668592Y-155441070D01*
%TO.N,col5*%
X247876412Y-171790072D02*
X246684361Y-172624758D01*
X246684361Y-172624758D02*
X243595017Y-172080021D01*
X253164596Y-160659252D02*
X250760802Y-162342414D01*
X241227244Y-168698489D02*
X241487719Y-167221272D01*
X254060117Y-143631061D02*
X252878351Y-143422686D01*
X258572675Y-142319739D02*
X256463912Y-141947906D01*
X257359431Y-124919717D02*
X256177661Y-124711333D01*
X260507531Y-145082998D02*
X258572675Y-142319739D01*
X261871989Y-123608391D02*
X259763226Y-123236562D01*
X216283368Y-113005132D02*
X215993203Y-112714967D01*
X263310747Y-129185179D02*
X263806846Y-126371653D01*
X254475043Y-134367377D02*
X253282988Y-135202059D01*
X263806846Y-126371653D02*
X261871989Y-123608391D01*
X218993205Y-111714968D02*
X217703039Y-113005131D01*
X250760802Y-162342414D02*
X249579034Y-162134031D01*
X256463913Y-141947905D02*
X254060117Y-143631061D01*
X243595017Y-172080021D02*
X241227244Y-168698489D01*
X250193651Y-134657326D02*
X247825874Y-131275792D01*
X201243204Y-105714968D02*
X195093203Y-99564967D01*
X249983674Y-153913403D02*
X246894339Y-153368671D01*
X217703039Y-113005131D02*
X216283368Y-113005132D01*
X253282988Y-135202059D02*
X250193651Y-134657326D01*
X260011430Y-147896525D02*
X260507531Y-145082998D01*
X251175727Y-153078724D02*
X249983674Y-153913403D01*
X246894339Y-153368671D02*
X244526560Y-149987142D01*
X244526560Y-149987142D02*
X244787034Y-148509930D01*
X259763226Y-123236557D02*
X257359431Y-124919717D01*
X195093203Y-99564967D02*
X164893204Y-99564967D01*
D65*
X154793153Y-118145136D02*
X153418152Y-118145135D01*
D64*
X164893204Y-99564967D02*
X164743204Y-99714967D01*
X247825874Y-131275792D02*
X248086346Y-129798581D01*
%TO.N,col6*%
X249959089Y-120817862D02*
X240801395Y-111660169D01*
X274211127Y-159034531D02*
X272744185Y-159034531D01*
X201433315Y-98964968D02*
X165743203Y-98964968D01*
X267456000Y-170165344D02*
X266263951Y-171000031D01*
X272744187Y-159034529D02*
X270340389Y-160717684D01*
D65*
X154793153Y-120685139D02*
X153418152Y-120685134D01*
D64*
X266473922Y-151743951D02*
X264106149Y-148362411D01*
X269563265Y-152288683D02*
X266473922Y-151743951D01*
X238290452Y-106212192D02*
X226874479Y-106212194D01*
X276043501Y-140323184D02*
X273639706Y-142006338D01*
X240801395Y-108723136D02*
X238290452Y-106212192D01*
X264229540Y-131329910D02*
X264229541Y-124718109D01*
X278152263Y-140695016D02*
X276043500Y-140323186D01*
X240801395Y-111660169D02*
X240801395Y-108723136D01*
X264106149Y-148362411D02*
X264366618Y-146885205D01*
X204593151Y-95805133D02*
X201433315Y-98964968D01*
X226874479Y-106212194D02*
X216467416Y-95805132D01*
X276908333Y-164470009D02*
X276908334Y-161731736D01*
X280289909Y-143747892D02*
X278152263Y-140695016D01*
X260806834Y-167073765D02*
X261067306Y-165596552D01*
X264229541Y-124718109D02*
X260329296Y-120817863D01*
X270755316Y-151453999D02*
X269563265Y-152288683D01*
X276908334Y-161731736D02*
X274211127Y-159034531D01*
X266263951Y-171000031D02*
X263174610Y-170455298D01*
X262148581Y-144667166D02*
X262148580Y-133410871D01*
X273639706Y-142006338D02*
X272457935Y-141797960D01*
X260329296Y-120817863D02*
X249959089Y-120817862D01*
X264366620Y-146885207D02*
X262148581Y-144667166D01*
X262148580Y-133410871D02*
X264229540Y-131329910D01*
X270340389Y-160717684D02*
X269158620Y-160509309D01*
X279924044Y-145822810D02*
X280289909Y-143747892D01*
X216467416Y-95805132D02*
X204593151Y-95805133D01*
X263174610Y-170455298D02*
X260806834Y-167073765D01*
%TO.N,row3*%
X225928292Y-160269332D02*
X228779243Y-160269331D01*
X185841143Y-164632145D02*
X191368154Y-159105133D01*
X172368156Y-163105133D02*
X164176629Y-163105133D01*
X164176629Y-163105133D02*
X152888774Y-151817278D01*
X173541107Y-164632145D02*
X185841143Y-164632145D01*
X211895170Y-151632147D02*
X217291108Y-151632145D01*
X238291106Y-169781195D02*
X238291106Y-170382146D01*
X263016166Y-171992132D02*
X265384791Y-172409784D01*
X158114495Y-129695135D02*
X158788151Y-130368788D01*
X152888774Y-151817278D02*
X152180186Y-151817278D01*
X210368158Y-150105134D02*
X211895170Y-151632147D01*
X208818116Y-150105134D02*
X210368158Y-150105134D01*
X192791104Y-160632146D02*
X198291106Y-160632146D01*
X158788150Y-145633577D02*
X152604448Y-151817277D01*
X217291108Y-151632145D02*
X225928292Y-160269332D01*
X154808144Y-129695134D02*
X158114495Y-129695135D01*
X256291105Y-175382146D02*
X257205573Y-174741826D01*
D65*
X154793152Y-128305135D02*
X153418157Y-128305137D01*
D64*
X158788151Y-130368788D02*
X158788150Y-145633577D01*
X241943468Y-174034509D02*
X246597182Y-174034511D01*
X259954891Y-167620182D02*
X263016166Y-171992132D01*
X248139244Y-175576573D02*
X256096680Y-175576573D01*
X153418148Y-128305136D02*
X154808144Y-129695134D01*
X246597182Y-174034511D02*
X248139244Y-175576573D01*
X258970082Y-167446533D02*
X259954891Y-167620182D01*
X152604448Y-151817277D02*
X152180186Y-151817278D01*
X191368154Y-159105133D02*
X191368155Y-159209194D01*
X172368156Y-163105134D02*
X172368157Y-163459194D01*
X198291106Y-160632146D02*
X208818116Y-150105134D01*
X172368157Y-163459194D02*
X173541107Y-164632145D01*
X256096680Y-175576573D02*
X256291105Y-175382146D01*
X258424582Y-167828500D02*
X258970082Y-167446533D01*
X191368155Y-159209194D02*
X192791104Y-160632146D01*
X257205573Y-174741826D02*
X258424582Y-167828500D01*
X228779243Y-160269331D02*
X238291106Y-169781195D01*
X238291106Y-170382146D02*
X241943468Y-174034509D01*
%TO.N,row4*%
X148299716Y-196110590D02*
X148568364Y-195107975D01*
X166647526Y-188119290D02*
X174227057Y-183743244D01*
X156248154Y-147210019D02*
X156248155Y-133675138D01*
X146526859Y-201961298D02*
X146607220Y-201042829D01*
X152540893Y-150917276D02*
X156248154Y-147210019D01*
D65*
X154793154Y-130845137D02*
X153418153Y-130845131D01*
D64*
X158024963Y-191875229D02*
X159470960Y-192262684D01*
X193868155Y-181218925D02*
X194318154Y-181055136D01*
X155316581Y-193438914D02*
X158024961Y-191875234D01*
X166647526Y-188119290D02*
X166647526Y-186619291D01*
X152681981Y-192732973D02*
X155316581Y-193438914D01*
X177029614Y-184805517D02*
X190806366Y-179791189D01*
X166647526Y-186619291D02*
X166243204Y-186214969D01*
X159743203Y-169214967D02*
X151430184Y-160901948D01*
X146386686Y-200780008D02*
X148183572Y-199272243D01*
X174227057Y-183743244D02*
X175460091Y-184073638D01*
X143172583Y-203928238D02*
X144087371Y-204008270D01*
X146607220Y-201042829D02*
X146386686Y-200780008D01*
X151430184Y-160901948D02*
X151430184Y-150917277D01*
X148568364Y-195107975D02*
X152681981Y-192732973D01*
X159470960Y-192262684D02*
X166647526Y-188119290D01*
X190806366Y-179791189D02*
X193868155Y-181218925D01*
X148183572Y-199272243D02*
X148439067Y-196351947D01*
X144087371Y-204008270D02*
X146526859Y-201961298D01*
X156248155Y-133675138D02*
X153418152Y-130845134D01*
X151430184Y-150917277D02*
X152540893Y-150917276D01*
X148439067Y-196351947D02*
X148299716Y-196110590D01*
X175460089Y-184073638D02*
X177029614Y-184805517D01*
%TO.N,P10*%
D65*
X145243154Y-130845133D02*
X146618153Y-130845136D01*
%TO.N,P16*%
X145243159Y-128305135D02*
X146618158Y-128305136D01*
%TO.N,P14*%
X145243155Y-125765134D02*
X146618154Y-125765135D01*
%TO.N,P15*%
X145243152Y-123225136D02*
X146618158Y-123225135D01*
%TO.N,P18*%
X145243149Y-120685136D02*
X146618148Y-120685134D01*
%TO.N,MOSI*%
D64*
X155098151Y-134655134D02*
X153516385Y-133073368D01*
X149214005Y-133073368D02*
X149122003Y-133165367D01*
X147709076Y-149319768D02*
X149274404Y-149319768D01*
D65*
X145243152Y-118145132D02*
X146618152Y-118145133D01*
D64*
X145571182Y-147181875D02*
X147709076Y-149319768D01*
X153516385Y-133073368D02*
X151000000Y-133073368D01*
%TO.N,SCK*%
X150680237Y-134655133D02*
X150138004Y-135197367D01*
X147318149Y-131140021D02*
X147318151Y-116305134D01*
X147318151Y-116305134D02*
X146618149Y-115605134D01*
D65*
X145243153Y-115605138D02*
X146618156Y-115605136D01*
D64*
X145743203Y-132714968D02*
X147318149Y-131140021D01*
X152558152Y-134655133D02*
X150680237Y-134655133D01*
X148116184Y-147181872D02*
X148406509Y-147181873D01*
X148406509Y-147181873D02*
X149376004Y-148151367D01*
%TO.N,CS*%
D65*
X145243149Y-113065133D02*
X146618156Y-113065136D01*
D64*
X150087205Y-132250967D02*
X150087204Y-116534188D01*
X150087204Y-116534188D02*
X146618150Y-113065134D01*
X147342320Y-132250968D02*
X144938153Y-134655134D01*
X150087205Y-132250967D02*
X147342320Y-132250968D01*
%TO.N,VCC*%
X150610184Y-147181873D02*
X149879708Y-147181872D01*
D65*
X145243152Y-110525133D02*
X146618153Y-110525135D01*
D64*
X149879708Y-147181872D02*
X149274404Y-146576567D01*
%TO.N,RST*%
X136110158Y-161980136D02*
X136110159Y-158209767D01*
D65*
X145243149Y-107985130D02*
X146618153Y-107985134D01*
D64*
X136110158Y-161980136D02*
X136110156Y-167230136D01*
%TO.N,RAW*%
X137016155Y-109200779D02*
X142161801Y-104055133D01*
D65*
X145243157Y-102905133D02*
X146618150Y-102905131D01*
D64*
X137016155Y-109755132D02*
X136227368Y-109755133D01*
X136227368Y-109755133D02*
X135609203Y-109136967D01*
X137016155Y-109755132D02*
X137016155Y-109200779D01*
X142161801Y-104055133D02*
X145468150Y-104055135D01*
X145468150Y-104055135D02*
X146618152Y-102905131D01*
%TO.N,dis1-pad4*%
X153238150Y-143405134D02*
X153238150Y-146373912D01*
X153238150Y-146373912D02*
X153155185Y-146456876D01*
%TO.N,dis1-pad3*%
X150610184Y-146456871D02*
X150610184Y-143493102D01*
X150610184Y-143493102D02*
X150698152Y-143405135D01*
%TO.N,dis1-pad2*%
X148116185Y-146456873D02*
X148116185Y-143447103D01*
X148116185Y-143447103D02*
X148158151Y-143405137D01*
%TO.N,dis1-pad1*%
X145618152Y-146409908D02*
X145571182Y-146456876D01*
X145618151Y-143405134D02*
X145618152Y-146409908D01*
%TO.N,middle_top*%
X203358151Y-107695132D02*
X206627157Y-110964137D01*
X212018156Y-110564134D02*
X212127155Y-110564134D01*
X203743151Y-99855131D02*
X203358151Y-100240132D01*
X203358151Y-100240132D02*
X203358151Y-107695132D01*
X211618151Y-110964137D02*
X212018156Y-110564134D01*
X205597154Y-101709135D02*
X209864153Y-101709137D01*
X211043155Y-100530134D02*
X212018154Y-100530136D01*
X215981154Y-110564135D02*
X212018156Y-110564134D01*
X212127155Y-110564134D02*
X213668154Y-112105132D01*
X209864153Y-101709137D02*
X211043155Y-100530134D01*
X203743153Y-99855136D02*
X205597154Y-101709135D01*
X206627157Y-110964137D02*
X211618151Y-110964137D01*
X217860153Y-108685136D02*
X215981154Y-110564135D01*
%TO.N,pinky_top*%
X260203044Y-128035845D02*
X261677258Y-128295790D01*
X261604761Y-133092365D02*
X257523864Y-135949841D01*
X257523864Y-135949841D02*
X254296362Y-135380745D01*
X262294973Y-129177978D02*
X261604761Y-133092365D01*
X249994012Y-126235717D02*
X253041491Y-126773071D01*
X248006671Y-123397500D02*
X249994012Y-126235717D01*
X248006675Y-123397498D02*
X249510559Y-125545274D01*
X254403704Y-135399671D02*
X254296362Y-135380745D01*
X261677258Y-128295790D02*
X262294973Y-129177978D01*
X254837098Y-125515774D02*
X258945747Y-126240238D01*
X253712737Y-126286232D02*
X255078555Y-125329877D01*
X249510559Y-125545274D02*
X253712737Y-126286232D01*
X258199152Y-136068913D02*
X254296362Y-135380745D01*
X258945747Y-126240238D02*
X260203044Y-128035845D01*
X255078555Y-125329877D02*
X256038747Y-125499184D01*
X253041491Y-126773071D02*
X254837098Y-125515774D01*
X255653699Y-137184852D02*
X254403704Y-135399671D01*
X260375889Y-134544740D02*
X258199152Y-136068913D01*
%TO.N,inner_top*%
X175668154Y-125105135D02*
X174127152Y-123564135D01*
X177981156Y-123564134D02*
X174018152Y-123564134D01*
X171864153Y-114709137D02*
X173043152Y-113530133D01*
X167597151Y-114709136D02*
X171864153Y-114709137D01*
X165358154Y-113240134D02*
X165358154Y-120695134D01*
X174127152Y-123564135D02*
X174018152Y-123564134D01*
X179860148Y-121685132D02*
X177981156Y-123564134D01*
X165358154Y-120695134D02*
X168627158Y-123964136D01*
X165743155Y-112855132D02*
X165358154Y-113240134D01*
X168627158Y-123964136D02*
X173618150Y-123964136D01*
X165743151Y-112855134D02*
X167597151Y-114709136D01*
X173043152Y-113530133D02*
X174018152Y-113530133D01*
X173618150Y-123964136D02*
X174018152Y-123564134D01*
%TO.N,middle_home*%
X204756153Y-122197138D02*
X203358155Y-123595137D01*
X203358155Y-123595137D02*
X203358155Y-126695137D01*
X209864154Y-120709132D02*
X211043156Y-119530137D01*
X203743155Y-118855139D02*
X204756153Y-119868137D01*
X203743151Y-118855135D02*
X205597157Y-120709136D01*
X215981153Y-129564137D02*
X212018153Y-129564138D01*
X204756153Y-119868137D02*
X204756153Y-122197138D01*
X211618159Y-129964132D02*
X212018153Y-129564138D01*
X206627149Y-129964134D02*
X211618159Y-129964132D01*
X203358155Y-126695137D02*
X206627149Y-129964134D01*
X211043156Y-119530137D02*
X212018158Y-119530134D01*
X213668147Y-131105138D02*
X212127148Y-129564137D01*
X212127148Y-129564137D02*
X212018153Y-129564138D01*
X217860150Y-127685137D02*
X215981153Y-129564137D01*
X205597157Y-120709136D02*
X209864154Y-120709132D01*
%TO.N,index_home*%
X184358157Y-135695137D02*
X187627150Y-138964134D01*
X184743154Y-127855137D02*
X184358154Y-128240138D01*
X193018153Y-138564135D02*
X193127150Y-138564135D01*
X184743152Y-127855133D02*
X186597157Y-129709136D01*
X187627150Y-138964134D02*
X192618153Y-138964133D01*
X196981151Y-138564135D02*
X193018153Y-138564135D01*
X198860153Y-136685138D02*
X196981151Y-138564135D01*
X190864155Y-129709136D02*
X192043149Y-128530139D01*
X192043149Y-128530139D02*
X193018153Y-128530135D01*
X192618153Y-138964133D02*
X193018153Y-138564135D01*
X193127150Y-138564135D02*
X194668153Y-140105137D01*
X184358154Y-128240138D02*
X184358157Y-135695137D01*
X186597157Y-129709136D02*
X190864155Y-129709136D01*
%TO.N,pinky_extra_home*%
X265790838Y-142631900D02*
X269993006Y-143372859D01*
X276656163Y-151631369D02*
X274479423Y-153155540D01*
X274479423Y-153155540D02*
X270576629Y-152467368D01*
X264286948Y-140484125D02*
X265790838Y-142631900D01*
X264286946Y-140484125D02*
X266274286Y-143322342D01*
X267538266Y-143545216D02*
X269333871Y-142287920D01*
X278575247Y-146264603D02*
X277885035Y-150178991D01*
X266274286Y-143322342D02*
X267538266Y-143545216D01*
X277957531Y-145382415D02*
X278575247Y-146264603D01*
X269993006Y-143372859D02*
X271358828Y-142416500D01*
X273804138Y-153036465D02*
X270576629Y-152467368D01*
X271358828Y-142416500D02*
X272319018Y-142585807D01*
X275226019Y-143326863D02*
X276483319Y-145122470D01*
X277885035Y-150178991D02*
X273804138Y-153036465D01*
X269333871Y-142287920D02*
X275226019Y-143326863D01*
X270683975Y-152486296D02*
X271933970Y-154271472D01*
X270576629Y-152467368D02*
X270683975Y-152486296D01*
X276483319Y-145122470D02*
X277957531Y-145382415D01*
%TO.N,pinky_extra_bottom*%
X267717932Y-171619329D02*
X267717930Y-172066099D01*
X268059517Y-161127849D02*
X269019704Y-161297154D01*
X270871307Y-171619330D02*
X267717932Y-171619329D01*
X274367723Y-163907572D02*
X275202176Y-164742025D01*
X270517946Y-161475436D02*
X272950079Y-163907569D01*
X267717932Y-171619329D02*
X267277315Y-171178712D01*
X272950079Y-163907569D02*
X274367723Y-163907572D01*
X266710290Y-162070372D02*
X267305225Y-161475438D01*
X273356846Y-170342716D02*
X271180110Y-171866879D01*
X267305225Y-161475438D02*
X270517946Y-161475436D01*
X266693697Y-162084203D02*
X268059517Y-161127849D01*
X267717930Y-172066099D02*
X268634656Y-172982824D01*
X271180110Y-171866879D02*
X267277315Y-171178712D01*
X260987632Y-159195471D02*
X263862534Y-162070374D01*
X275202176Y-167288457D02*
X270871307Y-171619330D01*
X260987628Y-159195466D02*
X262491525Y-161343248D01*
X262491525Y-161343248D02*
X266693697Y-162084203D01*
X275202176Y-164742025D02*
X275202176Y-167288457D01*
X263862534Y-162070374D02*
X266710290Y-162070372D01*
%TO.N,3_r0*%
X152822028Y-181513487D02*
X153666399Y-181025987D01*
X156263658Y-192227942D02*
X157809466Y-190682133D01*
X148695155Y-185257529D02*
X152390484Y-183124031D01*
X160373304Y-189715684D02*
X160882848Y-190225225D01*
X146162542Y-184578918D02*
X146162543Y-187879126D01*
X158135752Y-190493751D02*
X158683404Y-189946100D01*
X162803221Y-185167425D02*
X162115461Y-187734186D01*
X150511359Y-192227943D02*
X156263658Y-192227942D01*
X152390484Y-183124031D02*
X152822028Y-181513487D01*
X158683404Y-189946100D02*
X158683402Y-189715684D01*
X146162543Y-187879126D02*
X150511359Y-192227943D01*
X146162544Y-184578916D02*
X148695155Y-185257529D01*
X158683402Y-189715684D02*
X160373304Y-189715684D01*
X157809466Y-190682133D02*
X158135752Y-190493751D01*
X162115461Y-187734186D02*
X158683402Y-189715684D01*
%TO.N,1_r0*%
X198098659Y-170655135D02*
X196923660Y-169480135D01*
X194993154Y-169480131D02*
X195968151Y-169480136D01*
X201810150Y-177635136D02*
X202768150Y-176677137D01*
X202768150Y-176677137D02*
X202768150Y-171829825D01*
X201593462Y-170655136D02*
X198098659Y-170655135D01*
X201810152Y-177635133D02*
X199931158Y-179514137D01*
X187693156Y-168805132D02*
X189547152Y-170659136D01*
X196923660Y-169480135D02*
X195968151Y-169480136D01*
X193814153Y-170659131D02*
X194993154Y-169480131D01*
X202768150Y-171829825D02*
X201593462Y-170655136D01*
X195968151Y-179514137D02*
X196077152Y-179514137D01*
X189547152Y-170659136D02*
X193814153Y-170659131D01*
X196077152Y-179514137D02*
X197618155Y-181055139D01*
X199931158Y-179514137D02*
X195968151Y-179514137D01*
%TO.N,index_bottom*%
X194668155Y-159105135D02*
X194559156Y-159105136D01*
X192618152Y-157964134D02*
X193018153Y-157564132D01*
X194559156Y-159105136D02*
X193018153Y-157564132D01*
X196981152Y-157564135D02*
X193018153Y-157564132D01*
X184358153Y-154695130D02*
X187627157Y-157964133D01*
X184743155Y-146855136D02*
X186597153Y-148709135D01*
X187627157Y-157964133D02*
X192618152Y-157964134D01*
X192043155Y-147530132D02*
X193018154Y-147530135D01*
X186597153Y-148709135D02*
X190864156Y-148709134D01*
X190864156Y-148709134D02*
X192043155Y-147530132D01*
X184358154Y-147240130D02*
X184358153Y-154695130D01*
X198860151Y-155685133D02*
X196981152Y-157564135D01*
X184743153Y-146855131D02*
X184358154Y-147240130D01*
%TO.N,ring_bottom*%
X222114142Y-148497789D02*
X222114140Y-155227003D01*
X230260028Y-148769613D02*
X231232657Y-148837625D01*
X230193918Y-159185989D02*
X230532720Y-158847185D01*
X223024899Y-147587032D02*
X224745057Y-149565848D01*
X234486061Y-159123625D02*
X230532720Y-158847185D01*
X224745057Y-149565848D02*
X229001662Y-149863500D01*
X230532722Y-158961046D02*
X230532720Y-158847185D01*
X223024897Y-147587033D02*
X222114142Y-148497789D01*
X226073125Y-159185989D02*
X230193918Y-159185989D01*
X222114140Y-155227003D02*
X226073125Y-159185989D01*
X232071202Y-160499527D02*
X230532722Y-158961046D01*
X236491563Y-157380274D02*
X234486061Y-159123625D01*
X229001662Y-149863500D02*
X230260028Y-148769613D01*
%TO.N,2_r0*%
X174621567Y-183434845D02*
X174978799Y-183077610D01*
X174978799Y-183077610D02*
X175735505Y-183077612D01*
X181811645Y-178831097D02*
X180482986Y-181132391D01*
X165890299Y-179815677D02*
X169870407Y-183795785D01*
X169870407Y-183795785D02*
X173336059Y-183795785D01*
X168160973Y-175266697D02*
X172282579Y-174162318D01*
X173336059Y-183795785D02*
X174170548Y-183313993D01*
X172282579Y-174162318D02*
X173116253Y-172718342D01*
X175735505Y-183077612D02*
X176655025Y-182158092D01*
X165890296Y-173955722D02*
X168160973Y-175266697D01*
X180482986Y-181132391D02*
X176655025Y-182158092D01*
X178647642Y-183219535D02*
X177716468Y-183219536D01*
X174170548Y-183313993D02*
X174621567Y-183434845D01*
X173116253Y-172718342D02*
X174058032Y-172465996D01*
X165890301Y-173955723D02*
X165890299Y-179815677D01*
X177716468Y-183219536D02*
X176655025Y-182158092D01*
%TO.N,middle_bottom*%
X203358152Y-145695140D02*
X206627142Y-148964132D01*
X205597151Y-139709138D02*
X209864151Y-139709135D01*
X213559153Y-150105134D02*
X212018152Y-148564134D01*
X203743153Y-137855140D02*
X203358152Y-138240140D01*
X209864151Y-139709135D02*
X211043155Y-138530132D01*
X203743153Y-137855135D02*
X205597151Y-139709138D01*
X217860155Y-146685138D02*
X215981157Y-148564137D01*
X211043155Y-138530132D02*
X212018151Y-138530134D01*
X203358152Y-138240140D02*
X203358152Y-145695140D01*
X206627142Y-148964132D02*
X211618154Y-148964131D01*
X213668158Y-150105135D02*
X213559153Y-150105134D01*
X215981157Y-148564137D02*
X212018152Y-148564134D01*
X211618154Y-148964131D02*
X212018152Y-148564134D01*
%TO.N,4_r0*%
X143249659Y-201671861D02*
X143326732Y-201594785D01*
X146051925Y-198869596D02*
X143249659Y-201671861D01*
X133679156Y-205642453D02*
X139844746Y-205642454D01*
X135465121Y-195266181D02*
X136154550Y-194576752D01*
X129825943Y-201789242D02*
X133679156Y-205642453D01*
X129825944Y-199950763D02*
X129825943Y-201789242D01*
X132447897Y-199950764D02*
X135465122Y-196933535D01*
X139844746Y-205642454D02*
X143249658Y-202237540D01*
X143326732Y-201594785D02*
X145506041Y-201594787D01*
X135465122Y-196933535D02*
X135465121Y-195266181D01*
X129825943Y-199950759D02*
X132447897Y-199950764D01*
X146051923Y-196212290D02*
X146051925Y-198869596D01*
X143249658Y-202237540D02*
X143249659Y-201671861D01*
%TO.N,inner_home*%
X165358153Y-139695132D02*
X168627154Y-142964134D01*
X167597151Y-133709134D02*
X171864154Y-133709135D01*
X177981153Y-142564135D02*
X174018154Y-142564136D01*
X165358153Y-132240132D02*
X165358153Y-139695132D01*
X171864154Y-133709135D02*
X173043151Y-132530134D01*
X174018154Y-142564136D02*
X174127159Y-142564137D01*
X168627154Y-142964134D02*
X173618155Y-142964133D01*
X173618155Y-142964133D02*
X174018154Y-142564136D01*
X179860152Y-140685133D02*
X177981153Y-142564135D01*
X173043151Y-132530134D02*
X174018150Y-132530135D01*
X165743153Y-131855135D02*
X167597151Y-133709134D01*
X174127159Y-142564137D02*
X175668153Y-144105134D01*
X165743153Y-131855133D02*
X165358153Y-132240132D01*
%TO.N,pinky_bottom*%
X251600522Y-173491608D02*
X247697729Y-172803439D01*
X239715024Y-162513207D02*
X239715025Y-168797809D01*
X239715025Y-168797809D02*
X243955614Y-173038397D01*
X247697729Y-172803439D02*
X247697729Y-173250207D01*
X247114109Y-163708927D02*
X248479927Y-162752572D01*
X253777260Y-171967438D02*
X251600522Y-173491608D01*
X248479927Y-162752572D02*
X249440115Y-162921878D01*
X243955614Y-173038397D02*
X247462772Y-173038398D01*
X247462772Y-173038398D02*
X247697729Y-172803439D01*
X242911929Y-162967972D02*
X247114109Y-163708927D01*
X241408046Y-160820196D02*
X242911929Y-162967972D01*
X247697729Y-173250207D02*
X249055070Y-174607547D01*
X241408040Y-160820192D02*
X239715024Y-162513207D01*
%TO.N,pinky_home*%
X252354384Y-155896199D02*
X252247040Y-155877271D01*
X258305449Y-151803711D02*
X254224552Y-154661185D01*
X244707360Y-142108848D02*
X246694700Y-144947065D01*
X257076577Y-153256091D02*
X254899837Y-154780259D01*
X254224552Y-154661185D02*
X250997040Y-154092087D01*
X258377946Y-147007136D02*
X258995661Y-147889325D01*
X251537784Y-144227119D02*
X255646432Y-144951586D01*
X258995661Y-147889325D02*
X258305449Y-151803711D01*
X255646432Y-144951586D02*
X256903729Y-146747191D01*
X250413419Y-144997580D02*
X251779244Y-144041224D01*
X254899837Y-154780259D02*
X250997040Y-154092087D01*
X256903729Y-146747191D02*
X258377946Y-147007136D01*
X251779244Y-144041224D02*
X252739431Y-144210530D01*
X244707365Y-142108848D02*
X246211249Y-144256623D01*
X249742176Y-145484416D02*
X251537784Y-144227119D01*
X246211249Y-144256623D02*
X250413419Y-144997580D01*
X246694700Y-144947065D02*
X249742176Y-145484416D01*
X252247040Y-155877271D02*
X250997040Y-154092087D01*
%TO.N,index_top*%
X187627150Y-119964134D02*
X192618158Y-119964133D01*
X192618158Y-119964133D02*
X193018153Y-119564138D01*
X184358153Y-109240137D02*
X184358153Y-116695136D01*
X192043155Y-109530134D02*
X193018152Y-109530136D01*
X193127160Y-119564138D02*
X193018153Y-119564138D01*
X190864157Y-110709134D02*
X192043155Y-109530134D01*
X194668155Y-121105133D02*
X193127160Y-119564138D01*
X186597154Y-110709136D02*
X190864157Y-110709134D01*
X184743152Y-108855135D02*
X186597154Y-110709136D01*
X184358153Y-116695136D02*
X187627150Y-119964134D01*
X196981156Y-119564136D02*
X193018153Y-119564138D01*
X198860155Y-117685128D02*
X196981156Y-119564136D01*
X184743153Y-108855136D02*
X184358153Y-109240137D01*
%TO.N,inner_bottom*%
X165743155Y-150855133D02*
X167597154Y-152709138D01*
X165358151Y-158695134D02*
X168627149Y-161964132D01*
X177981157Y-161564134D02*
X174018153Y-161564134D01*
X171864154Y-152709134D02*
X173043155Y-151530137D01*
X167597154Y-152709138D02*
X171864154Y-152709134D01*
X173618156Y-161964132D02*
X174018153Y-161564134D01*
X165358154Y-151240134D02*
X165358151Y-158695134D01*
X174127156Y-161564134D02*
X175668156Y-163105135D01*
X168627149Y-161964132D02*
X173618156Y-161964132D01*
X165743152Y-150855134D02*
X165358154Y-151240134D01*
X174018153Y-161564134D02*
X174127156Y-161564134D01*
X173043155Y-151530137D02*
X174018156Y-151530134D01*
X179860153Y-159685135D02*
X177981157Y-161564134D01*
%TO.N,DISP1_1*%
D65*
X144938154Y-137305138D02*
X144938153Y-135555139D01*
%TO.N,DISP1_2*%
X147478152Y-137305130D02*
X147478153Y-135555132D01*
%TO.N,DISP1_4*%
X152558153Y-137305136D02*
X152558154Y-135555133D01*
%TO.N,DISP1_5*%
X155098150Y-137305134D02*
X155098158Y-135555139D01*
%TD*%
M02*
