M48
; DRILL file KiCad 10.0.4 date 2026-08-20T21:04:29
; FORMAT={-:-/ absolute / metric / decimal}
; #@! TF.CreationDate,2026-08-20T21:04:29-06:00
; #@! TF.GenerationSoftware,Kicad,Pcbnew,10.0.4
; #@! TF.FileFunction,NonPlated,1,2,NPTH
FMAT,2
METRIC
; #@! TA.AperFunction,NonPlated,NPTH,ComponentDrill
T1C0.900
; #@! TA.AperFunction,NonPlated,NPTH,ComponentDrill
T2C1.200
; #@! TA.AperFunction,NonPlated,NPTH,ComponentDrill
T3C1.900
; #@! TA.AperFunction,NonPlated,NPTH,ComponentDrill
T4C2.200
; #@! TA.AperFunction,NonPlated,NPTH,ComponentDrill
T5C3.000
; #@! TA.AperFunction,NonPlated,NPTH,ComponentDrill
T6C4.100
; #@! TA.AperFunction,NonPlated,NPTH,ComponentDrill
T7C5.000
%
G90
G05
T1
X135.256Y-107.505
X135.256Y-110.505
T2
X135.276Y-173.975
X135.276Y-172.225
X142.276Y-173.975
X142.276Y-172.225
T3
X134.44Y-200.64
X134.737Y-200.343
X141.921Y-193.159
X142.218Y-192.862
X150.441Y-186.439
X150.804Y-186.229
X159.603Y-181.149
X159.967Y-180.939
X168.518Y-154.605
X168.518Y-135.605
X168.518Y-116.605
X168.938Y-154.605
X168.938Y-135.605
X168.938Y-116.605
X169.541Y-176.86
X169.947Y-176.751
X179.098Y-154.605
X179.098Y-135.605
X179.098Y-116.605
X179.518Y-154.605
X179.518Y-135.605
X179.518Y-116.605
X179.761Y-174.121
X180.166Y-174.013
X187.518Y-112.605
X187.518Y-150.605
X187.518Y-131.605
X187.938Y-112.605
X187.938Y-150.605
X187.938Y-131.605
X190.468Y-172.555
X190.888Y-172.555
X198.098Y-112.605
X198.098Y-150.605
X198.098Y-131.605
X198.518Y-112.605
X198.518Y-150.605
X198.518Y-131.605
X201.048Y-172.555
X201.468Y-172.555
X206.518Y-103.605
X206.518Y-141.605
X206.518Y-122.605
X206.938Y-103.605
X206.938Y-141.605
X206.938Y-122.605
X217.098Y-103.605
X217.098Y-141.605
X217.098Y-122.605
X217.518Y-103.605
X217.518Y-141.605
X217.518Y-122.605
X225.532Y-151.521
X225.951Y-151.551
X226.857Y-132.568
X227.276Y-132.597
X228.182Y-113.614
X228.601Y-113.643
X236.086Y-152.259
X236.505Y-152.289
X237.411Y-133.306
X237.83Y-133.335
X238.737Y-114.352
X239.156Y-114.381
X243.49Y-164.995
X243.903Y-165.068
X246.789Y-146.284
X247.203Y-146.357
X250.088Y-127.572
X250.502Y-127.645
X253.909Y-166.832
X254.323Y-166.905
X257.208Y-148.121
X257.622Y-148.194
X260.508Y-129.41
X260.921Y-129.483
X263.069Y-163.37
X263.483Y-163.443
X266.369Y-144.659
X266.782Y-144.732
X273.489Y-165.208
X273.902Y-165.281
X276.788Y-146.496
X277.201Y-146.569
T4
X136.27Y-100.722
X136.27Y-180.007
X198.35Y-100.722
X220.19Y-131.096
X220.486Y-164.859
X227.1Y-100.722
X232.015Y-166.427
X241.94Y-101.732
X246.984Y-119.938
T5
X132.142Y-197.635
X134.122Y-192.544
X137.431Y-201.241
X139.213Y-190.564
X140.125Y-202.139
X142.819Y-195.853
X143.717Y-198.547
X148.999Y-182.941
X152.229Y-178.536
X153.174Y-187.794
X155.544Y-189.358
X157.659Y-177.941
X159.773Y-183.984
X159.944Y-186.818
X169.018Y-150.855
X169.018Y-131.855
X169.018Y-112.855
X169.054Y-173.108
X170.208Y-157.145
X170.208Y-138.145
X170.208Y-119.145
X171.478Y-159.685
X171.478Y-140.685
X171.478Y-121.685
X171.831Y-178.876
X173.314Y-169.689
X173.715Y-181.001
X174.018Y-148.655
X174.018Y-129.655
X174.018Y-110.655
X176.558Y-159.685
X176.558Y-140.685
X176.558Y-121.685
X177.828Y-157.145
X177.828Y-138.145
X177.828Y-119.145
X178.622Y-179.686
X178.713Y-170.52
X179.018Y-150.855
X179.018Y-131.855
X179.018Y-112.855
X179.191Y-176.904
X188.018Y-108.855
X188.018Y-146.855
X188.018Y-127.855
X189.208Y-115.145
X189.208Y-153.145
X189.208Y-134.145
X190.478Y-117.685
X190.478Y-155.685
X190.478Y-136.685
X190.968Y-168.805
X192.158Y-175.095
X193.018Y-106.655
X193.018Y-144.655
X193.018Y-125.655
X193.428Y-177.635
X195.558Y-117.685
X195.558Y-155.685
X195.558Y-136.685
X195.968Y-166.605
X196.828Y-115.145
X196.828Y-153.145
X196.828Y-134.145
X198.018Y-108.855
X198.018Y-146.855
X198.018Y-127.855
X198.508Y-177.635
X199.778Y-175.095
X200.968Y-168.805
X207.018Y-99.855
X207.018Y-137.855
X207.018Y-118.855
X208.208Y-106.145
X208.208Y-144.145
X208.208Y-125.145
X209.478Y-108.685
X209.478Y-146.685
X209.478Y-127.685
X212.018Y-97.655
X212.018Y-135.655
X212.018Y-116.655
X214.558Y-108.685
X214.558Y-146.685
X214.558Y-127.685
X215.828Y-106.145
X215.828Y-144.145
X215.828Y-125.145
X217.018Y-99.855
X217.018Y-137.855
X217.018Y-118.855
X226.292Y-147.815
X227.04Y-154.173
X227.617Y-128.862
X228.13Y-156.796
X228.366Y-135.219
X228.943Y-109.908
X229.455Y-137.842
X229.691Y-116.266
X230.781Y-118.888
X231.433Y-145.97
X232.759Y-127.016
X233.198Y-157.15
X234.084Y-108.062
X234.523Y-138.196
X234.642Y-154.705
X235.848Y-119.243
X235.967Y-135.751
X236.268Y-148.513
X237.292Y-116.797
X237.593Y-129.559
X238.918Y-110.606
X244.633Y-161.389
X244.713Y-167.79
X245.523Y-170.512
X247.933Y-142.678
X248.012Y-149.079
X248.822Y-151.801
X249.939Y-160.091
X250.525Y-171.394
X251.232Y-123.966
X251.312Y-130.367
X252.121Y-133.089
X252.217Y-169.113
X253.239Y-141.379
X253.825Y-152.683
X254.481Y-163.125
X255.517Y-150.402
X256.538Y-122.668
X257.124Y-133.971
X257.781Y-144.414
X258.816Y-131.69
X261.08Y-125.703
X264.213Y-159.764
X264.293Y-166.165
X265.102Y-168.887
X267.512Y-141.053
X267.592Y-147.454
X268.402Y-150.176
X269.519Y-158.466
X270.105Y-169.769
X271.797Y-167.488
X272.818Y-139.754
X273.404Y-151.058
X274.061Y-161.501
X275.096Y-148.777
X277.36Y-142.789
T6
X138.329Y-196.751
X155.204Y-183.689
X174.018Y-154.605
X174.018Y-135.605
X174.018Y-116.605
X174.854Y-175.436
X193.018Y-112.605
X193.018Y-150.605
X193.018Y-131.605
X195.968Y-172.555
X212.018Y-103.605
X212.018Y-141.605
X212.018Y-122.605
X231.018Y-151.905
X232.344Y-132.951
X233.669Y-113.998
X248.906Y-165.95
X252.205Y-147.239
X255.505Y-128.527
X268.486Y-164.325
X271.785Y-145.614
T7
X138.329Y-196.751
X155.204Y-183.689
X174.018Y-154.605
X174.018Y-135.605
X174.018Y-116.605
X174.854Y-175.436
X193.018Y-112.605
X193.018Y-150.605
X193.018Y-131.605
X195.968Y-172.555
X212.018Y-103.605
X212.018Y-141.605
X212.018Y-122.605
X231.018Y-151.905
X232.344Y-132.951
X233.669Y-113.998
X248.906Y-165.95
X252.205Y-147.239
X255.505Y-128.527
X268.486Y-164.325
X271.785Y-145.614
M30
