%TF.GenerationSoftware,KiCad,Pcbnew,10.0.4*%
%TF.CreationDate,2026-08-20T21:04:31-06:00*%
%TF.ProjectId,KLON -nice_view - Copy,4b4c4f4e-202d-46e6-9963-655f76696577,v1.0.0*%
%TF.SameCoordinates,Original*%
%TF.FileFunction,Copper,L2,Bot*%
%TF.FilePolarity,Positive*%
%FSLAX46Y46*%
G04 Gerber Fmt 4.6, Leading zero omitted, Abs format (unit mm)*
G04 Created by KiCad (PCBNEW 10.0.4) date 2026-08-20 21:04:31*
%MOMM*%
%LPD*%
G01*
G04 APERTURE LIST*
G04 Aperture macros list*
%AMRotRect*
0 Rectangle, with rotation*
0 The origin of the aperture is its center*
0 $1 length*
0 $2 width*
0 $3 Rotation angle, in degrees counterclockwise*
0 Add horizontal line*
21,1,$1,$2,0,0,$3*%
%AMOutline5P*
0 Free polygon, 5 corners , with rotation*
0 The origin of the aperture is its center*
0 number of corners: always 5*
0 $1 to $10 corner X, Y*
0 $11 Rotation angle, in degrees counterclockwise*
0 create outline with 5 corners*
4,1,5,$1,$2,$3,$4,$5,$6,$7,$8,$9,$10,$1,$2,$11*%
%AMOutline6P*
0 Free polygon, 6 corners , with rotation*
0 The origin of the aperture is its center*
0 number of corners: always 6*
0 $1 to $12 corner X, Y*
0 $13 Rotation angle, in degrees counterclockwise*
0 create outline with 6 corners*
4,1,6,$1,$2,$3,$4,$5,$6,$7,$8,$9,$10,$11,$12,$1,$2,$13*%
%AMOutline7P*
0 Free polygon, 7 corners , with rotation*
0 The origin of the aperture is its center*
0 number of corners: always 7*
0 $1 to $14 corner X, Y*
0 $15 Rotation angle, in degrees counterclockwise*
0 create outline with 7 corners*
4,1,7,$1,$2,$3,$4,$5,$6,$7,$8,$9,$10,$11,$12,$13,$14,$1,$2,$15*%
%AMOutline8P*
0 Free polygon, 8 corners , with rotation*
0 The origin of the aperture is its center*
0 number of corners: always 8*
0 $1 to $16 corner X, Y*
0 $17 Rotation angle, in degrees counterclockwise*
0 create outline with 8 corners*
4,1,8,$1,$2,$3,$4,$5,$6,$7,$8,$9,$10,$11,$12,$13,$14,$15,$16,$1,$2,$17*%
%AMFreePoly0*
4,1,6,0.500000,-0.625000,-0.650000,-0.625000,-0.150000,0.000000,-0.650000,0.625000,0.500000,0.625000,0.500000,-0.625000,0.500000,-0.625000,$1*%
%AMFreePoly1*
4,1,6,0.250000,0.000000,-0.250000,-0.625000,-0.500000,-0.625000,-0.500000,0.625000,-0.250000,0.625000,0.250000,0.000000,0.250000,0.000000,$1*%
%AMFreePoly2*
4,1,6,0.600000,-1.000000,0.000000,-0.400000,-0.600000,-1.000000,-0.600000,0.250000,0.600000,0.250000,0.600000,-1.000000,0.600000,-1.000000,$1*%
%AMFreePoly3*
4,1,6,0.600000,-0.200000,0.600000,-0.400000,-0.600000,-0.400000,-0.600000,-0.200000,0.000000,0.400000,0.600000,-0.200000,0.600000,-0.200000,$1*%
G04 Aperture macros list end*
%TA.AperFunction,SMDPad,CuDef*%
%ADD10FreePoly0,180.000000*%
%TD*%
%TA.AperFunction,ComponentPad*%
%ADD11C,0.800000*%
%TD*%
%TA.AperFunction,SMDPad,CuDef*%
%ADD12FreePoly0,0.000000*%
%TD*%
%TA.AperFunction,SMDPad,CuDef*%
%ADD13FreePoly1,0.000000*%
%TD*%
%TA.AperFunction,ComponentPad*%
%ADD14C,1.700000*%
%TD*%
%TA.AperFunction,SMDPad,CuDef*%
%ADD15FreePoly1,180.000000*%
%TD*%
%TA.AperFunction,ComponentPad*%
%ADD16C,0.600000*%
%TD*%
%TA.AperFunction,SMDPad,CuDef*%
%ADD17RotRect,0.900000X1.200000X356.000000*%
%TD*%
%TA.AperFunction,SMDPad,CuDef*%
%ADD18FreePoly2,270.000000*%
%TD*%
%TA.AperFunction,ComponentPad*%
%ADD19O,1.750000X1.200000*%
%TD*%
%TA.AperFunction,SMDPad,CuDef*%
%ADD20FreePoly3,270.000000*%
%TD*%
%TA.AperFunction,ComponentPad*%
%ADD21O,1.600000X2.000000*%
%TD*%
%TA.AperFunction,SMDPad,CuDef*%
%ADD22R,0.900000X1.200000*%
%TD*%
%TA.AperFunction,SMDPad,CuDef*%
%ADD23RotRect,0.900000X1.200000X350.000000*%
%TD*%
%TA.AperFunction,ComponentPad*%
%ADD24C,3.800000*%
%TD*%
%TA.AperFunction,SMDPad,CuDef*%
%ADD25FreePoly1,270.000000*%
%TD*%
%TA.AperFunction,SMDPad,CuDef*%
%ADD26FreePoly0,270.000000*%
%TD*%
%TA.AperFunction,SMDPad,CuDef*%
%ADD27RotRect,0.900000X1.200000X30.000000*%
%TD*%
%TA.AperFunction,ComponentPad*%
%ADD28C,2.000000*%
%TD*%
%TA.AperFunction,ComponentPad*%
%ADD29R,3.200000X2.000000*%
%TD*%
%TA.AperFunction,SMDPad,CuDef*%
%ADD30RotRect,0.900000X1.200000X15.000000*%
%TD*%
%TA.AperFunction,ComponentPad*%
%ADD31O,2.500000X1.700000*%
%TD*%
%TA.AperFunction,SMDPad,CuDef*%
%ADD32R,1.000000X1.550000*%
%TD*%
%TA.AperFunction,SMDPad,CuDef*%
%ADD33RotRect,0.900000X1.200000X45.000000*%
%TD*%
%TA.AperFunction,SMDPad,CuDef*%
%ADD34R,0.800000X1.000000*%
%TD*%
%TA.AperFunction,SMDPad,CuDef*%
%ADD35R,1.500000X0.700000*%
%TD*%
%TA.AperFunction,ComponentPad*%
%ADD36O,1.700000X1.700000*%
%TD*%
%TA.AperFunction,SMDPad,CuDef*%
%ADD37R,1.200000X0.600000*%
%TD*%
%TA.AperFunction,SMDPad,CuDef*%
%ADD38Outline5P,-1.300000X1.300000X1.300000X1.300000X1.300000X-1.300000X-0.117000X-1.300000X-1.300000X-0.117000X350.000000*%
%TD*%
%TA.AperFunction,SMDPad,CuDef*%
%ADD39RotRect,2.600000X2.600000X350.000000*%
%TD*%
%TA.AperFunction,SMDPad,CuDef*%
%ADD40RotRect,2.550000X2.500000X170.000000*%
%TD*%
%TA.AperFunction,SMDPad,CuDef*%
%ADD41Outline5P,-1.275000X1.250000X1.275000X1.250000X1.275000X-1.250000X-0.775000X-1.250000X-1.275000X-0.750000X170.000000*%
%TD*%
%TA.AperFunction,SMDPad,CuDef*%
%ADD42RotRect,2.550000X2.500000X225.000000*%
%TD*%
%TA.AperFunction,SMDPad,CuDef*%
%ADD43Outline5P,-1.275000X1.250000X1.275000X1.250000X1.275000X-1.250000X-0.775000X-1.250000X-1.275000X-0.750000X225.000000*%
%TD*%
%TA.AperFunction,SMDPad,CuDef*%
%ADD44Outline5P,-1.300000X1.300000X1.300000X1.300000X1.300000X-1.300000X-0.117000X-1.300000X-1.300000X-0.117000X0.000000*%
%TD*%
%TA.AperFunction,SMDPad,CuDef*%
%ADD45Outline5P,-1.300000X1.300000X1.300000X1.300000X1.300000X0.780000X-0.780000X-1.300000X-1.300000X-1.300000X0.000000*%
%TD*%
%TA.AperFunction,SMDPad,CuDef*%
%ADD46R,2.600000X2.600000*%
%TD*%
%TA.AperFunction,SMDPad,CuDef*%
%ADD47R,2.550000X2.500000*%
%TD*%
%TA.AperFunction,SMDPad,CuDef*%
%ADD48Outline5P,-1.275000X1.250000X1.275000X1.250000X1.275000X-1.250000X-0.775000X-1.250000X-1.275000X-0.750000X180.000000*%
%TD*%
%TA.AperFunction,SMDPad,CuDef*%
%ADD49Outline5P,-1.275000X0.250000X-0.275000X1.250000X1.275000X1.250000X1.275000X-1.250000X-1.275000X-1.250000X180.000000*%
%TD*%
%TA.AperFunction,SMDPad,CuDef*%
%ADD50Outline5P,-1.300000X1.300000X1.300000X1.300000X1.300000X-1.300000X-0.117000X-1.300000X-1.300000X-0.117000X30.000000*%
%TD*%
%TA.AperFunction,SMDPad,CuDef*%
%ADD51RotRect,2.600000X2.600000X30.000000*%
%TD*%
%TA.AperFunction,SMDPad,CuDef*%
%ADD52Outline5P,-1.300000X1.300000X1.300000X1.300000X1.300000X-1.300000X-0.117000X-1.300000X-1.300000X-0.117000X356.000000*%
%TD*%
%TA.AperFunction,SMDPad,CuDef*%
%ADD53RotRect,2.600000X2.600000X356.000000*%
%TD*%
%TA.AperFunction,SMDPad,CuDef*%
%ADD54RotRect,2.550000X2.500000X210.000000*%
%TD*%
%TA.AperFunction,SMDPad,CuDef*%
%ADD55Outline5P,-1.275000X1.250000X1.275000X1.250000X1.275000X-1.250000X-0.775000X-1.250000X-1.275000X-0.750000X210.000000*%
%TD*%
%TA.AperFunction,SMDPad,CuDef*%
%ADD56Outline5P,-1.300000X1.300000X1.300000X1.300000X1.300000X-1.300000X-0.117000X-1.300000X-1.300000X-0.117000X45.000000*%
%TD*%
%TA.AperFunction,SMDPad,CuDef*%
%ADD57RotRect,2.600000X2.600000X45.000000*%
%TD*%
%TA.AperFunction,SMDPad,CuDef*%
%ADD58RotRect,2.550000X2.500000X176.000000*%
%TD*%
%TA.AperFunction,SMDPad,CuDef*%
%ADD59Outline5P,-1.275000X1.250000X1.275000X1.250000X1.275000X-1.250000X-0.775000X-1.250000X-1.275000X-0.750000X176.000000*%
%TD*%
%TA.AperFunction,SMDPad,CuDef*%
%ADD60Outline5P,-1.300000X1.300000X1.300000X1.300000X1.300000X-1.300000X-0.117000X-1.300000X-1.300000X-0.117000X15.000000*%
%TD*%
%TA.AperFunction,SMDPad,CuDef*%
%ADD61RotRect,2.600000X2.600000X15.000000*%
%TD*%
%TA.AperFunction,SMDPad,CuDef*%
%ADD62RotRect,2.550000X2.500000X195.000000*%
%TD*%
%TA.AperFunction,SMDPad,CuDef*%
%ADD63Outline5P,-1.275000X1.250000X1.275000X1.250000X1.275000X-1.250000X-0.775000X-1.250000X-1.275000X-0.750000X195.000000*%
%TD*%
%TA.AperFunction,ViaPad*%
%ADD64C,0.600000*%
%TD*%
%TA.AperFunction,Conductor*%
%ADD65C,0.200000*%
%TD*%
%TA.AperFunction,Conductor*%
%ADD66C,0.250000*%
%TD*%
G04 APERTURE END LIST*
D10*
%TO.P,MCU1,124*%
%TO.N,RAW*%
X154793149Y-102905133D03*
D11*
X146618152Y-102905132D03*
D10*
%TO.P,MCU1,123*%
%TO.N,GND*%
X154793149Y-105445134D03*
D11*
X146618150Y-105445132D03*
D10*
%TO.P,MCU1,122*%
%TO.N,RST*%
X154793149Y-107985134D03*
D11*
X146618148Y-107985134D03*
D10*
%TO.P,MCU1,121*%
%TO.N,VCC*%
X154793148Y-110525133D03*
D11*
X146618148Y-110525133D03*
D10*
%TO.P,MCU1,120*%
%TO.N,CS*%
X154793149Y-113065134D03*
D11*
X146618150Y-113065134D03*
D10*
%TO.P,MCU1,119*%
%TO.N,SCK*%
X154793149Y-115605134D03*
D11*
X146618148Y-115605133D03*
D10*
%TO.P,MCU1,118*%
%TO.N,MOSI*%
X154793149Y-118145133D03*
D11*
X146618149Y-118145134D03*
D10*
%TO.P,MCU1,117*%
%TO.N,P18*%
X154793148Y-120685135D03*
D11*
X146618149Y-120685134D03*
D10*
%TO.P,MCU1,116*%
%TO.N,P15*%
X154793151Y-123225134D03*
D11*
X146618149Y-123225134D03*
D10*
%TO.P,MCU1,115*%
%TO.N,P14*%
X154793149Y-125765134D03*
D11*
X146618150Y-125765136D03*
D10*
%TO.P,MCU1,114*%
%TO.N,P16*%
X154793149Y-128305135D03*
D11*
X146618149Y-128305133D03*
D10*
%TO.P,MCU1,113*%
%TO.N,P10*%
X154793151Y-130845134D03*
D11*
X146618149Y-130845134D03*
%TO.P,MCU1,112*%
%TO.N,row4*%
X153418149Y-130845134D03*
D12*
X145243147Y-130845133D03*
D11*
%TO.P,MCU1,111*%
%TO.N,row3*%
X153418146Y-128305136D03*
D12*
X145243149Y-128305135D03*
D11*
%TO.P,MCU1,110*%
%TO.N,row2*%
X153418148Y-125765136D03*
D12*
X145243149Y-125765134D03*
D11*
%TO.P,MCU1,109*%
%TO.N,row1*%
X153418150Y-123225134D03*
D12*
X145243149Y-123225134D03*
D11*
%TO.P,MCU1,108*%
%TO.N,col6*%
X153418150Y-120685135D03*
D12*
X145243150Y-120685135D03*
D11*
%TO.P,MCU1,107*%
%TO.N,col5*%
X153418148Y-118145134D03*
D12*
X145243149Y-118145134D03*
D11*
%TO.P,MCU1,106*%
%TO.N,col4*%
X153418150Y-115605135D03*
D12*
X145243149Y-115605134D03*
D11*
%TO.P,MCU1,105*%
%TO.N,col3*%
X153418149Y-113065134D03*
D12*
X145243149Y-113065135D03*
D11*
%TO.P,MCU1,104*%
%TO.N,GND*%
X153418149Y-110525134D03*
D12*
X145243150Y-110525133D03*
D11*
%TO.P,MCU1,103*%
X153418149Y-107985134D03*
D12*
X145243147Y-107985134D03*
D11*
%TO.P,MCU1,102*%
%TO.N,col2*%
X153418148Y-105445132D03*
D12*
X145243149Y-105445134D03*
D11*
%TO.P,MCU1,101*%
%TO.N,col1*%
X153418149Y-102905135D03*
D12*
X145243149Y-102905133D03*
D13*
%TO.P,MCU1,24*%
%TO.N,MCU1_24*%
X144518149Y-102905135D03*
D14*
X142398149Y-102905134D03*
D13*
%TO.P,MCU1,23*%
%TO.N,MCU1_23*%
X144518149Y-105445134D03*
D14*
X142398148Y-105445133D03*
D13*
%TO.P,MCU1,22*%
%TO.N,MCU1_22*%
X144518148Y-107985133D03*
D14*
X142398149Y-107985134D03*
D13*
%TO.P,MCU1,21*%
%TO.N,MCU1_21*%
X144518149Y-110525134D03*
D14*
X142398149Y-110525134D03*
D13*
%TO.P,MCU1,20*%
%TO.N,MCU1_20*%
X144518150Y-113065133D03*
D14*
X142398151Y-113065134D03*
D13*
%TO.P,MCU1,19*%
%TO.N,MCU1_19*%
X144518149Y-115605134D03*
D14*
X142398149Y-115605134D03*
D13*
%TO.P,MCU1,18*%
%TO.N,MCU1_18*%
X144518147Y-118145133D03*
D14*
X142398149Y-118145135D03*
D13*
%TO.P,MCU1,17*%
%TO.N,MCU1_17*%
X144518149Y-120685134D03*
D14*
X142398150Y-120685134D03*
D13*
%TO.P,MCU1,16*%
%TO.N,MCU1_16*%
X144518148Y-123225135D03*
D14*
X142398149Y-123225134D03*
D13*
%TO.P,MCU1,15*%
%TO.N,MCU1_15*%
X144518149Y-125765134D03*
D14*
X142398148Y-125765135D03*
D13*
%TO.P,MCU1,14*%
%TO.N,MCU1_14*%
X144518149Y-128305133D03*
D14*
X142398149Y-128305134D03*
D13*
%TO.P,MCU1,13*%
%TO.N,MCU1_13*%
X144518148Y-130845133D03*
D14*
X142398149Y-130845134D03*
%TO.P,MCU1,12*%
%TO.N,MCU1_12*%
X157638149Y-130845134D03*
D15*
X155518150Y-130845132D03*
D14*
%TO.P,MCU1,11*%
%TO.N,MCU1_11*%
X157638149Y-128305134D03*
D15*
X155518149Y-128305133D03*
D14*
%TO.P,MCU1,10*%
%TO.N,MCU1_10*%
X157638150Y-125765135D03*
D15*
X155518149Y-125765134D03*
D14*
%TO.P,MCU1,9*%
%TO.N,MCU1_9*%
X157638149Y-123225134D03*
D15*
X155518150Y-123225135D03*
D14*
%TO.P,MCU1,8*%
%TO.N,MCU1_8*%
X157638149Y-120685134D03*
D15*
X155518149Y-120685134D03*
D14*
%TO.P,MCU1,7*%
%TO.N,MCU1_7*%
X157638147Y-118145134D03*
D15*
X155518148Y-118145135D03*
D14*
%TO.P,MCU1,6*%
%TO.N,MCU1_6*%
X157638149Y-115605134D03*
D15*
X155518149Y-115605134D03*
D14*
%TO.P,MCU1,5*%
%TO.N,MCU1_5*%
X157638149Y-113065133D03*
D15*
X155518151Y-113065135D03*
D14*
%TO.P,MCU1,4*%
%TO.N,MCU1_4*%
X157638148Y-110525134D03*
D15*
X155518149Y-110525134D03*
D14*
%TO.P,MCU1,3*%
%TO.N,MCU1_3*%
X157638149Y-107985134D03*
D15*
X155518150Y-107985133D03*
D14*
%TO.P,MCU1,2*%
%TO.N,MCU1_2*%
X157638150Y-105445133D03*
D15*
X155518149Y-105445134D03*
D14*
%TO.P,MCU1,1*%
%TO.N,MCU1_1*%
X157638149Y-102905134D03*
D15*
X155518149Y-102905135D03*
%TD*%
D16*
%TO.P,D11,1*%
%TO.N,row2*%
X230104616Y-141315615D03*
D17*
%TO.P,D11,1,row2*%
X230104616Y-141315615D03*
D16*
%TO.P,D11,1*%
%TO.N,ring_home*%
X233396578Y-141545811D03*
D17*
%TO.P,D11,2*%
X233396578Y-141545811D03*
%TD*%
D16*
%TO.P,D12,1*%
%TO.N,row1*%
X231429988Y-122361896D03*
D17*
X231429988Y-122361896D03*
D16*
%TO.N,ring_top*%
X234721950Y-122592092D03*
D17*
%TO.P,D12,2*%
X234721950Y-122592092D03*
%TD*%
D18*
%TO.P,JST1,1*%
%TO.N,BAT_P*%
X138116152Y-147730134D03*
%TO.P,JST1,2*%
%TO.N,GND*%
X138116152Y-149730134D03*
D19*
%TO.P,JST1,11*%
%TO.N,JST1_1*%
X135300152Y-149730134D03*
%TO.P,JST1,12*%
%TO.N,JST1_2*%
X135300152Y-147730134D03*
D20*
%TO.P,JST1,31*%
%TO.N,JST1_1*%
X137100153Y-149730133D03*
%TO.P,JST1,32*%
%TO.N,JST1_2*%
X137100153Y-147730135D03*
%TD*%
D21*
%TO.P,SSD1306,1*%
%TO.N,dis1-pad4*%
X153238152Y-143405134D03*
%TO.P,SSD1306,2*%
%TO.N,dis1-pad3*%
X150698152Y-143405134D03*
%TO.P,SSD1306,3*%
%TO.N,dis1-pad2*%
X148158152Y-143405136D03*
%TO.P,SSD1306,4*%
%TO.N,dis1-pad1*%
X145618152Y-143405134D03*
%TD*%
D16*
%TO.P,D9,1*%
%TO.N,row1*%
X210368156Y-112105131D03*
D22*
X210368156Y-112105131D03*
D16*
%TO.N,middle_top*%
X213668156Y-112105133D03*
D22*
%TO.P,D9,2*%
X213668156Y-112105133D03*
%TD*%
D16*
%TO.P,D15,1*%
%TO.N,row1*%
X252403833Y-136611812D03*
D23*
X252403833Y-136611812D03*
D16*
%TO.N,pinky_top*%
X255653699Y-137184850D03*
D23*
%TO.P,D15,2*%
X255653699Y-137184850D03*
%TD*%
D24*
%TO.P,H1,*%
%TO.N,*%
X202556153Y-121280133D03*
%TD*%
D16*
%TO.P,D3,1*%
%TO.N,row1*%
X172368154Y-125105134D03*
D22*
X172368154Y-125105134D03*
D16*
%TO.N,inner_top*%
X175668154Y-125105136D03*
D22*
%TO.P,D3,2*%
X175668154Y-125105136D03*
%TD*%
D16*
%TO.P,D8,1*%
%TO.N,row2*%
X210368147Y-131105136D03*
D22*
%TO.P,D8,1,row2*%
X210368147Y-131105136D03*
D16*
%TO.P,D8,1*%
%TO.N,middle_home*%
X213668147Y-131105138D03*
D22*
%TO.P,D8,2*%
X213668147Y-131105138D03*
%TD*%
D16*
%TO.P,D5,1*%
%TO.N,row2*%
X191368153Y-140105136D03*
D22*
%TO.P,D5,1,row2*%
X191368153Y-140105136D03*
D16*
%TO.P,D5,1*%
%TO.N,index_home*%
X194668153Y-140105138D03*
D22*
%TO.P,D5,2*%
X194668153Y-140105138D03*
%TD*%
D16*
%TO.P,D17,1*%
%TO.N,row2*%
X268684104Y-153698437D03*
D23*
%TO.P,D17,1,row2*%
X268684104Y-153698437D03*
D16*
%TO.P,D17,1*%
%TO.N,pinky_extra_home*%
X271933970Y-154271475D03*
D23*
%TO.P,D17,2*%
X271933970Y-154271475D03*
%TD*%
D24*
%TO.P,H2,*%
%TO.N,*%
X183506154Y-140330138D03*
%TD*%
D25*
%TO.P,XX6,1*%
%TO.N,dis1-pad3*%
X150610182Y-146456872D03*
D26*
%TO.P,XX6,2*%
%TO.N,SCK*%
X150610182Y-147181872D03*
%TD*%
D16*
%TO.P,D16,1*%
%TO.N,row3*%
X265384792Y-172409785D03*
D23*
X265384792Y-172409785D03*
D16*
%TO.N,pinky_extra_bottom*%
X268634658Y-172982823D03*
D23*
%TO.P,D16,2*%
X268634658Y-172982823D03*
%TD*%
D16*
%TO.P,D20,1*%
%TO.N,row4*%
X158024961Y-191875226D03*
D27*
X158024961Y-191875226D03*
D16*
%TO.N,3_r0*%
X160882845Y-190225224D03*
D27*
%TO.P,D20,2*%
X160882845Y-190225224D03*
%TD*%
D16*
%TO.P,D18,1*%
%TO.N,row4*%
X194318156Y-181055138D03*
D22*
X194318156Y-181055138D03*
D16*
%TO.N,1_r0*%
X197618156Y-181055140D03*
D22*
%TO.P,D18,2*%
X197618156Y-181055140D03*
%TD*%
D28*
%TO.P,SW25,A*%
%TO.N,ENCA*%
X141040154Y-156307137D03*
%TO.P,SW25,B*%
%TO.N,ENCB*%
X141040154Y-161307137D03*
%TO.P,SW25,C*%
%TO.N,GND*%
X141040154Y-158807137D03*
D29*
%TO.P,SW25,MP*%
%TO.N,N/C*%
X148540154Y-153207137D03*
X148540154Y-164407137D03*
D28*
%TO.P,SW25,S1*%
%TO.N,col3*%
X155540154Y-161307137D03*
%TO.P,SW25,S2*%
%TO.N,SW18B*%
X155540154Y-156307137D03*
%TD*%
D16*
%TO.P,D4,1*%
%TO.N,row3*%
X191368155Y-159105134D03*
D22*
X191368155Y-159105134D03*
D16*
%TO.N,index_bottom*%
X194668155Y-159105136D03*
D22*
%TO.P,D4,2*%
X194668155Y-159105136D03*
%TD*%
D16*
%TO.P,D10,1*%
%TO.N,row3*%
X228779240Y-160269332D03*
D17*
X228779240Y-160269332D03*
D16*
%TO.N,ring_bottom*%
X232071202Y-160499528D03*
D17*
%TO.P,D10,2*%
X232071202Y-160499528D03*
%TD*%
D25*
%TO.P,XX5,1*%
%TO.N,dis1-pad2*%
X148116184Y-146456873D03*
D26*
%TO.P,XX5,2*%
%TO.N,VCC*%
X148116184Y-147181873D03*
%TD*%
D16*
%TO.P,D19,1*%
%TO.N,row4*%
X175460088Y-184073635D03*
D30*
X175460088Y-184073635D03*
D16*
%TO.N,2_r0*%
X178647644Y-183219535D03*
D30*
%TO.P,D19,2*%
X178647644Y-183219535D03*
%TD*%
D31*
%TO.P,J1,1*%
%TO.N,VCC*%
X144076153Y-176075135D03*
X144076153Y-170125135D03*
%TO.P,J1,2*%
%TO.N,GND*%
X140076154Y-176075136D03*
X140076153Y-170125135D03*
%TO.P,J1,3*%
%TO.N,P18*%
X137076152Y-176075135D03*
X137076152Y-170125134D03*
%TO.P,J1,4*%
%TO.N,P15*%
X145576154Y-174325135D03*
X145576153Y-171875135D03*
%TD*%
D25*
%TO.P,XX4,1*%
%TO.N,dis1-pad1*%
X145571183Y-146456876D03*
D26*
%TO.P,XX4,2*%
%TO.N,GND*%
X145571183Y-147181876D03*
%TD*%
D16*
%TO.P,D7,1*%
%TO.N,row3*%
X210368159Y-150105132D03*
D22*
X210368159Y-150105132D03*
D16*
%TO.N,middle_bottom*%
X213668159Y-150105134D03*
D22*
%TO.P,D7,2*%
X213668159Y-150105134D03*
%TD*%
D32*
%TO.P,RST1,1*%
%TO.N,GND*%
X134410160Y-167230134D03*
%TO.P,RST1,2*%
%TO.N,RST*%
X136110157Y-167230134D03*
%TO.P,RST1,3*%
%TO.N,GND*%
X134410161Y-161980136D03*
%TO.P,RST1,4*%
%TO.N,RST*%
X136110158Y-161980136D03*
%TD*%
D16*
%TO.P,D21,1*%
%TO.N,row4*%
X143172584Y-203928241D03*
D33*
X143172584Y-203928241D03*
D16*
%TO.N,4_r0*%
X145506040Y-201594787D03*
D33*
%TO.P,D21,2*%
X145506040Y-201594787D03*
%TD*%
D16*
%TO.P,D2,1*%
%TO.N,row2*%
X172368154Y-144105131D03*
D22*
X172368154Y-144105131D03*
D16*
%TO.N,inner_home*%
X175668154Y-144105133D03*
D22*
%TO.P,D2,2*%
X175668154Y-144105133D03*
%TD*%
D25*
%TO.P,XX7,1*%
%TO.N,dis1-pad4*%
X153155187Y-146456877D03*
D26*
%TO.P,XX7,2*%
%TO.N,MOSI*%
X153155187Y-147181877D03*
%TD*%
D16*
%TO.P,D13,1*%
%TO.N,row3*%
X245805204Y-174034510D03*
D23*
X245805204Y-174034510D03*
D16*
%TO.N,pinky_bottom*%
X249055070Y-174607548D03*
D23*
%TO.P,D13,2*%
X249055070Y-174607548D03*
%TD*%
D16*
%TO.P,D14,1*%
%TO.N,row2*%
X249104518Y-155323161D03*
D23*
%TO.P,D14,1,row2*%
X249104518Y-155323161D03*
D16*
%TO.P,D14,1*%
%TO.N,pinky_home*%
X252354384Y-155896199D03*
D23*
%TO.P,D14,2*%
X252354384Y-155896199D03*
%TD*%
D16*
%TO.P,D6,1*%
%TO.N,row1*%
X191368155Y-121105130D03*
D22*
X191368155Y-121105130D03*
D16*
%TO.N,index_top*%
X194668155Y-121105132D03*
D22*
%TO.P,D6,2*%
X194668155Y-121105132D03*
%TD*%
D34*
%TO.P,PWR1,*%
%TO.N,*%
X136366155Y-112655133D03*
X136366155Y-105355133D03*
X134156154Y-112655132D03*
X134156154Y-105355134D03*
D35*
%TO.P,PWR1,1*%
%TO.N,N/C*%
X137016154Y-111255133D03*
%TO.P,PWR1,2*%
%TO.N,RAW*%
X137016155Y-108255134D03*
%TO.P,PWR1,3*%
%TO.N,BAT_P*%
X137016154Y-106755133D03*
%TD*%
D16*
%TO.P,D1,1*%
%TO.N,row3*%
X172368156Y-163105134D03*
D22*
X172368156Y-163105134D03*
D16*
%TO.N,inner_bottom*%
X175668156Y-163105136D03*
D22*
%TO.P,D1,2*%
X175668156Y-163105136D03*
%TD*%
D24*
%TO.P,H3,*%
%TO.N,*%
X221606152Y-140330135D03*
%TD*%
D16*
%TO.P,D22,1*%
%TO.N,row3*%
X152180184Y-151817277D03*
D22*
X152180184Y-151817277D03*
D16*
%TO.N,SW18B*%
X155480184Y-151817279D03*
D22*
%TO.P,D22,2*%
X155480184Y-151817279D03*
%TD*%
D36*
%TO.P,DISP1,1*%
%TO.N,DISP1_1*%
X144938155Y-137305132D03*
%TO.P,DISP1,2*%
%TO.N,DISP1_2*%
X147478156Y-137305133D03*
%TO.P,DISP1,3*%
%TO.N,VCC*%
X150018156Y-137305133D03*
%TO.P,DISP1,4*%
%TO.N,DISP1_4*%
X152558154Y-137305133D03*
D14*
%TO.P,DISP1,5*%
%TO.N,DISP1_5*%
X155098156Y-137305131D03*
D37*
%TO.P,DISP1,20*%
X155098155Y-135555132D03*
%TO.P,DISP1,21*%
%TO.N,DISP1_4*%
X152558154Y-135555131D03*
%TO.P,DISP1,22*%
%TO.N,DISP1_2*%
X147478156Y-135555131D03*
%TO.P,DISP1,23*%
%TO.N,DISP1_1*%
X144938153Y-135555132D03*
%TO.P,DISP1,24*%
%TO.N,CS*%
X155098154Y-134655133D03*
%TO.P,DISP1,25*%
%TO.N,GND*%
X152558154Y-134655133D03*
%TO.P,DISP1,26*%
%TO.N,SCK*%
X147478155Y-134655135D03*
%TO.P,DISP1,27*%
%TO.N,MOSI*%
X144938156Y-134655133D03*
%TD*%
D38*
%TO.P,S13,1*%
%TO.N,col5*%
X246714105Y-159521853D03*
D39*
%TO.P,S13,2*%
%TO.N,pinky_bottom*%
X257706609Y-163694067D03*
%TD*%
D40*
%TO.P,S34,1*%
%TO.N,col5*%
X255442441Y-169681866D03*
D41*
%TO.P,S34,2*%
%TO.N,pinky_bottom*%
X242270764Y-169938528D03*
%TD*%
D40*
%TO.P,S38,1*%
%TO.N,col6*%
X278321345Y-149345803D03*
D41*
%TO.P,S38,2*%
%TO.N,pinky_extra_home*%
X265149668Y-149602465D03*
%TD*%
D42*
%TO.P,S42,1*%
%TO.N,col1*%
X145134805Y-193537305D03*
D43*
%TO.P,S42,2*%
%TO.N,4_r0*%
X137790088Y-204474126D03*
%TD*%
D44*
%TO.P,S7,1*%
%TO.N,col3*%
X208743151Y-135655140D03*
D45*
%TO.P,S7,2*%
%TO.N,middle_bottom*%
X220293151Y-137855140D03*
%TD*%
D44*
%TO.P,S18,1*%
%TO.N,col4*%
X192693150Y-166605137D03*
D46*
%TO.P,S18,2*%
%TO.N,1_r0*%
X204243150Y-168805137D03*
%TD*%
D44*
%TO.P,S5,1*%
%TO.N,col2*%
X189743156Y-125655137D03*
D46*
%TO.P,S5,2*%
%TO.N,index_home*%
X201293156Y-127855137D03*
%TD*%
D47*
%TO.P,S22,1*%
%TO.N,col1*%
X181103151Y-157145135D03*
D48*
%TO.P,S22,2*%
%TO.N,inner_bottom*%
X168176151Y-159685135D03*
%TD*%
D47*
%TO.P,S27,1*%
%TO.N,col2*%
X200103153Y-115145137D03*
D48*
%TO.P,S27,2*%
%TO.N,index_top*%
X187176153Y-117685137D03*
%TD*%
D40*
%TO.P,S36,1*%
%TO.N,col5*%
X262041071Y-132259178D03*
D41*
%TO.P,S36,2*%
%TO.N,pinky_top*%
X248869394Y-132515840D03*
%TD*%
D47*
%TO.P,S39,1*%
%TO.N,col4*%
X203053150Y-175095137D03*
D48*
%TO.P,S39,2*%
%TO.N,1_r0*%
X190126150Y-177635137D03*
%TD*%
D38*
%TO.P,S16,1*%
%TO.N,col6*%
X266293694Y-157897133D03*
D39*
%TO.P,S16,2*%
%TO.N,pinky_extra_bottom*%
X277286198Y-162069347D03*
%TD*%
D49*
%TO.P,S23,1*%
%TO.N,col1*%
X181103153Y-138145131D03*
D48*
%TO.P,S23,2*%
%TO.N,inner_home*%
X168176153Y-140685131D03*
%TD*%
D44*
%TO.P,S1,1*%
%TO.N,col1*%
X170743151Y-148655135D03*
D46*
%TO.P,S1,2*%
%TO.N,inner_bottom*%
X182293151Y-150855135D03*
%TD*%
D38*
%TO.P,S17,1*%
%TO.N,col6*%
X269593009Y-139185790D03*
D39*
%TO.P,S17,2*%
%TO.N,pinky_extra_home*%
X280585513Y-143358004D03*
%TD*%
D47*
%TO.P,S29,1*%
%TO.N,col3*%
X219103154Y-125145137D03*
D48*
%TO.P,S29,2*%
%TO.N,middle_home*%
X206176154Y-127685137D03*
%TD*%
D44*
%TO.P,S3,1*%
%TO.N,col1*%
X170743154Y-110655134D03*
D46*
%TO.P,S3,2*%
%TO.N,inner_top*%
X182293154Y-112855134D03*
%TD*%
D50*
%TO.P,S20,1*%
%TO.N,col2*%
X149392669Y-180173661D03*
D51*
%TO.P,S20,2*%
%TO.N,3_r0*%
X160495262Y-176303917D03*
%TD*%
D52*
%TO.P,S10,1*%
%TO.N,col4*%
X228166182Y-145741175D03*
D53*
%TO.P,S10,2*%
%TO.N,ring_bottom*%
X239534583Y-148741503D03*
%TD*%
D54*
%TO.P,S41,1*%
%TO.N,col2*%
X162609693Y-182346217D03*
D55*
%TO.P,S41,2*%
%TO.N,3_r0*%
X152684582Y-191009421D03*
%TD*%
D52*
%TO.P,S12,1*%
%TO.N,col4*%
X230816927Y-107833739D03*
D53*
%TO.P,S12,2*%
%TO.N,ring_top*%
X242185328Y-110834067D03*
%TD*%
D44*
%TO.P,S6,1*%
%TO.N,col2*%
X189743153Y-106655137D03*
D46*
%TO.P,S6,2*%
%TO.N,index_top*%
X201293153Y-108855137D03*
%TD*%
D47*
%TO.P,S30,1*%
%TO.N,col3*%
X219103151Y-106145132D03*
D48*
%TO.P,S30,2*%
%TO.N,middle_top*%
X206176151Y-108685132D03*
%TD*%
D56*
%TO.P,S21,1*%
%TO.N,col1*%
X131805842Y-194859595D03*
D57*
%TO.P,S21,2*%
%TO.N,4_r0*%
X141528560Y-188248147D03*
%TD*%
D47*
%TO.P,S25,1*%
%TO.N,col2*%
X200103153Y-153145130D03*
D48*
%TO.P,S25,2*%
%TO.N,index_bottom*%
X187176153Y-155685130D03*
%TD*%
D47*
%TO.P,S24,1*%
%TO.N,col1*%
X181103154Y-119145134D03*
D48*
%TO.P,S24,2*%
%TO.N,inner_top*%
X168176154Y-121685134D03*
%TD*%
D40*
%TO.P,S37,1*%
%TO.N,col6*%
X275022030Y-168057146D03*
D41*
%TO.P,S37,2*%
%TO.N,pinky_extra_bottom*%
X261850353Y-168313808D03*
%TD*%
D58*
%TO.P,S33,1*%
%TO.N,col4*%
X240559460Y-117025736D03*
D59*
%TO.P,S33,2*%
%TO.N,ring_top*%
X227486767Y-118657806D03*
%TD*%
D52*
%TO.P,S11,1*%
%TO.N,col4*%
X229491554Y-126787455D03*
D53*
%TO.P,S11,2*%
%TO.N,ring_home*%
X240859955Y-129787783D03*
%TD*%
D44*
%TO.P,S8,1*%
%TO.N,col3*%
X208743154Y-116655137D03*
D46*
%TO.P,S8,2*%
%TO.N,middle_home*%
X220293154Y-118855137D03*
%TD*%
D38*
%TO.P,S14,1*%
%TO.N,col5*%
X250013421Y-140810510D03*
D39*
%TO.P,S14,2*%
%TO.N,pinky_home*%
X261005925Y-144982724D03*
%TD*%
D47*
%TO.P,S26,1*%
%TO.N,col2*%
X200103156Y-134145137D03*
D48*
%TO.P,S26,2*%
%TO.N,index_home*%
X187176156Y-136685137D03*
%TD*%
D38*
%TO.P,S15,1*%
%TO.N,col5*%
X253312735Y-122099165D03*
D39*
%TO.P,S15,2*%
%TO.N,pinky_top*%
X264305239Y-126271379D03*
%TD*%
D58*
%TO.P,S32,1*%
%TO.N,col4*%
X239234087Y-135979452D03*
D59*
%TO.P,S32,2*%
%TO.N,ring_home*%
X226161394Y-137611522D03*
%TD*%
D60*
%TO.P,S19,1*%
%TO.N,col3*%
X170150526Y-170536590D03*
D61*
%TO.P,S19,2*%
%TO.N,2_r0*%
X181876371Y-169672267D03*
%TD*%
D47*
%TO.P,S28,1*%
%TO.N,col3*%
X219103151Y-144145140D03*
D48*
%TO.P,S28,2*%
%TO.N,middle_bottom*%
X206176151Y-146685140D03*
%TD*%
D44*
%TO.P,S2,1*%
%TO.N,col1*%
X170743153Y-129655131D03*
D46*
%TO.P,S2,2*%
%TO.N,inner_home*%
X182293153Y-131855131D03*
%TD*%
D62*
%TO.P,S40,1*%
%TO.N,col3*%
X182354891Y-176055935D03*
D63*
%TO.P,S40,2*%
%TO.N,2_r0*%
X170525769Y-181855140D03*
%TD*%
D44*
%TO.P,S9,1*%
%TO.N,col3*%
X208743151Y-97655132D03*
D46*
%TO.P,S9,2*%
%TO.N,middle_top*%
X220293151Y-99855132D03*
%TD*%
D58*
%TO.P,S31,1*%
%TO.N,col4*%
X237908715Y-154933172D03*
D59*
%TO.P,S31,2*%
%TO.N,ring_bottom*%
X224836022Y-156565242D03*
%TD*%
D44*
%TO.P,S4,1*%
%TO.N,col2*%
X189743153Y-144655130D03*
D46*
%TO.P,S4,2*%
%TO.N,index_bottom*%
X201293153Y-146855130D03*
%TD*%
D40*
%TO.P,S35,1*%
%TO.N,col5*%
X258741757Y-150970523D03*
D41*
%TO.P,S35,2*%
%TO.N,pinky_home*%
X245570080Y-151227185D03*
%TD*%
D64*
%TO.N,GND*%
X134410161Y-159750000D03*
X146750000Y-150000000D03*
%TO.N,P18*%
X141500000Y-141500000D03*
%TO.N,ring_home*%
X231858090Y-139893463D03*
X232558031Y-129883909D03*
%TO.N,ring_top*%
X233183461Y-120939748D03*
X233883398Y-110930193D03*
%TO.N,BAT_P*%
X138493203Y-105964968D03*
X136371203Y-148760968D03*
%TO.N,GND*%
X139216003Y-147694167D03*
X150188803Y-133673367D03*
X155472005Y-147033767D03*
X148493204Y-138714968D03*
X143686403Y-147135367D03*
%TO.N,col1*%
X174018152Y-160535137D03*
X174018153Y-131730134D03*
X174018152Y-150730140D03*
X142522046Y-200944246D03*
X135588865Y-194011064D03*
X174018153Y-141535135D03*
X174018149Y-112730137D03*
X167023040Y-104959179D03*
X174018158Y-122535132D03*
%TO.N,col2*%
X193018155Y-127730136D03*
X193018153Y-137535138D03*
X193018155Y-108730132D03*
X193018156Y-146730133D03*
X193018158Y-156535135D03*
X193018150Y-118535133D03*
X158168902Y-188824544D03*
X183743203Y-165464968D03*
X153266404Y-180333167D03*
%TO.N,col3*%
X212018154Y-137730138D03*
X173850976Y-171693247D03*
X176388699Y-181164155D03*
X212018150Y-118730133D03*
X212018156Y-147535135D03*
X212018153Y-99730136D03*
X212018152Y-109535134D03*
X212018158Y-128535136D03*
%TO.N,col4*%
X231288458Y-148039573D03*
X233939201Y-110132140D03*
X162993204Y-158464966D03*
X232613829Y-129085856D03*
X195968151Y-168680129D03*
X233255244Y-119913255D03*
X162993203Y-122964967D03*
X186493203Y-165714968D03*
X162993203Y-160714967D03*
X231929871Y-138866970D03*
X230604497Y-157820691D03*
X195968153Y-178485134D03*
X172243204Y-166214967D03*
%TO.N,col5*%
X218993205Y-111714968D03*
X263310747Y-129185179D03*
X256177661Y-124711333D03*
X164743204Y-99714967D03*
X260011430Y-147896525D03*
X249579034Y-162134031D03*
X215993203Y-112714967D03*
X252878351Y-143422686D03*
X247876412Y-171790072D03*
X251175727Y-153078724D03*
X201243204Y-105714968D03*
X254475043Y-134367377D03*
%TO.N,col6*%
X272457935Y-141797960D03*
X270755316Y-151453999D03*
X276908333Y-164470009D03*
X267456000Y-170165344D03*
X165743203Y-98964968D03*
X279924044Y-145822810D03*
X269158620Y-160509309D03*
%TO.N,row4*%
X159743203Y-169214967D03*
X166243204Y-186214969D03*
%TO.N,MOSI*%
X151048865Y-117176119D03*
X149122003Y-133165367D03*
X149270830Y-149326030D03*
%TO.N,SCK*%
X145743203Y-132714968D03*
X150138004Y-135197367D03*
X149376004Y-148151367D03*
%TO.N,CS*%
X150087205Y-132250967D03*
%TO.N,VCC*%
X149274404Y-146576567D03*
%TO.N,RST*%
X136110159Y-158209767D03*
%TO.N,RAW*%
X135609203Y-109136967D03*
%TO.N,middle_top*%
X212018156Y-110564134D03*
X212018154Y-100530136D03*
%TO.N,pinky_top*%
X254296362Y-135380745D03*
X256038747Y-125499184D03*
%TO.N,inner_top*%
X174018152Y-113530133D03*
X174018152Y-123564134D03*
%TO.N,middle_home*%
X212018158Y-119530134D03*
X212018153Y-129564138D03*
%TO.N,index_home*%
X193018153Y-128530135D03*
X193018153Y-138564135D03*
%TO.N,pinky_extra_home*%
X270576629Y-152467368D03*
X272319018Y-142585807D03*
%TO.N,pinky_extra_bottom*%
X269019704Y-161297154D03*
X267277315Y-171178712D03*
%TO.N,3_r0*%
X158683402Y-189715684D03*
X153666399Y-181025987D03*
%TO.N,1_r0*%
X195968151Y-169480136D03*
X195968151Y-179514137D03*
%TO.N,index_bottom*%
X193018154Y-147530135D03*
X193018153Y-157564132D03*
%TO.N,ring_bottom*%
X231232657Y-148837625D03*
X230532720Y-158847185D03*
%TO.N,2_r0*%
X176655025Y-182158092D03*
X174058032Y-172465996D03*
%TO.N,middle_bottom*%
X212018152Y-148564134D03*
X212018151Y-138530134D03*
%TO.N,4_r0*%
X143249659Y-201671861D03*
X136154550Y-194576752D03*
%TO.N,inner_home*%
X174018154Y-142564136D03*
X174018150Y-132530135D03*
%TO.N,pinky_bottom*%
X249440115Y-162921878D03*
X247697729Y-172803439D03*
%TO.N,pinky_home*%
X250997040Y-154092087D03*
X252739431Y-144210530D03*
%TO.N,index_top*%
X193018152Y-109530136D03*
X193018153Y-119564138D03*
%TO.N,inner_bottom*%
X174018156Y-151530134D03*
X174018153Y-161564134D03*
%TD*%
%TO.N,GND*%
D65*
X134410161Y-161980136D02*
X134410161Y-159750000D01*
X134410160Y-167230134D02*
X134410161Y-161980136D01*
X146551036Y-150000000D02*
X143686403Y-147135367D01*
X146750000Y-150000000D02*
X146551036Y-150000000D01*
%TO.N,P18*%
X143086403Y-143086403D02*
X141500000Y-141500000D01*
X143086403Y-164114883D02*
X143086403Y-143086403D01*
X137076152Y-170125134D02*
X143086403Y-164114883D01*
%TO.N,row2*%
D66*
X145592845Y-125765132D02*
X146317846Y-126490134D01*
X145243155Y-125765134D02*
X145592845Y-125765132D01*
X146317846Y-126490134D02*
X146918455Y-126490133D01*
X146918455Y-126490133D02*
X147413457Y-125995138D01*
X147413457Y-125995138D02*
X153188151Y-125995135D01*
%TO.N,ring_home*%
D65*
X234610743Y-131209330D02*
X233516850Y-129950957D01*
X240859962Y-129787793D02*
X238881145Y-131507944D01*
X231858090Y-139893463D02*
X227904710Y-139617519D01*
X227904746Y-139617019D02*
X226161396Y-137611525D01*
X233516850Y-129950957D02*
X232558031Y-129883909D01*
X238881145Y-131507944D02*
X234610743Y-131209330D01*
%TO.N,row1*%
D66*
X145243152Y-123225136D02*
X145592847Y-123225135D01*
X146918460Y-123950131D02*
X147413456Y-123455133D01*
X147413456Y-123455133D02*
X153188155Y-123455138D01*
X146317847Y-123950136D02*
X146918460Y-123950131D01*
X145592847Y-123225135D02*
X146317847Y-123950136D01*
%TO.N,ring_top*%
D65*
X235936111Y-112255612D02*
X234842222Y-110997241D01*
X240206517Y-112554227D02*
X235936111Y-112255612D01*
X242185328Y-110834071D02*
X240206517Y-112554227D01*
X234842222Y-110997241D02*
X233883398Y-110930193D01*
X233183461Y-120939748D02*
X229230084Y-120663803D01*
X229230120Y-120663304D02*
X227486764Y-118657810D01*
%TO.N,BAT_P*%
X138493203Y-105964968D02*
X138493203Y-107078080D01*
X138116152Y-107455132D02*
X137416154Y-106755134D01*
X138116152Y-147730134D02*
X138116152Y-107455132D01*
X137416154Y-106755134D02*
X137016154Y-106755133D01*
X138116152Y-147730134D02*
X137085320Y-148760968D01*
X137085320Y-148760968D02*
X136371203Y-148760968D01*
X138493203Y-107078080D02*
X138116152Y-107455132D01*
%TO.N,GND*%
X152558152Y-134655133D02*
X151170570Y-134655134D01*
D66*
X146918459Y-111250137D02*
X147413457Y-110755133D01*
X145592847Y-110525137D02*
X146317845Y-111250134D01*
D65*
X145571182Y-147181875D02*
X143732911Y-147181876D01*
D66*
X147413457Y-110755133D02*
X153188155Y-110755137D01*
D65*
X139216003Y-148630284D02*
X139216003Y-147694167D01*
X151170570Y-134655134D02*
X150188803Y-133673367D01*
X143732911Y-147181876D02*
X143686403Y-147135367D01*
D66*
X145243149Y-107985130D02*
X145592847Y-107985135D01*
X145243152Y-110525133D02*
X145592847Y-110525137D01*
X147413458Y-108215137D02*
X153188152Y-108215134D01*
X146918459Y-108710134D02*
X147413458Y-108215137D01*
X153117848Y-104720134D02*
X152612847Y-105225133D01*
X146317850Y-108710137D02*
X146918459Y-108710134D01*
X154443459Y-105445133D02*
X153718456Y-104720136D01*
D65*
X138116152Y-149730135D02*
X139216003Y-148630284D01*
D66*
X152612847Y-105225133D02*
X146838153Y-105225135D01*
X145592847Y-107985135D02*
X146317850Y-108710137D01*
X146317845Y-111250134D02*
X146918459Y-111250137D01*
X154793148Y-105445134D02*
X154443459Y-105445133D01*
X153718456Y-104720136D02*
X153117848Y-104720134D01*
%TO.N,JST1_1*%
X137100155Y-149730135D02*
X135300153Y-149730138D01*
%TO.N,JST1_2*%
X137100150Y-147730134D02*
X135300155Y-147730136D01*
%TO.N,MCU1_1*%
X157638154Y-102905134D02*
X155518155Y-102905132D01*
%TO.N,MCU1_2*%
X157638157Y-105445135D02*
X155518155Y-105445136D01*
%TO.N,MCU1_3*%
X157638157Y-107985135D02*
X155518151Y-107985138D01*
%TO.N,MCU1_4*%
X157638150Y-110525135D02*
X155518153Y-110525135D01*
%TO.N,MCU1_5*%
X157638150Y-113065135D02*
X155518150Y-113065134D01*
%TO.N,MCU1_6*%
X157638159Y-115605137D02*
X155518159Y-115605135D01*
%TO.N,MCU1_7*%
X157638157Y-118145135D02*
X155518152Y-118145134D01*
%TO.N,MCU1_8*%
X157638155Y-120685132D02*
X155518151Y-120685136D01*
%TO.N,MCU1_9*%
X157638150Y-123225137D02*
X155518157Y-123225135D01*
%TO.N,MCU1_10*%
X157638150Y-125765138D02*
X155518153Y-125765133D01*
%TO.N,MCU1_11*%
X157638150Y-128305134D02*
X155518155Y-128305137D01*
%TO.N,MCU1_12*%
X157638157Y-130845138D02*
X155518156Y-130845133D01*
%TO.N,MCU1_13*%
X142398154Y-130845136D02*
X144518151Y-130845137D01*
%TO.N,MCU1_14*%
X142398153Y-128305137D02*
X144518155Y-128305134D01*
%TO.N,MCU1_15*%
X142398152Y-125765136D02*
X144518156Y-125765137D01*
%TO.N,MCU1_16*%
X142398153Y-123225135D02*
X144518151Y-123225134D01*
%TO.N,MCU1_17*%
X142398153Y-120685132D02*
X144518150Y-120685134D01*
%TO.N,MCU1_18*%
X142398148Y-118145132D02*
X144518156Y-118145135D01*
%TO.N,MCU1_19*%
X142398151Y-115605136D02*
X144518152Y-115605132D01*
%TO.N,MCU1_20*%
X142398155Y-113065135D02*
X144518153Y-113065138D01*
%TO.N,MCU1_21*%
X142398156Y-110525136D02*
X144518152Y-110525135D01*
%TO.N,MCU1_22*%
X142398153Y-107985134D02*
X144518152Y-107985133D01*
%TO.N,MCU1_23*%
X142398157Y-105445136D02*
X144518155Y-105445138D01*
%TO.N,MCU1_24*%
X142398153Y-102905132D02*
X144518154Y-102905135D01*
%TO.N,col1*%
D65*
X155001677Y-160007136D02*
X165548890Y-160007135D01*
X180821204Y-130005133D02*
X176284448Y-130005133D01*
X180821205Y-126201187D02*
X178184155Y-123564138D01*
X145134803Y-193537305D02*
X146195464Y-194597969D01*
X174618154Y-161135137D02*
X174018152Y-160535137D01*
X141652824Y-186109668D02*
X141050744Y-186109668D01*
X183893154Y-111255133D02*
X183643155Y-111005134D01*
D66*
X145243157Y-102905133D02*
X145592853Y-102905136D01*
D65*
X175047150Y-142564133D02*
X174018153Y-141535135D01*
X181103151Y-157145134D02*
X183893152Y-154355134D01*
X174618153Y-161812663D02*
X174618154Y-161135137D01*
X170743153Y-110655134D02*
X172818153Y-112730137D01*
X166993203Y-106246478D02*
X166993203Y-104964968D01*
X180567204Y-149005135D02*
X176284447Y-149005134D01*
X174225682Y-162205133D02*
X174618153Y-161812663D01*
X141875664Y-186332507D02*
X141652824Y-186109668D01*
X173476864Y-112730138D02*
X166993203Y-106246478D01*
X183893153Y-135355133D02*
X183893153Y-130255133D01*
X181103154Y-119145133D02*
X183893156Y-116355135D01*
X183893156Y-116355135D02*
X183893154Y-111255133D01*
X174018149Y-112730137D02*
X173476864Y-112730138D01*
X175047156Y-123564136D02*
X174018158Y-122535132D01*
X181103152Y-158645134D02*
X178184154Y-161564135D01*
X178184154Y-161564135D02*
X175047150Y-161564131D01*
X183643153Y-130005132D02*
X180821204Y-130005133D01*
X146195468Y-198726055D02*
X143977279Y-200944250D01*
X172818156Y-131730134D02*
X174018153Y-131730134D01*
X181103156Y-157145136D02*
X181103152Y-158645134D01*
X131805843Y-194859597D02*
X134740334Y-194859597D01*
X175047150Y-161564131D02*
X174018152Y-160535137D01*
X165548890Y-160007135D02*
X167746888Y-162205133D01*
X172818153Y-112730137D02*
X174018149Y-112730137D01*
X180567203Y-144947188D02*
X178184150Y-142564135D01*
X176284447Y-149005134D02*
X174559442Y-150730140D01*
X178184155Y-123564138D02*
X175047156Y-123564136D01*
X134740334Y-194859597D02*
X135588865Y-194011064D01*
X143977279Y-200944250D02*
X142522046Y-200944246D01*
X181103150Y-138145133D02*
X181103153Y-139645133D01*
X145134806Y-193537304D02*
X143667039Y-192069538D01*
X170743156Y-129655136D02*
X172818156Y-131730134D01*
X183893153Y-130255133D02*
X183643153Y-130005132D01*
X176284448Y-130005133D02*
X174559447Y-131730136D01*
X180567204Y-149005135D02*
X180567203Y-144947188D01*
X181103151Y-120645136D02*
X178184155Y-123564138D01*
D66*
X146918457Y-103630135D02*
X147413459Y-103135132D01*
D65*
X137362788Y-189797628D02*
X137362785Y-192237144D01*
X143667038Y-188123882D02*
X141875664Y-186332507D01*
X170743154Y-148655133D02*
X172818154Y-150730131D01*
X181103155Y-119145131D02*
X181103151Y-120645136D01*
X183643155Y-111005134D02*
X176284450Y-111005133D01*
X176284450Y-111005133D02*
X174559448Y-112730137D01*
X137362785Y-192237144D02*
X135588865Y-194011064D01*
X181103155Y-138145132D02*
X183893153Y-135355133D01*
X143743203Y-184464967D02*
X143743203Y-183147195D01*
X146195464Y-194597969D02*
X146195468Y-198726055D01*
X143743203Y-183147195D02*
X154240155Y-172650244D01*
X172818154Y-150730131D02*
X174018152Y-150730140D01*
X183643154Y-149005134D02*
X180567204Y-149005135D01*
X183893152Y-154355134D02*
X183893153Y-149255134D01*
X174559442Y-150730140D02*
X174018152Y-150730140D01*
X177493204Y-142564134D02*
X175047150Y-142564133D01*
X174559447Y-131730136D02*
X174018153Y-131730134D01*
X174559448Y-112730137D02*
X174018149Y-112730137D01*
X154240154Y-160768658D02*
X155001677Y-160007136D01*
X167746888Y-162205133D02*
X174225682Y-162205133D01*
X181103153Y-139645133D02*
X178184150Y-142564135D01*
X183893153Y-149255134D02*
X183643154Y-149005134D01*
X143667039Y-192069538D02*
X143667038Y-188123882D01*
X154240155Y-172650244D02*
X154240154Y-160768658D01*
X178184150Y-142564135D02*
X177493204Y-142564134D01*
X141875664Y-186332507D02*
X143743203Y-184464967D01*
D66*
X145592853Y-102905136D02*
X146317844Y-103630130D01*
D65*
X180821204Y-130005133D02*
X180821205Y-126201187D01*
D66*
X147413459Y-103135132D02*
X153188153Y-103135133D01*
X146317844Y-103630130D02*
X146918457Y-103630135D01*
D65*
X141050744Y-186109668D02*
X137362788Y-189797628D01*
%TO.N,col2*%
X199363204Y-126005138D02*
X195284450Y-126005136D01*
X202643156Y-126005136D02*
X199363204Y-126005138D01*
D66*
X146918459Y-106170135D02*
X147413463Y-105675135D01*
D65*
X195284450Y-126005136D02*
X193559451Y-127730135D01*
X191818155Y-108730133D02*
X193018155Y-108730132D01*
X183743203Y-165464968D02*
X183743203Y-165214967D01*
X202893155Y-131355138D02*
X202893155Y-126255137D01*
X200103153Y-115145137D02*
X202893155Y-112355137D01*
X162609693Y-175742414D02*
X161095365Y-174228084D01*
X197184155Y-138564139D02*
X194047150Y-138564136D01*
D66*
X146317849Y-106170135D02*
X146918459Y-106170135D01*
D65*
X200103155Y-134145138D02*
X202893155Y-131355138D01*
X202893155Y-112355137D02*
X202893153Y-107255136D01*
X158756067Y-174228083D02*
X154078903Y-178905249D01*
X163359697Y-183645259D02*
X162291262Y-187632686D01*
X193559444Y-146730134D02*
X193018156Y-146730133D01*
X193559452Y-108730133D02*
X193018155Y-108730132D01*
X189743151Y-125655134D02*
X191818149Y-127730135D01*
X195284448Y-145005131D02*
X193559444Y-146730134D01*
X200103152Y-134145137D02*
X200103153Y-135645133D01*
X199493204Y-140873190D02*
X197184155Y-138564139D01*
X191818149Y-127730135D02*
X193018155Y-127730136D01*
X199493204Y-145005130D02*
X199493204Y-140873190D01*
X197184151Y-157564132D02*
X196493203Y-157564132D01*
X195284448Y-107005136D02*
X193559452Y-108730133D01*
X191818154Y-146730137D02*
X193018156Y-146730133D01*
X202643153Y-145005131D02*
X199493204Y-145005130D01*
D66*
X145592849Y-105445136D02*
X146317849Y-106170135D01*
D65*
X199363204Y-126005138D02*
X199363203Y-121743182D01*
X197184154Y-119564132D02*
X194047154Y-119564135D01*
X202893152Y-150355131D02*
X202893155Y-145255130D01*
X193559451Y-127730135D02*
X193018155Y-127730136D01*
X193618155Y-157135134D02*
X193018158Y-156535135D01*
X159574541Y-189201188D02*
X158168902Y-188824544D01*
X154078903Y-179520668D02*
X153266404Y-180333167D01*
X200103149Y-154645136D02*
X197184151Y-157564132D01*
X199363203Y-121743182D02*
X197184154Y-119564132D01*
X149392671Y-180173664D02*
X152227173Y-180933168D01*
X193618153Y-157812662D02*
X193618155Y-157135134D01*
X202643153Y-107005135D02*
X195284448Y-107005136D01*
X194047153Y-157564135D02*
X193018158Y-156535135D01*
X162609696Y-182346218D02*
X162609693Y-175742414D01*
X202893155Y-145255130D02*
X202643153Y-145005131D01*
X152227173Y-180933168D02*
X153266404Y-180333167D01*
X194047150Y-138564136D02*
X193018153Y-137535138D01*
X200103154Y-116645134D02*
X197184154Y-119564132D01*
D66*
X147413463Y-105675135D02*
X153188148Y-105675136D01*
D65*
X200103151Y-153145130D02*
X200103149Y-154645136D01*
X193266682Y-158164131D02*
X193618153Y-157812662D01*
X200103152Y-153145131D02*
X202893152Y-150355131D01*
X189743151Y-106655137D02*
X191818155Y-108730133D01*
D66*
X145243152Y-105445137D02*
X145592849Y-105445136D01*
D65*
X200103153Y-135645133D02*
X197184155Y-138564139D01*
X154078903Y-178905249D02*
X154078903Y-179520668D01*
X194047154Y-119564135D02*
X193018150Y-118535133D01*
X189743154Y-144655136D02*
X191818154Y-146730137D01*
X202893153Y-107255136D02*
X202643153Y-107005135D01*
X202893155Y-126255137D02*
X202643156Y-126005136D01*
X200103156Y-115145136D02*
X200103154Y-116645134D01*
X199493204Y-145005130D02*
X195284448Y-145005131D01*
X183743203Y-165214967D02*
X190794038Y-158164132D01*
X162291262Y-187632686D02*
X159574541Y-189201188D01*
X196493203Y-157564132D02*
X194047153Y-157564135D01*
X190794038Y-158164132D02*
X193266682Y-158164131D01*
X161095365Y-174228084D02*
X158756067Y-174228083D01*
X162609694Y-182346218D02*
X163359697Y-183645259D01*
%TO.N,col3*%
X219103152Y-126645134D02*
X216184154Y-129564139D01*
X214284450Y-117005138D02*
X212559453Y-118730134D01*
X213047153Y-148564132D02*
X212018156Y-147535135D01*
D66*
X145243149Y-113065133D02*
X145592846Y-113065136D01*
D65*
X212559441Y-99730137D02*
X212018153Y-99730136D01*
X208743153Y-116655134D02*
X210818152Y-118730138D01*
X153418150Y-113246471D02*
X154386647Y-114214967D01*
X219103156Y-106145135D02*
X219103156Y-107645134D01*
X221643151Y-98005132D02*
X214284446Y-98005131D01*
X203208324Y-162214967D02*
X215743203Y-149680088D01*
X219103149Y-144145136D02*
X219103155Y-145645138D01*
X177839086Y-167780098D02*
X173925939Y-171693247D01*
X217651204Y-112088135D02*
X216127205Y-110564135D01*
X210818154Y-137730133D02*
X212018154Y-137730138D01*
X183768540Y-174642287D02*
X183768540Y-168628763D01*
X213047156Y-110564135D02*
X212018152Y-109535134D01*
X216184156Y-148564134D02*
X215743203Y-148564136D01*
X183768540Y-168628763D02*
X182919875Y-167780099D01*
X215743203Y-149680088D02*
X215743203Y-148564136D01*
X182354887Y-176055931D02*
X182743119Y-177504825D01*
D66*
X147413457Y-113295135D02*
X153188154Y-113295136D01*
D65*
X223806150Y-138168139D02*
X221643151Y-136005138D01*
X217993203Y-136005140D02*
X216251855Y-136005141D01*
X208743153Y-97655135D02*
X210818156Y-99730135D01*
X221533373Y-117005138D02*
X217651203Y-117005137D01*
X170150523Y-170536590D02*
X172691866Y-172003835D01*
X215743203Y-148564136D02*
X213047153Y-148564132D01*
X208493149Y-97905134D02*
X208743151Y-97655131D01*
X155540155Y-161307137D02*
X164769609Y-170536591D01*
D66*
X145592846Y-113065136D02*
X146317847Y-113790139D01*
D65*
X154386647Y-114214967D02*
X163493204Y-114214967D01*
X210818156Y-99730135D02*
X212018153Y-99730136D01*
X223806150Y-141241405D02*
X223806150Y-138168139D01*
X153418149Y-113065135D02*
X153418150Y-113246471D01*
X217651203Y-117005137D02*
X217651204Y-112088135D01*
X216251855Y-136005141D02*
X214526858Y-137730138D01*
D66*
X146918457Y-113790135D02*
X147413457Y-113295135D01*
D65*
X219103156Y-107645134D02*
X216184152Y-110564135D01*
X221893155Y-117364918D02*
X221533373Y-117005138D01*
X219103155Y-145645138D02*
X216184156Y-148564134D01*
X219103150Y-125145138D02*
X219103152Y-126645134D01*
X182354893Y-176055935D02*
X183768540Y-174642287D01*
X221893153Y-103355133D02*
X221893151Y-98255132D01*
X213047154Y-129564137D02*
X212018158Y-128535136D01*
X221643151Y-136005138D02*
X217993203Y-136005140D01*
X182919875Y-167780099D02*
X188485009Y-162214968D01*
D66*
X146317847Y-113790139D02*
X146918457Y-113790135D01*
D65*
X165553037Y-97905134D02*
X208493149Y-97905134D01*
X188485009Y-162214968D02*
X203208324Y-162214967D01*
X210818152Y-118730138D02*
X212018150Y-118730133D01*
X216184152Y-110564135D02*
X216127205Y-110564135D01*
X172691866Y-172003835D02*
X173850976Y-171693247D01*
X180679070Y-181079854D02*
X177648959Y-181891769D01*
X217651203Y-117005137D02*
X214284450Y-117005138D01*
X216184154Y-129564139D02*
X213047154Y-129564137D01*
X220902416Y-144145141D02*
X223806150Y-141241405D01*
X221893154Y-122355138D02*
X221893155Y-117364918D01*
X214284446Y-98005131D02*
X212559441Y-99730137D01*
X217993203Y-136005140D02*
X217993204Y-131373190D01*
X219103153Y-144145140D02*
X220902416Y-144145141D01*
X216127205Y-110564135D02*
X213047156Y-110564135D01*
X177648959Y-181891769D02*
X176388699Y-181164155D01*
X163493203Y-99964968D02*
X165553037Y-97905134D01*
X221893151Y-98255132D02*
X221643151Y-98005132D01*
X164769609Y-170536591D02*
X170150526Y-170536590D01*
X178493203Y-167780099D02*
X177839086Y-167780098D01*
X163493204Y-114214967D02*
X163493203Y-99964968D01*
X217993204Y-131373190D02*
X216184154Y-129564139D01*
X173925939Y-171693247D02*
X173850976Y-171693247D01*
X212559453Y-118730134D02*
X212018150Y-118730133D01*
X182919875Y-167780099D02*
X178493203Y-167780099D01*
X182743119Y-177504825D02*
X180679070Y-181079854D01*
X214526858Y-137730138D02*
X212018154Y-137730138D01*
X219103151Y-106145131D02*
X221893153Y-103355133D01*
X208743153Y-135655135D02*
X210818154Y-137730133D01*
X219103155Y-125145138D02*
X221893154Y-122355138D01*
%TO.N,col4*%
X242547475Y-132666068D02*
X242547474Y-128457368D01*
X229941419Y-159206886D02*
X230181720Y-159447186D01*
X232884585Y-139965244D02*
X231929871Y-138866970D01*
X240454824Y-118522083D02*
X237339316Y-121230355D01*
X233356077Y-146663051D02*
X231979555Y-148039573D01*
X239234088Y-135979455D02*
X239129450Y-137475799D01*
X241222099Y-151619788D02*
X241222099Y-147411089D01*
X202453036Y-164755137D02*
X187453034Y-164755137D01*
X241222099Y-147411089D02*
X240474062Y-146663050D01*
X234688570Y-159137788D02*
X231559215Y-158918964D01*
X162993204Y-162964967D02*
X166243203Y-166214968D01*
X198476862Y-168680129D02*
X207950105Y-159206886D01*
X234630297Y-110132141D02*
X233939201Y-110132140D01*
X231132720Y-159095714D02*
X231132720Y-158348915D01*
X233304927Y-129085857D02*
X232613829Y-129085856D01*
X162993203Y-160714967D02*
X162993204Y-162964967D01*
X230181720Y-159447186D02*
X230781249Y-159447186D01*
X237743203Y-146663051D02*
X237743205Y-141932623D01*
X241799435Y-127709331D02*
X240257204Y-127709331D01*
X231979555Y-148039573D02*
X231288458Y-148039573D01*
X230781249Y-159447186D02*
X231132720Y-159095714D01*
X242547474Y-128457368D02*
X241799435Y-127709331D01*
X239234089Y-135979452D02*
X242547475Y-132666068D01*
X239129450Y-137475799D02*
X236013945Y-140184073D01*
X237743203Y-146663051D02*
X233356077Y-146663051D01*
X200134152Y-179514137D02*
X196997155Y-179514133D01*
X228166184Y-145741171D02*
X230091382Y-147955867D01*
X237908713Y-154933171D02*
X237804081Y-156429520D01*
X162993204Y-158464966D02*
X162993203Y-122964967D01*
X195968151Y-168680129D02*
X198476862Y-168680129D01*
D66*
X147413455Y-115835134D02*
X153188150Y-115835138D01*
D65*
X243872844Y-109503652D02*
X243084159Y-108714967D01*
X231416756Y-129002149D02*
X232613829Y-129085856D01*
D66*
X146918455Y-116330136D02*
X147413455Y-115835134D01*
D65*
X234209957Y-121011531D02*
X233255244Y-119913255D01*
X234681450Y-127709331D02*
X233304927Y-129085857D01*
X240474062Y-146663050D02*
X237743203Y-146663051D01*
X243084159Y-108714967D02*
X236047470Y-108714967D01*
X221466995Y-145741176D02*
X202453036Y-164755137D01*
X196997155Y-179514133D02*
X195968153Y-178485134D01*
X229491556Y-126787457D02*
X231416756Y-129002149D01*
X230816929Y-107833737D02*
X232742130Y-110048433D01*
X237908714Y-154933172D02*
X241222099Y-151619788D01*
X237743205Y-141932623D02*
X235993204Y-140182621D01*
X237804081Y-156429520D02*
X234688570Y-159137788D01*
X231132720Y-158348915D02*
X230604497Y-157820691D01*
X203053149Y-176595132D02*
X200134152Y-179514137D01*
X192693151Y-166605136D02*
X194768154Y-168680137D01*
X166243203Y-166214968D02*
X172243204Y-166214967D01*
X230091382Y-147955867D02*
X231288458Y-148039573D01*
X187453034Y-164755137D02*
X186493203Y-165714968D01*
X235993204Y-140182621D02*
X232884585Y-139965244D01*
X231559215Y-158918964D02*
X230604497Y-157820691D01*
X240257204Y-124148242D02*
X237339316Y-121230355D01*
X240559459Y-117025737D02*
X243872844Y-113712352D01*
X240257204Y-127709331D02*
X234681450Y-127709331D01*
X243872844Y-113712352D02*
X243872844Y-109503652D01*
X236013945Y-140184073D02*
X235993204Y-140182621D01*
D66*
X146317850Y-116330132D02*
X146918455Y-116330136D01*
D65*
X240257204Y-127709331D02*
X240257204Y-124148242D01*
X236047470Y-108714967D02*
X234630297Y-110132141D01*
X207950105Y-159206886D02*
X229941419Y-159206886D01*
X203053156Y-175095135D02*
X203053149Y-176595132D01*
X240559456Y-117025736D02*
X240454824Y-118522083D01*
D66*
X145243153Y-115605138D02*
X145592850Y-115605135D01*
D65*
X194768154Y-168680137D02*
X195968151Y-168680129D01*
D66*
X145592850Y-115605135D02*
X146317850Y-116330132D01*
D65*
X232742130Y-110048433D02*
X233939201Y-110132140D01*
X237339316Y-121230355D02*
X234209957Y-121011531D01*
X228166181Y-145741176D02*
X221466995Y-145741176D01*
%TO.N,col5*%
X256513204Y-138346967D02*
X258399067Y-136461103D01*
X253312737Y-122099163D02*
X254995893Y-124502957D01*
X257021203Y-156634967D02*
X255159741Y-154773506D01*
X250013421Y-140810511D02*
X252476965Y-138346968D01*
X259512603Y-165611708D02*
X259512601Y-162515296D01*
X258741758Y-150970524D02*
X259181292Y-148477794D01*
X251800440Y-173526860D02*
X248711097Y-172982121D01*
X258399067Y-136461103D02*
X258399069Y-136104160D01*
X258741758Y-150970526D02*
X258481284Y-152447735D01*
X244272844Y-109337966D02*
X238455696Y-103520817D01*
X261780602Y-133736385D02*
X258399069Y-136104160D01*
X238455696Y-103520817D02*
X227187354Y-103520817D01*
X255309725Y-135559428D02*
X254475043Y-134367377D01*
X259512601Y-162515296D02*
X258272678Y-161275370D01*
D66*
X145243152Y-118145132D02*
X145592852Y-118145135D01*
D65*
X255442440Y-169681867D02*
X259512603Y-165611708D01*
X255442439Y-169681869D02*
X255181967Y-171159084D01*
X258399069Y-136104160D02*
X255309725Y-135559428D01*
X255181967Y-171159084D02*
X251800440Y-173526860D01*
X248397263Y-161925653D02*
X249579034Y-162134031D01*
X164743204Y-99714967D02*
X164243204Y-100214968D01*
D66*
X146317844Y-118870135D02*
X146918461Y-118870130D01*
D65*
X257021205Y-161275372D02*
X257021203Y-156634967D01*
X204783370Y-113005131D02*
X203293154Y-111514917D01*
X250013426Y-140810509D02*
X251696579Y-143214308D01*
X203293154Y-111514917D02*
X203293153Y-107089450D01*
X215703039Y-113005133D02*
X204783370Y-113005131D01*
X251370830Y-161275372D02*
X250512168Y-162134030D01*
X258481284Y-152447735D02*
X255159741Y-154773506D01*
X201918671Y-105714968D02*
X201243204Y-105714968D01*
D66*
X145592852Y-118145135D02*
X146317844Y-118870135D01*
D65*
X255159741Y-154773506D02*
X255099756Y-154815509D01*
X161663037Y-119295133D02*
X153663202Y-119295135D01*
X257021205Y-161275372D02*
X251370830Y-161275372D01*
X250512168Y-162134030D02*
X249579034Y-162134031D01*
X153663202Y-119295135D02*
X153418149Y-119050082D01*
X255099756Y-154815509D02*
X252010412Y-154270773D01*
X252010412Y-154270773D02*
X251175727Y-153078724D01*
X252476965Y-138346968D02*
X256513204Y-138346967D01*
X227187354Y-103520817D02*
X218993205Y-111714968D01*
X262480606Y-129766447D02*
X263310747Y-129185179D01*
X251696579Y-143214308D02*
X252878351Y-143422686D01*
X248711097Y-172982121D02*
X247876412Y-171790072D01*
X258272678Y-161275370D02*
X257021205Y-161275372D01*
X215993203Y-112714967D02*
X215703039Y-113005133D01*
X254995893Y-124502957D02*
X256177661Y-124711333D01*
X250013421Y-140810511D02*
X244272844Y-135069933D01*
X246714107Y-159521858D02*
X248397263Y-161925653D01*
X262041072Y-132259178D02*
X262480606Y-129766447D01*
X262041070Y-132259176D02*
X261780602Y-133736385D01*
X164243203Y-116714968D02*
X161663037Y-119295133D01*
X164243204Y-100214968D02*
X164243203Y-116714968D01*
X244272844Y-135069933D02*
X244272844Y-109337966D01*
D66*
X147413460Y-118375135D02*
X153188151Y-118375135D01*
D65*
X203293153Y-107089450D02*
X201918671Y-105714968D01*
X153418149Y-119050082D02*
X153418148Y-118145134D01*
X259181292Y-148477794D02*
X260011430Y-147896525D01*
D66*
X146918461Y-118870130D02*
X147413460Y-118375135D01*
%TO.N,col6*%
D65*
X271380025Y-171902135D02*
X268290685Y-171357399D01*
X276908333Y-167747318D02*
X276908333Y-164470009D01*
X275022031Y-168057147D02*
X276598504Y-168057148D01*
X267976850Y-160300931D02*
X269158620Y-160509309D01*
X269593013Y-139185787D02*
X271276168Y-141589583D01*
D66*
X146918459Y-121410138D02*
X147413460Y-120915135D01*
X146317849Y-121410135D02*
X146918459Y-121410138D01*
D65*
X278321346Y-149345802D02*
X278804293Y-146606870D01*
X278321344Y-149345794D02*
X278060874Y-150823012D01*
X275022030Y-168057145D02*
X274761556Y-169534360D01*
D66*
X145243149Y-120685136D02*
X145592853Y-120685138D01*
D65*
X268571860Y-155618967D02*
X274293204Y-155618967D01*
X165493203Y-120214967D02*
X163873036Y-121835135D01*
X278060874Y-150823012D02*
X274679343Y-153190788D01*
X278804293Y-146606870D02*
X279924044Y-145822810D01*
X276598504Y-168057148D02*
X276908333Y-167747318D01*
X271276168Y-141589583D02*
X272457935Y-141797960D01*
X274293203Y-153576925D02*
X274679343Y-153190788D01*
X268290685Y-171357399D02*
X267456000Y-170165344D01*
X153418150Y-120866474D02*
X153418150Y-120685136D01*
X163873036Y-121835135D02*
X154386811Y-121835133D01*
X274761556Y-169534360D02*
X271380025Y-171902135D01*
X154386811Y-121835133D02*
X153418150Y-120866474D01*
X266293694Y-157897133D02*
X268571860Y-155618967D01*
D66*
X147413460Y-120915135D02*
X153188151Y-120915134D01*
D65*
X271589997Y-152646055D02*
X270755316Y-151453999D01*
X274679343Y-153190788D02*
X271589997Y-152646055D01*
D66*
X145592853Y-120685138D02*
X146317849Y-121410135D01*
D65*
X274293204Y-155618967D02*
X274293203Y-153576925D01*
X165743203Y-98964968D02*
X165493205Y-99214968D01*
X266293695Y-157897134D02*
X267976850Y-160300931D01*
X165493205Y-99214968D02*
X165493203Y-120214967D01*
%TO.N,row3*%
D66*
X147413462Y-128535133D02*
X153188154Y-128535138D01*
X146918459Y-129030135D02*
X147413462Y-128535133D01*
X145243159Y-128305135D02*
X145592845Y-128305136D01*
X146317847Y-129030136D02*
X146918459Y-129030135D01*
X145592845Y-128305136D02*
X146317847Y-129030136D01*
%TO.N,row4*%
X146317846Y-131570137D02*
X146918455Y-131570133D01*
X145243154Y-130845133D02*
X145592849Y-130845136D01*
X145592849Y-130845136D02*
X146317846Y-131570137D01*
X147413455Y-131075132D02*
X153188152Y-131075136D01*
D65*
X166243204Y-175714967D02*
X159743203Y-169214967D01*
D66*
X146918455Y-131570133D02*
X147413455Y-131075132D01*
D65*
X166243204Y-186214969D02*
X166243204Y-175714967D01*
%TO.N,P10*%
D66*
X152612849Y-130625137D02*
X146838156Y-130625133D01*
X153117845Y-130120134D02*
X152612849Y-130625137D01*
X154443459Y-130845138D02*
X153718460Y-130120137D01*
X154793154Y-130845137D02*
X154443459Y-130845138D01*
X153718460Y-130120137D02*
X153117845Y-130120134D01*
%TO.N,P16*%
X154793152Y-128305135D02*
X154443458Y-128305137D01*
X153117850Y-127580137D02*
X152612848Y-128085138D01*
X154443458Y-128305137D02*
X153718458Y-127580134D01*
X153718458Y-127580134D02*
X153117850Y-127580137D01*
X152612848Y-128085138D02*
X146838154Y-128085135D01*
%TO.N,P14*%
X153117847Y-125040135D02*
X152612845Y-125545137D01*
X153718459Y-125040132D02*
X153117847Y-125040135D01*
X154443460Y-125765136D02*
X153718459Y-125040132D01*
X152612845Y-125545137D02*
X146838151Y-125545135D01*
X154793152Y-125765131D02*
X154443460Y-125765136D01*
%TO.N,P15*%
X153117846Y-122500132D02*
X152612848Y-123005136D01*
X153718455Y-122500133D02*
X153117846Y-122500132D01*
X154443457Y-123225135D02*
X153718455Y-122500133D01*
X152612848Y-123005136D02*
X146838151Y-123005134D01*
X154793152Y-123225137D02*
X154443457Y-123225135D01*
%TO.N,P18*%
X153117849Y-119960136D02*
X152612847Y-120465136D01*
X154793153Y-120685139D02*
X154443456Y-120685131D01*
X152612847Y-120465136D02*
X146838155Y-120465134D01*
X153718459Y-119960138D02*
X153117849Y-119960136D01*
X154443456Y-120685131D02*
X153718459Y-119960138D01*
%TO.N,MOSI*%
D65*
X153155185Y-147181878D02*
X151011034Y-149326029D01*
X151048865Y-117176119D02*
X147587165Y-117176118D01*
X149838674Y-131650967D02*
X149122003Y-132367638D01*
D66*
X154443460Y-118145136D02*
X153718458Y-117420135D01*
D65*
X153593986Y-131650966D02*
X149838674Y-131650967D01*
D66*
X154793153Y-118145136D02*
X154443460Y-118145136D01*
D65*
X149122003Y-132367638D02*
X149122003Y-133165367D01*
X144938153Y-134655134D02*
X146427919Y-133165368D01*
D66*
X153117849Y-117420135D02*
X152612849Y-117925134D01*
D65*
X156248154Y-144718910D02*
X156248153Y-134305135D01*
D66*
X153718458Y-117420135D02*
X153117849Y-117420135D01*
D65*
X153155185Y-147181878D02*
X153785185Y-147181878D01*
X146427919Y-133165368D02*
X149122003Y-133165367D01*
X151011034Y-149326029D02*
X149270830Y-149326030D01*
X147587165Y-117176118D02*
X146618149Y-118145135D01*
X156248153Y-134305135D02*
X153593986Y-131650966D01*
X153785185Y-147181878D02*
X156248154Y-144718910D01*
D66*
X152612849Y-117925134D02*
X146838150Y-117925132D01*
%TO.N,SCK*%
D65*
X148506004Y-133565366D02*
X146593605Y-133565368D01*
X151798150Y-146075241D02*
X151798152Y-138411476D01*
D66*
X154793154Y-115605134D02*
X154443462Y-115605135D01*
D65*
X149722024Y-148151366D02*
X151798150Y-146075241D01*
X147478152Y-134655136D02*
X149595771Y-134655136D01*
X144461808Y-138455132D02*
X143788152Y-137781478D01*
X150345501Y-147181871D02*
X149376004Y-148151367D01*
X149376004Y-148151367D02*
X149722024Y-148151366D01*
X146093606Y-137776026D02*
X145414498Y-138455133D01*
D66*
X153117849Y-114880133D02*
X152612848Y-115385136D01*
D65*
X151798152Y-138411476D02*
X151168153Y-137781480D01*
X146593605Y-133565368D02*
X146093606Y-134065369D01*
X150138004Y-135197367D02*
X148506004Y-133565366D01*
X145414498Y-138455133D02*
X144461808Y-138455132D01*
D66*
X154443462Y-115605135D02*
X153718461Y-114880136D01*
D65*
X149595771Y-134655136D02*
X150138004Y-135197367D01*
X150610184Y-147181873D02*
X150345501Y-147181871D01*
X145378320Y-132714967D02*
X145743203Y-132714968D01*
X143788152Y-137781478D02*
X143788154Y-134305134D01*
D66*
X152612848Y-115385136D02*
X146838152Y-115385132D01*
D65*
X151168153Y-137781480D02*
X151168153Y-136227518D01*
X146093606Y-134065369D02*
X146093606Y-137776026D01*
D66*
X153718461Y-114880136D02*
X153117849Y-114880133D01*
D65*
X143788154Y-134305134D02*
X145378320Y-132714967D01*
X151168153Y-136227518D02*
X150138004Y-135197367D01*
%TO.N,CS*%
D66*
X153117847Y-112340139D02*
X152612851Y-112845135D01*
X152612851Y-112845135D02*
X146838154Y-112845131D01*
D65*
X150087205Y-132250967D02*
X150567402Y-132731165D01*
X153174184Y-132731165D02*
X155098151Y-134655134D01*
D66*
X153718459Y-112340137D02*
X153117847Y-112340139D01*
D65*
X150567402Y-132731165D02*
X153174184Y-132731165D01*
D66*
X154443455Y-113065134D02*
X153718459Y-112340137D01*
X154793151Y-113065138D02*
X154443455Y-113065134D01*
%TO.N,VCC*%
D65*
X144076153Y-154471138D02*
X148116184Y-150431107D01*
D66*
X152612850Y-110305130D02*
X146838156Y-110305133D01*
D65*
X148116184Y-147181872D02*
X148669099Y-147181872D01*
X146618148Y-110343796D02*
X146618148Y-110525134D01*
X149274405Y-139820167D02*
X149274404Y-146576567D01*
X149274403Y-138048883D02*
X149274405Y-139820167D01*
X145649487Y-109375136D02*
X146618148Y-110343796D01*
X141705205Y-139820167D02*
X141248149Y-139363114D01*
D66*
X153718455Y-109800137D02*
X153117851Y-109800135D01*
D65*
X148116184Y-150431107D02*
X148116184Y-147181872D01*
X148669099Y-147181872D02*
X149274404Y-146576567D01*
X144076153Y-176075136D02*
X144076153Y-170125136D01*
X141921805Y-109375134D02*
X145649487Y-109375136D01*
X141248149Y-110048790D02*
X141921805Y-109375134D01*
D66*
X153117851Y-109800135D02*
X152612850Y-110305130D01*
D65*
X149274405Y-139820167D02*
X141705205Y-139820167D01*
D66*
X154793150Y-110525134D02*
X154443457Y-110525134D01*
D65*
X144076153Y-170125136D02*
X144076153Y-154471138D01*
D66*
X154443457Y-110525134D02*
X153718455Y-109800137D01*
D65*
X141248149Y-139363114D02*
X141248149Y-110048790D01*
X150018153Y-137305134D02*
X149274403Y-138048883D01*
%TO.N,RST*%
D66*
X154793157Y-107985134D02*
X154443459Y-107985134D01*
X153718458Y-107260138D02*
X153117848Y-107260137D01*
X153117848Y-107260137D02*
X152612847Y-107765137D01*
D65*
X140181203Y-152316968D02*
X140181204Y-108575734D01*
X141921803Y-106835135D02*
X146033833Y-106835134D01*
D66*
X152612847Y-107765137D02*
X146838150Y-107765132D01*
D65*
X136110158Y-161980136D02*
X136110159Y-158209767D01*
X136110159Y-158209767D02*
X136110157Y-156388014D01*
X146033833Y-106835134D02*
X146618148Y-107419449D01*
X136110158Y-161980136D02*
X136110156Y-167230136D01*
X146618148Y-107419449D02*
X146618149Y-107985136D01*
X136110157Y-156388014D02*
X140181203Y-152316968D01*
X140181204Y-108575734D02*
X141921803Y-106835135D01*
D66*
X154443459Y-107985134D02*
X153718458Y-107260138D01*
%TO.N,RAW*%
D65*
X137016155Y-108255134D02*
X136491036Y-108255135D01*
D66*
X154443458Y-102905136D02*
X153718459Y-102180133D01*
X153718459Y-102180133D02*
X153117849Y-102180133D01*
D65*
X136491036Y-108255135D02*
X135609203Y-109136967D01*
D66*
X153117849Y-102180133D02*
X152612849Y-102685133D01*
X152612849Y-102685133D02*
X146838153Y-102685135D01*
X154793153Y-102905136D02*
X154443458Y-102905136D01*
%TO.N,dis1-pad4*%
D65*
X153155185Y-146456876D02*
X153155185Y-143488100D01*
X153155185Y-143488100D02*
X153238150Y-143405134D01*
%TO.N,dis1-pad3*%
X150698151Y-146368903D02*
X150610184Y-146456871D01*
X150698152Y-143405135D02*
X150698151Y-146368903D01*
%TO.N,dis1-pad2*%
X148116185Y-143447103D02*
X148158151Y-143405137D01*
X148116185Y-146456873D02*
X148116185Y-143447103D01*
%TO.N,dis1-pad1*%
X145618151Y-143405134D02*
X145618152Y-146409908D01*
X145618152Y-146409908D02*
X145571182Y-146456876D01*
%TO.N,middle_top*%
X218439151Y-101709133D02*
X214158317Y-101709135D01*
X220293152Y-99855134D02*
X218439151Y-101709133D01*
X214158317Y-101709135D02*
X212979316Y-100530132D01*
X208055152Y-110564136D02*
X206176151Y-108685138D01*
X212018156Y-110564134D02*
X208055156Y-110564633D01*
X212979316Y-100530132D02*
X212018154Y-100530136D01*
%TO.N,pinky_top*%
X264305238Y-126271379D02*
X262157465Y-127775269D01*
X250393568Y-134692574D02*
X248869398Y-132515835D01*
X256985308Y-125666088D02*
X256038747Y-125499184D01*
X262157465Y-127775269D02*
X257941666Y-127031910D01*
X257941666Y-127031910D02*
X256985308Y-125666088D01*
X254296362Y-135380745D02*
X250393476Y-134693069D01*
%TO.N,inner_top*%
X182293152Y-112855138D02*
X180439156Y-114709133D01*
X174979318Y-113530135D02*
X174018152Y-113530133D01*
X180439156Y-114709133D02*
X176158324Y-114709136D01*
X174018152Y-123564134D02*
X170055152Y-123564630D01*
X176158324Y-114709136D02*
X174979318Y-113530135D01*
X170055155Y-123564134D02*
X168176158Y-121685131D01*
%TO.N,middle_home*%
X212018153Y-129564138D02*
X208055153Y-129564636D01*
X220293152Y-118855133D02*
X218439151Y-120709136D01*
X212979319Y-119530130D02*
X212018158Y-119530134D01*
X208055153Y-129564137D02*
X206176158Y-127685136D01*
X218439151Y-120709136D02*
X214158318Y-120709133D01*
X214158318Y-120709133D02*
X212979319Y-119530130D01*
%TO.N,index_home*%
X201293154Y-127855137D02*
X199439152Y-129709135D01*
X193979316Y-128530136D02*
X193018153Y-128530135D01*
X193018153Y-138564135D02*
X189055156Y-138564634D01*
X195158316Y-129709139D02*
X193979316Y-128530136D01*
X189055153Y-138564135D02*
X187176152Y-136685133D01*
X199439152Y-129709135D02*
X195158316Y-129709139D01*
%TO.N,pinky_extra_home*%
X270576629Y-152467368D02*
X266673750Y-151779693D01*
X278437736Y-144861889D02*
X274221941Y-144118531D01*
X266673837Y-151779200D02*
X265149668Y-149602462D01*
X280585514Y-143357998D02*
X278437736Y-144861889D01*
X274221941Y-144118531D02*
X273265581Y-142752714D01*
X273265581Y-142752714D02*
X272319018Y-142585807D01*
%TO.N,pinky_extra_bottom*%
X263374523Y-170490549D02*
X261850359Y-168313809D01*
X275138423Y-163573236D02*
X270922622Y-162829877D01*
X267277315Y-171178712D02*
X263374432Y-170491042D01*
X269966267Y-161464058D02*
X269019704Y-161297154D01*
X270922622Y-162829877D02*
X269966267Y-161464058D01*
X277286195Y-162069344D02*
X275138423Y-163573236D01*
%TO.N,3_r0*%
X158683402Y-189715684D02*
X155251595Y-191697613D01*
X159816655Y-178836532D02*
X156109342Y-180976949D01*
X154498794Y-180545404D02*
X153666399Y-181025987D01*
X160495263Y-176303921D02*
X159816655Y-178836532D01*
X156109342Y-180976949D02*
X154498794Y-180545404D01*
X155251344Y-191697184D02*
X152684581Y-191009426D01*
%TO.N,1_r0*%
X192005152Y-179514135D02*
X190126157Y-177635137D01*
X196929322Y-169480134D02*
X195968151Y-169480136D01*
X202389152Y-170659137D02*
X198108317Y-170659133D01*
X195968151Y-179514137D02*
X192005152Y-179514634D01*
X198108317Y-170659133D02*
X196929322Y-169480134D01*
X204243154Y-168805133D02*
X202389152Y-170659137D01*
%TO.N,SW18B*%
X155540155Y-156307137D02*
X155540154Y-151877249D01*
X155540154Y-151877249D02*
X155480184Y-151817280D01*
%TO.N,index_bottom*%
X199439155Y-148709137D02*
X195158322Y-148709134D01*
X189055157Y-157564136D02*
X187176151Y-155685135D01*
X201293153Y-146855139D02*
X199439155Y-148709137D01*
X193018153Y-157564132D02*
X189055151Y-157564635D01*
X195158322Y-148709134D02*
X193979322Y-147530133D01*
X193979322Y-147530133D02*
X193018154Y-147530135D01*
%TO.N,ring_bottom*%
X226579374Y-158570738D02*
X224836026Y-156565241D01*
X237555766Y-150461660D02*
X233285363Y-150163044D01*
X230532720Y-158847185D02*
X226579336Y-158571240D01*
X239534583Y-148741508D02*
X237555766Y-150461660D01*
X233285363Y-150163044D02*
X232191478Y-148904671D01*
X232191478Y-148904671D02*
X231232657Y-148837625D01*
%TO.N,2_r0*%
X172827060Y-183183794D02*
X170525767Y-181855142D01*
X176655025Y-182158092D02*
X172827185Y-183184277D01*
X180565393Y-171942942D02*
X176430425Y-173050905D01*
X176430425Y-173050905D02*
X174986451Y-172217223D01*
X181876371Y-169672266D02*
X180565393Y-171942942D01*
X174986451Y-172217223D02*
X174058032Y-172465996D01*
%TO.N,P18*%
X137076154Y-176075137D02*
X137076152Y-170125136D01*
%TO.N,P15*%
X145576154Y-174325136D02*
X145576153Y-171875136D01*
%TO.N,middle_bottom*%
X208055153Y-148564133D02*
X206176153Y-146685136D01*
X212018152Y-148564134D02*
X208055152Y-148564637D01*
X218439152Y-139709135D02*
X214158319Y-139709134D01*
X220293154Y-137855134D02*
X218439152Y-139709135D01*
X214158319Y-139709134D02*
X212979318Y-138530137D01*
X212979318Y-138530137D02*
X212018151Y-138530134D01*
%TO.N,4_r0*%
X140447394Y-204474124D02*
X137790092Y-204474125D01*
X141528561Y-188248143D02*
X141528562Y-190870095D01*
X141528562Y-190870095D02*
X138501552Y-193897104D01*
X138501552Y-193897104D02*
X136834198Y-193897104D01*
X143249659Y-201671861D02*
X140447747Y-204474481D01*
X136834198Y-193897104D02*
X136154550Y-194576752D01*
%TO.N,inner_home*%
X174018154Y-142564136D02*
X170055155Y-142564634D01*
X170055149Y-142564134D02*
X168176158Y-140685136D01*
X182293154Y-131855135D02*
X180439152Y-133709131D01*
X174979318Y-132530139D02*
X174018150Y-132530135D01*
X176158321Y-133709137D02*
X174979318Y-132530139D01*
X180439152Y-133709131D02*
X176158321Y-133709137D01*
%TO.N,pinky_bottom*%
X257706609Y-163694072D02*
X255558834Y-165197960D01*
X243794933Y-172115271D02*
X242270766Y-169938532D01*
X247697729Y-172803439D02*
X243794847Y-172115760D01*
X255558834Y-165197960D02*
X251343035Y-164454599D01*
X251343035Y-164454599D02*
X250386679Y-163088784D01*
X250386679Y-163088784D02*
X249440115Y-162921878D01*
%TO.N,pinky_home*%
X254642353Y-145743253D02*
X253685995Y-144377435D01*
X253685995Y-144377435D02*
X252739431Y-144210530D01*
X258858151Y-146486614D02*
X254642353Y-145743253D01*
X247094250Y-153403924D02*
X245570085Y-151227186D01*
X250997040Y-154092087D02*
X247094165Y-153404416D01*
X261005924Y-144982725D02*
X258858151Y-146486614D01*
%TO.N,index_top*%
X189055150Y-119564133D02*
X187176154Y-117685136D01*
X193018153Y-119564138D02*
X189055152Y-119564634D01*
X199439153Y-110709135D02*
X195158318Y-110709133D01*
X201293155Y-108855136D02*
X199439153Y-110709135D01*
X195158318Y-110709133D02*
X193979318Y-109530132D01*
X193979318Y-109530132D02*
X193018152Y-109530136D01*
%TO.N,inner_bottom*%
X182293151Y-150855137D02*
X180439152Y-152709134D01*
X174018153Y-161564134D02*
X170055154Y-161564636D01*
X180439152Y-152709134D02*
X176158319Y-152709131D01*
X170055152Y-161564133D02*
X168176157Y-159685136D01*
X176158319Y-152709131D02*
X174979318Y-151530131D01*
X174979318Y-151530131D02*
X174018156Y-151530134D01*
%TO.N,DISP1_1*%
D66*
X144938154Y-137305138D02*
X144938153Y-135555139D01*
%TO.N,DISP1_2*%
X147478152Y-137305130D02*
X147478153Y-135555132D01*
%TO.N,DISP1_4*%
X152558153Y-137305136D02*
X152558154Y-135555133D01*
%TO.N,DISP1_5*%
X155098150Y-137305134D02*
X155098158Y-135555139D01*
%TD*%
M02*
