%TF.GenerationSoftware,KiCad,Pcbnew,10.0.4*%
%TF.CreationDate,2026-08-20T21:04:32-06:00*%
%TF.ProjectId,KLON -nice_view - Copy,4b4c4f4e-202d-46e6-9963-655f76696577,v1.0.0*%
%TF.SameCoordinates,Original*%
%TF.FileFunction,Profile,NP*%
%FSLAX46Y46*%
G04 Gerber Fmt 4.6, Leading zero omitted, Abs format (unit mm)*
G04 Created by KiCad (PCBNEW 10.0.4) date 2026-08-20 21:04:32*
%MOMM*%
%LPD*%
G01*
G04 APERTURE LIST*
%TA.AperFunction,Profile*%
%ADD10C,0.150000*%
%TD*%
%TA.AperFunction,Profile*%
%ADD11C,0.050000*%
%TD*%
G04 APERTURE END LIST*
D10*
X124257476Y-197246082D02*
G75*
G02*
X124257470Y-196256124I495124J494982D01*
G01*
X124257476Y-197246082D02*
X137833929Y-210822532D01*
X131026940Y-189486665D02*
X124257476Y-196256129D01*
X131026940Y-189486665D02*
G75*
G02*
X131065896Y-189450570I492560J-492535D01*
G01*
X131065894Y-189450568D02*
G75*
G02*
X133718153Y-187241757I74514606J-86777632D01*
G01*
X133718154Y-98005136D02*
G75*
G02*
X134418151Y-97305054I700046J36D01*
G01*
X133718152Y-183605136D02*
X141192746Y-183605134D01*
X133718152Y-187241756D02*
X133718152Y-183605136D01*
X133718159Y-182605135D02*
X133718154Y-98005136D01*
X134418151Y-97305134D02*
X201718154Y-97305134D01*
X138823884Y-210822533D02*
G75*
G02*
X137833922Y-210822539I-494984J494933D01*
G01*
X138823884Y-210822533D02*
X145609500Y-204036913D01*
X141192746Y-183605134D02*
G75*
G02*
X141421101Y-183676762I-46J-399966D01*
G01*
X141421115Y-183676742D02*
X141849536Y-183974683D01*
X141662464Y-182605131D02*
X133718159Y-182605135D01*
X141662464Y-182605131D02*
G75*
G02*
X141932887Y-182710369I36J-399969D01*
G01*
X142277913Y-183992692D02*
G75*
G02*
X141849526Y-183974698I-200013J346592D01*
G01*
X142277913Y-183992692D02*
X142451873Y-183892258D01*
X142522278Y-183251090D02*
X141932877Y-182710380D01*
X142522278Y-183251090D02*
G75*
G02*
X142451842Y-183892204I-270478J-294710D01*
G01*
X143803006Y-187142085D02*
G75*
G02*
X143982341Y-186472706I424494J244985D01*
G01*
X143803006Y-187142085D02*
X147113007Y-192875174D01*
X143999683Y-186462738D02*
X143982358Y-186472735D01*
X143999683Y-186462738D02*
G75*
G02*
X144669087Y-186642054I245017J-424462D01*
G01*
X145614676Y-204031678D02*
G75*
G02*
X150792239Y-199247786I50371924J-49323322D01*
G01*
X147782361Y-193054528D02*
G75*
G02*
X147113061Y-192875143I-244961J424328D01*
G01*
X147782361Y-193054528D02*
X147799678Y-193044527D01*
X147979033Y-192375174D02*
X144669032Y-186642086D01*
X147979033Y-192375174D02*
G75*
G02*
X147799661Y-193044497I-424533J-244926D01*
G01*
X149103007Y-196321952D02*
G75*
G02*
X149282337Y-195652555I424293J245052D01*
G01*
X149282363Y-195652600D02*
X149299681Y-195642607D01*
X149299681Y-195642607D02*
G75*
G02*
X149969099Y-195821918I245019J-424493D01*
G01*
X149969037Y-195821954D02*
X151574960Y-198603499D01*
X150792240Y-199247787D02*
X149103007Y-196321952D01*
X151574960Y-198603499D02*
G75*
G02*
X195967974Y-182855130I44413640J-54753601D01*
G01*
X195968181Y-182855139D02*
X205568155Y-182855135D01*
X201718152Y-94005134D02*
X201718154Y-97305134D01*
X201718152Y-94005134D02*
G75*
G02*
X202418155Y-93305052I700048J34D01*
G01*
X206268151Y-182155132D02*
G75*
G02*
X205568155Y-182855051I-699951J32D01*
G01*
X206268151Y-182155132D02*
X206268150Y-169282277D01*
X221618155Y-93305135D02*
X202418155Y-93305134D01*
X221618155Y-93305135D02*
G75*
G02*
X222318065Y-94005134I-55J-699965D01*
G01*
X222318153Y-97305130D02*
X222318155Y-94005134D01*
X222318153Y-97305130D02*
X262418155Y-97305133D01*
X222672837Y-169282275D02*
X206268150Y-169282277D01*
X222672837Y-169282275D02*
X237674740Y-170331310D01*
X237095603Y-173615740D02*
X237674740Y-170331310D01*
X237663417Y-174426654D02*
G75*
G02*
X237095675Y-173615753I121483J689254D01*
G01*
X246318151Y-115555136D02*
X260718157Y-115555133D01*
X246318154Y-104155136D02*
X246318151Y-115555136D01*
X256571729Y-177760701D02*
X237663417Y-174426654D01*
X257382646Y-177192891D02*
G75*
G02*
X256571724Y-177760731I-689346J121491D01*
G01*
X257382646Y-177192891D02*
X258877751Y-168713697D01*
X258877751Y-168713697D02*
G75*
G02*
X259445404Y-168316204I482449J-84903D01*
G01*
X259114135Y-173131868D02*
X259862558Y-168887346D01*
X259114135Y-173131868D02*
X276151309Y-176135981D01*
X259465091Y-168319698D02*
G75*
G02*
X259862574Y-168887349I-84991J-482502D01*
G01*
X259465092Y-168319704D02*
X259445399Y-168316230D01*
D11*
X260155465Y-163790359D02*
X260894072Y-163920597D01*
X260632998Y-161082137D02*
X260155465Y-163790359D01*
D10*
X260718152Y-104155136D02*
X246318154Y-104155136D01*
X260718157Y-115555133D02*
X260718152Y-104155136D01*
X261316133Y-157476398D02*
G75*
G02*
X260951126Y-156955094I78067J443098D01*
G01*
X261316133Y-157476398D02*
X261414620Y-157493759D01*
D11*
X261371603Y-161212374D02*
X260632998Y-161082137D01*
X261371603Y-161212374D02*
X260894072Y-163920597D01*
D10*
X261935921Y-157128743D02*
G75*
G02*
X261414608Y-157493830I-443221J78143D01*
G01*
X261935921Y-157128743D02*
X263168825Y-150136605D01*
X262184014Y-149962957D02*
X260951113Y-156955092D01*
X262184014Y-149962957D02*
G75*
G02*
X262705316Y-149597956I443286J-78343D01*
G01*
X262418155Y-97305133D02*
G75*
G02*
X263118067Y-98005134I-55J-699967D01*
G01*
X262803803Y-149615297D02*
X262705319Y-149597937D01*
X262803803Y-149615297D02*
G75*
G02*
X263168786Y-150136598I-78103J-443103D01*
G01*
X263118153Y-98005134D02*
X263118154Y-119411016D01*
X263118154Y-119411016D02*
X266747509Y-120050969D01*
D11*
X263199560Y-144603714D02*
X263938165Y-144733951D01*
X263590269Y-142387897D02*
X263199560Y-144603714D01*
X264328874Y-142518133D02*
X263590269Y-142387897D01*
X264328874Y-142518133D02*
X263938165Y-144733951D01*
D10*
X264344199Y-137711949D02*
X267315317Y-120861890D01*
X264741661Y-138279591D02*
G75*
G02*
X264344114Y-137711934I85039J482591D01*
G01*
X264741661Y-138279591D02*
X264761365Y-138283068D01*
X265329003Y-137885597D02*
G75*
G02*
X264761363Y-138283078I-482503J84997D01*
G01*
X265329003Y-137885597D02*
X265990610Y-134133480D01*
X266747509Y-120050969D02*
G75*
G02*
X267315317Y-120861888I-121509J-689331D01*
G01*
X276962236Y-175568170D02*
G75*
G02*
X276151303Y-176136014I-689336J121470D01*
G01*
X276962236Y-175568170D02*
X283595593Y-137948514D01*
X283027780Y-137137596D02*
X265990610Y-134133480D01*
X283027780Y-137137596D02*
G75*
G02*
X283595501Y-137948498I-121580J-689304D01*
G01*
M02*
