%TF.GenerationSoftware,KiCad,Pcbnew,10.0.4*%
%TF.CreationDate,2026-08-20T21:04:32-06:00*%
%TF.ProjectId,KLON -nice_view - Copy,4b4c4f4e-202d-46e6-9963-655f76696577,v1.0.0*%
%TF.SameCoordinates,Original*%
%TF.FileFunction,Soldermask,Bot*%
%TF.FilePolarity,Negative*%
%FSLAX46Y46*%
G04 Gerber Fmt 4.6, Leading zero omitted, Abs format (unit mm)*
G04 Created by KiCad (PCBNEW 10.0.4) date 2026-08-20 21:04:32*
%MOMM*%
%LPD*%
G01*
G04 APERTURE LIST*
G04 Aperture macros list*
%AMRoundRect*
0 Rectangle with rounded corners*
0 $1 Rounding radius*
0 $2 $3 $4 $5 $6 $7 $8 $9 X,Y pos of 4 corners*
0 Add a 4 corners polygon primitive as box body*
4,1,4,$2,$3,$4,$5,$6,$7,$8,$9,$2,$3,0*
0 Add four circle primitives for the rounded corners*
1,1,$1+$1,$2,$3*
1,1,$1+$1,$4,$5*
1,1,$1+$1,$6,$7*
1,1,$1+$1,$8,$9*
0 Add four rect primitives between the rounded corners*
20,1,$1+$1,$2,$3,$4,$5,0*
20,1,$1+$1,$4,$5,$6,$7,0*
20,1,$1+$1,$6,$7,$8,$9,0*
20,1,$1+$1,$8,$9,$2,$3,0*%
%AMFreePoly0*
4,1,16,0.535355,0.660355,0.550000,0.625000,0.550000,-0.625000,0.535355,-0.660355,0.500000,-0.675000,-0.650000,-0.675000,-0.685355,-0.660355,-0.700000,-0.625000,-0.689043,-0.593765,-0.214031,0.000000,-0.689043,0.593765,-0.699694,0.630522,-0.681235,0.664043,-0.650000,0.675000,0.500000,0.675000,0.535355,0.660355,0.535355,0.660355,$1*%
%AMFreePoly1*
4,1,16,-0.214645,0.660355,-0.210957,0.656235,0.289043,0.031235,0.299694,-0.005522,0.289043,-0.031235,-0.210957,-0.656235,-0.244478,-0.674694,-0.250000,-0.675000,-0.500000,-0.675000,-0.535355,-0.660355,-0.550000,-0.625000,-0.550000,0.625000,-0.535355,0.660355,-0.500000,0.675000,-0.250000,0.675000,-0.214645,0.660355,-0.214645,0.660355,$1*%
%AMFreePoly2*
4,1,16,0.635355,0.285355,0.650000,0.250000,0.650000,-1.000000,0.635355,-1.035355,0.600000,-1.050000,0.564645,-1.035355,0.000000,-0.470710,-0.564645,-1.035355,-0.600000,-1.050000,-0.635355,-1.035355,-0.650000,-1.000000,-0.650000,0.250000,-0.635355,0.285355,-0.600000,0.300000,0.600000,0.300000,0.635355,0.285355,0.635355,0.285355,$1*%
%AMFreePoly3*
4,1,14,0.035355,0.435355,0.635355,-0.164645,0.650000,-0.200000,0.650000,-0.400000,0.635355,-0.435355,0.600000,-0.450000,-0.600000,-0.450000,-0.635355,-0.435355,-0.650000,-0.400000,-0.650000,-0.200000,-0.635355,-0.164645,-0.035355,0.435355,0.000000,0.450000,0.035355,0.435355,0.035355,0.435355,$1*%
%AMFreePoly4*
4,1,14,1.335355,1.335355,1.350000,1.300000,1.350000,-1.300000,1.335355,-1.335355,1.300000,-1.350000,-0.117000,-1.350000,-0.152355,-1.335355,-1.335355,-0.152355,-1.350000,-0.116999,-1.350000,1.300000,-1.335355,1.335355,-1.300000,1.350000,1.300000,1.350000,1.335355,1.335355,1.335355,1.335355,$1*%
%AMFreePoly5*
4,1,14,1.310355,1.285355,1.324999,1.250000,1.325000,-1.250000,1.310355,-1.285355,1.275000,-1.300001,-0.775000,-1.300000,-0.810355,-1.285355,-1.310355,-0.785355,-1.325000,-0.750000,-1.325000,1.250000,-1.310355,1.285355,-1.275000,1.300001,1.275000,1.300000,1.310355,1.285355,1.310355,1.285355,$1*%
%AMFreePoly6*
4,1,14,1.335355,1.335355,1.350000,1.300000,1.350000,0.780000,1.335355,0.744645,-0.744645,-1.335355,-0.780000,-1.350000,-1.300000,-1.350000,-1.335355,-1.335355,-1.350000,-1.300000,-1.350000,1.300000,-1.335355,1.335355,-1.300000,1.350000,1.300000,1.350000,1.335355,1.335355,1.335355,1.335355,$1*%
%AMFreePoly7*
4,1,14,1.310355,1.285355,1.325000,1.250000,1.325000,-1.250000,1.310355,-1.285355,1.275000,-1.300000,-1.275000,-1.300000,-1.310355,-1.285355,-1.325000,-1.250000,-1.325000,0.250000,-1.310355,0.285355,-0.310355,1.285355,-0.275000,1.300000,1.275000,1.300000,1.310355,1.285355,1.310355,1.285355,$1*%
G04 Aperture macros list end*
%ADD10FreePoly0,180.000000*%
%ADD11C,0.900000*%
%ADD12FreePoly0,0.000000*%
%ADD13FreePoly1,0.000000*%
%ADD14C,1.800000*%
%ADD15FreePoly1,180.000000*%
%ADD16RoundRect,0.050000X-0.490758X-0.567148X0.407050X-0.629929X0.490758X0.567148X-0.407050X0.629929X0*%
%ADD17FreePoly2,270.000000*%
%ADD18O,1.850000X1.300000*%
%ADD19FreePoly3,270.000000*%
%ADD20O,1.700000X2.100000*%
%ADD21C,2.300000*%
%ADD22RoundRect,0.050000X-0.450000X-0.600000X0.450000X-0.600000X0.450000X0.600000X-0.450000X0.600000X0*%
%ADD23RoundRect,0.050000X-0.547352X-0.512743X0.338975X-0.669026X0.547352X0.512743X-0.338975X0.669026X0*%
%ADD24C,3.900000*%
%ADD25FreePoly1,270.000000*%
%ADD26FreePoly0,270.000000*%
%ADD27RoundRect,0.050000X-0.089711X-0.744615X0.689711X-0.294615X0.089711X0.744615X-0.689711X0.294615X0*%
%ADD28C,2.100000*%
%ADD29RoundRect,0.050000X-1.600000X-1.000000X1.600000X-1.000000X1.600000X1.000000X-1.600000X1.000000X0*%
%ADD30RoundRect,0.050000X-0.279375X-0.696024X0.589958X-0.463087X0.279375X0.696024X-0.589958X0.463087X0*%
%ADD31C,1.300000*%
%ADD32O,2.600000X1.800000*%
%ADD33RoundRect,0.050000X-0.500000X0.775000X-0.500000X-0.775000X0.500000X-0.775000X0.500000X0.775000X0*%
%ADD34RoundRect,0.050000X0.106066X-0.742462X0.742462X-0.106066X-0.106066X0.742462X-0.742462X0.106066X0*%
%ADD35RoundRect,0.050000X0.400000X-0.500000X0.400000X0.500000X-0.400000X0.500000X-0.400000X-0.500000X0*%
%ADD36C,1.000000*%
%ADD37RoundRect,0.050000X0.750000X-0.350000X0.750000X0.350000X-0.750000X0.350000X-0.750000X-0.350000X0*%
%ADD38O,1.800000X1.800000*%
%ADD39RoundRect,0.050000X-0.600000X0.300000X-0.600000X-0.300000X0.600000X-0.300000X0.600000X0.300000X0*%
%ADD40C,2.000000*%
%ADD41C,3.100000*%
%ADD42C,5.100000*%
%ADD43FreePoly4,350.000000*%
%ADD44RoundRect,0.050000X-1.505993X-1.054507X1.054507X-1.505993X1.505993X1.054507X-1.054507X1.505993X0*%
%ADD45C,4.200000*%
%ADD46RoundRect,0.050000X1.472690X1.009608X-1.038570X1.452411X-1.472690X-1.009608X1.038570X-1.452411X0*%
%ADD47FreePoly5,170.000000*%
%ADD48RoundRect,0.050000X0.017678X1.785445X-1.785445X-0.017678X-0.017678X-1.785445X1.785445X0.017678X0*%
%ADD49FreePoly5,225.000000*%
%ADD50FreePoly4,0.000000*%
%ADD51FreePoly6,0.000000*%
%ADD52RoundRect,0.050000X-1.300000X-1.300000X1.300000X-1.300000X1.300000X1.300000X-1.300000X1.300000X0*%
%ADD53RoundRect,0.050000X1.275000X1.250000X-1.275000X1.250000X-1.275000X-1.250000X1.275000X-1.250000X0*%
%ADD54FreePoly5,180.000000*%
%ADD55FreePoly7,180.000000*%
%ADD56FreePoly4,30.000000*%
%ADD57RoundRect,0.050000X-0.475833X-1.775833X1.775833X-0.475833X0.475833X1.775833X-1.775833X0.475833X0*%
%ADD58FreePoly4,356.000000*%
%ADD59RoundRect,0.050000X-1.387517X-1.206150X1.206150X-1.387517X1.387517X1.206150X-1.206150X1.387517X0*%
%ADD60RoundRect,0.050000X0.479182X1.720032X-1.729182X0.445032X-0.479182X-1.720032X1.729182X-0.445032X0*%
%ADD61FreePoly5,210.000000*%
%ADD62FreePoly4,45.000000*%
%ADD63RoundRect,0.050000X0.000000X-1.838478X1.838478X0.000000X0.000000X1.838478X-1.838478X0.000000X0*%
%ADD64RoundRect,0.050000X1.359090X1.158016X-1.184699X1.335895X-1.359090X-1.158016X1.184699X-1.335895X0*%
%ADD65FreePoly5,176.000000*%
%ADD66FreePoly4,15.000000*%
%ADD67RoundRect,0.050000X-0.919239X-1.592168X1.592168X-0.919239X0.919239X1.592168X-1.592168X0.919239X0*%
%ADD68RoundRect,0.050000X0.908032X1.537402X-1.555079X0.877413X-0.908032X-1.537402X1.555079X-0.877413X0*%
%ADD69FreePoly5,195.000000*%
G04 APERTURE END LIST*
D10*
%TO.C,MCU1*%
X154793149Y-102905133D03*
D11*
X146618152Y-102905132D03*
D10*
X154793149Y-105445134D03*
D11*
X146618150Y-105445132D03*
D10*
X154793149Y-107985134D03*
D11*
X146618148Y-107985134D03*
D10*
X154793148Y-110525133D03*
D11*
X146618148Y-110525133D03*
D10*
X154793149Y-113065134D03*
D11*
X146618150Y-113065134D03*
D10*
X154793149Y-115605134D03*
D11*
X146618148Y-115605133D03*
D10*
X154793149Y-118145133D03*
D11*
X146618149Y-118145134D03*
D10*
X154793148Y-120685135D03*
D11*
X146618149Y-120685134D03*
D10*
X154793151Y-123225134D03*
D11*
X146618149Y-123225134D03*
D10*
X154793149Y-125765134D03*
D11*
X146618150Y-125765136D03*
D10*
X154793149Y-128305135D03*
D11*
X146618149Y-128305133D03*
D10*
X154793151Y-130845134D03*
D11*
X146618149Y-130845134D03*
X153418149Y-130845134D03*
D12*
X145243147Y-130845133D03*
D11*
X153418146Y-128305136D03*
D12*
X145243149Y-128305135D03*
D11*
X153418148Y-125765136D03*
D12*
X145243149Y-125765134D03*
D11*
X153418150Y-123225134D03*
D12*
X145243149Y-123225134D03*
D11*
X153418150Y-120685135D03*
D12*
X145243150Y-120685135D03*
D11*
X153418148Y-118145134D03*
D12*
X145243149Y-118145134D03*
D11*
X153418150Y-115605135D03*
D12*
X145243149Y-115605134D03*
D11*
X153418149Y-113065134D03*
D12*
X145243149Y-113065135D03*
D11*
X153418149Y-110525134D03*
D12*
X145243150Y-110525133D03*
D11*
X153418149Y-107985134D03*
D12*
X145243147Y-107985134D03*
D11*
X153418148Y-105445132D03*
D12*
X145243149Y-105445134D03*
D11*
X153418149Y-102905135D03*
D12*
X145243149Y-102905133D03*
D13*
X144518149Y-102905135D03*
D14*
X142398149Y-102905134D03*
D13*
X144518149Y-105445134D03*
D14*
X142398148Y-105445133D03*
D13*
X144518148Y-107985133D03*
D14*
X142398149Y-107985134D03*
D13*
X144518149Y-110525134D03*
D14*
X142398149Y-110525134D03*
D13*
X144518150Y-113065133D03*
D14*
X142398151Y-113065134D03*
D13*
X144518149Y-115605134D03*
D14*
X142398149Y-115605134D03*
D13*
X144518147Y-118145133D03*
D14*
X142398149Y-118145135D03*
D13*
X144518149Y-120685134D03*
D14*
X142398150Y-120685134D03*
D13*
X144518148Y-123225135D03*
D14*
X142398149Y-123225134D03*
D13*
X144518149Y-125765134D03*
D14*
X142398148Y-125765135D03*
D13*
X144518149Y-128305133D03*
D14*
X142398149Y-128305134D03*
D13*
X144518148Y-130845133D03*
D14*
X142398149Y-130845134D03*
X157638149Y-130845134D03*
D15*
X155518150Y-130845132D03*
D14*
X157638149Y-128305134D03*
D15*
X155518149Y-128305133D03*
D14*
X157638150Y-125765135D03*
D15*
X155518149Y-125765134D03*
D14*
X157638149Y-123225134D03*
D15*
X155518150Y-123225135D03*
D14*
X157638149Y-120685134D03*
D15*
X155518149Y-120685134D03*
D14*
X157638147Y-118145134D03*
D15*
X155518148Y-118145135D03*
D14*
X157638149Y-115605134D03*
D15*
X155518149Y-115605134D03*
D14*
X157638149Y-113065133D03*
D15*
X155518151Y-113065135D03*
D14*
X157638148Y-110525134D03*
D15*
X155518149Y-110525134D03*
D14*
X157638149Y-107985134D03*
D15*
X155518150Y-107985133D03*
D14*
X157638150Y-105445133D03*
D15*
X155518149Y-105445134D03*
D14*
X157638149Y-102905134D03*
D15*
X155518149Y-102905135D03*
%TD*%
D16*
%TO.C,D11*%
X230104616Y-141315615D03*
X233396578Y-141545811D03*
%TD*%
%TO.C,D12*%
X231429988Y-122361896D03*
X234721950Y-122592092D03*
%TD*%
D17*
%TO.C,JST1*%
X138116152Y-147730134D03*
X138116152Y-149730134D03*
D18*
X135300152Y-149730134D03*
X135300152Y-147730134D03*
D19*
X137100153Y-149730133D03*
X137100153Y-147730135D03*
%TD*%
D20*
%TO.C,SSD1306*%
X153238152Y-143405134D03*
X150698152Y-143405134D03*
X148158152Y-143405136D03*
X145618152Y-143405134D03*
%TD*%
D21*
%TO.C,MH2*%
X198350153Y-100722132D03*
%TD*%
%TO.C,MH4*%
X241940154Y-101732135D03*
%TD*%
D22*
%TO.C,D9*%
X210368156Y-112105131D03*
X213668156Y-112105133D03*
%TD*%
D23*
%TO.C,D15*%
X252403833Y-136611812D03*
X255653699Y-137184850D03*
%TD*%
D24*
%TO.C,H1*%
X202556153Y-121280133D03*
%TD*%
D22*
%TO.C,D3*%
X172368154Y-125105134D03*
X175668154Y-125105136D03*
%TD*%
D21*
%TO.C,MH5*%
X246983960Y-119937985D03*
%TD*%
D22*
%TO.C,D8*%
X210368147Y-131105136D03*
X213668147Y-131105138D03*
%TD*%
%TO.C,D5*%
X191368153Y-140105136D03*
X194668153Y-140105138D03*
%TD*%
D23*
%TO.C,D17*%
X268684104Y-153698437D03*
X271933970Y-154271475D03*
%TD*%
D24*
%TO.C,H2*%
X183506154Y-140330138D03*
%TD*%
D25*
%TO.C,XX6*%
X150610182Y-146456872D03*
D26*
X150610182Y-147181872D03*
%TD*%
D23*
%TO.C,D16*%
X265384792Y-172409785D03*
X268634658Y-172982823D03*
%TD*%
D21*
%TO.C,MH3*%
X227100155Y-100722135D03*
%TD*%
%TO.C,MH8*%
X220190338Y-131096135D03*
%TD*%
D27*
%TO.C,D20*%
X158024961Y-191875226D03*
X160882845Y-190225224D03*
%TD*%
D22*
%TO.C,D18*%
X194318156Y-181055138D03*
X197618156Y-181055140D03*
%TD*%
D28*
%TO.C,SW25*%
X141040154Y-156307137D03*
X141040154Y-161307137D03*
X141040154Y-158807137D03*
D29*
X148540154Y-153207137D03*
X148540154Y-164407137D03*
D28*
X155540154Y-161307137D03*
X155540154Y-156307137D03*
%TD*%
D22*
%TO.C,D4*%
X191368155Y-159105134D03*
X194668155Y-159105136D03*
%TD*%
D21*
%TO.C,MH9*%
X136270153Y-180007136D03*
%TD*%
D16*
%TO.C,D10*%
X228779240Y-160269332D03*
X232071202Y-160499528D03*
%TD*%
D25*
%TO.C,XX5*%
X148116184Y-146456873D03*
D26*
X148116184Y-147181873D03*
%TD*%
D30*
%TO.C,D19*%
X175460088Y-184073635D03*
X178647644Y-183219535D03*
%TD*%
D31*
%TO.C,J1*%
X135276152Y-173975140D03*
X142276153Y-173975135D03*
X135276153Y-172225135D03*
X142276155Y-172225135D03*
D32*
X144076153Y-176075135D03*
X144076153Y-170125135D03*
X140076154Y-176075136D03*
X140076153Y-170125135D03*
X137076152Y-176075135D03*
X137076152Y-170125134D03*
X145576154Y-174325135D03*
X145576153Y-171875135D03*
%TD*%
D25*
%TO.C,XX4*%
X145571183Y-146456876D03*
D26*
X145571183Y-147181876D03*
%TD*%
D22*
%TO.C,D7*%
X210368159Y-150105132D03*
X213668159Y-150105134D03*
%TD*%
D33*
%TO.C,RST1*%
X134410160Y-167230134D03*
X136110157Y-167230134D03*
X134410161Y-161980136D03*
X136110158Y-161980136D03*
%TD*%
D34*
%TO.C,D21*%
X143172584Y-203928241D03*
X145506040Y-201594787D03*
%TD*%
D22*
%TO.C,D2*%
X172368154Y-144105131D03*
X175668154Y-144105133D03*
%TD*%
D25*
%TO.C,XX7*%
X153155187Y-146456877D03*
D26*
X153155187Y-147181877D03*
%TD*%
D21*
%TO.C,MH1*%
X136270151Y-100722138D03*
%TD*%
D23*
%TO.C,D13*%
X245805204Y-174034510D03*
X249055070Y-174607548D03*
%TD*%
D21*
%TO.C,MH6*%
X232014588Y-166427017D03*
%TD*%
D23*
%TO.C,D14*%
X249104518Y-155323161D03*
X252354384Y-155896199D03*
%TD*%
D22*
%TO.C,D6*%
X191368155Y-121105130D03*
X194668155Y-121105132D03*
%TD*%
D21*
%TO.C,MH7*%
X220485882Y-164858996D03*
%TD*%
D35*
%TO.C,PWR1*%
X136366155Y-112655133D03*
X136366155Y-105355133D03*
D36*
X135256154Y-110505133D03*
X135256154Y-107505133D03*
D35*
X134156154Y-112655132D03*
X134156154Y-105355134D03*
D37*
X137016154Y-111255133D03*
X137016155Y-108255134D03*
X137016154Y-106755133D03*
%TD*%
D22*
%TO.C,D1*%
X172368156Y-163105134D03*
X175668156Y-163105136D03*
%TD*%
D24*
%TO.C,H3*%
X221606152Y-140330135D03*
%TD*%
D22*
%TO.C,D22*%
X152180184Y-151817277D03*
X155480184Y-151817279D03*
%TD*%
D38*
%TO.C,DISP1*%
X144938155Y-137305132D03*
X147478156Y-137305133D03*
X150018156Y-137305133D03*
X152558154Y-137305133D03*
D14*
X155098156Y-137305131D03*
D39*
X155098155Y-135555132D03*
X152558154Y-135555131D03*
X147478156Y-135555131D03*
X144938153Y-135555132D03*
X155098154Y-134655133D03*
X152558154Y-134655133D03*
X147478155Y-134655135D03*
X144938156Y-134655133D03*
%TD*%
D40*
%TO.C,S13*%
X243489701Y-164995092D03*
D41*
X244633286Y-161388887D03*
X249939351Y-160090551D03*
D42*
X248906144Y-165950157D03*
D41*
X254481362Y-163125369D03*
D40*
X254322587Y-166905222D03*
D43*
X246714105Y-159521853D03*
D44*
X257706609Y-163694067D03*
%TD*%
D40*
%TO.C,S34*%
X253908967Y-166832290D03*
D41*
X252217195Y-169113168D03*
X250525422Y-171394047D03*
D45*
X248906144Y-165950157D03*
D41*
X245522600Y-170511914D03*
X244712960Y-167789969D03*
D40*
X243903321Y-165068024D03*
D46*
X255442441Y-169681866D03*
D47*
X242270764Y-169938528D03*
%TD*%
D40*
%TO.C,S38*%
X276787871Y-146496227D03*
D41*
X275096099Y-148777105D03*
X273404326Y-151057984D03*
D45*
X271785048Y-145614094D03*
D41*
X268401504Y-150175851D03*
X267591864Y-147453906D03*
D40*
X266782225Y-144731961D03*
D46*
X278321345Y-149345803D03*
D47*
X265149668Y-149602465D03*
%TD*%
D40*
%TO.C,S42*%
X141921004Y-193159004D03*
D41*
X142819030Y-195853079D03*
X143717056Y-198547157D03*
D45*
X138328902Y-196751106D03*
D41*
X140124953Y-202139260D03*
X137430875Y-201241234D03*
D40*
X134736800Y-200343208D03*
D48*
X145134805Y-193537305D03*
D49*
X137790088Y-204474126D03*
%TD*%
D40*
%TO.C,S7*%
X206518151Y-141605140D03*
D41*
X207018151Y-137855140D03*
X212018151Y-135655140D03*
D42*
X212018151Y-141605140D03*
D41*
X217018150Y-137855140D03*
D40*
X217518151Y-141605140D03*
D50*
X208743151Y-135655140D03*
D51*
X220293151Y-137855140D03*
%TD*%
D40*
%TO.C,S18*%
X190468150Y-172555137D03*
D41*
X190968150Y-168805137D03*
X195968150Y-166605137D03*
D42*
X195968150Y-172555137D03*
D41*
X200968149Y-168805137D03*
D40*
X201468150Y-172555137D03*
D50*
X192693150Y-166605137D03*
D52*
X204243150Y-168805137D03*
%TD*%
D40*
%TO.C,S5*%
X187518156Y-131605137D03*
D41*
X188018156Y-127855137D03*
X193018156Y-125655137D03*
D42*
X193018156Y-131605137D03*
D41*
X198018155Y-127855137D03*
D40*
X198518156Y-131605137D03*
D50*
X189743156Y-125655137D03*
D52*
X201293156Y-127855137D03*
%TD*%
D40*
%TO.C,S22*%
X179098151Y-154605135D03*
D41*
X177828151Y-157145135D03*
X176558150Y-159685135D03*
D45*
X174018151Y-154605135D03*
D41*
X171478151Y-159685135D03*
X170208151Y-157145135D03*
D40*
X168938151Y-154605135D03*
D53*
X181103151Y-157145135D03*
D54*
X168176151Y-159685135D03*
%TD*%
D40*
%TO.C,S27*%
X198098153Y-112605137D03*
D41*
X196828153Y-115145137D03*
X195558152Y-117685137D03*
D45*
X193018153Y-112605137D03*
D41*
X190478153Y-117685137D03*
X189208153Y-115145137D03*
D40*
X187938153Y-112605137D03*
D53*
X200103153Y-115145137D03*
D54*
X187176153Y-117685137D03*
%TD*%
D40*
%TO.C,S36*%
X260507597Y-129409602D03*
D41*
X258815825Y-131690480D03*
X257124052Y-133971359D03*
D45*
X255504774Y-128527469D03*
D41*
X252121230Y-133089226D03*
X251311590Y-130367281D03*
D40*
X250501951Y-127645336D03*
D46*
X262041071Y-132259178D03*
D47*
X248869394Y-132515840D03*
%TD*%
D40*
%TO.C,S39*%
X201048150Y-172555137D03*
D41*
X199778150Y-175095137D03*
X198508149Y-177635137D03*
D45*
X195968150Y-172555137D03*
D41*
X193428150Y-177635137D03*
X192158150Y-175095137D03*
D40*
X190888150Y-172555137D03*
D53*
X203053150Y-175095137D03*
D54*
X190126150Y-177635137D03*
%TD*%
D40*
%TO.C,S16*%
X263069290Y-163370372D03*
D41*
X264212875Y-159764167D03*
X269518940Y-158465831D03*
D42*
X268485733Y-164325437D03*
D41*
X274060951Y-161500649D03*
D40*
X273902176Y-165280502D03*
D43*
X266293694Y-157897133D03*
D44*
X277286198Y-162069347D03*
%TD*%
D40*
%TO.C,S23*%
X179098153Y-135605131D03*
D41*
X177828153Y-138145131D03*
X176558152Y-140685131D03*
D45*
X174018153Y-135605131D03*
D41*
X171478153Y-140685131D03*
X170208153Y-138145131D03*
D40*
X168938153Y-135605131D03*
D55*
X181103153Y-138145131D03*
D54*
X168176153Y-140685131D03*
%TD*%
D40*
%TO.C,S1*%
X168518151Y-154605135D03*
D41*
X169018151Y-150855135D03*
X174018151Y-148655135D03*
D42*
X174018151Y-154605135D03*
D41*
X179018150Y-150855135D03*
D40*
X179518151Y-154605135D03*
D50*
X170743151Y-148655135D03*
D52*
X182293151Y-150855135D03*
%TD*%
D40*
%TO.C,S17*%
X266368605Y-144659029D03*
D41*
X267512190Y-141052824D03*
X272818255Y-139754488D03*
D42*
X271785048Y-145614094D03*
D41*
X277360266Y-142789306D03*
D40*
X277201491Y-146569159D03*
D43*
X269593009Y-139185790D03*
D44*
X280585513Y-143358004D03*
%TD*%
D40*
%TO.C,S29*%
X217098154Y-122605137D03*
D41*
X215828154Y-125145137D03*
X214558153Y-127685137D03*
D45*
X212018154Y-122605137D03*
D41*
X209478154Y-127685137D03*
X208208154Y-125145137D03*
D40*
X206938154Y-122605137D03*
D53*
X219103154Y-125145137D03*
D54*
X206176154Y-127685137D03*
%TD*%
D40*
%TO.C,S3*%
X168518154Y-116605134D03*
D41*
X169018154Y-112855134D03*
X174018154Y-110655134D03*
D42*
X174018154Y-116605134D03*
D41*
X179018153Y-112855134D03*
D40*
X179518154Y-116605134D03*
D50*
X170743154Y-110655134D03*
D52*
X182293154Y-112855134D03*
%TD*%
D40*
%TO.C,S20*%
X150440762Y-186439012D03*
D41*
X148998776Y-182941416D03*
X152228902Y-178536161D03*
D42*
X155203902Y-183689012D03*
D41*
X157659028Y-177941417D03*
D40*
X159967042Y-180939012D03*
D56*
X149392669Y-180173661D03*
D57*
X160495262Y-176303917D03*
%TD*%
D40*
%TO.C,S10*%
X225531552Y-151521473D03*
D41*
X226291918Y-147815488D03*
X231433205Y-145969629D03*
D42*
X231018154Y-151905134D03*
D41*
X236267561Y-148513051D03*
D40*
X236504756Y-152288795D03*
D58*
X228166182Y-145741175D03*
D59*
X239534583Y-148741503D03*
%TD*%
D40*
%TO.C,S41*%
X159603311Y-181149011D03*
D41*
X159773459Y-183983717D03*
X159943607Y-186818421D03*
D45*
X155203902Y-183689012D03*
D41*
X155544197Y-189358421D03*
X153174345Y-187793717D03*
D40*
X150804493Y-186229013D03*
D60*
X162609693Y-182346217D03*
D61*
X152684582Y-191009421D03*
%TD*%
D40*
%TO.C,S12*%
X228182297Y-113614037D03*
D41*
X228942663Y-109908052D03*
X234083950Y-108062193D03*
D42*
X233668899Y-113997698D03*
D41*
X238918306Y-110605615D03*
D40*
X239155501Y-114381359D03*
D58*
X230816927Y-107833739D03*
D59*
X242185328Y-110834067D03*
%TD*%
D40*
%TO.C,S6*%
X187518153Y-112605137D03*
D41*
X188018153Y-108855137D03*
X193018153Y-106655137D03*
D42*
X193018153Y-112605137D03*
D41*
X198018152Y-108855137D03*
D40*
X198518153Y-112605137D03*
D50*
X189743153Y-106655137D03*
D52*
X201293153Y-108855137D03*
%TD*%
D40*
%TO.C,S30*%
X217098151Y-103605132D03*
D41*
X215828151Y-106145132D03*
X214558150Y-108685132D03*
D45*
X212018151Y-103605132D03*
D41*
X209478151Y-108685132D03*
X208208151Y-106145132D03*
D40*
X206938151Y-103605132D03*
D53*
X219103151Y-106145132D03*
D54*
X206176151Y-108685132D03*
%TD*%
D40*
%TO.C,S21*%
X134439815Y-200640193D03*
D41*
X132141719Y-197634989D03*
X134121617Y-192543821D03*
D42*
X138328902Y-196751106D03*
D41*
X139212785Y-190563923D03*
D40*
X142217989Y-192862019D03*
D62*
X131805842Y-194859595D03*
D63*
X141528560Y-188248147D03*
%TD*%
D40*
%TO.C,S25*%
X198098153Y-150605130D03*
D41*
X196828153Y-153145130D03*
X195558152Y-155685130D03*
D45*
X193018153Y-150605130D03*
D41*
X190478153Y-155685130D03*
X189208153Y-153145130D03*
D40*
X187938153Y-150605130D03*
D53*
X200103153Y-153145130D03*
D54*
X187176153Y-155685130D03*
%TD*%
D40*
%TO.C,S24*%
X179098154Y-116605134D03*
D41*
X177828154Y-119145134D03*
X176558153Y-121685134D03*
D45*
X174018154Y-116605134D03*
D41*
X171478154Y-121685134D03*
X170208154Y-119145134D03*
D40*
X168938154Y-116605134D03*
D53*
X181103154Y-119145134D03*
D54*
X168176154Y-121685134D03*
%TD*%
D40*
%TO.C,S37*%
X273488556Y-165207570D03*
D41*
X271796784Y-167488448D03*
X270105011Y-169769327D03*
D45*
X268485733Y-164325437D03*
D41*
X265102189Y-168887194D03*
X264292549Y-166165249D03*
D40*
X263482910Y-163443304D03*
D46*
X275022030Y-168057146D03*
D47*
X261850353Y-168313808D03*
%TD*%
D40*
%TO.C,S33*%
X238736524Y-114352061D03*
D41*
X237292437Y-116797283D03*
X235848349Y-119242505D03*
D45*
X233668899Y-113997698D03*
D41*
X230780723Y-118888142D03*
X229691002Y-116265739D03*
D40*
X228601274Y-113643335D03*
D64*
X240559460Y-117025736D03*
D65*
X227486767Y-118657806D03*
%TD*%
D40*
%TO.C,S11*%
X226856924Y-132567753D03*
D41*
X227617290Y-128861768D03*
X232758577Y-127015909D03*
D42*
X232343526Y-132951414D03*
D41*
X237592933Y-129559331D03*
D40*
X237830128Y-133335075D03*
D58*
X229491554Y-126787455D03*
D59*
X240859955Y-129787783D03*
%TD*%
D40*
%TO.C,S8*%
X206518154Y-122605137D03*
D41*
X207018154Y-118855137D03*
X212018154Y-116655137D03*
D42*
X212018154Y-122605137D03*
D41*
X217018153Y-118855137D03*
D40*
X217518154Y-122605137D03*
D50*
X208743154Y-116655137D03*
D52*
X220293154Y-118855137D03*
%TD*%
D40*
%TO.C,S14*%
X246789017Y-146283749D03*
D41*
X247932602Y-142677544D03*
X253238667Y-141379208D03*
D42*
X252205460Y-147238814D03*
D41*
X257780678Y-144414026D03*
D40*
X257621903Y-148193879D03*
D43*
X250013421Y-140810510D03*
D44*
X261005925Y-144982724D03*
%TD*%
D40*
%TO.C,S26*%
X198098156Y-131605137D03*
D41*
X196828156Y-134145137D03*
X195558155Y-136685137D03*
D45*
X193018156Y-131605137D03*
D41*
X190478156Y-136685137D03*
X189208156Y-134145137D03*
D40*
X187938156Y-131605137D03*
D53*
X200103156Y-134145137D03*
D54*
X187176156Y-136685137D03*
%TD*%
D40*
%TO.C,S15*%
X250088331Y-127572404D03*
D41*
X251231916Y-123966199D03*
X256537981Y-122667863D03*
D42*
X255504774Y-128527469D03*
D41*
X261079992Y-125702681D03*
D40*
X260921217Y-129482534D03*
D43*
X253312735Y-122099165D03*
D44*
X264305239Y-126271379D03*
%TD*%
D40*
%TO.C,S32*%
X237411151Y-133305777D03*
D41*
X235967064Y-135750999D03*
X234522976Y-138196221D03*
D45*
X232343526Y-132951414D03*
D41*
X229455350Y-137841858D03*
X228365629Y-135219455D03*
D40*
X227275901Y-132597051D03*
D64*
X239234087Y-135979452D03*
D65*
X226161394Y-137611522D03*
%TD*%
D40*
%TO.C,S19*%
X169541314Y-176859721D03*
D41*
X169053704Y-173108090D03*
X173313932Y-169688958D03*
D42*
X174853906Y-175436216D03*
D41*
X178712964Y-170519900D03*
D40*
X180166498Y-174012711D03*
D66*
X170150526Y-170536590D03*
D67*
X181876371Y-169672267D03*
%TD*%
D40*
%TO.C,S28*%
X217098151Y-141605140D03*
D41*
X215828151Y-144145140D03*
X214558150Y-146685140D03*
D45*
X212018151Y-141605140D03*
D41*
X209478151Y-146685140D03*
X208208151Y-144145140D03*
D40*
X206938151Y-141605140D03*
D53*
X219103151Y-144145140D03*
D54*
X206176151Y-146685140D03*
%TD*%
D40*
%TO.C,S2*%
X168518153Y-135605131D03*
D41*
X169018153Y-131855131D03*
X174018153Y-129655131D03*
D42*
X174018153Y-135605131D03*
D41*
X179018152Y-131855131D03*
D40*
X179518153Y-135605131D03*
D50*
X170743153Y-129655131D03*
D52*
X182293153Y-131855131D03*
%TD*%
D40*
%TO.C,S40*%
X179760809Y-174121415D03*
D41*
X179191484Y-176903566D03*
X178622158Y-179685719D03*
D45*
X174853906Y-175436216D03*
D41*
X173715255Y-181000520D03*
X171831128Y-178875768D03*
D40*
X169947003Y-176751017D03*
D68*
X182354891Y-176055935D03*
D69*
X170525769Y-181855140D03*
%TD*%
D40*
%TO.C,S9*%
X206518151Y-103605132D03*
D41*
X207018151Y-99855132D03*
X212018151Y-97655132D03*
D42*
X212018151Y-103605132D03*
D41*
X217018150Y-99855132D03*
D40*
X217518151Y-103605132D03*
D50*
X208743151Y-97655132D03*
D52*
X220293151Y-99855132D03*
%TD*%
D40*
%TO.C,S31*%
X236085779Y-152259497D03*
D41*
X234641692Y-154704719D03*
X233197604Y-157149941D03*
D45*
X231018154Y-151905134D03*
D41*
X228129978Y-156795578D03*
X227040257Y-154173175D03*
D40*
X225950529Y-151550771D03*
D64*
X237908715Y-154933172D03*
D65*
X224836022Y-156565242D03*
%TD*%
D40*
%TO.C,S4*%
X187518153Y-150605130D03*
D41*
X188018153Y-146855130D03*
X193018153Y-144655130D03*
D42*
X193018153Y-150605130D03*
D41*
X198018152Y-146855130D03*
D40*
X198518153Y-150605130D03*
D50*
X189743153Y-144655130D03*
D52*
X201293153Y-146855130D03*
%TD*%
D40*
%TO.C,S35*%
X257208283Y-148120947D03*
D41*
X255516511Y-150401825D03*
X253824738Y-152682704D03*
D45*
X252205460Y-147238814D03*
D41*
X248821916Y-151800571D03*
X248012276Y-149078626D03*
D40*
X247202637Y-146356681D03*
D46*
X258741757Y-150970523D03*
D47*
X245570080Y-151227185D03*
%TD*%
M02*
