%TF.GenerationSoftware,KiCad,Pcbnew,10.0.4*%
%TF.CreationDate,2026-08-02T00:20:42-06:00*%
%TF.ProjectId,KLON -nice_view,4b4c4f4e-202d-46e6-9963-655f76696577,v1.0.0*%
%TF.SameCoordinates,Original*%
%TF.FileFunction,Legend,Top*%
%TF.FilePolarity,Positive*%
%FSLAX46Y46*%
G04 Gerber Fmt 4.6, Leading zero omitted, Abs format (unit mm)*
G04 Created by KiCad (PCBNEW 10.0.4) date 2026-08-02 00:20:42*
%MOMM*%
%LPD*%
G01*
G04 APERTURE LIST*
%ADD10C,0.150000*%
%ADD11C,0.100000*%
%ADD12C,0.120000*%
%ADD13C,1.200000*%
%ADD14O,2.500000X1.700000*%
G04 APERTURE END LIST*
D10*
X136165426Y-134469132D02*
X136165426Y-135002466D01*
X136165426Y-134545323D02*
X136203521Y-134507228D01*
X136203521Y-134507228D02*
X136279711Y-134469132D01*
X136279711Y-134469132D02*
X136393997Y-134469132D01*
X136393997Y-134469132D02*
X136470188Y-134507228D01*
X136470188Y-134507228D02*
X136508283Y-134583418D01*
X136508283Y-134583418D02*
X136508283Y-135002466D01*
X136889236Y-135002466D02*
X136889236Y-134469132D01*
X136889236Y-134202466D02*
X136851140Y-134240561D01*
X136851140Y-134240561D02*
X136889236Y-134278656D01*
X136889236Y-134278656D02*
X136927331Y-134240561D01*
X136927331Y-134240561D02*
X136889236Y-134202466D01*
X136889236Y-134202466D02*
X136889236Y-134278656D01*
X137613045Y-134964371D02*
X137536854Y-135002466D01*
X137536854Y-135002466D02*
X137384473Y-135002466D01*
X137384473Y-135002466D02*
X137308283Y-134964371D01*
X137308283Y-134964371D02*
X137270188Y-134926275D01*
X137270188Y-134926275D02*
X137232092Y-134850085D01*
X137232092Y-134850085D02*
X137232092Y-134621513D01*
X137232092Y-134621513D02*
X137270188Y-134545323D01*
X137270188Y-134545323D02*
X137308283Y-134507228D01*
X137308283Y-134507228D02*
X137384473Y-134469132D01*
X137384473Y-134469132D02*
X137536854Y-134469132D01*
X137536854Y-134469132D02*
X137613045Y-134507228D01*
X138260664Y-134964371D02*
X138184473Y-135002466D01*
X138184473Y-135002466D02*
X138032092Y-135002466D01*
X138032092Y-135002466D02*
X137955902Y-134964371D01*
X137955902Y-134964371D02*
X137917806Y-134888180D01*
X137917806Y-134888180D02*
X137917806Y-134583418D01*
X137917806Y-134583418D02*
X137955902Y-134507228D01*
X137955902Y-134507228D02*
X138032092Y-134469132D01*
X138032092Y-134469132D02*
X138184473Y-134469132D01*
X138184473Y-134469132D02*
X138260664Y-134507228D01*
X138260664Y-134507228D02*
X138298759Y-134583418D01*
X138298759Y-134583418D02*
X138298759Y-134659609D01*
X138298759Y-134659609D02*
X137917806Y-134735799D01*
X138451140Y-135078656D02*
X139060663Y-135078656D01*
X139174949Y-134469132D02*
X139365425Y-135002466D01*
X139365425Y-135002466D02*
X139555902Y-134469132D01*
X139860664Y-135002466D02*
X139860664Y-134469132D01*
X139860664Y-134202466D02*
X139822568Y-134240561D01*
X139822568Y-134240561D02*
X139860664Y-134278656D01*
X139860664Y-134278656D02*
X139898759Y-134240561D01*
X139898759Y-134240561D02*
X139860664Y-134202466D01*
X139860664Y-134202466D02*
X139860664Y-134278656D01*
X140546378Y-134964371D02*
X140470187Y-135002466D01*
X140470187Y-135002466D02*
X140317806Y-135002466D01*
X140317806Y-135002466D02*
X140241616Y-134964371D01*
X140241616Y-134964371D02*
X140203520Y-134888180D01*
X140203520Y-134888180D02*
X140203520Y-134583418D01*
X140203520Y-134583418D02*
X140241616Y-134507228D01*
X140241616Y-134507228D02*
X140317806Y-134469132D01*
X140317806Y-134469132D02*
X140470187Y-134469132D01*
X140470187Y-134469132D02*
X140546378Y-134507228D01*
X140546378Y-134507228D02*
X140584473Y-134583418D01*
X140584473Y-134583418D02*
X140584473Y-134659609D01*
X140584473Y-134659609D02*
X140203520Y-134735799D01*
X140851139Y-134469132D02*
X141003520Y-135002466D01*
X141003520Y-135002466D02*
X141155901Y-134621513D01*
X141155901Y-134621513D02*
X141308282Y-135002466D01*
X141308282Y-135002466D02*
X141460663Y-134469132D01*
X144036853Y-164071172D02*
X144370186Y-164071172D01*
X144513043Y-164594982D02*
X144036853Y-164594982D01*
X144036853Y-164594982D02*
X144036853Y-163594982D01*
X144036853Y-163594982D02*
X144513043Y-163594982D01*
X144941615Y-163928315D02*
X144941615Y-164594982D01*
X144941615Y-164023553D02*
X144989234Y-163975934D01*
X144989234Y-163975934D02*
X145084472Y-163928315D01*
X145084472Y-163928315D02*
X145227329Y-163928315D01*
X145227329Y-163928315D02*
X145322567Y-163975934D01*
X145322567Y-163975934D02*
X145370186Y-164071172D01*
X145370186Y-164071172D02*
X145370186Y-164594982D01*
X146274948Y-164547363D02*
X146179710Y-164594982D01*
X146179710Y-164594982D02*
X145989234Y-164594982D01*
X145989234Y-164594982D02*
X145893996Y-164547363D01*
X145893996Y-164547363D02*
X145846377Y-164499743D01*
X145846377Y-164499743D02*
X145798758Y-164404505D01*
X145798758Y-164404505D02*
X145798758Y-164118791D01*
X145798758Y-164118791D02*
X145846377Y-164023553D01*
X145846377Y-164023553D02*
X145893996Y-163975934D01*
X145893996Y-163975934D02*
X145989234Y-163928315D01*
X145989234Y-163928315D02*
X146179710Y-163928315D01*
X146179710Y-163928315D02*
X146274948Y-163975934D01*
X146846377Y-164594982D02*
X146751139Y-164547363D01*
X146751139Y-164547363D02*
X146703520Y-164499743D01*
X146703520Y-164499743D02*
X146655901Y-164404505D01*
X146655901Y-164404505D02*
X146655901Y-164118791D01*
X146655901Y-164118791D02*
X146703520Y-164023553D01*
X146703520Y-164023553D02*
X146751139Y-163975934D01*
X146751139Y-163975934D02*
X146846377Y-163928315D01*
X146846377Y-163928315D02*
X146989234Y-163928315D01*
X146989234Y-163928315D02*
X147084472Y-163975934D01*
X147084472Y-163975934D02*
X147132091Y-164023553D01*
X147132091Y-164023553D02*
X147179710Y-164118791D01*
X147179710Y-164118791D02*
X147179710Y-164404505D01*
X147179710Y-164404505D02*
X147132091Y-164499743D01*
X147132091Y-164499743D02*
X147084472Y-164547363D01*
X147084472Y-164547363D02*
X146989234Y-164594982D01*
X146989234Y-164594982D02*
X146846377Y-164594982D01*
X148036853Y-164594982D02*
X148036853Y-163594982D01*
X148036853Y-164547363D02*
X147941615Y-164594982D01*
X147941615Y-164594982D02*
X147751139Y-164594982D01*
X147751139Y-164594982D02*
X147655901Y-164547363D01*
X147655901Y-164547363D02*
X147608282Y-164499743D01*
X147608282Y-164499743D02*
X147560663Y-164404505D01*
X147560663Y-164404505D02*
X147560663Y-164118791D01*
X147560663Y-164118791D02*
X147608282Y-164023553D01*
X147608282Y-164023553D02*
X147655901Y-163975934D01*
X147655901Y-163975934D02*
X147751139Y-163928315D01*
X147751139Y-163928315D02*
X147941615Y-163928315D01*
X147941615Y-163928315D02*
X148036853Y-163975934D01*
X148893996Y-164547363D02*
X148798758Y-164594982D01*
X148798758Y-164594982D02*
X148608282Y-164594982D01*
X148608282Y-164594982D02*
X148513044Y-164547363D01*
X148513044Y-164547363D02*
X148465425Y-164452124D01*
X148465425Y-164452124D02*
X148465425Y-164071172D01*
X148465425Y-164071172D02*
X148513044Y-163975934D01*
X148513044Y-163975934D02*
X148608282Y-163928315D01*
X148608282Y-163928315D02*
X148798758Y-163928315D01*
X148798758Y-163928315D02*
X148893996Y-163975934D01*
X148893996Y-163975934D02*
X148941615Y-164071172D01*
X148941615Y-164071172D02*
X148941615Y-164166410D01*
X148941615Y-164166410D02*
X148465425Y-164261648D01*
X149370187Y-164594982D02*
X149370187Y-163928315D01*
X149370187Y-164118791D02*
X149417806Y-164023553D01*
X149417806Y-164023553D02*
X149465425Y-163975934D01*
X149465425Y-163975934D02*
X149560663Y-163928315D01*
X149560663Y-163928315D02*
X149655901Y-163928315D01*
X146110659Y-115634987D02*
X146110659Y-114634987D01*
X146110659Y-114634987D02*
X146491611Y-114634987D01*
X146491611Y-114634987D02*
X146586849Y-114682606D01*
X146586849Y-114682606D02*
X146634468Y-114730225D01*
X146634468Y-114730225D02*
X146682087Y-114825463D01*
X146682087Y-114825463D02*
X146682087Y-114968320D01*
X146682087Y-114968320D02*
X146634468Y-115063558D01*
X146634468Y-115063558D02*
X146586849Y-115111177D01*
X146586849Y-115111177D02*
X146491611Y-115158796D01*
X146491611Y-115158796D02*
X146110659Y-115158796D01*
X147634468Y-115634987D02*
X147063040Y-115634987D01*
X147348754Y-115634987D02*
X147348754Y-114634987D01*
X147348754Y-114634987D02*
X147253516Y-114777844D01*
X147253516Y-114777844D02*
X147158278Y-114873082D01*
X147158278Y-114873082D02*
X147063040Y-114920701D01*
X148110659Y-115634987D02*
X148301135Y-115634987D01*
X148301135Y-115634987D02*
X148396373Y-115587368D01*
X148396373Y-115587368D02*
X148443992Y-115539748D01*
X148443992Y-115539748D02*
X148539230Y-115396891D01*
X148539230Y-115396891D02*
X148586849Y-115206415D01*
X148586849Y-115206415D02*
X148586849Y-114825463D01*
X148586849Y-114825463D02*
X148539230Y-114730225D01*
X148539230Y-114730225D02*
X148491611Y-114682606D01*
X148491611Y-114682606D02*
X148396373Y-114634987D01*
X148396373Y-114634987D02*
X148205897Y-114634987D01*
X148205897Y-114634987D02*
X148110659Y-114682606D01*
X148110659Y-114682606D02*
X148063040Y-114730225D01*
X148063040Y-114730225D02*
X148015421Y-114825463D01*
X148015421Y-114825463D02*
X148015421Y-115063558D01*
X148015421Y-115063558D02*
X148063040Y-115158796D01*
X148063040Y-115158796D02*
X148110659Y-115206415D01*
X148110659Y-115206415D02*
X148205897Y-115254034D01*
X148205897Y-115254034D02*
X148396373Y-115254034D01*
X148396373Y-115254034D02*
X148491611Y-115206415D01*
X148491611Y-115206415D02*
X148539230Y-115158796D01*
X148539230Y-115158796D02*
X148586849Y-115063558D01*
X146563041Y-101982605D02*
X146467803Y-101934986D01*
X146467803Y-101934986D02*
X146324946Y-101934986D01*
X146324946Y-101934986D02*
X146182089Y-101982605D01*
X146182089Y-101982605D02*
X146086851Y-102077843D01*
X146086851Y-102077843D02*
X146039232Y-102173081D01*
X146039232Y-102173081D02*
X145991613Y-102363557D01*
X145991613Y-102363557D02*
X145991613Y-102506414D01*
X145991613Y-102506414D02*
X146039232Y-102696890D01*
X146039232Y-102696890D02*
X146086851Y-102792128D01*
X146086851Y-102792128D02*
X146182089Y-102887367D01*
X146182089Y-102887367D02*
X146324946Y-102934986D01*
X146324946Y-102934986D02*
X146420184Y-102934986D01*
X146420184Y-102934986D02*
X146563041Y-102887367D01*
X146563041Y-102887367D02*
X146610660Y-102839747D01*
X146610660Y-102839747D02*
X146610660Y-102506414D01*
X146610660Y-102506414D02*
X146420184Y-102506414D01*
X147039232Y-102934986D02*
X147039232Y-101934986D01*
X147039232Y-101934986D02*
X147610660Y-102934986D01*
X147610660Y-102934986D02*
X147610660Y-101934986D01*
X148086851Y-102934986D02*
X148086851Y-101934986D01*
X148086851Y-101934986D02*
X148324946Y-101934986D01*
X148324946Y-101934986D02*
X148467803Y-101982605D01*
X148467803Y-101982605D02*
X148563041Y-102077843D01*
X148563041Y-102077843D02*
X148610660Y-102173081D01*
X148610660Y-102173081D02*
X148658279Y-102363557D01*
X148658279Y-102363557D02*
X148658279Y-102506414D01*
X148658279Y-102506414D02*
X148610660Y-102696890D01*
X148610660Y-102696890D02*
X148563041Y-102792128D01*
X148563041Y-102792128D02*
X148467803Y-102887367D01*
X148467803Y-102887367D02*
X148324946Y-102934986D01*
X148324946Y-102934986D02*
X148086851Y-102934986D01*
X146777326Y-105474986D02*
X146443993Y-104998795D01*
X146205898Y-105474986D02*
X146205898Y-104474986D01*
X146205898Y-104474986D02*
X146586850Y-104474986D01*
X146586850Y-104474986D02*
X146682088Y-104522605D01*
X146682088Y-104522605D02*
X146729707Y-104570224D01*
X146729707Y-104570224D02*
X146777326Y-104665462D01*
X146777326Y-104665462D02*
X146777326Y-104808319D01*
X146777326Y-104808319D02*
X146729707Y-104903557D01*
X146729707Y-104903557D02*
X146682088Y-104951176D01*
X146682088Y-104951176D02*
X146586850Y-104998795D01*
X146586850Y-104998795D02*
X146205898Y-104998795D01*
X147158279Y-105427367D02*
X147301136Y-105474986D01*
X147301136Y-105474986D02*
X147539231Y-105474986D01*
X147539231Y-105474986D02*
X147634469Y-105427367D01*
X147634469Y-105427367D02*
X147682088Y-105379747D01*
X147682088Y-105379747D02*
X147729707Y-105284509D01*
X147729707Y-105284509D02*
X147729707Y-105189271D01*
X147729707Y-105189271D02*
X147682088Y-105094033D01*
X147682088Y-105094033D02*
X147634469Y-105046414D01*
X147634469Y-105046414D02*
X147539231Y-104998795D01*
X147539231Y-104998795D02*
X147348755Y-104951176D01*
X147348755Y-104951176D02*
X147253517Y-104903557D01*
X147253517Y-104903557D02*
X147205898Y-104855938D01*
X147205898Y-104855938D02*
X147158279Y-104760700D01*
X147158279Y-104760700D02*
X147158279Y-104665462D01*
X147158279Y-104665462D02*
X147205898Y-104570224D01*
X147205898Y-104570224D02*
X147253517Y-104522605D01*
X147253517Y-104522605D02*
X147348755Y-104474986D01*
X147348755Y-104474986D02*
X147586850Y-104474986D01*
X147586850Y-104474986D02*
X147729707Y-104522605D01*
X148015422Y-104474986D02*
X148586850Y-104474986D01*
X148301136Y-105474986D02*
X148301136Y-104474986D01*
X145991613Y-107014987D02*
X146324946Y-108014987D01*
X146324946Y-108014987D02*
X146658279Y-107014987D01*
X147563041Y-107919748D02*
X147515422Y-107967368D01*
X147515422Y-107967368D02*
X147372565Y-108014987D01*
X147372565Y-108014987D02*
X147277327Y-108014987D01*
X147277327Y-108014987D02*
X147134470Y-107967368D01*
X147134470Y-107967368D02*
X147039232Y-107872129D01*
X147039232Y-107872129D02*
X146991613Y-107776891D01*
X146991613Y-107776891D02*
X146943994Y-107586415D01*
X146943994Y-107586415D02*
X146943994Y-107443558D01*
X146943994Y-107443558D02*
X146991613Y-107253082D01*
X146991613Y-107253082D02*
X147039232Y-107157844D01*
X147039232Y-107157844D02*
X147134470Y-107062606D01*
X147134470Y-107062606D02*
X147277327Y-107014987D01*
X147277327Y-107014987D02*
X147372565Y-107014987D01*
X147372565Y-107014987D02*
X147515422Y-107062606D01*
X147515422Y-107062606D02*
X147563041Y-107110225D01*
X148563041Y-107919748D02*
X148515422Y-107967368D01*
X148515422Y-107967368D02*
X148372565Y-108014987D01*
X148372565Y-108014987D02*
X148277327Y-108014987D01*
X148277327Y-108014987D02*
X148134470Y-107967368D01*
X148134470Y-107967368D02*
X148039232Y-107872129D01*
X148039232Y-107872129D02*
X147991613Y-107776891D01*
X147991613Y-107776891D02*
X147943994Y-107586415D01*
X147943994Y-107586415D02*
X147943994Y-107443558D01*
X147943994Y-107443558D02*
X147991613Y-107253082D01*
X147991613Y-107253082D02*
X148039232Y-107157844D01*
X148039232Y-107157844D02*
X148134470Y-107062606D01*
X148134470Y-107062606D02*
X148277327Y-107014987D01*
X148277327Y-107014987D02*
X148372565Y-107014987D01*
X148372565Y-107014987D02*
X148515422Y-107062606D01*
X148515422Y-107062606D02*
X148563041Y-107110225D01*
X146110660Y-110554986D02*
X146110660Y-109554986D01*
X146110660Y-109554986D02*
X146491612Y-109554986D01*
X146491612Y-109554986D02*
X146586850Y-109602605D01*
X146586850Y-109602605D02*
X146634469Y-109650224D01*
X146634469Y-109650224D02*
X146682088Y-109745462D01*
X146682088Y-109745462D02*
X146682088Y-109888319D01*
X146682088Y-109888319D02*
X146634469Y-109983557D01*
X146634469Y-109983557D02*
X146586850Y-110031176D01*
X146586850Y-110031176D02*
X146491612Y-110078795D01*
X146491612Y-110078795D02*
X146110660Y-110078795D01*
X147063041Y-109650224D02*
X147110660Y-109602605D01*
X147110660Y-109602605D02*
X147205898Y-109554986D01*
X147205898Y-109554986D02*
X147443993Y-109554986D01*
X147443993Y-109554986D02*
X147539231Y-109602605D01*
X147539231Y-109602605D02*
X147586850Y-109650224D01*
X147586850Y-109650224D02*
X147634469Y-109745462D01*
X147634469Y-109745462D02*
X147634469Y-109840700D01*
X147634469Y-109840700D02*
X147586850Y-109983557D01*
X147586850Y-109983557D02*
X147015422Y-110554986D01*
X147015422Y-110554986D02*
X147634469Y-110554986D01*
X148586850Y-110554986D02*
X148015422Y-110554986D01*
X148301136Y-110554986D02*
X148301136Y-109554986D01*
X148301136Y-109554986D02*
X148205898Y-109697843D01*
X148205898Y-109697843D02*
X148110660Y-109793081D01*
X148110660Y-109793081D02*
X148015422Y-109840700D01*
X146110660Y-113094986D02*
X146110660Y-112094986D01*
X146110660Y-112094986D02*
X146491612Y-112094986D01*
X146491612Y-112094986D02*
X146586850Y-112142605D01*
X146586850Y-112142605D02*
X146634469Y-112190224D01*
X146634469Y-112190224D02*
X146682088Y-112285462D01*
X146682088Y-112285462D02*
X146682088Y-112428319D01*
X146682088Y-112428319D02*
X146634469Y-112523557D01*
X146634469Y-112523557D02*
X146586850Y-112571176D01*
X146586850Y-112571176D02*
X146491612Y-112618795D01*
X146491612Y-112618795D02*
X146110660Y-112618795D01*
X147063041Y-112190224D02*
X147110660Y-112142605D01*
X147110660Y-112142605D02*
X147205898Y-112094986D01*
X147205898Y-112094986D02*
X147443993Y-112094986D01*
X147443993Y-112094986D02*
X147539231Y-112142605D01*
X147539231Y-112142605D02*
X147586850Y-112190224D01*
X147586850Y-112190224D02*
X147634469Y-112285462D01*
X147634469Y-112285462D02*
X147634469Y-112380700D01*
X147634469Y-112380700D02*
X147586850Y-112523557D01*
X147586850Y-112523557D02*
X147015422Y-113094986D01*
X147015422Y-113094986D02*
X147634469Y-113094986D01*
X148253517Y-112094986D02*
X148348755Y-112094986D01*
X148348755Y-112094986D02*
X148443993Y-112142605D01*
X148443993Y-112142605D02*
X148491612Y-112190224D01*
X148491612Y-112190224D02*
X148539231Y-112285462D01*
X148539231Y-112285462D02*
X148586850Y-112475938D01*
X148586850Y-112475938D02*
X148586850Y-112714033D01*
X148586850Y-112714033D02*
X148539231Y-112904509D01*
X148539231Y-112904509D02*
X148491612Y-112999747D01*
X148491612Y-112999747D02*
X148443993Y-113047367D01*
X148443993Y-113047367D02*
X148348755Y-113094986D01*
X148348755Y-113094986D02*
X148253517Y-113094986D01*
X148253517Y-113094986D02*
X148158279Y-113047367D01*
X148158279Y-113047367D02*
X148110660Y-112999747D01*
X148110660Y-112999747D02*
X148063041Y-112904509D01*
X148063041Y-112904509D02*
X148015422Y-112714033D01*
X148015422Y-112714033D02*
X148015422Y-112475938D01*
X148015422Y-112475938D02*
X148063041Y-112285462D01*
X148063041Y-112285462D02*
X148110660Y-112190224D01*
X148110660Y-112190224D02*
X148158279Y-112142605D01*
X148158279Y-112142605D02*
X148253517Y-112094986D01*
X146110660Y-120714987D02*
X146110660Y-119714987D01*
X146110660Y-119714987D02*
X146491612Y-119714987D01*
X146491612Y-119714987D02*
X146586850Y-119762606D01*
X146586850Y-119762606D02*
X146634469Y-119810225D01*
X146634469Y-119810225D02*
X146682088Y-119905463D01*
X146682088Y-119905463D02*
X146682088Y-120048320D01*
X146682088Y-120048320D02*
X146634469Y-120143558D01*
X146634469Y-120143558D02*
X146586850Y-120191177D01*
X146586850Y-120191177D02*
X146491612Y-120238796D01*
X146491612Y-120238796D02*
X146110660Y-120238796D01*
X147634469Y-120714987D02*
X147063041Y-120714987D01*
X147348755Y-120714987D02*
X147348755Y-119714987D01*
X147348755Y-119714987D02*
X147253517Y-119857844D01*
X147253517Y-119857844D02*
X147158279Y-119953082D01*
X147158279Y-119953082D02*
X147063041Y-120000701D01*
X148539231Y-119714987D02*
X148063041Y-119714987D01*
X148063041Y-119714987D02*
X148015422Y-120191177D01*
X148015422Y-120191177D02*
X148063041Y-120143558D01*
X148063041Y-120143558D02*
X148158279Y-120095939D01*
X148158279Y-120095939D02*
X148396374Y-120095939D01*
X148396374Y-120095939D02*
X148491612Y-120143558D01*
X148491612Y-120143558D02*
X148539231Y-120191177D01*
X148539231Y-120191177D02*
X148586850Y-120286415D01*
X148586850Y-120286415D02*
X148586850Y-120524510D01*
X148586850Y-120524510D02*
X148539231Y-120619748D01*
X148539231Y-120619748D02*
X148491612Y-120667368D01*
X148491612Y-120667368D02*
X148396374Y-120714987D01*
X148396374Y-120714987D02*
X148158279Y-120714987D01*
X148158279Y-120714987D02*
X148063041Y-120667368D01*
X148063041Y-120667368D02*
X148015422Y-120619748D01*
X146110660Y-123254986D02*
X146110660Y-122254986D01*
X146110660Y-122254986D02*
X146491612Y-122254986D01*
X146491612Y-122254986D02*
X146586850Y-122302605D01*
X146586850Y-122302605D02*
X146634469Y-122350224D01*
X146634469Y-122350224D02*
X146682088Y-122445462D01*
X146682088Y-122445462D02*
X146682088Y-122588319D01*
X146682088Y-122588319D02*
X146634469Y-122683557D01*
X146634469Y-122683557D02*
X146586850Y-122731176D01*
X146586850Y-122731176D02*
X146491612Y-122778795D01*
X146491612Y-122778795D02*
X146110660Y-122778795D01*
X147634469Y-123254986D02*
X147063041Y-123254986D01*
X147348755Y-123254986D02*
X147348755Y-122254986D01*
X147348755Y-122254986D02*
X147253517Y-122397843D01*
X147253517Y-122397843D02*
X147158279Y-122493081D01*
X147158279Y-122493081D02*
X147063041Y-122540700D01*
X148491612Y-122588319D02*
X148491612Y-123254986D01*
X148253517Y-122207367D02*
X148015422Y-122921652D01*
X148015422Y-122921652D02*
X148634469Y-122921652D01*
X146110660Y-128334986D02*
X146110660Y-127334986D01*
X146110660Y-127334986D02*
X146491612Y-127334986D01*
X146491612Y-127334986D02*
X146586850Y-127382605D01*
X146586850Y-127382605D02*
X146634469Y-127430224D01*
X146634469Y-127430224D02*
X146682088Y-127525462D01*
X146682088Y-127525462D02*
X146682088Y-127668319D01*
X146682088Y-127668319D02*
X146634469Y-127763557D01*
X146634469Y-127763557D02*
X146586850Y-127811176D01*
X146586850Y-127811176D02*
X146491612Y-127858795D01*
X146491612Y-127858795D02*
X146110660Y-127858795D01*
X147634469Y-128334986D02*
X147063041Y-128334986D01*
X147348755Y-128334986D02*
X147348755Y-127334986D01*
X147348755Y-127334986D02*
X147253517Y-127477843D01*
X147253517Y-127477843D02*
X147158279Y-127573081D01*
X147158279Y-127573081D02*
X147063041Y-127620700D01*
X148253517Y-127334986D02*
X148348755Y-127334986D01*
X148348755Y-127334986D02*
X148443993Y-127382605D01*
X148443993Y-127382605D02*
X148491612Y-127430224D01*
X148491612Y-127430224D02*
X148539231Y-127525462D01*
X148539231Y-127525462D02*
X148586850Y-127715938D01*
X148586850Y-127715938D02*
X148586850Y-127954033D01*
X148586850Y-127954033D02*
X148539231Y-128144509D01*
X148539231Y-128144509D02*
X148491612Y-128239747D01*
X148491612Y-128239747D02*
X148443993Y-128287367D01*
X148443993Y-128287367D02*
X148348755Y-128334986D01*
X148348755Y-128334986D02*
X148253517Y-128334986D01*
X148253517Y-128334986D02*
X148158279Y-128287367D01*
X148158279Y-128287367D02*
X148110660Y-128239747D01*
X148110660Y-128239747D02*
X148063041Y-128144509D01*
X148063041Y-128144509D02*
X148015422Y-127954033D01*
X148015422Y-127954033D02*
X148015422Y-127715938D01*
X148015422Y-127715938D02*
X148063041Y-127525462D01*
X148063041Y-127525462D02*
X148110660Y-127430224D01*
X148110660Y-127430224D02*
X148158279Y-127382605D01*
X148158279Y-127382605D02*
X148253517Y-127334986D01*
X146634470Y-100394987D02*
X146301137Y-99918796D01*
X146063042Y-100394987D02*
X146063042Y-99394987D01*
X146063042Y-99394987D02*
X146443994Y-99394987D01*
X146443994Y-99394987D02*
X146539232Y-99442606D01*
X146539232Y-99442606D02*
X146586851Y-99490225D01*
X146586851Y-99490225D02*
X146634470Y-99585463D01*
X146634470Y-99585463D02*
X146634470Y-99728320D01*
X146634470Y-99728320D02*
X146586851Y-99823558D01*
X146586851Y-99823558D02*
X146539232Y-99871177D01*
X146539232Y-99871177D02*
X146443994Y-99918796D01*
X146443994Y-99918796D02*
X146063042Y-99918796D01*
X147015423Y-100109272D02*
X147491613Y-100109272D01*
X146920185Y-100394987D02*
X147253518Y-99394987D01*
X147253518Y-99394987D02*
X147586851Y-100394987D01*
X147824947Y-99394987D02*
X148063042Y-100394987D01*
X148063042Y-100394987D02*
X148253518Y-99680701D01*
X148253518Y-99680701D02*
X148443994Y-100394987D01*
X148443994Y-100394987D02*
X148682090Y-99394987D01*
X146110661Y-118174985D02*
X146110661Y-117174985D01*
X146110661Y-117174985D02*
X146491613Y-117174985D01*
X146491613Y-117174985D02*
X146586851Y-117222604D01*
X146586851Y-117222604D02*
X146634470Y-117270223D01*
X146634470Y-117270223D02*
X146682089Y-117365461D01*
X146682089Y-117365461D02*
X146682089Y-117508318D01*
X146682089Y-117508318D02*
X146634470Y-117603556D01*
X146634470Y-117603556D02*
X146586851Y-117651175D01*
X146586851Y-117651175D02*
X146491613Y-117698794D01*
X146491613Y-117698794D02*
X146110661Y-117698794D01*
X147634470Y-118174985D02*
X147063042Y-118174985D01*
X147348756Y-118174985D02*
X147348756Y-117174985D01*
X147348756Y-117174985D02*
X147253518Y-117317842D01*
X147253518Y-117317842D02*
X147158280Y-117413080D01*
X147158280Y-117413080D02*
X147063042Y-117460699D01*
X148205899Y-117603556D02*
X148110661Y-117555937D01*
X148110661Y-117555937D02*
X148063042Y-117508318D01*
X148063042Y-117508318D02*
X148015423Y-117413080D01*
X148015423Y-117413080D02*
X148015423Y-117365461D01*
X148015423Y-117365461D02*
X148063042Y-117270223D01*
X148063042Y-117270223D02*
X148110661Y-117222604D01*
X148110661Y-117222604D02*
X148205899Y-117174985D01*
X148205899Y-117174985D02*
X148396375Y-117174985D01*
X148396375Y-117174985D02*
X148491613Y-117222604D01*
X148491613Y-117222604D02*
X148539232Y-117270223D01*
X148539232Y-117270223D02*
X148586851Y-117365461D01*
X148586851Y-117365461D02*
X148586851Y-117413080D01*
X148586851Y-117413080D02*
X148539232Y-117508318D01*
X148539232Y-117508318D02*
X148491613Y-117555937D01*
X148491613Y-117555937D02*
X148396375Y-117603556D01*
X148396375Y-117603556D02*
X148205899Y-117603556D01*
X148205899Y-117603556D02*
X148110661Y-117651175D01*
X148110661Y-117651175D02*
X148063042Y-117698794D01*
X148063042Y-117698794D02*
X148015423Y-117794032D01*
X148015423Y-117794032D02*
X148015423Y-117984508D01*
X148015423Y-117984508D02*
X148063042Y-118079746D01*
X148063042Y-118079746D02*
X148110661Y-118127366D01*
X148110661Y-118127366D02*
X148205899Y-118174985D01*
X148205899Y-118174985D02*
X148396375Y-118174985D01*
X148396375Y-118174985D02*
X148491613Y-118127366D01*
X148491613Y-118127366D02*
X148539232Y-118079746D01*
X148539232Y-118079746D02*
X148586851Y-117984508D01*
X148586851Y-117984508D02*
X148586851Y-117794032D01*
X148586851Y-117794032D02*
X148539232Y-117698794D01*
X148539232Y-117698794D02*
X148491613Y-117651175D01*
X148491613Y-117651175D02*
X148396375Y-117603556D01*
X146110662Y-125794985D02*
X146110662Y-124794985D01*
X146110662Y-124794985D02*
X146491614Y-124794985D01*
X146491614Y-124794985D02*
X146586852Y-124842604D01*
X146586852Y-124842604D02*
X146634471Y-124890223D01*
X146634471Y-124890223D02*
X146682090Y-124985461D01*
X146682090Y-124985461D02*
X146682090Y-125128318D01*
X146682090Y-125128318D02*
X146634471Y-125223556D01*
X146634471Y-125223556D02*
X146586852Y-125271175D01*
X146586852Y-125271175D02*
X146491614Y-125318794D01*
X146491614Y-125318794D02*
X146110662Y-125318794D01*
X147634471Y-125794985D02*
X147063043Y-125794985D01*
X147348757Y-125794985D02*
X147348757Y-124794985D01*
X147348757Y-124794985D02*
X147253519Y-124937842D01*
X147253519Y-124937842D02*
X147158281Y-125033080D01*
X147158281Y-125033080D02*
X147063043Y-125080699D01*
X148491614Y-124794985D02*
X148301138Y-124794985D01*
X148301138Y-124794985D02*
X148205900Y-124842604D01*
X148205900Y-124842604D02*
X148158281Y-124890223D01*
X148158281Y-124890223D02*
X148063043Y-125033080D01*
X148063043Y-125033080D02*
X148015424Y-125223556D01*
X148015424Y-125223556D02*
X148015424Y-125604508D01*
X148015424Y-125604508D02*
X148063043Y-125699746D01*
X148063043Y-125699746D02*
X148110662Y-125747366D01*
X148110662Y-125747366D02*
X148205900Y-125794985D01*
X148205900Y-125794985D02*
X148396376Y-125794985D01*
X148396376Y-125794985D02*
X148491614Y-125747366D01*
X148491614Y-125747366D02*
X148539233Y-125699746D01*
X148539233Y-125699746D02*
X148586852Y-125604508D01*
X148586852Y-125604508D02*
X148586852Y-125366413D01*
X148586852Y-125366413D02*
X148539233Y-125271175D01*
X148539233Y-125271175D02*
X148491614Y-125223556D01*
X148491614Y-125223556D02*
X148396376Y-125175937D01*
X148396376Y-125175937D02*
X148205900Y-125175937D01*
X148205900Y-125175937D02*
X148110662Y-125223556D01*
X148110662Y-125223556D02*
X148063043Y-125271175D01*
X148063043Y-125271175D02*
X148015424Y-125366413D01*
X140632087Y-97849986D02*
X140298754Y-97373795D01*
X140060659Y-97849986D02*
X140060659Y-96849986D01*
X140060659Y-96849986D02*
X140441611Y-96849986D01*
X140441611Y-96849986D02*
X140536849Y-96897605D01*
X140536849Y-96897605D02*
X140584468Y-96945224D01*
X140584468Y-96945224D02*
X140632087Y-97040462D01*
X140632087Y-97040462D02*
X140632087Y-97183319D01*
X140632087Y-97183319D02*
X140584468Y-97278557D01*
X140584468Y-97278557D02*
X140536849Y-97326176D01*
X140536849Y-97326176D02*
X140441611Y-97373795D01*
X140441611Y-97373795D02*
X140060659Y-97373795D01*
X141822564Y-97849986D02*
X141822564Y-96849986D01*
X142251135Y-97849986D02*
X142251135Y-97326176D01*
X142251135Y-97326176D02*
X142203516Y-97230938D01*
X142203516Y-97230938D02*
X142108278Y-97183319D01*
X142108278Y-97183319D02*
X141965421Y-97183319D01*
X141965421Y-97183319D02*
X141870183Y-97230938D01*
X141870183Y-97230938D02*
X141822564Y-97278557D01*
X143155897Y-97849986D02*
X143155897Y-97326176D01*
X143155897Y-97326176D02*
X143108278Y-97230938D01*
X143108278Y-97230938D02*
X143013040Y-97183319D01*
X143013040Y-97183319D02*
X142822564Y-97183319D01*
X142822564Y-97183319D02*
X142727326Y-97230938D01*
X143155897Y-97802367D02*
X143060659Y-97849986D01*
X143060659Y-97849986D02*
X142822564Y-97849986D01*
X142822564Y-97849986D02*
X142727326Y-97802367D01*
X142727326Y-97802367D02*
X142679707Y-97707128D01*
X142679707Y-97707128D02*
X142679707Y-97611890D01*
X142679707Y-97611890D02*
X142727326Y-97516652D01*
X142727326Y-97516652D02*
X142822564Y-97469033D01*
X142822564Y-97469033D02*
X143060659Y-97469033D01*
X143060659Y-97469033D02*
X143155897Y-97421414D01*
X143632088Y-97183319D02*
X143632088Y-97849986D01*
X143632088Y-97278557D02*
X143679707Y-97230938D01*
X143679707Y-97230938D02*
X143774945Y-97183319D01*
X143774945Y-97183319D02*
X143917802Y-97183319D01*
X143917802Y-97183319D02*
X144013040Y-97230938D01*
X144013040Y-97230938D02*
X144060659Y-97326176D01*
X144060659Y-97326176D02*
X144060659Y-97849986D01*
X144965421Y-97849986D02*
X144965421Y-96849986D01*
X144965421Y-97802367D02*
X144870183Y-97849986D01*
X144870183Y-97849986D02*
X144679707Y-97849986D01*
X144679707Y-97849986D02*
X144584469Y-97802367D01*
X144584469Y-97802367D02*
X144536850Y-97754747D01*
X144536850Y-97754747D02*
X144489231Y-97659509D01*
X144489231Y-97659509D02*
X144489231Y-97373795D01*
X144489231Y-97373795D02*
X144536850Y-97278557D01*
X144536850Y-97278557D02*
X144584469Y-97230938D01*
X144584469Y-97230938D02*
X144679707Y-97183319D01*
X144679707Y-97183319D02*
X144870183Y-97183319D01*
X144870183Y-97183319D02*
X144965421Y-97230938D01*
X146203517Y-97849986D02*
X146203517Y-96849986D01*
X146203517Y-97230938D02*
X146298755Y-97183319D01*
X146298755Y-97183319D02*
X146489231Y-97183319D01*
X146489231Y-97183319D02*
X146584469Y-97230938D01*
X146584469Y-97230938D02*
X146632088Y-97278557D01*
X146632088Y-97278557D02*
X146679707Y-97373795D01*
X146679707Y-97373795D02*
X146679707Y-97659509D01*
X146679707Y-97659509D02*
X146632088Y-97754747D01*
X146632088Y-97754747D02*
X146584469Y-97802367D01*
X146584469Y-97802367D02*
X146489231Y-97849986D01*
X146489231Y-97849986D02*
X146298755Y-97849986D01*
X146298755Y-97849986D02*
X146203517Y-97802367D01*
X147536850Y-97849986D02*
X147536850Y-97326176D01*
X147536850Y-97326176D02*
X147489231Y-97230938D01*
X147489231Y-97230938D02*
X147393993Y-97183319D01*
X147393993Y-97183319D02*
X147203517Y-97183319D01*
X147203517Y-97183319D02*
X147108279Y-97230938D01*
X147536850Y-97802367D02*
X147441612Y-97849986D01*
X147441612Y-97849986D02*
X147203517Y-97849986D01*
X147203517Y-97849986D02*
X147108279Y-97802367D01*
X147108279Y-97802367D02*
X147060660Y-97707128D01*
X147060660Y-97707128D02*
X147060660Y-97611890D01*
X147060660Y-97611890D02*
X147108279Y-97516652D01*
X147108279Y-97516652D02*
X147203517Y-97469033D01*
X147203517Y-97469033D02*
X147441612Y-97469033D01*
X147441612Y-97469033D02*
X147536850Y-97421414D01*
X148441612Y-97802367D02*
X148346374Y-97849986D01*
X148346374Y-97849986D02*
X148155898Y-97849986D01*
X148155898Y-97849986D02*
X148060660Y-97802367D01*
X148060660Y-97802367D02*
X148013041Y-97754747D01*
X148013041Y-97754747D02*
X147965422Y-97659509D01*
X147965422Y-97659509D02*
X147965422Y-97373795D01*
X147965422Y-97373795D02*
X148013041Y-97278557D01*
X148013041Y-97278557D02*
X148060660Y-97230938D01*
X148060660Y-97230938D02*
X148155898Y-97183319D01*
X148155898Y-97183319D02*
X148346374Y-97183319D01*
X148346374Y-97183319D02*
X148441612Y-97230938D01*
X148870184Y-97849986D02*
X148870184Y-96849986D01*
X148965422Y-97469033D02*
X149251136Y-97849986D01*
X149251136Y-97183319D02*
X148870184Y-97564271D01*
X150393994Y-97802367D02*
X150489232Y-97849986D01*
X150489232Y-97849986D02*
X150679708Y-97849986D01*
X150679708Y-97849986D02*
X150774946Y-97802367D01*
X150774946Y-97802367D02*
X150822565Y-97707128D01*
X150822565Y-97707128D02*
X150822565Y-97659509D01*
X150822565Y-97659509D02*
X150774946Y-97564271D01*
X150774946Y-97564271D02*
X150679708Y-97516652D01*
X150679708Y-97516652D02*
X150536851Y-97516652D01*
X150536851Y-97516652D02*
X150441613Y-97469033D01*
X150441613Y-97469033D02*
X150393994Y-97373795D01*
X150393994Y-97373795D02*
X150393994Y-97326176D01*
X150393994Y-97326176D02*
X150441613Y-97230938D01*
X150441613Y-97230938D02*
X150536851Y-97183319D01*
X150536851Y-97183319D02*
X150679708Y-97183319D01*
X150679708Y-97183319D02*
X150774946Y-97230938D01*
X151251137Y-97849986D02*
X151251137Y-97183319D01*
X151251137Y-96849986D02*
X151203518Y-96897605D01*
X151203518Y-96897605D02*
X151251137Y-96945224D01*
X151251137Y-96945224D02*
X151298756Y-96897605D01*
X151298756Y-96897605D02*
X151251137Y-96849986D01*
X151251137Y-96849986D02*
X151251137Y-96945224D01*
X152155898Y-97849986D02*
X152155898Y-96849986D01*
X152155898Y-97802367D02*
X152060660Y-97849986D01*
X152060660Y-97849986D02*
X151870184Y-97849986D01*
X151870184Y-97849986D02*
X151774946Y-97802367D01*
X151774946Y-97802367D02*
X151727327Y-97754747D01*
X151727327Y-97754747D02*
X151679708Y-97659509D01*
X151679708Y-97659509D02*
X151679708Y-97373795D01*
X151679708Y-97373795D02*
X151727327Y-97278557D01*
X151727327Y-97278557D02*
X151774946Y-97230938D01*
X151774946Y-97230938D02*
X151870184Y-97183319D01*
X151870184Y-97183319D02*
X152060660Y-97183319D01*
X152060660Y-97183319D02*
X152155898Y-97230938D01*
X153013041Y-97802367D02*
X152917803Y-97849986D01*
X152917803Y-97849986D02*
X152727327Y-97849986D01*
X152727327Y-97849986D02*
X152632089Y-97802367D01*
X152632089Y-97802367D02*
X152584470Y-97707128D01*
X152584470Y-97707128D02*
X152584470Y-97326176D01*
X152584470Y-97326176D02*
X152632089Y-97230938D01*
X152632089Y-97230938D02*
X152727327Y-97183319D01*
X152727327Y-97183319D02*
X152917803Y-97183319D01*
X152917803Y-97183319D02*
X153013041Y-97230938D01*
X153013041Y-97230938D02*
X153060660Y-97326176D01*
X153060660Y-97326176D02*
X153060660Y-97421414D01*
X153060660Y-97421414D02*
X152584470Y-97516652D01*
X154536851Y-98230938D02*
X154489232Y-98183319D01*
X154489232Y-98183319D02*
X154393994Y-98040462D01*
X154393994Y-98040462D02*
X154346375Y-97945224D01*
X154346375Y-97945224D02*
X154298756Y-97802367D01*
X154298756Y-97802367D02*
X154251137Y-97564271D01*
X154251137Y-97564271D02*
X154251137Y-97373795D01*
X154251137Y-97373795D02*
X154298756Y-97135700D01*
X154298756Y-97135700D02*
X154346375Y-96992843D01*
X154346375Y-96992843D02*
X154393994Y-96897605D01*
X154393994Y-96897605D02*
X154489232Y-96754747D01*
X154489232Y-96754747D02*
X154536851Y-96707128D01*
X154917804Y-97849986D02*
X154917804Y-96849986D01*
X154917804Y-96849986D02*
X155251137Y-97564271D01*
X155251137Y-97564271D02*
X155584470Y-96849986D01*
X155584470Y-96849986D02*
X155584470Y-97849986D01*
X156441613Y-97849986D02*
X156441613Y-97088081D01*
X156251137Y-97278557D02*
X156441613Y-97088081D01*
X156441613Y-97088081D02*
X156632089Y-97278557D01*
X157203518Y-98230938D02*
X157251137Y-98183319D01*
X157251137Y-98183319D02*
X157346375Y-98040462D01*
X157346375Y-98040462D02*
X157393994Y-97945224D01*
X157393994Y-97945224D02*
X157441613Y-97802367D01*
X157441613Y-97802367D02*
X157489232Y-97564271D01*
X157489232Y-97564271D02*
X157489232Y-97373795D01*
X157489232Y-97373795D02*
X157441613Y-97135700D01*
X157441613Y-97135700D02*
X157393994Y-96992843D01*
X157393994Y-96992843D02*
X157346375Y-96897605D01*
X157346375Y-96897605D02*
X157251137Y-96754747D01*
X157251137Y-96754747D02*
X157203518Y-96707128D01*
X149463040Y-107062606D02*
X149367802Y-107014987D01*
X149367802Y-107014987D02*
X149224945Y-107014987D01*
X149224945Y-107014987D02*
X149082088Y-107062606D01*
X149082088Y-107062606D02*
X148986850Y-107157844D01*
X148986850Y-107157844D02*
X148939231Y-107253082D01*
X148939231Y-107253082D02*
X148891612Y-107443558D01*
X148891612Y-107443558D02*
X148891612Y-107586415D01*
X148891612Y-107586415D02*
X148939231Y-107776891D01*
X148939231Y-107776891D02*
X148986850Y-107872129D01*
X148986850Y-107872129D02*
X149082088Y-107967368D01*
X149082088Y-107967368D02*
X149224945Y-108014987D01*
X149224945Y-108014987D02*
X149320183Y-108014987D01*
X149320183Y-108014987D02*
X149463040Y-107967368D01*
X149463040Y-107967368D02*
X149510659Y-107919748D01*
X149510659Y-107919748D02*
X149510659Y-107586415D01*
X149510659Y-107586415D02*
X149320183Y-107586415D01*
X149939231Y-108014987D02*
X149939231Y-107014987D01*
X149939231Y-107014987D02*
X150510659Y-108014987D01*
X150510659Y-108014987D02*
X150510659Y-107014987D01*
X150986850Y-108014987D02*
X150986850Y-107014987D01*
X150986850Y-107014987D02*
X151224945Y-107014987D01*
X151224945Y-107014987D02*
X151367802Y-107062606D01*
X151367802Y-107062606D02*
X151463040Y-107157844D01*
X151463040Y-107157844D02*
X151510659Y-107253082D01*
X151510659Y-107253082D02*
X151558278Y-107443558D01*
X151558278Y-107443558D02*
X151558278Y-107586415D01*
X151558278Y-107586415D02*
X151510659Y-107776891D01*
X151510659Y-107776891D02*
X151463040Y-107872129D01*
X151463040Y-107872129D02*
X151367802Y-107967368D01*
X151367802Y-107967368D02*
X151224945Y-108014987D01*
X151224945Y-108014987D02*
X150986850Y-108014987D01*
X149463041Y-104522604D02*
X149367803Y-104474985D01*
X149367803Y-104474985D02*
X149224946Y-104474985D01*
X149224946Y-104474985D02*
X149082089Y-104522604D01*
X149082089Y-104522604D02*
X148986851Y-104617842D01*
X148986851Y-104617842D02*
X148939232Y-104713080D01*
X148939232Y-104713080D02*
X148891613Y-104903556D01*
X148891613Y-104903556D02*
X148891613Y-105046413D01*
X148891613Y-105046413D02*
X148939232Y-105236889D01*
X148939232Y-105236889D02*
X148986851Y-105332127D01*
X148986851Y-105332127D02*
X149082089Y-105427366D01*
X149082089Y-105427366D02*
X149224946Y-105474985D01*
X149224946Y-105474985D02*
X149320184Y-105474985D01*
X149320184Y-105474985D02*
X149463041Y-105427366D01*
X149463041Y-105427366D02*
X149510660Y-105379746D01*
X149510660Y-105379746D02*
X149510660Y-105046413D01*
X149510660Y-105046413D02*
X149320184Y-105046413D01*
X149939232Y-105474985D02*
X149939232Y-104474985D01*
X149939232Y-104474985D02*
X150510660Y-105474985D01*
X150510660Y-105474985D02*
X150510660Y-104474985D01*
X150986851Y-105474985D02*
X150986851Y-104474985D01*
X150986851Y-104474985D02*
X151224946Y-104474985D01*
X151224946Y-104474985D02*
X151367803Y-104522604D01*
X151367803Y-104522604D02*
X151463041Y-104617842D01*
X151463041Y-104617842D02*
X151510660Y-104713080D01*
X151510660Y-104713080D02*
X151558279Y-104903556D01*
X151558279Y-104903556D02*
X151558279Y-105046413D01*
X151558279Y-105046413D02*
X151510660Y-105236889D01*
X151510660Y-105236889D02*
X151463041Y-105332127D01*
X151463041Y-105332127D02*
X151367803Y-105427366D01*
X151367803Y-105427366D02*
X151224946Y-105474985D01*
X151224946Y-105474985D02*
X150986851Y-105474985D01*
X150076850Y-118174986D02*
X150076850Y-117174986D01*
X150076850Y-117174986D02*
X150457802Y-117174986D01*
X150457802Y-117174986D02*
X150553040Y-117222605D01*
X150553040Y-117222605D02*
X150600659Y-117270224D01*
X150600659Y-117270224D02*
X150648278Y-117365462D01*
X150648278Y-117365462D02*
X150648278Y-117508319D01*
X150648278Y-117508319D02*
X150600659Y-117603557D01*
X150600659Y-117603557D02*
X150553040Y-117651176D01*
X150553040Y-117651176D02*
X150457802Y-117698795D01*
X150457802Y-117698795D02*
X150076850Y-117698795D01*
X151553040Y-117174986D02*
X151076850Y-117174986D01*
X151076850Y-117174986D02*
X151029231Y-117651176D01*
X151029231Y-117651176D02*
X151076850Y-117603557D01*
X151076850Y-117603557D02*
X151172088Y-117555938D01*
X151172088Y-117555938D02*
X151410183Y-117555938D01*
X151410183Y-117555938D02*
X151505421Y-117603557D01*
X151505421Y-117603557D02*
X151553040Y-117651176D01*
X151553040Y-117651176D02*
X151600659Y-117746414D01*
X151600659Y-117746414D02*
X151600659Y-117984509D01*
X151600659Y-117984509D02*
X151553040Y-118079747D01*
X151553040Y-118079747D02*
X151505421Y-118127367D01*
X151505421Y-118127367D02*
X151410183Y-118174986D01*
X151410183Y-118174986D02*
X151172088Y-118174986D01*
X151172088Y-118174986D02*
X151076850Y-118127367D01*
X151076850Y-118127367D02*
X151029231Y-118079747D01*
X150076851Y-100394986D02*
X150076851Y-99394986D01*
X150076851Y-99394986D02*
X150457803Y-99394986D01*
X150457803Y-99394986D02*
X150553041Y-99442605D01*
X150553041Y-99442605D02*
X150600660Y-99490224D01*
X150600660Y-99490224D02*
X150648279Y-99585462D01*
X150648279Y-99585462D02*
X150648279Y-99728319D01*
X150648279Y-99728319D02*
X150600660Y-99823557D01*
X150600660Y-99823557D02*
X150553041Y-99871176D01*
X150553041Y-99871176D02*
X150457803Y-99918795D01*
X150457803Y-99918795D02*
X150076851Y-99918795D01*
X151600660Y-100394986D02*
X151029232Y-100394986D01*
X151314946Y-100394986D02*
X151314946Y-99394986D01*
X151314946Y-99394986D02*
X151219708Y-99537843D01*
X151219708Y-99537843D02*
X151124470Y-99633081D01*
X151124470Y-99633081D02*
X151029232Y-99680700D01*
X150076851Y-102934987D02*
X150076851Y-101934987D01*
X150076851Y-101934987D02*
X150457803Y-101934987D01*
X150457803Y-101934987D02*
X150553041Y-101982606D01*
X150553041Y-101982606D02*
X150600660Y-102030225D01*
X150600660Y-102030225D02*
X150648279Y-102125463D01*
X150648279Y-102125463D02*
X150648279Y-102268320D01*
X150648279Y-102268320D02*
X150600660Y-102363558D01*
X150600660Y-102363558D02*
X150553041Y-102411177D01*
X150553041Y-102411177D02*
X150457803Y-102458796D01*
X150457803Y-102458796D02*
X150076851Y-102458796D01*
X151267327Y-101934987D02*
X151362565Y-101934987D01*
X151362565Y-101934987D02*
X151457803Y-101982606D01*
X151457803Y-101982606D02*
X151505422Y-102030225D01*
X151505422Y-102030225D02*
X151553041Y-102125463D01*
X151553041Y-102125463D02*
X151600660Y-102315939D01*
X151600660Y-102315939D02*
X151600660Y-102554034D01*
X151600660Y-102554034D02*
X151553041Y-102744510D01*
X151553041Y-102744510D02*
X151505422Y-102839748D01*
X151505422Y-102839748D02*
X151457803Y-102887368D01*
X151457803Y-102887368D02*
X151362565Y-102934987D01*
X151362565Y-102934987D02*
X151267327Y-102934987D01*
X151267327Y-102934987D02*
X151172089Y-102887368D01*
X151172089Y-102887368D02*
X151124470Y-102839748D01*
X151124470Y-102839748D02*
X151076851Y-102744510D01*
X151076851Y-102744510D02*
X151029232Y-102554034D01*
X151029232Y-102554034D02*
X151029232Y-102315939D01*
X151029232Y-102315939D02*
X151076851Y-102125463D01*
X151076851Y-102125463D02*
X151124470Y-102030225D01*
X151124470Y-102030225D02*
X151172089Y-101982606D01*
X151172089Y-101982606D02*
X151267327Y-101934987D01*
X150076851Y-110554986D02*
X150076851Y-109554986D01*
X150076851Y-109554986D02*
X150457803Y-109554986D01*
X150457803Y-109554986D02*
X150553041Y-109602605D01*
X150553041Y-109602605D02*
X150600660Y-109650224D01*
X150600660Y-109650224D02*
X150648279Y-109745462D01*
X150648279Y-109745462D02*
X150648279Y-109888319D01*
X150648279Y-109888319D02*
X150600660Y-109983557D01*
X150600660Y-109983557D02*
X150553041Y-110031176D01*
X150553041Y-110031176D02*
X150457803Y-110078795D01*
X150457803Y-110078795D02*
X150076851Y-110078795D01*
X151029232Y-109650224D02*
X151076851Y-109602605D01*
X151076851Y-109602605D02*
X151172089Y-109554986D01*
X151172089Y-109554986D02*
X151410184Y-109554986D01*
X151410184Y-109554986D02*
X151505422Y-109602605D01*
X151505422Y-109602605D02*
X151553041Y-109650224D01*
X151553041Y-109650224D02*
X151600660Y-109745462D01*
X151600660Y-109745462D02*
X151600660Y-109840700D01*
X151600660Y-109840700D02*
X151553041Y-109983557D01*
X151553041Y-109983557D02*
X150981613Y-110554986D01*
X150981613Y-110554986D02*
X151600660Y-110554986D01*
X150076851Y-113094986D02*
X150076851Y-112094986D01*
X150076851Y-112094986D02*
X150457803Y-112094986D01*
X150457803Y-112094986D02*
X150553041Y-112142605D01*
X150553041Y-112142605D02*
X150600660Y-112190224D01*
X150600660Y-112190224D02*
X150648279Y-112285462D01*
X150648279Y-112285462D02*
X150648279Y-112428319D01*
X150648279Y-112428319D02*
X150600660Y-112523557D01*
X150600660Y-112523557D02*
X150553041Y-112571176D01*
X150553041Y-112571176D02*
X150457803Y-112618795D01*
X150457803Y-112618795D02*
X150076851Y-112618795D01*
X150981613Y-112094986D02*
X151600660Y-112094986D01*
X151600660Y-112094986D02*
X151267327Y-112475938D01*
X151267327Y-112475938D02*
X151410184Y-112475938D01*
X151410184Y-112475938D02*
X151505422Y-112523557D01*
X151505422Y-112523557D02*
X151553041Y-112571176D01*
X151553041Y-112571176D02*
X151600660Y-112666414D01*
X151600660Y-112666414D02*
X151600660Y-112904509D01*
X151600660Y-112904509D02*
X151553041Y-112999747D01*
X151553041Y-112999747D02*
X151505422Y-113047367D01*
X151505422Y-113047367D02*
X151410184Y-113094986D01*
X151410184Y-113094986D02*
X151124470Y-113094986D01*
X151124470Y-113094986D02*
X151029232Y-113047367D01*
X151029232Y-113047367D02*
X150981613Y-112999747D01*
X150076851Y-115634986D02*
X150076851Y-114634986D01*
X150076851Y-114634986D02*
X150457803Y-114634986D01*
X150457803Y-114634986D02*
X150553041Y-114682605D01*
X150553041Y-114682605D02*
X150600660Y-114730224D01*
X150600660Y-114730224D02*
X150648279Y-114825462D01*
X150648279Y-114825462D02*
X150648279Y-114968319D01*
X150648279Y-114968319D02*
X150600660Y-115063557D01*
X150600660Y-115063557D02*
X150553041Y-115111176D01*
X150553041Y-115111176D02*
X150457803Y-115158795D01*
X150457803Y-115158795D02*
X150076851Y-115158795D01*
X151505422Y-114968319D02*
X151505422Y-115634986D01*
X151267327Y-114587367D02*
X151029232Y-115301652D01*
X151029232Y-115301652D02*
X151648279Y-115301652D01*
X150076851Y-123254985D02*
X150076851Y-122254985D01*
X150076851Y-122254985D02*
X150457803Y-122254985D01*
X150457803Y-122254985D02*
X150553041Y-122302604D01*
X150553041Y-122302604D02*
X150600660Y-122350223D01*
X150600660Y-122350223D02*
X150648279Y-122445461D01*
X150648279Y-122445461D02*
X150648279Y-122588318D01*
X150648279Y-122588318D02*
X150600660Y-122683556D01*
X150600660Y-122683556D02*
X150553041Y-122731175D01*
X150553041Y-122731175D02*
X150457803Y-122778794D01*
X150457803Y-122778794D02*
X150076851Y-122778794D01*
X150981613Y-122254985D02*
X151648279Y-122254985D01*
X151648279Y-122254985D02*
X151219708Y-123254985D01*
X150076851Y-125794986D02*
X150076851Y-124794986D01*
X150076851Y-124794986D02*
X150457803Y-124794986D01*
X150457803Y-124794986D02*
X150553041Y-124842605D01*
X150553041Y-124842605D02*
X150600660Y-124890224D01*
X150600660Y-124890224D02*
X150648279Y-124985462D01*
X150648279Y-124985462D02*
X150648279Y-125128319D01*
X150648279Y-125128319D02*
X150600660Y-125223557D01*
X150600660Y-125223557D02*
X150553041Y-125271176D01*
X150553041Y-125271176D02*
X150457803Y-125318795D01*
X150457803Y-125318795D02*
X150076851Y-125318795D01*
X151219708Y-125223557D02*
X151124470Y-125175938D01*
X151124470Y-125175938D02*
X151076851Y-125128319D01*
X151076851Y-125128319D02*
X151029232Y-125033081D01*
X151029232Y-125033081D02*
X151029232Y-124985462D01*
X151029232Y-124985462D02*
X151076851Y-124890224D01*
X151076851Y-124890224D02*
X151124470Y-124842605D01*
X151124470Y-124842605D02*
X151219708Y-124794986D01*
X151219708Y-124794986D02*
X151410184Y-124794986D01*
X151410184Y-124794986D02*
X151505422Y-124842605D01*
X151505422Y-124842605D02*
X151553041Y-124890224D01*
X151553041Y-124890224D02*
X151600660Y-124985462D01*
X151600660Y-124985462D02*
X151600660Y-125033081D01*
X151600660Y-125033081D02*
X151553041Y-125128319D01*
X151553041Y-125128319D02*
X151505422Y-125175938D01*
X151505422Y-125175938D02*
X151410184Y-125223557D01*
X151410184Y-125223557D02*
X151219708Y-125223557D01*
X151219708Y-125223557D02*
X151124470Y-125271176D01*
X151124470Y-125271176D02*
X151076851Y-125318795D01*
X151076851Y-125318795D02*
X151029232Y-125414033D01*
X151029232Y-125414033D02*
X151029232Y-125604509D01*
X151029232Y-125604509D02*
X151076851Y-125699747D01*
X151076851Y-125699747D02*
X151124470Y-125747367D01*
X151124470Y-125747367D02*
X151219708Y-125794986D01*
X151219708Y-125794986D02*
X151410184Y-125794986D01*
X151410184Y-125794986D02*
X151505422Y-125747367D01*
X151505422Y-125747367D02*
X151553041Y-125699747D01*
X151553041Y-125699747D02*
X151600660Y-125604509D01*
X151600660Y-125604509D02*
X151600660Y-125414033D01*
X151600660Y-125414033D02*
X151553041Y-125318795D01*
X151553041Y-125318795D02*
X151505422Y-125271176D01*
X151505422Y-125271176D02*
X151410184Y-125223557D01*
X150076851Y-128334985D02*
X150076851Y-127334985D01*
X150076851Y-127334985D02*
X150457803Y-127334985D01*
X150457803Y-127334985D02*
X150553041Y-127382604D01*
X150553041Y-127382604D02*
X150600660Y-127430223D01*
X150600660Y-127430223D02*
X150648279Y-127525461D01*
X150648279Y-127525461D02*
X150648279Y-127668318D01*
X150648279Y-127668318D02*
X150600660Y-127763556D01*
X150600660Y-127763556D02*
X150553041Y-127811175D01*
X150553041Y-127811175D02*
X150457803Y-127858794D01*
X150457803Y-127858794D02*
X150076851Y-127858794D01*
X151124470Y-128334985D02*
X151314946Y-128334985D01*
X151314946Y-128334985D02*
X151410184Y-128287366D01*
X151410184Y-128287366D02*
X151457803Y-128239746D01*
X151457803Y-128239746D02*
X151553041Y-128096889D01*
X151553041Y-128096889D02*
X151600660Y-127906413D01*
X151600660Y-127906413D02*
X151600660Y-127525461D01*
X151600660Y-127525461D02*
X151553041Y-127430223D01*
X151553041Y-127430223D02*
X151505422Y-127382604D01*
X151505422Y-127382604D02*
X151410184Y-127334985D01*
X151410184Y-127334985D02*
X151219708Y-127334985D01*
X151219708Y-127334985D02*
X151124470Y-127382604D01*
X151124470Y-127382604D02*
X151076851Y-127430223D01*
X151076851Y-127430223D02*
X151029232Y-127525461D01*
X151029232Y-127525461D02*
X151029232Y-127763556D01*
X151029232Y-127763556D02*
X151076851Y-127858794D01*
X151076851Y-127858794D02*
X151124470Y-127906413D01*
X151124470Y-127906413D02*
X151219708Y-127954032D01*
X151219708Y-127954032D02*
X151410184Y-127954032D01*
X151410184Y-127954032D02*
X151505422Y-127906413D01*
X151505422Y-127906413D02*
X151553041Y-127858794D01*
X151553041Y-127858794D02*
X151600660Y-127763556D01*
X150076852Y-120714985D02*
X150076852Y-119714985D01*
X150076852Y-119714985D02*
X150457804Y-119714985D01*
X150457804Y-119714985D02*
X150553042Y-119762604D01*
X150553042Y-119762604D02*
X150600661Y-119810223D01*
X150600661Y-119810223D02*
X150648280Y-119905461D01*
X150648280Y-119905461D02*
X150648280Y-120048318D01*
X150648280Y-120048318D02*
X150600661Y-120143556D01*
X150600661Y-120143556D02*
X150553042Y-120191175D01*
X150553042Y-120191175D02*
X150457804Y-120238794D01*
X150457804Y-120238794D02*
X150076852Y-120238794D01*
X151505423Y-119714985D02*
X151314947Y-119714985D01*
X151314947Y-119714985D02*
X151219709Y-119762604D01*
X151219709Y-119762604D02*
X151172090Y-119810223D01*
X151172090Y-119810223D02*
X151076852Y-119953080D01*
X151076852Y-119953080D02*
X151029233Y-120143556D01*
X151029233Y-120143556D02*
X151029233Y-120524508D01*
X151029233Y-120524508D02*
X151076852Y-120619746D01*
X151076852Y-120619746D02*
X151124471Y-120667366D01*
X151124471Y-120667366D02*
X151219709Y-120714985D01*
X151219709Y-120714985D02*
X151410185Y-120714985D01*
X151410185Y-120714985D02*
X151505423Y-120667366D01*
X151505423Y-120667366D02*
X151553042Y-120619746D01*
X151553042Y-120619746D02*
X151600661Y-120524508D01*
X151600661Y-120524508D02*
X151600661Y-120286413D01*
X151600661Y-120286413D02*
X151553042Y-120191175D01*
X151553042Y-120191175D02*
X151505423Y-120143556D01*
X151505423Y-120143556D02*
X151410185Y-120095937D01*
X151410185Y-120095937D02*
X151219709Y-120095937D01*
X151219709Y-120095937D02*
X151124471Y-120143556D01*
X151124471Y-120143556D02*
X151076852Y-120191175D01*
X151076852Y-120191175D02*
X151029233Y-120286413D01*
X136108281Y-141047367D02*
X136251138Y-141094986D01*
X136251138Y-141094986D02*
X136489233Y-141094986D01*
X136489233Y-141094986D02*
X136584471Y-141047367D01*
X136584471Y-141047367D02*
X136632090Y-140999747D01*
X136632090Y-140999747D02*
X136679709Y-140904509D01*
X136679709Y-140904509D02*
X136679709Y-140809271D01*
X136679709Y-140809271D02*
X136632090Y-140714033D01*
X136632090Y-140714033D02*
X136584471Y-140666414D01*
X136584471Y-140666414D02*
X136489233Y-140618795D01*
X136489233Y-140618795D02*
X136298757Y-140571176D01*
X136298757Y-140571176D02*
X136203519Y-140523557D01*
X136203519Y-140523557D02*
X136155900Y-140475938D01*
X136155900Y-140475938D02*
X136108281Y-140380700D01*
X136108281Y-140380700D02*
X136108281Y-140285462D01*
X136108281Y-140285462D02*
X136155900Y-140190224D01*
X136155900Y-140190224D02*
X136203519Y-140142605D01*
X136203519Y-140142605D02*
X136298757Y-140094986D01*
X136298757Y-140094986D02*
X136536852Y-140094986D01*
X136536852Y-140094986D02*
X136679709Y-140142605D01*
X137060662Y-141047367D02*
X137203519Y-141094986D01*
X137203519Y-141094986D02*
X137441614Y-141094986D01*
X137441614Y-141094986D02*
X137536852Y-141047367D01*
X137536852Y-141047367D02*
X137584471Y-140999747D01*
X137584471Y-140999747D02*
X137632090Y-140904509D01*
X137632090Y-140904509D02*
X137632090Y-140809271D01*
X137632090Y-140809271D02*
X137584471Y-140714033D01*
X137584471Y-140714033D02*
X137536852Y-140666414D01*
X137536852Y-140666414D02*
X137441614Y-140618795D01*
X137441614Y-140618795D02*
X137251138Y-140571176D01*
X137251138Y-140571176D02*
X137155900Y-140523557D01*
X137155900Y-140523557D02*
X137108281Y-140475938D01*
X137108281Y-140475938D02*
X137060662Y-140380700D01*
X137060662Y-140380700D02*
X137060662Y-140285462D01*
X137060662Y-140285462D02*
X137108281Y-140190224D01*
X137108281Y-140190224D02*
X137155900Y-140142605D01*
X137155900Y-140142605D02*
X137251138Y-140094986D01*
X137251138Y-140094986D02*
X137489233Y-140094986D01*
X137489233Y-140094986D02*
X137632090Y-140142605D01*
X138060662Y-141094986D02*
X138060662Y-140094986D01*
X138060662Y-140094986D02*
X138298757Y-140094986D01*
X138298757Y-140094986D02*
X138441614Y-140142605D01*
X138441614Y-140142605D02*
X138536852Y-140237843D01*
X138536852Y-140237843D02*
X138584471Y-140333081D01*
X138584471Y-140333081D02*
X138632090Y-140523557D01*
X138632090Y-140523557D02*
X138632090Y-140666414D01*
X138632090Y-140666414D02*
X138584471Y-140856890D01*
X138584471Y-140856890D02*
X138536852Y-140952128D01*
X138536852Y-140952128D02*
X138441614Y-141047367D01*
X138441614Y-141047367D02*
X138298757Y-141094986D01*
X138298757Y-141094986D02*
X138060662Y-141094986D01*
X139584471Y-141094986D02*
X139013043Y-141094986D01*
X139298757Y-141094986D02*
X139298757Y-140094986D01*
X139298757Y-140094986D02*
X139203519Y-140237843D01*
X139203519Y-140237843D02*
X139108281Y-140333081D01*
X139108281Y-140333081D02*
X139013043Y-140380700D01*
X139917805Y-140094986D02*
X140536852Y-140094986D01*
X140536852Y-140094986D02*
X140203519Y-140475938D01*
X140203519Y-140475938D02*
X140346376Y-140475938D01*
X140346376Y-140475938D02*
X140441614Y-140523557D01*
X140441614Y-140523557D02*
X140489233Y-140571176D01*
X140489233Y-140571176D02*
X140536852Y-140666414D01*
X140536852Y-140666414D02*
X140536852Y-140904509D01*
X140536852Y-140904509D02*
X140489233Y-140999747D01*
X140489233Y-140999747D02*
X140441614Y-141047367D01*
X140441614Y-141047367D02*
X140346376Y-141094986D01*
X140346376Y-141094986D02*
X140060662Y-141094986D01*
X140060662Y-141094986D02*
X139965424Y-141047367D01*
X139965424Y-141047367D02*
X139917805Y-140999747D01*
X141155900Y-140094986D02*
X141251138Y-140094986D01*
X141251138Y-140094986D02*
X141346376Y-140142605D01*
X141346376Y-140142605D02*
X141393995Y-140190224D01*
X141393995Y-140190224D02*
X141441614Y-140285462D01*
X141441614Y-140285462D02*
X141489233Y-140475938D01*
X141489233Y-140475938D02*
X141489233Y-140714033D01*
X141489233Y-140714033D02*
X141441614Y-140904509D01*
X141441614Y-140904509D02*
X141393995Y-140999747D01*
X141393995Y-140999747D02*
X141346376Y-141047367D01*
X141346376Y-141047367D02*
X141251138Y-141094986D01*
X141251138Y-141094986D02*
X141155900Y-141094986D01*
X141155900Y-141094986D02*
X141060662Y-141047367D01*
X141060662Y-141047367D02*
X141013043Y-140999747D01*
X141013043Y-140999747D02*
X140965424Y-140904509D01*
X140965424Y-140904509D02*
X140917805Y-140714033D01*
X140917805Y-140714033D02*
X140917805Y-140475938D01*
X140917805Y-140475938D02*
X140965424Y-140285462D01*
X140965424Y-140285462D02*
X141013043Y-140190224D01*
X141013043Y-140190224D02*
X141060662Y-140142605D01*
X141060662Y-140142605D02*
X141155900Y-140094986D01*
X142346376Y-140094986D02*
X142155900Y-140094986D01*
X142155900Y-140094986D02*
X142060662Y-140142605D01*
X142060662Y-140142605D02*
X142013043Y-140190224D01*
X142013043Y-140190224D02*
X141917805Y-140333081D01*
X141917805Y-140333081D02*
X141870186Y-140523557D01*
X141870186Y-140523557D02*
X141870186Y-140904509D01*
X141870186Y-140904509D02*
X141917805Y-140999747D01*
X141917805Y-140999747D02*
X141965424Y-141047367D01*
X141965424Y-141047367D02*
X142060662Y-141094986D01*
X142060662Y-141094986D02*
X142251138Y-141094986D01*
X142251138Y-141094986D02*
X142346376Y-141047367D01*
X142346376Y-141047367D02*
X142393995Y-140999747D01*
X142393995Y-140999747D02*
X142441614Y-140904509D01*
X142441614Y-140904509D02*
X142441614Y-140666414D01*
X142441614Y-140666414D02*
X142393995Y-140571176D01*
X142393995Y-140571176D02*
X142346376Y-140523557D01*
X142346376Y-140523557D02*
X142251138Y-140475938D01*
X142251138Y-140475938D02*
X142060662Y-140475938D01*
X142060662Y-140475938D02*
X141965424Y-140523557D01*
X141965424Y-140523557D02*
X141917805Y-140571176D01*
X141917805Y-140571176D02*
X141870186Y-140666414D01*
X138437771Y-171772072D02*
X138437771Y-171200644D01*
X139437771Y-171486358D02*
X138437771Y-171486358D01*
X139437771Y-170295882D02*
X138961580Y-170629215D01*
X139437771Y-170867310D02*
X138437771Y-170867310D01*
X138437771Y-170867310D02*
X138437771Y-170486358D01*
X138437771Y-170486358D02*
X138485390Y-170391120D01*
X138485390Y-170391120D02*
X138533009Y-170343501D01*
X138533009Y-170343501D02*
X138628247Y-170295882D01*
X138628247Y-170295882D02*
X138771104Y-170295882D01*
X138771104Y-170295882D02*
X138866342Y-170343501D01*
X138866342Y-170343501D02*
X138913961Y-170391120D01*
X138913961Y-170391120D02*
X138961580Y-170486358D01*
X138961580Y-170486358D02*
X138961580Y-170867310D01*
X139437771Y-169295882D02*
X138961580Y-169629215D01*
X139437771Y-169867310D02*
X138437771Y-169867310D01*
X138437771Y-169867310D02*
X138437771Y-169486358D01*
X138437771Y-169486358D02*
X138485390Y-169391120D01*
X138485390Y-169391120D02*
X138533009Y-169343501D01*
X138533009Y-169343501D02*
X138628247Y-169295882D01*
X138628247Y-169295882D02*
X138771104Y-169295882D01*
X138771104Y-169295882D02*
X138866342Y-169343501D01*
X138866342Y-169343501D02*
X138913961Y-169391120D01*
X138913961Y-169391120D02*
X138961580Y-169486358D01*
X138961580Y-169486358D02*
X138961580Y-169867310D01*
X139390152Y-168914929D02*
X139437771Y-168772072D01*
X139437771Y-168772072D02*
X139437771Y-168533977D01*
X139437771Y-168533977D02*
X139390152Y-168438739D01*
X139390152Y-168438739D02*
X139342532Y-168391120D01*
X139342532Y-168391120D02*
X139247294Y-168343501D01*
X139247294Y-168343501D02*
X139152056Y-168343501D01*
X139152056Y-168343501D02*
X139056818Y-168391120D01*
X139056818Y-168391120D02*
X139009199Y-168438739D01*
X139009199Y-168438739D02*
X138961580Y-168533977D01*
X138961580Y-168533977D02*
X138913961Y-168724453D01*
X138913961Y-168724453D02*
X138866342Y-168819691D01*
X138866342Y-168819691D02*
X138818723Y-168867310D01*
X138818723Y-168867310D02*
X138723485Y-168914929D01*
X138723485Y-168914929D02*
X138628247Y-168914929D01*
X138628247Y-168914929D02*
X138533009Y-168867310D01*
X138533009Y-168867310D02*
X138485390Y-168819691D01*
X138485390Y-168819691D02*
X138437771Y-168724453D01*
X138437771Y-168724453D02*
X138437771Y-168486358D01*
X138437771Y-168486358D02*
X138485390Y-168343501D01*
X133418903Y-100494985D02*
X133609379Y-100494985D01*
X133609379Y-100494985D02*
X133704617Y-100542604D01*
X133704617Y-100542604D02*
X133799855Y-100637842D01*
X133799855Y-100637842D02*
X133847474Y-100828318D01*
X133847474Y-100828318D02*
X133847474Y-101161651D01*
X133847474Y-101161651D02*
X133799855Y-101352127D01*
X133799855Y-101352127D02*
X133704617Y-101447366D01*
X133704617Y-101447366D02*
X133609379Y-101494985D01*
X133609379Y-101494985D02*
X133418903Y-101494985D01*
X133418903Y-101494985D02*
X133323665Y-101447366D01*
X133323665Y-101447366D02*
X133228427Y-101352127D01*
X133228427Y-101352127D02*
X133180808Y-101161651D01*
X133180808Y-101161651D02*
X133180808Y-100828318D01*
X133180808Y-100828318D02*
X133228427Y-100637842D01*
X133228427Y-100637842D02*
X133323665Y-100542604D01*
X133323665Y-100542604D02*
X133418903Y-100494985D01*
X134276046Y-101494985D02*
X134276046Y-100494985D01*
X134276046Y-100494985D02*
X134847474Y-101494985D01*
X134847474Y-101494985D02*
X134847474Y-100494985D01*
X133085570Y-110494985D02*
X133276046Y-110494985D01*
X133276046Y-110494985D02*
X133371284Y-110542604D01*
X133371284Y-110542604D02*
X133466522Y-110637842D01*
X133466522Y-110637842D02*
X133514141Y-110828318D01*
X133514141Y-110828318D02*
X133514141Y-111161651D01*
X133514141Y-111161651D02*
X133466522Y-111352127D01*
X133466522Y-111352127D02*
X133371284Y-111447366D01*
X133371284Y-111447366D02*
X133276046Y-111494985D01*
X133276046Y-111494985D02*
X133085570Y-111494985D01*
X133085570Y-111494985D02*
X132990332Y-111447366D01*
X132990332Y-111447366D02*
X132895094Y-111352127D01*
X132895094Y-111352127D02*
X132847475Y-111161651D01*
X132847475Y-111161651D02*
X132847475Y-110828318D01*
X132847475Y-110828318D02*
X132895094Y-110637842D01*
X132895094Y-110637842D02*
X132990332Y-110542604D01*
X132990332Y-110542604D02*
X133085570Y-110494985D01*
X134276046Y-110971175D02*
X133942713Y-110971175D01*
X133942713Y-111494985D02*
X133942713Y-110494985D01*
X133942713Y-110494985D02*
X134418903Y-110494985D01*
X135133189Y-110971175D02*
X134799856Y-110971175D01*
X134799856Y-111494985D02*
X134799856Y-110494985D01*
X134799856Y-110494985D02*
X135276046Y-110494985D01*
X144054528Y-137381707D02*
X144102148Y-137429326D01*
X144102148Y-137429326D02*
X144149767Y-137572183D01*
X144149767Y-137572183D02*
X144149767Y-137667421D01*
X144149767Y-137667421D02*
X144102148Y-137810278D01*
X144102148Y-137810278D02*
X144006909Y-137905516D01*
X144006909Y-137905516D02*
X143911671Y-137953135D01*
X143911671Y-137953135D02*
X143721195Y-138000754D01*
X143721195Y-138000754D02*
X143578338Y-138000754D01*
X143578338Y-138000754D02*
X143387862Y-137953135D01*
X143387862Y-137953135D02*
X143292624Y-137905516D01*
X143292624Y-137905516D02*
X143197386Y-137810278D01*
X143197386Y-137810278D02*
X143149767Y-137667421D01*
X143149767Y-137667421D02*
X143149767Y-137572183D01*
X143149767Y-137572183D02*
X143197386Y-137429326D01*
X143197386Y-137429326D02*
X143245005Y-137381707D01*
X144102148Y-137000754D02*
X144149767Y-136857897D01*
X144149767Y-136857897D02*
X144149767Y-136619802D01*
X144149767Y-136619802D02*
X144102148Y-136524564D01*
X144102148Y-136524564D02*
X144054528Y-136476945D01*
X144054528Y-136476945D02*
X143959290Y-136429326D01*
X143959290Y-136429326D02*
X143864052Y-136429326D01*
X143864052Y-136429326D02*
X143768814Y-136476945D01*
X143768814Y-136476945D02*
X143721195Y-136524564D01*
X143721195Y-136524564D02*
X143673576Y-136619802D01*
X143673576Y-136619802D02*
X143625957Y-136810278D01*
X143625957Y-136810278D02*
X143578338Y-136905516D01*
X143578338Y-136905516D02*
X143530719Y-136953135D01*
X143530719Y-136953135D02*
X143435481Y-137000754D01*
X143435481Y-137000754D02*
X143340243Y-137000754D01*
X143340243Y-137000754D02*
X143245005Y-136953135D01*
X143245005Y-136953135D02*
X143197386Y-136905516D01*
X143197386Y-136905516D02*
X143149767Y-136810278D01*
X143149767Y-136810278D02*
X143149767Y-136572183D01*
X143149767Y-136572183D02*
X143197386Y-136429326D01*
X145797387Y-138524563D02*
X145749768Y-138619801D01*
X145749768Y-138619801D02*
X145749768Y-138762658D01*
X145749768Y-138762658D02*
X145797387Y-138905515D01*
X145797387Y-138905515D02*
X145892625Y-139000753D01*
X145892625Y-139000753D02*
X145987863Y-139048372D01*
X145987863Y-139048372D02*
X146178339Y-139095991D01*
X146178339Y-139095991D02*
X146321196Y-139095991D01*
X146321196Y-139095991D02*
X146511672Y-139048372D01*
X146511672Y-139048372D02*
X146606910Y-139000753D01*
X146606910Y-139000753D02*
X146702149Y-138905515D01*
X146702149Y-138905515D02*
X146749768Y-138762658D01*
X146749768Y-138762658D02*
X146749768Y-138667420D01*
X146749768Y-138667420D02*
X146702149Y-138524563D01*
X146702149Y-138524563D02*
X146654529Y-138476944D01*
X146654529Y-138476944D02*
X146321196Y-138476944D01*
X146321196Y-138476944D02*
X146321196Y-138667420D01*
X146749768Y-138048372D02*
X145749768Y-138048372D01*
X145749768Y-138048372D02*
X146749768Y-137476944D01*
X146749768Y-137476944D02*
X145749768Y-137476944D01*
X146749768Y-137000753D02*
X145749768Y-137000753D01*
X145749768Y-137000753D02*
X145749768Y-136762658D01*
X145749768Y-136762658D02*
X145797387Y-136619801D01*
X145797387Y-136619801D02*
X145892625Y-136524563D01*
X145892625Y-136524563D02*
X145987863Y-136476944D01*
X145987863Y-136476944D02*
X146178339Y-136429325D01*
X146178339Y-136429325D02*
X146321196Y-136429325D01*
X146321196Y-136429325D02*
X146511672Y-136476944D01*
X146511672Y-136476944D02*
X146606910Y-136524563D01*
X146606910Y-136524563D02*
X146702149Y-136619801D01*
X146702149Y-136619801D02*
X146749768Y-136762658D01*
X146749768Y-136762658D02*
X146749768Y-137000753D01*
X148379767Y-139000753D02*
X149379767Y-138667420D01*
X149379767Y-138667420D02*
X148379767Y-138334087D01*
X149284528Y-137429325D02*
X149332148Y-137476944D01*
X149332148Y-137476944D02*
X149379767Y-137619801D01*
X149379767Y-137619801D02*
X149379767Y-137715039D01*
X149379767Y-137715039D02*
X149332148Y-137857896D01*
X149332148Y-137857896D02*
X149236909Y-137953134D01*
X149236909Y-137953134D02*
X149141671Y-138000753D01*
X149141671Y-138000753D02*
X148951195Y-138048372D01*
X148951195Y-138048372D02*
X148808338Y-138048372D01*
X148808338Y-138048372D02*
X148617862Y-138000753D01*
X148617862Y-138000753D02*
X148522624Y-137953134D01*
X148522624Y-137953134D02*
X148427386Y-137857896D01*
X148427386Y-137857896D02*
X148379767Y-137715039D01*
X148379767Y-137715039D02*
X148379767Y-137619801D01*
X148379767Y-137619801D02*
X148427386Y-137476944D01*
X148427386Y-137476944D02*
X148475005Y-137429325D01*
X149284528Y-136429325D02*
X149332148Y-136476944D01*
X149332148Y-136476944D02*
X149379767Y-136619801D01*
X149379767Y-136619801D02*
X149379767Y-136715039D01*
X149379767Y-136715039D02*
X149332148Y-136857896D01*
X149332148Y-136857896D02*
X149236909Y-136953134D01*
X149236909Y-136953134D02*
X149141671Y-137000753D01*
X149141671Y-137000753D02*
X148951195Y-137048372D01*
X148951195Y-137048372D02*
X148808338Y-137048372D01*
X148808338Y-137048372D02*
X148617862Y-137000753D01*
X148617862Y-137000753D02*
X148522624Y-136953134D01*
X148522624Y-136953134D02*
X148427386Y-136857896D01*
X148427386Y-136857896D02*
X148379767Y-136715039D01*
X148379767Y-136715039D02*
X148379767Y-136619801D01*
X148379767Y-136619801D02*
X148427386Y-136476944D01*
X148427386Y-136476944D02*
X148475005Y-136429325D01*
X151802149Y-139000752D02*
X151849768Y-138857895D01*
X151849768Y-138857895D02*
X151849768Y-138619800D01*
X151849768Y-138619800D02*
X151802149Y-138524562D01*
X151802149Y-138524562D02*
X151754529Y-138476943D01*
X151754529Y-138476943D02*
X151659291Y-138429324D01*
X151659291Y-138429324D02*
X151564053Y-138429324D01*
X151564053Y-138429324D02*
X151468815Y-138476943D01*
X151468815Y-138476943D02*
X151421196Y-138524562D01*
X151421196Y-138524562D02*
X151373577Y-138619800D01*
X151373577Y-138619800D02*
X151325958Y-138810276D01*
X151325958Y-138810276D02*
X151278339Y-138905514D01*
X151278339Y-138905514D02*
X151230720Y-138953133D01*
X151230720Y-138953133D02*
X151135482Y-139000752D01*
X151135482Y-139000752D02*
X151040244Y-139000752D01*
X151040244Y-139000752D02*
X150945006Y-138953133D01*
X150945006Y-138953133D02*
X150897387Y-138905514D01*
X150897387Y-138905514D02*
X150849768Y-138810276D01*
X150849768Y-138810276D02*
X150849768Y-138572181D01*
X150849768Y-138572181D02*
X150897387Y-138429324D01*
X151754529Y-137429324D02*
X151802149Y-137476943D01*
X151802149Y-137476943D02*
X151849768Y-137619800D01*
X151849768Y-137619800D02*
X151849768Y-137715038D01*
X151849768Y-137715038D02*
X151802149Y-137857895D01*
X151802149Y-137857895D02*
X151706910Y-137953133D01*
X151706910Y-137953133D02*
X151611672Y-138000752D01*
X151611672Y-138000752D02*
X151421196Y-138048371D01*
X151421196Y-138048371D02*
X151278339Y-138048371D01*
X151278339Y-138048371D02*
X151087863Y-138000752D01*
X151087863Y-138000752D02*
X150992625Y-137953133D01*
X150992625Y-137953133D02*
X150897387Y-137857895D01*
X150897387Y-137857895D02*
X150849768Y-137715038D01*
X150849768Y-137715038D02*
X150849768Y-137619800D01*
X150849768Y-137619800D02*
X150897387Y-137476943D01*
X150897387Y-137476943D02*
X150945006Y-137429324D01*
X151849768Y-137000752D02*
X150849768Y-137000752D01*
X151849768Y-136429324D02*
X151278339Y-136857895D01*
X150849768Y-136429324D02*
X151421196Y-137000752D01*
X154349768Y-139619800D02*
X153349768Y-139619800D01*
X153349768Y-139619800D02*
X154064053Y-139286467D01*
X154064053Y-139286467D02*
X153349768Y-138953134D01*
X153349768Y-138953134D02*
X154349768Y-138953134D01*
X153349768Y-138286467D02*
X153349768Y-138095991D01*
X153349768Y-138095991D02*
X153397387Y-138000753D01*
X153397387Y-138000753D02*
X153492625Y-137905515D01*
X153492625Y-137905515D02*
X153683101Y-137857896D01*
X153683101Y-137857896D02*
X154016434Y-137857896D01*
X154016434Y-137857896D02*
X154206910Y-137905515D01*
X154206910Y-137905515D02*
X154302149Y-138000753D01*
X154302149Y-138000753D02*
X154349768Y-138095991D01*
X154349768Y-138095991D02*
X154349768Y-138286467D01*
X154349768Y-138286467D02*
X154302149Y-138381705D01*
X154302149Y-138381705D02*
X154206910Y-138476943D01*
X154206910Y-138476943D02*
X154016434Y-138524562D01*
X154016434Y-138524562D02*
X153683101Y-138524562D01*
X153683101Y-138524562D02*
X153492625Y-138476943D01*
X153492625Y-138476943D02*
X153397387Y-138381705D01*
X153397387Y-138381705D02*
X153349768Y-138286467D01*
X154302149Y-137476943D02*
X154349768Y-137334086D01*
X154349768Y-137334086D02*
X154349768Y-137095991D01*
X154349768Y-137095991D02*
X154302149Y-137000753D01*
X154302149Y-137000753D02*
X154254529Y-136953134D01*
X154254529Y-136953134D02*
X154159291Y-136905515D01*
X154159291Y-136905515D02*
X154064053Y-136905515D01*
X154064053Y-136905515D02*
X153968815Y-136953134D01*
X153968815Y-136953134D02*
X153921196Y-137000753D01*
X153921196Y-137000753D02*
X153873577Y-137095991D01*
X153873577Y-137095991D02*
X153825958Y-137286467D01*
X153825958Y-137286467D02*
X153778339Y-137381705D01*
X153778339Y-137381705D02*
X153730720Y-137429324D01*
X153730720Y-137429324D02*
X153635482Y-137476943D01*
X153635482Y-137476943D02*
X153540244Y-137476943D01*
X153540244Y-137476943D02*
X153445006Y-137429324D01*
X153445006Y-137429324D02*
X153397387Y-137381705D01*
X153397387Y-137381705D02*
X153349768Y-137286467D01*
X153349768Y-137286467D02*
X153349768Y-137048372D01*
X153349768Y-137048372D02*
X153397387Y-136905515D01*
X154349768Y-136476943D02*
X153349768Y-136476943D01*
%TO.C,D11*%
D11*
X229759220Y-138413428D02*
X230158244Y-138441329D01*
X230158244Y-138441329D02*
X230119884Y-138989991D01*
X230158244Y-138441329D02*
X230196612Y-137892670D01*
X230158244Y-138441329D02*
X230784687Y-138084158D01*
X230728882Y-138882212D02*
X230158244Y-138441329D01*
X230756785Y-138483181D02*
X231255566Y-138518062D01*
X230784687Y-138084158D02*
X230728882Y-138882212D01*
%TO.C,D12*%
X231084593Y-119459709D02*
X231483617Y-119487610D01*
X231483617Y-119487610D02*
X231445257Y-120036272D01*
X231483617Y-119487610D02*
X231521985Y-118938951D01*
X231483617Y-119487610D02*
X232110060Y-119130439D01*
X232054255Y-119928493D02*
X231483617Y-119487610D01*
X232082158Y-119529462D02*
X232580939Y-119564343D01*
X232110060Y-119130439D02*
X232054255Y-119928493D01*
%TO.C,JST1*%
D12*
X132596949Y-142705167D02*
X133596949Y-142705167D01*
X132596949Y-143625167D02*
X132596949Y-142705167D01*
X132596949Y-147825167D02*
X132596949Y-148825167D01*
X132596949Y-148825167D02*
X133596948Y-148825166D01*
X140416949Y-142705167D02*
X139416949Y-142705167D01*
X140416949Y-147905167D02*
X140416949Y-148825167D01*
X140416949Y-148825167D02*
X139416949Y-148825167D01*
X140416950Y-143625167D02*
X140416949Y-142705167D01*
D11*
X140956949Y-144765167D02*
X141956949Y-144765167D01*
X141456949Y-144265167D02*
X141456947Y-145265168D01*
X141456949Y-147265167D02*
X141456947Y-146265166D01*
%TO.C,MCU1*%
D12*
X139824944Y-129210167D02*
X142484948Y-129210169D01*
X139824946Y-98610167D02*
X139824944Y-129210167D01*
X139824946Y-98610167D02*
X142484946Y-98610165D01*
X142484946Y-98610165D02*
X142484948Y-129210169D01*
X155064945Y-98610166D02*
X155064946Y-129210168D01*
X155064945Y-98610166D02*
X157724946Y-98610167D01*
X155064946Y-101210168D02*
X157724946Y-101210168D01*
X155064946Y-129210168D02*
X157724947Y-129210168D01*
X157724946Y-98610167D02*
X157724947Y-129210168D01*
%TO.C,SSD1306*%
X143124947Y-139240167D02*
X153124945Y-139240168D01*
X153124946Y-141640167D01*
X143124947Y-141640167D01*
X143124947Y-139240167D01*
%TO.C,D9*%
D11*
X210024951Y-109140164D02*
X210424951Y-109140164D01*
X210424951Y-109140164D02*
X210424951Y-108590164D01*
X210424951Y-109140164D02*
X210424951Y-109690164D01*
X210424951Y-109140164D02*
X211024951Y-108740164D01*
X211024950Y-109540164D02*
X210424951Y-109140164D01*
X211024951Y-108740164D02*
X211024950Y-109540164D01*
X211024951Y-109140164D02*
X211524951Y-109140164D01*
%TO.C,D15*%
X252046957Y-133803128D02*
X252440880Y-133872587D01*
X252440880Y-133872587D02*
X252345374Y-134414231D01*
X252440880Y-133872587D02*
X252536387Y-133330943D01*
X252440880Y-133872587D02*
X253101224Y-133582853D01*
X252962305Y-134370699D02*
X252440880Y-133872587D01*
X253031765Y-133976776D02*
X253524169Y-134063600D01*
X253101224Y-133582853D02*
X252962305Y-134370699D01*
%TO.C,D3*%
X172024950Y-122140167D02*
X172424950Y-122140167D01*
X172424950Y-122140167D02*
X172424950Y-121590167D01*
X172424950Y-122140167D02*
X172424950Y-122690167D01*
X172424950Y-122140167D02*
X173024950Y-121740167D01*
X173024949Y-122540167D02*
X172424950Y-122140167D01*
X173024950Y-121740167D02*
X173024949Y-122540167D01*
X173024950Y-122140167D02*
X173524950Y-122140167D01*
%TO.C,D8*%
X210024944Y-128140169D02*
X210424944Y-128140169D01*
X210424944Y-128140169D02*
X210424944Y-127590169D01*
X210424944Y-128140169D02*
X210424944Y-128690169D01*
X210424944Y-128140169D02*
X211024944Y-127740169D01*
X211024943Y-128540169D02*
X210424944Y-128140169D01*
X211024944Y-127740169D02*
X211024943Y-128540169D01*
X211024944Y-128140169D02*
X211524944Y-128140169D01*
%TO.C,D5*%
X191024950Y-137140169D02*
X191424950Y-137140169D01*
X191424950Y-137140169D02*
X191424950Y-136590169D01*
X191424950Y-137140169D02*
X191424950Y-137690169D01*
X191424950Y-137140169D02*
X192024950Y-136740169D01*
X192024949Y-137540169D02*
X191424950Y-137140169D01*
X192024950Y-136740169D02*
X192024949Y-137540169D01*
X192024950Y-137140169D02*
X192524950Y-137140169D01*
%TO.C,D17*%
X268327228Y-150889752D02*
X268721151Y-150959211D01*
X268721151Y-150959211D02*
X268625645Y-151500855D01*
X268721151Y-150959211D02*
X268816658Y-150417567D01*
X268721151Y-150959211D02*
X269381495Y-150669477D01*
X269242576Y-151457323D02*
X268721151Y-150959211D01*
X269312036Y-151063400D02*
X269804440Y-151150224D01*
X269381495Y-150669477D02*
X269242576Y-151457323D01*
%TO.C,D16*%
X265027914Y-169601101D02*
X265421837Y-169670560D01*
X265421837Y-169670560D02*
X265326331Y-170212204D01*
X265421837Y-169670560D02*
X265517344Y-169128916D01*
X265421837Y-169670560D02*
X266082181Y-169380826D01*
X265943262Y-170168672D02*
X265421837Y-169670560D01*
X266012722Y-169774749D02*
X266505126Y-169861573D01*
X266082181Y-169380826D02*
X265943262Y-170168672D01*
%TO.C,D20*%
X157561181Y-188460258D02*
X157907591Y-188260258D01*
X157907591Y-188260258D02*
X157632591Y-187783944D01*
X157907591Y-188260258D02*
X158182591Y-188736572D01*
X157907591Y-188260258D02*
X158227206Y-187613848D01*
X158227206Y-187613848D02*
X158627205Y-188306668D01*
X158427206Y-187960258D02*
X158860219Y-187710258D01*
X158627205Y-188306668D02*
X157907591Y-188260258D01*
%TO.C,D18*%
X193974952Y-178090171D02*
X194374952Y-178090171D01*
X194374952Y-178090171D02*
X194374952Y-177540171D01*
X194374952Y-178090171D02*
X194374952Y-178640171D01*
X194374952Y-178090171D02*
X194974952Y-177690171D01*
X194974951Y-178490171D02*
X194374952Y-178090171D01*
X194974952Y-177690171D02*
X194974951Y-178490171D01*
X194974952Y-178090171D02*
X195474952Y-178090171D01*
%TO.C,SW25*%
D12*
X141196951Y-149942169D02*
X141196950Y-161742168D01*
X145296951Y-149942169D02*
X141196951Y-149942169D01*
X145296951Y-161742169D02*
X141196950Y-161742168D01*
X146796949Y-155842169D02*
X147796953Y-155842169D01*
X147296951Y-155342167D02*
X147296951Y-156342171D01*
X149296951Y-149942169D02*
X153396952Y-149942170D01*
X153396951Y-154542168D02*
X153396951Y-157142170D01*
X153396951Y-159342170D02*
X153396951Y-161742169D01*
X153396951Y-161742169D02*
X149296951Y-161742169D01*
X153396952Y-149942170D02*
X153396951Y-152342169D01*
X150296951Y-155842169D02*
G75*
G02*
X144296951Y-155842169I-3000000J0D01*
G01*
X144296951Y-155842169D02*
G75*
G02*
X150296951Y-155842169I3000000J0D01*
G01*
%TO.C,D4*%
D11*
X191024952Y-156140167D02*
X191424952Y-156140167D01*
X191424952Y-156140167D02*
X191424952Y-155590167D01*
X191424952Y-156140167D02*
X191424952Y-156690167D01*
X191424952Y-156140167D02*
X192024952Y-155740167D01*
X192024951Y-156540167D02*
X191424952Y-156140167D01*
X192024952Y-155740167D02*
X192024951Y-156540167D01*
X192024952Y-156140167D02*
X192524952Y-156140167D01*
%TO.C,D10*%
X228433845Y-157367145D02*
X228832869Y-157395046D01*
X228832869Y-157395046D02*
X228794509Y-157943708D01*
X228832869Y-157395046D02*
X228871237Y-156846387D01*
X228832869Y-157395046D02*
X229459312Y-157037875D01*
X229403507Y-157835929D02*
X228832869Y-157395046D01*
X229431410Y-157436898D02*
X229930191Y-157471779D01*
X229459312Y-157037875D02*
X229403507Y-157835929D01*
%TO.C,D19*%
X175086217Y-180875731D02*
X175472587Y-180772204D01*
X175472587Y-180772204D02*
X175330235Y-180240943D01*
X175472587Y-180772204D02*
X175614937Y-181303464D01*
X175472587Y-180772204D02*
X175948616Y-180230544D01*
X175948616Y-180230544D02*
X176155670Y-181003283D01*
X176052142Y-180616912D02*
X176535105Y-180487503D01*
X176155670Y-181003283D02*
X175472587Y-180772204D01*
%TO.C,J1*%
D10*
X132532949Y-166260168D02*
X144532950Y-166260168D01*
X132532951Y-172260168D02*
X132532949Y-166260168D01*
X144532949Y-172260168D02*
X132532951Y-172260168D01*
X144532950Y-166260168D02*
X144532949Y-172260168D01*
%TO.C,D7*%
D11*
X210024954Y-147140166D02*
X210424954Y-147140166D01*
X210424954Y-147140166D02*
X210424954Y-146590166D01*
X210424954Y-147140166D02*
X210424954Y-147690166D01*
X210424954Y-147140166D02*
X211024954Y-146740166D01*
X211024953Y-147540166D02*
X210424954Y-147140166D01*
X211024954Y-146740166D02*
X211024953Y-147540166D01*
X211024954Y-147140166D02*
X211524954Y-147140166D01*
%TO.C,RST1*%
X132266956Y-163740168D02*
X132266954Y-163990169D01*
X132266957Y-159540169D02*
X132266955Y-159290166D01*
X132516955Y-159290170D02*
X132266955Y-159290166D01*
X132516955Y-163990165D02*
X132266954Y-163990169D01*
X135516955Y-159290171D02*
X135766956Y-159290167D01*
X135516955Y-163990166D02*
X135766955Y-163990170D01*
X135766953Y-163740167D02*
X135766955Y-163990170D01*
X135766954Y-159540168D02*
X135766956Y-159290167D01*
%TO.C,D21*%
X142565779Y-200326876D02*
X142848622Y-200044033D01*
X142848622Y-200044033D02*
X142459713Y-199655126D01*
X142848622Y-200044033D02*
X142990043Y-199336927D01*
X142848622Y-200044033D02*
X143237531Y-200432941D01*
X142990043Y-199336927D02*
X143555728Y-199902612D01*
X143272886Y-199619769D02*
X143626439Y-199266216D01*
X143555728Y-199902612D02*
X142848622Y-200044033D01*
%TO.C,D2*%
X172024950Y-141140165D02*
X172424950Y-141140165D01*
X172424950Y-141140165D02*
X172424950Y-140590165D01*
X172424950Y-141140165D02*
X172424950Y-141690165D01*
X172424950Y-141140165D02*
X173024950Y-140740165D01*
X173024949Y-141540165D02*
X172424950Y-141140165D01*
X173024950Y-140740165D02*
X173024949Y-141540165D01*
X173024950Y-141140165D02*
X173524950Y-141140165D01*
%TO.C,D13*%
X245448328Y-171225825D02*
X245842251Y-171295284D01*
X245842251Y-171295284D02*
X245746745Y-171836928D01*
X245842251Y-171295284D02*
X245937758Y-170753640D01*
X245842251Y-171295284D02*
X246502595Y-171005550D01*
X246363676Y-171793396D02*
X245842251Y-171295284D01*
X246433136Y-171399473D02*
X246925540Y-171486297D01*
X246502595Y-171005550D02*
X246363676Y-171793396D01*
%TO.C,D14*%
X248747640Y-152514477D02*
X249141563Y-152583936D01*
X249141563Y-152583936D02*
X249046057Y-153125580D01*
X249141563Y-152583936D02*
X249237070Y-152042292D01*
X249141563Y-152583936D02*
X249801907Y-152294202D01*
X249662988Y-153082048D02*
X249141563Y-152583936D01*
X249732448Y-152688125D02*
X250224852Y-152774949D01*
X249801907Y-152294202D02*
X249662988Y-153082048D01*
%TO.C,D6*%
X191024952Y-118140164D02*
X191424952Y-118140164D01*
X191424952Y-118140164D02*
X191424952Y-117590164D01*
X191424952Y-118140164D02*
X191424952Y-118690164D01*
X191424952Y-118140164D02*
X192024952Y-117740164D01*
X192024951Y-118540164D02*
X191424952Y-118140164D01*
X192024952Y-117740164D02*
X192024951Y-118540164D01*
X192024952Y-118140164D02*
X192524952Y-118140164D01*
%TO.C,PWR1*%
D12*
X132612951Y-103190167D02*
X132612951Y-108890166D01*
X133622950Y-109490166D02*
X134412952Y-109490166D01*
X134412951Y-102590166D02*
X133622949Y-102590165D01*
X135462951Y-104440166D02*
X135462951Y-106140166D01*
X135462951Y-107440166D02*
X135462951Y-107640166D01*
%TO.C,D1*%
D11*
X172024953Y-160140167D02*
X172424953Y-160140167D01*
X172424953Y-160140167D02*
X172424953Y-159590167D01*
X172424953Y-160140167D02*
X172424953Y-160690167D01*
X172424953Y-160140167D02*
X173024953Y-159740167D01*
X173024952Y-160540167D02*
X172424953Y-160140167D01*
X173024953Y-159740167D02*
X173024952Y-160540167D01*
X173024953Y-160140167D02*
X173524953Y-160140167D01*
%TO.C,D22*%
X151836981Y-148852311D02*
X152236981Y-148852311D01*
X152236981Y-148852311D02*
X152236981Y-148302311D01*
X152236981Y-148852311D02*
X152236981Y-149402311D01*
X152236981Y-148852311D02*
X152836981Y-148452311D01*
X152836980Y-149252311D02*
X152236981Y-148852311D01*
X152836981Y-148452311D02*
X152836980Y-149252311D01*
X152836981Y-148852311D02*
X153336981Y-148852311D01*
%TO.C,DISP1*%
D12*
X142364949Y-133010165D02*
X142364949Y-135670165D01*
X155184949Y-133010165D02*
X142364949Y-133010165D01*
X155184949Y-133010165D02*
X155184950Y-135670164D01*
X155184950Y-135670164D02*
X142364949Y-135670165D01*
%TO.C,S13*%
D10*
X241029756Y-160292442D02*
X241116582Y-159800037D01*
X241741717Y-156254731D02*
X241845904Y-155663846D01*
X241845904Y-155663846D02*
X246257843Y-156441790D01*
X245461393Y-161073858D02*
X241029756Y-160292442D01*
X245582946Y-160384490D02*
X245461393Y-161073858D01*
X246870659Y-155960897D02*
X247030416Y-155054876D01*
X247609642Y-154649295D02*
X247030416Y-155054876D01*
X249782651Y-159601875D02*
X247517593Y-159202483D01*
X250361877Y-159196295D02*
X249782651Y-159601875D01*
X250564067Y-155170240D02*
X247609642Y-154649295D01*
X250969644Y-155749467D02*
X250564067Y-155170240D01*
X245586420Y-160364797D02*
G75*
G02*
X247517593Y-159202483I1546743J-384428D01*
G01*
X246870659Y-155960897D02*
G75*
G02*
X246257843Y-156441790I-546853J65960D01*
G01*
%TO.C,S34*%
D11*
X247225347Y-165466907D02*
X245373908Y-165140448D01*
X248209752Y-166909767D02*
X247225347Y-165466907D01*
%TO.C,S38*%
X270104252Y-145130842D02*
X268252813Y-144804383D01*
X271088657Y-146573702D02*
X270104252Y-145130842D01*
%TO.C,S42*%
X138867609Y-195568049D02*
X137538247Y-196897408D01*
X140614162Y-195589260D02*
X138867609Y-195568049D01*
%TO.C,S7*%
D10*
X203774946Y-137140173D02*
X203774948Y-136640173D01*
X203774948Y-132440173D02*
X208254948Y-132440173D01*
X203774950Y-133040173D02*
X203774948Y-132440173D01*
X208274947Y-136440170D02*
X208274948Y-137140172D01*
X208274948Y-137140172D02*
X203774946Y-137140173D01*
X208774948Y-131860172D02*
X208774949Y-130940174D01*
X209274947Y-130440173D02*
X208774949Y-130940174D01*
X212274948Y-130440173D02*
X209274947Y-130440173D01*
X212274950Y-134940172D02*
X209974949Y-134940172D01*
X212774945Y-130940170D02*
X212274948Y-130440173D01*
X212774946Y-134440173D02*
X212274950Y-134940172D01*
X208274948Y-136420173D02*
G75*
G02*
X209974949Y-134940171I1590000J-109998D01*
G01*
X208774948Y-131860172D02*
G75*
G02*
X208254948Y-132440173I-549999J-30002D01*
G01*
%TO.C,S18*%
X187724945Y-168090169D02*
X187724947Y-167590169D01*
X187724947Y-163390169D02*
X192204947Y-163390169D01*
X187724949Y-163990169D02*
X187724947Y-163390169D01*
X192224946Y-167390166D02*
X192224947Y-168090168D01*
X192224947Y-168090168D02*
X187724945Y-168090169D01*
X192724947Y-162810168D02*
X192724948Y-161890170D01*
X193224946Y-161390169D02*
X192724948Y-161890170D01*
X196224947Y-161390169D02*
X193224946Y-161390169D01*
X196224949Y-165890168D02*
X193924948Y-165890168D01*
X196724944Y-161890166D02*
X196224947Y-161390169D01*
X196724945Y-165390169D02*
X196224949Y-165890168D01*
X192224947Y-167370169D02*
G75*
G02*
X193924948Y-165890167I1590000J-109998D01*
G01*
X192724947Y-162810168D02*
G75*
G02*
X192204947Y-163390169I-549999J-30002D01*
G01*
%TO.C,S5*%
X184774949Y-127140170D02*
X184774951Y-126640170D01*
X184774951Y-122440170D02*
X189254951Y-122440170D01*
X184774953Y-123040170D02*
X184774951Y-122440170D01*
X189274950Y-126440167D02*
X189274951Y-127140169D01*
X189274951Y-127140169D02*
X184774949Y-127140170D01*
X189774951Y-121860169D02*
X189774952Y-120940171D01*
X190274950Y-120440170D02*
X189774952Y-120940171D01*
X193274951Y-120440170D02*
X190274950Y-120440170D01*
X193274953Y-124940169D02*
X190974952Y-124940169D01*
X193774948Y-120940167D02*
X193274951Y-120440170D01*
X193774949Y-124440170D02*
X193274953Y-124940169D01*
X189274951Y-126420170D02*
G75*
G02*
X190974952Y-124940168I1590000J-109998D01*
G01*
X189774951Y-121860169D02*
G75*
G02*
X189254951Y-122440170I-549999J-30002D01*
G01*
%TO.C,S22*%
D11*
X172774948Y-154160167D02*
X170894948Y-154160167D01*
X173994948Y-155410167D02*
X172774948Y-154160167D01*
%TO.C,S27*%
X191774950Y-112160169D02*
X189894950Y-112160169D01*
X192994950Y-113410169D02*
X191774950Y-112160169D01*
%TO.C,S36*%
X253823978Y-128044217D02*
X251972539Y-127717758D01*
X254808383Y-129487077D02*
X253823978Y-128044217D01*
%TO.C,S39*%
X194724947Y-172110169D02*
X192844947Y-172110169D01*
X195944947Y-173360169D02*
X194724947Y-172110169D01*
%TO.C,S16*%
D10*
X260609346Y-158667721D02*
X260696172Y-158175316D01*
X261321307Y-154630010D02*
X261425494Y-154039125D01*
X261425494Y-154039125D02*
X265837433Y-154817069D01*
X265040983Y-159449137D02*
X260609346Y-158667721D01*
X265162536Y-158759769D02*
X265040983Y-159449137D01*
X266450249Y-154336176D02*
X266610006Y-153430155D01*
X267189232Y-153024574D02*
X266610006Y-153430155D01*
X269362241Y-157977154D02*
X267097183Y-157577762D01*
X269941467Y-157571574D02*
X269362241Y-157977154D01*
X270143657Y-153545519D02*
X267189232Y-153024574D01*
X270549234Y-154124746D02*
X270143657Y-153545519D01*
X265166010Y-158740076D02*
G75*
G02*
X267097183Y-157577762I1546743J-384428D01*
G01*
X266450249Y-154336176D02*
G75*
G02*
X265837433Y-154817069I-546853J65960D01*
G01*
%TO.C,S23*%
D11*
X172774950Y-135160165D02*
X170894950Y-135160165D01*
X173994950Y-136410165D02*
X172774950Y-135160165D01*
%TO.C,S1*%
D10*
X165774946Y-150140167D02*
X165774948Y-149640167D01*
X165774948Y-145440167D02*
X170254948Y-145440167D01*
X165774950Y-146040167D02*
X165774948Y-145440167D01*
X170274947Y-149440164D02*
X170274948Y-150140166D01*
X170274948Y-150140166D02*
X165774946Y-150140167D01*
X170774948Y-144860166D02*
X170774949Y-143940168D01*
X171274947Y-143440167D02*
X170774949Y-143940168D01*
X174274948Y-143440167D02*
X171274947Y-143440167D01*
X174274950Y-147940166D02*
X171974949Y-147940166D01*
X174774945Y-143940164D02*
X174274948Y-143440167D01*
X174774946Y-147440167D02*
X174274950Y-147940166D01*
X170274948Y-149420167D02*
G75*
G02*
X171974949Y-147940165I1590000J-109998D01*
G01*
X170774948Y-144860166D02*
G75*
G02*
X170254948Y-145440167I-549999J-30002D01*
G01*
%TO.C,S17*%
X263908661Y-139956377D02*
X263995487Y-139463972D01*
X264620622Y-135918666D02*
X264724809Y-135327781D01*
X264724809Y-135327781D02*
X269136748Y-136105725D01*
X268340298Y-140737793D02*
X263908661Y-139956377D01*
X268461851Y-140048425D02*
X268340298Y-140737793D01*
X269749564Y-135624832D02*
X269909321Y-134718811D01*
X270488547Y-134313230D02*
X269909321Y-134718811D01*
X272661556Y-139265810D02*
X270396498Y-138866418D01*
X273240782Y-138860230D02*
X272661556Y-139265810D01*
X273442972Y-134834175D02*
X270488547Y-134313230D01*
X273848549Y-135413402D02*
X273442972Y-134834175D01*
X268465325Y-140028732D02*
G75*
G02*
X270396498Y-138866418I1546743J-384428D01*
G01*
X269749564Y-135624832D02*
G75*
G02*
X269136748Y-136105725I-546853J65960D01*
G01*
%TO.C,S29*%
D11*
X210774951Y-122160170D02*
X208894951Y-122160170D01*
X211994951Y-123410170D02*
X210774951Y-122160170D01*
%TO.C,S3*%
D10*
X165774949Y-112140166D02*
X165774951Y-111640166D01*
X165774951Y-107440166D02*
X170254951Y-107440166D01*
X165774953Y-108040166D02*
X165774951Y-107440166D01*
X170274950Y-111440163D02*
X170274951Y-112140165D01*
X170274951Y-112140165D02*
X165774949Y-112140166D01*
X170774951Y-106860165D02*
X170774952Y-105940167D01*
X171274950Y-105440166D02*
X170774952Y-105940167D01*
X174274951Y-105440166D02*
X171274950Y-105440166D01*
X174274953Y-109940165D02*
X171974952Y-109940165D01*
X174774948Y-105940163D02*
X174274951Y-105440166D01*
X174774949Y-109440166D02*
X174274953Y-109940165D01*
X170274951Y-111420166D02*
G75*
G02*
X171974952Y-109940164I1590000J-109998D01*
G01*
X170774951Y-106860165D02*
G75*
G02*
X170254951Y-107440166I-549999J-30002D01*
G01*
%TO.C,S20*%
X144798521Y-178854687D02*
X148678315Y-176614687D01*
X145098521Y-179374303D02*
X144798521Y-178854687D01*
X147148519Y-182925008D02*
X146898521Y-182491994D01*
X148561660Y-174372637D02*
X148378649Y-175055647D01*
X148838648Y-175852392D02*
X148378649Y-175055647D01*
X150695633Y-180068786D02*
X151045635Y-180675007D01*
X151045635Y-180675007D02*
X147148519Y-182925008D01*
X151159737Y-172872636D02*
X148561660Y-174372637D01*
X151842748Y-173055648D02*
X151159737Y-172872636D01*
X153409737Y-176769751D02*
X151417879Y-177919750D01*
X153592749Y-176086737D02*
X153409737Y-176769751D01*
X148838648Y-175852392D02*
G75*
G02*
X148678315Y-176614688I-461312J-300982D01*
G01*
X150685636Y-180051469D02*
G75*
G02*
X151417879Y-177919750I1431979J699739D01*
G01*
%TO.C,S10*%
X222896636Y-146955526D02*
X222931515Y-146456744D01*
X223182638Y-142865513D02*
X223224492Y-142266975D01*
X223224492Y-142266975D02*
X227693579Y-142579486D01*
X227385675Y-147269430D02*
X222896636Y-146955526D01*
X227434504Y-146571135D02*
X227385675Y-147269430D01*
X228252770Y-142037171D02*
X228316947Y-141119411D01*
X228850605Y-140655503D02*
X228316947Y-141119411D01*
X231529395Y-145353816D02*
X229234998Y-145193374D01*
X231843299Y-140864776D02*
X228850605Y-140655503D01*
X232063053Y-144889912D02*
X231529395Y-145353816D01*
X232307203Y-141398437D02*
X231843299Y-140864776D01*
X227435900Y-146551183D02*
G75*
G02*
X229234998Y-145193374I1578452J-220642D01*
G01*
X228252770Y-142037171D02*
G75*
G02*
X227693579Y-142579486I-550754J8439D01*
G01*
%TO.C,S41*%
D11*
X155220699Y-182906429D02*
X153592571Y-183846429D01*
X156902250Y-183378961D02*
X155220699Y-182906429D01*
%TO.C,S12*%
D10*
X225547381Y-109048090D02*
X225582260Y-108549308D01*
X225833383Y-104958077D02*
X225875237Y-104359539D01*
X225875237Y-104359539D02*
X230344324Y-104672050D01*
X230036420Y-109361994D02*
X225547381Y-109048090D01*
X230085249Y-108663699D02*
X230036420Y-109361994D01*
X230903515Y-104129735D02*
X230967692Y-103211975D01*
X231501350Y-102748067D02*
X230967692Y-103211975D01*
X234180140Y-107446380D02*
X231885743Y-107285938D01*
X234494044Y-102957340D02*
X231501350Y-102748067D01*
X234713798Y-106982476D02*
X234180140Y-107446380D01*
X234957948Y-103491001D02*
X234494044Y-102957340D01*
X230086645Y-108643747D02*
G75*
G02*
X231885743Y-107285938I1578452J-220642D01*
G01*
X230903515Y-104129735D02*
G75*
G02*
X230344324Y-104672050I-550754J8439D01*
G01*
%TO.C,S6*%
X184774948Y-108140169D02*
X184774950Y-107640169D01*
X184774950Y-103440169D02*
X189254950Y-103440169D01*
X184774952Y-104040169D02*
X184774950Y-103440169D01*
X189274949Y-107440166D02*
X189274950Y-108140168D01*
X189274950Y-108140168D02*
X184774948Y-108140169D01*
X189774950Y-102860168D02*
X189774951Y-101940170D01*
X190274949Y-101440169D02*
X189774951Y-101940170D01*
X193274950Y-101440169D02*
X190274949Y-101440169D01*
X193274952Y-105940168D02*
X190974951Y-105940168D01*
X193774947Y-101940166D02*
X193274950Y-101440169D01*
X193774948Y-105440169D02*
X193274952Y-105940168D01*
X189274950Y-107420169D02*
G75*
G02*
X190974951Y-105940167I1590000J-109998D01*
G01*
X189774950Y-102860168D02*
G75*
G02*
X189254950Y-103440169I-549999J-30002D01*
G01*
%TO.C,S30*%
D11*
X210774948Y-103160164D02*
X208894948Y-103160164D01*
X211994948Y-104410164D02*
X210774948Y-103160164D01*
%TO.C,S21*%
D10*
X127751889Y-194351823D02*
X130919728Y-191183984D01*
X128176154Y-194776087D02*
X127751889Y-194351823D01*
X130226763Y-189048522D02*
X130226762Y-189755629D01*
X130877300Y-190406168D02*
X130226762Y-189755629D01*
X131075291Y-197675224D02*
X130721738Y-197321673D01*
X132348082Y-186927202D02*
X130226763Y-189048522D01*
X133055190Y-186927201D02*
X132348082Y-186927202D01*
X133762297Y-193998271D02*
X134257272Y-194493245D01*
X134257272Y-194493245D02*
X131075291Y-197675224D01*
X135530062Y-190109182D02*
X133903718Y-191735527D01*
X135530064Y-189402076D02*
X135530062Y-190109182D01*
X130877300Y-190406168D02*
G75*
G02*
X130919728Y-191183984I-367690J-410122D01*
G01*
X133748154Y-193984127D02*
G75*
G02*
X133903718Y-191735527I1202074J1046519D01*
G01*
%TO.C,S25*%
D11*
X191774949Y-150160163D02*
X189894949Y-150160163D01*
X192994949Y-151410163D02*
X191774949Y-150160163D01*
%TO.C,S24*%
X172774951Y-116160166D02*
X170894951Y-116160166D01*
X173994951Y-117410166D02*
X172774951Y-116160166D01*
%TO.C,S37*%
X266804937Y-163842186D02*
X264953498Y-163515727D01*
X267789342Y-165285046D02*
X266804937Y-163842186D01*
%TO.C,S33*%
X232249909Y-113546592D02*
X230374490Y-113415450D01*
X233379741Y-114878650D02*
X232249909Y-113546592D01*
%TO.C,S11*%
D10*
X224222009Y-128001806D02*
X224256888Y-127503024D01*
X224508011Y-123911793D02*
X224549865Y-123313255D01*
X224549865Y-123313255D02*
X229018952Y-123625766D01*
X228711048Y-128315710D02*
X224222009Y-128001806D01*
X228759877Y-127617415D02*
X228711048Y-128315710D01*
X229578143Y-123083451D02*
X229642320Y-122165691D01*
X230175978Y-121701783D02*
X229642320Y-122165691D01*
X232854768Y-126400096D02*
X230560371Y-126239654D01*
X233168672Y-121911056D02*
X230175978Y-121701783D01*
X233388426Y-125936192D02*
X232854768Y-126400096D01*
X233632576Y-122444717D02*
X233168672Y-121911056D01*
X228761273Y-127597463D02*
G75*
G02*
X230560371Y-126239654I1578452J-220642D01*
G01*
X229578143Y-123083451D02*
G75*
G02*
X229018952Y-123625766I-550754J8439D01*
G01*
%TO.C,S8*%
X203774949Y-118140170D02*
X203774951Y-117640170D01*
X203774951Y-113440170D02*
X208254951Y-113440170D01*
X203774953Y-114040170D02*
X203774951Y-113440170D01*
X208274950Y-117440167D02*
X208274951Y-118140169D01*
X208274951Y-118140169D02*
X203774949Y-118140170D01*
X208774951Y-112860169D02*
X208774952Y-111940171D01*
X209274950Y-111440170D02*
X208774952Y-111940171D01*
X212274951Y-111440170D02*
X209274950Y-111440170D01*
X212274953Y-115940169D02*
X209974952Y-115940169D01*
X212774948Y-111940167D02*
X212274951Y-111440170D01*
X212774949Y-115440170D02*
X212274953Y-115940169D01*
X208274951Y-117420170D02*
G75*
G02*
X209974952Y-115940168I1590000J-109998D01*
G01*
X208774951Y-112860169D02*
G75*
G02*
X208254951Y-113440170I-549999J-30002D01*
G01*
%TO.C,S14*%
X244329073Y-141581098D02*
X244415899Y-141088693D01*
X245041034Y-137543387D02*
X245145221Y-136952502D01*
X245145221Y-136952502D02*
X249557160Y-137730446D01*
X248760710Y-142362514D02*
X244329073Y-141581098D01*
X248882263Y-141673146D02*
X248760710Y-142362514D01*
X250169976Y-137249553D02*
X250329733Y-136343532D01*
X250908959Y-135937951D02*
X250329733Y-136343532D01*
X253081968Y-140890531D02*
X250816910Y-140491139D01*
X253661194Y-140484951D02*
X253081968Y-140890531D01*
X253863384Y-136458896D02*
X250908959Y-135937951D01*
X254268961Y-137038123D02*
X253863384Y-136458896D01*
X248885737Y-141653453D02*
G75*
G02*
X250816910Y-140491139I1546743J-384428D01*
G01*
X250169976Y-137249553D02*
G75*
G02*
X249557160Y-137730446I-546853J65960D01*
G01*
%TO.C,S26*%
D11*
X191774951Y-131160170D02*
X189894951Y-131160170D01*
X192994951Y-132410170D02*
X191774951Y-131160170D01*
%TO.C,S15*%
D10*
X247628387Y-122869752D02*
X247715213Y-122377347D01*
X248340348Y-118832041D02*
X248444535Y-118241156D01*
X248444535Y-118241156D02*
X252856474Y-119019100D01*
X252060024Y-123651168D02*
X247628387Y-122869752D01*
X252181577Y-122961800D02*
X252060024Y-123651168D01*
X253469290Y-118538207D02*
X253629047Y-117632186D01*
X254208273Y-117226605D02*
X253629047Y-117632186D01*
X256381282Y-122179185D02*
X254116224Y-121779793D01*
X256960508Y-121773605D02*
X256381282Y-122179185D01*
X257162698Y-117747550D02*
X254208273Y-117226605D01*
X257568275Y-118326777D02*
X257162698Y-117747550D01*
X252185051Y-122942107D02*
G75*
G02*
X254116224Y-121779793I1546743J-384428D01*
G01*
X253469290Y-118538207D02*
G75*
G02*
X252856474Y-119019100I-546853J65960D01*
G01*
%TO.C,S32*%
D11*
X230924537Y-132500308D02*
X229049118Y-132369166D01*
X232054369Y-133832366D02*
X230924537Y-132500308D01*
%TO.C,S19*%
D10*
X165244545Y-168294242D02*
X169571892Y-167134732D01*
X165399837Y-168873798D02*
X165244545Y-168294242D01*
X166460994Y-172834095D02*
X166331584Y-172351131D01*
X169924057Y-166439909D02*
X169685944Y-165551258D01*
X170039498Y-164938886D02*
X169685944Y-165551258D01*
X170626485Y-170993260D02*
X170807660Y-171669408D01*
X170807660Y-171669408D02*
X166460994Y-172834095D01*
X172937276Y-164162429D02*
X170039498Y-164938886D01*
X173549648Y-164515981D02*
X172937276Y-164162429D01*
X174101960Y-168509095D02*
X171880332Y-169104379D01*
X174455515Y-167896722D02*
X174101960Y-168509095D01*
X169924057Y-166439909D02*
G75*
G02*
X169571892Y-167134731I-523491J-171330D01*
G01*
X170621310Y-170973941D02*
G75*
G02*
X171880332Y-169104377I1564290J305273D01*
G01*
%TO.C,S28*%
D11*
X210774948Y-141160173D02*
X208894948Y-141160173D01*
X211994948Y-142410173D02*
X210774948Y-141160173D01*
%TO.C,S2*%
D10*
X165774948Y-131140165D02*
X165774950Y-130640165D01*
X165774950Y-126440165D02*
X170254950Y-126440165D01*
X165774952Y-127040165D02*
X165774950Y-126440165D01*
X170274949Y-130440162D02*
X170274950Y-131140164D01*
X170274950Y-131140164D02*
X165774948Y-131140165D01*
X170774950Y-125860164D02*
X170774951Y-124940166D01*
X171274949Y-124440165D02*
X170774951Y-124940166D01*
X174274950Y-124440165D02*
X171274949Y-124440165D01*
X174274952Y-128940164D02*
X171974951Y-128940164D01*
X174774947Y-124940162D02*
X174274950Y-124440165D01*
X174774948Y-128440165D02*
X174274952Y-128940164D01*
X170274950Y-130420165D02*
G75*
G02*
X171974951Y-128940163I1590000J-109998D01*
G01*
X170774950Y-125860164D02*
G75*
G02*
X170254950Y-126440165I-549999J-30002D01*
G01*
%TO.C,S40*%
D11*
X174262928Y-174905384D02*
X172446986Y-175391962D01*
X175764880Y-175797031D02*
X174262928Y-174905384D01*
%TO.C,S9*%
D10*
X203774946Y-99140164D02*
X203774948Y-98640164D01*
X203774948Y-94440164D02*
X208254948Y-94440164D01*
X203774950Y-95040164D02*
X203774948Y-94440164D01*
X208274947Y-98440161D02*
X208274948Y-99140163D01*
X208274948Y-99140163D02*
X203774946Y-99140164D01*
X208774948Y-93860163D02*
X208774949Y-92940165D01*
X209274947Y-92440164D02*
X208774949Y-92940165D01*
X212274948Y-92440164D02*
X209274947Y-92440164D01*
X212274950Y-96940163D02*
X209974949Y-96940163D01*
X212774945Y-92940161D02*
X212274948Y-92440164D01*
X212774946Y-96440164D02*
X212274950Y-96940163D01*
X208274948Y-98420164D02*
G75*
G02*
X209974949Y-96940162I1590000J-109998D01*
G01*
X208774948Y-93860163D02*
G75*
G02*
X208254948Y-94440164I-549999J-30002D01*
G01*
%TO.C,S31*%
D11*
X229599164Y-151454028D02*
X227723745Y-151322886D01*
X230728996Y-152786086D02*
X229599164Y-151454028D01*
%TO.C,S4*%
D10*
X184774947Y-146140163D02*
X184774949Y-145640163D01*
X184774949Y-141440163D02*
X189254949Y-141440163D01*
X184774951Y-142040163D02*
X184774949Y-141440163D01*
X189274948Y-145440160D02*
X189274949Y-146140162D01*
X189274949Y-146140162D02*
X184774947Y-146140163D01*
X189774949Y-140860162D02*
X189774950Y-139940164D01*
X190274948Y-139440163D02*
X189774950Y-139940164D01*
X193274949Y-139440163D02*
X190274948Y-139440163D01*
X193274951Y-143940162D02*
X190974950Y-143940162D01*
X193774946Y-139940160D02*
X193274949Y-139440163D01*
X193774947Y-143440163D02*
X193274951Y-143940162D01*
X189274949Y-145420163D02*
G75*
G02*
X190974950Y-143940161I1590000J-109998D01*
G01*
X189774949Y-140860162D02*
G75*
G02*
X189254949Y-141440163I-549999J-30002D01*
G01*
%TO.C,S35*%
D11*
X250524664Y-146755563D02*
X248673225Y-146429104D01*
X251509069Y-148198423D02*
X250524664Y-146755563D01*
%TD*%
D13*
%TO.C,J1*%
X134032949Y-171010172D03*
X141032950Y-171010168D03*
X134032950Y-169260168D03*
X141032952Y-169260168D03*
D14*
X142832950Y-173110168D03*
X142832950Y-167160168D03*
X138832951Y-173110169D03*
X138832950Y-167160168D03*
X135832949Y-173110168D03*
X135832949Y-167160167D03*
X144332951Y-171360168D03*
X144332950Y-168910168D03*
%TD*%
M02*
