%TF.GenerationSoftware,KiCad,Pcbnew,10.0.4*%
%TF.CreationDate,2026-08-03T15:36:27-06:00*%
%TF.ProjectId,KLON -nice_view - Copy,4b4c4f4e-202d-46e6-9963-655f76696577,v1.0.0*%
%TF.SameCoordinates,Original*%
%TF.FileFunction,Copper,L2,Bot*%
%TF.FilePolarity,Positive*%
%FSLAX46Y46*%
G04 Gerber Fmt 4.6, Leading zero omitted, Abs format (unit mm)*
G04 Created by KiCad (PCBNEW 10.0.4) date 2026-08-03 15:36:27*
%MOMM*%
%LPD*%
G01*
G04 APERTURE LIST*
G04 Aperture macros list*
%AMRotRect*
0 Rectangle, with rotation*
0 The origin of the aperture is its center*
0 $1 length*
0 $2 width*
0 $3 Rotation angle, in degrees counterclockwise*
0 Add horizontal line*
21,1,$1,$2,0,0,$3*%
%AMOutline5P*
0 Free polygon, 5 corners , with rotation*
0 The origin of the aperture is its center*
0 number of corners: always 5*
0 $1 to $10 corner X, Y*
0 $11 Rotation angle, in degrees counterclockwise*
0 create outline with 5 corners*
4,1,5,$1,$2,$3,$4,$5,$6,$7,$8,$9,$10,$1,$2,$11*%
%AMOutline6P*
0 Free polygon, 6 corners , with rotation*
0 The origin of the aperture is its center*
0 number of corners: always 6*
0 $1 to $12 corner X, Y*
0 $13 Rotation angle, in degrees counterclockwise*
0 create outline with 6 corners*
4,1,6,$1,$2,$3,$4,$5,$6,$7,$8,$9,$10,$11,$12,$1,$2,$13*%
%AMOutline7P*
0 Free polygon, 7 corners , with rotation*
0 The origin of the aperture is its center*
0 number of corners: always 7*
0 $1 to $14 corner X, Y*
0 $15 Rotation angle, in degrees counterclockwise*
0 create outline with 7 corners*
4,1,7,$1,$2,$3,$4,$5,$6,$7,$8,$9,$10,$11,$12,$13,$14,$1,$2,$15*%
%AMOutline8P*
0 Free polygon, 8 corners , with rotation*
0 The origin of the aperture is its center*
0 number of corners: always 8*
0 $1 to $16 corner X, Y*
0 $17 Rotation angle, in degrees counterclockwise*
0 create outline with 8 corners*
4,1,8,$1,$2,$3,$4,$5,$6,$7,$8,$9,$10,$11,$12,$13,$14,$15,$16,$1,$2,$17*%
%AMFreePoly0*
4,1,6,0.600000,-1.000000,0.000000,-0.400000,-0.600000,-1.000000,-0.600000,0.250000,0.600000,0.250000,0.600000,-1.000000,0.600000,-1.000000,$1*%
%AMFreePoly1*
4,1,6,0.600000,-0.200000,0.600000,-0.400000,-0.600000,-0.400000,-0.600000,-0.200000,0.000000,0.400000,0.600000,-0.200000,0.600000,-0.200000,$1*%
%AMFreePoly2*
4,1,6,0.250000,0.000000,-0.250000,-0.625000,-0.500000,-0.625000,-0.500000,0.625000,-0.250000,0.625000,0.250000,0.000000,0.250000,0.000000,$1*%
%AMFreePoly3*
4,1,6,0.500000,-0.625000,-0.650000,-0.625000,-0.150000,0.000000,-0.650000,0.625000,0.500000,0.625000,0.500000,-0.625000,0.500000,-0.625000,$1*%
G04 Aperture macros list end*
%TA.AperFunction,ComponentPad*%
%ADD10C,0.600000*%
%TD*%
%TA.AperFunction,SMDPad,CuDef*%
%ADD11RotRect,0.900000X1.200000X356.000000*%
%TD*%
%TA.AperFunction,SMDPad,CuDef*%
%ADD12FreePoly0,270.000000*%
%TD*%
%TA.AperFunction,ComponentPad*%
%ADD13O,1.750000X1.200000*%
%TD*%
%TA.AperFunction,SMDPad,CuDef*%
%ADD14FreePoly1,270.000000*%
%TD*%
%TA.AperFunction,SMDPad,CuDef*%
%ADD15FreePoly2,180.000000*%
%TD*%
%TA.AperFunction,ComponentPad*%
%ADD16C,1.700000*%
%TD*%
%TA.AperFunction,SMDPad,CuDef*%
%ADD17FreePoly2,0.000000*%
%TD*%
%TA.AperFunction,SMDPad,CuDef*%
%ADD18FreePoly3,0.000000*%
%TD*%
%TA.AperFunction,ComponentPad*%
%ADD19C,0.800000*%
%TD*%
%TA.AperFunction,SMDPad,CuDef*%
%ADD20FreePoly3,180.000000*%
%TD*%
%TA.AperFunction,ComponentPad*%
%ADD21O,1.600000X2.000000*%
%TD*%
%TA.AperFunction,SMDPad,CuDef*%
%ADD22R,0.900000X1.200000*%
%TD*%
%TA.AperFunction,SMDPad,CuDef*%
%ADD23RotRect,0.900000X1.200000X350.000000*%
%TD*%
%TA.AperFunction,ComponentPad*%
%ADD24C,3.800000*%
%TD*%
%TA.AperFunction,SMDPad,CuDef*%
%ADD25FreePoly2,270.000000*%
%TD*%
%TA.AperFunction,SMDPad,CuDef*%
%ADD26FreePoly3,270.000000*%
%TD*%
%TA.AperFunction,SMDPad,CuDef*%
%ADD27RotRect,0.900000X1.200000X30.000000*%
%TD*%
%TA.AperFunction,ComponentPad*%
%ADD28C,2.000000*%
%TD*%
%TA.AperFunction,ComponentPad*%
%ADD29R,3.200000X2.000000*%
%TD*%
%TA.AperFunction,SMDPad,CuDef*%
%ADD30RotRect,0.900000X1.200000X15.000000*%
%TD*%
%TA.AperFunction,ComponentPad*%
%ADD31O,2.500000X1.700000*%
%TD*%
%TA.AperFunction,SMDPad,CuDef*%
%ADD32R,1.000000X1.550000*%
%TD*%
%TA.AperFunction,SMDPad,CuDef*%
%ADD33RotRect,0.900000X1.200000X45.000000*%
%TD*%
%TA.AperFunction,SMDPad,CuDef*%
%ADD34R,0.800000X1.000000*%
%TD*%
%TA.AperFunction,SMDPad,CuDef*%
%ADD35R,1.500000X0.700000*%
%TD*%
%TA.AperFunction,ComponentPad*%
%ADD36O,1.700000X1.700000*%
%TD*%
%TA.AperFunction,SMDPad,CuDef*%
%ADD37R,1.200000X0.600000*%
%TD*%
%TA.AperFunction,SMDPad,CuDef*%
%ADD38Outline5P,-1.300000X1.300000X1.300000X1.300000X1.300000X-1.300000X-0.117000X-1.300000X-1.300000X-0.117000X350.000000*%
%TD*%
%TA.AperFunction,SMDPad,CuDef*%
%ADD39RotRect,2.600000X2.600000X350.000000*%
%TD*%
%TA.AperFunction,SMDPad,CuDef*%
%ADD40RotRect,2.550000X2.500000X170.000000*%
%TD*%
%TA.AperFunction,SMDPad,CuDef*%
%ADD41Outline5P,-1.275000X1.250000X1.275000X1.250000X1.275000X-1.250000X-0.775000X-1.250000X-1.275000X-0.750000X170.000000*%
%TD*%
%TA.AperFunction,SMDPad,CuDef*%
%ADD42RotRect,2.550000X2.500000X225.000000*%
%TD*%
%TA.AperFunction,SMDPad,CuDef*%
%ADD43Outline5P,-1.275000X1.250000X1.275000X1.250000X1.275000X-1.250000X-0.775000X-1.250000X-1.275000X-0.750000X225.000000*%
%TD*%
%TA.AperFunction,SMDPad,CuDef*%
%ADD44Outline5P,-1.300000X1.300000X1.300000X1.300000X1.300000X-1.300000X-0.117000X-1.300000X-1.300000X-0.117000X0.000000*%
%TD*%
%TA.AperFunction,SMDPad,CuDef*%
%ADD45Outline5P,-1.300000X1.300000X1.300000X1.300000X1.300000X0.780000X-0.780000X-1.300000X-1.300000X-1.300000X0.000000*%
%TD*%
%TA.AperFunction,SMDPad,CuDef*%
%ADD46R,2.600000X2.600000*%
%TD*%
%TA.AperFunction,SMDPad,CuDef*%
%ADD47R,2.550000X2.500000*%
%TD*%
%TA.AperFunction,SMDPad,CuDef*%
%ADD48Outline5P,-1.275000X1.250000X1.275000X1.250000X1.275000X-1.250000X-0.775000X-1.250000X-1.275000X-0.750000X180.000000*%
%TD*%
%TA.AperFunction,SMDPad,CuDef*%
%ADD49Outline5P,-1.275000X0.250000X-0.275000X1.250000X1.275000X1.250000X1.275000X-1.250000X-1.275000X-1.250000X180.000000*%
%TD*%
%TA.AperFunction,SMDPad,CuDef*%
%ADD50Outline5P,-1.300000X1.300000X1.300000X1.300000X1.300000X-1.300000X-0.117000X-1.300000X-1.300000X-0.117000X30.000000*%
%TD*%
%TA.AperFunction,SMDPad,CuDef*%
%ADD51RotRect,2.600000X2.600000X30.000000*%
%TD*%
%TA.AperFunction,SMDPad,CuDef*%
%ADD52Outline5P,-1.300000X1.300000X1.300000X1.300000X1.300000X-1.300000X-0.117000X-1.300000X-1.300000X-0.117000X356.000000*%
%TD*%
%TA.AperFunction,SMDPad,CuDef*%
%ADD53RotRect,2.600000X2.600000X356.000000*%
%TD*%
%TA.AperFunction,SMDPad,CuDef*%
%ADD54RotRect,2.550000X2.500000X210.000000*%
%TD*%
%TA.AperFunction,SMDPad,CuDef*%
%ADD55Outline5P,-1.275000X1.250000X1.275000X1.250000X1.275000X-1.250000X-0.775000X-1.250000X-1.275000X-0.750000X210.000000*%
%TD*%
%TA.AperFunction,SMDPad,CuDef*%
%ADD56Outline5P,-1.300000X1.300000X1.300000X1.300000X1.300000X-1.300000X-0.117000X-1.300000X-1.300000X-0.117000X45.000000*%
%TD*%
%TA.AperFunction,SMDPad,CuDef*%
%ADD57RotRect,2.600000X2.600000X45.000000*%
%TD*%
%TA.AperFunction,SMDPad,CuDef*%
%ADD58RotRect,2.550000X2.500000X176.000000*%
%TD*%
%TA.AperFunction,SMDPad,CuDef*%
%ADD59Outline5P,-1.275000X1.250000X1.275000X1.250000X1.275000X-1.250000X-0.775000X-1.250000X-1.275000X-0.750000X176.000000*%
%TD*%
%TA.AperFunction,SMDPad,CuDef*%
%ADD60Outline5P,-1.300000X1.300000X1.300000X1.300000X1.300000X-1.300000X-0.117000X-1.300000X-1.300000X-0.117000X15.000000*%
%TD*%
%TA.AperFunction,SMDPad,CuDef*%
%ADD61RotRect,2.600000X2.600000X15.000000*%
%TD*%
%TA.AperFunction,SMDPad,CuDef*%
%ADD62RotRect,2.550000X2.500000X195.000000*%
%TD*%
%TA.AperFunction,SMDPad,CuDef*%
%ADD63Outline5P,-1.275000X1.250000X1.275000X1.250000X1.275000X-1.250000X-0.775000X-1.250000X-1.275000X-0.750000X195.000000*%
%TD*%
%TA.AperFunction,ViaPad*%
%ADD64C,0.600000*%
%TD*%
%TA.AperFunction,Conductor*%
%ADD65C,0.250000*%
%TD*%
%TA.AperFunction,Conductor*%
%ADD66C,0.200000*%
%TD*%
G04 APERTURE END LIST*
D10*
%TO.P,D11,1*%
%TO.N,row2*%
X230104616Y-141315615D03*
D11*
%TO.P,D11,1,row2*%
X230104616Y-141315615D03*
D10*
%TO.P,D11,1*%
%TO.N,ring_home*%
X233396578Y-141545811D03*
D11*
%TO.P,D11,2*%
X233396578Y-141545811D03*
%TD*%
D10*
%TO.P,D12,1*%
%TO.N,row1*%
X231429988Y-122361896D03*
D11*
X231429988Y-122361896D03*
D10*
%TO.N,ring_top*%
X234721950Y-122592092D03*
D11*
%TO.P,D12,2*%
X234721950Y-122592092D03*
%TD*%
D12*
%TO.P,JST1,1*%
%TO.N,BAT_P*%
X138116152Y-147730134D03*
%TO.P,JST1,2*%
%TO.N,GND*%
X138116152Y-149730134D03*
D13*
%TO.P,JST1,11*%
%TO.N,JST1_1*%
X135300152Y-149730134D03*
%TO.P,JST1,12*%
%TO.N,JST1_2*%
X135300152Y-147730134D03*
D14*
%TO.P,JST1,31*%
%TO.N,JST1_1*%
X137100153Y-149730133D03*
%TO.P,JST1,32*%
%TO.N,JST1_2*%
X137100153Y-147730135D03*
%TD*%
D15*
%TO.P,MCU1,1*%
%TO.N,MCU1_1*%
X155518149Y-102905135D03*
D16*
X157638149Y-102905134D03*
D15*
%TO.P,MCU1,2*%
%TO.N,MCU1_2*%
X155518149Y-105445134D03*
D16*
X157638150Y-105445133D03*
D15*
%TO.P,MCU1,3*%
%TO.N,MCU1_3*%
X155518150Y-107985133D03*
D16*
X157638149Y-107985134D03*
D15*
%TO.P,MCU1,4*%
%TO.N,MCU1_4*%
X155518149Y-110525134D03*
D16*
X157638148Y-110525134D03*
D15*
%TO.P,MCU1,5*%
%TO.N,MCU1_5*%
X155518151Y-113065135D03*
D16*
X157638149Y-113065133D03*
D15*
%TO.P,MCU1,6*%
%TO.N,MCU1_6*%
X155518149Y-115605134D03*
D16*
X157638149Y-115605134D03*
D15*
%TO.P,MCU1,7*%
%TO.N,MCU1_7*%
X155518148Y-118145135D03*
D16*
X157638147Y-118145134D03*
D15*
%TO.P,MCU1,8*%
%TO.N,MCU1_8*%
X155518149Y-120685134D03*
D16*
X157638149Y-120685134D03*
D15*
%TO.P,MCU1,9*%
%TO.N,MCU1_9*%
X155518150Y-123225135D03*
D16*
X157638149Y-123225134D03*
D15*
%TO.P,MCU1,10*%
%TO.N,MCU1_10*%
X155518149Y-125765134D03*
D16*
X157638150Y-125765135D03*
D15*
%TO.P,MCU1,11*%
%TO.N,MCU1_11*%
X155518149Y-128305133D03*
D16*
X157638149Y-128305134D03*
D15*
%TO.P,MCU1,12*%
%TO.N,MCU1_12*%
X155518150Y-130845132D03*
D16*
X157638149Y-130845134D03*
%TO.P,MCU1,13*%
%TO.N,MCU1_13*%
X142398149Y-130845134D03*
D17*
X144518148Y-130845133D03*
D16*
%TO.P,MCU1,14*%
%TO.N,MCU1_14*%
X142398149Y-128305134D03*
D17*
X144518149Y-128305133D03*
D16*
%TO.P,MCU1,15*%
%TO.N,MCU1_15*%
X142398148Y-125765135D03*
D17*
X144518149Y-125765134D03*
D16*
%TO.P,MCU1,16*%
%TO.N,MCU1_16*%
X142398149Y-123225134D03*
D17*
X144518148Y-123225135D03*
D16*
%TO.P,MCU1,17*%
%TO.N,MCU1_17*%
X142398150Y-120685134D03*
D17*
X144518149Y-120685134D03*
D16*
%TO.P,MCU1,18*%
%TO.N,MCU1_18*%
X142398149Y-118145135D03*
D17*
X144518147Y-118145133D03*
D16*
%TO.P,MCU1,19*%
%TO.N,MCU1_19*%
X142398149Y-115605134D03*
D17*
X144518149Y-115605134D03*
D16*
%TO.P,MCU1,20*%
%TO.N,MCU1_20*%
X142398151Y-113065134D03*
D17*
X144518150Y-113065133D03*
D16*
%TO.P,MCU1,21*%
%TO.N,MCU1_21*%
X142398149Y-110525134D03*
D17*
X144518149Y-110525134D03*
D16*
%TO.P,MCU1,22*%
%TO.N,MCU1_22*%
X142398149Y-107985134D03*
D17*
X144518148Y-107985133D03*
D16*
%TO.P,MCU1,23*%
%TO.N,MCU1_23*%
X142398148Y-105445133D03*
D17*
X144518149Y-105445134D03*
D16*
%TO.P,MCU1,24*%
%TO.N,MCU1_24*%
X142398149Y-102905134D03*
D17*
X144518149Y-102905135D03*
D18*
%TO.P,MCU1,101*%
%TO.N,col1*%
X145243149Y-102905133D03*
D19*
X153418149Y-102905135D03*
D18*
%TO.P,MCU1,102*%
%TO.N,col2*%
X145243149Y-105445134D03*
D19*
X153418148Y-105445132D03*
D18*
%TO.P,MCU1,103*%
%TO.N,GND*%
X145243147Y-107985134D03*
D19*
X153418149Y-107985134D03*
D18*
%TO.P,MCU1,104*%
X145243150Y-110525133D03*
D19*
X153418149Y-110525134D03*
D18*
%TO.P,MCU1,105*%
%TO.N,col3*%
X145243149Y-113065135D03*
D19*
X153418149Y-113065134D03*
D18*
%TO.P,MCU1,106*%
%TO.N,col4*%
X145243149Y-115605134D03*
D19*
X153418150Y-115605135D03*
D18*
%TO.P,MCU1,107*%
%TO.N,col5*%
X145243149Y-118145134D03*
D19*
X153418148Y-118145134D03*
D18*
%TO.P,MCU1,108*%
%TO.N,col6*%
X145243150Y-120685135D03*
D19*
X153418150Y-120685135D03*
D18*
%TO.P,MCU1,109*%
%TO.N,row1*%
X145243149Y-123225134D03*
D19*
X153418150Y-123225134D03*
D18*
%TO.P,MCU1,110*%
%TO.N,row2*%
X145243149Y-125765134D03*
D19*
X153418148Y-125765136D03*
D18*
%TO.P,MCU1,111*%
%TO.N,row3*%
X145243149Y-128305135D03*
D19*
X153418146Y-128305136D03*
D18*
%TO.P,MCU1,112*%
%TO.N,row4*%
X145243147Y-130845133D03*
D19*
X153418149Y-130845134D03*
%TO.P,MCU1,113*%
%TO.N,P10*%
X146618149Y-130845134D03*
D20*
X154793151Y-130845134D03*
D19*
%TO.P,MCU1,114*%
%TO.N,P16*%
X146618149Y-128305133D03*
D20*
X154793149Y-128305135D03*
D19*
%TO.P,MCU1,115*%
%TO.N,P14*%
X146618150Y-125765136D03*
D20*
X154793149Y-125765134D03*
D19*
%TO.P,MCU1,116*%
%TO.N,P15*%
X146618149Y-123225134D03*
D20*
X154793151Y-123225134D03*
D19*
%TO.P,MCU1,117*%
%TO.N,P18*%
X146618149Y-120685134D03*
D20*
X154793148Y-120685135D03*
D19*
%TO.P,MCU1,118*%
%TO.N,MOSI*%
X146618149Y-118145134D03*
D20*
X154793149Y-118145133D03*
D19*
%TO.P,MCU1,119*%
%TO.N,SCK*%
X146618148Y-115605133D03*
D20*
X154793149Y-115605134D03*
D19*
%TO.P,MCU1,120*%
%TO.N,CS*%
X146618150Y-113065134D03*
D20*
X154793149Y-113065134D03*
D19*
%TO.P,MCU1,121*%
%TO.N,VCC*%
X146618148Y-110525133D03*
D20*
X154793148Y-110525133D03*
D19*
%TO.P,MCU1,122*%
%TO.N,RST*%
X146618148Y-107985134D03*
D20*
X154793149Y-107985134D03*
D19*
%TO.P,MCU1,123*%
%TO.N,GND*%
X146618150Y-105445132D03*
D20*
X154793149Y-105445134D03*
D19*
%TO.P,MCU1,124*%
%TO.N,RAW*%
X146618152Y-102905132D03*
D20*
X154793149Y-102905133D03*
%TD*%
D21*
%TO.P,SSD1306,1*%
%TO.N,dis1-pad4*%
X153238152Y-143405134D03*
%TO.P,SSD1306,2*%
%TO.N,dis1-pad3*%
X150698152Y-143405134D03*
%TO.P,SSD1306,3*%
%TO.N,dis1-pad2*%
X148158152Y-143405136D03*
%TO.P,SSD1306,4*%
%TO.N,dis1-pad1*%
X145618152Y-143405134D03*
%TD*%
D10*
%TO.P,D9,1*%
%TO.N,row1*%
X210368156Y-112105131D03*
D22*
X210368156Y-112105131D03*
D10*
%TO.N,middle_top*%
X213668156Y-112105133D03*
D22*
%TO.P,D9,2*%
X213668156Y-112105133D03*
%TD*%
D10*
%TO.P,D15,1*%
%TO.N,row1*%
X252403833Y-136611812D03*
D23*
X252403833Y-136611812D03*
D10*
%TO.N,pinky_top*%
X255653699Y-137184850D03*
D23*
%TO.P,D15,2*%
X255653699Y-137184850D03*
%TD*%
D24*
%TO.P,H1,*%
%TO.N,*%
X202556153Y-121280133D03*
%TD*%
D10*
%TO.P,D3,1*%
%TO.N,row1*%
X172368154Y-125105134D03*
D22*
X172368154Y-125105134D03*
D10*
%TO.N,inner_top*%
X175668154Y-125105136D03*
D22*
%TO.P,D3,2*%
X175668154Y-125105136D03*
%TD*%
D10*
%TO.P,D8,1*%
%TO.N,row2*%
X210368147Y-131105136D03*
D22*
%TO.P,D8,1,row2*%
X210368147Y-131105136D03*
D10*
%TO.P,D8,1*%
%TO.N,middle_home*%
X213668147Y-131105138D03*
D22*
%TO.P,D8,2*%
X213668147Y-131105138D03*
%TD*%
D10*
%TO.P,D5,1*%
%TO.N,row2*%
X191368153Y-140105136D03*
D22*
%TO.P,D5,1,row2*%
X191368153Y-140105136D03*
D10*
%TO.P,D5,1*%
%TO.N,index_home*%
X194668153Y-140105138D03*
D22*
%TO.P,D5,2*%
X194668153Y-140105138D03*
%TD*%
D10*
%TO.P,D17,1*%
%TO.N,row2*%
X268684104Y-153698437D03*
D23*
%TO.P,D17,1,row2*%
X268684104Y-153698437D03*
D10*
%TO.P,D17,1*%
%TO.N,pinky_extra_home*%
X271933970Y-154271475D03*
D23*
%TO.P,D17,2*%
X271933970Y-154271475D03*
%TD*%
D24*
%TO.P,H2,*%
%TO.N,*%
X183506154Y-140330138D03*
%TD*%
D25*
%TO.P,XX6,1*%
%TO.N,dis1-pad3*%
X150610182Y-146456872D03*
D26*
%TO.P,XX6,2*%
%TO.N,SCK*%
X150610182Y-147181872D03*
%TD*%
D10*
%TO.P,D16,1*%
%TO.N,row3*%
X265384792Y-172409785D03*
D23*
X265384792Y-172409785D03*
D10*
%TO.N,pinky_extra_bottom*%
X268634658Y-172982823D03*
D23*
%TO.P,D16,2*%
X268634658Y-172982823D03*
%TD*%
D10*
%TO.P,D20,1*%
%TO.N,row4*%
X158024961Y-191875226D03*
D27*
X158024961Y-191875226D03*
D10*
%TO.N,3_r0*%
X160882845Y-190225224D03*
D27*
%TO.P,D20,2*%
X160882845Y-190225224D03*
%TD*%
D10*
%TO.P,D18,1*%
%TO.N,row4*%
X194318156Y-181055138D03*
D22*
X194318156Y-181055138D03*
D10*
%TO.N,1_r0*%
X197618156Y-181055140D03*
D22*
%TO.P,D18,2*%
X197618156Y-181055140D03*
%TD*%
D28*
%TO.P,SW25,A*%
%TO.N,ENCA*%
X141040154Y-156307137D03*
%TO.P,SW25,B*%
%TO.N,ENCB*%
X141040154Y-161307137D03*
%TO.P,SW25,C*%
%TO.N,GND*%
X141040154Y-158807137D03*
D29*
%TO.P,SW25,MP*%
%TO.N,N/C*%
X148540154Y-153207137D03*
X148540154Y-164407137D03*
D28*
%TO.P,SW25,S1*%
%TO.N,col3*%
X155540154Y-161307137D03*
%TO.P,SW25,S2*%
%TO.N,SW18B*%
X155540154Y-156307137D03*
%TD*%
D10*
%TO.P,D4,1*%
%TO.N,row3*%
X191368155Y-159105134D03*
D22*
X191368155Y-159105134D03*
D10*
%TO.N,index_bottom*%
X194668155Y-159105136D03*
D22*
%TO.P,D4,2*%
X194668155Y-159105136D03*
%TD*%
D10*
%TO.P,D10,1*%
%TO.N,row3*%
X228779240Y-160269332D03*
D11*
X228779240Y-160269332D03*
D10*
%TO.N,ring_bottom*%
X232071202Y-160499528D03*
D11*
%TO.P,D10,2*%
X232071202Y-160499528D03*
%TD*%
D25*
%TO.P,XX5,1*%
%TO.N,dis1-pad2*%
X148116184Y-146456873D03*
D26*
%TO.P,XX5,2*%
%TO.N,VCC*%
X148116184Y-147181873D03*
%TD*%
D10*
%TO.P,D19,1*%
%TO.N,row4*%
X175460088Y-184073635D03*
D30*
X175460088Y-184073635D03*
D10*
%TO.N,2_r0*%
X178647644Y-183219535D03*
D30*
%TO.P,D19,2*%
X178647644Y-183219535D03*
%TD*%
D31*
%TO.P,J1,1*%
%TO.N,VCC*%
X144076153Y-176075135D03*
X144076153Y-170125135D03*
%TO.P,J1,2*%
%TO.N,GND*%
X140076154Y-176075136D03*
X140076153Y-170125135D03*
%TO.P,J1,3*%
%TO.N,RX*%
X137076152Y-176075135D03*
X137076152Y-170125134D03*
%TO.P,J1,4*%
%TO.N,TX*%
X145576154Y-174325135D03*
X145576153Y-171875135D03*
%TD*%
D25*
%TO.P,XX4,1*%
%TO.N,dis1-pad1*%
X145571183Y-146456876D03*
D26*
%TO.P,XX4,2*%
%TO.N,GND*%
X145571183Y-147181876D03*
%TD*%
D10*
%TO.P,D7,1*%
%TO.N,row3*%
X210368159Y-150105132D03*
D22*
X210368159Y-150105132D03*
D10*
%TO.N,middle_bottom*%
X213668159Y-150105134D03*
D22*
%TO.P,D7,2*%
X213668159Y-150105134D03*
%TD*%
D32*
%TO.P,RST1,1*%
%TO.N,GND*%
X134410160Y-167230134D03*
%TO.P,RST1,2*%
%TO.N,RST*%
X136110157Y-167230134D03*
%TO.P,RST1,3*%
%TO.N,GND*%
X134410161Y-161980136D03*
%TO.P,RST1,4*%
%TO.N,RST*%
X136110158Y-161980136D03*
%TD*%
D10*
%TO.P,D21,1*%
%TO.N,row4*%
X143172584Y-203928241D03*
D33*
X143172584Y-203928241D03*
D10*
%TO.N,4_r0*%
X145506040Y-201594787D03*
D33*
%TO.P,D21,2*%
X145506040Y-201594787D03*
%TD*%
D10*
%TO.P,D2,1*%
%TO.N,row2*%
X172368154Y-144105131D03*
D22*
X172368154Y-144105131D03*
D10*
%TO.N,inner_home*%
X175668154Y-144105133D03*
D22*
%TO.P,D2,2*%
X175668154Y-144105133D03*
%TD*%
D25*
%TO.P,XX7,1*%
%TO.N,dis1-pad4*%
X153155187Y-146456877D03*
D26*
%TO.P,XX7,2*%
%TO.N,MOSI*%
X153155187Y-147181877D03*
%TD*%
D10*
%TO.P,D13,1*%
%TO.N,row3*%
X245805204Y-174034510D03*
D23*
X245805204Y-174034510D03*
D10*
%TO.N,pinky_bottom*%
X249055070Y-174607548D03*
D23*
%TO.P,D13,2*%
X249055070Y-174607548D03*
%TD*%
D10*
%TO.P,D14,1*%
%TO.N,row2*%
X249104518Y-155323161D03*
D23*
%TO.P,D14,1,row2*%
X249104518Y-155323161D03*
D10*
%TO.P,D14,1*%
%TO.N,pinky_home*%
X252354384Y-155896199D03*
D23*
%TO.P,D14,2*%
X252354384Y-155896199D03*
%TD*%
D10*
%TO.P,D6,1*%
%TO.N,row1*%
X191368155Y-121105130D03*
D22*
X191368155Y-121105130D03*
D10*
%TO.N,index_top*%
X194668155Y-121105132D03*
D22*
%TO.P,D6,2*%
X194668155Y-121105132D03*
%TD*%
D34*
%TO.P,PWR1,*%
%TO.N,*%
X136366155Y-112655133D03*
X136366155Y-105355133D03*
X134156154Y-112655132D03*
X134156154Y-105355134D03*
D35*
%TO.P,PWR1,1*%
%TO.N,N/C*%
X137016154Y-111255133D03*
%TO.P,PWR1,2*%
%TO.N,RAW*%
X137016155Y-108255134D03*
%TO.P,PWR1,3*%
%TO.N,BAT_P*%
X137016154Y-106755133D03*
%TD*%
D10*
%TO.P,D1,1*%
%TO.N,row3*%
X172368156Y-163105134D03*
D22*
X172368156Y-163105134D03*
D10*
%TO.N,inner_bottom*%
X175668156Y-163105136D03*
D22*
%TO.P,D1,2*%
X175668156Y-163105136D03*
%TD*%
D24*
%TO.P,H3,*%
%TO.N,*%
X221606152Y-140330135D03*
%TD*%
D10*
%TO.P,D22,1*%
%TO.N,row3*%
X152180184Y-151817277D03*
D22*
X152180184Y-151817277D03*
D10*
%TO.N,SW18B*%
X155480184Y-151817279D03*
D22*
%TO.P,D22,2*%
X155480184Y-151817279D03*
%TD*%
D36*
%TO.P,DISP1,1*%
%TO.N,DISP1_1*%
X144938155Y-137305132D03*
%TO.P,DISP1,2*%
%TO.N,DISP1_2*%
X147478156Y-137305133D03*
%TO.P,DISP1,3*%
%TO.N,VCC*%
X150018156Y-137305133D03*
%TO.P,DISP1,4*%
%TO.N,DISP1_4*%
X152558154Y-137305133D03*
D16*
%TO.P,DISP1,5*%
%TO.N,DISP1_5*%
X155098156Y-137305131D03*
D37*
%TO.P,DISP1,20*%
X155098155Y-135555132D03*
%TO.P,DISP1,21*%
%TO.N,DISP1_4*%
X152558154Y-135555131D03*
%TO.P,DISP1,22*%
%TO.N,DISP1_2*%
X147478156Y-135555131D03*
%TO.P,DISP1,23*%
%TO.N,DISP1_1*%
X144938153Y-135555132D03*
%TO.P,DISP1,24*%
%TO.N,CS*%
X155098154Y-134655133D03*
%TO.P,DISP1,25*%
%TO.N,GND*%
X152558154Y-134655133D03*
%TO.P,DISP1,26*%
%TO.N,SCK*%
X147478155Y-134655135D03*
%TO.P,DISP1,27*%
%TO.N,MOSI*%
X144938156Y-134655133D03*
%TD*%
D38*
%TO.P,S13,1*%
%TO.N,col5*%
X246714105Y-159521853D03*
D39*
%TO.P,S13,2*%
%TO.N,pinky_bottom*%
X257706609Y-163694067D03*
%TD*%
D40*
%TO.P,S34,1*%
%TO.N,col5*%
X255442441Y-169681866D03*
D41*
%TO.P,S34,2*%
%TO.N,pinky_bottom*%
X242270764Y-169938528D03*
%TD*%
D42*
%TO.P,S42,1*%
%TO.N,col1*%
X145134805Y-193537305D03*
D43*
%TO.P,S42,2*%
%TO.N,4_r0*%
X137790088Y-204474126D03*
%TD*%
D44*
%TO.P,S7,1*%
%TO.N,col3*%
X208743151Y-135655140D03*
D45*
%TO.P,S7,2*%
%TO.N,middle_bottom*%
X220293151Y-137855140D03*
%TD*%
D44*
%TO.P,S18,1*%
%TO.N,col4*%
X192693150Y-166605137D03*
D46*
%TO.P,S18,2*%
%TO.N,1_r0*%
X204243150Y-168805137D03*
%TD*%
D44*
%TO.P,S5,1*%
%TO.N,col2*%
X189743156Y-125655137D03*
D46*
%TO.P,S5,2*%
%TO.N,index_home*%
X201293156Y-127855137D03*
%TD*%
D47*
%TO.P,S22,1*%
%TO.N,col1*%
X181103151Y-157145135D03*
D48*
%TO.P,S22,2*%
%TO.N,inner_bottom*%
X168176151Y-159685135D03*
%TD*%
D47*
%TO.P,S27,1*%
%TO.N,col2*%
X200103153Y-115145137D03*
D48*
%TO.P,S27,2*%
%TO.N,index_top*%
X187176153Y-117685137D03*
%TD*%
D40*
%TO.P,S36,1*%
%TO.N,col5*%
X262041071Y-132259178D03*
D41*
%TO.P,S36,2*%
%TO.N,pinky_top*%
X248869394Y-132515840D03*
%TD*%
D47*
%TO.P,S39,1*%
%TO.N,col4*%
X203053150Y-175095137D03*
D48*
%TO.P,S39,2*%
%TO.N,1_r0*%
X190126150Y-177635137D03*
%TD*%
D38*
%TO.P,S16,1*%
%TO.N,col6*%
X266293694Y-157897133D03*
D39*
%TO.P,S16,2*%
%TO.N,pinky_extra_bottom*%
X277286198Y-162069347D03*
%TD*%
D49*
%TO.P,S23,1*%
%TO.N,col1*%
X181103153Y-138145131D03*
D48*
%TO.P,S23,2*%
%TO.N,inner_home*%
X168176153Y-140685131D03*
%TD*%
D44*
%TO.P,S1,1*%
%TO.N,col1*%
X170743151Y-148655135D03*
D46*
%TO.P,S1,2*%
%TO.N,inner_bottom*%
X182293151Y-150855135D03*
%TD*%
D38*
%TO.P,S17,1*%
%TO.N,col6*%
X269593009Y-139185790D03*
D39*
%TO.P,S17,2*%
%TO.N,pinky_extra_home*%
X280585513Y-143358004D03*
%TD*%
D47*
%TO.P,S29,1*%
%TO.N,col3*%
X219103154Y-125145137D03*
D48*
%TO.P,S29,2*%
%TO.N,middle_home*%
X206176154Y-127685137D03*
%TD*%
D44*
%TO.P,S3,1*%
%TO.N,col1*%
X170743154Y-110655134D03*
D46*
%TO.P,S3,2*%
%TO.N,inner_top*%
X182293154Y-112855134D03*
%TD*%
D50*
%TO.P,S20,1*%
%TO.N,col2*%
X149392669Y-180173661D03*
D51*
%TO.P,S20,2*%
%TO.N,3_r0*%
X160495262Y-176303917D03*
%TD*%
D52*
%TO.P,S10,1*%
%TO.N,col4*%
X228166182Y-145741175D03*
D53*
%TO.P,S10,2*%
%TO.N,ring_bottom*%
X239534583Y-148741503D03*
%TD*%
D54*
%TO.P,S41,1*%
%TO.N,col2*%
X162609693Y-182346217D03*
D55*
%TO.P,S41,2*%
%TO.N,3_r0*%
X152684582Y-191009421D03*
%TD*%
D52*
%TO.P,S12,1*%
%TO.N,col4*%
X230816927Y-107833739D03*
D53*
%TO.P,S12,2*%
%TO.N,ring_top*%
X242185328Y-110834067D03*
%TD*%
D44*
%TO.P,S6,1*%
%TO.N,col2*%
X189743153Y-106655137D03*
D46*
%TO.P,S6,2*%
%TO.N,index_top*%
X201293153Y-108855137D03*
%TD*%
D47*
%TO.P,S30,1*%
%TO.N,col3*%
X219103151Y-106145132D03*
D48*
%TO.P,S30,2*%
%TO.N,middle_top*%
X206176151Y-108685132D03*
%TD*%
D56*
%TO.P,S21,1*%
%TO.N,col1*%
X131805842Y-194859595D03*
D57*
%TO.P,S21,2*%
%TO.N,4_r0*%
X141528560Y-188248147D03*
%TD*%
D47*
%TO.P,S25,1*%
%TO.N,col2*%
X200103153Y-153145130D03*
D48*
%TO.P,S25,2*%
%TO.N,index_bottom*%
X187176153Y-155685130D03*
%TD*%
D47*
%TO.P,S24,1*%
%TO.N,col1*%
X181103154Y-119145134D03*
D48*
%TO.P,S24,2*%
%TO.N,inner_top*%
X168176154Y-121685134D03*
%TD*%
D40*
%TO.P,S37,1*%
%TO.N,col6*%
X275022030Y-168057146D03*
D41*
%TO.P,S37,2*%
%TO.N,pinky_extra_bottom*%
X261850353Y-168313808D03*
%TD*%
D58*
%TO.P,S33,1*%
%TO.N,col4*%
X240559460Y-117025736D03*
D59*
%TO.P,S33,2*%
%TO.N,ring_top*%
X227486767Y-118657806D03*
%TD*%
D52*
%TO.P,S11,1*%
%TO.N,col4*%
X229491554Y-126787455D03*
D53*
%TO.P,S11,2*%
%TO.N,ring_home*%
X240859955Y-129787783D03*
%TD*%
D44*
%TO.P,S8,1*%
%TO.N,col3*%
X208743154Y-116655137D03*
D46*
%TO.P,S8,2*%
%TO.N,middle_home*%
X220293154Y-118855137D03*
%TD*%
D38*
%TO.P,S14,1*%
%TO.N,col5*%
X250013421Y-140810510D03*
D39*
%TO.P,S14,2*%
%TO.N,pinky_home*%
X261005925Y-144982724D03*
%TD*%
D47*
%TO.P,S26,1*%
%TO.N,col2*%
X200103156Y-134145137D03*
D48*
%TO.P,S26,2*%
%TO.N,index_home*%
X187176156Y-136685137D03*
%TD*%
D38*
%TO.P,S15,1*%
%TO.N,col5*%
X253312735Y-122099165D03*
D39*
%TO.P,S15,2*%
%TO.N,pinky_top*%
X264305239Y-126271379D03*
%TD*%
D58*
%TO.P,S32,1*%
%TO.N,col4*%
X239234087Y-135979452D03*
D59*
%TO.P,S32,2*%
%TO.N,ring_home*%
X226161394Y-137611522D03*
%TD*%
D60*
%TO.P,S19,1*%
%TO.N,col3*%
X170150526Y-170536590D03*
D61*
%TO.P,S19,2*%
%TO.N,2_r0*%
X181876371Y-169672267D03*
%TD*%
D47*
%TO.P,S28,1*%
%TO.N,col3*%
X219103151Y-144145140D03*
D48*
%TO.P,S28,2*%
%TO.N,middle_bottom*%
X206176151Y-146685140D03*
%TD*%
D44*
%TO.P,S2,1*%
%TO.N,col1*%
X170743153Y-129655131D03*
D46*
%TO.P,S2,2*%
%TO.N,inner_home*%
X182293153Y-131855131D03*
%TD*%
D62*
%TO.P,S40,1*%
%TO.N,col3*%
X182354891Y-176055935D03*
D63*
%TO.P,S40,2*%
%TO.N,2_r0*%
X170525769Y-181855140D03*
%TD*%
D44*
%TO.P,S9,1*%
%TO.N,col3*%
X208743151Y-97655132D03*
D46*
%TO.P,S9,2*%
%TO.N,middle_top*%
X220293151Y-99855132D03*
%TD*%
D58*
%TO.P,S31,1*%
%TO.N,col4*%
X237908715Y-154933172D03*
D59*
%TO.P,S31,2*%
%TO.N,ring_bottom*%
X224836022Y-156565242D03*
%TD*%
D44*
%TO.P,S4,1*%
%TO.N,col2*%
X189743153Y-144655130D03*
D46*
%TO.P,S4,2*%
%TO.N,index_bottom*%
X201293153Y-146855130D03*
%TD*%
D40*
%TO.P,S35,1*%
%TO.N,col5*%
X258741757Y-150970523D03*
D41*
%TO.P,S35,2*%
%TO.N,pinky_home*%
X245570080Y-151227185D03*
%TD*%
D40*
%TO.P,S38,1*%
%TO.N,col6*%
X278321345Y-149345803D03*
D41*
%TO.P,S38,2*%
%TO.N,pinky_extra_home*%
X265149668Y-149602465D03*
%TD*%
D64*
%TO.N,ring_home*%
X231858090Y-139893463D03*
X232558031Y-129883909D03*
%TO.N,ring_top*%
X233183461Y-120939748D03*
X233883398Y-110930193D03*
%TO.N,BAT_P*%
X138493203Y-105964968D03*
X136371203Y-148760968D03*
%TO.N,GND*%
X139216003Y-147694167D03*
X150188803Y-133673367D03*
X155472005Y-147033767D03*
X148493204Y-138714968D03*
X143686403Y-147135367D03*
%TO.N,VCC*%
X149274404Y-146576567D03*
%TO.N,RST*%
X136110159Y-158209767D03*
%TO.N,RAW*%
X135609203Y-109136967D03*
%TO.N,middle_top*%
X212018156Y-110564134D03*
X212018154Y-100530136D03*
%TO.N,pinky_top*%
X254296362Y-135380745D03*
X256038747Y-125499184D03*
%TO.N,inner_top*%
X174018152Y-113530133D03*
X174018152Y-123564134D03*
%TO.N,middle_home*%
X212018158Y-119530134D03*
X212018153Y-129564138D03*
%TO.N,index_home*%
X193018153Y-128530135D03*
X193018153Y-138564135D03*
%TO.N,pinky_extra_home*%
X270576629Y-152467368D03*
X272319018Y-142585807D03*
%TO.N,pinky_extra_bottom*%
X269019704Y-161297154D03*
X267277315Y-171178712D03*
%TO.N,row4*%
X159743203Y-169214967D03*
X166243204Y-186214969D03*
%TO.N,3_r0*%
X158683402Y-189715684D03*
X153666399Y-181025987D03*
%TO.N,1_r0*%
X195968151Y-169480136D03*
X195968151Y-179514137D03*
%TO.N,index_bottom*%
X193018154Y-147530135D03*
X193018153Y-157564132D03*
%TO.N,ring_bottom*%
X231232657Y-148837625D03*
X230532720Y-158847185D03*
%TO.N,2_r0*%
X176655025Y-182158092D03*
X174058032Y-172465996D03*
%TO.N,middle_bottom*%
X212018152Y-148564134D03*
X212018151Y-138530134D03*
%TO.N,4_r0*%
X143249659Y-201671861D03*
X136154550Y-194576752D03*
%TO.N,inner_home*%
X174018154Y-142564136D03*
X174018150Y-132530135D03*
%TO.N,pinky_bottom*%
X249440115Y-162921878D03*
X247697729Y-172803439D03*
%TO.N,pinky_home*%
X250997040Y-154092087D03*
X252739431Y-144210530D03*
%TO.N,index_top*%
X193018152Y-109530136D03*
X193018153Y-119564138D03*
%TO.N,inner_bottom*%
X174018156Y-151530134D03*
X174018153Y-161564134D03*
%TO.N,CS*%
X150087205Y-132250967D03*
%TO.N,SCK*%
X145743203Y-132714968D03*
X150138004Y-135197367D03*
X149376004Y-148151367D03*
%TO.N,MOSI*%
X151048865Y-117176119D03*
X149122003Y-133165367D03*
X149270830Y-149326030D03*
%TO.N,col1*%
X174018152Y-160535137D03*
X174018153Y-131730134D03*
X174018152Y-150730140D03*
X142522046Y-200944246D03*
X135588865Y-194011064D03*
X174018153Y-141535135D03*
X174018149Y-112730137D03*
X167023040Y-104959179D03*
X174018158Y-122535132D03*
%TO.N,col2*%
X193018155Y-127730136D03*
X193018153Y-137535138D03*
X193018155Y-108730132D03*
X193018156Y-146730133D03*
X193018158Y-156535135D03*
X193018150Y-118535133D03*
X158168902Y-188824544D03*
X183743203Y-165464968D03*
X153266404Y-180333167D03*
%TO.N,col3*%
X212018154Y-137730138D03*
X173850976Y-171693247D03*
X176388699Y-181164155D03*
X212018150Y-118730133D03*
X212018156Y-147535135D03*
X212018153Y-99730136D03*
X212018152Y-109535134D03*
X212018158Y-128535136D03*
%TO.N,col4*%
X231288458Y-148039573D03*
X233939201Y-110132140D03*
X162993204Y-158464966D03*
X232613829Y-129085856D03*
X195968151Y-168680129D03*
X233255244Y-119913255D03*
X162993203Y-122964967D03*
X186493203Y-165714968D03*
X162993203Y-160714967D03*
X231929871Y-138866970D03*
X230604497Y-157820691D03*
X195968153Y-178485134D03*
X172243204Y-166214967D03*
%TO.N,col5*%
X218993205Y-111714968D03*
X263310747Y-129185179D03*
X256177661Y-124711333D03*
X164743204Y-99714967D03*
X260011430Y-147896525D03*
X249579034Y-162134031D03*
X215993203Y-112714967D03*
X252878351Y-143422686D03*
X247876412Y-171790072D03*
X251175727Y-153078724D03*
X201243204Y-105714968D03*
X254475043Y-134367377D03*
%TO.N,col6*%
X272457935Y-141797960D03*
X270755316Y-151453999D03*
X276908333Y-164470009D03*
X267456000Y-170165344D03*
X165743203Y-98964968D03*
X279924044Y-145822810D03*
X269158620Y-160509309D03*
%TD*%
%TO.N,row2*%
D65*
X145592845Y-125765132D02*
X146317846Y-126490134D01*
X145243155Y-125765134D02*
X145592845Y-125765132D01*
X146317846Y-126490134D02*
X146918455Y-126490133D01*
X146918455Y-126490133D02*
X147413457Y-125995138D01*
X147413457Y-125995138D02*
X153188151Y-125995135D01*
%TO.N,ring_home*%
D66*
X234610743Y-131209330D02*
X233516850Y-129950957D01*
X240859962Y-129787793D02*
X238881145Y-131507944D01*
X231858090Y-139893463D02*
X227904710Y-139617519D01*
X227904746Y-139617019D02*
X226161396Y-137611525D01*
X233516850Y-129950957D02*
X232558031Y-129883909D01*
X238881145Y-131507944D02*
X234610743Y-131209330D01*
%TO.N,row1*%
D65*
X145243152Y-123225136D02*
X145592847Y-123225135D01*
X146918460Y-123950131D02*
X147413456Y-123455133D01*
X147413456Y-123455133D02*
X153188155Y-123455138D01*
X146317847Y-123950136D02*
X146918460Y-123950131D01*
X145592847Y-123225135D02*
X146317847Y-123950136D01*
%TO.N,ring_top*%
D66*
X235936111Y-112255612D02*
X234842222Y-110997241D01*
X240206517Y-112554227D02*
X235936111Y-112255612D01*
X242185328Y-110834071D02*
X240206517Y-112554227D01*
X234842222Y-110997241D02*
X233883398Y-110930193D01*
X233183461Y-120939748D02*
X229230084Y-120663803D01*
X229230120Y-120663304D02*
X227486764Y-118657810D01*
%TO.N,BAT_P*%
X138493203Y-105964968D02*
X138493203Y-107078080D01*
X138116152Y-107455132D02*
X137416154Y-106755134D01*
X138116152Y-147730134D02*
X138116152Y-107455132D01*
X137416154Y-106755134D02*
X137016154Y-106755133D01*
X138116152Y-147730134D02*
X137085320Y-148760968D01*
X137085320Y-148760968D02*
X136371203Y-148760968D01*
X138493203Y-107078080D02*
X138116152Y-107455132D01*
%TO.N,GND*%
X152558152Y-134655133D02*
X151170570Y-134655134D01*
D65*
X146918459Y-111250137D02*
X147413457Y-110755133D01*
X145592847Y-110525137D02*
X146317845Y-111250134D01*
D66*
X145571182Y-147181875D02*
X143732911Y-147181876D01*
D65*
X147413457Y-110755133D02*
X153188155Y-110755137D01*
D66*
X139216003Y-148630284D02*
X139216003Y-147694167D01*
X151170570Y-134655134D02*
X150188803Y-133673367D01*
X143732911Y-147181876D02*
X143686403Y-147135367D01*
D65*
X145243149Y-107985130D02*
X145592847Y-107985135D01*
X145243152Y-110525133D02*
X145592847Y-110525137D01*
X147413458Y-108215137D02*
X153188152Y-108215134D01*
X146918459Y-108710134D02*
X147413458Y-108215137D01*
X153117848Y-104720134D02*
X152612847Y-105225133D01*
X146317850Y-108710137D02*
X146918459Y-108710134D01*
X154443459Y-105445133D02*
X153718456Y-104720136D01*
D66*
X138116152Y-149730135D02*
X139216003Y-148630284D01*
D65*
X152612847Y-105225133D02*
X146838153Y-105225135D01*
X145592847Y-107985135D02*
X146317850Y-108710137D01*
X146317845Y-111250134D02*
X146918459Y-111250137D01*
X154793148Y-105445134D02*
X154443459Y-105445133D01*
X153718456Y-104720136D02*
X153117848Y-104720134D01*
%TO.N,JST1_1*%
X137100155Y-149730135D02*
X135300153Y-149730138D01*
%TO.N,JST1_2*%
X137100150Y-147730134D02*
X135300155Y-147730136D01*
%TO.N,MCU1_1*%
X157638154Y-102905134D02*
X155518155Y-102905132D01*
%TO.N,MCU1_2*%
X157638157Y-105445135D02*
X155518155Y-105445136D01*
%TO.N,MCU1_3*%
X157638157Y-107985135D02*
X155518151Y-107985138D01*
%TO.N,MCU1_4*%
X157638150Y-110525135D02*
X155518153Y-110525135D01*
%TO.N,MCU1_5*%
X157638150Y-113065135D02*
X155518150Y-113065134D01*
%TO.N,MCU1_6*%
X157638159Y-115605137D02*
X155518159Y-115605135D01*
%TO.N,MCU1_7*%
X157638157Y-118145135D02*
X155518152Y-118145134D01*
%TO.N,MCU1_8*%
X157638155Y-120685132D02*
X155518151Y-120685136D01*
%TO.N,MCU1_9*%
X157638150Y-123225137D02*
X155518157Y-123225135D01*
%TO.N,MCU1_10*%
X157638150Y-125765138D02*
X155518153Y-125765133D01*
%TO.N,MCU1_11*%
X157638150Y-128305134D02*
X155518155Y-128305137D01*
%TO.N,MCU1_12*%
X157638157Y-130845138D02*
X155518156Y-130845133D01*
%TO.N,MCU1_13*%
X142398154Y-130845136D02*
X144518151Y-130845137D01*
%TO.N,MCU1_14*%
X142398153Y-128305137D02*
X144518155Y-128305134D01*
%TO.N,MCU1_15*%
X142398152Y-125765136D02*
X144518156Y-125765137D01*
%TO.N,MCU1_16*%
X142398153Y-123225135D02*
X144518151Y-123225134D01*
%TO.N,MCU1_17*%
X142398153Y-120685132D02*
X144518150Y-120685134D01*
%TO.N,MCU1_18*%
X142398148Y-118145132D02*
X144518156Y-118145135D01*
%TO.N,MCU1_19*%
X142398151Y-115605136D02*
X144518152Y-115605132D01*
%TO.N,MCU1_20*%
X142398155Y-113065135D02*
X144518153Y-113065138D01*
%TO.N,MCU1_21*%
X142398156Y-110525136D02*
X144518152Y-110525135D01*
%TO.N,MCU1_22*%
X142398153Y-107985134D02*
X144518152Y-107985133D01*
%TO.N,MCU1_23*%
X142398157Y-105445136D02*
X144518155Y-105445138D01*
%TO.N,MCU1_24*%
X142398153Y-102905132D02*
X144518154Y-102905135D01*
%TO.N,P10*%
X152612849Y-130625137D02*
X146838156Y-130625133D01*
X153117845Y-130120134D02*
X152612849Y-130625137D01*
X154443459Y-130845138D02*
X153718460Y-130120137D01*
X154793154Y-130845137D02*
X154443459Y-130845138D01*
X153718460Y-130120137D02*
X153117845Y-130120134D01*
%TO.N,P16*%
X154793152Y-128305135D02*
X154443458Y-128305137D01*
X153117850Y-127580137D02*
X152612848Y-128085138D01*
X154443458Y-128305137D02*
X153718458Y-127580134D01*
X153718458Y-127580134D02*
X153117850Y-127580137D01*
X152612848Y-128085138D02*
X146838154Y-128085135D01*
%TO.N,P14*%
X153117847Y-125040135D02*
X152612845Y-125545137D01*
X153718459Y-125040132D02*
X153117847Y-125040135D01*
X154443460Y-125765136D02*
X153718459Y-125040132D01*
X152612845Y-125545137D02*
X146838151Y-125545135D01*
X154793152Y-125765131D02*
X154443460Y-125765136D01*
%TO.N,P15*%
X153117846Y-122500132D02*
X152612848Y-123005136D01*
X153718455Y-122500133D02*
X153117846Y-122500132D01*
X154443457Y-123225135D02*
X153718455Y-122500133D01*
X152612848Y-123005136D02*
X146838151Y-123005134D01*
X154793152Y-123225137D02*
X154443457Y-123225135D01*
%TO.N,P18*%
X153117849Y-119960136D02*
X152612847Y-120465136D01*
X154793153Y-120685139D02*
X154443456Y-120685131D01*
X152612847Y-120465136D02*
X146838155Y-120465134D01*
X153718459Y-119960138D02*
X153117849Y-119960136D01*
X154443456Y-120685131D02*
X153718459Y-119960138D01*
%TO.N,VCC*%
D66*
X144076153Y-154471138D02*
X148116184Y-150431107D01*
D65*
X152612850Y-110305130D02*
X146838156Y-110305133D01*
D66*
X148116184Y-147181872D02*
X148669099Y-147181872D01*
X146618148Y-110343796D02*
X146618148Y-110525134D01*
X149274405Y-139820167D02*
X149274404Y-146576567D01*
X149274403Y-138048883D02*
X149274405Y-139820167D01*
X145649487Y-109375136D02*
X146618148Y-110343796D01*
X141705205Y-139820167D02*
X141248149Y-139363114D01*
D65*
X153718455Y-109800137D02*
X153117851Y-109800135D01*
D66*
X148116184Y-150431107D02*
X148116184Y-147181872D01*
X148669099Y-147181872D02*
X149274404Y-146576567D01*
X144076153Y-176075136D02*
X144076153Y-170125136D01*
X141921805Y-109375134D02*
X145649487Y-109375136D01*
X141248149Y-110048790D02*
X141921805Y-109375134D01*
D65*
X153117851Y-109800135D02*
X152612850Y-110305130D01*
D66*
X149274405Y-139820167D02*
X141705205Y-139820167D01*
D65*
X154793150Y-110525134D02*
X154443457Y-110525134D01*
D66*
X144076153Y-170125136D02*
X144076153Y-154471138D01*
D65*
X154443457Y-110525134D02*
X153718455Y-109800137D01*
D66*
X141248149Y-139363114D02*
X141248149Y-110048790D01*
X150018153Y-137305134D02*
X149274403Y-138048883D01*
%TO.N,RST*%
D65*
X154793157Y-107985134D02*
X154443459Y-107985134D01*
X153718458Y-107260138D02*
X153117848Y-107260137D01*
X153117848Y-107260137D02*
X152612847Y-107765137D01*
D66*
X140181203Y-152316968D02*
X140181204Y-108575734D01*
X141921803Y-106835135D02*
X146033833Y-106835134D01*
D65*
X152612847Y-107765137D02*
X146838150Y-107765132D01*
D66*
X136110158Y-161980136D02*
X136110159Y-158209767D01*
X136110159Y-158209767D02*
X136110157Y-156388014D01*
X146033833Y-106835134D02*
X146618148Y-107419449D01*
X136110158Y-161980136D02*
X136110156Y-167230136D01*
X146618148Y-107419449D02*
X146618149Y-107985136D01*
X136110157Y-156388014D02*
X140181203Y-152316968D01*
X140181204Y-108575734D02*
X141921803Y-106835135D01*
D65*
X154443459Y-107985134D02*
X153718458Y-107260138D01*
%TO.N,RAW*%
D66*
X137016155Y-108255134D02*
X136491036Y-108255135D01*
D65*
X154443458Y-102905136D02*
X153718459Y-102180133D01*
X153718459Y-102180133D02*
X153117849Y-102180133D01*
D66*
X136491036Y-108255135D02*
X135609203Y-109136967D01*
D65*
X153117849Y-102180133D02*
X152612849Y-102685133D01*
X152612849Y-102685133D02*
X146838153Y-102685135D01*
X154793153Y-102905136D02*
X154443458Y-102905136D01*
%TO.N,dis1-pad4*%
D66*
X153155185Y-146456876D02*
X153155185Y-143488100D01*
X153155185Y-143488100D02*
X153238150Y-143405134D01*
%TO.N,dis1-pad3*%
X150698151Y-146368903D02*
X150610184Y-146456871D01*
X150698152Y-143405135D02*
X150698151Y-146368903D01*
%TO.N,dis1-pad2*%
X148116185Y-143447103D02*
X148158151Y-143405137D01*
X148116185Y-146456873D02*
X148116185Y-143447103D01*
%TO.N,dis1-pad1*%
X145618151Y-143405134D02*
X145618152Y-146409908D01*
X145618152Y-146409908D02*
X145571182Y-146456876D01*
%TO.N,middle_top*%
X218439151Y-101709133D02*
X214158317Y-101709135D01*
X220293152Y-99855134D02*
X218439151Y-101709133D01*
X214158317Y-101709135D02*
X212979316Y-100530132D01*
X208055152Y-110564136D02*
X206176151Y-108685138D01*
X212018156Y-110564134D02*
X208055156Y-110564633D01*
X212979316Y-100530132D02*
X212018154Y-100530136D01*
%TO.N,pinky_top*%
X264305238Y-126271379D02*
X262157465Y-127775269D01*
X250393568Y-134692574D02*
X248869398Y-132515835D01*
X256985308Y-125666088D02*
X256038747Y-125499184D01*
X262157465Y-127775269D02*
X257941666Y-127031910D01*
X257941666Y-127031910D02*
X256985308Y-125666088D01*
X254296362Y-135380745D02*
X250393476Y-134693069D01*
%TO.N,inner_top*%
X182293152Y-112855138D02*
X180439156Y-114709133D01*
X174979318Y-113530135D02*
X174018152Y-113530133D01*
X180439156Y-114709133D02*
X176158324Y-114709136D01*
X174018152Y-123564134D02*
X170055152Y-123564630D01*
X176158324Y-114709136D02*
X174979318Y-113530135D01*
X170055155Y-123564134D02*
X168176158Y-121685131D01*
%TO.N,middle_home*%
X212018153Y-129564138D02*
X208055153Y-129564636D01*
X220293152Y-118855133D02*
X218439151Y-120709136D01*
X212979319Y-119530130D02*
X212018158Y-119530134D01*
X208055153Y-129564137D02*
X206176158Y-127685136D01*
X218439151Y-120709136D02*
X214158318Y-120709133D01*
X214158318Y-120709133D02*
X212979319Y-119530130D01*
%TO.N,index_home*%
X201293154Y-127855137D02*
X199439152Y-129709135D01*
X193979316Y-128530136D02*
X193018153Y-128530135D01*
X193018153Y-138564135D02*
X189055156Y-138564634D01*
X195158316Y-129709139D02*
X193979316Y-128530136D01*
X189055153Y-138564135D02*
X187176152Y-136685133D01*
X199439152Y-129709135D02*
X195158316Y-129709139D01*
%TO.N,pinky_extra_home*%
X270576629Y-152467368D02*
X266673750Y-151779693D01*
X278437736Y-144861889D02*
X274221941Y-144118531D01*
X266673837Y-151779200D02*
X265149668Y-149602462D01*
X280585514Y-143357998D02*
X278437736Y-144861889D01*
X274221941Y-144118531D02*
X273265581Y-142752714D01*
X273265581Y-142752714D02*
X272319018Y-142585807D01*
%TO.N,row3*%
D65*
X147413462Y-128535133D02*
X153188154Y-128535138D01*
X146918459Y-129030135D02*
X147413462Y-128535133D01*
X145243159Y-128305135D02*
X145592845Y-128305136D01*
X146317847Y-129030136D02*
X146918459Y-129030135D01*
X145592845Y-128305136D02*
X146317847Y-129030136D01*
%TO.N,pinky_extra_bottom*%
D66*
X263374523Y-170490549D02*
X261850359Y-168313809D01*
X275138423Y-163573236D02*
X270922622Y-162829877D01*
X267277315Y-171178712D02*
X263374432Y-170491042D01*
X269966267Y-161464058D02*
X269019704Y-161297154D01*
X270922622Y-162829877D02*
X269966267Y-161464058D01*
X277286195Y-162069344D02*
X275138423Y-163573236D01*
%TO.N,row4*%
D65*
X146317846Y-131570137D02*
X146918455Y-131570133D01*
X145243154Y-130845133D02*
X145592849Y-130845136D01*
X145592849Y-130845136D02*
X146317846Y-131570137D01*
X147413455Y-131075132D02*
X153188152Y-131075136D01*
D66*
X166243204Y-175714967D02*
X159743203Y-169214967D01*
D65*
X146918455Y-131570133D02*
X147413455Y-131075132D01*
D66*
X166243204Y-186214969D02*
X166243204Y-175714967D01*
%TO.N,3_r0*%
X158683402Y-189715684D02*
X155251595Y-191697613D01*
X159816655Y-178836532D02*
X156109342Y-180976949D01*
X154498794Y-180545404D02*
X153666399Y-181025987D01*
X160495263Y-176303921D02*
X159816655Y-178836532D01*
X156109342Y-180976949D02*
X154498794Y-180545404D01*
X155251344Y-191697184D02*
X152684581Y-191009426D01*
%TO.N,1_r0*%
X192005152Y-179514135D02*
X190126157Y-177635137D01*
X196929322Y-169480134D02*
X195968151Y-169480136D01*
X202389152Y-170659137D02*
X198108317Y-170659133D01*
X195968151Y-179514137D02*
X192005152Y-179514634D01*
X198108317Y-170659133D02*
X196929322Y-169480134D01*
X204243154Y-168805133D02*
X202389152Y-170659137D01*
%TO.N,SW18B*%
X155540155Y-156307137D02*
X155540154Y-151877249D01*
X155540154Y-151877249D02*
X155480184Y-151817280D01*
%TO.N,index_bottom*%
X199439155Y-148709137D02*
X195158322Y-148709134D01*
X189055157Y-157564136D02*
X187176151Y-155685135D01*
X201293153Y-146855139D02*
X199439155Y-148709137D01*
X193018153Y-157564132D02*
X189055151Y-157564635D01*
X195158322Y-148709134D02*
X193979322Y-147530133D01*
X193979322Y-147530133D02*
X193018154Y-147530135D01*
%TO.N,ring_bottom*%
X226579374Y-158570738D02*
X224836026Y-156565241D01*
X237555766Y-150461660D02*
X233285363Y-150163044D01*
X230532720Y-158847185D02*
X226579336Y-158571240D01*
X239534583Y-148741508D02*
X237555766Y-150461660D01*
X233285363Y-150163044D02*
X232191478Y-148904671D01*
X232191478Y-148904671D02*
X231232657Y-148837625D01*
%TO.N,2_r0*%
X172827060Y-183183794D02*
X170525767Y-181855142D01*
X176655025Y-182158092D02*
X172827185Y-183184277D01*
X180565393Y-171942942D02*
X176430425Y-173050905D01*
X176430425Y-173050905D02*
X174986451Y-172217223D01*
X181876371Y-169672266D02*
X180565393Y-171942942D01*
X174986451Y-172217223D02*
X174058032Y-172465996D01*
%TO.N,RX*%
X137076154Y-176075137D02*
X137076152Y-170125136D01*
%TO.N,TX*%
X145576154Y-174325136D02*
X145576153Y-171875136D01*
%TO.N,middle_bottom*%
X208055153Y-148564133D02*
X206176153Y-146685136D01*
X212018152Y-148564134D02*
X208055152Y-148564637D01*
X218439152Y-139709135D02*
X214158319Y-139709134D01*
X220293154Y-137855134D02*
X218439152Y-139709135D01*
X214158319Y-139709134D02*
X212979318Y-138530137D01*
X212979318Y-138530137D02*
X212018151Y-138530134D01*
%TO.N,4_r0*%
X140447394Y-204474124D02*
X137790092Y-204474125D01*
X141528561Y-188248143D02*
X141528562Y-190870095D01*
X141528562Y-190870095D02*
X138501552Y-193897104D01*
X138501552Y-193897104D02*
X136834198Y-193897104D01*
X143249659Y-201671861D02*
X140447747Y-204474481D01*
X136834198Y-193897104D02*
X136154550Y-194576752D01*
%TO.N,inner_home*%
X174018154Y-142564136D02*
X170055155Y-142564634D01*
X170055149Y-142564134D02*
X168176158Y-140685136D01*
X182293154Y-131855135D02*
X180439152Y-133709131D01*
X174979318Y-132530139D02*
X174018150Y-132530135D01*
X176158321Y-133709137D02*
X174979318Y-132530139D01*
X180439152Y-133709131D02*
X176158321Y-133709137D01*
%TO.N,pinky_bottom*%
X257706609Y-163694072D02*
X255558834Y-165197960D01*
X243794933Y-172115271D02*
X242270766Y-169938532D01*
X247697729Y-172803439D02*
X243794847Y-172115760D01*
X255558834Y-165197960D02*
X251343035Y-164454599D01*
X251343035Y-164454599D02*
X250386679Y-163088784D01*
X250386679Y-163088784D02*
X249440115Y-162921878D01*
%TO.N,pinky_home*%
X254642353Y-145743253D02*
X253685995Y-144377435D01*
X253685995Y-144377435D02*
X252739431Y-144210530D01*
X258858151Y-146486614D02*
X254642353Y-145743253D01*
X247094250Y-153403924D02*
X245570085Y-151227186D01*
X250997040Y-154092087D02*
X247094165Y-153404416D01*
X261005924Y-144982725D02*
X258858151Y-146486614D01*
%TO.N,index_top*%
X189055150Y-119564133D02*
X187176154Y-117685136D01*
X193018153Y-119564138D02*
X189055152Y-119564634D01*
X199439153Y-110709135D02*
X195158318Y-110709133D01*
X201293155Y-108855136D02*
X199439153Y-110709135D01*
X195158318Y-110709133D02*
X193979318Y-109530132D01*
X193979318Y-109530132D02*
X193018152Y-109530136D01*
%TO.N,inner_bottom*%
X182293151Y-150855137D02*
X180439152Y-152709134D01*
X174018153Y-161564134D02*
X170055154Y-161564636D01*
X180439152Y-152709134D02*
X176158319Y-152709131D01*
X170055152Y-161564133D02*
X168176157Y-159685136D01*
X176158319Y-152709131D02*
X174979318Y-151530131D01*
X174979318Y-151530131D02*
X174018156Y-151530134D01*
%TO.N,DISP1_1*%
D65*
X144938154Y-137305138D02*
X144938153Y-135555139D01*
%TO.N,DISP1_2*%
X147478152Y-137305130D02*
X147478153Y-135555132D01*
%TO.N,DISP1_4*%
X152558153Y-137305136D02*
X152558154Y-135555133D01*
%TO.N,DISP1_5*%
X155098150Y-137305134D02*
X155098158Y-135555139D01*
%TO.N,CS*%
X153117847Y-112340139D02*
X152612851Y-112845135D01*
X152612851Y-112845135D02*
X146838154Y-112845131D01*
D66*
X150087205Y-132250967D02*
X150567402Y-132731165D01*
X153174184Y-132731165D02*
X155098151Y-134655134D01*
D65*
X153718459Y-112340137D02*
X153117847Y-112340139D01*
D66*
X150567402Y-132731165D02*
X153174184Y-132731165D01*
D65*
X154443455Y-113065134D02*
X153718459Y-112340137D01*
X154793151Y-113065138D02*
X154443455Y-113065134D01*
%TO.N,SCK*%
D66*
X148506004Y-133565366D02*
X146593605Y-133565368D01*
X151798150Y-146075241D02*
X151798152Y-138411476D01*
D65*
X154793154Y-115605134D02*
X154443462Y-115605135D01*
D66*
X149722024Y-148151366D02*
X151798150Y-146075241D01*
X147478152Y-134655136D02*
X149595771Y-134655136D01*
X144461808Y-138455132D02*
X143788152Y-137781478D01*
X150345501Y-147181871D02*
X149376004Y-148151367D01*
X149376004Y-148151367D02*
X149722024Y-148151366D01*
X146093606Y-137776026D02*
X145414498Y-138455133D01*
D65*
X153117849Y-114880133D02*
X152612848Y-115385136D01*
D66*
X151798152Y-138411476D02*
X151168153Y-137781480D01*
X146593605Y-133565368D02*
X146093606Y-134065369D01*
X150138004Y-135197367D02*
X148506004Y-133565366D01*
X145414498Y-138455133D02*
X144461808Y-138455132D01*
D65*
X154443462Y-115605135D02*
X153718461Y-114880136D01*
D66*
X149595771Y-134655136D02*
X150138004Y-135197367D01*
X150610184Y-147181873D02*
X150345501Y-147181871D01*
X145378320Y-132714967D02*
X145743203Y-132714968D01*
X143788152Y-137781478D02*
X143788154Y-134305134D01*
D65*
X152612848Y-115385136D02*
X146838152Y-115385132D01*
D66*
X151168153Y-137781480D02*
X151168153Y-136227518D01*
X146093606Y-134065369D02*
X146093606Y-137776026D01*
D65*
X153718461Y-114880136D02*
X153117849Y-114880133D01*
D66*
X143788154Y-134305134D02*
X145378320Y-132714967D01*
X151168153Y-136227518D02*
X150138004Y-135197367D01*
%TO.N,MOSI*%
X153155185Y-147181878D02*
X151011034Y-149326029D01*
X151048865Y-117176119D02*
X147587165Y-117176118D01*
X149838674Y-131650967D02*
X149122003Y-132367638D01*
D65*
X154443460Y-118145136D02*
X153718458Y-117420135D01*
D66*
X153593986Y-131650966D02*
X149838674Y-131650967D01*
D65*
X154793153Y-118145136D02*
X154443460Y-118145136D01*
D66*
X149122003Y-132367638D02*
X149122003Y-133165367D01*
X144938153Y-134655134D02*
X146427919Y-133165368D01*
D65*
X153117849Y-117420135D02*
X152612849Y-117925134D01*
D66*
X156248154Y-144718910D02*
X156248153Y-134305135D01*
D65*
X153718458Y-117420135D02*
X153117849Y-117420135D01*
D66*
X153155185Y-147181878D02*
X153785185Y-147181878D01*
X146427919Y-133165368D02*
X149122003Y-133165367D01*
X151011034Y-149326029D02*
X149270830Y-149326030D01*
X147587165Y-117176118D02*
X146618149Y-118145135D01*
X156248153Y-134305135D02*
X153593986Y-131650966D01*
X153785185Y-147181878D02*
X156248154Y-144718910D01*
D65*
X152612849Y-117925134D02*
X146838150Y-117925132D01*
%TO.N,col1*%
D66*
X155001677Y-160007136D02*
X165548890Y-160007135D01*
X180821204Y-130005133D02*
X176284448Y-130005133D01*
X180821205Y-126201187D02*
X178184155Y-123564138D01*
X145134803Y-193537305D02*
X146195464Y-194597969D01*
X174618154Y-161135137D02*
X174018152Y-160535137D01*
X141652824Y-186109668D02*
X141050744Y-186109668D01*
X183893154Y-111255133D02*
X183643155Y-111005134D01*
D65*
X145243157Y-102905133D02*
X145592853Y-102905136D01*
D66*
X175047150Y-142564133D02*
X174018153Y-141535135D01*
X181103151Y-157145134D02*
X183893152Y-154355134D01*
X174618153Y-161812663D02*
X174618154Y-161135137D01*
X170743153Y-110655134D02*
X172818153Y-112730137D01*
X166993203Y-106246478D02*
X166993203Y-104964968D01*
X180567204Y-149005135D02*
X176284447Y-149005134D01*
X174225682Y-162205133D02*
X174618153Y-161812663D01*
X141875664Y-186332507D02*
X141652824Y-186109668D01*
X173476864Y-112730138D02*
X166993203Y-106246478D01*
X183893153Y-135355133D02*
X183893153Y-130255133D01*
X181103154Y-119145133D02*
X183893156Y-116355135D01*
X183893156Y-116355135D02*
X183893154Y-111255133D01*
X174018149Y-112730137D02*
X173476864Y-112730138D01*
X175047156Y-123564136D02*
X174018158Y-122535132D01*
X181103152Y-158645134D02*
X178184154Y-161564135D01*
X178184154Y-161564135D02*
X175047150Y-161564131D01*
X183643153Y-130005132D02*
X180821204Y-130005133D01*
X146195468Y-198726055D02*
X143977279Y-200944250D01*
X172818156Y-131730134D02*
X174018153Y-131730134D01*
X181103156Y-157145136D02*
X181103152Y-158645134D01*
X131805843Y-194859597D02*
X134740334Y-194859597D01*
X175047150Y-161564131D02*
X174018152Y-160535137D01*
X165548890Y-160007135D02*
X167746888Y-162205133D01*
X172818153Y-112730137D02*
X174018149Y-112730137D01*
X180567203Y-144947188D02*
X178184150Y-142564135D01*
X176284447Y-149005134D02*
X174559442Y-150730140D01*
X178184155Y-123564138D02*
X175047156Y-123564136D01*
X134740334Y-194859597D02*
X135588865Y-194011064D01*
X143977279Y-200944250D02*
X142522046Y-200944246D01*
X181103150Y-138145133D02*
X181103153Y-139645133D01*
X145134806Y-193537304D02*
X143667039Y-192069538D01*
X170743156Y-129655136D02*
X172818156Y-131730134D01*
X183893153Y-130255133D02*
X183643153Y-130005132D01*
X176284448Y-130005133D02*
X174559447Y-131730136D01*
X180567204Y-149005135D02*
X180567203Y-144947188D01*
X181103151Y-120645136D02*
X178184155Y-123564138D01*
D65*
X146918457Y-103630135D02*
X147413459Y-103135132D01*
D66*
X137362788Y-189797628D02*
X137362785Y-192237144D01*
X143667038Y-188123882D02*
X141875664Y-186332507D01*
X170743154Y-148655133D02*
X172818154Y-150730131D01*
X181103155Y-119145131D02*
X181103151Y-120645136D01*
X183643155Y-111005134D02*
X176284450Y-111005133D01*
X176284450Y-111005133D02*
X174559448Y-112730137D01*
X137362785Y-192237144D02*
X135588865Y-194011064D01*
X181103155Y-138145132D02*
X183893153Y-135355133D01*
X143743203Y-184464967D02*
X143743203Y-183147195D01*
X146195464Y-194597969D02*
X146195468Y-198726055D01*
X143743203Y-183147195D02*
X154240155Y-172650244D01*
X172818154Y-150730131D02*
X174018152Y-150730140D01*
X183643154Y-149005134D02*
X180567204Y-149005135D01*
X183893152Y-154355134D02*
X183893153Y-149255134D01*
X174559442Y-150730140D02*
X174018152Y-150730140D01*
X177493204Y-142564134D02*
X175047150Y-142564133D01*
X174559447Y-131730136D02*
X174018153Y-131730134D01*
X174559448Y-112730137D02*
X174018149Y-112730137D01*
X154240154Y-160768658D02*
X155001677Y-160007136D01*
X167746888Y-162205133D02*
X174225682Y-162205133D01*
X181103153Y-139645133D02*
X178184150Y-142564135D01*
X183893153Y-149255134D02*
X183643154Y-149005134D01*
X143667039Y-192069538D02*
X143667038Y-188123882D01*
X154240155Y-172650244D02*
X154240154Y-160768658D01*
X178184150Y-142564135D02*
X177493204Y-142564134D01*
X141875664Y-186332507D02*
X143743203Y-184464967D01*
D65*
X145592853Y-102905136D02*
X146317844Y-103630130D01*
D66*
X180821204Y-130005133D02*
X180821205Y-126201187D01*
D65*
X147413459Y-103135132D02*
X153188153Y-103135133D01*
X146317844Y-103630130D02*
X146918457Y-103630135D01*
D66*
X141050744Y-186109668D02*
X137362788Y-189797628D01*
%TO.N,col2*%
X199363204Y-126005138D02*
X195284450Y-126005136D01*
X202643156Y-126005136D02*
X199363204Y-126005138D01*
D65*
X146918459Y-106170135D02*
X147413463Y-105675135D01*
D66*
X195284450Y-126005136D02*
X193559451Y-127730135D01*
X191818155Y-108730133D02*
X193018155Y-108730132D01*
X183743203Y-165464968D02*
X183743203Y-165214967D01*
X202893155Y-131355138D02*
X202893155Y-126255137D01*
X200103153Y-115145137D02*
X202893155Y-112355137D01*
X162609693Y-175742414D02*
X161095365Y-174228084D01*
X197184155Y-138564139D02*
X194047150Y-138564136D01*
D65*
X146317849Y-106170135D02*
X146918459Y-106170135D01*
D66*
X200103155Y-134145138D02*
X202893155Y-131355138D01*
X202893155Y-112355137D02*
X202893153Y-107255136D01*
X158756067Y-174228083D02*
X154078903Y-178905249D01*
X163359697Y-183645259D02*
X162291262Y-187632686D01*
X193559444Y-146730134D02*
X193018156Y-146730133D01*
X193559452Y-108730133D02*
X193018155Y-108730132D01*
X189743151Y-125655134D02*
X191818149Y-127730135D01*
X195284448Y-145005131D02*
X193559444Y-146730134D01*
X200103152Y-134145137D02*
X200103153Y-135645133D01*
X199493204Y-140873190D02*
X197184155Y-138564139D01*
X191818149Y-127730135D02*
X193018155Y-127730136D01*
X199493204Y-145005130D02*
X199493204Y-140873190D01*
X197184151Y-157564132D02*
X196493203Y-157564132D01*
X195284448Y-107005136D02*
X193559452Y-108730133D01*
X191818154Y-146730137D02*
X193018156Y-146730133D01*
X202643153Y-145005131D02*
X199493204Y-145005130D01*
D65*
X145592849Y-105445136D02*
X146317849Y-106170135D01*
D66*
X199363204Y-126005138D02*
X199363203Y-121743182D01*
X197184154Y-119564132D02*
X194047154Y-119564135D01*
X202893152Y-150355131D02*
X202893155Y-145255130D01*
X193559451Y-127730135D02*
X193018155Y-127730136D01*
X193618155Y-157135134D02*
X193018158Y-156535135D01*
X159574541Y-189201188D02*
X158168902Y-188824544D01*
X154078903Y-179520668D02*
X153266404Y-180333167D01*
X200103149Y-154645136D02*
X197184151Y-157564132D01*
X199363203Y-121743182D02*
X197184154Y-119564132D01*
X149392671Y-180173664D02*
X152227173Y-180933168D01*
X193618153Y-157812662D02*
X193618155Y-157135134D01*
X202643153Y-107005135D02*
X195284448Y-107005136D01*
X194047153Y-157564135D02*
X193018158Y-156535135D01*
X162609696Y-182346218D02*
X162609693Y-175742414D01*
X202893155Y-145255130D02*
X202643153Y-145005131D01*
X152227173Y-180933168D02*
X153266404Y-180333167D01*
X194047150Y-138564136D02*
X193018153Y-137535138D01*
X200103154Y-116645134D02*
X197184154Y-119564132D01*
D65*
X147413463Y-105675135D02*
X153188148Y-105675136D01*
D66*
X200103151Y-153145130D02*
X200103149Y-154645136D01*
X193266682Y-158164131D02*
X193618153Y-157812662D01*
X200103152Y-153145131D02*
X202893152Y-150355131D01*
X189743151Y-106655137D02*
X191818155Y-108730133D01*
D65*
X145243152Y-105445137D02*
X145592849Y-105445136D01*
D66*
X200103153Y-135645133D02*
X197184155Y-138564139D01*
X154078903Y-178905249D02*
X154078903Y-179520668D01*
X194047154Y-119564135D02*
X193018150Y-118535133D01*
X189743154Y-144655136D02*
X191818154Y-146730137D01*
X202893153Y-107255136D02*
X202643153Y-107005135D01*
X202893155Y-126255137D02*
X202643156Y-126005136D01*
X200103156Y-115145136D02*
X200103154Y-116645134D01*
X199493204Y-145005130D02*
X195284448Y-145005131D01*
X183743203Y-165214967D02*
X190794038Y-158164132D01*
X162291262Y-187632686D02*
X159574541Y-189201188D01*
X196493203Y-157564132D02*
X194047153Y-157564135D01*
X190794038Y-158164132D02*
X193266682Y-158164131D01*
X161095365Y-174228084D02*
X158756067Y-174228083D01*
X162609694Y-182346218D02*
X163359697Y-183645259D01*
%TO.N,col3*%
X219103152Y-126645134D02*
X216184154Y-129564139D01*
X214284450Y-117005138D02*
X212559453Y-118730134D01*
X213047153Y-148564132D02*
X212018156Y-147535135D01*
D65*
X145243149Y-113065133D02*
X145592846Y-113065136D01*
D66*
X212559441Y-99730137D02*
X212018153Y-99730136D01*
X208743153Y-116655134D02*
X210818152Y-118730138D01*
X153418150Y-113246471D02*
X154386647Y-114214967D01*
X219103156Y-106145135D02*
X219103156Y-107645134D01*
X221643151Y-98005132D02*
X214284446Y-98005131D01*
X203208324Y-162214967D02*
X215743203Y-149680088D01*
X219103149Y-144145136D02*
X219103155Y-145645138D01*
X177839086Y-167780098D02*
X173925939Y-171693247D01*
X217651204Y-112088135D02*
X216127205Y-110564135D01*
X210818154Y-137730133D02*
X212018154Y-137730138D01*
X183768540Y-174642287D02*
X183768540Y-168628763D01*
X213047156Y-110564135D02*
X212018152Y-109535134D01*
X216184156Y-148564134D02*
X215743203Y-148564136D01*
X183768540Y-168628763D02*
X182919875Y-167780099D01*
X215743203Y-149680088D02*
X215743203Y-148564136D01*
X182354887Y-176055931D02*
X182743119Y-177504825D01*
D65*
X147413457Y-113295135D02*
X153188154Y-113295136D01*
D66*
X223806150Y-138168139D02*
X221643151Y-136005138D01*
X217993203Y-136005140D02*
X216251855Y-136005141D01*
X208743153Y-97655135D02*
X210818156Y-99730135D01*
X221533373Y-117005138D02*
X217651203Y-117005137D01*
X170150523Y-170536590D02*
X172691866Y-172003835D01*
X215743203Y-148564136D02*
X213047153Y-148564132D01*
X208493149Y-97905134D02*
X208743151Y-97655131D01*
X155540155Y-161307137D02*
X164769609Y-170536591D01*
D65*
X145592846Y-113065136D02*
X146317847Y-113790139D01*
D66*
X154386647Y-114214967D02*
X163493204Y-114214967D01*
X210818156Y-99730135D02*
X212018153Y-99730136D01*
X223806150Y-141241405D02*
X223806150Y-138168139D01*
X153418149Y-113065135D02*
X153418150Y-113246471D01*
X217651203Y-117005137D02*
X217651204Y-112088135D01*
X216251855Y-136005141D02*
X214526858Y-137730138D01*
D65*
X146918457Y-113790135D02*
X147413457Y-113295135D01*
D66*
X219103156Y-107645134D02*
X216184152Y-110564135D01*
X221893155Y-117364918D02*
X221533373Y-117005138D01*
X219103155Y-145645138D02*
X216184156Y-148564134D01*
X219103150Y-125145138D02*
X219103152Y-126645134D01*
X182354893Y-176055935D02*
X183768540Y-174642287D01*
X221893153Y-103355133D02*
X221893151Y-98255132D01*
X213047154Y-129564137D02*
X212018158Y-128535136D01*
X221643151Y-136005138D02*
X217993203Y-136005140D01*
X182919875Y-167780099D02*
X188485009Y-162214968D01*
D65*
X146317847Y-113790139D02*
X146918457Y-113790135D01*
D66*
X165553037Y-97905134D02*
X208493149Y-97905134D01*
X188485009Y-162214968D02*
X203208324Y-162214967D01*
X210818152Y-118730138D02*
X212018150Y-118730133D01*
X216184152Y-110564135D02*
X216127205Y-110564135D01*
X172691866Y-172003835D02*
X173850976Y-171693247D01*
X180679070Y-181079854D02*
X177648959Y-181891769D01*
X217651203Y-117005137D02*
X214284450Y-117005138D01*
X216184154Y-129564139D02*
X213047154Y-129564137D01*
X220902416Y-144145141D02*
X223806150Y-141241405D01*
X221893154Y-122355138D02*
X221893155Y-117364918D01*
X214284446Y-98005131D02*
X212559441Y-99730137D01*
X217993203Y-136005140D02*
X217993204Y-131373190D01*
X219103153Y-144145140D02*
X220902416Y-144145141D01*
X216127205Y-110564135D02*
X213047156Y-110564135D01*
X177648959Y-181891769D02*
X176388699Y-181164155D01*
X163493203Y-99964968D02*
X165553037Y-97905134D01*
X221893151Y-98255132D02*
X221643151Y-98005132D01*
X164769609Y-170536591D02*
X170150526Y-170536590D01*
X178493203Y-167780099D02*
X177839086Y-167780098D01*
X163493204Y-114214967D02*
X163493203Y-99964968D01*
X217993204Y-131373190D02*
X216184154Y-129564139D01*
X173925939Y-171693247D02*
X173850976Y-171693247D01*
X212559453Y-118730134D02*
X212018150Y-118730133D01*
X182919875Y-167780099D02*
X178493203Y-167780099D01*
X182743119Y-177504825D02*
X180679070Y-181079854D01*
X214526858Y-137730138D02*
X212018154Y-137730138D01*
X219103151Y-106145131D02*
X221893153Y-103355133D01*
X208743153Y-135655135D02*
X210818154Y-137730133D01*
X219103155Y-125145138D02*
X221893154Y-122355138D01*
%TO.N,col4*%
X242547475Y-132666068D02*
X242547474Y-128457368D01*
X229941419Y-159206886D02*
X230181720Y-159447186D01*
X232884585Y-139965244D02*
X231929871Y-138866970D01*
X240454824Y-118522083D02*
X237339316Y-121230355D01*
X233356077Y-146663051D02*
X231979555Y-148039573D01*
X239234088Y-135979455D02*
X239129450Y-137475799D01*
X241222099Y-151619788D02*
X241222099Y-147411089D01*
X202453036Y-164755137D02*
X187453034Y-164755137D01*
X241222099Y-147411089D02*
X240474062Y-146663050D01*
X234688570Y-159137788D02*
X231559215Y-158918964D01*
X162993204Y-162964967D02*
X166243203Y-166214968D01*
X198476862Y-168680129D02*
X207950105Y-159206886D01*
X234630297Y-110132141D02*
X233939201Y-110132140D01*
X231132720Y-159095714D02*
X231132720Y-158348915D01*
X233304927Y-129085857D02*
X232613829Y-129085856D01*
X162993203Y-160714967D02*
X162993204Y-162964967D01*
X230181720Y-159447186D02*
X230781249Y-159447186D01*
X237743203Y-146663051D02*
X237743205Y-141932623D01*
X241799435Y-127709331D02*
X240257204Y-127709331D01*
X231979555Y-148039573D02*
X231288458Y-148039573D01*
X230781249Y-159447186D02*
X231132720Y-159095714D01*
X242547474Y-128457368D02*
X241799435Y-127709331D01*
X239234089Y-135979452D02*
X242547475Y-132666068D01*
X239129450Y-137475799D02*
X236013945Y-140184073D01*
X237743203Y-146663051D02*
X233356077Y-146663051D01*
X200134152Y-179514137D02*
X196997155Y-179514133D01*
X228166184Y-145741171D02*
X230091382Y-147955867D01*
X237908713Y-154933171D02*
X237804081Y-156429520D01*
X162993204Y-158464966D02*
X162993203Y-122964967D01*
X195968151Y-168680129D02*
X198476862Y-168680129D01*
D65*
X147413455Y-115835134D02*
X153188150Y-115835138D01*
D66*
X243872844Y-109503652D02*
X243084159Y-108714967D01*
X231416756Y-129002149D02*
X232613829Y-129085856D01*
D65*
X146918455Y-116330136D02*
X147413455Y-115835134D01*
D66*
X234209957Y-121011531D02*
X233255244Y-119913255D01*
X234681450Y-127709331D02*
X233304927Y-129085857D01*
X240474062Y-146663050D02*
X237743203Y-146663051D01*
X243084159Y-108714967D02*
X236047470Y-108714967D01*
X221466995Y-145741176D02*
X202453036Y-164755137D01*
X196997155Y-179514133D02*
X195968153Y-178485134D01*
X229491556Y-126787457D02*
X231416756Y-129002149D01*
X230816929Y-107833737D02*
X232742130Y-110048433D01*
X237908714Y-154933172D02*
X241222099Y-151619788D01*
X237743205Y-141932623D02*
X235993204Y-140182621D01*
X237804081Y-156429520D02*
X234688570Y-159137788D01*
X231132720Y-158348915D02*
X230604497Y-157820691D01*
X203053149Y-176595132D02*
X200134152Y-179514137D01*
X192693151Y-166605136D02*
X194768154Y-168680137D01*
X166243203Y-166214968D02*
X172243204Y-166214967D01*
X230091382Y-147955867D02*
X231288458Y-148039573D01*
X187453034Y-164755137D02*
X186493203Y-165714968D01*
X235993204Y-140182621D02*
X232884585Y-139965244D01*
X231559215Y-158918964D02*
X230604497Y-157820691D01*
X240257204Y-124148242D02*
X237339316Y-121230355D01*
X240559459Y-117025737D02*
X243872844Y-113712352D01*
X240257204Y-127709331D02*
X234681450Y-127709331D01*
X243872844Y-113712352D02*
X243872844Y-109503652D01*
X236013945Y-140184073D02*
X235993204Y-140182621D01*
D65*
X146317850Y-116330132D02*
X146918455Y-116330136D01*
D66*
X240257204Y-127709331D02*
X240257204Y-124148242D01*
X236047470Y-108714967D02*
X234630297Y-110132141D01*
X207950105Y-159206886D02*
X229941419Y-159206886D01*
X203053156Y-175095135D02*
X203053149Y-176595132D01*
X240559456Y-117025736D02*
X240454824Y-118522083D01*
D65*
X145243153Y-115605138D02*
X145592850Y-115605135D01*
D66*
X194768154Y-168680137D02*
X195968151Y-168680129D01*
D65*
X145592850Y-115605135D02*
X146317850Y-116330132D01*
D66*
X232742130Y-110048433D02*
X233939201Y-110132140D01*
X237339316Y-121230355D02*
X234209957Y-121011531D01*
X228166181Y-145741176D02*
X221466995Y-145741176D01*
%TO.N,col5*%
X256513204Y-138346967D02*
X258399067Y-136461103D01*
X253312737Y-122099163D02*
X254995893Y-124502957D01*
X257021203Y-156634967D02*
X255159741Y-154773506D01*
X250013421Y-140810511D02*
X252476965Y-138346968D01*
X259512603Y-165611708D02*
X259512601Y-162515296D01*
X258741758Y-150970524D02*
X259181292Y-148477794D01*
X251800440Y-173526860D02*
X248711097Y-172982121D01*
X258399067Y-136461103D02*
X258399069Y-136104160D01*
X258741758Y-150970526D02*
X258481284Y-152447735D01*
X244272844Y-109337966D02*
X238455696Y-103520817D01*
X261780602Y-133736385D02*
X258399069Y-136104160D01*
X238455696Y-103520817D02*
X227187354Y-103520817D01*
X255309725Y-135559428D02*
X254475043Y-134367377D01*
X259512601Y-162515296D02*
X258272678Y-161275370D01*
D65*
X145243152Y-118145132D02*
X145592852Y-118145135D01*
D66*
X255442440Y-169681867D02*
X259512603Y-165611708D01*
X255442439Y-169681869D02*
X255181967Y-171159084D01*
X258399069Y-136104160D02*
X255309725Y-135559428D01*
X255181967Y-171159084D02*
X251800440Y-173526860D01*
X248397263Y-161925653D02*
X249579034Y-162134031D01*
X164743204Y-99714967D02*
X164243204Y-100214968D01*
D65*
X146317844Y-118870135D02*
X146918461Y-118870130D01*
D66*
X257021205Y-161275372D02*
X257021203Y-156634967D01*
X204783370Y-113005131D02*
X203293154Y-111514917D01*
X250013426Y-140810509D02*
X251696579Y-143214308D01*
X203293154Y-111514917D02*
X203293153Y-107089450D01*
X215703039Y-113005133D02*
X204783370Y-113005131D01*
X251370830Y-161275372D02*
X250512168Y-162134030D01*
X258481284Y-152447735D02*
X255159741Y-154773506D01*
X201918671Y-105714968D02*
X201243204Y-105714968D01*
D65*
X145592852Y-118145135D02*
X146317844Y-118870135D01*
D66*
X255159741Y-154773506D02*
X255099756Y-154815509D01*
X161663037Y-119295133D02*
X153663202Y-119295135D01*
X257021205Y-161275372D02*
X251370830Y-161275372D01*
X250512168Y-162134030D02*
X249579034Y-162134031D01*
X153663202Y-119295135D02*
X153418149Y-119050082D01*
X255099756Y-154815509D02*
X252010412Y-154270773D01*
X252010412Y-154270773D02*
X251175727Y-153078724D01*
X252476965Y-138346968D02*
X256513204Y-138346967D01*
X227187354Y-103520817D02*
X218993205Y-111714968D01*
X262480606Y-129766447D02*
X263310747Y-129185179D01*
X251696579Y-143214308D02*
X252878351Y-143422686D01*
X248711097Y-172982121D02*
X247876412Y-171790072D01*
X258272678Y-161275370D02*
X257021205Y-161275372D01*
X215993203Y-112714967D02*
X215703039Y-113005133D01*
X254995893Y-124502957D02*
X256177661Y-124711333D01*
X250013421Y-140810511D02*
X244272844Y-135069933D01*
X246714107Y-159521858D02*
X248397263Y-161925653D01*
X262041072Y-132259178D02*
X262480606Y-129766447D01*
X262041070Y-132259176D02*
X261780602Y-133736385D01*
X164243203Y-116714968D02*
X161663037Y-119295133D01*
X164243204Y-100214968D02*
X164243203Y-116714968D01*
X244272844Y-135069933D02*
X244272844Y-109337966D01*
D65*
X147413460Y-118375135D02*
X153188151Y-118375135D01*
D66*
X203293153Y-107089450D02*
X201918671Y-105714968D01*
X153418149Y-119050082D02*
X153418148Y-118145134D01*
X259181292Y-148477794D02*
X260011430Y-147896525D01*
D65*
X146918461Y-118870130D02*
X147413460Y-118375135D01*
%TO.N,col6*%
D66*
X271380025Y-171902135D02*
X268290685Y-171357399D01*
X276908333Y-167747318D02*
X276908333Y-164470009D01*
X275022031Y-168057147D02*
X276598504Y-168057148D01*
X267976850Y-160300931D02*
X269158620Y-160509309D01*
X269593013Y-139185787D02*
X271276168Y-141589583D01*
D65*
X146918459Y-121410138D02*
X147413460Y-120915135D01*
X146317849Y-121410135D02*
X146918459Y-121410138D01*
D66*
X278321346Y-149345802D02*
X278804293Y-146606870D01*
X278321344Y-149345794D02*
X278060874Y-150823012D01*
X275022030Y-168057145D02*
X274761556Y-169534360D01*
D65*
X145243149Y-120685136D02*
X145592853Y-120685138D01*
D66*
X268571860Y-155618967D02*
X274293204Y-155618967D01*
X165493203Y-120214967D02*
X163873036Y-121835135D01*
X278060874Y-150823012D02*
X274679343Y-153190788D01*
X278804293Y-146606870D02*
X279924044Y-145822810D01*
X276598504Y-168057148D02*
X276908333Y-167747318D01*
X271276168Y-141589583D02*
X272457935Y-141797960D01*
X274293203Y-153576925D02*
X274679343Y-153190788D01*
X268290685Y-171357399D02*
X267456000Y-170165344D01*
X153418150Y-120866474D02*
X153418150Y-120685136D01*
X163873036Y-121835135D02*
X154386811Y-121835133D01*
X274761556Y-169534360D02*
X271380025Y-171902135D01*
X154386811Y-121835133D02*
X153418150Y-120866474D01*
X266293694Y-157897133D02*
X268571860Y-155618967D01*
D65*
X147413460Y-120915135D02*
X153188151Y-120915134D01*
D66*
X271589997Y-152646055D02*
X270755316Y-151453999D01*
X274679343Y-153190788D02*
X271589997Y-152646055D01*
D65*
X145592853Y-120685138D02*
X146317849Y-121410135D01*
D66*
X274293204Y-155618967D02*
X274293203Y-153576925D01*
X165743203Y-98964968D02*
X165493205Y-99214968D01*
X266293695Y-157897134D02*
X267976850Y-160300931D01*
X165493205Y-99214968D02*
X165493203Y-120214967D01*
%TD*%
%TA.AperFunction,Conductor*%
%TO.N,GND*%
G36*
X159868786Y-97825319D02*
G01*
X159914541Y-97878123D01*
X159925747Y-97929472D01*
X159937570Y-106976380D01*
X159945706Y-113203016D01*
X159946082Y-113490305D01*
X159926485Y-113557370D01*
X159873741Y-113603194D01*
X159822082Y-113614467D01*
X159050330Y-113614467D01*
X158983291Y-113594782D01*
X158937536Y-113541978D01*
X158927592Y-113472820D01*
X158932399Y-113452149D01*
X158955395Y-113381376D01*
X158988649Y-113171420D01*
X158988649Y-112958846D01*
X158955395Y-112748890D01*
X158889706Y-112546721D01*
X158793200Y-112357317D01*
X158793198Y-112357314D01*
X158793197Y-112357312D01*
X158668258Y-112185346D01*
X158517935Y-112035023D01*
X158345966Y-111910082D01*
X158337203Y-111905617D01*
X158286407Y-111857642D01*
X158269613Y-111789821D01*
X158292151Y-111723686D01*
X158337204Y-111684648D01*
X158345964Y-111680185D01*
X158400764Y-111640371D01*
X158517934Y-111555243D01*
X158517936Y-111555240D01*
X158517940Y-111555238D01*
X158668252Y-111404926D01*
X158668254Y-111404922D01*
X158668257Y-111404920D01*
X158793196Y-111232954D01*
X158793195Y-111232954D01*
X158793199Y-111232950D01*
X158889705Y-111043546D01*
X158955394Y-110841377D01*
X158988648Y-110631421D01*
X158988648Y-110418847D01*
X158955394Y-110208891D01*
X158889705Y-110006722D01*
X158793199Y-109817318D01*
X158793197Y-109817315D01*
X158793196Y-109817313D01*
X158668257Y-109645347D01*
X158517934Y-109495024D01*
X158345965Y-109370083D01*
X158337202Y-109365618D01*
X158286406Y-109317643D01*
X158269612Y-109249822D01*
X158292150Y-109183687D01*
X158337203Y-109144649D01*
X158345965Y-109140185D01*
X158402818Y-109098879D01*
X158517935Y-109015243D01*
X158517937Y-109015240D01*
X158517941Y-109015238D01*
X158668253Y-108864926D01*
X158668255Y-108864922D01*
X158668258Y-108864920D01*
X158793197Y-108692954D01*
X158793199Y-108692951D01*
X158793200Y-108692950D01*
X158889706Y-108503546D01*
X158955395Y-108301377D01*
X158988649Y-108091421D01*
X158988649Y-107878847D01*
X158955395Y-107668891D01*
X158889706Y-107466722D01*
X158793200Y-107277318D01*
X158793198Y-107277315D01*
X158793197Y-107277313D01*
X158668258Y-107105347D01*
X158517935Y-106955024D01*
X158345964Y-106830082D01*
X158345961Y-106830080D01*
X158337199Y-106825615D01*
X158286405Y-106777639D01*
X158269612Y-106709817D01*
X158292152Y-106643683D01*
X158337206Y-106604647D01*
X158345966Y-106600184D01*
X158345968Y-106600182D01*
X158345971Y-106600181D01*
X158517936Y-106475242D01*
X158517938Y-106475239D01*
X158517942Y-106475237D01*
X158668254Y-106324925D01*
X158668256Y-106324921D01*
X158668259Y-106324919D01*
X158793198Y-106152953D01*
X158793197Y-106152953D01*
X158793201Y-106152949D01*
X158889707Y-105963545D01*
X158955396Y-105761376D01*
X158988650Y-105551420D01*
X158988650Y-105338846D01*
X158955396Y-105128890D01*
X158889707Y-104926721D01*
X158793201Y-104737317D01*
X158793199Y-104737314D01*
X158793198Y-104737312D01*
X158668259Y-104565346D01*
X158517936Y-104415023D01*
X158345967Y-104290082D01*
X158337204Y-104285617D01*
X158286408Y-104237642D01*
X158269614Y-104169821D01*
X158292152Y-104103686D01*
X158337205Y-104064648D01*
X158345965Y-104060185D01*
X158389064Y-104028872D01*
X158517935Y-103935243D01*
X158517937Y-103935240D01*
X158517941Y-103935238D01*
X158668253Y-103784926D01*
X158668255Y-103784922D01*
X158668258Y-103784920D01*
X158793197Y-103612954D01*
X158793196Y-103612954D01*
X158793200Y-103612950D01*
X158889706Y-103423546D01*
X158955395Y-103221377D01*
X158988649Y-103011421D01*
X158988649Y-102798847D01*
X158955395Y-102588891D01*
X158889706Y-102386722D01*
X158793200Y-102197318D01*
X158793198Y-102197315D01*
X158793197Y-102197313D01*
X158668258Y-102025347D01*
X158517935Y-101875024D01*
X158345969Y-101750085D01*
X158156563Y-101653578D01*
X158156562Y-101653577D01*
X158156561Y-101653577D01*
X157954392Y-101587888D01*
X157954390Y-101587887D01*
X157954389Y-101587887D01*
X157793106Y-101562342D01*
X157744436Y-101554634D01*
X157531862Y-101554634D01*
X157483191Y-101562342D01*
X157321909Y-101587887D01*
X157119734Y-101653578D01*
X156930328Y-101750085D01*
X156758364Y-101875023D01*
X156620136Y-102013251D01*
X156558813Y-102046735D01*
X156489121Y-102041751D01*
X156433188Y-101999879D01*
X156428140Y-101992609D01*
X156400181Y-101949104D01*
X156400177Y-101949100D01*
X156291448Y-101854885D01*
X156291446Y-101854883D01*
X156291443Y-101854881D01*
X156291439Y-101854879D01*
X156160568Y-101795111D01*
X156160563Y-101795110D01*
X156018149Y-101774635D01*
X155768149Y-101774635D01*
X155768143Y-101774635D01*
X155754922Y-101774894D01*
X155748309Y-101775024D01*
X155748304Y-101775024D01*
X155635283Y-101795831D01*
X155594719Y-101793746D01*
X155594342Y-101796371D01*
X155585565Y-101795109D01*
X155443149Y-101774633D01*
X154293149Y-101774633D01*
X154293136Y-101774633D01*
X154260411Y-101776973D01*
X154232246Y-101770845D01*
X154203592Y-101767632D01*
X154196936Y-101763162D01*
X154192139Y-101762119D01*
X154173321Y-101749483D01*
X154168384Y-101745467D01*
X154117192Y-101694275D01*
X154056283Y-101653577D01*
X154014746Y-101625822D01*
X154014747Y-101625822D01*
X154014745Y-101625821D01*
X153985905Y-101613876D01*
X153957065Y-101601930D01*
X153900911Y-101578670D01*
X153900907Y-101578669D01*
X153900903Y-101578668D01*
X153820164Y-101562608D01*
X153820161Y-101562608D01*
X153780069Y-101554633D01*
X153780067Y-101554633D01*
X153780065Y-101554633D01*
X153179456Y-101554633D01*
X153056242Y-101554633D01*
X153056238Y-101554633D01*
X153005384Y-101564748D01*
X153005379Y-101564749D01*
X152995820Y-101566651D01*
X152935397Y-101578670D01*
X152888246Y-101598200D01*
X152821564Y-101625821D01*
X152821563Y-101625822D01*
X152799196Y-101640766D01*
X152799193Y-101640768D01*
X152719117Y-101694273D01*
X152675554Y-101737836D01*
X152631991Y-101781400D01*
X152631988Y-101781403D01*
X152390076Y-102023314D01*
X152328753Y-102056799D01*
X152302395Y-102059633D01*
X146954725Y-102059633D01*
X146907277Y-102050196D01*
X146880821Y-102039239D01*
X146880815Y-102039237D01*
X146706845Y-102004632D01*
X146706843Y-102004632D01*
X146529461Y-102004632D01*
X146529458Y-102004632D01*
X146355488Y-102039236D01*
X146355484Y-102039238D01*
X146315086Y-102055971D01*
X146245616Y-102063438D01*
X146183137Y-102032162D01*
X146163321Y-102008449D01*
X146140986Y-101973695D01*
X146125182Y-101949103D01*
X146125177Y-101949098D01*
X146016448Y-101854883D01*
X146016446Y-101854881D01*
X146016443Y-101854879D01*
X146016439Y-101854877D01*
X145885568Y-101795109D01*
X145885563Y-101795108D01*
X145743149Y-101774633D01*
X144593149Y-101774633D01*
X144593140Y-101774633D01*
X144469883Y-101789893D01*
X144461892Y-101791986D01*
X144461147Y-101789144D01*
X144411625Y-101795263D01*
X144268149Y-101774635D01*
X144018149Y-101774635D01*
X144018146Y-101774635D01*
X143946208Y-101779779D01*
X143808154Y-101820317D01*
X143687118Y-101898102D01*
X143687118Y-101898103D01*
X143595089Y-102004308D01*
X143536310Y-102042082D01*
X143466441Y-102042081D01*
X143413696Y-102010785D01*
X143277935Y-101875024D01*
X143105969Y-101750085D01*
X142916563Y-101653578D01*
X142916562Y-101653577D01*
X142916561Y-101653577D01*
X142714392Y-101587888D01*
X142714390Y-101587887D01*
X142714389Y-101587887D01*
X142553106Y-101562342D01*
X142504436Y-101554634D01*
X142291862Y-101554634D01*
X142243191Y-101562342D01*
X142081909Y-101587887D01*
X141879734Y-101653578D01*
X141690328Y-101750085D01*
X141518362Y-101875024D01*
X141368039Y-102025347D01*
X141243100Y-102197313D01*
X141146593Y-102386719D01*
X141080902Y-102588894D01*
X141047649Y-102798847D01*
X141047649Y-103011420D01*
X141080902Y-103221373D01*
X141146593Y-103423548D01*
X141243100Y-103612954D01*
X141368039Y-103784920D01*
X141518362Y-103935243D01*
X141690331Y-104060184D01*
X141699093Y-104064649D01*
X141749889Y-104112624D01*
X141766683Y-104180445D01*
X141744145Y-104246580D01*
X141699097Y-104285615D01*
X141690331Y-104290081D01*
X141518361Y-104415023D01*
X141368038Y-104565346D01*
X141243099Y-104737312D01*
X141146592Y-104926718D01*
X141080901Y-105128893D01*
X141057668Y-105275580D01*
X141047648Y-105338846D01*
X141047648Y-105551420D01*
X141053092Y-105585789D01*
X141076166Y-105731478D01*
X141080902Y-105761376D01*
X141146289Y-105962617D01*
X141146592Y-105963547D01*
X141243099Y-106152953D01*
X141368038Y-106324919D01*
X141387729Y-106344610D01*
X141421214Y-106405933D01*
X141416230Y-106475625D01*
X141387729Y-106519972D01*
X139812490Y-108095212D01*
X139700685Y-108207016D01*
X139700683Y-108207019D01*
X139650565Y-108293828D01*
X139650563Y-108293830D01*
X139621629Y-108343943D01*
X139621628Y-108343944D01*
X139615389Y-108367230D01*
X139580703Y-108496677D01*
X139580703Y-108496679D01*
X139580703Y-152016870D01*
X139561018Y-152083909D01*
X139544384Y-152104551D01*
X135744558Y-155904376D01*
X135744551Y-155904383D01*
X135633635Y-156015301D01*
X135633634Y-156015302D01*
X135629640Y-156019295D01*
X135629638Y-156019298D01*
X135550580Y-156156228D01*
X135550580Y-156156229D01*
X135509656Y-156308957D01*
X135509656Y-156308959D01*
X135509656Y-156474666D01*
X135509657Y-156474683D01*
X135509657Y-157630003D01*
X135489972Y-157697042D01*
X135488759Y-157698893D01*
X135400771Y-157830576D01*
X135400761Y-157830594D01*
X135340423Y-157976265D01*
X135340420Y-157976277D01*
X135309659Y-158130920D01*
X135309659Y-158288613D01*
X135340420Y-158443256D01*
X135340423Y-158443268D01*
X135400761Y-158588939D01*
X135400768Y-158588952D01*
X135488760Y-158720640D01*
X135509638Y-158787317D01*
X135509658Y-158789531D01*
X135509658Y-160622345D01*
X135505462Y-160636632D01*
X135506180Y-160651507D01*
X135495817Y-160669481D01*
X135489973Y-160689384D01*
X135478133Y-160700153D01*
X135471282Y-160712037D01*
X135451329Y-160724535D01*
X135442544Y-160732526D01*
X135435940Y-160735935D01*
X135367827Y-160761340D01*
X135325803Y-160792798D01*
X135316628Y-160797536D01*
X135292045Y-160802289D01*
X135268586Y-160811039D01*
X135258333Y-160808808D01*
X135248029Y-160810801D01*
X135224774Y-160801507D01*
X135200314Y-160796186D01*
X135185432Y-160786622D01*
X135152254Y-160761785D01*
X135017537Y-160711538D01*
X135017533Y-160711537D01*
X134958005Y-160705136D01*
X134660161Y-160705136D01*
X134660161Y-163255136D01*
X134957989Y-163255136D01*
X134958005Y-163255135D01*
X135017533Y-163248734D01*
X135017537Y-163248733D01*
X135152252Y-163198487D01*
X135185429Y-163173650D01*
X135250892Y-163149231D01*
X135316630Y-163162734D01*
X135325791Y-163167464D01*
X135367827Y-163198932D01*
X135435948Y-163224339D01*
X135442544Y-163227745D01*
X135462661Y-163246951D01*
X135484922Y-163263615D01*
X135487579Y-163270739D01*
X135493081Y-163275992D01*
X135499621Y-163303023D01*
X135509340Y-163329079D01*
X135509656Y-163337926D01*
X135509656Y-165872343D01*
X135489971Y-165939382D01*
X135437167Y-165985137D01*
X135428989Y-165988525D01*
X135367828Y-166011336D01*
X135367822Y-166011339D01*
X135334050Y-166036621D01*
X135268585Y-166061037D01*
X135200313Y-166046184D01*
X135185431Y-166036620D01*
X135152253Y-166011783D01*
X135017536Y-165961536D01*
X135017532Y-165961535D01*
X134958004Y-165955134D01*
X134660160Y-165955134D01*
X134660160Y-168505134D01*
X134957988Y-168505134D01*
X134958004Y-168505133D01*
X135017532Y-168498732D01*
X135017536Y-168498731D01*
X135152251Y-168448485D01*
X135185428Y-168423648D01*
X135250891Y-168399229D01*
X135319165Y-168414079D01*
X135334048Y-168423643D01*
X135362885Y-168445231D01*
X135367825Y-168448929D01*
X135367828Y-168448931D01*
X135502674Y-168499225D01*
X135502673Y-168499225D01*
X135509601Y-168499969D01*
X135562284Y-168505634D01*
X136658029Y-168505633D01*
X136717640Y-168499225D01*
X136852488Y-168448930D01*
X136967703Y-168362680D01*
X137053953Y-168247465D01*
X137104248Y-168112617D01*
X137110657Y-168053007D01*
X137110656Y-166407262D01*
X137104248Y-166347651D01*
X137053953Y-166212803D01*
X137053952Y-166212802D01*
X137053950Y-166212798D01*
X136967704Y-166097589D01*
X136967701Y-166097586D01*
X136852492Y-166011340D01*
X136852487Y-166011337D01*
X136791322Y-165988524D01*
X136735389Y-165946652D01*
X136710972Y-165881188D01*
X136710656Y-165872342D01*
X136710656Y-164631134D01*
X136710656Y-163337923D01*
X136730341Y-163270888D01*
X136783145Y-163225133D01*
X136791324Y-163221745D01*
X136852484Y-163198934D01*
X136852484Y-163198933D01*
X136852489Y-163198932D01*
X136967704Y-163112682D01*
X137053954Y-162997467D01*
X137104249Y-162862619D01*
X137110658Y-162803009D01*
X137110657Y-161157264D01*
X137104249Y-161097653D01*
X137053954Y-160962805D01*
X137053953Y-160962804D01*
X137053951Y-160962800D01*
X136967705Y-160847591D01*
X136967702Y-160847588D01*
X136852493Y-160761342D01*
X136852486Y-160761338D01*
X136791325Y-160738527D01*
X136735391Y-160696656D01*
X136710974Y-160631192D01*
X136710658Y-160622345D01*
X136710658Y-158789532D01*
X136715986Y-158771386D01*
X136716324Y-158752478D01*
X136729824Y-158724259D01*
X136730343Y-158722493D01*
X136731556Y-158720640D01*
X136731942Y-158720061D01*
X136731948Y-158720056D01*
X136819553Y-158588946D01*
X136879896Y-158443264D01*
X136910659Y-158288609D01*
X136910659Y-158130925D01*
X136910659Y-158130922D01*
X136910658Y-158130920D01*
X136879897Y-157976277D01*
X136879896Y-157976270D01*
X136864057Y-157938030D01*
X136819556Y-157830594D01*
X136819549Y-157830581D01*
X136731555Y-157698890D01*
X136710677Y-157632213D01*
X136710657Y-157630104D01*
X136710657Y-156688108D01*
X136730342Y-156621070D01*
X136746971Y-156600433D01*
X137158365Y-156189039D01*
X139539654Y-156189039D01*
X139539654Y-156425234D01*
X139576600Y-156658505D01*
X139649587Y-156883133D01*
X139756811Y-157093570D01*
X139895637Y-157284647D01*
X140062644Y-157451654D01*
X140118893Y-157492521D01*
X140161557Y-157547850D01*
X140166249Y-157579679D01*
X140910745Y-158324174D01*
X140847161Y-158341212D01*
X140733147Y-158407038D01*
X140640055Y-158500130D01*
X140574229Y-158614144D01*
X140557191Y-158677728D01*
X139817494Y-157938031D01*
X139757238Y-158020967D01*
X139650051Y-158231334D01*
X139577088Y-158455889D01*
X139540154Y-158689084D01*
X139540154Y-158925189D01*
X139577088Y-159158384D01*
X139650051Y-159382939D01*
X139757241Y-159593311D01*
X139817492Y-159676241D01*
X139817494Y-159676242D01*
X140557191Y-158936545D01*
X140574229Y-159000130D01*
X140640055Y-159114144D01*
X140733147Y-159207236D01*
X140847161Y-159273062D01*
X140910744Y-159290099D01*
X140164434Y-160036408D01*
X140155259Y-160080084D01*
X140118893Y-160121752D01*
X140062644Y-160162619D01*
X139895639Y-160329624D01*
X139895639Y-160329625D01*
X139895637Y-160329627D01*
X139844550Y-160399942D01*
X139756811Y-160520703D01*
X139649587Y-160731140D01*
X139576600Y-160955768D01*
X139539654Y-161189039D01*
X139539654Y-161425234D01*
X139576600Y-161658505D01*
X139649587Y-161883133D01*
X139756811Y-162093570D01*
X139895637Y-162284647D01*
X140062644Y-162451654D01*
X140253721Y-162590480D01*
X140340653Y-162634774D01*
X140464157Y-162697703D01*
X140464159Y-162697703D01*
X140464162Y-162697705D01*
X140539113Y-162722058D01*
X140688785Y-162770690D01*
X140922057Y-162807637D01*
X140922062Y-162807637D01*
X141158251Y-162807637D01*
X141391522Y-162770690D01*
X141399253Y-162768178D01*
X141616146Y-162697705D01*
X141826587Y-162590480D01*
X142017664Y-162451654D01*
X142184671Y-162284647D01*
X142323497Y-162093570D01*
X142430722Y-161883129D01*
X142503707Y-161658505D01*
X142503708Y-161658499D01*
X142540654Y-161425234D01*
X142540654Y-161189039D01*
X142503707Y-160955768D01*
X142451855Y-160796186D01*
X142430722Y-160731145D01*
X142430720Y-160731142D01*
X142430720Y-160731140D01*
X142368716Y-160609451D01*
X142323497Y-160520704D01*
X142184671Y-160329627D01*
X142017664Y-160162620D01*
X141961413Y-160121751D01*
X141918749Y-160066421D01*
X141914056Y-160034592D01*
X141169562Y-159290099D01*
X141233147Y-159273062D01*
X141347161Y-159207236D01*
X141440253Y-159114144D01*
X141506079Y-159000130D01*
X141523116Y-158936546D01*
X142262812Y-159676242D01*
X142262812Y-159676241D01*
X142323068Y-159593306D01*
X142323072Y-159593300D01*
X142430256Y-159382939D01*
X142503219Y-159158384D01*
X142540154Y-158925189D01*
X142540154Y-158689084D01*
X142503219Y-158455889D01*
X142430256Y-158231334D01*
X142323068Y-158020965D01*
X142262812Y-157938031D01*
X142262812Y-157938030D01*
X141523116Y-158677727D01*
X141506079Y-158614144D01*
X141440253Y-158500130D01*
X141347161Y-158407038D01*
X141233147Y-158341212D01*
X141169563Y-158324174D01*
X141915870Y-157577866D01*
X141925045Y-157534191D01*
X141961411Y-157492523D01*
X142017664Y-157451654D01*
X142184671Y-157284647D01*
X142323497Y-157093570D01*
X142430722Y-156883129D01*
X142503707Y-156658505D01*
X142509636Y-156621070D01*
X142540654Y-156425234D01*
X142540654Y-156189039D01*
X142503707Y-155955768D01*
X142430720Y-155731140D01*
X142323496Y-155520703D01*
X142184671Y-155329627D01*
X142017664Y-155162620D01*
X141826587Y-155023794D01*
X141826583Y-155023792D01*
X141616150Y-154916570D01*
X141391522Y-154843583D01*
X141158251Y-154806637D01*
X141158246Y-154806637D01*
X140922062Y-154806637D01*
X140922057Y-154806637D01*
X140688785Y-154843583D01*
X140464157Y-154916570D01*
X140253720Y-155023794D01*
X140144704Y-155102999D01*
X140062644Y-155162620D01*
X140062642Y-155162622D01*
X140062641Y-155162622D01*
X139895639Y-155329624D01*
X139895639Y-155329625D01*
X139895637Y-155329627D01*
X139836016Y-155411687D01*
X139756811Y-155520703D01*
X139649587Y-155731140D01*
X139576600Y-155955768D01*
X139539654Y-156189039D01*
X137158365Y-156189039D01*
X140539709Y-152807696D01*
X140539714Y-152807692D01*
X140549917Y-152797488D01*
X140549919Y-152797488D01*
X140661723Y-152685684D01*
X140740780Y-152548752D01*
X140781703Y-152396025D01*
X140781703Y-140045264D01*
X140801388Y-139978225D01*
X140854192Y-139932470D01*
X140923350Y-139922526D01*
X140986906Y-139951551D01*
X140993379Y-139957578D01*
X141224684Y-140188882D01*
X141224685Y-140188883D01*
X141336489Y-140300687D01*
X141336491Y-140300688D01*
X141473422Y-140379745D01*
X141626150Y-140420668D01*
X141626152Y-140420668D01*
X141791861Y-140420668D01*
X141791877Y-140420667D01*
X148549905Y-140420667D01*
X148616944Y-140440352D01*
X148662699Y-140493156D01*
X148673905Y-140544667D01*
X148673904Y-141834616D01*
X148654219Y-141901656D01*
X148601415Y-141947410D01*
X148532257Y-141957354D01*
X148511586Y-141952547D01*
X148462688Y-141936659D01*
X148327898Y-141915310D01*
X148260504Y-141904636D01*
X148055800Y-141904636D01*
X148031481Y-141908487D01*
X147853617Y-141936658D01*
X147658928Y-141999917D01*
X147476538Y-142092851D01*
X147310938Y-142213164D01*
X147166180Y-142357922D01*
X147045864Y-142523525D01*
X147045863Y-142523527D01*
X146998636Y-142616215D01*
X146950662Y-142667011D01*
X146882841Y-142683806D01*
X146816706Y-142661268D01*
X146777667Y-142616215D01*
X146730440Y-142523527D01*
X146730439Y-142523524D01*
X146730437Y-142523521D01*
X146730436Y-142523519D01*
X146610123Y-142357920D01*
X146465365Y-142213162D01*
X146299765Y-142092849D01*
X146299764Y-142092848D01*
X146299762Y-142092847D01*
X146234845Y-142059770D01*
X146117375Y-141999915D01*
X145922686Y-141936656D01*
X145748147Y-141909012D01*
X145720504Y-141904634D01*
X145515800Y-141904634D01*
X145491481Y-141908485D01*
X145313617Y-141936656D01*
X145118928Y-141999915D01*
X144936538Y-142092849D01*
X144770938Y-142213162D01*
X144626180Y-142357920D01*
X144505867Y-142523520D01*
X144412933Y-142705910D01*
X144349674Y-142900599D01*
X144317652Y-143102782D01*
X144317652Y-143707485D01*
X144349674Y-143909668D01*
X144412933Y-144104357D01*
X144505867Y-144286747D01*
X144626180Y-144452347D01*
X144770938Y-144597105D01*
X144936539Y-144717420D01*
X144949943Y-144724249D01*
X145000740Y-144772222D01*
X145017651Y-144834735D01*
X145017651Y-145330816D01*
X144997966Y-145397855D01*
X144945162Y-145443610D01*
X144902497Y-145454500D01*
X144874242Y-145456520D01*
X144747827Y-145493640D01*
X144736202Y-145497054D01*
X144736188Y-145497058D01*
X144615152Y-145574843D01*
X144615148Y-145574847D01*
X144520933Y-145683576D01*
X144520927Y-145683585D01*
X144461159Y-145814456D01*
X144461158Y-145814461D01*
X144440683Y-145956873D01*
X144440683Y-145956876D01*
X144440683Y-146206876D01*
X144441072Y-146226716D01*
X144467121Y-146368215D01*
X144467123Y-146368222D01*
X144523661Y-146480171D01*
X144531983Y-146496649D01*
X144630400Y-146601605D01*
X145255400Y-147101605D01*
X145343306Y-147158099D01*
X145479661Y-147204022D01*
X145623425Y-147209669D01*
X145623425Y-147209668D01*
X145623430Y-147209669D01*
X145762967Y-147174582D01*
X145886966Y-147101605D01*
X146511966Y-146601605D01*
X146527215Y-146588907D01*
X146621437Y-146480170D01*
X146667045Y-146380303D01*
X146681206Y-146349295D01*
X146681207Y-146349290D01*
X146701683Y-146206876D01*
X146701683Y-145956876D01*
X146696538Y-145884936D01*
X146656002Y-145746884D01*
X146628711Y-145704418D01*
X146578215Y-145625845D01*
X146578211Y-145625841D01*
X146469482Y-145531626D01*
X146469478Y-145531623D01*
X146469477Y-145531622D01*
X146469473Y-145531620D01*
X146338602Y-145471852D01*
X146338598Y-145471851D01*
X146325003Y-145469897D01*
X146261447Y-145440871D01*
X146223673Y-145382093D01*
X146218651Y-145347159D01*
X146218651Y-144834736D01*
X146238336Y-144767697D01*
X146286361Y-144724249D01*
X146299750Y-144717427D01*
X146299762Y-144717421D01*
X146465371Y-144597100D01*
X146610118Y-144452353D01*
X146610120Y-144452349D01*
X146610123Y-144452347D01*
X146730437Y-144286747D01*
X146730439Y-144286744D01*
X146777667Y-144194053D01*
X146825640Y-144143259D01*
X146893461Y-144126463D01*
X146959596Y-144149000D01*
X146998635Y-144194053D01*
X147045864Y-144286745D01*
X147045867Y-144286749D01*
X147166180Y-144452349D01*
X147310936Y-144597105D01*
X147369774Y-144639852D01*
X147464571Y-144708725D01*
X147507236Y-144764052D01*
X147515685Y-144809042D01*
X147515685Y-145335487D01*
X147496000Y-145402526D01*
X147443196Y-145448281D01*
X147425392Y-145453863D01*
X147425622Y-145454645D01*
X147281189Y-145497055D01*
X147160153Y-145574840D01*
X147160149Y-145574844D01*
X147065934Y-145683573D01*
X147065928Y-145683582D01*
X147006160Y-145814453D01*
X147006159Y-145814458D01*
X146985684Y-145956872D01*
X146985684Y-146206879D01*
X146986073Y-146226709D01*
X146986073Y-146226716D01*
X147006881Y-146339744D01*
X147004793Y-146380303D01*
X147007422Y-146380681D01*
X147006160Y-146389456D01*
X147006160Y-146389457D01*
X146985684Y-146531873D01*
X146985684Y-146531874D01*
X146985684Y-147681875D01*
X146990828Y-147753813D01*
X147031366Y-147891867D01*
X147109151Y-148012903D01*
X147109155Y-148012907D01*
X147168013Y-148063908D01*
X147217890Y-148107127D01*
X147258358Y-148125608D01*
X147348764Y-148166896D01*
X147348767Y-148166896D01*
X147348768Y-148166897D01*
X147409331Y-148175604D01*
X147472886Y-148204628D01*
X147510661Y-148263406D01*
X147515684Y-148298342D01*
X147515684Y-150131009D01*
X147495999Y-150198048D01*
X147479365Y-150218690D01*
X143595634Y-154102420D01*
X143595632Y-154102423D01*
X143545514Y-154189232D01*
X143545512Y-154189234D01*
X143516578Y-154239347D01*
X143516577Y-154239348D01*
X143512380Y-154255013D01*
X143475652Y-154392081D01*
X143475652Y-154392083D01*
X143475652Y-154560184D01*
X143475653Y-154560197D01*
X143475653Y-169043413D01*
X143455968Y-169110452D01*
X143403164Y-169156207D01*
X143387652Y-169162072D01*
X143384320Y-169163082D01*
X143202245Y-169238499D01*
X143202232Y-169238506D01*
X143038371Y-169347995D01*
X143038367Y-169347998D01*
X142899016Y-169487349D01*
X142899013Y-169487353D01*
X142789524Y-169651214D01*
X142789517Y-169651227D01*
X142714103Y-169833295D01*
X142714100Y-169833305D01*
X142675653Y-170026591D01*
X142675653Y-170026594D01*
X142675653Y-170223676D01*
X142675653Y-170223678D01*
X142675652Y-170223678D01*
X142714100Y-170416964D01*
X142714103Y-170416974D01*
X142789517Y-170599042D01*
X142789524Y-170599055D01*
X142899013Y-170762916D01*
X142899016Y-170762920D01*
X143038367Y-170902271D01*
X143038371Y-170902274D01*
X143202232Y-171011763D01*
X143202245Y-171011770D01*
X143293278Y-171049476D01*
X143384318Y-171087186D01*
X143384329Y-171087188D01*
X143387644Y-171088194D01*
X143389176Y-171089198D01*
X143389946Y-171089517D01*
X143389885Y-171089662D01*
X143446084Y-171126490D01*
X143474543Y-171190301D01*
X143475653Y-171206856D01*
X143475653Y-174993413D01*
X143455968Y-175060452D01*
X143403164Y-175106207D01*
X143387652Y-175112072D01*
X143384320Y-175113082D01*
X143202245Y-175188499D01*
X143202232Y-175188506D01*
X143038371Y-175297995D01*
X143038367Y-175297998D01*
X142899016Y-175437349D01*
X142899013Y-175437353D01*
X142789524Y-175601214D01*
X142789517Y-175601227D01*
X142714103Y-175783295D01*
X142714100Y-175783305D01*
X142675653Y-175976591D01*
X142675653Y-175976594D01*
X142675653Y-176173676D01*
X142675653Y-176173678D01*
X142675652Y-176173678D01*
X142714100Y-176366964D01*
X142714103Y-176366974D01*
X142789517Y-176549042D01*
X142789524Y-176549055D01*
X142899013Y-176712916D01*
X142899016Y-176712920D01*
X143038367Y-176852271D01*
X143038371Y-176852274D01*
X143202232Y-176961763D01*
X143202245Y-176961770D01*
X143384313Y-177037184D01*
X143384318Y-177037186D01*
X143384322Y-177037186D01*
X143384323Y-177037187D01*
X143577609Y-177075635D01*
X143577612Y-177075635D01*
X144574696Y-177075635D01*
X144739146Y-177042923D01*
X144767988Y-177037186D01*
X144950067Y-176961767D01*
X145113935Y-176852274D01*
X145253292Y-176712917D01*
X145362785Y-176549049D01*
X145438204Y-176366970D01*
X145466855Y-176222934D01*
X145476653Y-176173678D01*
X145476653Y-175976591D01*
X145438205Y-175783305D01*
X145438204Y-175783304D01*
X145438204Y-175783300D01*
X145431920Y-175768129D01*
X145362788Y-175601227D01*
X145362778Y-175601209D01*
X145307531Y-175518525D01*
X145286653Y-175451848D01*
X145305138Y-175384468D01*
X145357117Y-175337778D01*
X145410633Y-175325635D01*
X146074697Y-175325635D01*
X146213649Y-175297995D01*
X146267989Y-175287186D01*
X146450068Y-175211767D01*
X146613936Y-175102274D01*
X146753293Y-174962917D01*
X146862786Y-174799049D01*
X146865312Y-174792952D01*
X146892964Y-174726193D01*
X146938205Y-174616970D01*
X146950786Y-174553717D01*
X146976654Y-174423678D01*
X146976654Y-174226591D01*
X146938206Y-174033305D01*
X146938205Y-174033304D01*
X146938205Y-174033300D01*
X146938203Y-174033295D01*
X146862789Y-173851227D01*
X146862782Y-173851214D01*
X146753293Y-173687353D01*
X146753290Y-173687349D01*
X146613939Y-173547998D01*
X146613935Y-173547995D01*
X146450074Y-173438506D01*
X146450061Y-173438499D01*
X146267989Y-173363083D01*
X146264645Y-173362069D01*
X146263110Y-173361062D01*
X146262362Y-173360753D01*
X146262420Y-173360611D01*
X146206211Y-173323765D01*
X146177761Y-173259950D01*
X146176653Y-173243412D01*
X146176653Y-172956856D01*
X146196338Y-172889817D01*
X146249142Y-172844062D01*
X146264662Y-172838194D01*
X146267973Y-172837188D01*
X146267988Y-172837186D01*
X146450067Y-172761767D01*
X146613935Y-172652274D01*
X146753292Y-172512917D01*
X146862785Y-172349049D01*
X146938204Y-172166970D01*
X146973843Y-171987803D01*
X146976653Y-171973678D01*
X146976653Y-171776591D01*
X146938205Y-171583305D01*
X146938204Y-171583304D01*
X146938204Y-171583300D01*
X146917526Y-171533379D01*
X146862788Y-171401227D01*
X146862781Y-171401214D01*
X146753292Y-171237353D01*
X146753289Y-171237349D01*
X146613938Y-171097998D01*
X146613934Y-171097995D01*
X146450073Y-170988506D01*
X146450060Y-170988499D01*
X146267992Y-170913085D01*
X146267982Y-170913082D01*
X146074696Y-170874635D01*
X146074694Y-170874635D01*
X145410633Y-170874635D01*
X145343594Y-170854950D01*
X145297839Y-170802146D01*
X145287895Y-170732988D01*
X145307531Y-170681745D01*
X145362778Y-170599060D01*
X145362781Y-170599055D01*
X145362785Y-170599049D01*
X145438204Y-170416970D01*
X145460515Y-170304806D01*
X145476653Y-170223678D01*
X145476653Y-170026591D01*
X145438205Y-169833305D01*
X145438204Y-169833304D01*
X145438204Y-169833300D01*
X145428094Y-169808891D01*
X145362788Y-169651227D01*
X145362781Y-169651214D01*
X145253292Y-169487353D01*
X145253289Y-169487349D01*
X145113938Y-169347998D01*
X145113934Y-169347995D01*
X144950073Y-169238506D01*
X144950060Y-169238499D01*
X144767985Y-169163082D01*
X144764654Y-169162072D01*
X144763123Y-169161068D01*
X144762361Y-169160753D01*
X144762420Y-169160608D01*
X144706216Y-169123773D01*
X144677762Y-169059960D01*
X144676653Y-169043413D01*
X144676653Y-163359272D01*
X146439654Y-163359272D01*
X146439654Y-165455007D01*
X146439655Y-165455013D01*
X146446062Y-165514620D01*
X146496356Y-165649465D01*
X146496360Y-165649472D01*
X146582606Y-165764681D01*
X146582609Y-165764684D01*
X146697818Y-165850930D01*
X146697825Y-165850934D01*
X146832671Y-165901228D01*
X146832670Y-165901228D01*
X146839598Y-165901972D01*
X146892281Y-165907637D01*
X150188026Y-165907636D01*
X150247637Y-165901228D01*
X150382485Y-165850933D01*
X150497700Y-165764683D01*
X150583950Y-165649468D01*
X150634245Y-165514620D01*
X150640654Y-165455010D01*
X150640653Y-163359265D01*
X150634245Y-163299654D01*
X150623460Y-163270739D01*
X150583951Y-163164808D01*
X150583947Y-163164801D01*
X150497701Y-163049592D01*
X150497698Y-163049589D01*
X150382489Y-162963343D01*
X150382482Y-162963339D01*
X150247636Y-162913045D01*
X150247637Y-162913045D01*
X150188037Y-162906638D01*
X150188035Y-162906637D01*
X150188027Y-162906637D01*
X150188018Y-162906637D01*
X146892283Y-162906637D01*
X146892277Y-162906638D01*
X146832670Y-162913045D01*
X146697825Y-162963339D01*
X146697818Y-162963343D01*
X146582609Y-163049589D01*
X146582606Y-163049592D01*
X146496360Y-163164801D01*
X146496356Y-163164808D01*
X146446062Y-163299654D01*
X146442899Y-163329079D01*
X146439655Y-163359260D01*
X146439654Y-163359272D01*
X144676653Y-163359272D01*
X144676653Y-156189039D01*
X154039654Y-156189039D01*
X154039654Y-156425234D01*
X154076600Y-156658505D01*
X154149587Y-156883133D01*
X154256811Y-157093570D01*
X154395637Y-157284647D01*
X154562644Y-157451654D01*
X154753721Y-157590480D01*
X154831289Y-157630003D01*
X154964157Y-157697703D01*
X154964159Y-157697703D01*
X154964162Y-157697705D01*
X155084566Y-157736826D01*
X155188785Y-157770690D01*
X155422057Y-157807637D01*
X155422062Y-157807637D01*
X155658251Y-157807637D01*
X155891522Y-157770690D01*
X156116146Y-157697705D01*
X156326587Y-157590480D01*
X156517664Y-157451654D01*
X156684671Y-157284647D01*
X156823497Y-157093570D01*
X156930722Y-156883129D01*
X157003707Y-156658505D01*
X157009636Y-156621070D01*
X157040654Y-156425234D01*
X157040654Y-156189039D01*
X157003707Y-155955768D01*
X156930720Y-155731140D01*
X156823496Y-155520703D01*
X156684671Y-155329627D01*
X156517664Y-155162620D01*
X156422125Y-155093207D01*
X156326585Y-155023792D01*
X156208358Y-154963552D01*
X156157563Y-154915578D01*
X156140654Y-154853068D01*
X156140654Y-152946995D01*
X156160339Y-152879956D01*
X156190340Y-152847731D01*
X156287730Y-152774825D01*
X156373980Y-152659610D01*
X156424275Y-152524762D01*
X156430684Y-152465152D01*
X156430683Y-151169407D01*
X156424275Y-151109796D01*
X156424274Y-151109794D01*
X156373981Y-150974950D01*
X156373977Y-150974943D01*
X156287731Y-150859734D01*
X156287728Y-150859731D01*
X156172519Y-150773485D01*
X156172512Y-150773481D01*
X156037666Y-150723187D01*
X156037667Y-150723187D01*
X155978067Y-150716780D01*
X155978065Y-150716779D01*
X155978057Y-150716779D01*
X155978048Y-150716779D01*
X154982313Y-150716779D01*
X154982307Y-150716780D01*
X154922700Y-150723187D01*
X154787855Y-150773481D01*
X154787848Y-150773485D01*
X154672639Y-150859731D01*
X154672636Y-150859734D01*
X154586390Y-150974943D01*
X154586386Y-150974950D01*
X154536092Y-151109796D01*
X154529685Y-151169393D01*
X154529685Y-151169404D01*
X154529684Y-151169414D01*
X154529684Y-152465149D01*
X154529685Y-152465155D01*
X154536092Y-152524762D01*
X154586386Y-152659607D01*
X154586390Y-152659614D01*
X154672636Y-152774823D01*
X154672639Y-152774826D01*
X154787848Y-152861072D01*
X154787857Y-152861077D01*
X154858986Y-152887606D01*
X154914920Y-152929476D01*
X154939338Y-152994940D01*
X154939654Y-153003788D01*
X154939654Y-154853068D01*
X154919969Y-154920107D01*
X154871950Y-154963552D01*
X154753722Y-155023792D01*
X154620050Y-155120911D01*
X154562644Y-155162620D01*
X154562642Y-155162622D01*
X154562641Y-155162622D01*
X154395639Y-155329624D01*
X154395639Y-155329625D01*
X154395637Y-155329627D01*
X154336016Y-155411687D01*
X154256811Y-155520703D01*
X154149587Y-155731140D01*
X154076600Y-155955768D01*
X154039654Y-156189039D01*
X144676653Y-156189039D01*
X144676653Y-154771235D01*
X144696338Y-154704196D01*
X144712972Y-154683554D01*
X145405910Y-153990616D01*
X146227975Y-153168550D01*
X146289296Y-153135067D01*
X146358988Y-153140051D01*
X146414921Y-153181923D01*
X146439338Y-153247387D01*
X146439654Y-153256233D01*
X146439654Y-154255007D01*
X146439655Y-154255013D01*
X146446062Y-154314620D01*
X146496356Y-154449465D01*
X146496360Y-154449472D01*
X146582606Y-154564681D01*
X146582609Y-154564684D01*
X146697818Y-154650930D01*
X146697825Y-154650934D01*
X146832671Y-154701228D01*
X146832670Y-154701228D01*
X146839598Y-154701972D01*
X146892281Y-154707637D01*
X150188026Y-154707636D01*
X150247637Y-154701228D01*
X150382485Y-154650933D01*
X150497700Y-154564683D01*
X150583950Y-154449468D01*
X150634245Y-154314620D01*
X150640654Y-154255010D01*
X150640653Y-152159265D01*
X150634245Y-152099654D01*
X150622525Y-152068232D01*
X150583951Y-151964808D01*
X150583947Y-151964801D01*
X150497701Y-151849592D01*
X150497698Y-151849589D01*
X150382489Y-151763343D01*
X150382482Y-151763339D01*
X150247636Y-151713045D01*
X150247637Y-151713045D01*
X150188037Y-151706638D01*
X150188035Y-151706637D01*
X150188027Y-151706637D01*
X150188019Y-151706637D01*
X147989251Y-151706637D01*
X147922212Y-151686952D01*
X147876457Y-151634148D01*
X147866513Y-151564990D01*
X147895538Y-151501434D01*
X147901570Y-151494956D01*
X148227115Y-151169412D01*
X151229684Y-151169412D01*
X151229684Y-152465147D01*
X151229685Y-152465153D01*
X151236092Y-152524760D01*
X151286386Y-152659605D01*
X151286390Y-152659612D01*
X151372636Y-152774821D01*
X151372639Y-152774824D01*
X151487848Y-152861070D01*
X151487855Y-152861074D01*
X151622701Y-152911368D01*
X151622700Y-152911368D01*
X151629628Y-152912112D01*
X151682311Y-152917777D01*
X152678056Y-152917776D01*
X152737667Y-152911368D01*
X152872515Y-152861073D01*
X152987730Y-152774823D01*
X153073980Y-152659608D01*
X153124275Y-152524760D01*
X153130684Y-152465150D01*
X153130683Y-151169405D01*
X153124275Y-151109794D01*
X153073981Y-150974950D01*
X153073981Y-150974948D01*
X153073977Y-150974941D01*
X152987731Y-150859732D01*
X152987728Y-150859729D01*
X152872519Y-150773483D01*
X152872512Y-150773479D01*
X152737666Y-150723185D01*
X152737667Y-150723185D01*
X152678067Y-150716778D01*
X152678065Y-150716777D01*
X152678057Y-150716777D01*
X152678048Y-150716777D01*
X151682313Y-150716777D01*
X151682307Y-150716778D01*
X151622700Y-150723185D01*
X151487855Y-150773479D01*
X151487848Y-150773483D01*
X151372639Y-150859729D01*
X151372636Y-150859732D01*
X151286390Y-150974941D01*
X151286386Y-150974948D01*
X151236092Y-151109794D01*
X151229685Y-151169393D01*
X151229685Y-151169402D01*
X151229684Y-151169412D01*
X148227115Y-151169412D01*
X148318125Y-151078402D01*
X148421586Y-150974941D01*
X148596704Y-150799823D01*
X148675761Y-150662891D01*
X148716685Y-150510164D01*
X148716685Y-150352049D01*
X148716685Y-150344454D01*
X148716684Y-150344436D01*
X148716684Y-150148529D01*
X148736369Y-150081490D01*
X148789173Y-150035735D01*
X148858331Y-150025791D01*
X148888137Y-150033968D01*
X148891649Y-150035422D01*
X148891651Y-150035424D01*
X149037333Y-150095767D01*
X149191983Y-150126529D01*
X149191986Y-150126530D01*
X149191988Y-150126530D01*
X149349674Y-150126530D01*
X149349675Y-150126529D01*
X149504327Y-150095767D01*
X149650009Y-150035424D01*
X149781119Y-149947819D01*
X149781120Y-149947817D01*
X149781705Y-149947427D01*
X149848382Y-149926549D01*
X149850596Y-149926529D01*
X150924365Y-149926529D01*
X150924381Y-149926530D01*
X150931977Y-149926530D01*
X151090088Y-149926530D01*
X151090091Y-149926530D01*
X151242819Y-149885606D01*
X151328186Y-149836319D01*
X151379750Y-149806549D01*
X151491554Y-149694745D01*
X151491554Y-149694743D01*
X151501758Y-149684540D01*
X151501761Y-149684535D01*
X152962602Y-148223696D01*
X153023925Y-148190211D01*
X153050283Y-148187377D01*
X153780187Y-148187377D01*
X153852127Y-148182232D01*
X153990179Y-148141696D01*
X154111219Y-148063908D01*
X154205441Y-147955171D01*
X154265211Y-147824293D01*
X154285687Y-147681877D01*
X154285687Y-147581973D01*
X154305372Y-147514934D01*
X154322006Y-147494292D01*
X155448083Y-146368215D01*
X156606660Y-145209638D01*
X156606665Y-145209634D01*
X156616868Y-145199430D01*
X156616870Y-145199430D01*
X156728674Y-145087626D01*
X156807731Y-144950694D01*
X156837688Y-144838891D01*
X156848654Y-144797968D01*
X156848654Y-144639853D01*
X156848654Y-144615191D01*
X156848653Y-144615185D01*
X156848653Y-134226080D01*
X156848653Y-134226078D01*
X156821554Y-134124943D01*
X156807730Y-134073350D01*
X156757478Y-133986312D01*
X156728673Y-133936419D01*
X156616869Y-133824615D01*
X156616868Y-133824614D01*
X156612538Y-133820284D01*
X156612527Y-133820274D01*
X154979569Y-132187315D01*
X154946084Y-132125992D01*
X154951068Y-132056300D01*
X154992940Y-132000367D01*
X155058404Y-131975950D01*
X155067250Y-131975634D01*
X155443148Y-131975634D01*
X155443151Y-131975634D01*
X155566421Y-131960373D01*
X155566423Y-131960372D01*
X155566424Y-131960372D01*
X155574408Y-131958281D01*
X155575161Y-131961156D01*
X155624674Y-131955003D01*
X155625732Y-131955155D01*
X155625734Y-131955156D01*
X155768150Y-131975632D01*
X155768153Y-131975632D01*
X156018150Y-131975632D01*
X156090090Y-131970487D01*
X156228142Y-131929951D01*
X156349182Y-131852163D01*
X156441209Y-131745958D01*
X156499985Y-131708186D01*
X156569855Y-131708186D01*
X156622601Y-131739482D01*
X156758362Y-131875243D01*
X156930328Y-132000182D01*
X156930330Y-132000183D01*
X156930333Y-132000185D01*
X157119737Y-132096691D01*
X157321906Y-132162380D01*
X157531862Y-132195634D01*
X157531863Y-132195634D01*
X157744435Y-132195634D01*
X157744436Y-132195634D01*
X157954392Y-132162380D01*
X158156561Y-132096691D01*
X158345965Y-132000185D01*
X158400763Y-131960372D01*
X158517935Y-131875243D01*
X158517937Y-131875240D01*
X158517941Y-131875238D01*
X158668253Y-131724926D01*
X158668255Y-131724922D01*
X158668258Y-131724920D01*
X158793197Y-131552954D01*
X158793196Y-131552954D01*
X158793200Y-131552950D01*
X158889706Y-131363546D01*
X158955395Y-131161377D01*
X158988649Y-130951421D01*
X158988649Y-130738847D01*
X158955395Y-130528891D01*
X158889706Y-130326722D01*
X158793200Y-130137318D01*
X158793198Y-130137315D01*
X158793197Y-130137313D01*
X158668258Y-129965347D01*
X158517935Y-129815024D01*
X158345969Y-129690085D01*
X158345264Y-129689725D01*
X158337203Y-129685619D01*
X158286408Y-129637646D01*
X158269612Y-129569826D01*
X158292148Y-129503690D01*
X158337203Y-129464649D01*
X158345965Y-129460185D01*
X158393358Y-129425752D01*
X158517935Y-129335243D01*
X158517937Y-129335240D01*
X158517941Y-129335238D01*
X158668253Y-129184926D01*
X158668255Y-129184922D01*
X158668258Y-129184920D01*
X158793197Y-129012954D01*
X158793196Y-129012954D01*
X158793200Y-129012950D01*
X158889706Y-128823546D01*
X158955395Y-128621377D01*
X158988649Y-128411421D01*
X158988649Y-128198847D01*
X158955395Y-127988891D01*
X158889706Y-127786722D01*
X158793200Y-127597318D01*
X158793198Y-127597315D01*
X158793197Y-127597313D01*
X158668258Y-127425347D01*
X158517935Y-127275024D01*
X158345965Y-127150082D01*
X158337200Y-127145616D01*
X158286407Y-127097640D01*
X158269614Y-127029818D01*
X158292154Y-126963684D01*
X158337208Y-126924648D01*
X158345966Y-126920186D01*
X158416150Y-126869195D01*
X158517936Y-126795244D01*
X158517938Y-126795241D01*
X158517942Y-126795239D01*
X158668254Y-126644927D01*
X158668256Y-126644923D01*
X158668259Y-126644921D01*
X158793198Y-126472955D01*
X158793197Y-126472955D01*
X158793201Y-126472951D01*
X158889707Y-126283547D01*
X158955396Y-126081378D01*
X158988650Y-125871422D01*
X158988650Y-125658848D01*
X158955396Y-125448892D01*
X158889707Y-125246723D01*
X158793201Y-125057319D01*
X158793199Y-125057316D01*
X158793198Y-125057314D01*
X158668259Y-124885348D01*
X158517936Y-124735025D01*
X158345967Y-124610084D01*
X158337202Y-124605618D01*
X158286407Y-124557643D01*
X158269612Y-124489822D01*
X158292150Y-124423687D01*
X158337203Y-124384649D01*
X158345965Y-124380185D01*
X158402809Y-124338886D01*
X158517935Y-124255243D01*
X158517937Y-124255240D01*
X158517941Y-124255238D01*
X158668253Y-124104926D01*
X158668255Y-124104922D01*
X158668258Y-124104920D01*
X158793197Y-123932954D01*
X158793196Y-123932954D01*
X158793200Y-123932950D01*
X158889706Y-123743546D01*
X158955395Y-123541377D01*
X158988649Y-123331421D01*
X158988649Y-123118847D01*
X158955395Y-122908891D01*
X158889706Y-122706722D01*
X158843443Y-122615927D01*
X158830548Y-122547259D01*
X158856824Y-122482518D01*
X158913931Y-122442261D01*
X158953928Y-122435633D01*
X159833934Y-122435633D01*
X159900972Y-122455318D01*
X159946727Y-122508122D01*
X159957933Y-122559471D01*
X160005921Y-159282473D01*
X159986324Y-159349538D01*
X159933580Y-159395362D01*
X159881921Y-159406635D01*
X154922622Y-159406635D01*
X154922620Y-159406636D01*
X154769892Y-159447559D01*
X154769891Y-159447559D01*
X154769889Y-159447560D01*
X154769886Y-159447561D01*
X154719773Y-159476495D01*
X154719772Y-159476496D01*
X154676366Y-159501556D01*
X154632962Y-159526615D01*
X154632959Y-159526617D01*
X154521155Y-159638422D01*
X153871440Y-160288136D01*
X153759635Y-160399940D01*
X153759633Y-160399943D01*
X153709515Y-160486752D01*
X153709513Y-160486754D01*
X153680579Y-160536867D01*
X153680578Y-160536870D01*
X153680577Y-160536872D01*
X153680577Y-160536873D01*
X153661130Y-160609451D01*
X153639654Y-160689600D01*
X153639653Y-160689602D01*
X153639653Y-160857703D01*
X153639654Y-160857716D01*
X153639654Y-172350146D01*
X153619969Y-172417185D01*
X153603335Y-172437827D01*
X143262684Y-182778477D01*
X143262683Y-182778479D01*
X143228459Y-182837757D01*
X143212048Y-182866180D01*
X143183625Y-182915410D01*
X143176172Y-182943226D01*
X143139806Y-183002886D01*
X143076958Y-183033414D01*
X143007583Y-183025117D01*
X142956999Y-182985264D01*
X142922974Y-182939643D01*
X142922973Y-182939642D01*
X142915603Y-182932862D01*
X142914492Y-182931696D01*
X142858625Y-182880444D01*
X142858618Y-182880437D01*
X142806249Y-182832386D01*
X142806170Y-182832322D01*
X142270813Y-182341192D01*
X142270817Y-182341187D01*
X142270756Y-182341140D01*
X142221913Y-182296276D01*
X142221912Y-182296275D01*
X142133451Y-182236545D01*
X142110891Y-182221312D01*
X142110888Y-182221311D01*
X142110883Y-182221307D01*
X141990020Y-182163605D01*
X141989999Y-182163597D01*
X141861919Y-182124406D01*
X141861902Y-182124402D01*
X141729424Y-182104590D01*
X141662448Y-182104631D01*
X141661354Y-182104631D01*
X134342658Y-182104633D01*
X134275619Y-182084948D01*
X134229864Y-182032144D01*
X134218658Y-181980633D01*
X134218658Y-179900849D01*
X134919653Y-179900849D01*
X134919653Y-180113422D01*
X134952878Y-180323200D01*
X134952907Y-180323379D01*
X135016732Y-180519812D01*
X135018597Y-180525550D01*
X135115104Y-180714956D01*
X135240043Y-180886922D01*
X135390366Y-181037245D01*
X135562332Y-181162184D01*
X135562334Y-181162185D01*
X135562337Y-181162187D01*
X135751741Y-181258693D01*
X135953910Y-181324382D01*
X136163866Y-181357636D01*
X136163867Y-181357636D01*
X136376439Y-181357636D01*
X136376440Y-181357636D01*
X136586396Y-181324382D01*
X136788565Y-181258693D01*
X136977969Y-181162187D01*
X136999942Y-181146222D01*
X137149939Y-181037245D01*
X137149941Y-181037242D01*
X137149945Y-181037240D01*
X137300257Y-180886928D01*
X137300259Y-180886924D01*
X137300262Y-180886922D01*
X137425201Y-180714956D01*
X137425200Y-180714956D01*
X137425204Y-180714952D01*
X137521710Y-180525548D01*
X137587399Y-180323379D01*
X137620653Y-180113423D01*
X137620653Y-179900849D01*
X137587399Y-179690893D01*
X137521710Y-179488724D01*
X137425204Y-179299320D01*
X137425202Y-179299317D01*
X137425201Y-179299315D01*
X137300262Y-179127349D01*
X137149939Y-178977026D01*
X136977973Y-178852087D01*
X136788567Y-178755580D01*
X136788566Y-178755579D01*
X136788565Y-178755579D01*
X136586396Y-178689890D01*
X136586394Y-178689889D01*
X136586393Y-178689889D01*
X136425110Y-178664344D01*
X136376440Y-178656636D01*
X136163866Y-178656636D01*
X136115195Y-178664344D01*
X135953913Y-178689889D01*
X135751738Y-178755580D01*
X135562332Y-178852087D01*
X135390366Y-178977026D01*
X135240043Y-179127349D01*
X135115104Y-179299315D01*
X135018597Y-179488721D01*
X134952906Y-179690896D01*
X134919653Y-179900849D01*
X134218658Y-179900849D01*
X134218658Y-174267977D01*
X134238343Y-174200938D01*
X134291147Y-174155183D01*
X134360305Y-174145239D01*
X134423861Y-174174264D01*
X134457219Y-174220524D01*
X134458335Y-174223219D01*
X134458336Y-174223222D01*
X134459733Y-174226594D01*
X134522447Y-174378001D01*
X134615525Y-174517302D01*
X134733989Y-174635766D01*
X134826646Y-174697677D01*
X134873289Y-174728843D01*
X135028070Y-174792956D01*
X135182019Y-174823578D01*
X135192380Y-174825639D01*
X135192384Y-174825640D01*
X135192385Y-174825640D01*
X135359920Y-174825640D01*
X135359921Y-174825639D01*
X135524234Y-174792956D01*
X135679015Y-174728843D01*
X135818314Y-174635766D01*
X135936778Y-174517302D01*
X136029855Y-174378003D01*
X136093968Y-174223222D01*
X136126652Y-174058907D01*
X136126652Y-173891373D01*
X136093968Y-173727058D01*
X136029855Y-173572277D01*
X135940470Y-173438503D01*
X135936778Y-173432977D01*
X135818314Y-173314513D01*
X135679012Y-173221435D01*
X135679008Y-173221433D01*
X135662746Y-173214697D01*
X135608343Y-173170855D01*
X135586279Y-173104561D01*
X135603559Y-173036862D01*
X135654697Y-172989252D01*
X135662732Y-172985582D01*
X135679016Y-172978838D01*
X135818315Y-172885761D01*
X135936779Y-172767297D01*
X136029856Y-172627998D01*
X136093969Y-172473217D01*
X136126653Y-172308902D01*
X136126653Y-172141368D01*
X136093969Y-171977053D01*
X136029856Y-171822272D01*
X135998690Y-171775629D01*
X135936779Y-171682972D01*
X135818315Y-171564508D01*
X135679013Y-171471430D01*
X135524235Y-171407319D01*
X135524227Y-171407317D01*
X135359924Y-171374635D01*
X135359920Y-171374635D01*
X135192386Y-171374635D01*
X135192381Y-171374635D01*
X135028078Y-171407317D01*
X135028070Y-171407319D01*
X134873292Y-171471430D01*
X134733990Y-171564508D01*
X134615526Y-171682972D01*
X134522448Y-171822274D01*
X134457219Y-171979752D01*
X134413378Y-172034155D01*
X134347084Y-172056220D01*
X134279384Y-172038941D01*
X134231774Y-171987803D01*
X134218658Y-171932299D01*
X134218658Y-170018847D01*
X135325652Y-170018847D01*
X135325652Y-170231420D01*
X135358887Y-170441261D01*
X135358906Y-170441377D01*
X135415530Y-170615648D01*
X135424596Y-170643548D01*
X135521103Y-170832954D01*
X135646042Y-171004920D01*
X135796365Y-171155243D01*
X135968331Y-171280182D01*
X135968333Y-171280183D01*
X135968336Y-171280185D01*
X136157740Y-171376691D01*
X136359909Y-171442380D01*
X136371047Y-171444144D01*
X136434181Y-171474070D01*
X136471114Y-171533379D01*
X136475652Y-171566617D01*
X136475652Y-174633650D01*
X136455967Y-174700689D01*
X136403163Y-174746444D01*
X136371058Y-174756122D01*
X136359913Y-174757887D01*
X136157737Y-174823579D01*
X135968331Y-174920086D01*
X135796365Y-175045025D01*
X135646042Y-175195348D01*
X135521103Y-175367314D01*
X135424596Y-175556720D01*
X135358905Y-175758895D01*
X135325652Y-175968848D01*
X135325652Y-176181421D01*
X135358887Y-176391262D01*
X135358906Y-176391378D01*
X135410134Y-176549042D01*
X135424596Y-176593549D01*
X135521103Y-176782955D01*
X135646042Y-176954921D01*
X135796365Y-177105244D01*
X135968331Y-177230183D01*
X135968333Y-177230184D01*
X135968336Y-177230186D01*
X136157740Y-177326692D01*
X136359909Y-177392381D01*
X136569865Y-177425635D01*
X136569866Y-177425635D01*
X137582438Y-177425635D01*
X137582439Y-177425635D01*
X137792395Y-177392381D01*
X137994564Y-177326692D01*
X138183968Y-177230186D01*
X138355944Y-177105239D01*
X138488828Y-176972354D01*
X138550147Y-176938872D01*
X138619839Y-176943856D01*
X138664187Y-176972357D01*
X138796689Y-177104859D01*
X138796694Y-177104863D01*
X138968596Y-177229756D01*
X139157936Y-177326231D01*
X139360024Y-177391893D01*
X139569908Y-177425136D01*
X139826154Y-177425136D01*
X139826154Y-176575136D01*
X140326154Y-176575136D01*
X140326154Y-177425136D01*
X140582400Y-177425136D01*
X140792281Y-177391893D01*
X140792284Y-177391893D01*
X140994371Y-177326231D01*
X141183711Y-177229756D01*
X141355613Y-177104863D01*
X141355618Y-177104859D01*
X141505877Y-176954600D01*
X141505881Y-176954595D01*
X141630774Y-176782693D01*
X141727249Y-176593353D01*
X141792911Y-176391265D01*
X141792911Y-176391262D01*
X141803385Y-176325136D01*
X140759166Y-176325136D01*
X140792079Y-176268129D01*
X140826154Y-176140962D01*
X140826154Y-176009310D01*
X140792079Y-175882143D01*
X140759166Y-175825136D01*
X141803385Y-175825136D01*
X141792911Y-175759009D01*
X141792911Y-175759006D01*
X141727249Y-175556918D01*
X141630774Y-175367578D01*
X141505881Y-175195676D01*
X141505877Y-175195671D01*
X141355618Y-175045412D01*
X141355613Y-175045408D01*
X141183711Y-174920515D01*
X140994371Y-174824040D01*
X140792283Y-174758378D01*
X140582400Y-174725136D01*
X140326154Y-174725136D01*
X140326154Y-175575136D01*
X139826154Y-175575136D01*
X139826154Y-174725136D01*
X139569908Y-174725136D01*
X139360026Y-174758378D01*
X139360023Y-174758378D01*
X139157936Y-174824040D01*
X138968596Y-174920515D01*
X138796695Y-175045407D01*
X138664188Y-175177914D01*
X138602865Y-175211398D01*
X138533173Y-175206414D01*
X138488826Y-175177913D01*
X138355938Y-175045025D01*
X138183972Y-174920086D01*
X137994566Y-174823579D01*
X137994565Y-174823578D01*
X137994564Y-174823578D01*
X137893479Y-174790733D01*
X137792393Y-174757888D01*
X137781252Y-174756124D01*
X137718118Y-174726193D01*
X137681188Y-174666881D01*
X137676652Y-174633658D01*
X137676652Y-173891363D01*
X141425653Y-173891363D01*
X141425653Y-174058906D01*
X141458335Y-174223209D01*
X141458337Y-174223217D01*
X141522448Y-174377995D01*
X141615526Y-174517297D01*
X141733990Y-174635761D01*
X141780565Y-174666881D01*
X141873290Y-174728838D01*
X142028071Y-174792951D01*
X142182045Y-174823578D01*
X142192381Y-174825634D01*
X142192385Y-174825635D01*
X142192386Y-174825635D01*
X142359921Y-174825635D01*
X142359922Y-174825634D01*
X142524235Y-174792951D01*
X142679016Y-174728838D01*
X142818315Y-174635761D01*
X142936779Y-174517297D01*
X143029856Y-174377998D01*
X143093969Y-174223217D01*
X143126653Y-174058902D01*
X143126653Y-173891368D01*
X143093969Y-173727053D01*
X143029856Y-173572272D01*
X142983851Y-173503421D01*
X142936779Y-173432972D01*
X142818315Y-173314508D01*
X142679015Y-173221431D01*
X142662754Y-173214696D01*
X142608351Y-173170854D01*
X142586287Y-173104559D01*
X142603567Y-173036860D01*
X142654705Y-172989250D01*
X142662758Y-172985573D01*
X142679018Y-172978838D01*
X142818317Y-172885761D01*
X142936781Y-172767297D01*
X143029858Y-172627998D01*
X143093971Y-172473217D01*
X143126655Y-172308902D01*
X143126655Y-172141368D01*
X143093971Y-171977053D01*
X143029858Y-171822272D01*
X142998692Y-171775629D01*
X142936781Y-171682972D01*
X142818317Y-171564508D01*
X142679015Y-171471430D01*
X142524237Y-171407319D01*
X142524229Y-171407317D01*
X142359926Y-171374635D01*
X142359922Y-171374635D01*
X142192388Y-171374635D01*
X142192383Y-171374635D01*
X142028080Y-171407317D01*
X142028072Y-171407319D01*
X141873294Y-171471430D01*
X141733992Y-171564508D01*
X141615528Y-171682972D01*
X141522450Y-171822274D01*
X141458339Y-171977052D01*
X141458337Y-171977060D01*
X141425655Y-172141363D01*
X141425655Y-172308906D01*
X141458337Y-172473209D01*
X141458339Y-172473217D01*
X141522450Y-172627995D01*
X141615528Y-172767297D01*
X141733992Y-172885761D01*
X141803642Y-172932299D01*
X141873292Y-172978838D01*
X141889550Y-172985572D01*
X141943954Y-173029413D01*
X141966020Y-173095707D01*
X141948742Y-173163406D01*
X141897605Y-173211017D01*
X141889556Y-173214693D01*
X141873295Y-173221428D01*
X141873292Y-173221430D01*
X141733990Y-173314508D01*
X141615526Y-173432972D01*
X141522448Y-173572274D01*
X141458337Y-173727052D01*
X141458335Y-173727060D01*
X141425653Y-173891363D01*
X137676652Y-173891363D01*
X137676652Y-171566616D01*
X137696337Y-171499578D01*
X137749141Y-171453823D01*
X137781252Y-171444144D01*
X137792395Y-171442380D01*
X137994564Y-171376691D01*
X138183968Y-171280185D01*
X138242927Y-171237349D01*
X138355938Y-171155243D01*
X138355940Y-171155240D01*
X138355944Y-171155238D01*
X138488825Y-171022357D01*
X138550148Y-170988872D01*
X138619840Y-170993856D01*
X138664187Y-171022357D01*
X138796688Y-171154858D01*
X138796693Y-171154862D01*
X138968595Y-171279755D01*
X139157935Y-171376230D01*
X139360023Y-171441892D01*
X139569907Y-171475135D01*
X139826153Y-171475135D01*
X139826153Y-170625135D01*
X140326153Y-170625135D01*
X140326153Y-171475135D01*
X140582399Y-171475135D01*
X140792280Y-171441892D01*
X140792283Y-171441892D01*
X140994370Y-171376230D01*
X141183710Y-171279755D01*
X141355612Y-171154862D01*
X141355617Y-171154858D01*
X141505876Y-171004599D01*
X141505880Y-171004594D01*
X141630773Y-170832692D01*
X141727248Y-170643352D01*
X141792910Y-170441264D01*
X141792910Y-170441261D01*
X141803384Y-170375135D01*
X140759165Y-170375135D01*
X140792078Y-170318128D01*
X140826153Y-170190961D01*
X140826153Y-170059309D01*
X140792078Y-169932142D01*
X140759165Y-169875135D01*
X141803384Y-169875135D01*
X141792910Y-169809008D01*
X141792910Y-169809005D01*
X141727248Y-169606917D01*
X141630773Y-169417577D01*
X141505880Y-169245675D01*
X141505876Y-169245670D01*
X141355617Y-169095411D01*
X141355612Y-169095407D01*
X141183710Y-168970514D01*
X140994370Y-168874039D01*
X140792282Y-168808377D01*
X140582399Y-168775135D01*
X140326153Y-168775135D01*
X140326153Y-169625135D01*
X139826153Y-169625135D01*
X139826153Y-168775135D01*
X139569907Y-168775135D01*
X139360025Y-168808377D01*
X139360022Y-168808377D01*
X139157935Y-168874039D01*
X138968595Y-168970514D01*
X138796693Y-169095407D01*
X138796688Y-169095411D01*
X138664188Y-169227912D01*
X138602865Y-169261397D01*
X138533173Y-169256413D01*
X138488826Y-169227912D01*
X138355938Y-169095024D01*
X138183972Y-168970085D01*
X137994566Y-168873578D01*
X137994565Y-168873577D01*
X137994564Y-168873577D01*
X137792395Y-168807888D01*
X137792393Y-168807887D01*
X137792392Y-168807887D01*
X137631109Y-168782342D01*
X137582439Y-168774634D01*
X136569865Y-168774634D01*
X136521194Y-168782342D01*
X136359912Y-168807887D01*
X136157737Y-168873578D01*
X135968331Y-168970085D01*
X135796365Y-169095024D01*
X135646042Y-169245347D01*
X135521103Y-169417313D01*
X135424596Y-169606719D01*
X135358905Y-169808894D01*
X135325652Y-170018847D01*
X134218658Y-170018847D01*
X134218658Y-167230134D01*
X134218657Y-161980136D01*
X134218657Y-150747837D01*
X134238342Y-150680798D01*
X134291146Y-150635043D01*
X134360304Y-150625099D01*
X134415541Y-150647518D01*
X134433872Y-150660837D01*
X134448362Y-150671365D01*
X134448364Y-150671366D01*
X134602707Y-150750007D01*
X134767451Y-150803536D01*
X134938541Y-150830634D01*
X134938542Y-150830634D01*
X135661762Y-150830634D01*
X135661763Y-150830634D01*
X135832853Y-150803536D01*
X135997597Y-150750007D01*
X136151940Y-150671366D01*
X136292080Y-150569548D01*
X136414566Y-150447062D01*
X136419409Y-150440395D01*
X136474733Y-150397729D01*
X136544346Y-150391745D01*
X136606143Y-150424347D01*
X136638706Y-150478341D01*
X136656786Y-150539915D01*
X136734497Y-150660837D01*
X136843128Y-150754966D01*
X136843129Y-150754967D01*
X136973873Y-150814677D01*
X136973877Y-150814678D01*
X137116153Y-150835133D01*
X137116155Y-150835134D01*
X138366152Y-150835134D01*
X138366154Y-150835133D01*
X138438022Y-150829993D01*
X138575933Y-150789499D01*
X138696855Y-150711788D01*
X138790984Y-150603157D01*
X138790985Y-150603156D01*
X138850695Y-150472412D01*
X138850696Y-150472408D01*
X138871151Y-150330132D01*
X138871152Y-150330131D01*
X138871152Y-149130134D01*
X138871151Y-149130131D01*
X138866011Y-149058263D01*
X138825517Y-148920352D01*
X138747806Y-148799430D01*
X138639175Y-148705301D01*
X138639174Y-148705300D01*
X138508430Y-148645590D01*
X138508425Y-148645589D01*
X138472102Y-148640367D01*
X138408546Y-148611342D01*
X138370772Y-148552563D01*
X138370772Y-148482694D01*
X138408547Y-148423916D01*
X138416851Y-148417320D01*
X138451503Y-148392145D01*
X138471652Y-148330134D01*
X138471652Y-148275232D01*
X138491337Y-148208193D01*
X138507971Y-148187551D01*
X138528626Y-148166896D01*
X138596672Y-148098850D01*
X138675729Y-147961918D01*
X138687073Y-147919581D01*
X138716653Y-147809191D01*
X138716652Y-147651076D01*
X138716652Y-107755229D01*
X138725295Y-107725792D01*
X138731819Y-107695803D01*
X138735574Y-107690786D01*
X138736337Y-107688190D01*
X138752970Y-107667549D01*
X138844475Y-107576042D01*
X138844479Y-107576039D01*
X138861918Y-107558600D01*
X138861919Y-107558600D01*
X138973723Y-107446796D01*
X139052780Y-107309864D01*
X139093703Y-107157137D01*
X139093703Y-106544733D01*
X139113388Y-106477694D01*
X139114601Y-106475842D01*
X139202593Y-106344153D01*
X139202593Y-106344152D01*
X139202597Y-106344147D01*
X139262940Y-106198465D01*
X139293703Y-106043810D01*
X139293703Y-105886126D01*
X139293703Y-105886123D01*
X139293702Y-105886121D01*
X139288871Y-105861836D01*
X139262940Y-105731471D01*
X139253135Y-105707799D01*
X139202600Y-105585795D01*
X139202593Y-105585782D01*
X139114992Y-105454679D01*
X139114989Y-105454675D01*
X139003495Y-105343181D01*
X139003491Y-105343178D01*
X138872388Y-105255577D01*
X138872375Y-105255570D01*
X138726704Y-105195232D01*
X138726692Y-105195229D01*
X138572048Y-105164468D01*
X138572045Y-105164468D01*
X138414361Y-105164468D01*
X138414358Y-105164468D01*
X138259713Y-105195229D01*
X138259701Y-105195232D01*
X138114030Y-105255570D01*
X138114017Y-105255577D01*
X137982914Y-105343178D01*
X137982910Y-105343181D01*
X137871416Y-105454675D01*
X137871413Y-105454679D01*
X137783812Y-105585782D01*
X137783805Y-105585795D01*
X137723467Y-105731466D01*
X137723464Y-105731476D01*
X137708874Y-105804825D01*
X137694159Y-105832955D01*
X137680970Y-105861836D01*
X137678080Y-105863692D01*
X137676489Y-105866736D01*
X137648896Y-105882448D01*
X137622192Y-105899610D01*
X137617598Y-105900270D01*
X137615773Y-105901310D01*
X137587257Y-105904633D01*
X137390655Y-105904633D01*
X137323616Y-105884948D01*
X137277861Y-105832144D01*
X137266655Y-105780633D01*
X137266654Y-104807262D01*
X137266654Y-104807260D01*
X137261454Y-104758890D01*
X137260246Y-104747649D01*
X137209952Y-104612804D01*
X137209948Y-104612797D01*
X137123702Y-104497588D01*
X137123699Y-104497585D01*
X137008490Y-104411339D01*
X137008483Y-104411335D01*
X136873637Y-104361041D01*
X136873638Y-104361041D01*
X136814038Y-104354634D01*
X136814036Y-104354633D01*
X136814028Y-104354633D01*
X136814019Y-104354633D01*
X135918284Y-104354633D01*
X135918278Y-104354634D01*
X135858671Y-104361041D01*
X135723826Y-104411335D01*
X135723819Y-104411339D01*
X135608610Y-104497585D01*
X135608607Y-104497588D01*
X135522361Y-104612797D01*
X135522357Y-104612804D01*
X135472063Y-104747650D01*
X135465656Y-104807249D01*
X135465656Y-104807257D01*
X135465655Y-104807268D01*
X135465655Y-105903003D01*
X135465656Y-105903009D01*
X135472063Y-105962616D01*
X135522357Y-106097461D01*
X135522361Y-106097468D01*
X135557642Y-106144596D01*
X135608609Y-106212679D01*
X135715966Y-106293046D01*
X135757836Y-106348979D01*
X135765654Y-106392312D01*
X135765654Y-106772452D01*
X135745969Y-106839491D01*
X135693165Y-106885246D01*
X135624007Y-106895190D01*
X135594122Y-106885412D01*
X135593594Y-106886689D01*
X135460486Y-106831554D01*
X135460476Y-106831551D01*
X135325149Y-106804633D01*
X135325147Y-106804633D01*
X135187161Y-106804633D01*
X135187159Y-106804633D01*
X135051831Y-106831551D01*
X135051821Y-106831554D01*
X134924349Y-106884354D01*
X134924336Y-106884361D01*
X134809612Y-106961018D01*
X134809608Y-106961021D01*
X134712042Y-107058587D01*
X134712039Y-107058591D01*
X134635382Y-107173315D01*
X134635375Y-107173328D01*
X134582575Y-107300800D01*
X134582572Y-107300810D01*
X134555654Y-107436137D01*
X134555654Y-107436140D01*
X134555654Y-107574126D01*
X134555654Y-107574128D01*
X134555653Y-107574128D01*
X134582572Y-107709455D01*
X134582575Y-107709465D01*
X134635375Y-107836937D01*
X134635382Y-107836950D01*
X134712039Y-107951674D01*
X134712042Y-107951678D01*
X134809608Y-108049244D01*
X134809612Y-108049247D01*
X134924336Y-108125904D01*
X134924349Y-108125911D01*
X134993819Y-108154686D01*
X135051826Y-108178713D01*
X135104657Y-108189221D01*
X135182538Y-108204714D01*
X135244449Y-108237099D01*
X135279023Y-108297815D01*
X135275284Y-108367584D01*
X135234417Y-108424256D01*
X135227238Y-108429433D01*
X135098914Y-108515177D01*
X135098910Y-108515180D01*
X134987416Y-108626674D01*
X134987413Y-108626678D01*
X134899812Y-108757781D01*
X134899805Y-108757794D01*
X134839467Y-108903465D01*
X134839464Y-108903477D01*
X134808703Y-109058120D01*
X134808703Y-109215813D01*
X134839464Y-109370456D01*
X134839467Y-109370468D01*
X134899805Y-109516139D01*
X134899812Y-109516152D01*
X134987413Y-109647255D01*
X134987416Y-109647259D01*
X135005372Y-109665215D01*
X135038857Y-109726538D01*
X135033873Y-109796230D01*
X134992001Y-109852163D01*
X134965145Y-109867457D01*
X134924343Y-109884358D01*
X134924336Y-109884361D01*
X134809612Y-109961018D01*
X134809608Y-109961021D01*
X134712042Y-110058587D01*
X134712039Y-110058591D01*
X134635382Y-110173315D01*
X134635375Y-110173328D01*
X134582575Y-110300800D01*
X134582572Y-110300810D01*
X134555654Y-110436137D01*
X134555654Y-110436140D01*
X134555654Y-110574126D01*
X134555654Y-110574128D01*
X134555653Y-110574128D01*
X134582572Y-110709455D01*
X134582575Y-110709465D01*
X134635375Y-110836937D01*
X134635382Y-110836950D01*
X134712039Y-110951674D01*
X134712042Y-110951678D01*
X134809608Y-111049244D01*
X134809612Y-111049247D01*
X134924336Y-111125904D01*
X134924349Y-111125911D01*
X135051821Y-111178711D01*
X135051826Y-111178713D01*
X135051830Y-111178713D01*
X135051831Y-111178714D01*
X135187158Y-111205633D01*
X135187161Y-111205633D01*
X135325149Y-111205633D01*
X135416195Y-111187522D01*
X135460482Y-111178713D01*
X135508922Y-111158648D01*
X135593594Y-111123577D01*
X135594640Y-111126102D01*
X135651443Y-111114199D01*
X135716719Y-111139114D01*
X135758163Y-111195366D01*
X135765654Y-111237812D01*
X135765654Y-111617952D01*
X135745969Y-111684991D01*
X135715966Y-111717218D01*
X135608607Y-111797588D01*
X135522361Y-111912797D01*
X135522357Y-111912804D01*
X135472063Y-112047650D01*
X135465656Y-112107249D01*
X135465655Y-112107268D01*
X135465655Y-113203003D01*
X135465656Y-113203009D01*
X135472063Y-113262616D01*
X135522357Y-113397461D01*
X135522361Y-113397468D01*
X135608607Y-113512677D01*
X135608610Y-113512680D01*
X135723819Y-113598926D01*
X135723826Y-113598930D01*
X135858672Y-113649224D01*
X135858671Y-113649224D01*
X135865599Y-113649968D01*
X135918282Y-113655633D01*
X136814027Y-113655632D01*
X136873638Y-113649224D01*
X137008486Y-113598929D01*
X137123701Y-113512679D01*
X137209951Y-113397464D01*
X137260246Y-113262616D01*
X137266655Y-113203006D01*
X137266654Y-112229631D01*
X137269204Y-112220945D01*
X137267916Y-112211985D01*
X137278893Y-112187948D01*
X137286338Y-112162593D01*
X137293180Y-112156664D01*
X137296941Y-112148429D01*
X137319172Y-112134142D01*
X137339142Y-112116838D01*
X137349657Y-112114550D01*
X137355719Y-112110655D01*
X137390654Y-112105632D01*
X137391652Y-112105632D01*
X137458691Y-112125317D01*
X137504446Y-112178121D01*
X137515652Y-112229632D01*
X137515652Y-146900634D01*
X137495967Y-146967673D01*
X137443163Y-147013428D01*
X137391652Y-147024634D01*
X137116150Y-147024634D01*
X137068251Y-147036134D01*
X137066843Y-147036923D01*
X136998732Y-147052501D01*
X136967941Y-147046661D01*
X136900154Y-147024635D01*
X136900153Y-147024635D01*
X136700153Y-147024635D01*
X136694018Y-147025606D01*
X136667554Y-147029798D01*
X136667550Y-147029799D01*
X136610177Y-147071483D01*
X136544370Y-147094962D01*
X136476316Y-147079135D01*
X136436976Y-147044051D01*
X136414566Y-147013206D01*
X136292080Y-146890720D01*
X136151940Y-146788902D01*
X135997597Y-146710261D01*
X135832853Y-146656732D01*
X135832851Y-146656731D01*
X135832850Y-146656731D01*
X135701423Y-146635915D01*
X135661763Y-146629634D01*
X134938541Y-146629634D01*
X134898880Y-146635915D01*
X134767454Y-146656731D01*
X134602704Y-146710262D01*
X134448361Y-146788903D01*
X134415538Y-146812750D01*
X134349731Y-146836228D01*
X134281678Y-146820401D01*
X134232984Y-146770294D01*
X134218655Y-146712433D01*
X134218654Y-113779630D01*
X134238339Y-113712592D01*
X134291143Y-113666837D01*
X134342654Y-113655631D01*
X134604025Y-113655631D01*
X134604026Y-113655631D01*
X134663637Y-113649223D01*
X134798485Y-113598928D01*
X134913700Y-113512678D01*
X134999950Y-113397463D01*
X135050245Y-113262615D01*
X135056654Y-113203005D01*
X135056653Y-112107260D01*
X135050245Y-112047649D01*
X135045538Y-112035030D01*
X134999951Y-111912803D01*
X134999947Y-111912796D01*
X134913701Y-111797587D01*
X134913698Y-111797584D01*
X134798489Y-111711338D01*
X134798482Y-111711334D01*
X134663636Y-111661040D01*
X134663637Y-111661040D01*
X134604037Y-111654633D01*
X134604035Y-111654632D01*
X134604027Y-111654632D01*
X134604019Y-111654632D01*
X134342654Y-111654632D01*
X134275615Y-111634947D01*
X134229860Y-111582143D01*
X134218654Y-111530632D01*
X134218654Y-106479633D01*
X134238339Y-106412594D01*
X134291143Y-106366839D01*
X134342654Y-106355633D01*
X134604025Y-106355633D01*
X134604026Y-106355633D01*
X134663637Y-106349225D01*
X134798485Y-106298930D01*
X134913700Y-106212680D01*
X134999950Y-106097465D01*
X135050245Y-105962617D01*
X135056654Y-105903007D01*
X135056653Y-104807262D01*
X135050245Y-104747651D01*
X135050244Y-104747649D01*
X134999951Y-104612805D01*
X134999947Y-104612798D01*
X134913701Y-104497589D01*
X134913698Y-104497586D01*
X134798489Y-104411340D01*
X134798482Y-104411336D01*
X134663636Y-104361042D01*
X134663637Y-104361042D01*
X134604037Y-104354635D01*
X134604035Y-104354634D01*
X134604027Y-104354634D01*
X134604019Y-104354634D01*
X134342654Y-104354634D01*
X134275615Y-104334949D01*
X134229860Y-104282145D01*
X134218654Y-104230634D01*
X134218654Y-100615851D01*
X134919651Y-100615851D01*
X134919651Y-100828424D01*
X134952904Y-101038377D01*
X135018595Y-101240552D01*
X135115102Y-101429958D01*
X135240041Y-101601924D01*
X135390364Y-101752247D01*
X135562330Y-101877186D01*
X135562332Y-101877187D01*
X135562335Y-101877189D01*
X135751739Y-101973695D01*
X135953908Y-102039384D01*
X136163864Y-102072638D01*
X136163865Y-102072638D01*
X136376437Y-102072638D01*
X136376438Y-102072638D01*
X136586394Y-102039384D01*
X136788563Y-101973695D01*
X136977967Y-101877189D01*
X137080032Y-101803035D01*
X137149937Y-101752247D01*
X137149939Y-101752244D01*
X137149943Y-101752242D01*
X137300255Y-101601930D01*
X137300257Y-101601926D01*
X137300260Y-101601924D01*
X137425199Y-101429958D01*
X137425198Y-101429958D01*
X137425202Y-101429954D01*
X137521708Y-101240550D01*
X137587397Y-101038381D01*
X137620651Y-100828425D01*
X137620651Y-100615851D01*
X137587397Y-100405895D01*
X137521708Y-100203726D01*
X137425202Y-100014322D01*
X137425200Y-100014319D01*
X137425199Y-100014317D01*
X137300260Y-99842351D01*
X137149937Y-99692028D01*
X136977971Y-99567089D01*
X136788565Y-99470582D01*
X136788564Y-99470581D01*
X136788563Y-99470581D01*
X136586394Y-99404892D01*
X136586392Y-99404891D01*
X136586391Y-99404891D01*
X136425108Y-99379346D01*
X136376438Y-99371638D01*
X136163864Y-99371638D01*
X136115193Y-99379346D01*
X135953911Y-99404891D01*
X135751736Y-99470582D01*
X135562330Y-99567089D01*
X135390364Y-99692028D01*
X135240041Y-99842351D01*
X135115102Y-100014317D01*
X135018595Y-100203723D01*
X134952904Y-100405898D01*
X134919651Y-100615851D01*
X134218654Y-100615851D01*
X134218654Y-98014892D01*
X134220179Y-97995507D01*
X134225346Y-97962881D01*
X134237331Y-97925994D01*
X134247842Y-97905365D01*
X134270640Y-97873988D01*
X134287007Y-97857621D01*
X134318388Y-97834822D01*
X134337038Y-97825319D01*
X134339008Y-97824315D01*
X134375904Y-97812326D01*
X134389371Y-97810193D01*
X134408518Y-97807161D01*
X134427915Y-97805634D01*
X159801747Y-97805634D01*
X159868786Y-97825319D01*
G37*
%TD.AperFunction*%
%TA.AperFunction,Conductor*%
G36*
X148593236Y-138202461D02*
G01*
X148649170Y-138244332D01*
X148673587Y-138309796D01*
X148673903Y-138318643D01*
X148673904Y-139095667D01*
X148654220Y-139162706D01*
X148601416Y-139208461D01*
X148549904Y-139219667D01*
X145754061Y-139219667D01*
X145724391Y-139210954D01*
X145694200Y-139204261D01*
X145691160Y-139201197D01*
X145687022Y-139199982D01*
X145666775Y-139176616D01*
X145644993Y-139154659D01*
X145644092Y-139150438D01*
X145641267Y-139147178D01*
X145636866Y-139116570D01*
X145630413Y-139086327D01*
X145631937Y-139082290D01*
X145631323Y-139078020D01*
X145644168Y-139049893D01*
X145655091Y-139020961D01*
X145658931Y-139017566D01*
X145660348Y-139014464D01*
X145680147Y-138996104D01*
X145685877Y-138991849D01*
X145783214Y-138935653D01*
X145839115Y-138879751D01*
X145895018Y-138823850D01*
X145895018Y-138823847D01*
X145905222Y-138813645D01*
X145905226Y-138813640D01*
X146403317Y-138315548D01*
X146464638Y-138282065D01*
X146534330Y-138287049D01*
X146578677Y-138315550D01*
X146598369Y-138335242D01*
X146770335Y-138460181D01*
X146770337Y-138460182D01*
X146770340Y-138460184D01*
X146959744Y-138556690D01*
X147161913Y-138622379D01*
X147371869Y-138655633D01*
X147371870Y-138655633D01*
X147584442Y-138655633D01*
X147584443Y-138655633D01*
X147794399Y-138622379D01*
X147996568Y-138556690D01*
X148185972Y-138460184D01*
X148289950Y-138384640D01*
X148357940Y-138335243D01*
X148357940Y-138335242D01*
X148357948Y-138335237D01*
X148462225Y-138230959D01*
X148523544Y-138197477D01*
X148593236Y-138202461D01*
G37*
%TD.AperFunction*%
%TA.AperFunction,Conductor*%
G36*
X150127706Y-133141151D02*
G01*
X150134184Y-133147183D01*
X150198686Y-133211685D01*
X150255394Y-133244425D01*
X150335617Y-133290742D01*
X150488344Y-133331666D01*
X150488346Y-133331666D01*
X150654055Y-133331666D01*
X150654071Y-133331665D01*
X152874086Y-133331665D01*
X152941125Y-133351350D01*
X152961767Y-133367984D01*
X153237235Y-133643452D01*
X153270720Y-133704775D01*
X153265736Y-133774467D01*
X153223864Y-133830400D01*
X153158400Y-133854817D01*
X153149554Y-133855133D01*
X152808154Y-133855133D01*
X152808154Y-134405133D01*
X153658154Y-134405133D01*
X153658154Y-134363733D01*
X153664392Y-134342487D01*
X153665972Y-134320399D01*
X153674044Y-134309615D01*
X153677839Y-134296694D01*
X153694572Y-134282194D01*
X153707844Y-134264466D01*
X153720464Y-134259758D01*
X153730643Y-134250939D01*
X153752560Y-134247787D01*
X153773308Y-134240049D01*
X153786468Y-134242911D01*
X153799801Y-134240995D01*
X153819944Y-134250194D01*
X153841581Y-134254901D01*
X153859306Y-134268169D01*
X153863357Y-134270020D01*
X153869835Y-134276052D01*
X153961335Y-134367552D01*
X153994820Y-134428875D01*
X153997654Y-134455233D01*
X153997654Y-135003003D01*
X153997655Y-135003009D01*
X154004063Y-135062620D01*
X154005846Y-135070164D01*
X154004382Y-135070509D01*
X154005974Y-135092781D01*
X154010205Y-135123519D01*
X154008611Y-135129686D01*
X154008741Y-135131499D01*
X154007606Y-135133576D01*
X154005058Y-135143440D01*
X154004065Y-135147640D01*
X154004064Y-135147648D01*
X154004064Y-135147649D01*
X153997655Y-135207259D01*
X153997655Y-135207266D01*
X153997655Y-135207267D01*
X153997655Y-135903002D01*
X153997656Y-135903008D01*
X154004063Y-135962615D01*
X154054357Y-136097460D01*
X154054359Y-136097463D01*
X154136198Y-136206786D01*
X154160615Y-136272250D01*
X154145763Y-136340523D01*
X154124613Y-136368778D01*
X154068045Y-136425346D01*
X153943106Y-136597311D01*
X153938637Y-136606083D01*
X153890660Y-136656877D01*
X153822838Y-136673670D01*
X153756704Y-136651130D01*
X153717668Y-136606077D01*
X153713202Y-136597312D01*
X153588263Y-136425346D01*
X153531695Y-136368778D01*
X153498210Y-136307455D01*
X153503194Y-136237763D01*
X153520107Y-136206788D01*
X153601950Y-136097462D01*
X153652245Y-135962614D01*
X153658654Y-135903004D01*
X153658653Y-135207259D01*
X153652245Y-135147648D01*
X153652244Y-135147646D01*
X153652244Y-135147643D01*
X153650462Y-135140100D01*
X153651714Y-135139804D01*
X153650067Y-135116771D01*
X153645836Y-135086030D01*
X153647597Y-135082233D01*
X153647299Y-135078056D01*
X153651286Y-135064478D01*
X153651752Y-135062507D01*
X153658153Y-135002977D01*
X153658154Y-135002960D01*
X153658154Y-134905133D01*
X153567054Y-134905133D01*
X153500015Y-134885448D01*
X153492743Y-134880399D01*
X153400489Y-134811337D01*
X153400482Y-134811333D01*
X153265636Y-134761039D01*
X153265637Y-134761039D01*
X153206037Y-134754632D01*
X153206035Y-134754631D01*
X153206027Y-134754631D01*
X153206019Y-134754631D01*
X151910283Y-134754631D01*
X151910277Y-134754632D01*
X151850670Y-134761039D01*
X151715825Y-134811333D01*
X151715818Y-134811337D01*
X151623565Y-134880399D01*
X151558101Y-134904817D01*
X151549254Y-134905133D01*
X151458154Y-134905133D01*
X151458154Y-135002977D01*
X151464555Y-135062508D01*
X151466340Y-135070060D01*
X151464695Y-135070448D01*
X151469005Y-135130788D01*
X151464094Y-135147517D01*
X151464062Y-135147651D01*
X151457655Y-135207247D01*
X151457655Y-135207254D01*
X151457654Y-135207266D01*
X151457654Y-135368421D01*
X151437969Y-135435460D01*
X151385165Y-135481215D01*
X151316007Y-135491159D01*
X151252451Y-135462134D01*
X151245973Y-135456102D01*
X150972578Y-135182706D01*
X150939093Y-135121383D01*
X150938642Y-135119216D01*
X150915520Y-135002977D01*
X150907741Y-134963870D01*
X150875258Y-134885448D01*
X150847401Y-134818194D01*
X150847394Y-134818181D01*
X150759793Y-134687078D01*
X150759790Y-134687074D01*
X150648296Y-134575580D01*
X150648292Y-134575577D01*
X150517189Y-134487976D01*
X150517176Y-134487969D01*
X150371505Y-134427631D01*
X150371496Y-134427629D01*
X150361302Y-134425601D01*
X150361302Y-134425600D01*
X150216153Y-134396728D01*
X150154242Y-134364343D01*
X150152664Y-134362792D01*
X150097160Y-134307288D01*
X151458154Y-134307288D01*
X151458154Y-134405133D01*
X152308154Y-134405133D01*
X152308154Y-133855133D01*
X151910309Y-133855133D01*
X151850781Y-133861534D01*
X151850774Y-133861536D01*
X151716067Y-133911778D01*
X151716060Y-133911782D01*
X151600966Y-133997942D01*
X151600963Y-133997945D01*
X151514803Y-134113039D01*
X151514799Y-134113046D01*
X151464557Y-134247753D01*
X151464555Y-134247760D01*
X151458154Y-134307288D01*
X150097160Y-134307288D01*
X149902911Y-134113039D01*
X149692339Y-133902467D01*
X149658856Y-133841146D01*
X149663840Y-133771454D01*
X149692342Y-133727106D01*
X149743789Y-133675659D01*
X149743792Y-133675656D01*
X149831397Y-133544546D01*
X149891740Y-133398864D01*
X149922503Y-133244209D01*
X149922503Y-133234864D01*
X149942188Y-133167825D01*
X149994992Y-133122070D01*
X150064150Y-133112126D01*
X150127706Y-133141151D01*
G37*
%TD.AperFunction*%
%TA.AperFunction,Conductor*%
G36*
X145416428Y-109995320D02*
G01*
X145437070Y-110011954D01*
X145694657Y-110269541D01*
X145728142Y-110330864D01*
X145728594Y-110381412D01*
X145719798Y-110425636D01*
X145717648Y-110436443D01*
X145717648Y-110613828D01*
X145752251Y-110787791D01*
X145752254Y-110787800D01*
X145820131Y-110951673D01*
X145820138Y-110951686D01*
X145918683Y-111099167D01*
X145918686Y-111099171D01*
X146044109Y-111224594D01*
X146044113Y-111224597D01*
X146191594Y-111323142D01*
X146191607Y-111323149D01*
X146298535Y-111367439D01*
X146355482Y-111391027D01*
X146355484Y-111391027D01*
X146355489Y-111391029D01*
X146529452Y-111425632D01*
X146529455Y-111425633D01*
X146529457Y-111425633D01*
X146706841Y-111425633D01*
X146706842Y-111425632D01*
X146764830Y-111414097D01*
X146880806Y-111391029D01*
X146880809Y-111391027D01*
X146880814Y-111391027D01*
X147044695Y-111323146D01*
X147192183Y-111224597D01*
X147317612Y-111099168D01*
X147393404Y-110985737D01*
X147447012Y-110940936D01*
X147496498Y-110930631D01*
X152558506Y-110930630D01*
X152674453Y-110930631D01*
X152795298Y-110906594D01*
X152795298Y-110906593D01*
X152795302Y-110906593D01*
X152795305Y-110906591D01*
X152812609Y-110903150D01*
X152823987Y-110894710D01*
X152870072Y-110875621D01*
X152905123Y-110861103D01*
X152908575Y-110859816D01*
X152936177Y-110841373D01*
X153011583Y-110790988D01*
X153098708Y-110703863D01*
X153157267Y-110645304D01*
X153157271Y-110645298D01*
X153223862Y-110578709D01*
X153248597Y-110638425D01*
X153304858Y-110694686D01*
X153378367Y-110725134D01*
X153457931Y-110725134D01*
X153531440Y-110694686D01*
X153539970Y-110686155D01*
X153535745Y-110745244D01*
X153507244Y-110789591D01*
X152981224Y-111315610D01*
X152981224Y-111315611D01*
X152991833Y-111322701D01*
X152991838Y-111322703D01*
X153155628Y-111390547D01*
X153155636Y-111390549D01*
X153329502Y-111425133D01*
X153329506Y-111425134D01*
X153506792Y-111425134D01*
X153506795Y-111425133D01*
X153680661Y-111390549D01*
X153680670Y-111390547D01*
X153720931Y-111373870D01*
X153746565Y-111371113D01*
X153771476Y-111364469D01*
X153780733Y-111367439D01*
X153790401Y-111366400D01*
X153813453Y-111377939D01*
X153838004Y-111385817D01*
X153846410Y-111394435D01*
X153852880Y-111397674D01*
X153864093Y-111409588D01*
X153868750Y-111415241D01*
X153911117Y-111481165D01*
X153952839Y-111517318D01*
X153960107Y-111526140D01*
X153969322Y-111547727D01*
X153983709Y-111570114D01*
X153983709Y-111581427D01*
X153987539Y-111590399D01*
X153983709Y-111613021D01*
X153983709Y-111639984D01*
X153977511Y-111649627D01*
X153975876Y-111659288D01*
X153960354Y-111676324D01*
X153945934Y-111698762D01*
X153935619Y-111703472D01*
X153928819Y-111710936D01*
X153905873Y-111717056D01*
X153882378Y-111727786D01*
X153867171Y-111727379D01*
X153861310Y-111728943D01*
X153855462Y-111727066D01*
X153840555Y-111726668D01*
X153840223Y-111726602D01*
X153840210Y-111726600D01*
X153819994Y-111722579D01*
X153780066Y-111714637D01*
X153656853Y-111714637D01*
X153656851Y-111714637D01*
X153056238Y-111714638D01*
X153056237Y-111714639D01*
X153029627Y-111719932D01*
X153016321Y-111722579D01*
X152947376Y-111736293D01*
X152939204Y-111737097D01*
X152912607Y-111748115D01*
X152912605Y-111748115D01*
X152822245Y-111785544D01*
X152821605Y-111785804D01*
X152821559Y-111785828D01*
X152719113Y-111854280D01*
X152706817Y-111866577D01*
X152638763Y-111934633D01*
X152448078Y-112125317D01*
X152390080Y-112183315D01*
X152328757Y-112216799D01*
X152302399Y-112219633D01*
X146954708Y-112219631D01*
X146907258Y-112210192D01*
X146880816Y-112199240D01*
X146880814Y-112199239D01*
X146880813Y-112199239D01*
X146880808Y-112199237D01*
X146706844Y-112164634D01*
X146706841Y-112164634D01*
X146529459Y-112164634D01*
X146529456Y-112164634D01*
X146355491Y-112199237D01*
X146355487Y-112199239D01*
X146355485Y-112199239D01*
X146355484Y-112199240D01*
X146315086Y-112215973D01*
X146245618Y-112223440D01*
X146183139Y-112192165D01*
X146163321Y-112168451D01*
X146125181Y-112109104D01*
X146125177Y-112109100D01*
X146016448Y-112014885D01*
X146016446Y-112014883D01*
X146016443Y-112014881D01*
X146016439Y-112014879D01*
X145885568Y-111955111D01*
X145885563Y-111955110D01*
X145743149Y-111934635D01*
X144593149Y-111934635D01*
X144593140Y-111934635D01*
X144469883Y-111949895D01*
X144461892Y-111951988D01*
X144461145Y-111949139D01*
X144411633Y-111955262D01*
X144268150Y-111934633D01*
X144018150Y-111934633D01*
X144018147Y-111934633D01*
X143946209Y-111939777D01*
X143808155Y-111980315D01*
X143687119Y-112058100D01*
X143687115Y-112058104D01*
X143595090Y-112164306D01*
X143536312Y-112202080D01*
X143466442Y-112202080D01*
X143413697Y-112170784D01*
X143277937Y-112035024D01*
X143105968Y-111910083D01*
X143097203Y-111905617D01*
X143046408Y-111857642D01*
X143029613Y-111789821D01*
X143052151Y-111723686D01*
X143097207Y-111684647D01*
X143105965Y-111680185D01*
X143202632Y-111609953D01*
X143277933Y-111555244D01*
X143277933Y-111555243D01*
X143277941Y-111555238D01*
X143416164Y-111417014D01*
X143477483Y-111383532D01*
X143547175Y-111388516D01*
X143603109Y-111430387D01*
X143608153Y-111437651D01*
X143636118Y-111481166D01*
X143636119Y-111481167D01*
X143636120Y-111481168D01*
X143744849Y-111575383D01*
X143744855Y-111575388D01*
X143785323Y-111593869D01*
X143875729Y-111635157D01*
X143875732Y-111635157D01*
X143875733Y-111635158D01*
X144018149Y-111655634D01*
X144018152Y-111655634D01*
X144268155Y-111655634D01*
X144270105Y-111655595D01*
X144287989Y-111655245D01*
X144429491Y-111629195D01*
X144557922Y-111564334D01*
X144662878Y-111465917D01*
X145162878Y-110840917D01*
X145219372Y-110753011D01*
X145265295Y-110616656D01*
X145269525Y-110508973D01*
X145270942Y-110472891D01*
X145270941Y-110472890D01*
X145270942Y-110472887D01*
X145235855Y-110333350D01*
X145235852Y-110333346D01*
X145235852Y-110333344D01*
X145162882Y-110209356D01*
X145162510Y-110208891D01*
X145137074Y-110177096D01*
X145131216Y-110162812D01*
X145121108Y-110151146D01*
X145118232Y-110131147D01*
X145110566Y-110112452D01*
X145113361Y-110097268D01*
X145111164Y-110081988D01*
X145119557Y-110063607D01*
X145123216Y-110043737D01*
X145133775Y-110032475D01*
X145140189Y-110018432D01*
X145157187Y-110007507D01*
X145171008Y-109992769D01*
X145186827Y-109988459D01*
X145198967Y-109980658D01*
X145233902Y-109975635D01*
X145349389Y-109975635D01*
X145416428Y-109995320D01*
G37*
%TD.AperFunction*%
%TA.AperFunction,Conductor*%
G36*
X153248597Y-108098425D02*
G01*
X153304858Y-108154686D01*
X153378367Y-108185134D01*
X153457931Y-108185134D01*
X153531440Y-108154686D01*
X153539970Y-108146155D01*
X153535745Y-108205244D01*
X153507244Y-108249591D01*
X152981224Y-108775610D01*
X152981224Y-108775611D01*
X152991833Y-108782701D01*
X152991838Y-108782703D01*
X153155628Y-108850547D01*
X153155636Y-108850549D01*
X153329502Y-108885133D01*
X153329506Y-108885134D01*
X153506792Y-108885134D01*
X153506795Y-108885133D01*
X153680661Y-108850549D01*
X153680665Y-108850548D01*
X153720933Y-108833869D01*
X153724676Y-108833466D01*
X153727739Y-108831282D01*
X153759139Y-108829761D01*
X153790402Y-108826400D01*
X153793766Y-108828084D01*
X153797527Y-108827902D01*
X153824770Y-108843603D01*
X153852882Y-108857674D01*
X153854802Y-108860910D01*
X153858063Y-108862790D01*
X153872702Y-108881390D01*
X153911116Y-108941164D01*
X153911117Y-108941165D01*
X153911118Y-108941166D01*
X153945937Y-108971337D01*
X153983710Y-109030115D01*
X153983710Y-109099985D01*
X153945935Y-109158763D01*
X153882379Y-109187787D01*
X153840542Y-109186666D01*
X153780064Y-109174636D01*
X153780060Y-109174636D01*
X153688141Y-109174636D01*
X153179462Y-109174635D01*
X153179461Y-109174635D01*
X153056248Y-109174634D01*
X152975497Y-109190695D01*
X152975496Y-109190694D01*
X152935407Y-109198669D01*
X152935400Y-109198671D01*
X152821569Y-109245821D01*
X152821566Y-109245823D01*
X152807632Y-109255134D01*
X152780030Y-109273577D01*
X152780029Y-109273577D01*
X152736922Y-109302380D01*
X152736922Y-109302381D01*
X152719118Y-109314276D01*
X152719116Y-109314278D01*
X152631993Y-109401400D01*
X152631992Y-109401401D01*
X152631992Y-109401402D01*
X152390079Y-109643312D01*
X152328755Y-109676796D01*
X152302398Y-109679630D01*
X146954714Y-109679631D01*
X146923622Y-109675670D01*
X146915245Y-109673500D01*
X146880814Y-109659239D01*
X146791907Y-109641554D01*
X146788486Y-109640668D01*
X146761408Y-109624472D01*
X146733476Y-109609861D01*
X146731897Y-109608310D01*
X146146104Y-109022517D01*
X146112619Y-108961194D01*
X146117603Y-108891502D01*
X146159475Y-108835569D01*
X146224939Y-108811152D01*
X146281236Y-108820274D01*
X146355482Y-108851028D01*
X146355484Y-108851028D01*
X146355489Y-108851030D01*
X146529452Y-108885633D01*
X146529455Y-108885634D01*
X146529457Y-108885634D01*
X146706841Y-108885634D01*
X146706842Y-108885633D01*
X146764830Y-108874098D01*
X146880806Y-108851030D01*
X146880809Y-108851028D01*
X146880814Y-108851028D01*
X147044695Y-108783147D01*
X147192183Y-108684598D01*
X147317612Y-108559169D01*
X147393402Y-108445741D01*
X147447014Y-108400936D01*
X147496503Y-108390632D01*
X152533407Y-108390635D01*
X152540417Y-108390637D01*
X152577374Y-108401494D01*
X152607438Y-108410322D01*
X152607444Y-108410328D01*
X152607454Y-108410331D01*
X152607493Y-108410376D01*
X152618462Y-108421150D01*
X152627670Y-108422057D01*
X152628679Y-108421049D01*
X152690002Y-108387564D01*
X152692070Y-108387132D01*
X152795298Y-108366600D01*
X152909132Y-108319449D01*
X153011580Y-108250995D01*
X153223863Y-108038711D01*
X153248597Y-108098425D01*
G37*
%TD.AperFunction*%
%TA.AperFunction,Conductor*%
G36*
X145716961Y-107444876D02*
G01*
X145748758Y-107452992D01*
X145750322Y-107454672D01*
X145752524Y-107455319D01*
X145773997Y-107480100D01*
X145796369Y-107504129D01*
X145796776Y-107506389D01*
X145798279Y-107508123D01*
X145802946Y-107540583D01*
X145808775Y-107572888D01*
X145808017Y-107575854D01*
X145808223Y-107577281D01*
X145800046Y-107607086D01*
X145752254Y-107722466D01*
X145752251Y-107722475D01*
X145717648Y-107896438D01*
X145717648Y-108073829D01*
X145752251Y-108247792D01*
X145752254Y-108247801D01*
X145820131Y-108411674D01*
X145820138Y-108411687D01*
X145918683Y-108559168D01*
X145918686Y-108559172D01*
X145955381Y-108595867D01*
X145988866Y-108657190D01*
X145983882Y-108726882D01*
X145942010Y-108782815D01*
X145876546Y-108807232D01*
X145835607Y-108803323D01*
X145728544Y-108774635D01*
X145728542Y-108774635D01*
X145041899Y-108774635D01*
X144974860Y-108754950D01*
X144929105Y-108702146D01*
X144919161Y-108632988D01*
X144945071Y-108573173D01*
X145000771Y-108503548D01*
X145162877Y-108300916D01*
X145219371Y-108213010D01*
X145265294Y-108076655D01*
X145269328Y-107973959D01*
X145270941Y-107932890D01*
X145270940Y-107932889D01*
X145270941Y-107932886D01*
X145235854Y-107793349D01*
X145235851Y-107793345D01*
X145235851Y-107793343D01*
X145162881Y-107669355D01*
X145161436Y-107667549D01*
X145137073Y-107637095D01*
X145110565Y-107572451D01*
X145123215Y-107503736D01*
X145171007Y-107452768D01*
X145233901Y-107435634D01*
X145685485Y-107435634D01*
X145716961Y-107444876D01*
G37*
%TD.AperFunction*%
%TA.AperFunction,Conductor*%
G36*
X153853157Y-103778101D02*
G01*
X153872977Y-103801817D01*
X153911116Y-103861163D01*
X153911120Y-103861167D01*
X153969977Y-103912167D01*
X154019855Y-103955387D01*
X154019862Y-103955390D01*
X154150729Y-104015156D01*
X154150732Y-104015156D01*
X154150733Y-104015157D01*
X154293149Y-104035633D01*
X154293152Y-104035633D01*
X155443146Y-104035633D01*
X155443149Y-104035633D01*
X155566419Y-104020372D01*
X155566427Y-104020368D01*
X155574403Y-104018280D01*
X155575154Y-104021148D01*
X155624665Y-104015005D01*
X155625731Y-104015158D01*
X155625733Y-104015159D01*
X155768149Y-104035635D01*
X155768152Y-104035635D01*
X156018149Y-104035635D01*
X156090089Y-104030490D01*
X156228141Y-103989954D01*
X156349181Y-103912166D01*
X156441210Y-103805959D01*
X156499986Y-103768187D01*
X156569856Y-103768187D01*
X156622602Y-103799483D01*
X156758362Y-103935243D01*
X156930328Y-104060182D01*
X156930330Y-104060183D01*
X156930333Y-104060185D01*
X156939091Y-104064647D01*
X156989888Y-104112621D01*
X157006684Y-104180441D01*
X156984148Y-104246577D01*
X156939101Y-104285614D01*
X156930331Y-104290083D01*
X156758365Y-104415022D01*
X156620136Y-104553251D01*
X156558813Y-104586735D01*
X156489121Y-104581751D01*
X156433188Y-104539879D01*
X156428148Y-104532621D01*
X156400180Y-104489102D01*
X156341322Y-104438101D01*
X156291448Y-104394884D01*
X156291446Y-104394882D01*
X156291443Y-104394880D01*
X156291439Y-104394878D01*
X156160568Y-104335110D01*
X156160563Y-104335109D01*
X156018149Y-104314634D01*
X155768149Y-104314634D01*
X155768143Y-104314634D01*
X155754922Y-104314893D01*
X155748309Y-104315023D01*
X155748307Y-104315023D01*
X155606802Y-104341074D01*
X155478380Y-104405931D01*
X155478375Y-104405934D01*
X155380634Y-104497586D01*
X155373420Y-104504351D01*
X155286658Y-104612804D01*
X154873423Y-105129347D01*
X154873414Y-105129360D01*
X154816924Y-105217259D01*
X154816924Y-105217260D01*
X154771003Y-105353610D01*
X154771002Y-105353612D01*
X154765355Y-105497376D01*
X154765356Y-105497380D01*
X154765356Y-105497381D01*
X154777238Y-105544635D01*
X154800442Y-105636915D01*
X154800445Y-105636923D01*
X154873415Y-105760910D01*
X154873418Y-105760914D01*
X154873420Y-105760917D01*
X155099736Y-106043812D01*
X155358157Y-106366839D01*
X155373420Y-106385917D01*
X155386118Y-106401166D01*
X155494855Y-106495388D01*
X155497391Y-106496546D01*
X155625729Y-106555157D01*
X155625732Y-106555157D01*
X155625733Y-106555158D01*
X155768149Y-106575634D01*
X155768152Y-106575634D01*
X156018149Y-106575634D01*
X156090089Y-106570489D01*
X156228141Y-106529953D01*
X156349181Y-106452165D01*
X156441212Y-106345956D01*
X156499986Y-106308185D01*
X156569856Y-106308185D01*
X156622602Y-106339481D01*
X156758363Y-106475242D01*
X156930332Y-106600183D01*
X156939096Y-106604649D01*
X156989892Y-106652624D01*
X157006686Y-106720445D01*
X156984148Y-106786580D01*
X156939099Y-106825615D01*
X156930336Y-106830080D01*
X156930333Y-106830082D01*
X156758364Y-106955023D01*
X156620137Y-107093250D01*
X156558814Y-107126734D01*
X156489122Y-107121750D01*
X156433189Y-107079878D01*
X156428149Y-107072620D01*
X156400181Y-107029101D01*
X156346194Y-106982321D01*
X156291449Y-106934883D01*
X156291447Y-106934881D01*
X156291444Y-106934879D01*
X156291440Y-106934877D01*
X156160569Y-106875109D01*
X156160564Y-106875108D01*
X156018150Y-106854633D01*
X155768150Y-106854633D01*
X155768144Y-106854633D01*
X155754923Y-106854892D01*
X155748310Y-106855022D01*
X155748308Y-106855022D01*
X155699640Y-106863982D01*
X155635277Y-106875830D01*
X155594723Y-106873730D01*
X155594344Y-106876372D01*
X155443149Y-106854634D01*
X154293149Y-106854634D01*
X154293141Y-106854634D01*
X154260408Y-106856975D01*
X154192136Y-106842122D01*
X154163882Y-106820971D01*
X154117193Y-106774281D01*
X154117189Y-106774278D01*
X154014748Y-106705828D01*
X154014741Y-106705824D01*
X153984261Y-106693199D01*
X153953780Y-106680574D01*
X153953778Y-106680572D01*
X153900913Y-106658675D01*
X153900881Y-106658668D01*
X153780067Y-106634637D01*
X153780063Y-106634637D01*
X153674772Y-106634637D01*
X153185590Y-106634637D01*
X153185580Y-106634634D01*
X153185580Y-106634636D01*
X153056238Y-106634636D01*
X152952594Y-106655252D01*
X152952593Y-106655253D01*
X152935397Y-106658674D01*
X152935396Y-106658674D01*
X152935393Y-106658675D01*
X152913152Y-106667888D01*
X152821565Y-106705824D01*
X152821563Y-106705825D01*
X152780028Y-106733578D01*
X152719115Y-106774278D01*
X152688761Y-106804633D01*
X152631991Y-106861403D01*
X152631989Y-106861405D01*
X152442661Y-107050732D01*
X152390076Y-107103317D01*
X152328753Y-107136801D01*
X152302395Y-107139635D01*
X147221584Y-107139632D01*
X147154544Y-107119947D01*
X147114197Y-107077631D01*
X147098667Y-107050732D01*
X147030256Y-106982321D01*
X147028241Y-106978631D01*
X147024693Y-106976380D01*
X147011641Y-106948229D01*
X146996772Y-106920997D01*
X146997071Y-106916805D01*
X146995304Y-106912992D01*
X146999543Y-106882254D01*
X147001757Y-106851306D01*
X147004275Y-106847941D01*
X147004850Y-106843777D01*
X147025035Y-106820208D01*
X147043628Y-106795372D01*
X147048344Y-106792994D01*
X147050300Y-106790711D01*
X147063672Y-106785267D01*
X147082320Y-106775866D01*
X147087961Y-106774174D01*
X147100908Y-106771599D01*
X147100909Y-106771598D01*
X147100911Y-106771598D01*
X147138382Y-106756077D01*
X147214742Y-106724448D01*
X147287134Y-106676077D01*
X147317192Y-106655993D01*
X147404317Y-106568868D01*
X147404317Y-106568867D01*
X147572019Y-106401166D01*
X147636233Y-106336953D01*
X147697556Y-106303469D01*
X147723914Y-106300635D01*
X153105732Y-106300635D01*
X153149626Y-106309366D01*
X153149659Y-106309259D01*
X153150751Y-106309590D01*
X153153185Y-106310074D01*
X153155482Y-106311026D01*
X153155484Y-106311026D01*
X153155489Y-106311028D01*
X153329452Y-106345631D01*
X153329455Y-106345632D01*
X153329457Y-106345632D01*
X153506841Y-106345632D01*
X153506842Y-106345631D01*
X153564830Y-106334096D01*
X153680806Y-106311028D01*
X153680809Y-106311026D01*
X153680814Y-106311026D01*
X153844695Y-106243145D01*
X153992183Y-106144596D01*
X154117612Y-106019167D01*
X154216161Y-105871679D01*
X154218209Y-105866736D01*
X154232537Y-105832144D01*
X154284042Y-105707798D01*
X154318648Y-105533823D01*
X154318648Y-105356441D01*
X154318648Y-105356438D01*
X154318647Y-105356436D01*
X154284044Y-105182473D01*
X154284041Y-105182464D01*
X154216164Y-105018591D01*
X154216157Y-105018578D01*
X154117612Y-104871097D01*
X154117609Y-104871093D01*
X153992186Y-104745670D01*
X153992182Y-104745667D01*
X153844701Y-104647122D01*
X153844688Y-104647115D01*
X153680815Y-104579238D01*
X153680806Y-104579235D01*
X153506842Y-104544632D01*
X153506839Y-104544632D01*
X153329457Y-104544632D01*
X153329454Y-104544632D01*
X153155489Y-104579235D01*
X153155480Y-104579238D01*
X152991607Y-104647115D01*
X152991594Y-104647122D01*
X152844113Y-104745667D01*
X152844109Y-104745670D01*
X152718686Y-104871093D01*
X152718683Y-104871097D01*
X152636211Y-104994526D01*
X152582599Y-105039331D01*
X152533109Y-105049635D01*
X147475073Y-105049635D01*
X147351859Y-105049634D01*
X147324023Y-105055170D01*
X147324015Y-105055171D01*
X147233192Y-105073237D01*
X147231279Y-105073582D01*
X147231005Y-105073673D01*
X147231001Y-105073675D01*
X147178146Y-105095568D01*
X147178143Y-105095569D01*
X147178141Y-105095571D01*
X147121246Y-105119138D01*
X147113008Y-105122212D01*
X147108429Y-105123738D01*
X147098562Y-105133261D01*
X147014730Y-105189276D01*
X147014726Y-105189279D01*
X146950657Y-105253349D01*
X146950657Y-105253350D01*
X146812440Y-105391565D01*
X146787702Y-105331841D01*
X146731441Y-105275580D01*
X146657932Y-105245132D01*
X146578368Y-105245132D01*
X146504859Y-105275580D01*
X146496325Y-105284113D01*
X146500552Y-105225020D01*
X146529053Y-105180673D01*
X147055072Y-104654654D01*
X147044461Y-104647562D01*
X146880670Y-104579718D01*
X146880662Y-104579716D01*
X146706796Y-104545132D01*
X146529503Y-104545132D01*
X146355638Y-104579716D01*
X146355626Y-104579719D01*
X146315359Y-104596398D01*
X146307495Y-104597243D01*
X146300766Y-104601404D01*
X146273246Y-104600924D01*
X146245890Y-104603865D01*
X146238817Y-104600324D01*
X146230907Y-104600187D01*
X146208016Y-104584906D01*
X146183411Y-104572589D01*
X146179374Y-104565785D01*
X146172796Y-104561394D01*
X146163600Y-104548885D01*
X146125180Y-104489102D01*
X146090356Y-104458927D01*
X146052584Y-104400150D01*
X146052584Y-104330281D01*
X146090359Y-104271503D01*
X146153914Y-104242478D01*
X146195753Y-104243599D01*
X146256234Y-104255630D01*
X146359637Y-104255630D01*
X146832186Y-104255633D01*
X146832191Y-104255635D01*
X146856851Y-104255635D01*
X146876654Y-104255635D01*
X146980058Y-104255636D01*
X146980063Y-104255635D01*
X146980064Y-104255635D01*
X146980074Y-104255632D01*
X146980146Y-104255626D01*
X146980178Y-104255612D01*
X146999556Y-104251757D01*
X147100904Y-104231600D01*
X147214738Y-104184448D01*
X147214737Y-104184448D01*
X147214743Y-104184446D01*
X147214749Y-104184441D01*
X147218339Y-104182955D01*
X147218340Y-104182954D01*
X147261120Y-104165235D01*
X147279993Y-104140941D01*
X147283610Y-104138429D01*
X147299389Y-104127887D01*
X147310728Y-104120311D01*
X147313148Y-104118905D01*
X147315386Y-104117292D01*
X147317537Y-104115798D01*
X147319912Y-104113270D01*
X147372998Y-104060185D01*
X147404312Y-104028872D01*
X147404314Y-104028868D01*
X147636231Y-103796951D01*
X147697554Y-103763466D01*
X147723912Y-103760632D01*
X153105717Y-103760632D01*
X153149618Y-103769366D01*
X153149651Y-103769260D01*
X153150728Y-103769586D01*
X153153177Y-103770074D01*
X153155480Y-103771028D01*
X153155481Y-103771028D01*
X153155483Y-103771029D01*
X153155487Y-103771029D01*
X153155488Y-103771030D01*
X153329453Y-103805634D01*
X153329456Y-103805635D01*
X153329458Y-103805635D01*
X153506842Y-103805635D01*
X153506843Y-103805634D01*
X153610981Y-103784920D01*
X153680807Y-103771031D01*
X153680810Y-103771029D01*
X153680815Y-103771029D01*
X153721210Y-103754296D01*
X153790677Y-103746827D01*
X153853157Y-103778101D01*
G37*
%TD.AperFunction*%
%TD*%
M02*
