M48
; DRILL file KiCad 10.0.4 date 2026-08-03T15:36:25
; FORMAT={-:-/ absolute / metric / decimal}
; #@! TF.CreationDate,2026-08-03T15:36:25-06:00
; #@! TF.GenerationSoftware,Kicad,Pcbnew,10.0.4
; #@! TF.FileFunction,Plated,1,2,PTH
FMAT,2
METRIC
; #@! TA.AperFunction,Plated,PTH,ViaDrill
T1C0.300
; #@! TA.AperFunction,Plated,PTH,ComponentDrill
T2C0.300
; #@! TA.AperFunction,Plated,PTH,ComponentDrill
T3C0.400
; #@! TA.AperFunction,Plated,PTH,ComponentDrill
T4C0.750
; #@! TA.AperFunction,Plated,PTH,ComponentDrill
T5C1.000
; #@! TA.AperFunction,Plated,PTH,ComponentDrill
T6C1.500
; #@! TA.AperFunction,Plated,PTH,ComponentDrill
T7C2.200
%
G90
G05
T1
X135.589Y-194.011
X135.609Y-109.137
X136.11Y-158.21
X136.155Y-194.577
X136.371Y-148.761
X138.493Y-105.965
X139.216Y-147.694
X142.522Y-200.944
X143.25Y-201.672
X143.686Y-147.135
X145.743Y-132.715
X148.493Y-138.715
X149.122Y-133.165
X149.271Y-149.326
X149.274Y-146.577
X149.376Y-148.151
X150.087Y-132.251
X150.138Y-135.197
X150.189Y-133.673
X151.049Y-117.176
X153.266Y-180.333
X153.666Y-181.026
X155.472Y-147.034
X158.169Y-188.825
X158.683Y-189.716
X159.743Y-169.215
X162.993Y-122.965
X162.993Y-160.715
X162.993Y-158.465
X164.743Y-99.715
X165.743Y-98.965
X166.243Y-186.215
X167.023Y-104.959
X172.243Y-166.215
X173.851Y-171.693
X174.018Y-112.73
X174.018Y-132.53
X174.018Y-113.53
X174.018Y-123.564
X174.018Y-150.73
X174.018Y-160.535
X174.018Y-131.73
X174.018Y-141.535
X174.018Y-161.564
X174.018Y-142.564
X174.018Y-151.53
X174.018Y-122.535
X174.058Y-172.466
X176.389Y-181.164
X176.655Y-182.158
X183.743Y-165.465
X186.493Y-165.715
X193.018Y-118.535
X193.018Y-109.53
X193.018Y-119.564
X193.018Y-128.53
X193.018Y-137.535
X193.018Y-138.564
X193.018Y-157.564
X193.018Y-147.53
X193.018Y-108.73
X193.018Y-127.73
X193.018Y-146.73
X193.018Y-156.535
X195.968Y-168.68
X195.968Y-169.48
X195.968Y-179.514
X195.968Y-178.485
X201.243Y-105.715
X212.018Y-118.73
X212.018Y-138.53
X212.018Y-109.535
X212.018Y-148.564
X212.018Y-99.73
X212.018Y-129.564
X212.018Y-100.53
X212.018Y-137.73
X212.018Y-110.564
X212.018Y-147.535
X212.018Y-119.53
X212.018Y-128.535
X215.993Y-112.715
X218.993Y-111.715
X230.533Y-158.847
X230.604Y-157.821
X231.233Y-148.838
X231.288Y-148.04
X231.858Y-139.893
X231.93Y-138.867
X232.558Y-129.884
X232.614Y-129.086
X233.183Y-120.94
X233.255Y-119.913
X233.883Y-110.93
X233.939Y-110.132
X247.698Y-172.803
X247.876Y-171.79
X249.44Y-162.922
X249.579Y-162.134
X250.997Y-154.092
X251.176Y-153.079
X252.739Y-144.211
X252.878Y-143.423
X254.296Y-135.381
X254.475Y-134.367
X256.039Y-125.499
X256.178Y-124.711
X260.011Y-147.897
X263.311Y-129.185
X267.277Y-171.179
X267.456Y-170.165
X269.02Y-161.297
X269.159Y-160.509
X270.577Y-152.467
X270.755Y-151.454
X272.319Y-142.586
X272.458Y-141.798
X276.908Y-164.47
X279.924Y-145.823
T2
X143.173Y-203.928
X145.506Y-201.595
X152.18Y-151.817
X155.48Y-151.817
X158.025Y-191.875
X160.883Y-190.225
X172.368Y-125.105
X172.368Y-144.105
X172.368Y-163.105
X175.46Y-184.074
X175.668Y-125.105
X175.668Y-144.105
X175.668Y-163.105
X178.648Y-183.22
X191.368Y-140.105
X191.368Y-121.105
X191.368Y-159.105
X194.318Y-181.055
X194.668Y-140.105
X194.668Y-121.105
X194.668Y-159.105
X197.618Y-181.055
X210.368Y-131.105
X210.368Y-112.105
X210.368Y-150.105
X213.668Y-131.105
X213.668Y-112.105
X213.668Y-150.105
X228.779Y-160.269
X230.105Y-141.316
X231.43Y-122.362
X232.071Y-160.5
X233.397Y-141.546
X234.722Y-122.592
X245.805Y-174.035
X249.055Y-174.608
X249.105Y-155.323
X252.354Y-155.896
X252.404Y-136.612
X255.654Y-137.185
X265.385Y-172.41
X268.635Y-172.983
X268.684Y-153.698
X271.934Y-154.271
T3
X146.618Y-107.985
X146.618Y-110.525
X146.618Y-115.605
X146.618Y-118.145
X146.618Y-120.685
X146.618Y-123.225
X146.618Y-128.305
X146.618Y-130.845
X146.618Y-105.445
X146.618Y-113.065
X146.618Y-125.765
X146.618Y-102.905
X153.418Y-128.305
X153.418Y-105.445
X153.418Y-118.145
X153.418Y-125.765
X153.418Y-102.905
X153.418Y-107.985
X153.418Y-110.525
X153.418Y-113.065
X153.418Y-130.845
X153.418Y-115.605
X153.418Y-120.685
X153.418Y-123.225
T4
X135.3Y-147.73
X135.3Y-149.73
T5
X141.04Y-156.307
X141.04Y-158.807
X141.04Y-161.307
X142.398Y-105.445
X142.398Y-125.765
X142.398Y-102.905
X142.398Y-107.985
X142.398Y-110.525
X142.398Y-115.605
X142.398Y-118.145
X142.398Y-123.225
X142.398Y-128.305
X142.398Y-130.845
X142.398Y-120.685
X142.398Y-113.065
X144.938Y-137.305
X145.618Y-143.405
X147.478Y-137.305
X148.158Y-143.405
X150.018Y-137.305
X150.698Y-143.405
X152.558Y-137.305
X153.238Y-143.405
X155.098Y-137.305
X155.54Y-156.307
X155.54Y-161.307
X157.638Y-118.145
X157.638Y-110.525
X157.638Y-102.905
X157.638Y-107.985
X157.638Y-113.065
X157.638Y-115.605
X157.638Y-120.685
X157.638Y-123.225
X157.638Y-128.305
X157.638Y-130.845
X157.638Y-105.445
X157.638Y-125.765
T7
X183.506Y-140.33
X202.556Y-121.28
X221.606Y-140.33
T5
G00X136.826Y-170.125
M15
G01X137.326Y-170.125
M16
G05
G00X136.826Y-176.075
M15
G01X137.326Y-176.075
M16
G05
G00X139.826Y-170.125
M15
G01X140.326Y-170.125
M16
G05
G00X139.826Y-176.075
M15
G01X140.326Y-176.075
M16
G05
G00X143.826Y-170.125
M15
G01X144.326Y-170.125
M16
G05
G00X143.826Y-176.075
M15
G01X144.326Y-176.075
M16
G05
G00X145.326Y-171.875
M15
G01X145.826Y-171.875
M16
G05
G00X145.326Y-174.325
M15
G01X145.826Y-174.325
M16
G05
T6
G00X147.89Y-153.207
M15
G01X149.19Y-153.207
M16
G05
G00X147.89Y-164.407
M15
G01X149.19Y-164.407
M16
G05
M30
