%TF.GenerationSoftware,KiCad,Pcbnew,10.0.4*%
%TF.CreationDate,2026-08-03T15:36:27-06:00*%
%TF.ProjectId,KLON -nice_view - Copy,4b4c4f4e-202d-46e6-9963-655f76696577,v1.0.0*%
%TF.SameCoordinates,Original*%
%TF.FileFunction,Legend,Bot*%
%TF.FilePolarity,Positive*%
%FSLAX46Y46*%
G04 Gerber Fmt 4.6, Leading zero omitted, Abs format (unit mm)*
G04 Created by KiCad (PCBNEW 10.0.4) date 2026-08-03 15:36:27*
%MOMM*%
%LPD*%
G01*
G04 APERTURE LIST*
%ADD10C,0.150000*%
%ADD11C,2.000000*%
%ADD12C,0.100000*%
%ADD13C,0.120000*%
G04 APERTURE END LIST*
D10*
X172287376Y-102523595D02*
X172287376Y-101023595D01*
X171430233Y-102523595D02*
X172073090Y-101666452D01*
X171430233Y-101023595D02*
X172287376Y-101880738D01*
X170073090Y-102523595D02*
X170787376Y-102523595D01*
X170787376Y-102523595D02*
X170787376Y-101023595D01*
X169287375Y-101023595D02*
X169001661Y-101023595D01*
X169001661Y-101023595D02*
X168858804Y-101095024D01*
X168858804Y-101095024D02*
X168715947Y-101237881D01*
X168715947Y-101237881D02*
X168644518Y-101523595D01*
X168644518Y-101523595D02*
X168644518Y-102023595D01*
X168644518Y-102023595D02*
X168715947Y-102309309D01*
X168715947Y-102309309D02*
X168858804Y-102452167D01*
X168858804Y-102452167D02*
X169001661Y-102523595D01*
X169001661Y-102523595D02*
X169287375Y-102523595D01*
X169287375Y-102523595D02*
X169430233Y-102452167D01*
X169430233Y-102452167D02*
X169573090Y-102309309D01*
X169573090Y-102309309D02*
X169644518Y-102023595D01*
X169644518Y-102023595D02*
X169644518Y-101523595D01*
X169644518Y-101523595D02*
X169573090Y-101237881D01*
X169573090Y-101237881D02*
X169430233Y-101095024D01*
X169430233Y-101095024D02*
X169287375Y-101023595D01*
X168001661Y-102523595D02*
X168001661Y-101023595D01*
X168001661Y-101023595D02*
X167144518Y-102523595D01*
X167144518Y-102523595D02*
X167144518Y-101023595D01*
X180618076Y-101433286D02*
X180884743Y-101052333D01*
X181075219Y-101433286D02*
X181075219Y-100633286D01*
X181075219Y-100633286D02*
X180770457Y-100633286D01*
X180770457Y-100633286D02*
X180694267Y-100671381D01*
X180694267Y-100671381D02*
X180656172Y-100709476D01*
X180656172Y-100709476D02*
X180618076Y-100785667D01*
X180618076Y-100785667D02*
X180618076Y-100899952D01*
X180618076Y-100899952D02*
X180656172Y-100976143D01*
X180656172Y-100976143D02*
X180694267Y-101014238D01*
X180694267Y-101014238D02*
X180770457Y-101052333D01*
X180770457Y-101052333D02*
X181075219Y-101052333D01*
X180275219Y-101014238D02*
X180008553Y-101014238D01*
X179894267Y-101433286D02*
X180275219Y-101433286D01*
X180275219Y-101433286D02*
X180275219Y-100633286D01*
X180275219Y-100633286D02*
X179894267Y-100633286D01*
X179665695Y-100633286D02*
X179399028Y-101433286D01*
X179399028Y-101433286D02*
X179132362Y-100633286D01*
X178865695Y-101433286D02*
X178865695Y-100633286D01*
X178522839Y-101395191D02*
X178408553Y-101433286D01*
X178408553Y-101433286D02*
X178218077Y-101433286D01*
X178218077Y-101433286D02*
X178141886Y-101395191D01*
X178141886Y-101395191D02*
X178103791Y-101357095D01*
X178103791Y-101357095D02*
X178065696Y-101280905D01*
X178065696Y-101280905D02*
X178065696Y-101204714D01*
X178065696Y-101204714D02*
X178103791Y-101128524D01*
X178103791Y-101128524D02*
X178141886Y-101090429D01*
X178141886Y-101090429D02*
X178218077Y-101052333D01*
X178218077Y-101052333D02*
X178370458Y-101014238D01*
X178370458Y-101014238D02*
X178446648Y-100976143D01*
X178446648Y-100976143D02*
X178484743Y-100938048D01*
X178484743Y-100938048D02*
X178522839Y-100861857D01*
X178522839Y-100861857D02*
X178522839Y-100785667D01*
X178522839Y-100785667D02*
X178484743Y-100709476D01*
X178484743Y-100709476D02*
X178446648Y-100671381D01*
X178446648Y-100671381D02*
X178370458Y-100633286D01*
X178370458Y-100633286D02*
X178179981Y-100633286D01*
X178179981Y-100633286D02*
X178065696Y-100671381D01*
X177722838Y-101433286D02*
X177722838Y-100633286D01*
X177189505Y-100633286D02*
X177037124Y-100633286D01*
X177037124Y-100633286D02*
X176960934Y-100671381D01*
X176960934Y-100671381D02*
X176884743Y-100747571D01*
X176884743Y-100747571D02*
X176846648Y-100899952D01*
X176846648Y-100899952D02*
X176846648Y-101166619D01*
X176846648Y-101166619D02*
X176884743Y-101319000D01*
X176884743Y-101319000D02*
X176960934Y-101395191D01*
X176960934Y-101395191D02*
X177037124Y-101433286D01*
X177037124Y-101433286D02*
X177189505Y-101433286D01*
X177189505Y-101433286D02*
X177265696Y-101395191D01*
X177265696Y-101395191D02*
X177341886Y-101319000D01*
X177341886Y-101319000D02*
X177379982Y-101166619D01*
X177379982Y-101166619D02*
X177379982Y-100899952D01*
X177379982Y-100899952D02*
X177341886Y-100747571D01*
X177341886Y-100747571D02*
X177265696Y-100671381D01*
X177265696Y-100671381D02*
X177189505Y-100633286D01*
X176503791Y-101433286D02*
X176503791Y-100633286D01*
X176503791Y-100633286D02*
X176046648Y-101433286D01*
X176046648Y-101433286D02*
X176046648Y-100633286D01*
X174637125Y-101433286D02*
X175094268Y-101433286D01*
X174865696Y-101433286D02*
X174865696Y-100633286D01*
X174865696Y-100633286D02*
X174941887Y-100747571D01*
X174941887Y-100747571D02*
X175018077Y-100823762D01*
X175018077Y-100823762D02*
X175094268Y-100861857D01*
X174294267Y-101357095D02*
X174256172Y-101395191D01*
X174256172Y-101395191D02*
X174294267Y-101433286D01*
X174294267Y-101433286D02*
X174332363Y-101395191D01*
X174332363Y-101395191D02*
X174294267Y-101357095D01*
X174294267Y-101357095D02*
X174294267Y-101433286D01*
X173570458Y-100899952D02*
X173570458Y-101433286D01*
X173760934Y-100595191D02*
X173951411Y-101166619D01*
X173951411Y-101166619D02*
X173456172Y-101166619D01*
X190256175Y-102302193D02*
X190141889Y-102340288D01*
X190141889Y-102340288D02*
X190103794Y-102378384D01*
X190103794Y-102378384D02*
X190065698Y-102454574D01*
X190065698Y-102454574D02*
X190065698Y-102568860D01*
X190065698Y-102568860D02*
X190103794Y-102645050D01*
X190103794Y-102645050D02*
X190141889Y-102683146D01*
X190141889Y-102683146D02*
X190218079Y-102721241D01*
X190218079Y-102721241D02*
X190522841Y-102721241D01*
X190522841Y-102721241D02*
X190522841Y-101921241D01*
X190522841Y-101921241D02*
X190256175Y-101921241D01*
X190256175Y-101921241D02*
X190179984Y-101959336D01*
X190179984Y-101959336D02*
X190141889Y-101997431D01*
X190141889Y-101997431D02*
X190103794Y-102073622D01*
X190103794Y-102073622D02*
X190103794Y-102149812D01*
X190103794Y-102149812D02*
X190141889Y-102226003D01*
X190141889Y-102226003D02*
X190179984Y-102264098D01*
X190179984Y-102264098D02*
X190256175Y-102302193D01*
X190256175Y-102302193D02*
X190522841Y-102302193D01*
X189570460Y-102340288D02*
X189570460Y-102721241D01*
X189837127Y-101921241D02*
X189570460Y-102340288D01*
X189570460Y-102340288D02*
X189303794Y-101921241D01*
X188008556Y-101959336D02*
X188084746Y-101921241D01*
X188084746Y-101921241D02*
X188199032Y-101921241D01*
X188199032Y-101921241D02*
X188313318Y-101959336D01*
X188313318Y-101959336D02*
X188389508Y-102035526D01*
X188389508Y-102035526D02*
X188427603Y-102111717D01*
X188427603Y-102111717D02*
X188465699Y-102264098D01*
X188465699Y-102264098D02*
X188465699Y-102378384D01*
X188465699Y-102378384D02*
X188427603Y-102530765D01*
X188427603Y-102530765D02*
X188389508Y-102606955D01*
X188389508Y-102606955D02*
X188313318Y-102683146D01*
X188313318Y-102683146D02*
X188199032Y-102721241D01*
X188199032Y-102721241D02*
X188122841Y-102721241D01*
X188122841Y-102721241D02*
X188008556Y-102683146D01*
X188008556Y-102683146D02*
X187970460Y-102645050D01*
X187970460Y-102645050D02*
X187970460Y-102378384D01*
X187970460Y-102378384D02*
X188122841Y-102378384D01*
X187627603Y-102302193D02*
X187360937Y-102302193D01*
X187246651Y-102721241D02*
X187627603Y-102721241D01*
X187627603Y-102721241D02*
X187627603Y-101921241D01*
X187627603Y-101921241D02*
X187246651Y-101921241D01*
X186903793Y-102721241D02*
X186903793Y-101921241D01*
X186560937Y-102683146D02*
X186446651Y-102721241D01*
X186446651Y-102721241D02*
X186256175Y-102721241D01*
X186256175Y-102721241D02*
X186179984Y-102683146D01*
X186179984Y-102683146D02*
X186141889Y-102645050D01*
X186141889Y-102645050D02*
X186103794Y-102568860D01*
X186103794Y-102568860D02*
X186103794Y-102492669D01*
X186103794Y-102492669D02*
X186141889Y-102416479D01*
X186141889Y-102416479D02*
X186179984Y-102378384D01*
X186179984Y-102378384D02*
X186256175Y-102340288D01*
X186256175Y-102340288D02*
X186408556Y-102302193D01*
X186408556Y-102302193D02*
X186484746Y-102264098D01*
X186484746Y-102264098D02*
X186522841Y-102226003D01*
X186522841Y-102226003D02*
X186560937Y-102149812D01*
X186560937Y-102149812D02*
X186560937Y-102073622D01*
X186560937Y-102073622D02*
X186522841Y-101997431D01*
X186522841Y-101997431D02*
X186484746Y-101959336D01*
X186484746Y-101959336D02*
X186408556Y-101921241D01*
X186408556Y-101921241D02*
X186218079Y-101921241D01*
X186218079Y-101921241D02*
X186103794Y-101959336D01*
X185875222Y-101921241D02*
X185418079Y-101921241D01*
X185646651Y-102721241D02*
X185646651Y-101921241D01*
X184541888Y-102416479D02*
X183932365Y-102416479D01*
X184237126Y-102721241D02*
X184237126Y-102111717D01*
X183056174Y-101921241D02*
X182599031Y-101921241D01*
X182827603Y-102721241D02*
X182827603Y-101921241D01*
X182332364Y-102721241D02*
X182332364Y-101921241D01*
X182332364Y-102302193D02*
X181875221Y-102302193D01*
X181875221Y-102721241D02*
X181875221Y-101921241D01*
X181494269Y-102302193D02*
X181227603Y-102302193D01*
X181113317Y-102721241D02*
X181494269Y-102721241D01*
X181494269Y-102721241D02*
X181494269Y-101921241D01*
X181494269Y-101921241D02*
X181113317Y-101921241D01*
X180503793Y-102302193D02*
X180389507Y-102340288D01*
X180389507Y-102340288D02*
X180351412Y-102378384D01*
X180351412Y-102378384D02*
X180313316Y-102454574D01*
X180313316Y-102454574D02*
X180313316Y-102568860D01*
X180313316Y-102568860D02*
X180351412Y-102645050D01*
X180351412Y-102645050D02*
X180389507Y-102683146D01*
X180389507Y-102683146D02*
X180465697Y-102721241D01*
X180465697Y-102721241D02*
X180770459Y-102721241D01*
X180770459Y-102721241D02*
X180770459Y-101921241D01*
X180770459Y-101921241D02*
X180503793Y-101921241D01*
X180503793Y-101921241D02*
X180427602Y-101959336D01*
X180427602Y-101959336D02*
X180389507Y-101997431D01*
X180389507Y-101997431D02*
X180351412Y-102073622D01*
X180351412Y-102073622D02*
X180351412Y-102149812D01*
X180351412Y-102149812D02*
X180389507Y-102226003D01*
X180389507Y-102226003D02*
X180427602Y-102264098D01*
X180427602Y-102264098D02*
X180503793Y-102302193D01*
X180503793Y-102302193D02*
X180770459Y-102302193D01*
X179818078Y-101921241D02*
X179741888Y-101921241D01*
X179741888Y-101921241D02*
X179665697Y-101959336D01*
X179665697Y-101959336D02*
X179627602Y-101997431D01*
X179627602Y-101997431D02*
X179589507Y-102073622D01*
X179589507Y-102073622D02*
X179551412Y-102226003D01*
X179551412Y-102226003D02*
X179551412Y-102416479D01*
X179551412Y-102416479D02*
X179589507Y-102568860D01*
X179589507Y-102568860D02*
X179627602Y-102645050D01*
X179627602Y-102645050D02*
X179665697Y-102683146D01*
X179665697Y-102683146D02*
X179741888Y-102721241D01*
X179741888Y-102721241D02*
X179818078Y-102721241D01*
X179818078Y-102721241D02*
X179894269Y-102683146D01*
X179894269Y-102683146D02*
X179932364Y-102645050D01*
X179932364Y-102645050D02*
X179970459Y-102568860D01*
X179970459Y-102568860D02*
X180008555Y-102416479D01*
X180008555Y-102416479D02*
X180008555Y-102226003D01*
X180008555Y-102226003D02*
X179970459Y-102073622D01*
X179970459Y-102073622D02*
X179932364Y-101997431D01*
X179932364Y-101997431D02*
X179894269Y-101959336D01*
X179894269Y-101959336D02*
X179818078Y-101921241D01*
X178941888Y-102302193D02*
X178827602Y-102340288D01*
X178827602Y-102340288D02*
X178789507Y-102378384D01*
X178789507Y-102378384D02*
X178751411Y-102454574D01*
X178751411Y-102454574D02*
X178751411Y-102568860D01*
X178751411Y-102568860D02*
X178789507Y-102645050D01*
X178789507Y-102645050D02*
X178827602Y-102683146D01*
X178827602Y-102683146D02*
X178903792Y-102721241D01*
X178903792Y-102721241D02*
X179208554Y-102721241D01*
X179208554Y-102721241D02*
X179208554Y-101921241D01*
X179208554Y-101921241D02*
X178941888Y-101921241D01*
X178941888Y-101921241D02*
X178865697Y-101959336D01*
X178865697Y-101959336D02*
X178827602Y-101997431D01*
X178827602Y-101997431D02*
X178789507Y-102073622D01*
X178789507Y-102073622D02*
X178789507Y-102149812D01*
X178789507Y-102149812D02*
X178827602Y-102226003D01*
X178827602Y-102226003D02*
X178865697Y-102264098D01*
X178865697Y-102264098D02*
X178941888Y-102302193D01*
X178941888Y-102302193D02*
X179208554Y-102302193D01*
X178370459Y-102683146D02*
X178370459Y-102721241D01*
X178370459Y-102721241D02*
X178408554Y-102797431D01*
X178408554Y-102797431D02*
X178446650Y-102835526D01*
X177075221Y-102721241D02*
X177075221Y-102302193D01*
X177075221Y-102302193D02*
X177113316Y-102226003D01*
X177113316Y-102226003D02*
X177189507Y-102187907D01*
X177189507Y-102187907D02*
X177341888Y-102187907D01*
X177341888Y-102187907D02*
X177418078Y-102226003D01*
X177075221Y-102683146D02*
X177151412Y-102721241D01*
X177151412Y-102721241D02*
X177341888Y-102721241D01*
X177341888Y-102721241D02*
X177418078Y-102683146D01*
X177418078Y-102683146D02*
X177456174Y-102606955D01*
X177456174Y-102606955D02*
X177456174Y-102530765D01*
X177456174Y-102530765D02*
X177418078Y-102454574D01*
X177418078Y-102454574D02*
X177341888Y-102416479D01*
X177341888Y-102416479D02*
X177151412Y-102416479D01*
X177151412Y-102416479D02*
X177075221Y-102378384D01*
X176694268Y-102187907D02*
X176694268Y-102721241D01*
X176694268Y-102264098D02*
X176656173Y-102226003D01*
X176656173Y-102226003D02*
X176579983Y-102187907D01*
X176579983Y-102187907D02*
X176465697Y-102187907D01*
X176465697Y-102187907D02*
X176389506Y-102226003D01*
X176389506Y-102226003D02*
X176351411Y-102302193D01*
X176351411Y-102302193D02*
X176351411Y-102721241D01*
X175627601Y-102721241D02*
X175627601Y-101921241D01*
X175627601Y-102683146D02*
X175703792Y-102721241D01*
X175703792Y-102721241D02*
X175856173Y-102721241D01*
X175856173Y-102721241D02*
X175932363Y-102683146D01*
X175932363Y-102683146D02*
X175970458Y-102645050D01*
X175970458Y-102645050D02*
X176008554Y-102568860D01*
X176008554Y-102568860D02*
X176008554Y-102340288D01*
X176008554Y-102340288D02*
X175970458Y-102264098D01*
X175970458Y-102264098D02*
X175932363Y-102226003D01*
X175932363Y-102226003D02*
X175856173Y-102187907D01*
X175856173Y-102187907D02*
X175703792Y-102187907D01*
X175703792Y-102187907D02*
X175627601Y-102226003D01*
X174256172Y-102721241D02*
X174637124Y-102721241D01*
X174637124Y-102721241D02*
X174637124Y-101921241D01*
X173989505Y-101921241D02*
X173989505Y-102568860D01*
X173989505Y-102568860D02*
X173951410Y-102645050D01*
X173951410Y-102645050D02*
X173913315Y-102683146D01*
X173913315Y-102683146D02*
X173837124Y-102721241D01*
X173837124Y-102721241D02*
X173684743Y-102721241D01*
X173684743Y-102721241D02*
X173608553Y-102683146D01*
X173608553Y-102683146D02*
X173570458Y-102645050D01*
X173570458Y-102645050D02*
X173532362Y-102568860D01*
X173532362Y-102568860D02*
X173532362Y-101921241D01*
X142602727Y-137543928D02*
X142602727Y-138077262D01*
X142602727Y-137620119D02*
X142564632Y-137582024D01*
X142564632Y-137582024D02*
X142488442Y-137543928D01*
X142488442Y-137543928D02*
X142374156Y-137543928D01*
X142374156Y-137543928D02*
X142297965Y-137582024D01*
X142297965Y-137582024D02*
X142259870Y-137658214D01*
X142259870Y-137658214D02*
X142259870Y-138077262D01*
X141878917Y-138077262D02*
X141878917Y-137543928D01*
X141878917Y-137277262D02*
X141917013Y-137315357D01*
X141917013Y-137315357D02*
X141878917Y-137353452D01*
X141878917Y-137353452D02*
X141840822Y-137315357D01*
X141840822Y-137315357D02*
X141878917Y-137277262D01*
X141878917Y-137277262D02*
X141878917Y-137353452D01*
X141155108Y-138039167D02*
X141231299Y-138077262D01*
X141231299Y-138077262D02*
X141383680Y-138077262D01*
X141383680Y-138077262D02*
X141459870Y-138039167D01*
X141459870Y-138039167D02*
X141497965Y-138001071D01*
X141497965Y-138001071D02*
X141536061Y-137924881D01*
X141536061Y-137924881D02*
X141536061Y-137696309D01*
X141536061Y-137696309D02*
X141497965Y-137620119D01*
X141497965Y-137620119D02*
X141459870Y-137582024D01*
X141459870Y-137582024D02*
X141383680Y-137543928D01*
X141383680Y-137543928D02*
X141231299Y-137543928D01*
X141231299Y-137543928D02*
X141155108Y-137582024D01*
X140507489Y-138039167D02*
X140583680Y-138077262D01*
X140583680Y-138077262D02*
X140736061Y-138077262D01*
X140736061Y-138077262D02*
X140812251Y-138039167D01*
X140812251Y-138039167D02*
X140850347Y-137962976D01*
X140850347Y-137962976D02*
X140850347Y-137658214D01*
X140850347Y-137658214D02*
X140812251Y-137582024D01*
X140812251Y-137582024D02*
X140736061Y-137543928D01*
X140736061Y-137543928D02*
X140583680Y-137543928D01*
X140583680Y-137543928D02*
X140507489Y-137582024D01*
X140507489Y-137582024D02*
X140469394Y-137658214D01*
X140469394Y-137658214D02*
X140469394Y-137734405D01*
X140469394Y-137734405D02*
X140850347Y-137810595D01*
X140317014Y-138153452D02*
X139707490Y-138153452D01*
X139593204Y-137543928D02*
X139402728Y-138077262D01*
X139402728Y-138077262D02*
X139212251Y-137543928D01*
X138907489Y-138077262D02*
X138907489Y-137543928D01*
X138907489Y-137277262D02*
X138945585Y-137315357D01*
X138945585Y-137315357D02*
X138907489Y-137353452D01*
X138907489Y-137353452D02*
X138869394Y-137315357D01*
X138869394Y-137315357D02*
X138907489Y-137277262D01*
X138907489Y-137277262D02*
X138907489Y-137353452D01*
X138221775Y-138039167D02*
X138297966Y-138077262D01*
X138297966Y-138077262D02*
X138450347Y-138077262D01*
X138450347Y-138077262D02*
X138526537Y-138039167D01*
X138526537Y-138039167D02*
X138564633Y-137962976D01*
X138564633Y-137962976D02*
X138564633Y-137658214D01*
X138564633Y-137658214D02*
X138526537Y-137582024D01*
X138526537Y-137582024D02*
X138450347Y-137543928D01*
X138450347Y-137543928D02*
X138297966Y-137543928D01*
X138297966Y-137543928D02*
X138221775Y-137582024D01*
X138221775Y-137582024D02*
X138183680Y-137658214D01*
X138183680Y-137658214D02*
X138183680Y-137734405D01*
X138183680Y-137734405D02*
X138564633Y-137810595D01*
X137917014Y-137543928D02*
X137764633Y-138077262D01*
X137764633Y-138077262D02*
X137612252Y-137696309D01*
X137612252Y-137696309D02*
X137459871Y-138077262D01*
X137459871Y-138077262D02*
X137307490Y-137543928D01*
X143026538Y-144039169D02*
X142912252Y-144077264D01*
X142912252Y-144077264D02*
X142721776Y-144077264D01*
X142721776Y-144077264D02*
X142645585Y-144039169D01*
X142645585Y-144039169D02*
X142607490Y-144001073D01*
X142607490Y-144001073D02*
X142569395Y-143924883D01*
X142569395Y-143924883D02*
X142569395Y-143848692D01*
X142569395Y-143848692D02*
X142607490Y-143772502D01*
X142607490Y-143772502D02*
X142645585Y-143734407D01*
X142645585Y-143734407D02*
X142721776Y-143696311D01*
X142721776Y-143696311D02*
X142874157Y-143658216D01*
X142874157Y-143658216D02*
X142950347Y-143620121D01*
X142950347Y-143620121D02*
X142988442Y-143582026D01*
X142988442Y-143582026D02*
X143026538Y-143505835D01*
X143026538Y-143505835D02*
X143026538Y-143429645D01*
X143026538Y-143429645D02*
X142988442Y-143353454D01*
X142988442Y-143353454D02*
X142950347Y-143315359D01*
X142950347Y-143315359D02*
X142874157Y-143277264D01*
X142874157Y-143277264D02*
X142683680Y-143277264D01*
X142683680Y-143277264D02*
X142569395Y-143315359D01*
X142264633Y-144039169D02*
X142150347Y-144077264D01*
X142150347Y-144077264D02*
X141959871Y-144077264D01*
X141959871Y-144077264D02*
X141883680Y-144039169D01*
X141883680Y-144039169D02*
X141845585Y-144001073D01*
X141845585Y-144001073D02*
X141807490Y-143924883D01*
X141807490Y-143924883D02*
X141807490Y-143848692D01*
X141807490Y-143848692D02*
X141845585Y-143772502D01*
X141845585Y-143772502D02*
X141883680Y-143734407D01*
X141883680Y-143734407D02*
X141959871Y-143696311D01*
X141959871Y-143696311D02*
X142112252Y-143658216D01*
X142112252Y-143658216D02*
X142188442Y-143620121D01*
X142188442Y-143620121D02*
X142226537Y-143582026D01*
X142226537Y-143582026D02*
X142264633Y-143505835D01*
X142264633Y-143505835D02*
X142264633Y-143429645D01*
X142264633Y-143429645D02*
X142226537Y-143353454D01*
X142226537Y-143353454D02*
X142188442Y-143315359D01*
X142188442Y-143315359D02*
X142112252Y-143277264D01*
X142112252Y-143277264D02*
X141921775Y-143277264D01*
X141921775Y-143277264D02*
X141807490Y-143315359D01*
X141464632Y-144077264D02*
X141464632Y-143277264D01*
X141464632Y-143277264D02*
X141274156Y-143277264D01*
X141274156Y-143277264D02*
X141159870Y-143315359D01*
X141159870Y-143315359D02*
X141083680Y-143391549D01*
X141083680Y-143391549D02*
X141045585Y-143467740D01*
X141045585Y-143467740D02*
X141007489Y-143620121D01*
X141007489Y-143620121D02*
X141007489Y-143734407D01*
X141007489Y-143734407D02*
X141045585Y-143886788D01*
X141045585Y-143886788D02*
X141083680Y-143962978D01*
X141083680Y-143962978D02*
X141159870Y-144039169D01*
X141159870Y-144039169D02*
X141274156Y-144077264D01*
X141274156Y-144077264D02*
X141464632Y-144077264D01*
X140245585Y-144077264D02*
X140702728Y-144077264D01*
X140474156Y-144077264D02*
X140474156Y-143277264D01*
X140474156Y-143277264D02*
X140550347Y-143391549D01*
X140550347Y-143391549D02*
X140626537Y-143467740D01*
X140626537Y-143467740D02*
X140702728Y-143505835D01*
X139978918Y-143277264D02*
X139483680Y-143277264D01*
X139483680Y-143277264D02*
X139750346Y-143582026D01*
X139750346Y-143582026D02*
X139636061Y-143582026D01*
X139636061Y-143582026D02*
X139559870Y-143620121D01*
X139559870Y-143620121D02*
X139521775Y-143658216D01*
X139521775Y-143658216D02*
X139483680Y-143734407D01*
X139483680Y-143734407D02*
X139483680Y-143924883D01*
X139483680Y-143924883D02*
X139521775Y-144001073D01*
X139521775Y-144001073D02*
X139559870Y-144039169D01*
X139559870Y-144039169D02*
X139636061Y-144077264D01*
X139636061Y-144077264D02*
X139864632Y-144077264D01*
X139864632Y-144077264D02*
X139940823Y-144039169D01*
X139940823Y-144039169D02*
X139978918Y-144001073D01*
X138988441Y-143277264D02*
X138912251Y-143277264D01*
X138912251Y-143277264D02*
X138836060Y-143315359D01*
X138836060Y-143315359D02*
X138797965Y-143353454D01*
X138797965Y-143353454D02*
X138759870Y-143429645D01*
X138759870Y-143429645D02*
X138721775Y-143582026D01*
X138721775Y-143582026D02*
X138721775Y-143772502D01*
X138721775Y-143772502D02*
X138759870Y-143924883D01*
X138759870Y-143924883D02*
X138797965Y-144001073D01*
X138797965Y-144001073D02*
X138836060Y-144039169D01*
X138836060Y-144039169D02*
X138912251Y-144077264D01*
X138912251Y-144077264D02*
X138988441Y-144077264D01*
X138988441Y-144077264D02*
X139064632Y-144039169D01*
X139064632Y-144039169D02*
X139102727Y-144001073D01*
X139102727Y-144001073D02*
X139140822Y-143924883D01*
X139140822Y-143924883D02*
X139178918Y-143772502D01*
X139178918Y-143772502D02*
X139178918Y-143582026D01*
X139178918Y-143582026D02*
X139140822Y-143429645D01*
X139140822Y-143429645D02*
X139102727Y-143353454D01*
X139102727Y-143353454D02*
X139064632Y-143315359D01*
X139064632Y-143315359D02*
X138988441Y-143277264D01*
X138036060Y-143277264D02*
X138188441Y-143277264D01*
X138188441Y-143277264D02*
X138264632Y-143315359D01*
X138264632Y-143315359D02*
X138302727Y-143353454D01*
X138302727Y-143353454D02*
X138378917Y-143467740D01*
X138378917Y-143467740D02*
X138417013Y-143620121D01*
X138417013Y-143620121D02*
X138417013Y-143924883D01*
X138417013Y-143924883D02*
X138378917Y-144001073D01*
X138378917Y-144001073D02*
X138340822Y-144039169D01*
X138340822Y-144039169D02*
X138264632Y-144077264D01*
X138264632Y-144077264D02*
X138112251Y-144077264D01*
X138112251Y-144077264D02*
X138036060Y-144039169D01*
X138036060Y-144039169D02*
X137997965Y-144001073D01*
X137997965Y-144001073D02*
X137959870Y-143924883D01*
X137959870Y-143924883D02*
X137959870Y-143734407D01*
X137959870Y-143734407D02*
X137997965Y-143658216D01*
X137997965Y-143658216D02*
X138036060Y-143620121D01*
X138036060Y-143620121D02*
X138112251Y-143582026D01*
X138112251Y-143582026D02*
X138264632Y-143582026D01*
X138264632Y-143582026D02*
X138340822Y-143620121D01*
X138340822Y-143620121D02*
X138378917Y-143658216D01*
X138378917Y-143658216D02*
X138417013Y-143734407D01*
X150731298Y-167145976D02*
X150397965Y-167145976D01*
X150255108Y-167669786D02*
X150731298Y-167669786D01*
X150731298Y-167669786D02*
X150731298Y-166669786D01*
X150731298Y-166669786D02*
X150255108Y-166669786D01*
X149826536Y-167003119D02*
X149826536Y-167669786D01*
X149826536Y-167098357D02*
X149778917Y-167050738D01*
X149778917Y-167050738D02*
X149683679Y-167003119D01*
X149683679Y-167003119D02*
X149540822Y-167003119D01*
X149540822Y-167003119D02*
X149445584Y-167050738D01*
X149445584Y-167050738D02*
X149397965Y-167145976D01*
X149397965Y-167145976D02*
X149397965Y-167669786D01*
X148493203Y-167622167D02*
X148588441Y-167669786D01*
X148588441Y-167669786D02*
X148778917Y-167669786D01*
X148778917Y-167669786D02*
X148874155Y-167622167D01*
X148874155Y-167622167D02*
X148921774Y-167574547D01*
X148921774Y-167574547D02*
X148969393Y-167479309D01*
X148969393Y-167479309D02*
X148969393Y-167193595D01*
X148969393Y-167193595D02*
X148921774Y-167098357D01*
X148921774Y-167098357D02*
X148874155Y-167050738D01*
X148874155Y-167050738D02*
X148778917Y-167003119D01*
X148778917Y-167003119D02*
X148588441Y-167003119D01*
X148588441Y-167003119D02*
X148493203Y-167050738D01*
X147921774Y-167669786D02*
X148017012Y-167622167D01*
X148017012Y-167622167D02*
X148064631Y-167574547D01*
X148064631Y-167574547D02*
X148112250Y-167479309D01*
X148112250Y-167479309D02*
X148112250Y-167193595D01*
X148112250Y-167193595D02*
X148064631Y-167098357D01*
X148064631Y-167098357D02*
X148017012Y-167050738D01*
X148017012Y-167050738D02*
X147921774Y-167003119D01*
X147921774Y-167003119D02*
X147778917Y-167003119D01*
X147778917Y-167003119D02*
X147683679Y-167050738D01*
X147683679Y-167050738D02*
X147636060Y-167098357D01*
X147636060Y-167098357D02*
X147588441Y-167193595D01*
X147588441Y-167193595D02*
X147588441Y-167479309D01*
X147588441Y-167479309D02*
X147636060Y-167574547D01*
X147636060Y-167574547D02*
X147683679Y-167622167D01*
X147683679Y-167622167D02*
X147778917Y-167669786D01*
X147778917Y-167669786D02*
X147921774Y-167669786D01*
X146731298Y-167669786D02*
X146731298Y-166669786D01*
X146731298Y-167622167D02*
X146826536Y-167669786D01*
X146826536Y-167669786D02*
X147017012Y-167669786D01*
X147017012Y-167669786D02*
X147112250Y-167622167D01*
X147112250Y-167622167D02*
X147159869Y-167574547D01*
X147159869Y-167574547D02*
X147207488Y-167479309D01*
X147207488Y-167479309D02*
X147207488Y-167193595D01*
X147207488Y-167193595D02*
X147159869Y-167098357D01*
X147159869Y-167098357D02*
X147112250Y-167050738D01*
X147112250Y-167050738D02*
X147017012Y-167003119D01*
X147017012Y-167003119D02*
X146826536Y-167003119D01*
X146826536Y-167003119D02*
X146731298Y-167050738D01*
X145874155Y-167622167D02*
X145969393Y-167669786D01*
X145969393Y-167669786D02*
X146159869Y-167669786D01*
X146159869Y-167669786D02*
X146255107Y-167622167D01*
X146255107Y-167622167D02*
X146302726Y-167526928D01*
X146302726Y-167526928D02*
X146302726Y-167145976D01*
X146302726Y-167145976D02*
X146255107Y-167050738D01*
X146255107Y-167050738D02*
X146159869Y-167003119D01*
X146159869Y-167003119D02*
X145969393Y-167003119D01*
X145969393Y-167003119D02*
X145874155Y-167050738D01*
X145874155Y-167050738D02*
X145826536Y-167145976D01*
X145826536Y-167145976D02*
X145826536Y-167241214D01*
X145826536Y-167241214D02*
X146302726Y-167336452D01*
X145397964Y-167669786D02*
X145397964Y-167003119D01*
X145397964Y-167193595D02*
X145350345Y-167098357D01*
X145350345Y-167098357D02*
X145302726Y-167050738D01*
X145302726Y-167050738D02*
X145207488Y-167003119D01*
X145207488Y-167003119D02*
X145112250Y-167003119D01*
D11*
X238772652Y-154991920D02*
X238772652Y-104991920D01*
X210201223Y-154991920D02*
X231629794Y-126420491D01*
X210201223Y-104991920D02*
X238772652Y-133563348D01*
X172713129Y-166991920D02*
X196522653Y-166991920D01*
X196522653Y-166991920D02*
X196522653Y-116991920D01*
D10*
X148716243Y-103359953D02*
X148716243Y-102359953D01*
X148716243Y-102359953D02*
X148335291Y-102359953D01*
X148335291Y-102359953D02*
X148240053Y-102407572D01*
X148240053Y-102407572D02*
X148192434Y-102455191D01*
X148192434Y-102455191D02*
X148144815Y-102550429D01*
X148144815Y-102550429D02*
X148144815Y-102693286D01*
X148144815Y-102693286D02*
X148192434Y-102788524D01*
X148192434Y-102788524D02*
X148240053Y-102836143D01*
X148240053Y-102836143D02*
X148335291Y-102883762D01*
X148335291Y-102883762D02*
X148716243Y-102883762D01*
X147192434Y-103359953D02*
X147763862Y-103359953D01*
X147478148Y-103359953D02*
X147478148Y-102359953D01*
X147478148Y-102359953D02*
X147573386Y-102502810D01*
X147573386Y-102502810D02*
X147668624Y-102598048D01*
X147668624Y-102598048D02*
X147763862Y-102645667D01*
X148716243Y-105899954D02*
X148716243Y-104899954D01*
X148716243Y-104899954D02*
X148335291Y-104899954D01*
X148335291Y-104899954D02*
X148240053Y-104947573D01*
X148240053Y-104947573D02*
X148192434Y-104995192D01*
X148192434Y-104995192D02*
X148144815Y-105090430D01*
X148144815Y-105090430D02*
X148144815Y-105233287D01*
X148144815Y-105233287D02*
X148192434Y-105328525D01*
X148192434Y-105328525D02*
X148240053Y-105376144D01*
X148240053Y-105376144D02*
X148335291Y-105423763D01*
X148335291Y-105423763D02*
X148716243Y-105423763D01*
X147525767Y-104899954D02*
X147430529Y-104899954D01*
X147430529Y-104899954D02*
X147335291Y-104947573D01*
X147335291Y-104947573D02*
X147287672Y-104995192D01*
X147287672Y-104995192D02*
X147240053Y-105090430D01*
X147240053Y-105090430D02*
X147192434Y-105280906D01*
X147192434Y-105280906D02*
X147192434Y-105519001D01*
X147192434Y-105519001D02*
X147240053Y-105709477D01*
X147240053Y-105709477D02*
X147287672Y-105804715D01*
X147287672Y-105804715D02*
X147335291Y-105852335D01*
X147335291Y-105852335D02*
X147430529Y-105899954D01*
X147430529Y-105899954D02*
X147525767Y-105899954D01*
X147525767Y-105899954D02*
X147621005Y-105852335D01*
X147621005Y-105852335D02*
X147668624Y-105804715D01*
X147668624Y-105804715D02*
X147716243Y-105709477D01*
X147716243Y-105709477D02*
X147763862Y-105519001D01*
X147763862Y-105519001D02*
X147763862Y-105280906D01*
X147763862Y-105280906D02*
X147716243Y-105090430D01*
X147716243Y-105090430D02*
X147668624Y-104995192D01*
X147668624Y-104995192D02*
X147621005Y-104947573D01*
X147621005Y-104947573D02*
X147525767Y-104899954D01*
X148716243Y-113519953D02*
X148716243Y-112519953D01*
X148716243Y-112519953D02*
X148335291Y-112519953D01*
X148335291Y-112519953D02*
X148240053Y-112567572D01*
X148240053Y-112567572D02*
X148192434Y-112615191D01*
X148192434Y-112615191D02*
X148144815Y-112710429D01*
X148144815Y-112710429D02*
X148144815Y-112853286D01*
X148144815Y-112853286D02*
X148192434Y-112948524D01*
X148192434Y-112948524D02*
X148240053Y-112996143D01*
X148240053Y-112996143D02*
X148335291Y-113043762D01*
X148335291Y-113043762D02*
X148716243Y-113043762D01*
X147763862Y-112615191D02*
X147716243Y-112567572D01*
X147716243Y-112567572D02*
X147621005Y-112519953D01*
X147621005Y-112519953D02*
X147382910Y-112519953D01*
X147382910Y-112519953D02*
X147287672Y-112567572D01*
X147287672Y-112567572D02*
X147240053Y-112615191D01*
X147240053Y-112615191D02*
X147192434Y-112710429D01*
X147192434Y-112710429D02*
X147192434Y-112805667D01*
X147192434Y-112805667D02*
X147240053Y-112948524D01*
X147240053Y-112948524D02*
X147811481Y-113519953D01*
X147811481Y-113519953D02*
X147192434Y-113519953D01*
X148716243Y-116059953D02*
X148716243Y-115059953D01*
X148716243Y-115059953D02*
X148335291Y-115059953D01*
X148335291Y-115059953D02*
X148240053Y-115107572D01*
X148240053Y-115107572D02*
X148192434Y-115155191D01*
X148192434Y-115155191D02*
X148144815Y-115250429D01*
X148144815Y-115250429D02*
X148144815Y-115393286D01*
X148144815Y-115393286D02*
X148192434Y-115488524D01*
X148192434Y-115488524D02*
X148240053Y-115536143D01*
X148240053Y-115536143D02*
X148335291Y-115583762D01*
X148335291Y-115583762D02*
X148716243Y-115583762D01*
X147811481Y-115059953D02*
X147192434Y-115059953D01*
X147192434Y-115059953D02*
X147525767Y-115440905D01*
X147525767Y-115440905D02*
X147382910Y-115440905D01*
X147382910Y-115440905D02*
X147287672Y-115488524D01*
X147287672Y-115488524D02*
X147240053Y-115536143D01*
X147240053Y-115536143D02*
X147192434Y-115631381D01*
X147192434Y-115631381D02*
X147192434Y-115869476D01*
X147192434Y-115869476D02*
X147240053Y-115964714D01*
X147240053Y-115964714D02*
X147287672Y-116012334D01*
X147287672Y-116012334D02*
X147382910Y-116059953D01*
X147382910Y-116059953D02*
X147668624Y-116059953D01*
X147668624Y-116059953D02*
X147763862Y-116012334D01*
X147763862Y-116012334D02*
X147811481Y-115964714D01*
X148716243Y-118599953D02*
X148716243Y-117599953D01*
X148716243Y-117599953D02*
X148335291Y-117599953D01*
X148335291Y-117599953D02*
X148240053Y-117647572D01*
X148240053Y-117647572D02*
X148192434Y-117695191D01*
X148192434Y-117695191D02*
X148144815Y-117790429D01*
X148144815Y-117790429D02*
X148144815Y-117933286D01*
X148144815Y-117933286D02*
X148192434Y-118028524D01*
X148192434Y-118028524D02*
X148240053Y-118076143D01*
X148240053Y-118076143D02*
X148335291Y-118123762D01*
X148335291Y-118123762D02*
X148716243Y-118123762D01*
X147287672Y-117933286D02*
X147287672Y-118599953D01*
X147525767Y-117552334D02*
X147763862Y-118266619D01*
X147763862Y-118266619D02*
X147144815Y-118266619D01*
X148716243Y-123679953D02*
X148716243Y-122679953D01*
X148716243Y-122679953D02*
X148335291Y-122679953D01*
X148335291Y-122679953D02*
X148240053Y-122727572D01*
X148240053Y-122727572D02*
X148192434Y-122775191D01*
X148192434Y-122775191D02*
X148144815Y-122870429D01*
X148144815Y-122870429D02*
X148144815Y-123013286D01*
X148144815Y-123013286D02*
X148192434Y-123108524D01*
X148192434Y-123108524D02*
X148240053Y-123156143D01*
X148240053Y-123156143D02*
X148335291Y-123203762D01*
X148335291Y-123203762D02*
X148716243Y-123203762D01*
X147287672Y-122679953D02*
X147478148Y-122679953D01*
X147478148Y-122679953D02*
X147573386Y-122727572D01*
X147573386Y-122727572D02*
X147621005Y-122775191D01*
X147621005Y-122775191D02*
X147716243Y-122918048D01*
X147716243Y-122918048D02*
X147763862Y-123108524D01*
X147763862Y-123108524D02*
X147763862Y-123489476D01*
X147763862Y-123489476D02*
X147716243Y-123584714D01*
X147716243Y-123584714D02*
X147668624Y-123632334D01*
X147668624Y-123632334D02*
X147573386Y-123679953D01*
X147573386Y-123679953D02*
X147382910Y-123679953D01*
X147382910Y-123679953D02*
X147287672Y-123632334D01*
X147287672Y-123632334D02*
X147240053Y-123584714D01*
X147240053Y-123584714D02*
X147192434Y-123489476D01*
X147192434Y-123489476D02*
X147192434Y-123251381D01*
X147192434Y-123251381D02*
X147240053Y-123156143D01*
X147240053Y-123156143D02*
X147287672Y-123108524D01*
X147287672Y-123108524D02*
X147382910Y-123060905D01*
X147382910Y-123060905D02*
X147573386Y-123060905D01*
X147573386Y-123060905D02*
X147668624Y-123108524D01*
X147668624Y-123108524D02*
X147716243Y-123156143D01*
X147716243Y-123156143D02*
X147763862Y-123251381D01*
X148716243Y-126219952D02*
X148716243Y-125219952D01*
X148716243Y-125219952D02*
X148335291Y-125219952D01*
X148335291Y-125219952D02*
X148240053Y-125267571D01*
X148240053Y-125267571D02*
X148192434Y-125315190D01*
X148192434Y-125315190D02*
X148144815Y-125410428D01*
X148144815Y-125410428D02*
X148144815Y-125553285D01*
X148144815Y-125553285D02*
X148192434Y-125648523D01*
X148192434Y-125648523D02*
X148240053Y-125696142D01*
X148240053Y-125696142D02*
X148335291Y-125743761D01*
X148335291Y-125743761D02*
X148716243Y-125743761D01*
X147811481Y-125219952D02*
X147144815Y-125219952D01*
X147144815Y-125219952D02*
X147573386Y-126219952D01*
X148716243Y-128759953D02*
X148716243Y-127759953D01*
X148716243Y-127759953D02*
X148335291Y-127759953D01*
X148335291Y-127759953D02*
X148240053Y-127807572D01*
X148240053Y-127807572D02*
X148192434Y-127855191D01*
X148192434Y-127855191D02*
X148144815Y-127950429D01*
X148144815Y-127950429D02*
X148144815Y-128093286D01*
X148144815Y-128093286D02*
X148192434Y-128188524D01*
X148192434Y-128188524D02*
X148240053Y-128236143D01*
X148240053Y-128236143D02*
X148335291Y-128283762D01*
X148335291Y-128283762D02*
X148716243Y-128283762D01*
X147573386Y-128188524D02*
X147668624Y-128140905D01*
X147668624Y-128140905D02*
X147716243Y-128093286D01*
X147716243Y-128093286D02*
X147763862Y-127998048D01*
X147763862Y-127998048D02*
X147763862Y-127950429D01*
X147763862Y-127950429D02*
X147716243Y-127855191D01*
X147716243Y-127855191D02*
X147668624Y-127807572D01*
X147668624Y-127807572D02*
X147573386Y-127759953D01*
X147573386Y-127759953D02*
X147382910Y-127759953D01*
X147382910Y-127759953D02*
X147287672Y-127807572D01*
X147287672Y-127807572D02*
X147240053Y-127855191D01*
X147240053Y-127855191D02*
X147192434Y-127950429D01*
X147192434Y-127950429D02*
X147192434Y-127998048D01*
X147192434Y-127998048D02*
X147240053Y-128093286D01*
X147240053Y-128093286D02*
X147287672Y-128140905D01*
X147287672Y-128140905D02*
X147382910Y-128188524D01*
X147382910Y-128188524D02*
X147573386Y-128188524D01*
X147573386Y-128188524D02*
X147668624Y-128236143D01*
X147668624Y-128236143D02*
X147716243Y-128283762D01*
X147716243Y-128283762D02*
X147763862Y-128379000D01*
X147763862Y-128379000D02*
X147763862Y-128569476D01*
X147763862Y-128569476D02*
X147716243Y-128664714D01*
X147716243Y-128664714D02*
X147668624Y-128712334D01*
X147668624Y-128712334D02*
X147573386Y-128759953D01*
X147573386Y-128759953D02*
X147382910Y-128759953D01*
X147382910Y-128759953D02*
X147287672Y-128712334D01*
X147287672Y-128712334D02*
X147240053Y-128664714D01*
X147240053Y-128664714D02*
X147192434Y-128569476D01*
X147192434Y-128569476D02*
X147192434Y-128379000D01*
X147192434Y-128379000D02*
X147240053Y-128283762D01*
X147240053Y-128283762D02*
X147287672Y-128236143D01*
X147287672Y-128236143D02*
X147382910Y-128188524D01*
X148716243Y-131299951D02*
X148716243Y-130299951D01*
X148716243Y-130299951D02*
X148335291Y-130299951D01*
X148335291Y-130299951D02*
X148240053Y-130347570D01*
X148240053Y-130347570D02*
X148192434Y-130395189D01*
X148192434Y-130395189D02*
X148144815Y-130490427D01*
X148144815Y-130490427D02*
X148144815Y-130633284D01*
X148144815Y-130633284D02*
X148192434Y-130728522D01*
X148192434Y-130728522D02*
X148240053Y-130776141D01*
X148240053Y-130776141D02*
X148335291Y-130823760D01*
X148335291Y-130823760D02*
X148716243Y-130823760D01*
X147668624Y-131299951D02*
X147478148Y-131299951D01*
X147478148Y-131299951D02*
X147382910Y-131252332D01*
X147382910Y-131252332D02*
X147335291Y-131204712D01*
X147335291Y-131204712D02*
X147240053Y-131061855D01*
X147240053Y-131061855D02*
X147192434Y-130871379D01*
X147192434Y-130871379D02*
X147192434Y-130490427D01*
X147192434Y-130490427D02*
X147240053Y-130395189D01*
X147240053Y-130395189D02*
X147287672Y-130347570D01*
X147287672Y-130347570D02*
X147382910Y-130299951D01*
X147382910Y-130299951D02*
X147573386Y-130299951D01*
X147573386Y-130299951D02*
X147668624Y-130347570D01*
X147668624Y-130347570D02*
X147716243Y-130395189D01*
X147716243Y-130395189D02*
X147763862Y-130490427D01*
X147763862Y-130490427D02*
X147763862Y-130728522D01*
X147763862Y-130728522D02*
X147716243Y-130823760D01*
X147716243Y-130823760D02*
X147668624Y-130871379D01*
X147668624Y-130871379D02*
X147573386Y-130918998D01*
X147573386Y-130918998D02*
X147382910Y-130918998D01*
X147382910Y-130918998D02*
X147287672Y-130871379D01*
X147287672Y-130871379D02*
X147240053Y-130823760D01*
X147240053Y-130823760D02*
X147192434Y-130728522D01*
X148716244Y-121139953D02*
X148716244Y-120139953D01*
X148716244Y-120139953D02*
X148335292Y-120139953D01*
X148335292Y-120139953D02*
X148240054Y-120187572D01*
X148240054Y-120187572D02*
X148192435Y-120235191D01*
X148192435Y-120235191D02*
X148144816Y-120330429D01*
X148144816Y-120330429D02*
X148144816Y-120473286D01*
X148144816Y-120473286D02*
X148192435Y-120568524D01*
X148192435Y-120568524D02*
X148240054Y-120616143D01*
X148240054Y-120616143D02*
X148335292Y-120663762D01*
X148335292Y-120663762D02*
X148716244Y-120663762D01*
X147240054Y-120139953D02*
X147716244Y-120139953D01*
X147716244Y-120139953D02*
X147763863Y-120616143D01*
X147763863Y-120616143D02*
X147716244Y-120568524D01*
X147716244Y-120568524D02*
X147621006Y-120520905D01*
X147621006Y-120520905D02*
X147382911Y-120520905D01*
X147382911Y-120520905D02*
X147287673Y-120568524D01*
X147287673Y-120568524D02*
X147240054Y-120616143D01*
X147240054Y-120616143D02*
X147192435Y-120711381D01*
X147192435Y-120711381D02*
X147192435Y-120949476D01*
X147192435Y-120949476D02*
X147240054Y-121044714D01*
X147240054Y-121044714D02*
X147287673Y-121092334D01*
X147287673Y-121092334D02*
X147382911Y-121139953D01*
X147382911Y-121139953D02*
X147621006Y-121139953D01*
X147621006Y-121139953D02*
X147716244Y-121092334D01*
X147716244Y-121092334D02*
X147763863Y-121044714D01*
X149330053Y-107487572D02*
X149425291Y-107439953D01*
X149425291Y-107439953D02*
X149568148Y-107439953D01*
X149568148Y-107439953D02*
X149711005Y-107487572D01*
X149711005Y-107487572D02*
X149806243Y-107582810D01*
X149806243Y-107582810D02*
X149853862Y-107678048D01*
X149853862Y-107678048D02*
X149901481Y-107868524D01*
X149901481Y-107868524D02*
X149901481Y-108011381D01*
X149901481Y-108011381D02*
X149853862Y-108201857D01*
X149853862Y-108201857D02*
X149806243Y-108297095D01*
X149806243Y-108297095D02*
X149711005Y-108392334D01*
X149711005Y-108392334D02*
X149568148Y-108439953D01*
X149568148Y-108439953D02*
X149472910Y-108439953D01*
X149472910Y-108439953D02*
X149330053Y-108392334D01*
X149330053Y-108392334D02*
X149282434Y-108344714D01*
X149282434Y-108344714D02*
X149282434Y-108011381D01*
X149282434Y-108011381D02*
X149472910Y-108011381D01*
X148853862Y-108439953D02*
X148853862Y-107439953D01*
X148853862Y-107439953D02*
X148282434Y-108439953D01*
X148282434Y-108439953D02*
X148282434Y-107439953D01*
X147806243Y-108439953D02*
X147806243Y-107439953D01*
X147806243Y-107439953D02*
X147568148Y-107439953D01*
X147568148Y-107439953D02*
X147425291Y-107487572D01*
X147425291Y-107487572D02*
X147330053Y-107582810D01*
X147330053Y-107582810D02*
X147282434Y-107678048D01*
X147282434Y-107678048D02*
X147234815Y-107868524D01*
X147234815Y-107868524D02*
X147234815Y-108011381D01*
X147234815Y-108011381D02*
X147282434Y-108201857D01*
X147282434Y-108201857D02*
X147330053Y-108297095D01*
X147330053Y-108297095D02*
X147425291Y-108392334D01*
X147425291Y-108392334D02*
X147568148Y-108439953D01*
X147568148Y-108439953D02*
X147806243Y-108439953D01*
X149330053Y-110027573D02*
X149425291Y-109979954D01*
X149425291Y-109979954D02*
X149568148Y-109979954D01*
X149568148Y-109979954D02*
X149711005Y-110027573D01*
X149711005Y-110027573D02*
X149806243Y-110122811D01*
X149806243Y-110122811D02*
X149853862Y-110218049D01*
X149853862Y-110218049D02*
X149901481Y-110408525D01*
X149901481Y-110408525D02*
X149901481Y-110551382D01*
X149901481Y-110551382D02*
X149853862Y-110741858D01*
X149853862Y-110741858D02*
X149806243Y-110837096D01*
X149806243Y-110837096D02*
X149711005Y-110932335D01*
X149711005Y-110932335D02*
X149568148Y-110979954D01*
X149568148Y-110979954D02*
X149472910Y-110979954D01*
X149472910Y-110979954D02*
X149330053Y-110932335D01*
X149330053Y-110932335D02*
X149282434Y-110884715D01*
X149282434Y-110884715D02*
X149282434Y-110551382D01*
X149282434Y-110551382D02*
X149472910Y-110551382D01*
X148853862Y-110979954D02*
X148853862Y-109979954D01*
X148853862Y-109979954D02*
X148282434Y-110979954D01*
X148282434Y-110979954D02*
X148282434Y-109979954D01*
X147806243Y-110979954D02*
X147806243Y-109979954D01*
X147806243Y-109979954D02*
X147568148Y-109979954D01*
X147568148Y-109979954D02*
X147425291Y-110027573D01*
X147425291Y-110027573D02*
X147330053Y-110122811D01*
X147330053Y-110122811D02*
X147282434Y-110218049D01*
X147282434Y-110218049D02*
X147234815Y-110408525D01*
X147234815Y-110408525D02*
X147234815Y-110551382D01*
X147234815Y-110551382D02*
X147282434Y-110741858D01*
X147282434Y-110741858D02*
X147330053Y-110837096D01*
X147330053Y-110837096D02*
X147425291Y-110932335D01*
X147425291Y-110932335D02*
X147568148Y-110979954D01*
X147568148Y-110979954D02*
X147806243Y-110979954D01*
X155137197Y-100814953D02*
X155613387Y-100814953D01*
X155613387Y-100814953D02*
X155613387Y-99814953D01*
X154041958Y-100434000D02*
X153280054Y-100434000D01*
X151708625Y-100291143D02*
X152041958Y-100291143D01*
X152041958Y-100814953D02*
X152041958Y-99814953D01*
X152041958Y-99814953D02*
X151565768Y-99814953D01*
X150756244Y-100814953D02*
X150756244Y-100291143D01*
X150756244Y-100291143D02*
X150803863Y-100195905D01*
X150803863Y-100195905D02*
X150899101Y-100148286D01*
X150899101Y-100148286D02*
X151089577Y-100148286D01*
X151089577Y-100148286D02*
X151184815Y-100195905D01*
X150756244Y-100767334D02*
X150851482Y-100814953D01*
X150851482Y-100814953D02*
X151089577Y-100814953D01*
X151089577Y-100814953D02*
X151184815Y-100767334D01*
X151184815Y-100767334D02*
X151232434Y-100672095D01*
X151232434Y-100672095D02*
X151232434Y-100576857D01*
X151232434Y-100576857D02*
X151184815Y-100481619D01*
X151184815Y-100481619D02*
X151089577Y-100434000D01*
X151089577Y-100434000D02*
X150851482Y-100434000D01*
X150851482Y-100434000D02*
X150756244Y-100386381D01*
X149851482Y-100767334D02*
X149946720Y-100814953D01*
X149946720Y-100814953D02*
X150137196Y-100814953D01*
X150137196Y-100814953D02*
X150232434Y-100767334D01*
X150232434Y-100767334D02*
X150280053Y-100719714D01*
X150280053Y-100719714D02*
X150327672Y-100624476D01*
X150327672Y-100624476D02*
X150327672Y-100338762D01*
X150327672Y-100338762D02*
X150280053Y-100243524D01*
X150280053Y-100243524D02*
X150232434Y-100195905D01*
X150232434Y-100195905D02*
X150137196Y-100148286D01*
X150137196Y-100148286D02*
X149946720Y-100148286D01*
X149946720Y-100148286D02*
X149851482Y-100195905D01*
X149041958Y-100767334D02*
X149137196Y-100814953D01*
X149137196Y-100814953D02*
X149327672Y-100814953D01*
X149327672Y-100814953D02*
X149422910Y-100767334D01*
X149422910Y-100767334D02*
X149470529Y-100672095D01*
X149470529Y-100672095D02*
X149470529Y-100291143D01*
X149470529Y-100291143D02*
X149422910Y-100195905D01*
X149422910Y-100195905D02*
X149327672Y-100148286D01*
X149327672Y-100148286D02*
X149137196Y-100148286D01*
X149137196Y-100148286D02*
X149041958Y-100195905D01*
X149041958Y-100195905D02*
X148994339Y-100291143D01*
X148994339Y-100291143D02*
X148994339Y-100386381D01*
X148994339Y-100386381D02*
X149470529Y-100481619D01*
X147803862Y-100814953D02*
X147803862Y-99814953D01*
X147803862Y-99814953D02*
X147565767Y-99814953D01*
X147565767Y-99814953D02*
X147422910Y-99862572D01*
X147422910Y-99862572D02*
X147327672Y-99957810D01*
X147327672Y-99957810D02*
X147280053Y-100053048D01*
X147280053Y-100053048D02*
X147232434Y-100243524D01*
X147232434Y-100243524D02*
X147232434Y-100386381D01*
X147232434Y-100386381D02*
X147280053Y-100576857D01*
X147280053Y-100576857D02*
X147327672Y-100672095D01*
X147327672Y-100672095D02*
X147422910Y-100767334D01*
X147422910Y-100767334D02*
X147565767Y-100814953D01*
X147565767Y-100814953D02*
X147803862Y-100814953D01*
X146661005Y-100814953D02*
X146756243Y-100767334D01*
X146756243Y-100767334D02*
X146803862Y-100719714D01*
X146803862Y-100719714D02*
X146851481Y-100624476D01*
X146851481Y-100624476D02*
X146851481Y-100338762D01*
X146851481Y-100338762D02*
X146803862Y-100243524D01*
X146803862Y-100243524D02*
X146756243Y-100195905D01*
X146756243Y-100195905D02*
X146661005Y-100148286D01*
X146661005Y-100148286D02*
X146518148Y-100148286D01*
X146518148Y-100148286D02*
X146422910Y-100195905D01*
X146422910Y-100195905D02*
X146375291Y-100243524D01*
X146375291Y-100243524D02*
X146327672Y-100338762D01*
X146327672Y-100338762D02*
X146327672Y-100624476D01*
X146327672Y-100624476D02*
X146375291Y-100719714D01*
X146375291Y-100719714D02*
X146422910Y-100767334D01*
X146422910Y-100767334D02*
X146518148Y-100814953D01*
X146518148Y-100814953D02*
X146661005Y-100814953D01*
X145994338Y-100148286D02*
X145803862Y-100814953D01*
X145803862Y-100814953D02*
X145613386Y-100338762D01*
X145613386Y-100338762D02*
X145422910Y-100814953D01*
X145422910Y-100814953D02*
X145232434Y-100148286D01*
X144851481Y-100148286D02*
X144851481Y-100814953D01*
X144851481Y-100243524D02*
X144803862Y-100195905D01*
X144803862Y-100195905D02*
X144708624Y-100148286D01*
X144708624Y-100148286D02*
X144565767Y-100148286D01*
X144565767Y-100148286D02*
X144470529Y-100195905D01*
X144470529Y-100195905D02*
X144422910Y-100291143D01*
X144422910Y-100291143D02*
X144422910Y-100814953D01*
X152682431Y-131299953D02*
X152682431Y-130299953D01*
X152682431Y-130299953D02*
X152301479Y-130299953D01*
X152301479Y-130299953D02*
X152206241Y-130347572D01*
X152206241Y-130347572D02*
X152158622Y-130395191D01*
X152158622Y-130395191D02*
X152111003Y-130490429D01*
X152111003Y-130490429D02*
X152111003Y-130633286D01*
X152111003Y-130633286D02*
X152158622Y-130728524D01*
X152158622Y-130728524D02*
X152206241Y-130776143D01*
X152206241Y-130776143D02*
X152301479Y-130823762D01*
X152301479Y-130823762D02*
X152682431Y-130823762D01*
X151158622Y-131299953D02*
X151730050Y-131299953D01*
X151444336Y-131299953D02*
X151444336Y-130299953D01*
X151444336Y-130299953D02*
X151539574Y-130442810D01*
X151539574Y-130442810D02*
X151634812Y-130538048D01*
X151634812Y-130538048D02*
X151730050Y-130585667D01*
X150539574Y-130299953D02*
X150444336Y-130299953D01*
X150444336Y-130299953D02*
X150349098Y-130347572D01*
X150349098Y-130347572D02*
X150301479Y-130395191D01*
X150301479Y-130395191D02*
X150253860Y-130490429D01*
X150253860Y-130490429D02*
X150206241Y-130680905D01*
X150206241Y-130680905D02*
X150206241Y-130919000D01*
X150206241Y-130919000D02*
X150253860Y-131109476D01*
X150253860Y-131109476D02*
X150301479Y-131204714D01*
X150301479Y-131204714D02*
X150349098Y-131252334D01*
X150349098Y-131252334D02*
X150444336Y-131299953D01*
X150444336Y-131299953D02*
X150539574Y-131299953D01*
X150539574Y-131299953D02*
X150634812Y-131252334D01*
X150634812Y-131252334D02*
X150682431Y-131204714D01*
X150682431Y-131204714D02*
X150730050Y-131109476D01*
X150730050Y-131109476D02*
X150777669Y-130919000D01*
X150777669Y-130919000D02*
X150777669Y-130680905D01*
X150777669Y-130680905D02*
X150730050Y-130490429D01*
X150730050Y-130490429D02*
X150682431Y-130395191D01*
X150682431Y-130395191D02*
X150634812Y-130347572D01*
X150634812Y-130347572D02*
X150539574Y-130299953D01*
X152158623Y-103359954D02*
X152491956Y-102883763D01*
X152730051Y-103359954D02*
X152730051Y-102359954D01*
X152730051Y-102359954D02*
X152349099Y-102359954D01*
X152349099Y-102359954D02*
X152253861Y-102407573D01*
X152253861Y-102407573D02*
X152206242Y-102455192D01*
X152206242Y-102455192D02*
X152158623Y-102550430D01*
X152158623Y-102550430D02*
X152158623Y-102693287D01*
X152158623Y-102693287D02*
X152206242Y-102788525D01*
X152206242Y-102788525D02*
X152253861Y-102836144D01*
X152253861Y-102836144D02*
X152349099Y-102883763D01*
X152349099Y-102883763D02*
X152730051Y-102883763D01*
X151777670Y-103074239D02*
X151301480Y-103074239D01*
X151872908Y-103359954D02*
X151539575Y-102359954D01*
X151539575Y-102359954D02*
X151206242Y-103359954D01*
X150968146Y-102359954D02*
X150730051Y-103359954D01*
X150730051Y-103359954D02*
X150539575Y-102645668D01*
X150539575Y-102645668D02*
X150349099Y-103359954D01*
X150349099Y-103359954D02*
X150111004Y-102359954D01*
X152801480Y-109979954D02*
X152468147Y-110979954D01*
X152468147Y-110979954D02*
X152134814Y-109979954D01*
X151230052Y-110884715D02*
X151277671Y-110932335D01*
X151277671Y-110932335D02*
X151420528Y-110979954D01*
X151420528Y-110979954D02*
X151515766Y-110979954D01*
X151515766Y-110979954D02*
X151658623Y-110932335D01*
X151658623Y-110932335D02*
X151753861Y-110837096D01*
X151753861Y-110837096D02*
X151801480Y-110741858D01*
X151801480Y-110741858D02*
X151849099Y-110551382D01*
X151849099Y-110551382D02*
X151849099Y-110408525D01*
X151849099Y-110408525D02*
X151801480Y-110218049D01*
X151801480Y-110218049D02*
X151753861Y-110122811D01*
X151753861Y-110122811D02*
X151658623Y-110027573D01*
X151658623Y-110027573D02*
X151515766Y-109979954D01*
X151515766Y-109979954D02*
X151420528Y-109979954D01*
X151420528Y-109979954D02*
X151277671Y-110027573D01*
X151277671Y-110027573D02*
X151230052Y-110075192D01*
X150230052Y-110884715D02*
X150277671Y-110932335D01*
X150277671Y-110932335D02*
X150420528Y-110979954D01*
X150420528Y-110979954D02*
X150515766Y-110979954D01*
X150515766Y-110979954D02*
X150658623Y-110932335D01*
X150658623Y-110932335D02*
X150753861Y-110837096D01*
X150753861Y-110837096D02*
X150801480Y-110741858D01*
X150801480Y-110741858D02*
X150849099Y-110551382D01*
X150849099Y-110551382D02*
X150849099Y-110408525D01*
X150849099Y-110408525D02*
X150801480Y-110218049D01*
X150801480Y-110218049D02*
X150753861Y-110122811D01*
X150753861Y-110122811D02*
X150658623Y-110027573D01*
X150658623Y-110027573D02*
X150515766Y-109979954D01*
X150515766Y-109979954D02*
X150420528Y-109979954D01*
X150420528Y-109979954D02*
X150277671Y-110027573D01*
X150277671Y-110027573D02*
X150230052Y-110075192D01*
X152682433Y-128759952D02*
X152682433Y-127759952D01*
X152682433Y-127759952D02*
X152301481Y-127759952D01*
X152301481Y-127759952D02*
X152206243Y-127807571D01*
X152206243Y-127807571D02*
X152158624Y-127855190D01*
X152158624Y-127855190D02*
X152111005Y-127950428D01*
X152111005Y-127950428D02*
X152111005Y-128093285D01*
X152111005Y-128093285D02*
X152158624Y-128188523D01*
X152158624Y-128188523D02*
X152206243Y-128236142D01*
X152206243Y-128236142D02*
X152301481Y-128283761D01*
X152301481Y-128283761D02*
X152682433Y-128283761D01*
X151158624Y-128759952D02*
X151730052Y-128759952D01*
X151444338Y-128759952D02*
X151444338Y-127759952D01*
X151444338Y-127759952D02*
X151539576Y-127902809D01*
X151539576Y-127902809D02*
X151634814Y-127998047D01*
X151634814Y-127998047D02*
X151730052Y-128045666D01*
X150301481Y-127759952D02*
X150491957Y-127759952D01*
X150491957Y-127759952D02*
X150587195Y-127807571D01*
X150587195Y-127807571D02*
X150634814Y-127855190D01*
X150634814Y-127855190D02*
X150730052Y-127998047D01*
X150730052Y-127998047D02*
X150777671Y-128188523D01*
X150777671Y-128188523D02*
X150777671Y-128569475D01*
X150777671Y-128569475D02*
X150730052Y-128664713D01*
X150730052Y-128664713D02*
X150682433Y-128712333D01*
X150682433Y-128712333D02*
X150587195Y-128759952D01*
X150587195Y-128759952D02*
X150396719Y-128759952D01*
X150396719Y-128759952D02*
X150301481Y-128712333D01*
X150301481Y-128712333D02*
X150253862Y-128664713D01*
X150253862Y-128664713D02*
X150206243Y-128569475D01*
X150206243Y-128569475D02*
X150206243Y-128331380D01*
X150206243Y-128331380D02*
X150253862Y-128236142D01*
X150253862Y-128236142D02*
X150301481Y-128188523D01*
X150301481Y-128188523D02*
X150396719Y-128140904D01*
X150396719Y-128140904D02*
X150587195Y-128140904D01*
X150587195Y-128140904D02*
X150682433Y-128188523D01*
X150682433Y-128188523D02*
X150730052Y-128236142D01*
X150730052Y-128236142D02*
X150777671Y-128331380D01*
X152230053Y-104947572D02*
X152325291Y-104899953D01*
X152325291Y-104899953D02*
X152468148Y-104899953D01*
X152468148Y-104899953D02*
X152611005Y-104947572D01*
X152611005Y-104947572D02*
X152706243Y-105042810D01*
X152706243Y-105042810D02*
X152753862Y-105138048D01*
X152753862Y-105138048D02*
X152801481Y-105328524D01*
X152801481Y-105328524D02*
X152801481Y-105471381D01*
X152801481Y-105471381D02*
X152753862Y-105661857D01*
X152753862Y-105661857D02*
X152706243Y-105757095D01*
X152706243Y-105757095D02*
X152611005Y-105852334D01*
X152611005Y-105852334D02*
X152468148Y-105899953D01*
X152468148Y-105899953D02*
X152372910Y-105899953D01*
X152372910Y-105899953D02*
X152230053Y-105852334D01*
X152230053Y-105852334D02*
X152182434Y-105804714D01*
X152182434Y-105804714D02*
X152182434Y-105471381D01*
X152182434Y-105471381D02*
X152372910Y-105471381D01*
X151753862Y-105899953D02*
X151753862Y-104899953D01*
X151753862Y-104899953D02*
X151182434Y-105899953D01*
X151182434Y-105899953D02*
X151182434Y-104899953D01*
X150706243Y-105899953D02*
X150706243Y-104899953D01*
X150706243Y-104899953D02*
X150468148Y-104899953D01*
X150468148Y-104899953D02*
X150325291Y-104947572D01*
X150325291Y-104947572D02*
X150230053Y-105042810D01*
X150230053Y-105042810D02*
X150182434Y-105138048D01*
X150182434Y-105138048D02*
X150134815Y-105328524D01*
X150134815Y-105328524D02*
X150134815Y-105471381D01*
X150134815Y-105471381D02*
X150182434Y-105661857D01*
X150182434Y-105661857D02*
X150230053Y-105757095D01*
X150230053Y-105757095D02*
X150325291Y-105852334D01*
X150325291Y-105852334D02*
X150468148Y-105899953D01*
X150468148Y-105899953D02*
X150706243Y-105899953D01*
X152015768Y-108439952D02*
X152349101Y-107963761D01*
X152587196Y-108439952D02*
X152587196Y-107439952D01*
X152587196Y-107439952D02*
X152206244Y-107439952D01*
X152206244Y-107439952D02*
X152111006Y-107487571D01*
X152111006Y-107487571D02*
X152063387Y-107535190D01*
X152063387Y-107535190D02*
X152015768Y-107630428D01*
X152015768Y-107630428D02*
X152015768Y-107773285D01*
X152015768Y-107773285D02*
X152063387Y-107868523D01*
X152063387Y-107868523D02*
X152111006Y-107916142D01*
X152111006Y-107916142D02*
X152206244Y-107963761D01*
X152206244Y-107963761D02*
X152587196Y-107963761D01*
X151634815Y-108392333D02*
X151491958Y-108439952D01*
X151491958Y-108439952D02*
X151253863Y-108439952D01*
X151253863Y-108439952D02*
X151158625Y-108392333D01*
X151158625Y-108392333D02*
X151111006Y-108344713D01*
X151111006Y-108344713D02*
X151063387Y-108249475D01*
X151063387Y-108249475D02*
X151063387Y-108154237D01*
X151063387Y-108154237D02*
X151111006Y-108058999D01*
X151111006Y-108058999D02*
X151158625Y-108011380D01*
X151158625Y-108011380D02*
X151253863Y-107963761D01*
X151253863Y-107963761D02*
X151444339Y-107916142D01*
X151444339Y-107916142D02*
X151539577Y-107868523D01*
X151539577Y-107868523D02*
X151587196Y-107820904D01*
X151587196Y-107820904D02*
X151634815Y-107725666D01*
X151634815Y-107725666D02*
X151634815Y-107630428D01*
X151634815Y-107630428D02*
X151587196Y-107535190D01*
X151587196Y-107535190D02*
X151539577Y-107487571D01*
X151539577Y-107487571D02*
X151444339Y-107439952D01*
X151444339Y-107439952D02*
X151206244Y-107439952D01*
X151206244Y-107439952D02*
X151063387Y-107487571D01*
X150777672Y-107439952D02*
X150206244Y-107439952D01*
X150491958Y-108439952D02*
X150491958Y-107439952D01*
X152682434Y-116059953D02*
X152682434Y-115059953D01*
X152682434Y-115059953D02*
X152301482Y-115059953D01*
X152301482Y-115059953D02*
X152206244Y-115107572D01*
X152206244Y-115107572D02*
X152158625Y-115155191D01*
X152158625Y-115155191D02*
X152111006Y-115250429D01*
X152111006Y-115250429D02*
X152111006Y-115393286D01*
X152111006Y-115393286D02*
X152158625Y-115488524D01*
X152158625Y-115488524D02*
X152206244Y-115536143D01*
X152206244Y-115536143D02*
X152301482Y-115583762D01*
X152301482Y-115583762D02*
X152682434Y-115583762D01*
X151730053Y-115155191D02*
X151682434Y-115107572D01*
X151682434Y-115107572D02*
X151587196Y-115059953D01*
X151587196Y-115059953D02*
X151349101Y-115059953D01*
X151349101Y-115059953D02*
X151253863Y-115107572D01*
X151253863Y-115107572D02*
X151206244Y-115155191D01*
X151206244Y-115155191D02*
X151158625Y-115250429D01*
X151158625Y-115250429D02*
X151158625Y-115345667D01*
X151158625Y-115345667D02*
X151206244Y-115488524D01*
X151206244Y-115488524D02*
X151777672Y-116059953D01*
X151777672Y-116059953D02*
X151158625Y-116059953D01*
X150539577Y-115059953D02*
X150444339Y-115059953D01*
X150444339Y-115059953D02*
X150349101Y-115107572D01*
X150349101Y-115107572D02*
X150301482Y-115155191D01*
X150301482Y-115155191D02*
X150253863Y-115250429D01*
X150253863Y-115250429D02*
X150206244Y-115440905D01*
X150206244Y-115440905D02*
X150206244Y-115679000D01*
X150206244Y-115679000D02*
X150253863Y-115869476D01*
X150253863Y-115869476D02*
X150301482Y-115964714D01*
X150301482Y-115964714D02*
X150349101Y-116012334D01*
X150349101Y-116012334D02*
X150444339Y-116059953D01*
X150444339Y-116059953D02*
X150539577Y-116059953D01*
X150539577Y-116059953D02*
X150634815Y-116012334D01*
X150634815Y-116012334D02*
X150682434Y-115964714D01*
X150682434Y-115964714D02*
X150730053Y-115869476D01*
X150730053Y-115869476D02*
X150777672Y-115679000D01*
X150777672Y-115679000D02*
X150777672Y-115440905D01*
X150777672Y-115440905D02*
X150730053Y-115250429D01*
X150730053Y-115250429D02*
X150682434Y-115155191D01*
X150682434Y-115155191D02*
X150634815Y-115107572D01*
X150634815Y-115107572D02*
X150539577Y-115059953D01*
X152682434Y-118599953D02*
X152682434Y-117599953D01*
X152682434Y-117599953D02*
X152301482Y-117599953D01*
X152301482Y-117599953D02*
X152206244Y-117647572D01*
X152206244Y-117647572D02*
X152158625Y-117695191D01*
X152158625Y-117695191D02*
X152111006Y-117790429D01*
X152111006Y-117790429D02*
X152111006Y-117933286D01*
X152111006Y-117933286D02*
X152158625Y-118028524D01*
X152158625Y-118028524D02*
X152206244Y-118076143D01*
X152206244Y-118076143D02*
X152301482Y-118123762D01*
X152301482Y-118123762D02*
X152682434Y-118123762D01*
X151158625Y-118599953D02*
X151730053Y-118599953D01*
X151444339Y-118599953D02*
X151444339Y-117599953D01*
X151444339Y-117599953D02*
X151539577Y-117742810D01*
X151539577Y-117742810D02*
X151634815Y-117838048D01*
X151634815Y-117838048D02*
X151730053Y-117885667D01*
X150682434Y-118599953D02*
X150491958Y-118599953D01*
X150491958Y-118599953D02*
X150396720Y-118552334D01*
X150396720Y-118552334D02*
X150349101Y-118504714D01*
X150349101Y-118504714D02*
X150253863Y-118361857D01*
X150253863Y-118361857D02*
X150206244Y-118171381D01*
X150206244Y-118171381D02*
X150206244Y-117790429D01*
X150206244Y-117790429D02*
X150253863Y-117695191D01*
X150253863Y-117695191D02*
X150301482Y-117647572D01*
X150301482Y-117647572D02*
X150396720Y-117599953D01*
X150396720Y-117599953D02*
X150587196Y-117599953D01*
X150587196Y-117599953D02*
X150682434Y-117647572D01*
X150682434Y-117647572D02*
X150730053Y-117695191D01*
X150730053Y-117695191D02*
X150777672Y-117790429D01*
X150777672Y-117790429D02*
X150777672Y-118028524D01*
X150777672Y-118028524D02*
X150730053Y-118123762D01*
X150730053Y-118123762D02*
X150682434Y-118171381D01*
X150682434Y-118171381D02*
X150587196Y-118219000D01*
X150587196Y-118219000D02*
X150396720Y-118219000D01*
X150396720Y-118219000D02*
X150301482Y-118171381D01*
X150301482Y-118171381D02*
X150253863Y-118123762D01*
X150253863Y-118123762D02*
X150206244Y-118028524D01*
X152682434Y-121139952D02*
X152682434Y-120139952D01*
X152682434Y-120139952D02*
X152301482Y-120139952D01*
X152301482Y-120139952D02*
X152206244Y-120187571D01*
X152206244Y-120187571D02*
X152158625Y-120235190D01*
X152158625Y-120235190D02*
X152111006Y-120330428D01*
X152111006Y-120330428D02*
X152111006Y-120473285D01*
X152111006Y-120473285D02*
X152158625Y-120568523D01*
X152158625Y-120568523D02*
X152206244Y-120616142D01*
X152206244Y-120616142D02*
X152301482Y-120663761D01*
X152301482Y-120663761D02*
X152682434Y-120663761D01*
X151158625Y-121139952D02*
X151730053Y-121139952D01*
X151444339Y-121139952D02*
X151444339Y-120139952D01*
X151444339Y-120139952D02*
X151539577Y-120282809D01*
X151539577Y-120282809D02*
X151634815Y-120378047D01*
X151634815Y-120378047D02*
X151730053Y-120425666D01*
X150587196Y-120568523D02*
X150682434Y-120520904D01*
X150682434Y-120520904D02*
X150730053Y-120473285D01*
X150730053Y-120473285D02*
X150777672Y-120378047D01*
X150777672Y-120378047D02*
X150777672Y-120330428D01*
X150777672Y-120330428D02*
X150730053Y-120235190D01*
X150730053Y-120235190D02*
X150682434Y-120187571D01*
X150682434Y-120187571D02*
X150587196Y-120139952D01*
X150587196Y-120139952D02*
X150396720Y-120139952D01*
X150396720Y-120139952D02*
X150301482Y-120187571D01*
X150301482Y-120187571D02*
X150253863Y-120235190D01*
X150253863Y-120235190D02*
X150206244Y-120330428D01*
X150206244Y-120330428D02*
X150206244Y-120378047D01*
X150206244Y-120378047D02*
X150253863Y-120473285D01*
X150253863Y-120473285D02*
X150301482Y-120520904D01*
X150301482Y-120520904D02*
X150396720Y-120568523D01*
X150396720Y-120568523D02*
X150587196Y-120568523D01*
X150587196Y-120568523D02*
X150682434Y-120616142D01*
X150682434Y-120616142D02*
X150730053Y-120663761D01*
X150730053Y-120663761D02*
X150777672Y-120758999D01*
X150777672Y-120758999D02*
X150777672Y-120949475D01*
X150777672Y-120949475D02*
X150730053Y-121044713D01*
X150730053Y-121044713D02*
X150682434Y-121092333D01*
X150682434Y-121092333D02*
X150587196Y-121139952D01*
X150587196Y-121139952D02*
X150396720Y-121139952D01*
X150396720Y-121139952D02*
X150301482Y-121092333D01*
X150301482Y-121092333D02*
X150253863Y-121044713D01*
X150253863Y-121044713D02*
X150206244Y-120949475D01*
X150206244Y-120949475D02*
X150206244Y-120758999D01*
X150206244Y-120758999D02*
X150253863Y-120663761D01*
X150253863Y-120663761D02*
X150301482Y-120616142D01*
X150301482Y-120616142D02*
X150396720Y-120568523D01*
X152682434Y-123679953D02*
X152682434Y-122679953D01*
X152682434Y-122679953D02*
X152301482Y-122679953D01*
X152301482Y-122679953D02*
X152206244Y-122727572D01*
X152206244Y-122727572D02*
X152158625Y-122775191D01*
X152158625Y-122775191D02*
X152111006Y-122870429D01*
X152111006Y-122870429D02*
X152111006Y-123013286D01*
X152111006Y-123013286D02*
X152158625Y-123108524D01*
X152158625Y-123108524D02*
X152206244Y-123156143D01*
X152206244Y-123156143D02*
X152301482Y-123203762D01*
X152301482Y-123203762D02*
X152682434Y-123203762D01*
X151158625Y-123679953D02*
X151730053Y-123679953D01*
X151444339Y-123679953D02*
X151444339Y-122679953D01*
X151444339Y-122679953D02*
X151539577Y-122822810D01*
X151539577Y-122822810D02*
X151634815Y-122918048D01*
X151634815Y-122918048D02*
X151730053Y-122965667D01*
X150253863Y-122679953D02*
X150730053Y-122679953D01*
X150730053Y-122679953D02*
X150777672Y-123156143D01*
X150777672Y-123156143D02*
X150730053Y-123108524D01*
X150730053Y-123108524D02*
X150634815Y-123060905D01*
X150634815Y-123060905D02*
X150396720Y-123060905D01*
X150396720Y-123060905D02*
X150301482Y-123108524D01*
X150301482Y-123108524D02*
X150253863Y-123156143D01*
X150253863Y-123156143D02*
X150206244Y-123251381D01*
X150206244Y-123251381D02*
X150206244Y-123489476D01*
X150206244Y-123489476D02*
X150253863Y-123584714D01*
X150253863Y-123584714D02*
X150301482Y-123632334D01*
X150301482Y-123632334D02*
X150396720Y-123679953D01*
X150396720Y-123679953D02*
X150634815Y-123679953D01*
X150634815Y-123679953D02*
X150730053Y-123632334D01*
X150730053Y-123632334D02*
X150777672Y-123584714D01*
X152682434Y-126219953D02*
X152682434Y-125219953D01*
X152682434Y-125219953D02*
X152301482Y-125219953D01*
X152301482Y-125219953D02*
X152206244Y-125267572D01*
X152206244Y-125267572D02*
X152158625Y-125315191D01*
X152158625Y-125315191D02*
X152111006Y-125410429D01*
X152111006Y-125410429D02*
X152111006Y-125553286D01*
X152111006Y-125553286D02*
X152158625Y-125648524D01*
X152158625Y-125648524D02*
X152206244Y-125696143D01*
X152206244Y-125696143D02*
X152301482Y-125743762D01*
X152301482Y-125743762D02*
X152682434Y-125743762D01*
X151158625Y-126219953D02*
X151730053Y-126219953D01*
X151444339Y-126219953D02*
X151444339Y-125219953D01*
X151444339Y-125219953D02*
X151539577Y-125362810D01*
X151539577Y-125362810D02*
X151634815Y-125458048D01*
X151634815Y-125458048D02*
X151730053Y-125505667D01*
X150301482Y-125553286D02*
X150301482Y-126219953D01*
X150539577Y-125172334D02*
X150777672Y-125886619D01*
X150777672Y-125886619D02*
X150158625Y-125886619D01*
X152682435Y-113519952D02*
X152682435Y-112519952D01*
X152682435Y-112519952D02*
X152301483Y-112519952D01*
X152301483Y-112519952D02*
X152206245Y-112567571D01*
X152206245Y-112567571D02*
X152158626Y-112615190D01*
X152158626Y-112615190D02*
X152111007Y-112710428D01*
X152111007Y-112710428D02*
X152111007Y-112853285D01*
X152111007Y-112853285D02*
X152158626Y-112948523D01*
X152158626Y-112948523D02*
X152206245Y-112996142D01*
X152206245Y-112996142D02*
X152301483Y-113043761D01*
X152301483Y-113043761D02*
X152682435Y-113043761D01*
X151730054Y-112615190D02*
X151682435Y-112567571D01*
X151682435Y-112567571D02*
X151587197Y-112519952D01*
X151587197Y-112519952D02*
X151349102Y-112519952D01*
X151349102Y-112519952D02*
X151253864Y-112567571D01*
X151253864Y-112567571D02*
X151206245Y-112615190D01*
X151206245Y-112615190D02*
X151158626Y-112710428D01*
X151158626Y-112710428D02*
X151158626Y-112805666D01*
X151158626Y-112805666D02*
X151206245Y-112948523D01*
X151206245Y-112948523D02*
X151777673Y-113519952D01*
X151777673Y-113519952D02*
X151158626Y-113519952D01*
X150206245Y-113519952D02*
X150777673Y-113519952D01*
X150491959Y-113519952D02*
X150491959Y-112519952D01*
X150491959Y-112519952D02*
X150587197Y-112662809D01*
X150587197Y-112662809D02*
X150682435Y-112758047D01*
X150682435Y-112758047D02*
X150777673Y-112805666D01*
X139644472Y-171288730D02*
X139644472Y-171860158D01*
X140644472Y-171574444D02*
X139644472Y-171574444D01*
X140644472Y-172764920D02*
X140168281Y-172431587D01*
X140644472Y-172193492D02*
X139644472Y-172193492D01*
X139644472Y-172193492D02*
X139644472Y-172574444D01*
X139644472Y-172574444D02*
X139692091Y-172669682D01*
X139692091Y-172669682D02*
X139739710Y-172717301D01*
X139739710Y-172717301D02*
X139834948Y-172764920D01*
X139834948Y-172764920D02*
X139977805Y-172764920D01*
X139977805Y-172764920D02*
X140073043Y-172717301D01*
X140073043Y-172717301D02*
X140120662Y-172669682D01*
X140120662Y-172669682D02*
X140168281Y-172574444D01*
X140168281Y-172574444D02*
X140168281Y-172193492D01*
X140644472Y-173764920D02*
X140168281Y-173431587D01*
X140644472Y-173193492D02*
X139644472Y-173193492D01*
X139644472Y-173193492D02*
X139644472Y-173574444D01*
X139644472Y-173574444D02*
X139692091Y-173669682D01*
X139692091Y-173669682D02*
X139739710Y-173717301D01*
X139739710Y-173717301D02*
X139834948Y-173764920D01*
X139834948Y-173764920D02*
X139977805Y-173764920D01*
X139977805Y-173764920D02*
X140073043Y-173717301D01*
X140073043Y-173717301D02*
X140120662Y-173669682D01*
X140120662Y-173669682D02*
X140168281Y-173574444D01*
X140168281Y-173574444D02*
X140168281Y-173193492D01*
X140596853Y-174145873D02*
X140644472Y-174288730D01*
X140644472Y-174288730D02*
X140644472Y-174526825D01*
X140644472Y-174526825D02*
X140596853Y-174622063D01*
X140596853Y-174622063D02*
X140549233Y-174669682D01*
X140549233Y-174669682D02*
X140453995Y-174717301D01*
X140453995Y-174717301D02*
X140358757Y-174717301D01*
X140358757Y-174717301D02*
X140263519Y-174669682D01*
X140263519Y-174669682D02*
X140215900Y-174622063D01*
X140215900Y-174622063D02*
X140168281Y-174526825D01*
X140168281Y-174526825D02*
X140120662Y-174336349D01*
X140120662Y-174336349D02*
X140073043Y-174241111D01*
X140073043Y-174241111D02*
X140025424Y-174193492D01*
X140025424Y-174193492D02*
X139930186Y-174145873D01*
X139930186Y-174145873D02*
X139834948Y-174145873D01*
X139834948Y-174145873D02*
X139739710Y-174193492D01*
X139739710Y-174193492D02*
X139692091Y-174241111D01*
X139692091Y-174241111D02*
X139644472Y-174336349D01*
X139644472Y-174336349D02*
X139644472Y-174574444D01*
X139644472Y-174574444D02*
X139692091Y-174717301D01*
X135900201Y-103459952D02*
X135709725Y-103459952D01*
X135709725Y-103459952D02*
X135614487Y-103507571D01*
X135614487Y-103507571D02*
X135519249Y-103602809D01*
X135519249Y-103602809D02*
X135471630Y-103793285D01*
X135471630Y-103793285D02*
X135471630Y-104126618D01*
X135471630Y-104126618D02*
X135519249Y-104317094D01*
X135519249Y-104317094D02*
X135614487Y-104412333D01*
X135614487Y-104412333D02*
X135709725Y-104459952D01*
X135709725Y-104459952D02*
X135900201Y-104459952D01*
X135900201Y-104459952D02*
X135995439Y-104412333D01*
X135995439Y-104412333D02*
X136090677Y-104317094D01*
X136090677Y-104317094D02*
X136138296Y-104126618D01*
X136138296Y-104126618D02*
X136138296Y-103793285D01*
X136138296Y-103793285D02*
X136090677Y-103602809D01*
X136090677Y-103602809D02*
X135995439Y-103507571D01*
X135995439Y-103507571D02*
X135900201Y-103459952D01*
X135043058Y-104459952D02*
X135043058Y-103459952D01*
X135043058Y-103459952D02*
X134471630Y-104459952D01*
X134471630Y-104459952D02*
X134471630Y-103459952D01*
X136233534Y-113459952D02*
X136043058Y-113459952D01*
X136043058Y-113459952D02*
X135947820Y-113507571D01*
X135947820Y-113507571D02*
X135852582Y-113602809D01*
X135852582Y-113602809D02*
X135804963Y-113793285D01*
X135804963Y-113793285D02*
X135804963Y-114126618D01*
X135804963Y-114126618D02*
X135852582Y-114317094D01*
X135852582Y-114317094D02*
X135947820Y-114412333D01*
X135947820Y-114412333D02*
X136043058Y-114459952D01*
X136043058Y-114459952D02*
X136233534Y-114459952D01*
X136233534Y-114459952D02*
X136328772Y-114412333D01*
X136328772Y-114412333D02*
X136424010Y-114317094D01*
X136424010Y-114317094D02*
X136471629Y-114126618D01*
X136471629Y-114126618D02*
X136471629Y-113793285D01*
X136471629Y-113793285D02*
X136424010Y-113602809D01*
X136424010Y-113602809D02*
X136328772Y-113507571D01*
X136328772Y-113507571D02*
X136233534Y-113459952D01*
X135043058Y-113936142D02*
X135376391Y-113936142D01*
X135376391Y-114459952D02*
X135376391Y-113459952D01*
X135376391Y-113459952D02*
X134900201Y-113459952D01*
X134185915Y-113936142D02*
X134519248Y-113936142D01*
X134519248Y-114459952D02*
X134519248Y-113459952D01*
X134519248Y-113459952D02*
X134043058Y-113459952D01*
X145492974Y-139441912D02*
X144492974Y-139441912D01*
X144492974Y-139441912D02*
X145207259Y-139775245D01*
X145207259Y-139775245D02*
X144492974Y-140108578D01*
X144492974Y-140108578D02*
X145492974Y-140108578D01*
X144492974Y-140775245D02*
X144492974Y-140965721D01*
X144492974Y-140965721D02*
X144540593Y-141060959D01*
X144540593Y-141060959D02*
X144635831Y-141156197D01*
X144635831Y-141156197D02*
X144826307Y-141203816D01*
X144826307Y-141203816D02*
X145159640Y-141203816D01*
X145159640Y-141203816D02*
X145350116Y-141156197D01*
X145350116Y-141156197D02*
X145445355Y-141060959D01*
X145445355Y-141060959D02*
X145492974Y-140965721D01*
X145492974Y-140965721D02*
X145492974Y-140775245D01*
X145492974Y-140775245D02*
X145445355Y-140680007D01*
X145445355Y-140680007D02*
X145350116Y-140584769D01*
X145350116Y-140584769D02*
X145159640Y-140537150D01*
X145159640Y-140537150D02*
X144826307Y-140537150D01*
X144826307Y-140537150D02*
X144635831Y-140584769D01*
X144635831Y-140584769D02*
X144540593Y-140680007D01*
X144540593Y-140680007D02*
X144492974Y-140775245D01*
X145445355Y-141584769D02*
X145492974Y-141727626D01*
X145492974Y-141727626D02*
X145492974Y-141965721D01*
X145492974Y-141965721D02*
X145445355Y-142060959D01*
X145445355Y-142060959D02*
X145397735Y-142108578D01*
X145397735Y-142108578D02*
X145302497Y-142156197D01*
X145302497Y-142156197D02*
X145207259Y-142156197D01*
X145207259Y-142156197D02*
X145112021Y-142108578D01*
X145112021Y-142108578D02*
X145064402Y-142060959D01*
X145064402Y-142060959D02*
X145016783Y-141965721D01*
X145016783Y-141965721D02*
X144969164Y-141775245D01*
X144969164Y-141775245D02*
X144921545Y-141680007D01*
X144921545Y-141680007D02*
X144873926Y-141632388D01*
X144873926Y-141632388D02*
X144778688Y-141584769D01*
X144778688Y-141584769D02*
X144683450Y-141584769D01*
X144683450Y-141584769D02*
X144588212Y-141632388D01*
X144588212Y-141632388D02*
X144540593Y-141680007D01*
X144540593Y-141680007D02*
X144492974Y-141775245D01*
X144492974Y-141775245D02*
X144492974Y-142013340D01*
X144492974Y-142013340D02*
X144540593Y-142156197D01*
X145492974Y-142584769D02*
X144492974Y-142584769D01*
X148045355Y-139394291D02*
X148092974Y-139537148D01*
X148092974Y-139537148D02*
X148092974Y-139775243D01*
X148092974Y-139775243D02*
X148045355Y-139870481D01*
X148045355Y-139870481D02*
X147997735Y-139918100D01*
X147997735Y-139918100D02*
X147902497Y-139965719D01*
X147902497Y-139965719D02*
X147807259Y-139965719D01*
X147807259Y-139965719D02*
X147712021Y-139918100D01*
X147712021Y-139918100D02*
X147664402Y-139870481D01*
X147664402Y-139870481D02*
X147616783Y-139775243D01*
X147616783Y-139775243D02*
X147569164Y-139584767D01*
X147569164Y-139584767D02*
X147521545Y-139489529D01*
X147521545Y-139489529D02*
X147473926Y-139441910D01*
X147473926Y-139441910D02*
X147378688Y-139394291D01*
X147378688Y-139394291D02*
X147283450Y-139394291D01*
X147283450Y-139394291D02*
X147188212Y-139441910D01*
X147188212Y-139441910D02*
X147140593Y-139489529D01*
X147140593Y-139489529D02*
X147092974Y-139584767D01*
X147092974Y-139584767D02*
X147092974Y-139822862D01*
X147092974Y-139822862D02*
X147140593Y-139965719D01*
X147997735Y-140965719D02*
X148045355Y-140918100D01*
X148045355Y-140918100D02*
X148092974Y-140775243D01*
X148092974Y-140775243D02*
X148092974Y-140680005D01*
X148092974Y-140680005D02*
X148045355Y-140537148D01*
X148045355Y-140537148D02*
X147950116Y-140441910D01*
X147950116Y-140441910D02*
X147854878Y-140394291D01*
X147854878Y-140394291D02*
X147664402Y-140346672D01*
X147664402Y-140346672D02*
X147521545Y-140346672D01*
X147521545Y-140346672D02*
X147331069Y-140394291D01*
X147331069Y-140394291D02*
X147235831Y-140441910D01*
X147235831Y-140441910D02*
X147140593Y-140537148D01*
X147140593Y-140537148D02*
X147092974Y-140680005D01*
X147092974Y-140680005D02*
X147092974Y-140775243D01*
X147092974Y-140775243D02*
X147140593Y-140918100D01*
X147140593Y-140918100D02*
X147188212Y-140965719D01*
X148092974Y-141394291D02*
X147092974Y-141394291D01*
X148092974Y-141965719D02*
X147521545Y-141537148D01*
X147092974Y-141965719D02*
X147664402Y-141394291D01*
X149622973Y-139299054D02*
X150622973Y-139632387D01*
X150622973Y-139632387D02*
X149622973Y-139965720D01*
X150527734Y-140870482D02*
X150575354Y-140822863D01*
X150575354Y-140822863D02*
X150622973Y-140680006D01*
X150622973Y-140680006D02*
X150622973Y-140584768D01*
X150622973Y-140584768D02*
X150575354Y-140441911D01*
X150575354Y-140441911D02*
X150480115Y-140346673D01*
X150480115Y-140346673D02*
X150384877Y-140299054D01*
X150384877Y-140299054D02*
X150194401Y-140251435D01*
X150194401Y-140251435D02*
X150051544Y-140251435D01*
X150051544Y-140251435D02*
X149861068Y-140299054D01*
X149861068Y-140299054D02*
X149765830Y-140346673D01*
X149765830Y-140346673D02*
X149670592Y-140441911D01*
X149670592Y-140441911D02*
X149622973Y-140584768D01*
X149622973Y-140584768D02*
X149622973Y-140680006D01*
X149622973Y-140680006D02*
X149670592Y-140822863D01*
X149670592Y-140822863D02*
X149718211Y-140870482D01*
X150527734Y-141870482D02*
X150575354Y-141822863D01*
X150575354Y-141822863D02*
X150622973Y-141680006D01*
X150622973Y-141680006D02*
X150622973Y-141584768D01*
X150622973Y-141584768D02*
X150575354Y-141441911D01*
X150575354Y-141441911D02*
X150480115Y-141346673D01*
X150480115Y-141346673D02*
X150384877Y-141299054D01*
X150384877Y-141299054D02*
X150194401Y-141251435D01*
X150194401Y-141251435D02*
X150051544Y-141251435D01*
X150051544Y-141251435D02*
X149861068Y-141299054D01*
X149861068Y-141299054D02*
X149765830Y-141346673D01*
X149765830Y-141346673D02*
X149670592Y-141441911D01*
X149670592Y-141441911D02*
X149622973Y-141584768D01*
X149622973Y-141584768D02*
X149622973Y-141680006D01*
X149622973Y-141680006D02*
X149670592Y-141822863D01*
X149670592Y-141822863D02*
X149718211Y-141870482D01*
X152240594Y-139965719D02*
X152192975Y-139870481D01*
X152192975Y-139870481D02*
X152192975Y-139727624D01*
X152192975Y-139727624D02*
X152240594Y-139584767D01*
X152240594Y-139584767D02*
X152335832Y-139489529D01*
X152335832Y-139489529D02*
X152431070Y-139441910D01*
X152431070Y-139441910D02*
X152621546Y-139394291D01*
X152621546Y-139394291D02*
X152764403Y-139394291D01*
X152764403Y-139394291D02*
X152954879Y-139441910D01*
X152954879Y-139441910D02*
X153050117Y-139489529D01*
X153050117Y-139489529D02*
X153145356Y-139584767D01*
X153145356Y-139584767D02*
X153192975Y-139727624D01*
X153192975Y-139727624D02*
X153192975Y-139822862D01*
X153192975Y-139822862D02*
X153145356Y-139965719D01*
X153145356Y-139965719D02*
X153097736Y-140013338D01*
X153097736Y-140013338D02*
X152764403Y-140013338D01*
X152764403Y-140013338D02*
X152764403Y-139822862D01*
X153192975Y-140441910D02*
X152192975Y-140441910D01*
X152192975Y-140441910D02*
X153192975Y-141013338D01*
X153192975Y-141013338D02*
X152192975Y-141013338D01*
X153192975Y-141489529D02*
X152192975Y-141489529D01*
X152192975Y-141489529D02*
X152192975Y-141727624D01*
X152192975Y-141727624D02*
X152240594Y-141870481D01*
X152240594Y-141870481D02*
X152335832Y-141965719D01*
X152335832Y-141965719D02*
X152431070Y-142013338D01*
X152431070Y-142013338D02*
X152621546Y-142060957D01*
X152621546Y-142060957D02*
X152764403Y-142060957D01*
X152764403Y-142060957D02*
X152954879Y-142013338D01*
X152954879Y-142013338D02*
X153050117Y-141965719D01*
X153050117Y-141965719D02*
X153145356Y-141870481D01*
X153145356Y-141870481D02*
X153192975Y-141727624D01*
X153192975Y-141727624D02*
X153192975Y-141489529D01*
X155597734Y-140013338D02*
X155645354Y-139965719D01*
X155645354Y-139965719D02*
X155692973Y-139822862D01*
X155692973Y-139822862D02*
X155692973Y-139727624D01*
X155692973Y-139727624D02*
X155645354Y-139584767D01*
X155645354Y-139584767D02*
X155550115Y-139489529D01*
X155550115Y-139489529D02*
X155454877Y-139441910D01*
X155454877Y-139441910D02*
X155264401Y-139394291D01*
X155264401Y-139394291D02*
X155121544Y-139394291D01*
X155121544Y-139394291D02*
X154931068Y-139441910D01*
X154931068Y-139441910D02*
X154835830Y-139489529D01*
X154835830Y-139489529D02*
X154740592Y-139584767D01*
X154740592Y-139584767D02*
X154692973Y-139727624D01*
X154692973Y-139727624D02*
X154692973Y-139822862D01*
X154692973Y-139822862D02*
X154740592Y-139965719D01*
X154740592Y-139965719D02*
X154788211Y-140013338D01*
X155645354Y-140394291D02*
X155692973Y-140537148D01*
X155692973Y-140537148D02*
X155692973Y-140775243D01*
X155692973Y-140775243D02*
X155645354Y-140870481D01*
X155645354Y-140870481D02*
X155597734Y-140918100D01*
X155597734Y-140918100D02*
X155502496Y-140965719D01*
X155502496Y-140965719D02*
X155407258Y-140965719D01*
X155407258Y-140965719D02*
X155312020Y-140918100D01*
X155312020Y-140918100D02*
X155264401Y-140870481D01*
X155264401Y-140870481D02*
X155216782Y-140775243D01*
X155216782Y-140775243D02*
X155169163Y-140584767D01*
X155169163Y-140584767D02*
X155121544Y-140489529D01*
X155121544Y-140489529D02*
X155073925Y-140441910D01*
X155073925Y-140441910D02*
X154978687Y-140394291D01*
X154978687Y-140394291D02*
X154883449Y-140394291D01*
X154883449Y-140394291D02*
X154788211Y-140441910D01*
X154788211Y-140441910D02*
X154740592Y-140489529D01*
X154740592Y-140489529D02*
X154692973Y-140584767D01*
X154692973Y-140584767D02*
X154692973Y-140822862D01*
X154692973Y-140822862D02*
X154740592Y-140965719D01*
%TO.C,D11*%
D12*
X231002424Y-141378396D02*
X231401448Y-141406297D01*
X231401448Y-141406297D02*
X231363090Y-141954959D01*
X231401448Y-141406297D02*
X231439816Y-140857638D01*
X231401448Y-141406297D02*
X232027891Y-141049126D01*
X231972086Y-141847180D02*
X231401448Y-141406297D01*
X231999989Y-141448149D02*
X232498770Y-141483030D01*
X232027891Y-141049126D02*
X231972086Y-141847180D01*
%TO.C,D12*%
X232327796Y-122424677D02*
X232726820Y-122452578D01*
X232726820Y-122452578D02*
X232688462Y-123001240D01*
X232726820Y-122452578D02*
X232765188Y-121903919D01*
X232726820Y-122452578D02*
X233353263Y-122095407D01*
X233297458Y-122893461D02*
X232726820Y-122452578D01*
X233325361Y-122494430D02*
X233824142Y-122529311D01*
X233353263Y-122095407D02*
X233297458Y-122893461D01*
%TO.C,JST1*%
D13*
X133840152Y-145670134D02*
X134840152Y-145670134D01*
X133840152Y-146590134D02*
X133840152Y-145670134D01*
X133840152Y-150790134D02*
X133840152Y-151790134D01*
X133840152Y-151790134D02*
X134840151Y-151790133D01*
X141660152Y-145670134D02*
X140660152Y-145670134D01*
X141660152Y-150870134D02*
X141660152Y-151790134D01*
X141660152Y-151790134D02*
X140660152Y-151790134D01*
X141660153Y-146590134D02*
X141660152Y-145670134D01*
D12*
X142200152Y-149730134D02*
X143200152Y-149730134D01*
X142700152Y-147230134D02*
X142700150Y-148230135D01*
X142700152Y-150230134D02*
X142700150Y-149230133D01*
%TO.C,MCU1*%
D13*
X141068149Y-101575134D02*
X141068147Y-132175134D01*
X141068150Y-104175136D02*
X143728149Y-104175133D01*
X143728149Y-101575132D02*
X141068149Y-101575134D01*
X143728149Y-101575132D02*
X143728151Y-132175136D01*
X143728151Y-132175136D02*
X141068147Y-132175134D01*
X156308148Y-101575133D02*
X156308149Y-132175135D01*
X158968149Y-101575134D02*
X156308148Y-101575133D01*
X158968149Y-101575134D02*
X158968150Y-132175135D01*
X158968150Y-132175135D02*
X156308149Y-132175135D01*
%TO.C,SSD1306*%
X144418154Y-142205134D02*
X154418152Y-142205134D01*
X154418153Y-144605134D01*
X144418151Y-144605134D01*
X144418154Y-142205134D01*
%TO.C,D9*%
D12*
X211268156Y-112105132D02*
X211668156Y-112105132D01*
X211668156Y-112105132D02*
X211668156Y-111555132D01*
X211668156Y-112105132D02*
X211668156Y-112655132D01*
X211668156Y-112105132D02*
X212268156Y-111705132D01*
X212268155Y-112505132D02*
X211668156Y-112105132D01*
X212268156Y-111705132D02*
X212268155Y-112505132D01*
X212268156Y-112105132D02*
X212768156Y-112105132D01*
%TO.C,D15*%
X253290160Y-136768095D02*
X253684083Y-136837554D01*
X253684083Y-136837554D02*
X253588577Y-137379198D01*
X253684083Y-136837554D02*
X253779590Y-136295910D01*
X253684083Y-136837554D02*
X254344427Y-136547820D01*
X254205508Y-137335666D02*
X253684083Y-136837554D01*
X254274968Y-136941743D02*
X254767372Y-137028567D01*
X254344427Y-136547820D02*
X254205508Y-137335666D01*
%TO.C,D3*%
X173268154Y-125105135D02*
X173668154Y-125105135D01*
X173668154Y-125105135D02*
X173668154Y-124555135D01*
X173668154Y-125105135D02*
X173668154Y-125655135D01*
X173668154Y-125105135D02*
X174268154Y-124705135D01*
X174268153Y-125505135D02*
X173668154Y-125105135D01*
X174268154Y-124705135D02*
X174268153Y-125505135D01*
X174268154Y-125105135D02*
X174768154Y-125105135D01*
%TO.C,D8*%
X211268147Y-131105137D02*
X211668147Y-131105137D01*
X211668147Y-131105137D02*
X211668147Y-130555137D01*
X211668147Y-131105137D02*
X211668147Y-131655137D01*
X211668147Y-131105137D02*
X212268147Y-130705137D01*
X212268146Y-131505137D02*
X211668147Y-131105137D01*
X212268147Y-130705137D02*
X212268146Y-131505137D01*
X212268147Y-131105137D02*
X212768147Y-131105137D01*
%TO.C,D5*%
X192268153Y-140105137D02*
X192668153Y-140105137D01*
X192668153Y-140105137D02*
X192668153Y-139555137D01*
X192668153Y-140105137D02*
X192668153Y-140655137D01*
X192668153Y-140105137D02*
X193268153Y-139705137D01*
X193268152Y-140505137D02*
X192668153Y-140105137D01*
X193268153Y-139705137D02*
X193268152Y-140505137D01*
X193268153Y-140105137D02*
X193768153Y-140105137D01*
%TO.C,D17*%
X269570431Y-153854720D02*
X269964354Y-153924179D01*
X269964354Y-153924179D02*
X269868848Y-154465823D01*
X269964354Y-153924179D02*
X270059861Y-153382535D01*
X269964354Y-153924179D02*
X270624698Y-153634445D01*
X270485779Y-154422291D02*
X269964354Y-153924179D01*
X270555239Y-154028368D02*
X271047643Y-154115192D01*
X270624698Y-153634445D02*
X270485779Y-154422291D01*
%TO.C,D16*%
X266271119Y-172566068D02*
X266665042Y-172635527D01*
X266665042Y-172635527D02*
X266569536Y-173177171D01*
X266665042Y-172635527D02*
X266760549Y-172093883D01*
X266665042Y-172635527D02*
X267325386Y-172345793D01*
X267186467Y-173133639D02*
X266665042Y-172635527D01*
X267255927Y-172739716D02*
X267748331Y-172826540D01*
X267325386Y-172345793D02*
X267186467Y-173133639D01*
%TO.C,D20*%
X158804384Y-191425225D02*
X159150794Y-191225225D01*
X159150794Y-191225225D02*
X158875794Y-190748911D01*
X159150794Y-191225225D02*
X159425794Y-191701539D01*
X159150794Y-191225225D02*
X159470409Y-190578815D01*
X159470409Y-190578815D02*
X159870408Y-191271635D01*
X159670409Y-190925225D02*
X160103422Y-190675225D01*
X159870408Y-191271635D02*
X159150794Y-191225225D01*
%TO.C,D18*%
X195218156Y-181055139D02*
X195618156Y-181055139D01*
X195618156Y-181055139D02*
X195618156Y-180505139D01*
X195618156Y-181055139D02*
X195618156Y-181605139D01*
X195618156Y-181055139D02*
X196218156Y-180655139D01*
X196218155Y-181455139D02*
X195618156Y-181055139D01*
X196218156Y-180655139D02*
X196218155Y-181455139D01*
X196218156Y-181055139D02*
X196718156Y-181055139D01*
%TO.C,SW25*%
D13*
X142440154Y-152907137D02*
X142440153Y-164707136D01*
X146540154Y-152907137D02*
X142440154Y-152907137D01*
X146540154Y-164707137D02*
X142440153Y-164707136D01*
X148040152Y-158807137D02*
X149040156Y-158807137D01*
X148540154Y-158307135D02*
X148540154Y-159307139D01*
X150540154Y-152907137D02*
X154640155Y-152907138D01*
X154640154Y-157507136D02*
X154640154Y-160107138D01*
X154640154Y-162307138D02*
X154640154Y-164707137D01*
X154640154Y-164707137D02*
X150540154Y-164707137D01*
X154640155Y-152907138D02*
X154640154Y-155307137D01*
X151540154Y-158807137D02*
G75*
G02*
X145540154Y-158807137I-3000000J0D01*
G01*
X145540154Y-158807137D02*
G75*
G02*
X151540154Y-158807137I3000000J0D01*
G01*
%TO.C,D4*%
D12*
X192268155Y-159105135D02*
X192668155Y-159105135D01*
X192668155Y-159105135D02*
X192668155Y-158555135D01*
X192668155Y-159105135D02*
X192668155Y-159655135D01*
X192668155Y-159105135D02*
X193268155Y-158705135D01*
X193268154Y-159505135D02*
X192668155Y-159105135D01*
X193268155Y-158705135D02*
X193268154Y-159505135D01*
X193268155Y-159105135D02*
X193768155Y-159105135D01*
%TO.C,D10*%
X229677048Y-160332113D02*
X230076072Y-160360014D01*
X230076072Y-160360014D02*
X230037714Y-160908676D01*
X230076072Y-160360014D02*
X230114440Y-159811355D01*
X230076072Y-160360014D02*
X230702515Y-160002843D01*
X230646710Y-160800897D02*
X230076072Y-160360014D01*
X230674613Y-160401866D02*
X231173394Y-160436747D01*
X230702515Y-160002843D02*
X230646710Y-160800897D01*
%TO.C,D19*%
X176329422Y-183840699D02*
X176715792Y-183737172D01*
X176715792Y-183737172D02*
X176573440Y-183205911D01*
X176715792Y-183737172D02*
X176858142Y-184268432D01*
X176715792Y-183737172D02*
X177191821Y-183195512D01*
X177191821Y-183195512D02*
X177398875Y-183968251D01*
X177295347Y-183581880D02*
X177778310Y-183452471D01*
X177398875Y-183968251D02*
X176715792Y-183737172D01*
%TO.C,J1*%
D10*
X133776153Y-170975135D02*
X145776153Y-170975132D01*
X133776153Y-176975135D02*
X133776153Y-170975135D01*
X145776153Y-170975132D02*
X145776153Y-176975135D01*
X145776153Y-176975135D02*
X133776153Y-176975135D01*
%TO.C,D7*%
D12*
X211268159Y-150105133D02*
X211668159Y-150105133D01*
X211668159Y-150105133D02*
X211668159Y-149555133D01*
X211668159Y-150105133D02*
X211668159Y-150655133D01*
X211668159Y-150105133D02*
X212268159Y-149705133D01*
X212268158Y-150505133D02*
X211668159Y-150105133D01*
X212268159Y-149705133D02*
X212268158Y-150505133D01*
X212268159Y-150105133D02*
X212768159Y-150105133D01*
%TO.C,RST1*%
X133510160Y-166705135D02*
X133510158Y-166955136D01*
X133510161Y-162505136D02*
X133510159Y-162255133D01*
X133760159Y-162255137D02*
X133510159Y-162255133D01*
X133760159Y-166955132D02*
X133510158Y-166955136D01*
X136760159Y-162255138D02*
X137010160Y-162255134D01*
X136760159Y-166955133D02*
X137010159Y-166955137D01*
X137010157Y-166705134D02*
X137010159Y-166955137D01*
X137010158Y-162505135D02*
X137010160Y-162255134D01*
%TO.C,D21*%
X143808982Y-203291844D02*
X144091825Y-203009001D01*
X144091825Y-203009001D02*
X143702916Y-202620094D01*
X144091825Y-203009001D02*
X144233246Y-202301895D01*
X144091825Y-203009001D02*
X144480734Y-203397910D01*
X144233246Y-202301895D02*
X144798931Y-202867580D01*
X144516089Y-202584737D02*
X144869642Y-202231184D01*
X144798931Y-202867580D02*
X144091825Y-203009001D01*
%TO.C,D2*%
X173268154Y-144105132D02*
X173668154Y-144105132D01*
X173668154Y-144105132D02*
X173668154Y-143555132D01*
X173668154Y-144105132D02*
X173668154Y-144655132D01*
X173668154Y-144105132D02*
X174268154Y-143705132D01*
X174268153Y-144505132D02*
X173668154Y-144105132D01*
X174268154Y-143705132D02*
X174268153Y-144505132D01*
X174268154Y-144105132D02*
X174768154Y-144105132D01*
%TO.C,D13*%
X246691531Y-174190793D02*
X247085454Y-174260252D01*
X247085454Y-174260252D02*
X246989948Y-174801896D01*
X247085454Y-174260252D02*
X247180961Y-173718608D01*
X247085454Y-174260252D02*
X247745798Y-173970518D01*
X247606879Y-174758364D02*
X247085454Y-174260252D01*
X247676339Y-174364441D02*
X248168743Y-174451265D01*
X247745798Y-173970518D02*
X247606879Y-174758364D01*
%TO.C,D14*%
X249990845Y-155479444D02*
X250384768Y-155548903D01*
X250384768Y-155548903D02*
X250289262Y-156090547D01*
X250384768Y-155548903D02*
X250480275Y-155007259D01*
X250384768Y-155548903D02*
X251045112Y-155259169D01*
X250906193Y-156047015D02*
X250384768Y-155548903D01*
X250975653Y-155653092D02*
X251468057Y-155739916D01*
X251045112Y-155259169D02*
X250906193Y-156047015D01*
%TO.C,D6*%
X192268155Y-121105131D02*
X192668155Y-121105131D01*
X192668155Y-121105131D02*
X192668155Y-120555131D01*
X192668155Y-121105131D02*
X192668155Y-121655131D01*
X192668155Y-121105131D02*
X193268155Y-120705131D01*
X193268154Y-121505131D02*
X192668155Y-121105131D01*
X193268155Y-120705131D02*
X193268154Y-121505131D01*
X193268155Y-121105131D02*
X193768155Y-121105131D01*
%TO.C,PWR1*%
D13*
X133856154Y-111855133D02*
X133856154Y-106155134D01*
X134866152Y-105555132D02*
X135656154Y-105555133D01*
X135656155Y-112455133D02*
X134866153Y-112455133D01*
X136706154Y-107605133D02*
X136706154Y-107405133D01*
X136706154Y-110605133D02*
X136706154Y-108905133D01*
%TO.C,D1*%
D12*
X173268156Y-163105135D02*
X173668156Y-163105135D01*
X173668156Y-163105135D02*
X173668156Y-162555135D01*
X173668156Y-163105135D02*
X173668156Y-163655135D01*
X173668156Y-163105135D02*
X174268156Y-162705135D01*
X174268155Y-163505135D02*
X173668156Y-163105135D01*
X174268156Y-162705135D02*
X174268155Y-163505135D01*
X174268156Y-163105135D02*
X174768156Y-163105135D01*
%TO.C,D22*%
X153080184Y-151817278D02*
X153480184Y-151817278D01*
X153480184Y-151817278D02*
X153480184Y-151267278D01*
X153480184Y-151817278D02*
X153480184Y-152367278D01*
X153480184Y-151817278D02*
X154080184Y-151417278D01*
X154080183Y-152217278D02*
X153480184Y-151817278D01*
X154080184Y-151417278D02*
X154080183Y-152217278D01*
X154080184Y-151817278D02*
X154580184Y-151817278D01*
%TO.C,DISP1*%
D13*
X143608155Y-135975132D02*
X143608155Y-138635132D01*
X156428155Y-135975132D02*
X143608155Y-135975132D01*
X156428155Y-135975132D02*
X156428156Y-138635131D01*
X156428156Y-138635131D02*
X143608155Y-138635132D01*
%TO.C,S13*%
D10*
X248071431Y-162045895D02*
X247665853Y-161466668D01*
X248852846Y-157614261D02*
X248273620Y-158019842D01*
X250336489Y-162445286D02*
X248071431Y-162045895D01*
X251628636Y-164907065D02*
X251750190Y-164217699D01*
X251807271Y-158135206D02*
X248852846Y-157614261D01*
X252212848Y-158714433D02*
X251807271Y-158135206D01*
X252212848Y-158714433D02*
X252053094Y-159620456D01*
X252464478Y-160281942D02*
X256876417Y-161059886D01*
X256060272Y-165688484D02*
X251628636Y-164907065D01*
X256147095Y-165196078D02*
X256060272Y-165688484D01*
X256876417Y-161059886D02*
X256772226Y-161650770D01*
X250336489Y-162445286D02*
G75*
G02*
X251753662Y-164198004I-167772J-1584945D01*
G01*
X252464478Y-160281942D02*
G75*
G02*
X252053095Y-159620456I125051J536434D01*
G01*
%TO.C,S34*%
D12*
X247050025Y-169451031D02*
X248468551Y-168431873D01*
X248468551Y-168431873D02*
X250319989Y-168758331D01*
%TO.C,S42*%
X140110812Y-198533017D02*
X141440172Y-197203654D01*
X140132024Y-200279569D02*
X140110812Y-198533017D01*
%TO.C,S7*%
D10*
X210518150Y-133405140D02*
X210018152Y-133905141D01*
X210518151Y-137905139D02*
X210018152Y-137405139D01*
X212818151Y-137905139D02*
X210518151Y-137905139D01*
X213518151Y-133405140D02*
X210518150Y-133405140D01*
X214018148Y-133905137D02*
X213518151Y-133405140D01*
X214018148Y-133905137D02*
X214018150Y-134825139D01*
X214518151Y-140105139D02*
X214518151Y-139405139D01*
X214538151Y-135405140D02*
X219018151Y-135405140D01*
X219018151Y-135405140D02*
X219018151Y-136005140D01*
X219018151Y-139605139D02*
X219018153Y-140105140D01*
X219018153Y-140105140D02*
X214518151Y-140105139D01*
X212818151Y-137905139D02*
G75*
G02*
X214518151Y-139385140I109999J-1590001D01*
G01*
X214538151Y-135405140D02*
G75*
G02*
X214018151Y-134825139I30000J550000D01*
G01*
%TO.C,S18*%
X194468149Y-164355137D02*
X193968151Y-164855138D01*
X194468150Y-168855136D02*
X193968151Y-168355136D01*
X196768150Y-168855136D02*
X194468150Y-168855136D01*
X197468150Y-164355137D02*
X194468149Y-164355137D01*
X197968147Y-164855134D02*
X197468150Y-164355137D01*
X197968147Y-164855134D02*
X197968149Y-165775136D01*
X198468150Y-171055136D02*
X198468150Y-170355136D01*
X198488150Y-166355137D02*
X202968150Y-166355137D01*
X202968150Y-166355137D02*
X202968150Y-166955137D01*
X202968150Y-170555136D02*
X202968152Y-171055137D01*
X202968152Y-171055137D02*
X198468150Y-171055136D01*
X196768150Y-168855136D02*
G75*
G02*
X198468150Y-170335137I109999J-1590001D01*
G01*
X198488150Y-166355137D02*
G75*
G02*
X197968150Y-165775136I30000J550000D01*
G01*
%TO.C,S5*%
X191518155Y-123405137D02*
X191018157Y-123905138D01*
X191518156Y-127905136D02*
X191018157Y-127405136D01*
X193818156Y-127905136D02*
X191518156Y-127905136D01*
X194518156Y-123405137D02*
X191518155Y-123405137D01*
X195018153Y-123905134D02*
X194518156Y-123405137D01*
X195018153Y-123905134D02*
X195018155Y-124825136D01*
X195518156Y-130105136D02*
X195518156Y-129405136D01*
X195538156Y-125405137D02*
X200018156Y-125405137D01*
X200018156Y-125405137D02*
X200018156Y-126005137D01*
X200018156Y-129605136D02*
X200018158Y-130105137D01*
X200018158Y-130105137D02*
X195518156Y-130105136D01*
X193818156Y-127905136D02*
G75*
G02*
X195518156Y-129385137I109999J-1590001D01*
G01*
X195538156Y-125405137D02*
G75*
G02*
X195018156Y-124825136I30000J550000D01*
G01*
%TO.C,S22*%
D12*
X172798151Y-158375135D02*
X174018151Y-157125135D01*
X174018151Y-157125135D02*
X175898151Y-157125135D01*
%TO.C,S27*%
X191798153Y-116375137D02*
X193018153Y-115125137D01*
X193018153Y-115125137D02*
X194898153Y-115125137D01*
%TO.C,S36*%
X253648655Y-132028343D02*
X255067181Y-131009185D01*
X255067181Y-131009185D02*
X256918619Y-131335643D01*
%TO.C,S39*%
X194748150Y-176325137D02*
X195968150Y-175075137D01*
X195968150Y-175075137D02*
X197848150Y-175075137D01*
%TO.C,S16*%
D10*
X267651020Y-160421175D02*
X267245442Y-159841948D01*
X268432435Y-155989541D02*
X267853209Y-156395122D01*
X269916078Y-160820566D02*
X267651020Y-160421175D01*
X271208225Y-163282345D02*
X271329779Y-162592979D01*
X271386860Y-156510486D02*
X268432435Y-155989541D01*
X271792437Y-157089713D02*
X271386860Y-156510486D01*
X271792437Y-157089713D02*
X271632683Y-157995736D01*
X272044067Y-158657222D02*
X276456006Y-159435166D01*
X275639861Y-164063764D02*
X271208225Y-163282345D01*
X275726684Y-163571358D02*
X275639861Y-164063764D01*
X276456006Y-159435166D02*
X276351815Y-160026050D01*
X269916078Y-160820566D02*
G75*
G02*
X271333251Y-162573284I-167772J-1584945D01*
G01*
X272044067Y-158657222D02*
G75*
G02*
X271632684Y-157995736I125051J536434D01*
G01*
%TO.C,S23*%
D12*
X172798153Y-139375131D02*
X174018153Y-138125131D01*
X174018153Y-138125131D02*
X175898153Y-138125131D01*
%TO.C,S1*%
D10*
X172518150Y-146405135D02*
X172018152Y-146905136D01*
X172518151Y-150905134D02*
X172018152Y-150405134D01*
X174818151Y-150905134D02*
X172518151Y-150905134D01*
X175518151Y-146405135D02*
X172518150Y-146405135D01*
X176018148Y-146905132D02*
X175518151Y-146405135D01*
X176018148Y-146905132D02*
X176018150Y-147825134D01*
X176518151Y-153105134D02*
X176518151Y-152405134D01*
X176538151Y-148405135D02*
X181018151Y-148405135D01*
X181018151Y-148405135D02*
X181018151Y-149005135D01*
X181018151Y-152605134D02*
X181018153Y-153105135D01*
X181018153Y-153105135D02*
X176518151Y-153105134D01*
X174818151Y-150905134D02*
G75*
G02*
X176518151Y-152385135I109999J-1590001D01*
G01*
X176538151Y-148405135D02*
G75*
G02*
X176018151Y-147825134I30000J550000D01*
G01*
%TO.C,S17*%
X270950335Y-141709832D02*
X270544757Y-141130605D01*
X271731750Y-137278198D02*
X271152524Y-137683779D01*
X273215393Y-142109223D02*
X270950335Y-141709832D01*
X274507540Y-144571002D02*
X274629094Y-143881636D01*
X274686175Y-137799143D02*
X271731750Y-137278198D01*
X275091752Y-138378370D02*
X274686175Y-137799143D01*
X275091752Y-138378370D02*
X274931998Y-139284393D01*
X275343382Y-139945879D02*
X279755321Y-140723823D01*
X278939176Y-145352421D02*
X274507540Y-144571002D01*
X279025999Y-144860015D02*
X278939176Y-145352421D01*
X279755321Y-140723823D02*
X279651130Y-141314707D01*
X273215393Y-142109223D02*
G75*
G02*
X274632566Y-143861941I-167772J-1584945D01*
G01*
X275343382Y-139945879D02*
G75*
G02*
X274931999Y-139284393I125051J536434D01*
G01*
%TO.C,S29*%
D12*
X210798154Y-126375137D02*
X212018154Y-125125137D01*
X212018154Y-125125137D02*
X213898154Y-125125137D01*
%TO.C,S3*%
D10*
X172518153Y-108405134D02*
X172018155Y-108905135D01*
X172518154Y-112905133D02*
X172018155Y-112405133D01*
X174818154Y-112905133D02*
X172518154Y-112905133D01*
X175518154Y-108405134D02*
X172518153Y-108405134D01*
X176018151Y-108905131D02*
X175518154Y-108405134D01*
X176018151Y-108905131D02*
X176018153Y-109825133D01*
X176518154Y-115105133D02*
X176518154Y-114405133D01*
X176538154Y-110405134D02*
X181018154Y-110405134D01*
X181018154Y-110405134D02*
X181018154Y-111005134D01*
X181018154Y-114605133D02*
X181018156Y-115105134D01*
X181018156Y-115105134D02*
X176518154Y-115105133D01*
X174818154Y-112905133D02*
G75*
G02*
X176518154Y-114385134I109999J-1590001D01*
G01*
X176538154Y-110405134D02*
G75*
G02*
X176018154Y-109825133I30000J550000D01*
G01*
%TO.C,S20*%
X149804863Y-177337604D02*
X149621852Y-178020614D01*
X152054863Y-181234719D02*
X151371851Y-181051705D01*
X152402940Y-175837603D02*
X149804863Y-177337604D01*
X153085951Y-176020615D02*
X152402940Y-175837603D01*
X153085951Y-176020615D02*
X153545953Y-176817361D01*
X154046722Y-180084717D02*
X152054863Y-181234719D01*
X154286287Y-177059654D02*
X158166080Y-174819655D01*
X156618966Y-181139974D02*
X156268967Y-180533756D01*
X158166080Y-174819655D02*
X158466080Y-175339270D01*
X160266080Y-178456960D02*
X160516082Y-178889974D01*
X160516082Y-178889974D02*
X156618966Y-181139974D01*
X154046722Y-180084717D02*
G75*
G02*
X156258968Y-180516437I890262J-1321988D01*
G01*
X154286287Y-177059654D02*
G75*
G02*
X153545954Y-176817361I-249020J491313D01*
G01*
%TO.C,S10*%
X229779907Y-148109512D02*
X229316005Y-147575850D01*
X230093809Y-143620470D02*
X229560151Y-144084378D01*
X232074304Y-148269952D02*
X229779907Y-148109512D01*
X233086503Y-143829743D02*
X230093809Y-143620470D01*
X233550407Y-144363404D02*
X233086503Y-143829743D01*
X233550407Y-144363404D02*
X233486232Y-145281163D01*
X233616698Y-150583179D02*
X233665528Y-149884884D01*
X233964506Y-145896025D02*
X238433591Y-146208532D01*
X238105735Y-150897081D02*
X233616698Y-150583179D01*
X238140616Y-150398301D02*
X238105735Y-150897081D01*
X238433591Y-146208532D02*
X238391739Y-146807071D01*
X232074304Y-148269952D02*
G75*
G02*
X233666922Y-149864932I-1176J-1593794D01*
G01*
X233964506Y-145896025D02*
G75*
G02*
X233486230Y-145281163I68293J546569D01*
G01*
%TO.C,S41*%
D12*
X156032351Y-187563928D02*
X156463902Y-185871396D01*
X156463902Y-185871396D02*
X158092030Y-184931396D01*
%TO.C,S12*%
D10*
X232430652Y-110202076D02*
X231966750Y-109668414D01*
X232744554Y-105713034D02*
X232210896Y-106176942D01*
X234725049Y-110362516D02*
X232430652Y-110202076D01*
X235737248Y-105922307D02*
X232744554Y-105713034D01*
X236201152Y-106455968D02*
X235737248Y-105922307D01*
X236201152Y-106455968D02*
X236136977Y-107373727D01*
X236267443Y-112675743D02*
X236316273Y-111977448D01*
X236615251Y-107988589D02*
X241084336Y-108301096D01*
X240756480Y-112989645D02*
X236267443Y-112675743D01*
X240791361Y-112490865D02*
X240756480Y-112989645D01*
X241084336Y-108301096D02*
X241042484Y-108899635D01*
X234725049Y-110362516D02*
G75*
G02*
X236317667Y-111957496I-1176J-1593794D01*
G01*
X236615251Y-107988589D02*
G75*
G02*
X236136975Y-107373727I68293J546569D01*
G01*
%TO.C,S6*%
X191518152Y-104405137D02*
X191018154Y-104905138D01*
X191518153Y-108905136D02*
X191018154Y-108405136D01*
X193818153Y-108905136D02*
X191518153Y-108905136D01*
X194518153Y-104405137D02*
X191518152Y-104405137D01*
X195018150Y-104905134D02*
X194518153Y-104405137D01*
X195018150Y-104905134D02*
X195018152Y-105825136D01*
X195518153Y-111105136D02*
X195518153Y-110405136D01*
X195538153Y-106405137D02*
X200018153Y-106405137D01*
X200018153Y-106405137D02*
X200018153Y-107005137D01*
X200018153Y-110605136D02*
X200018155Y-111105137D01*
X200018155Y-111105137D02*
X195518153Y-111105136D01*
X193818153Y-108905136D02*
G75*
G02*
X195518153Y-110385137I109999J-1590001D01*
G01*
X195538153Y-106405137D02*
G75*
G02*
X195018153Y-105825136I30000J550000D01*
G01*
%TO.C,S30*%
D12*
X210798151Y-107375132D02*
X212018151Y-106125132D01*
X212018151Y-106125132D02*
X213898151Y-106125132D01*
%TO.C,S21*%
D10*
X131469966Y-192013490D02*
X131469965Y-192720597D01*
X133591285Y-189892170D02*
X131469966Y-192013490D01*
X134298393Y-189892169D02*
X133591285Y-189892170D01*
X134298393Y-189892169D02*
X134948932Y-190542707D01*
X134651945Y-195195470D02*
X133944840Y-195195471D01*
X135726748Y-190585135D02*
X138894587Y-187417297D01*
X136278292Y-193569125D02*
X134651945Y-195195470D01*
X138894587Y-187417297D02*
X139318851Y-187841562D01*
X139036009Y-193922679D02*
X138541037Y-193427704D01*
X141864437Y-190387145D02*
X142217988Y-190740698D01*
X142217988Y-190740698D02*
X139036009Y-193922679D01*
X135726748Y-190585135D02*
G75*
G02*
X134948932Y-190542707I-367694J410123D01*
G01*
X136278292Y-193569125D02*
G75*
G02*
X138526891Y-193413560I1202082J-1046519D01*
G01*
%TO.C,S25*%
D12*
X191798153Y-154375130D02*
X193018153Y-153125130D01*
X193018153Y-153125130D02*
X194898153Y-153125130D01*
%TO.C,S24*%
X172798154Y-120375134D02*
X174018154Y-119125134D01*
X174018154Y-119125134D02*
X175898154Y-119125134D01*
%TO.C,S37*%
X266629614Y-167826311D02*
X268048140Y-166807153D01*
X268048140Y-166807153D02*
X269899578Y-167133611D01*
%TO.C,S33*%
X232188891Y-117673413D02*
X233493113Y-116511559D01*
X233493113Y-116511559D02*
X235368533Y-116642702D01*
%TO.C,S11*%
D10*
X231105279Y-129155792D02*
X230641377Y-128622130D01*
X231419181Y-124666750D02*
X230885523Y-125130658D01*
X233399676Y-129316232D02*
X231105279Y-129155792D01*
X234411875Y-124876023D02*
X231419181Y-124666750D01*
X234875779Y-125409684D02*
X234411875Y-124876023D01*
X234875779Y-125409684D02*
X234811604Y-126327443D01*
X234942070Y-131629459D02*
X234990900Y-130931164D01*
X235289878Y-126942305D02*
X239758963Y-127254812D01*
X239431107Y-131943361D02*
X234942070Y-131629459D01*
X239465988Y-131444581D02*
X239431107Y-131943361D01*
X239758963Y-127254812D02*
X239717111Y-127853351D01*
X233399676Y-129316232D02*
G75*
G02*
X234992294Y-130911212I-1176J-1593794D01*
G01*
X235289878Y-126942305D02*
G75*
G02*
X234811602Y-126327443I68293J546569D01*
G01*
%TO.C,S8*%
X210518153Y-114405137D02*
X210018155Y-114905138D01*
X210518154Y-118905136D02*
X210018155Y-118405136D01*
X212818154Y-118905136D02*
X210518154Y-118905136D01*
X213518154Y-114405137D02*
X210518153Y-114405137D01*
X214018151Y-114905134D02*
X213518154Y-114405137D01*
X214018151Y-114905134D02*
X214018153Y-115825136D01*
X214518154Y-121105136D02*
X214518154Y-120405136D01*
X214538154Y-116405137D02*
X219018154Y-116405137D01*
X219018154Y-116405137D02*
X219018154Y-117005137D01*
X219018154Y-120605136D02*
X219018156Y-121105137D01*
X219018156Y-121105137D02*
X214518154Y-121105136D01*
X212818154Y-118905136D02*
G75*
G02*
X214518154Y-120385137I109999J-1590001D01*
G01*
X214538154Y-116405137D02*
G75*
G02*
X214018154Y-115825136I30000J550000D01*
G01*
%TO.C,S14*%
X251370747Y-143334552D02*
X250965169Y-142755325D01*
X252152162Y-138902918D02*
X251572936Y-139308499D01*
X253635805Y-143733943D02*
X251370747Y-143334552D01*
X254927952Y-146195722D02*
X255049506Y-145506356D01*
X255106587Y-139423863D02*
X252152162Y-138902918D01*
X255512164Y-140003090D02*
X255106587Y-139423863D01*
X255512164Y-140003090D02*
X255352410Y-140909113D01*
X255763794Y-141570599D02*
X260175733Y-142348543D01*
X259359588Y-146977141D02*
X254927952Y-146195722D01*
X259446411Y-146484735D02*
X259359588Y-146977141D01*
X260175733Y-142348543D02*
X260071542Y-142939427D01*
X253635805Y-143733943D02*
G75*
G02*
X255052978Y-145486661I-167772J-1584945D01*
G01*
X255763794Y-141570599D02*
G75*
G02*
X255352411Y-140909113I125051J536434D01*
G01*
%TO.C,S26*%
D12*
X191798156Y-135375137D02*
X193018156Y-134125137D01*
X193018156Y-134125137D02*
X194898156Y-134125137D01*
%TO.C,S15*%
D10*
X254670061Y-124623207D02*
X254264483Y-124043980D01*
X255451476Y-120191573D02*
X254872250Y-120597154D01*
X256935119Y-125022598D02*
X254670061Y-124623207D01*
X258227266Y-127484377D02*
X258348820Y-126795011D01*
X258405901Y-120712518D02*
X255451476Y-120191573D01*
X258811478Y-121291745D02*
X258405901Y-120712518D01*
X258811478Y-121291745D02*
X258651724Y-122197768D01*
X259063108Y-122859254D02*
X263475047Y-123637198D01*
X262658902Y-128265796D02*
X258227266Y-127484377D01*
X262745725Y-127773390D02*
X262658902Y-128265796D01*
X263475047Y-123637198D02*
X263370856Y-124228082D01*
X256935119Y-125022598D02*
G75*
G02*
X258352292Y-126775316I-167772J-1584945D01*
G01*
X259063108Y-122859254D02*
G75*
G02*
X258651725Y-122197768I125051J536434D01*
G01*
%TO.C,S32*%
D12*
X230863518Y-136627129D02*
X232167740Y-135465275D01*
X232167740Y-135465275D02*
X234043160Y-135596418D01*
%TO.C,S19*%
D10*
X171282701Y-167903853D02*
X170929147Y-168516225D01*
X172447388Y-172250519D02*
X171835014Y-171896966D01*
X174180479Y-167127396D02*
X171282701Y-167903853D01*
X174669016Y-171655235D02*
X172447388Y-172250519D01*
X174792851Y-167480948D02*
X174180479Y-167127396D01*
X174792851Y-167480948D02*
X175030966Y-168369602D01*
X175683361Y-168795251D02*
X180010709Y-167635744D01*
X176880491Y-173340278D02*
X176699319Y-172664133D01*
X180010709Y-167635744D02*
X180166000Y-168215298D01*
X181097750Y-171692632D02*
X181227158Y-172175595D01*
X181227158Y-172175595D02*
X176880491Y-173340278D01*
X174669016Y-171655235D02*
G75*
G02*
X176694142Y-172644813I517774J-1507352D01*
G01*
X175683361Y-168795251D02*
G75*
G02*
X175030965Y-168369602I-113373J539023D01*
G01*
%TO.C,S28*%
D12*
X210798151Y-145375140D02*
X212018151Y-144125140D01*
X212018151Y-144125140D02*
X213898151Y-144125140D01*
%TO.C,S2*%
D10*
X172518152Y-127405131D02*
X172018154Y-127905132D01*
X172518153Y-131905130D02*
X172018154Y-131405130D01*
X174818153Y-131905130D02*
X172518153Y-131905130D01*
X175518153Y-127405131D02*
X172518152Y-127405131D01*
X176018150Y-127905128D02*
X175518153Y-127405131D01*
X176018150Y-127905128D02*
X176018152Y-128825130D01*
X176518153Y-134105130D02*
X176518153Y-133405130D01*
X176538153Y-129405131D02*
X181018153Y-129405131D01*
X181018153Y-129405131D02*
X181018153Y-130005131D01*
X181018153Y-133605130D02*
X181018155Y-134105131D01*
X181018155Y-134105131D02*
X176518153Y-134105130D01*
X174818153Y-131905130D02*
G75*
G02*
X176518153Y-133385131I109999J-1590001D01*
G01*
X176538153Y-129405131D02*
G75*
G02*
X176018153Y-128825130I30000J550000D01*
G01*
%TO.C,S40*%
D12*
X174651224Y-179393516D02*
X175506131Y-177870351D01*
X175506131Y-177870351D02*
X177322072Y-177383769D01*
%TO.C,S9*%
D10*
X210518150Y-95405132D02*
X210018152Y-95905133D01*
X210518151Y-99905131D02*
X210018152Y-99405131D01*
X212818151Y-99905131D02*
X210518151Y-99905131D01*
X213518151Y-95405132D02*
X210518150Y-95405132D01*
X214018148Y-95905129D02*
X213518151Y-95405132D01*
X214018148Y-95905129D02*
X214018150Y-96825131D01*
X214518151Y-102105131D02*
X214518151Y-101405131D01*
X214538151Y-97405132D02*
X219018151Y-97405132D01*
X219018151Y-97405132D02*
X219018151Y-98005132D01*
X219018151Y-101605131D02*
X219018153Y-102105132D01*
X219018153Y-102105132D02*
X214518151Y-102105131D01*
X212818151Y-99905131D02*
G75*
G02*
X214518151Y-101385132I109999J-1590001D01*
G01*
X214538151Y-97405132D02*
G75*
G02*
X214018151Y-96825131I30000J550000D01*
G01*
%TO.C,S31*%
D12*
X229538146Y-155580849D02*
X230842368Y-154418995D01*
X230842368Y-154418995D02*
X232717788Y-154550138D01*
%TO.C,S4*%
D10*
X191518152Y-142405130D02*
X191018154Y-142905131D01*
X191518153Y-146905129D02*
X191018154Y-146405129D01*
X193818153Y-146905129D02*
X191518153Y-146905129D01*
X194518153Y-142405130D02*
X191518152Y-142405130D01*
X195018150Y-142905127D02*
X194518153Y-142405130D01*
X195018150Y-142905127D02*
X195018152Y-143825129D01*
X195518153Y-149105129D02*
X195518153Y-148405129D01*
X195538153Y-144405130D02*
X200018153Y-144405130D01*
X200018153Y-144405130D02*
X200018153Y-145005130D01*
X200018153Y-148605129D02*
X200018155Y-149105130D01*
X200018155Y-149105130D02*
X195518153Y-149105129D01*
X193818153Y-146905129D02*
G75*
G02*
X195518153Y-148385130I109999J-1590001D01*
G01*
X195538153Y-144405130D02*
G75*
G02*
X195018153Y-143825129I30000J550000D01*
G01*
%TO.C,S35*%
D12*
X250349341Y-150739688D02*
X251767867Y-149720530D01*
X251767867Y-149720530D02*
X253619305Y-150046988D01*
%TO.C,S38*%
X269928929Y-149114968D02*
X271347455Y-148095810D01*
X271347455Y-148095810D02*
X273198893Y-148422268D01*
%TD*%
M02*
