%TF.GenerationSoftware,KiCad,Pcbnew,10.0.4*%
%TF.CreationDate,2026-08-03T15:36:27-06:00*%
%TF.ProjectId,KLON -nice_view - Copy,4b4c4f4e-202d-46e6-9963-655f76696577,v1.0.0*%
%TF.SameCoordinates,Original*%
%TF.FileFunction,Profile,NP*%
%FSLAX46Y46*%
G04 Gerber Fmt 4.6, Leading zero omitted, Abs format (unit mm)*
G04 Created by KiCad (PCBNEW 10.0.4) date 2026-08-03 15:36:27*
%MOMM*%
%LPD*%
G01*
G04 APERTURE LIST*
%TA.AperFunction,Profile*%
%ADD10C,0.050000*%
%TD*%
%TA.AperFunction,Profile*%
%ADD11C,0.150000*%
%TD*%
G04 APERTURE END LIST*
D10*
X264328874Y-142518133D02*
X263938165Y-144733951D01*
X264328874Y-142518133D02*
X263590269Y-142387897D01*
X263199560Y-144603714D02*
X263938165Y-144733951D01*
X263590269Y-142387897D02*
X263199560Y-144603714D01*
X261371603Y-161212374D02*
X260632998Y-161082137D01*
X261371603Y-161212374D02*
X260894072Y-163920597D01*
X260155465Y-163790359D02*
X260894072Y-163920597D01*
X260632998Y-161082137D02*
X260155465Y-163790359D01*
D11*
X124257476Y-197246082D02*
G75*
G02*
X124257438Y-196256092I495127J495014D01*
G01*
X124257476Y-197246082D02*
X137833929Y-210822532D01*
X131026940Y-189486665D02*
X124257476Y-196256129D01*
X131026940Y-189486665D02*
G75*
G02*
X131065895Y-189450569I492563J-492503D01*
G01*
X131065894Y-189450568D02*
G75*
G02*
X133718153Y-187241758I74515311J-86778499D01*
G01*
X133718154Y-98005136D02*
G75*
G02*
X134418151Y-97305118I700049J-31D01*
G01*
X133718152Y-183605136D02*
X141192746Y-183605134D01*
X133718152Y-187241756D02*
X133718152Y-183605136D01*
X133718159Y-182605135D02*
X133718154Y-98005136D01*
X134418151Y-97305134D02*
X201718154Y-97305134D01*
X138823884Y-210822533D02*
G75*
G02*
X137833926Y-210822535I-494980J494965D01*
G01*
X138823884Y-210822533D02*
X145609500Y-204036913D01*
X141192746Y-183605134D02*
G75*
G02*
X141421099Y-183676765I-42J-399933D01*
G01*
X141421115Y-183676742D02*
X141849536Y-183974683D01*
X141662464Y-182605131D02*
X133718159Y-182605135D01*
X141662464Y-182605131D02*
G75*
G02*
X141932884Y-182710373I42J-399937D01*
G01*
X142277913Y-183992692D02*
G75*
G02*
X141849527Y-183974696I-200010J346624D01*
G01*
X142277913Y-183992692D02*
X142451873Y-183892258D01*
X142522278Y-183251090D02*
X141932877Y-182710380D01*
X142522278Y-183251090D02*
G75*
G02*
X142451896Y-183892298I-270475J-294778D01*
G01*
X143803006Y-187142085D02*
G75*
G02*
X143982387Y-186472785I424499J244917D01*
G01*
X143803006Y-187142085D02*
X147113007Y-192875174D01*
X143999683Y-186462738D02*
X143982358Y-186472735D01*
X143999683Y-186462738D02*
G75*
G02*
X144669082Y-186642057I245021J-424429D01*
G01*
X145614676Y-204031678D02*
G75*
G02*
X150792241Y-199247788I50372327J-49323789D01*
G01*
X147782361Y-193054528D02*
G75*
G02*
X147113055Y-192875146I-244958J424360D01*
G01*
X147782361Y-193054528D02*
X147799678Y-193044527D01*
X147979033Y-192375174D02*
X144669032Y-186642086D01*
X147979033Y-192375174D02*
G75*
G02*
X147799706Y-193044575I-424529J-244993D01*
G01*
X149103007Y-196321952D02*
G75*
G02*
X149282383Y-195652635I424296J244984D01*
G01*
X149282363Y-195652600D02*
X149299681Y-195642607D01*
X149299681Y-195642607D02*
G75*
G02*
X149969092Y-195821922I245022J-424461D01*
G01*
X149969037Y-195821954D02*
X151574960Y-198603499D01*
X150792240Y-199247787D02*
X149103007Y-196321952D01*
X151574960Y-198603499D02*
G75*
G02*
X195967974Y-182855120I44413644J-54753567D01*
G01*
X195968181Y-182855139D02*
X205568155Y-182855135D01*
X201718152Y-94005134D02*
X201718154Y-97305134D01*
X201718152Y-94005134D02*
G75*
G02*
X202418155Y-93305115I700053J-34D01*
G01*
X206268151Y-182155132D02*
G75*
G02*
X205568155Y-182855214I-700047J-35D01*
G01*
X206268151Y-182155132D02*
X206268150Y-169282277D01*
X221618155Y-93305135D02*
X202418155Y-93305134D01*
X221618155Y-93305135D02*
G75*
G02*
X222318136Y-94005134I-52J-700033D01*
G01*
X222318153Y-97305130D02*
X222318155Y-94005134D01*
X222318153Y-97305130D02*
X262418155Y-97305133D01*
X222672837Y-169282275D02*
X206268150Y-169282277D01*
X222672837Y-169282275D02*
X237674740Y-170331310D01*
X237095603Y-173615740D02*
X237674740Y-170331310D01*
X237663417Y-174426654D02*
G75*
G02*
X237095641Y-173615747I121486J689286D01*
G01*
X246318151Y-115555136D02*
X260718157Y-115555133D01*
X246318154Y-104155136D02*
X246318151Y-115555136D01*
X256571729Y-177760701D02*
X237663417Y-174426654D01*
X257382646Y-177192891D02*
G75*
G02*
X256571729Y-177760702I-689343J121523D01*
G01*
X257382646Y-177192891D02*
X258877751Y-168713697D01*
X258877751Y-168713697D02*
G75*
G02*
X259445409Y-168316175I482452J-84871D01*
G01*
X259114135Y-173131868D02*
X259862558Y-168887346D01*
X259114135Y-173131868D02*
X276151309Y-176135981D01*
X259465091Y-168319698D02*
G75*
G02*
X259862539Y-168887343I-84988J-482469D01*
G01*
X259465092Y-168319704D02*
X259445399Y-168316230D01*
X260718152Y-104155136D02*
X246318154Y-104155136D01*
X260718157Y-115555133D02*
X260718152Y-104155136D01*
X261316133Y-157476398D02*
G75*
G02*
X260951092Y-156955088I78070J443130D01*
G01*
X261316133Y-157476398D02*
X261414620Y-157493759D01*
X261935921Y-157128743D02*
G75*
G02*
X261414613Y-157493801I-443218J78175D01*
G01*
X261935921Y-157128743D02*
X263168825Y-150136605D01*
X262184014Y-149962957D02*
X260951113Y-156955092D01*
X262184014Y-149962957D02*
G75*
G02*
X262705321Y-149597925I443290J-78310D01*
G01*
X262418155Y-97305133D02*
G75*
G02*
X263118138Y-98005134I-52J-700035D01*
G01*
X262803803Y-149615297D02*
X262705319Y-149597937D01*
X262803803Y-149615297D02*
G75*
G02*
X263168752Y-150136592I-78100J-443071D01*
G01*
X263118153Y-98005134D02*
X263118154Y-119411016D01*
X263118154Y-119411016D02*
X266747509Y-120050969D01*
X264344199Y-137711949D02*
X267315317Y-120861890D01*
X264741661Y-138279591D02*
G75*
G02*
X264344194Y-137711948I85042J482523D01*
G01*
X264741661Y-138279591D02*
X264761365Y-138283068D01*
X265329003Y-137885597D02*
G75*
G02*
X264761368Y-138283048I-482499J85029D01*
G01*
X265329003Y-137885597D02*
X265990610Y-134133480D01*
X266747509Y-120050969D02*
G75*
G02*
X267315315Y-120861887I-121606J-689397D01*
G01*
X276962236Y-175568170D02*
G75*
G02*
X276151308Y-176135985I-689333J121502D01*
G01*
X276962236Y-175568170D02*
X283595593Y-137948514D01*
X283027780Y-137137596D02*
X265990610Y-134133480D01*
X283027780Y-137137596D02*
G75*
G02*
X283595581Y-137948512I-121576J-689371D01*
G01*
M02*
