%TF.GenerationSoftware,KiCad,Pcbnew,10.0.4*%
%TF.CreationDate,2026-08-03T15:36:27-06:00*%
%TF.ProjectId,KLON -nice_view - Copy,4b4c4f4e-202d-46e6-9963-655f76696577,v1.0.0*%
%TF.SameCoordinates,Original*%
%TF.FileFunction,Legend,Top*%
%TF.FilePolarity,Positive*%
%FSLAX46Y46*%
G04 Gerber Fmt 4.6, Leading zero omitted, Abs format (unit mm)*
G04 Created by KiCad (PCBNEW 10.0.4) date 2026-08-03 15:36:27*
%MOMM*%
%LPD*%
G01*
G04 APERTURE LIST*
%ADD10C,0.150000*%
%ADD11C,2.000000*%
%ADD12C,0.100000*%
%ADD13C,0.120000*%
%ADD14C,1.200000*%
%ADD15O,2.500000X1.700000*%
G04 APERTURE END LIST*
D10*
X167199029Y-102523596D02*
X167199029Y-101023596D01*
X168056172Y-102523596D02*
X167413315Y-101666453D01*
X168056172Y-101023596D02*
X167199029Y-101880739D01*
X169413315Y-102523596D02*
X168699029Y-102523596D01*
X168699029Y-102523596D02*
X168699029Y-101023596D01*
X170199030Y-101023596D02*
X170484744Y-101023596D01*
X170484744Y-101023596D02*
X170627601Y-101095025D01*
X170627601Y-101095025D02*
X170770458Y-101237882D01*
X170770458Y-101237882D02*
X170841887Y-101523596D01*
X170841887Y-101523596D02*
X170841887Y-102023596D01*
X170841887Y-102023596D02*
X170770458Y-102309310D01*
X170770458Y-102309310D02*
X170627601Y-102452168D01*
X170627601Y-102452168D02*
X170484744Y-102523596D01*
X170484744Y-102523596D02*
X170199030Y-102523596D01*
X170199030Y-102523596D02*
X170056173Y-102452168D01*
X170056173Y-102452168D02*
X169913315Y-102309310D01*
X169913315Y-102309310D02*
X169841887Y-102023596D01*
X169841887Y-102023596D02*
X169841887Y-101523596D01*
X169841887Y-101523596D02*
X169913315Y-101237882D01*
X169913315Y-101237882D02*
X170056173Y-101095025D01*
X170056173Y-101095025D02*
X170199030Y-101023596D01*
X171484744Y-102523596D02*
X171484744Y-101023596D01*
X171484744Y-101023596D02*
X172341887Y-102523596D01*
X172341887Y-102523596D02*
X172341887Y-101023596D01*
X173989506Y-101433286D02*
X173722839Y-101052333D01*
X173532363Y-101433286D02*
X173532363Y-100633286D01*
X173532363Y-100633286D02*
X173837125Y-100633286D01*
X173837125Y-100633286D02*
X173913315Y-100671381D01*
X173913315Y-100671381D02*
X173951410Y-100709476D01*
X173951410Y-100709476D02*
X173989506Y-100785667D01*
X173989506Y-100785667D02*
X173989506Y-100899952D01*
X173989506Y-100899952D02*
X173951410Y-100976143D01*
X173951410Y-100976143D02*
X173913315Y-101014238D01*
X173913315Y-101014238D02*
X173837125Y-101052333D01*
X173837125Y-101052333D02*
X173532363Y-101052333D01*
X174332363Y-101014238D02*
X174599029Y-101014238D01*
X174713315Y-101433286D02*
X174332363Y-101433286D01*
X174332363Y-101433286D02*
X174332363Y-100633286D01*
X174332363Y-100633286D02*
X174713315Y-100633286D01*
X174941887Y-100633286D02*
X175208554Y-101433286D01*
X175208554Y-101433286D02*
X175475220Y-100633286D01*
X175741887Y-101433286D02*
X175741887Y-100633286D01*
X176084743Y-101395191D02*
X176199029Y-101433286D01*
X176199029Y-101433286D02*
X176389505Y-101433286D01*
X176389505Y-101433286D02*
X176465696Y-101395191D01*
X176465696Y-101395191D02*
X176503791Y-101357095D01*
X176503791Y-101357095D02*
X176541886Y-101280905D01*
X176541886Y-101280905D02*
X176541886Y-101204714D01*
X176541886Y-101204714D02*
X176503791Y-101128524D01*
X176503791Y-101128524D02*
X176465696Y-101090429D01*
X176465696Y-101090429D02*
X176389505Y-101052333D01*
X176389505Y-101052333D02*
X176237124Y-101014238D01*
X176237124Y-101014238D02*
X176160934Y-100976143D01*
X176160934Y-100976143D02*
X176122839Y-100938048D01*
X176122839Y-100938048D02*
X176084743Y-100861857D01*
X176084743Y-100861857D02*
X176084743Y-100785667D01*
X176084743Y-100785667D02*
X176122839Y-100709476D01*
X176122839Y-100709476D02*
X176160934Y-100671381D01*
X176160934Y-100671381D02*
X176237124Y-100633286D01*
X176237124Y-100633286D02*
X176427601Y-100633286D01*
X176427601Y-100633286D02*
X176541886Y-100671381D01*
X176884744Y-101433286D02*
X176884744Y-100633286D01*
X177418077Y-100633286D02*
X177570458Y-100633286D01*
X177570458Y-100633286D02*
X177646648Y-100671381D01*
X177646648Y-100671381D02*
X177722839Y-100747571D01*
X177722839Y-100747571D02*
X177760934Y-100899952D01*
X177760934Y-100899952D02*
X177760934Y-101166619D01*
X177760934Y-101166619D02*
X177722839Y-101319000D01*
X177722839Y-101319000D02*
X177646648Y-101395191D01*
X177646648Y-101395191D02*
X177570458Y-101433286D01*
X177570458Y-101433286D02*
X177418077Y-101433286D01*
X177418077Y-101433286D02*
X177341886Y-101395191D01*
X177341886Y-101395191D02*
X177265696Y-101319000D01*
X177265696Y-101319000D02*
X177227600Y-101166619D01*
X177227600Y-101166619D02*
X177227600Y-100899952D01*
X177227600Y-100899952D02*
X177265696Y-100747571D01*
X177265696Y-100747571D02*
X177341886Y-100671381D01*
X177341886Y-100671381D02*
X177418077Y-100633286D01*
X178103791Y-101433286D02*
X178103791Y-100633286D01*
X178103791Y-100633286D02*
X178560934Y-101433286D01*
X178560934Y-101433286D02*
X178560934Y-100633286D01*
X179970457Y-101433286D02*
X179513314Y-101433286D01*
X179741886Y-101433286D02*
X179741886Y-100633286D01*
X179741886Y-100633286D02*
X179665695Y-100747571D01*
X179665695Y-100747571D02*
X179589505Y-100823762D01*
X179589505Y-100823762D02*
X179513314Y-100861857D01*
X180313315Y-101357095D02*
X180351410Y-101395191D01*
X180351410Y-101395191D02*
X180313315Y-101433286D01*
X180313315Y-101433286D02*
X180275219Y-101395191D01*
X180275219Y-101395191D02*
X180313315Y-101357095D01*
X180313315Y-101357095D02*
X180313315Y-101433286D01*
X181037124Y-100899952D02*
X181037124Y-101433286D01*
X180846648Y-100595191D02*
X180656171Y-101166619D01*
X180656171Y-101166619D02*
X181151410Y-101166619D01*
X173799029Y-102302193D02*
X173913315Y-102340288D01*
X173913315Y-102340288D02*
X173951410Y-102378384D01*
X173951410Y-102378384D02*
X173989506Y-102454574D01*
X173989506Y-102454574D02*
X173989506Y-102568860D01*
X173989506Y-102568860D02*
X173951410Y-102645050D01*
X173951410Y-102645050D02*
X173913315Y-102683146D01*
X173913315Y-102683146D02*
X173837125Y-102721241D01*
X173837125Y-102721241D02*
X173532363Y-102721241D01*
X173532363Y-102721241D02*
X173532363Y-101921241D01*
X173532363Y-101921241D02*
X173799029Y-101921241D01*
X173799029Y-101921241D02*
X173875220Y-101959336D01*
X173875220Y-101959336D02*
X173913315Y-101997431D01*
X173913315Y-101997431D02*
X173951410Y-102073622D01*
X173951410Y-102073622D02*
X173951410Y-102149812D01*
X173951410Y-102149812D02*
X173913315Y-102226003D01*
X173913315Y-102226003D02*
X173875220Y-102264098D01*
X173875220Y-102264098D02*
X173799029Y-102302193D01*
X173799029Y-102302193D02*
X173532363Y-102302193D01*
X174484744Y-102340288D02*
X174484744Y-102721241D01*
X174218077Y-101921241D02*
X174484744Y-102340288D01*
X174484744Y-102340288D02*
X174751410Y-101921241D01*
X176046648Y-101959336D02*
X175970458Y-101921241D01*
X175970458Y-101921241D02*
X175856172Y-101921241D01*
X175856172Y-101921241D02*
X175741886Y-101959336D01*
X175741886Y-101959336D02*
X175665696Y-102035526D01*
X175665696Y-102035526D02*
X175627601Y-102111717D01*
X175627601Y-102111717D02*
X175589505Y-102264098D01*
X175589505Y-102264098D02*
X175589505Y-102378384D01*
X175589505Y-102378384D02*
X175627601Y-102530765D01*
X175627601Y-102530765D02*
X175665696Y-102606955D01*
X175665696Y-102606955D02*
X175741886Y-102683146D01*
X175741886Y-102683146D02*
X175856172Y-102721241D01*
X175856172Y-102721241D02*
X175932363Y-102721241D01*
X175932363Y-102721241D02*
X176046648Y-102683146D01*
X176046648Y-102683146D02*
X176084744Y-102645050D01*
X176084744Y-102645050D02*
X176084744Y-102378384D01*
X176084744Y-102378384D02*
X175932363Y-102378384D01*
X176427601Y-102302193D02*
X176694267Y-102302193D01*
X176808553Y-102721241D02*
X176427601Y-102721241D01*
X176427601Y-102721241D02*
X176427601Y-101921241D01*
X176427601Y-101921241D02*
X176808553Y-101921241D01*
X177151411Y-102721241D02*
X177151411Y-101921241D01*
X177494267Y-102683146D02*
X177608553Y-102721241D01*
X177608553Y-102721241D02*
X177799029Y-102721241D01*
X177799029Y-102721241D02*
X177875220Y-102683146D01*
X177875220Y-102683146D02*
X177913315Y-102645050D01*
X177913315Y-102645050D02*
X177951410Y-102568860D01*
X177951410Y-102568860D02*
X177951410Y-102492669D01*
X177951410Y-102492669D02*
X177913315Y-102416479D01*
X177913315Y-102416479D02*
X177875220Y-102378384D01*
X177875220Y-102378384D02*
X177799029Y-102340288D01*
X177799029Y-102340288D02*
X177646648Y-102302193D01*
X177646648Y-102302193D02*
X177570458Y-102264098D01*
X177570458Y-102264098D02*
X177532363Y-102226003D01*
X177532363Y-102226003D02*
X177494267Y-102149812D01*
X177494267Y-102149812D02*
X177494267Y-102073622D01*
X177494267Y-102073622D02*
X177532363Y-101997431D01*
X177532363Y-101997431D02*
X177570458Y-101959336D01*
X177570458Y-101959336D02*
X177646648Y-101921241D01*
X177646648Y-101921241D02*
X177837125Y-101921241D01*
X177837125Y-101921241D02*
X177951410Y-101959336D01*
X178179982Y-101921241D02*
X178637125Y-101921241D01*
X178408553Y-102721241D02*
X178408553Y-101921241D01*
X179513316Y-102416479D02*
X180122840Y-102416479D01*
X179818078Y-102721241D02*
X179818078Y-102111717D01*
X180999030Y-101921241D02*
X181456173Y-101921241D01*
X181227601Y-102721241D02*
X181227601Y-101921241D01*
X181722840Y-102721241D02*
X181722840Y-101921241D01*
X181722840Y-102302193D02*
X182179983Y-102302193D01*
X182179983Y-102721241D02*
X182179983Y-101921241D01*
X182560935Y-102302193D02*
X182827601Y-102302193D01*
X182941887Y-102721241D02*
X182560935Y-102721241D01*
X182560935Y-102721241D02*
X182560935Y-101921241D01*
X182560935Y-101921241D02*
X182941887Y-101921241D01*
X183551411Y-102302193D02*
X183665697Y-102340288D01*
X183665697Y-102340288D02*
X183703792Y-102378384D01*
X183703792Y-102378384D02*
X183741888Y-102454574D01*
X183741888Y-102454574D02*
X183741888Y-102568860D01*
X183741888Y-102568860D02*
X183703792Y-102645050D01*
X183703792Y-102645050D02*
X183665697Y-102683146D01*
X183665697Y-102683146D02*
X183589507Y-102721241D01*
X183589507Y-102721241D02*
X183284745Y-102721241D01*
X183284745Y-102721241D02*
X183284745Y-101921241D01*
X183284745Y-101921241D02*
X183551411Y-101921241D01*
X183551411Y-101921241D02*
X183627602Y-101959336D01*
X183627602Y-101959336D02*
X183665697Y-101997431D01*
X183665697Y-101997431D02*
X183703792Y-102073622D01*
X183703792Y-102073622D02*
X183703792Y-102149812D01*
X183703792Y-102149812D02*
X183665697Y-102226003D01*
X183665697Y-102226003D02*
X183627602Y-102264098D01*
X183627602Y-102264098D02*
X183551411Y-102302193D01*
X183551411Y-102302193D02*
X183284745Y-102302193D01*
X184237126Y-101921241D02*
X184313316Y-101921241D01*
X184313316Y-101921241D02*
X184389507Y-101959336D01*
X184389507Y-101959336D02*
X184427602Y-101997431D01*
X184427602Y-101997431D02*
X184465697Y-102073622D01*
X184465697Y-102073622D02*
X184503792Y-102226003D01*
X184503792Y-102226003D02*
X184503792Y-102416479D01*
X184503792Y-102416479D02*
X184465697Y-102568860D01*
X184465697Y-102568860D02*
X184427602Y-102645050D01*
X184427602Y-102645050D02*
X184389507Y-102683146D01*
X184389507Y-102683146D02*
X184313316Y-102721241D01*
X184313316Y-102721241D02*
X184237126Y-102721241D01*
X184237126Y-102721241D02*
X184160935Y-102683146D01*
X184160935Y-102683146D02*
X184122840Y-102645050D01*
X184122840Y-102645050D02*
X184084745Y-102568860D01*
X184084745Y-102568860D02*
X184046649Y-102416479D01*
X184046649Y-102416479D02*
X184046649Y-102226003D01*
X184046649Y-102226003D02*
X184084745Y-102073622D01*
X184084745Y-102073622D02*
X184122840Y-101997431D01*
X184122840Y-101997431D02*
X184160935Y-101959336D01*
X184160935Y-101959336D02*
X184237126Y-101921241D01*
X185113316Y-102302193D02*
X185227602Y-102340288D01*
X185227602Y-102340288D02*
X185265697Y-102378384D01*
X185265697Y-102378384D02*
X185303793Y-102454574D01*
X185303793Y-102454574D02*
X185303793Y-102568860D01*
X185303793Y-102568860D02*
X185265697Y-102645050D01*
X185265697Y-102645050D02*
X185227602Y-102683146D01*
X185227602Y-102683146D02*
X185151412Y-102721241D01*
X185151412Y-102721241D02*
X184846650Y-102721241D01*
X184846650Y-102721241D02*
X184846650Y-101921241D01*
X184846650Y-101921241D02*
X185113316Y-101921241D01*
X185113316Y-101921241D02*
X185189507Y-101959336D01*
X185189507Y-101959336D02*
X185227602Y-101997431D01*
X185227602Y-101997431D02*
X185265697Y-102073622D01*
X185265697Y-102073622D02*
X185265697Y-102149812D01*
X185265697Y-102149812D02*
X185227602Y-102226003D01*
X185227602Y-102226003D02*
X185189507Y-102264098D01*
X185189507Y-102264098D02*
X185113316Y-102302193D01*
X185113316Y-102302193D02*
X184846650Y-102302193D01*
X185684745Y-102683146D02*
X185684745Y-102721241D01*
X185684745Y-102721241D02*
X185646650Y-102797431D01*
X185646650Y-102797431D02*
X185608554Y-102835526D01*
X186979983Y-102721241D02*
X186979983Y-102302193D01*
X186979983Y-102302193D02*
X186941888Y-102226003D01*
X186941888Y-102226003D02*
X186865697Y-102187907D01*
X186865697Y-102187907D02*
X186713316Y-102187907D01*
X186713316Y-102187907D02*
X186637126Y-102226003D01*
X186979983Y-102683146D02*
X186903792Y-102721241D01*
X186903792Y-102721241D02*
X186713316Y-102721241D01*
X186713316Y-102721241D02*
X186637126Y-102683146D01*
X186637126Y-102683146D02*
X186599030Y-102606955D01*
X186599030Y-102606955D02*
X186599030Y-102530765D01*
X186599030Y-102530765D02*
X186637126Y-102454574D01*
X186637126Y-102454574D02*
X186713316Y-102416479D01*
X186713316Y-102416479D02*
X186903792Y-102416479D01*
X186903792Y-102416479D02*
X186979983Y-102378384D01*
X187360936Y-102187907D02*
X187360936Y-102721241D01*
X187360936Y-102264098D02*
X187399031Y-102226003D01*
X187399031Y-102226003D02*
X187475221Y-102187907D01*
X187475221Y-102187907D02*
X187589507Y-102187907D01*
X187589507Y-102187907D02*
X187665698Y-102226003D01*
X187665698Y-102226003D02*
X187703793Y-102302193D01*
X187703793Y-102302193D02*
X187703793Y-102721241D01*
X188427603Y-102721241D02*
X188427603Y-101921241D01*
X188427603Y-102683146D02*
X188351412Y-102721241D01*
X188351412Y-102721241D02*
X188199031Y-102721241D01*
X188199031Y-102721241D02*
X188122841Y-102683146D01*
X188122841Y-102683146D02*
X188084746Y-102645050D01*
X188084746Y-102645050D02*
X188046650Y-102568860D01*
X188046650Y-102568860D02*
X188046650Y-102340288D01*
X188046650Y-102340288D02*
X188084746Y-102264098D01*
X188084746Y-102264098D02*
X188122841Y-102226003D01*
X188122841Y-102226003D02*
X188199031Y-102187907D01*
X188199031Y-102187907D02*
X188351412Y-102187907D01*
X188351412Y-102187907D02*
X188427603Y-102226003D01*
X189799032Y-102721241D02*
X189418080Y-102721241D01*
X189418080Y-102721241D02*
X189418080Y-101921241D01*
X190065699Y-101921241D02*
X190065699Y-102568860D01*
X190065699Y-102568860D02*
X190103794Y-102645050D01*
X190103794Y-102645050D02*
X190141889Y-102683146D01*
X190141889Y-102683146D02*
X190218080Y-102721241D01*
X190218080Y-102721241D02*
X190370461Y-102721241D01*
X190370461Y-102721241D02*
X190446651Y-102683146D01*
X190446651Y-102683146D02*
X190484746Y-102645050D01*
X190484746Y-102645050D02*
X190522842Y-102568860D01*
X190522842Y-102568860D02*
X190522842Y-101921241D01*
D11*
X179237563Y-118241920D02*
X188761372Y-118241920D01*
X188761372Y-118241920D02*
X193523277Y-120622872D01*
X193523277Y-120622872D02*
X198285182Y-125384777D01*
X198285182Y-125384777D02*
X200666134Y-134908587D01*
X200666134Y-134908587D02*
X200666134Y-151575253D01*
X200666134Y-151575253D02*
X198285182Y-161099063D01*
X198285182Y-161099063D02*
X193523277Y-165860968D01*
X193523277Y-165860968D02*
X188761372Y-168241920D01*
X188761372Y-168241920D02*
X179237563Y-168241920D01*
X179237563Y-168241920D02*
X174475658Y-165860968D01*
X174475658Y-165860968D02*
X169713753Y-161099063D01*
X169713753Y-161099063D02*
X167332801Y-151575253D01*
X167332801Y-151575253D02*
X167332801Y-134908587D01*
X167332801Y-134908587D02*
X169713753Y-125384777D01*
X169713753Y-125384777D02*
X174475658Y-120622872D01*
X174475658Y-120622872D02*
X179237563Y-118241920D01*
X213713753Y-154991919D02*
X213713753Y-104991919D01*
X213713753Y-104991919D02*
X242285182Y-154991919D01*
X242285182Y-154991919D02*
X242285182Y-104991919D01*
D10*
X137408630Y-137434100D02*
X137408630Y-137967434D01*
X137408630Y-137510291D02*
X137446725Y-137472196D01*
X137446725Y-137472196D02*
X137522915Y-137434100D01*
X137522915Y-137434100D02*
X137637201Y-137434100D01*
X137637201Y-137434100D02*
X137713392Y-137472196D01*
X137713392Y-137472196D02*
X137751487Y-137548386D01*
X137751487Y-137548386D02*
X137751487Y-137967434D01*
X138132440Y-137967434D02*
X138132440Y-137434100D01*
X138132440Y-137167434D02*
X138094344Y-137205529D01*
X138094344Y-137205529D02*
X138132440Y-137243624D01*
X138132440Y-137243624D02*
X138170535Y-137205529D01*
X138170535Y-137205529D02*
X138132440Y-137167434D01*
X138132440Y-137167434D02*
X138132440Y-137243624D01*
X138856249Y-137929339D02*
X138780058Y-137967434D01*
X138780058Y-137967434D02*
X138627677Y-137967434D01*
X138627677Y-137967434D02*
X138551487Y-137929339D01*
X138551487Y-137929339D02*
X138513392Y-137891243D01*
X138513392Y-137891243D02*
X138475296Y-137815053D01*
X138475296Y-137815053D02*
X138475296Y-137586481D01*
X138475296Y-137586481D02*
X138513392Y-137510291D01*
X138513392Y-137510291D02*
X138551487Y-137472196D01*
X138551487Y-137472196D02*
X138627677Y-137434100D01*
X138627677Y-137434100D02*
X138780058Y-137434100D01*
X138780058Y-137434100D02*
X138856249Y-137472196D01*
X139503868Y-137929339D02*
X139427677Y-137967434D01*
X139427677Y-137967434D02*
X139275296Y-137967434D01*
X139275296Y-137967434D02*
X139199106Y-137929339D01*
X139199106Y-137929339D02*
X139161010Y-137853148D01*
X139161010Y-137853148D02*
X139161010Y-137548386D01*
X139161010Y-137548386D02*
X139199106Y-137472196D01*
X139199106Y-137472196D02*
X139275296Y-137434100D01*
X139275296Y-137434100D02*
X139427677Y-137434100D01*
X139427677Y-137434100D02*
X139503868Y-137472196D01*
X139503868Y-137472196D02*
X139541963Y-137548386D01*
X139541963Y-137548386D02*
X139541963Y-137624577D01*
X139541963Y-137624577D02*
X139161010Y-137700767D01*
X139694344Y-138043624D02*
X140303867Y-138043624D01*
X140418153Y-137434100D02*
X140608629Y-137967434D01*
X140608629Y-137967434D02*
X140799106Y-137434100D01*
X141103868Y-137967434D02*
X141103868Y-137434100D01*
X141103868Y-137167434D02*
X141065772Y-137205529D01*
X141065772Y-137205529D02*
X141103868Y-137243624D01*
X141103868Y-137243624D02*
X141141963Y-137205529D01*
X141141963Y-137205529D02*
X141103868Y-137167434D01*
X141103868Y-137167434D02*
X141103868Y-137243624D01*
X141789582Y-137929339D02*
X141713391Y-137967434D01*
X141713391Y-137967434D02*
X141561010Y-137967434D01*
X141561010Y-137967434D02*
X141484820Y-137929339D01*
X141484820Y-137929339D02*
X141446724Y-137853148D01*
X141446724Y-137853148D02*
X141446724Y-137548386D01*
X141446724Y-137548386D02*
X141484820Y-137472196D01*
X141484820Y-137472196D02*
X141561010Y-137434100D01*
X141561010Y-137434100D02*
X141713391Y-137434100D01*
X141713391Y-137434100D02*
X141789582Y-137472196D01*
X141789582Y-137472196D02*
X141827677Y-137548386D01*
X141827677Y-137548386D02*
X141827677Y-137624577D01*
X141827677Y-137624577D02*
X141446724Y-137700767D01*
X142094343Y-137434100D02*
X142246724Y-137967434D01*
X142246724Y-137967434D02*
X142399105Y-137586481D01*
X142399105Y-137586481D02*
X142551486Y-137967434D01*
X142551486Y-137967434D02*
X142703867Y-137434100D01*
X145280056Y-167036139D02*
X145613389Y-167036139D01*
X145756246Y-167559949D02*
X145280056Y-167559949D01*
X145280056Y-167559949D02*
X145280056Y-166559949D01*
X145280056Y-166559949D02*
X145756246Y-166559949D01*
X146184818Y-166893282D02*
X146184818Y-167559949D01*
X146184818Y-166988520D02*
X146232437Y-166940901D01*
X146232437Y-166940901D02*
X146327675Y-166893282D01*
X146327675Y-166893282D02*
X146470532Y-166893282D01*
X146470532Y-166893282D02*
X146565770Y-166940901D01*
X146565770Y-166940901D02*
X146613389Y-167036139D01*
X146613389Y-167036139D02*
X146613389Y-167559949D01*
X147518151Y-167512330D02*
X147422913Y-167559949D01*
X147422913Y-167559949D02*
X147232437Y-167559949D01*
X147232437Y-167559949D02*
X147137199Y-167512330D01*
X147137199Y-167512330D02*
X147089580Y-167464710D01*
X147089580Y-167464710D02*
X147041961Y-167369472D01*
X147041961Y-167369472D02*
X147041961Y-167083758D01*
X147041961Y-167083758D02*
X147089580Y-166988520D01*
X147089580Y-166988520D02*
X147137199Y-166940901D01*
X147137199Y-166940901D02*
X147232437Y-166893282D01*
X147232437Y-166893282D02*
X147422913Y-166893282D01*
X147422913Y-166893282D02*
X147518151Y-166940901D01*
X148089580Y-167559949D02*
X147994342Y-167512330D01*
X147994342Y-167512330D02*
X147946723Y-167464710D01*
X147946723Y-167464710D02*
X147899104Y-167369472D01*
X147899104Y-167369472D02*
X147899104Y-167083758D01*
X147899104Y-167083758D02*
X147946723Y-166988520D01*
X147946723Y-166988520D02*
X147994342Y-166940901D01*
X147994342Y-166940901D02*
X148089580Y-166893282D01*
X148089580Y-166893282D02*
X148232437Y-166893282D01*
X148232437Y-166893282D02*
X148327675Y-166940901D01*
X148327675Y-166940901D02*
X148375294Y-166988520D01*
X148375294Y-166988520D02*
X148422913Y-167083758D01*
X148422913Y-167083758D02*
X148422913Y-167369472D01*
X148422913Y-167369472D02*
X148375294Y-167464710D01*
X148375294Y-167464710D02*
X148327675Y-167512330D01*
X148327675Y-167512330D02*
X148232437Y-167559949D01*
X148232437Y-167559949D02*
X148089580Y-167559949D01*
X149280056Y-167559949D02*
X149280056Y-166559949D01*
X149280056Y-167512330D02*
X149184818Y-167559949D01*
X149184818Y-167559949D02*
X148994342Y-167559949D01*
X148994342Y-167559949D02*
X148899104Y-167512330D01*
X148899104Y-167512330D02*
X148851485Y-167464710D01*
X148851485Y-167464710D02*
X148803866Y-167369472D01*
X148803866Y-167369472D02*
X148803866Y-167083758D01*
X148803866Y-167083758D02*
X148851485Y-166988520D01*
X148851485Y-166988520D02*
X148899104Y-166940901D01*
X148899104Y-166940901D02*
X148994342Y-166893282D01*
X148994342Y-166893282D02*
X149184818Y-166893282D01*
X149184818Y-166893282D02*
X149280056Y-166940901D01*
X150137199Y-167512330D02*
X150041961Y-167559949D01*
X150041961Y-167559949D02*
X149851485Y-167559949D01*
X149851485Y-167559949D02*
X149756247Y-167512330D01*
X149756247Y-167512330D02*
X149708628Y-167417091D01*
X149708628Y-167417091D02*
X149708628Y-167036139D01*
X149708628Y-167036139D02*
X149756247Y-166940901D01*
X149756247Y-166940901D02*
X149851485Y-166893282D01*
X149851485Y-166893282D02*
X150041961Y-166893282D01*
X150041961Y-166893282D02*
X150137199Y-166940901D01*
X150137199Y-166940901D02*
X150184818Y-167036139D01*
X150184818Y-167036139D02*
X150184818Y-167131377D01*
X150184818Y-167131377D02*
X149708628Y-167226615D01*
X150613390Y-167559949D02*
X150613390Y-166893282D01*
X150613390Y-167083758D02*
X150661009Y-166988520D01*
X150661009Y-166988520D02*
X150708628Y-166940901D01*
X150708628Y-166940901D02*
X150803866Y-166893282D01*
X150803866Y-166893282D02*
X150899104Y-166893282D01*
X147353862Y-118599954D02*
X147353862Y-117599954D01*
X147353862Y-117599954D02*
X147734814Y-117599954D01*
X147734814Y-117599954D02*
X147830052Y-117647573D01*
X147830052Y-117647573D02*
X147877671Y-117695192D01*
X147877671Y-117695192D02*
X147925290Y-117790430D01*
X147925290Y-117790430D02*
X147925290Y-117933287D01*
X147925290Y-117933287D02*
X147877671Y-118028525D01*
X147877671Y-118028525D02*
X147830052Y-118076144D01*
X147830052Y-118076144D02*
X147734814Y-118123763D01*
X147734814Y-118123763D02*
X147353862Y-118123763D01*
X148877671Y-118599954D02*
X148306243Y-118599954D01*
X148591957Y-118599954D02*
X148591957Y-117599954D01*
X148591957Y-117599954D02*
X148496719Y-117742811D01*
X148496719Y-117742811D02*
X148401481Y-117838049D01*
X148401481Y-117838049D02*
X148306243Y-117885668D01*
X149353862Y-118599954D02*
X149544338Y-118599954D01*
X149544338Y-118599954D02*
X149639576Y-118552335D01*
X149639576Y-118552335D02*
X149687195Y-118504715D01*
X149687195Y-118504715D02*
X149782433Y-118361858D01*
X149782433Y-118361858D02*
X149830052Y-118171382D01*
X149830052Y-118171382D02*
X149830052Y-117790430D01*
X149830052Y-117790430D02*
X149782433Y-117695192D01*
X149782433Y-117695192D02*
X149734814Y-117647573D01*
X149734814Y-117647573D02*
X149639576Y-117599954D01*
X149639576Y-117599954D02*
X149449100Y-117599954D01*
X149449100Y-117599954D02*
X149353862Y-117647573D01*
X149353862Y-117647573D02*
X149306243Y-117695192D01*
X149306243Y-117695192D02*
X149258624Y-117790430D01*
X149258624Y-117790430D02*
X149258624Y-118028525D01*
X149258624Y-118028525D02*
X149306243Y-118123763D01*
X149306243Y-118123763D02*
X149353862Y-118171382D01*
X149353862Y-118171382D02*
X149449100Y-118219001D01*
X149449100Y-118219001D02*
X149639576Y-118219001D01*
X149639576Y-118219001D02*
X149734814Y-118171382D01*
X149734814Y-118171382D02*
X149782433Y-118123763D01*
X149782433Y-118123763D02*
X149830052Y-118028525D01*
X147806244Y-104947572D02*
X147711006Y-104899953D01*
X147711006Y-104899953D02*
X147568149Y-104899953D01*
X147568149Y-104899953D02*
X147425292Y-104947572D01*
X147425292Y-104947572D02*
X147330054Y-105042810D01*
X147330054Y-105042810D02*
X147282435Y-105138048D01*
X147282435Y-105138048D02*
X147234816Y-105328524D01*
X147234816Y-105328524D02*
X147234816Y-105471381D01*
X147234816Y-105471381D02*
X147282435Y-105661857D01*
X147282435Y-105661857D02*
X147330054Y-105757095D01*
X147330054Y-105757095D02*
X147425292Y-105852334D01*
X147425292Y-105852334D02*
X147568149Y-105899953D01*
X147568149Y-105899953D02*
X147663387Y-105899953D01*
X147663387Y-105899953D02*
X147806244Y-105852334D01*
X147806244Y-105852334D02*
X147853863Y-105804714D01*
X147853863Y-105804714D02*
X147853863Y-105471381D01*
X147853863Y-105471381D02*
X147663387Y-105471381D01*
X148282435Y-105899953D02*
X148282435Y-104899953D01*
X148282435Y-104899953D02*
X148853863Y-105899953D01*
X148853863Y-105899953D02*
X148853863Y-104899953D01*
X149330054Y-105899953D02*
X149330054Y-104899953D01*
X149330054Y-104899953D02*
X149568149Y-104899953D01*
X149568149Y-104899953D02*
X149711006Y-104947572D01*
X149711006Y-104947572D02*
X149806244Y-105042810D01*
X149806244Y-105042810D02*
X149853863Y-105138048D01*
X149853863Y-105138048D02*
X149901482Y-105328524D01*
X149901482Y-105328524D02*
X149901482Y-105471381D01*
X149901482Y-105471381D02*
X149853863Y-105661857D01*
X149853863Y-105661857D02*
X149806244Y-105757095D01*
X149806244Y-105757095D02*
X149711006Y-105852334D01*
X149711006Y-105852334D02*
X149568149Y-105899953D01*
X149568149Y-105899953D02*
X149330054Y-105899953D01*
X148020529Y-108439953D02*
X147687196Y-107963762D01*
X147449101Y-108439953D02*
X147449101Y-107439953D01*
X147449101Y-107439953D02*
X147830053Y-107439953D01*
X147830053Y-107439953D02*
X147925291Y-107487572D01*
X147925291Y-107487572D02*
X147972910Y-107535191D01*
X147972910Y-107535191D02*
X148020529Y-107630429D01*
X148020529Y-107630429D02*
X148020529Y-107773286D01*
X148020529Y-107773286D02*
X147972910Y-107868524D01*
X147972910Y-107868524D02*
X147925291Y-107916143D01*
X147925291Y-107916143D02*
X147830053Y-107963762D01*
X147830053Y-107963762D02*
X147449101Y-107963762D01*
X148401482Y-108392334D02*
X148544339Y-108439953D01*
X148544339Y-108439953D02*
X148782434Y-108439953D01*
X148782434Y-108439953D02*
X148877672Y-108392334D01*
X148877672Y-108392334D02*
X148925291Y-108344714D01*
X148925291Y-108344714D02*
X148972910Y-108249476D01*
X148972910Y-108249476D02*
X148972910Y-108154238D01*
X148972910Y-108154238D02*
X148925291Y-108059000D01*
X148925291Y-108059000D02*
X148877672Y-108011381D01*
X148877672Y-108011381D02*
X148782434Y-107963762D01*
X148782434Y-107963762D02*
X148591958Y-107916143D01*
X148591958Y-107916143D02*
X148496720Y-107868524D01*
X148496720Y-107868524D02*
X148449101Y-107820905D01*
X148449101Y-107820905D02*
X148401482Y-107725667D01*
X148401482Y-107725667D02*
X148401482Y-107630429D01*
X148401482Y-107630429D02*
X148449101Y-107535191D01*
X148449101Y-107535191D02*
X148496720Y-107487572D01*
X148496720Y-107487572D02*
X148591958Y-107439953D01*
X148591958Y-107439953D02*
X148830053Y-107439953D01*
X148830053Y-107439953D02*
X148972910Y-107487572D01*
X149258625Y-107439953D02*
X149830053Y-107439953D01*
X149544339Y-108439953D02*
X149544339Y-107439953D01*
X147234816Y-109979954D02*
X147568149Y-110979954D01*
X147568149Y-110979954D02*
X147901482Y-109979954D01*
X148806244Y-110884715D02*
X148758625Y-110932335D01*
X148758625Y-110932335D02*
X148615768Y-110979954D01*
X148615768Y-110979954D02*
X148520530Y-110979954D01*
X148520530Y-110979954D02*
X148377673Y-110932335D01*
X148377673Y-110932335D02*
X148282435Y-110837096D01*
X148282435Y-110837096D02*
X148234816Y-110741858D01*
X148234816Y-110741858D02*
X148187197Y-110551382D01*
X148187197Y-110551382D02*
X148187197Y-110408525D01*
X148187197Y-110408525D02*
X148234816Y-110218049D01*
X148234816Y-110218049D02*
X148282435Y-110122811D01*
X148282435Y-110122811D02*
X148377673Y-110027573D01*
X148377673Y-110027573D02*
X148520530Y-109979954D01*
X148520530Y-109979954D02*
X148615768Y-109979954D01*
X148615768Y-109979954D02*
X148758625Y-110027573D01*
X148758625Y-110027573D02*
X148806244Y-110075192D01*
X149806244Y-110884715D02*
X149758625Y-110932335D01*
X149758625Y-110932335D02*
X149615768Y-110979954D01*
X149615768Y-110979954D02*
X149520530Y-110979954D01*
X149520530Y-110979954D02*
X149377673Y-110932335D01*
X149377673Y-110932335D02*
X149282435Y-110837096D01*
X149282435Y-110837096D02*
X149234816Y-110741858D01*
X149234816Y-110741858D02*
X149187197Y-110551382D01*
X149187197Y-110551382D02*
X149187197Y-110408525D01*
X149187197Y-110408525D02*
X149234816Y-110218049D01*
X149234816Y-110218049D02*
X149282435Y-110122811D01*
X149282435Y-110122811D02*
X149377673Y-110027573D01*
X149377673Y-110027573D02*
X149520530Y-109979954D01*
X149520530Y-109979954D02*
X149615768Y-109979954D01*
X149615768Y-109979954D02*
X149758625Y-110027573D01*
X149758625Y-110027573D02*
X149806244Y-110075192D01*
X147353863Y-113519953D02*
X147353863Y-112519953D01*
X147353863Y-112519953D02*
X147734815Y-112519953D01*
X147734815Y-112519953D02*
X147830053Y-112567572D01*
X147830053Y-112567572D02*
X147877672Y-112615191D01*
X147877672Y-112615191D02*
X147925291Y-112710429D01*
X147925291Y-112710429D02*
X147925291Y-112853286D01*
X147925291Y-112853286D02*
X147877672Y-112948524D01*
X147877672Y-112948524D02*
X147830053Y-112996143D01*
X147830053Y-112996143D02*
X147734815Y-113043762D01*
X147734815Y-113043762D02*
X147353863Y-113043762D01*
X148306244Y-112615191D02*
X148353863Y-112567572D01*
X148353863Y-112567572D02*
X148449101Y-112519953D01*
X148449101Y-112519953D02*
X148687196Y-112519953D01*
X148687196Y-112519953D02*
X148782434Y-112567572D01*
X148782434Y-112567572D02*
X148830053Y-112615191D01*
X148830053Y-112615191D02*
X148877672Y-112710429D01*
X148877672Y-112710429D02*
X148877672Y-112805667D01*
X148877672Y-112805667D02*
X148830053Y-112948524D01*
X148830053Y-112948524D02*
X148258625Y-113519953D01*
X148258625Y-113519953D02*
X148877672Y-113519953D01*
X149830053Y-113519953D02*
X149258625Y-113519953D01*
X149544339Y-113519953D02*
X149544339Y-112519953D01*
X149544339Y-112519953D02*
X149449101Y-112662810D01*
X149449101Y-112662810D02*
X149353863Y-112758048D01*
X149353863Y-112758048D02*
X149258625Y-112805667D01*
X147353863Y-116059953D02*
X147353863Y-115059953D01*
X147353863Y-115059953D02*
X147734815Y-115059953D01*
X147734815Y-115059953D02*
X147830053Y-115107572D01*
X147830053Y-115107572D02*
X147877672Y-115155191D01*
X147877672Y-115155191D02*
X147925291Y-115250429D01*
X147925291Y-115250429D02*
X147925291Y-115393286D01*
X147925291Y-115393286D02*
X147877672Y-115488524D01*
X147877672Y-115488524D02*
X147830053Y-115536143D01*
X147830053Y-115536143D02*
X147734815Y-115583762D01*
X147734815Y-115583762D02*
X147353863Y-115583762D01*
X148306244Y-115155191D02*
X148353863Y-115107572D01*
X148353863Y-115107572D02*
X148449101Y-115059953D01*
X148449101Y-115059953D02*
X148687196Y-115059953D01*
X148687196Y-115059953D02*
X148782434Y-115107572D01*
X148782434Y-115107572D02*
X148830053Y-115155191D01*
X148830053Y-115155191D02*
X148877672Y-115250429D01*
X148877672Y-115250429D02*
X148877672Y-115345667D01*
X148877672Y-115345667D02*
X148830053Y-115488524D01*
X148830053Y-115488524D02*
X148258625Y-116059953D01*
X148258625Y-116059953D02*
X148877672Y-116059953D01*
X149496720Y-115059953D02*
X149591958Y-115059953D01*
X149591958Y-115059953D02*
X149687196Y-115107572D01*
X149687196Y-115107572D02*
X149734815Y-115155191D01*
X149734815Y-115155191D02*
X149782434Y-115250429D01*
X149782434Y-115250429D02*
X149830053Y-115440905D01*
X149830053Y-115440905D02*
X149830053Y-115679000D01*
X149830053Y-115679000D02*
X149782434Y-115869476D01*
X149782434Y-115869476D02*
X149734815Y-115964714D01*
X149734815Y-115964714D02*
X149687196Y-116012334D01*
X149687196Y-116012334D02*
X149591958Y-116059953D01*
X149591958Y-116059953D02*
X149496720Y-116059953D01*
X149496720Y-116059953D02*
X149401482Y-116012334D01*
X149401482Y-116012334D02*
X149353863Y-115964714D01*
X149353863Y-115964714D02*
X149306244Y-115869476D01*
X149306244Y-115869476D02*
X149258625Y-115679000D01*
X149258625Y-115679000D02*
X149258625Y-115440905D01*
X149258625Y-115440905D02*
X149306244Y-115250429D01*
X149306244Y-115250429D02*
X149353863Y-115155191D01*
X149353863Y-115155191D02*
X149401482Y-115107572D01*
X149401482Y-115107572D02*
X149496720Y-115059953D01*
X147353863Y-123679954D02*
X147353863Y-122679954D01*
X147353863Y-122679954D02*
X147734815Y-122679954D01*
X147734815Y-122679954D02*
X147830053Y-122727573D01*
X147830053Y-122727573D02*
X147877672Y-122775192D01*
X147877672Y-122775192D02*
X147925291Y-122870430D01*
X147925291Y-122870430D02*
X147925291Y-123013287D01*
X147925291Y-123013287D02*
X147877672Y-123108525D01*
X147877672Y-123108525D02*
X147830053Y-123156144D01*
X147830053Y-123156144D02*
X147734815Y-123203763D01*
X147734815Y-123203763D02*
X147353863Y-123203763D01*
X148877672Y-123679954D02*
X148306244Y-123679954D01*
X148591958Y-123679954D02*
X148591958Y-122679954D01*
X148591958Y-122679954D02*
X148496720Y-122822811D01*
X148496720Y-122822811D02*
X148401482Y-122918049D01*
X148401482Y-122918049D02*
X148306244Y-122965668D01*
X149782434Y-122679954D02*
X149306244Y-122679954D01*
X149306244Y-122679954D02*
X149258625Y-123156144D01*
X149258625Y-123156144D02*
X149306244Y-123108525D01*
X149306244Y-123108525D02*
X149401482Y-123060906D01*
X149401482Y-123060906D02*
X149639577Y-123060906D01*
X149639577Y-123060906D02*
X149734815Y-123108525D01*
X149734815Y-123108525D02*
X149782434Y-123156144D01*
X149782434Y-123156144D02*
X149830053Y-123251382D01*
X149830053Y-123251382D02*
X149830053Y-123489477D01*
X149830053Y-123489477D02*
X149782434Y-123584715D01*
X149782434Y-123584715D02*
X149734815Y-123632335D01*
X149734815Y-123632335D02*
X149639577Y-123679954D01*
X149639577Y-123679954D02*
X149401482Y-123679954D01*
X149401482Y-123679954D02*
X149306244Y-123632335D01*
X149306244Y-123632335D02*
X149258625Y-123584715D01*
X147353863Y-126219953D02*
X147353863Y-125219953D01*
X147353863Y-125219953D02*
X147734815Y-125219953D01*
X147734815Y-125219953D02*
X147830053Y-125267572D01*
X147830053Y-125267572D02*
X147877672Y-125315191D01*
X147877672Y-125315191D02*
X147925291Y-125410429D01*
X147925291Y-125410429D02*
X147925291Y-125553286D01*
X147925291Y-125553286D02*
X147877672Y-125648524D01*
X147877672Y-125648524D02*
X147830053Y-125696143D01*
X147830053Y-125696143D02*
X147734815Y-125743762D01*
X147734815Y-125743762D02*
X147353863Y-125743762D01*
X148877672Y-126219953D02*
X148306244Y-126219953D01*
X148591958Y-126219953D02*
X148591958Y-125219953D01*
X148591958Y-125219953D02*
X148496720Y-125362810D01*
X148496720Y-125362810D02*
X148401482Y-125458048D01*
X148401482Y-125458048D02*
X148306244Y-125505667D01*
X149734815Y-125553286D02*
X149734815Y-126219953D01*
X149496720Y-125172334D02*
X149258625Y-125886619D01*
X149258625Y-125886619D02*
X149877672Y-125886619D01*
X147353863Y-131299953D02*
X147353863Y-130299953D01*
X147353863Y-130299953D02*
X147734815Y-130299953D01*
X147734815Y-130299953D02*
X147830053Y-130347572D01*
X147830053Y-130347572D02*
X147877672Y-130395191D01*
X147877672Y-130395191D02*
X147925291Y-130490429D01*
X147925291Y-130490429D02*
X147925291Y-130633286D01*
X147925291Y-130633286D02*
X147877672Y-130728524D01*
X147877672Y-130728524D02*
X147830053Y-130776143D01*
X147830053Y-130776143D02*
X147734815Y-130823762D01*
X147734815Y-130823762D02*
X147353863Y-130823762D01*
X148877672Y-131299953D02*
X148306244Y-131299953D01*
X148591958Y-131299953D02*
X148591958Y-130299953D01*
X148591958Y-130299953D02*
X148496720Y-130442810D01*
X148496720Y-130442810D02*
X148401482Y-130538048D01*
X148401482Y-130538048D02*
X148306244Y-130585667D01*
X149496720Y-130299953D02*
X149591958Y-130299953D01*
X149591958Y-130299953D02*
X149687196Y-130347572D01*
X149687196Y-130347572D02*
X149734815Y-130395191D01*
X149734815Y-130395191D02*
X149782434Y-130490429D01*
X149782434Y-130490429D02*
X149830053Y-130680905D01*
X149830053Y-130680905D02*
X149830053Y-130919000D01*
X149830053Y-130919000D02*
X149782434Y-131109476D01*
X149782434Y-131109476D02*
X149734815Y-131204714D01*
X149734815Y-131204714D02*
X149687196Y-131252334D01*
X149687196Y-131252334D02*
X149591958Y-131299953D01*
X149591958Y-131299953D02*
X149496720Y-131299953D01*
X149496720Y-131299953D02*
X149401482Y-131252334D01*
X149401482Y-131252334D02*
X149353863Y-131204714D01*
X149353863Y-131204714D02*
X149306244Y-131109476D01*
X149306244Y-131109476D02*
X149258625Y-130919000D01*
X149258625Y-130919000D02*
X149258625Y-130680905D01*
X149258625Y-130680905D02*
X149306244Y-130490429D01*
X149306244Y-130490429D02*
X149353863Y-130395191D01*
X149353863Y-130395191D02*
X149401482Y-130347572D01*
X149401482Y-130347572D02*
X149496720Y-130299953D01*
X147877673Y-103359954D02*
X147544340Y-102883763D01*
X147306245Y-103359954D02*
X147306245Y-102359954D01*
X147306245Y-102359954D02*
X147687197Y-102359954D01*
X147687197Y-102359954D02*
X147782435Y-102407573D01*
X147782435Y-102407573D02*
X147830054Y-102455192D01*
X147830054Y-102455192D02*
X147877673Y-102550430D01*
X147877673Y-102550430D02*
X147877673Y-102693287D01*
X147877673Y-102693287D02*
X147830054Y-102788525D01*
X147830054Y-102788525D02*
X147782435Y-102836144D01*
X147782435Y-102836144D02*
X147687197Y-102883763D01*
X147687197Y-102883763D02*
X147306245Y-102883763D01*
X148258626Y-103074239D02*
X148734816Y-103074239D01*
X148163388Y-103359954D02*
X148496721Y-102359954D01*
X148496721Y-102359954D02*
X148830054Y-103359954D01*
X149068150Y-102359954D02*
X149306245Y-103359954D01*
X149306245Y-103359954D02*
X149496721Y-102645668D01*
X149496721Y-102645668D02*
X149687197Y-103359954D01*
X149687197Y-103359954D02*
X149925293Y-102359954D01*
X147353864Y-121139952D02*
X147353864Y-120139952D01*
X147353864Y-120139952D02*
X147734816Y-120139952D01*
X147734816Y-120139952D02*
X147830054Y-120187571D01*
X147830054Y-120187571D02*
X147877673Y-120235190D01*
X147877673Y-120235190D02*
X147925292Y-120330428D01*
X147925292Y-120330428D02*
X147925292Y-120473285D01*
X147925292Y-120473285D02*
X147877673Y-120568523D01*
X147877673Y-120568523D02*
X147830054Y-120616142D01*
X147830054Y-120616142D02*
X147734816Y-120663761D01*
X147734816Y-120663761D02*
X147353864Y-120663761D01*
X148877673Y-121139952D02*
X148306245Y-121139952D01*
X148591959Y-121139952D02*
X148591959Y-120139952D01*
X148591959Y-120139952D02*
X148496721Y-120282809D01*
X148496721Y-120282809D02*
X148401483Y-120378047D01*
X148401483Y-120378047D02*
X148306245Y-120425666D01*
X149449102Y-120568523D02*
X149353864Y-120520904D01*
X149353864Y-120520904D02*
X149306245Y-120473285D01*
X149306245Y-120473285D02*
X149258626Y-120378047D01*
X149258626Y-120378047D02*
X149258626Y-120330428D01*
X149258626Y-120330428D02*
X149306245Y-120235190D01*
X149306245Y-120235190D02*
X149353864Y-120187571D01*
X149353864Y-120187571D02*
X149449102Y-120139952D01*
X149449102Y-120139952D02*
X149639578Y-120139952D01*
X149639578Y-120139952D02*
X149734816Y-120187571D01*
X149734816Y-120187571D02*
X149782435Y-120235190D01*
X149782435Y-120235190D02*
X149830054Y-120330428D01*
X149830054Y-120330428D02*
X149830054Y-120378047D01*
X149830054Y-120378047D02*
X149782435Y-120473285D01*
X149782435Y-120473285D02*
X149734816Y-120520904D01*
X149734816Y-120520904D02*
X149639578Y-120568523D01*
X149639578Y-120568523D02*
X149449102Y-120568523D01*
X149449102Y-120568523D02*
X149353864Y-120616142D01*
X149353864Y-120616142D02*
X149306245Y-120663761D01*
X149306245Y-120663761D02*
X149258626Y-120758999D01*
X149258626Y-120758999D02*
X149258626Y-120949475D01*
X149258626Y-120949475D02*
X149306245Y-121044713D01*
X149306245Y-121044713D02*
X149353864Y-121092333D01*
X149353864Y-121092333D02*
X149449102Y-121139952D01*
X149449102Y-121139952D02*
X149639578Y-121139952D01*
X149639578Y-121139952D02*
X149734816Y-121092333D01*
X149734816Y-121092333D02*
X149782435Y-121044713D01*
X149782435Y-121044713D02*
X149830054Y-120949475D01*
X149830054Y-120949475D02*
X149830054Y-120758999D01*
X149830054Y-120758999D02*
X149782435Y-120663761D01*
X149782435Y-120663761D02*
X149734816Y-120616142D01*
X149734816Y-120616142D02*
X149639578Y-120568523D01*
X147353865Y-128759952D02*
X147353865Y-127759952D01*
X147353865Y-127759952D02*
X147734817Y-127759952D01*
X147734817Y-127759952D02*
X147830055Y-127807571D01*
X147830055Y-127807571D02*
X147877674Y-127855190D01*
X147877674Y-127855190D02*
X147925293Y-127950428D01*
X147925293Y-127950428D02*
X147925293Y-128093285D01*
X147925293Y-128093285D02*
X147877674Y-128188523D01*
X147877674Y-128188523D02*
X147830055Y-128236142D01*
X147830055Y-128236142D02*
X147734817Y-128283761D01*
X147734817Y-128283761D02*
X147353865Y-128283761D01*
X148877674Y-128759952D02*
X148306246Y-128759952D01*
X148591960Y-128759952D02*
X148591960Y-127759952D01*
X148591960Y-127759952D02*
X148496722Y-127902809D01*
X148496722Y-127902809D02*
X148401484Y-127998047D01*
X148401484Y-127998047D02*
X148306246Y-128045666D01*
X149734817Y-127759952D02*
X149544341Y-127759952D01*
X149544341Y-127759952D02*
X149449103Y-127807571D01*
X149449103Y-127807571D02*
X149401484Y-127855190D01*
X149401484Y-127855190D02*
X149306246Y-127998047D01*
X149306246Y-127998047D02*
X149258627Y-128188523D01*
X149258627Y-128188523D02*
X149258627Y-128569475D01*
X149258627Y-128569475D02*
X149306246Y-128664713D01*
X149306246Y-128664713D02*
X149353865Y-128712333D01*
X149353865Y-128712333D02*
X149449103Y-128759952D01*
X149449103Y-128759952D02*
X149639579Y-128759952D01*
X149639579Y-128759952D02*
X149734817Y-128712333D01*
X149734817Y-128712333D02*
X149782436Y-128664713D01*
X149782436Y-128664713D02*
X149830055Y-128569475D01*
X149830055Y-128569475D02*
X149830055Y-128331380D01*
X149830055Y-128331380D02*
X149782436Y-128236142D01*
X149782436Y-128236142D02*
X149734817Y-128188523D01*
X149734817Y-128188523D02*
X149639579Y-128140904D01*
X149639579Y-128140904D02*
X149449103Y-128140904D01*
X149449103Y-128140904D02*
X149353865Y-128188523D01*
X149353865Y-128188523D02*
X149306246Y-128236142D01*
X149306246Y-128236142D02*
X149258627Y-128331380D01*
X144899100Y-100814953D02*
X144565767Y-100338762D01*
X144327672Y-100814953D02*
X144327672Y-99814953D01*
X144327672Y-99814953D02*
X144708624Y-99814953D01*
X144708624Y-99814953D02*
X144803862Y-99862572D01*
X144803862Y-99862572D02*
X144851481Y-99910191D01*
X144851481Y-99910191D02*
X144899100Y-100005429D01*
X144899100Y-100005429D02*
X144899100Y-100148286D01*
X144899100Y-100148286D02*
X144851481Y-100243524D01*
X144851481Y-100243524D02*
X144803862Y-100291143D01*
X144803862Y-100291143D02*
X144708624Y-100338762D01*
X144708624Y-100338762D02*
X144327672Y-100338762D01*
X146089577Y-100434000D02*
X146851482Y-100434000D01*
X148422910Y-100291143D02*
X148089577Y-100291143D01*
X148089577Y-100814953D02*
X148089577Y-99814953D01*
X148089577Y-99814953D02*
X148565767Y-99814953D01*
X149375291Y-100814953D02*
X149375291Y-100291143D01*
X149375291Y-100291143D02*
X149327672Y-100195905D01*
X149327672Y-100195905D02*
X149232434Y-100148286D01*
X149232434Y-100148286D02*
X149041958Y-100148286D01*
X149041958Y-100148286D02*
X148946720Y-100195905D01*
X149375291Y-100767334D02*
X149280053Y-100814953D01*
X149280053Y-100814953D02*
X149041958Y-100814953D01*
X149041958Y-100814953D02*
X148946720Y-100767334D01*
X148946720Y-100767334D02*
X148899101Y-100672095D01*
X148899101Y-100672095D02*
X148899101Y-100576857D01*
X148899101Y-100576857D02*
X148946720Y-100481619D01*
X148946720Y-100481619D02*
X149041958Y-100434000D01*
X149041958Y-100434000D02*
X149280053Y-100434000D01*
X149280053Y-100434000D02*
X149375291Y-100386381D01*
X150280053Y-100767334D02*
X150184815Y-100814953D01*
X150184815Y-100814953D02*
X149994339Y-100814953D01*
X149994339Y-100814953D02*
X149899101Y-100767334D01*
X149899101Y-100767334D02*
X149851482Y-100719714D01*
X149851482Y-100719714D02*
X149803863Y-100624476D01*
X149803863Y-100624476D02*
X149803863Y-100338762D01*
X149803863Y-100338762D02*
X149851482Y-100243524D01*
X149851482Y-100243524D02*
X149899101Y-100195905D01*
X149899101Y-100195905D02*
X149994339Y-100148286D01*
X149994339Y-100148286D02*
X150184815Y-100148286D01*
X150184815Y-100148286D02*
X150280053Y-100195905D01*
X151089577Y-100767334D02*
X150994339Y-100814953D01*
X150994339Y-100814953D02*
X150803863Y-100814953D01*
X150803863Y-100814953D02*
X150708625Y-100767334D01*
X150708625Y-100767334D02*
X150661006Y-100672095D01*
X150661006Y-100672095D02*
X150661006Y-100291143D01*
X150661006Y-100291143D02*
X150708625Y-100195905D01*
X150708625Y-100195905D02*
X150803863Y-100148286D01*
X150803863Y-100148286D02*
X150994339Y-100148286D01*
X150994339Y-100148286D02*
X151089577Y-100195905D01*
X151089577Y-100195905D02*
X151137196Y-100291143D01*
X151137196Y-100291143D02*
X151137196Y-100386381D01*
X151137196Y-100386381D02*
X150661006Y-100481619D01*
X152327673Y-100814953D02*
X152327673Y-99814953D01*
X152327673Y-99814953D02*
X152565768Y-99814953D01*
X152565768Y-99814953D02*
X152708625Y-99862572D01*
X152708625Y-99862572D02*
X152803863Y-99957810D01*
X152803863Y-99957810D02*
X152851482Y-100053048D01*
X152851482Y-100053048D02*
X152899101Y-100243524D01*
X152899101Y-100243524D02*
X152899101Y-100386381D01*
X152899101Y-100386381D02*
X152851482Y-100576857D01*
X152851482Y-100576857D02*
X152803863Y-100672095D01*
X152803863Y-100672095D02*
X152708625Y-100767334D01*
X152708625Y-100767334D02*
X152565768Y-100814953D01*
X152565768Y-100814953D02*
X152327673Y-100814953D01*
X153470530Y-100814953D02*
X153375292Y-100767334D01*
X153375292Y-100767334D02*
X153327673Y-100719714D01*
X153327673Y-100719714D02*
X153280054Y-100624476D01*
X153280054Y-100624476D02*
X153280054Y-100338762D01*
X153280054Y-100338762D02*
X153327673Y-100243524D01*
X153327673Y-100243524D02*
X153375292Y-100195905D01*
X153375292Y-100195905D02*
X153470530Y-100148286D01*
X153470530Y-100148286D02*
X153613387Y-100148286D01*
X153613387Y-100148286D02*
X153708625Y-100195905D01*
X153708625Y-100195905D02*
X153756244Y-100243524D01*
X153756244Y-100243524D02*
X153803863Y-100338762D01*
X153803863Y-100338762D02*
X153803863Y-100624476D01*
X153803863Y-100624476D02*
X153756244Y-100719714D01*
X153756244Y-100719714D02*
X153708625Y-100767334D01*
X153708625Y-100767334D02*
X153613387Y-100814953D01*
X153613387Y-100814953D02*
X153470530Y-100814953D01*
X154137197Y-100148286D02*
X154327673Y-100814953D01*
X154327673Y-100814953D02*
X154518149Y-100338762D01*
X154518149Y-100338762D02*
X154708625Y-100814953D01*
X154708625Y-100814953D02*
X154899101Y-100148286D01*
X155280054Y-100148286D02*
X155280054Y-100814953D01*
X155280054Y-100243524D02*
X155327673Y-100195905D01*
X155327673Y-100195905D02*
X155422911Y-100148286D01*
X155422911Y-100148286D02*
X155565768Y-100148286D01*
X155565768Y-100148286D02*
X155661006Y-100195905D01*
X155661006Y-100195905D02*
X155708625Y-100291143D01*
X155708625Y-100291143D02*
X155708625Y-100814953D01*
X150706243Y-110027573D02*
X150611005Y-109979954D01*
X150611005Y-109979954D02*
X150468148Y-109979954D01*
X150468148Y-109979954D02*
X150325291Y-110027573D01*
X150325291Y-110027573D02*
X150230053Y-110122811D01*
X150230053Y-110122811D02*
X150182434Y-110218049D01*
X150182434Y-110218049D02*
X150134815Y-110408525D01*
X150134815Y-110408525D02*
X150134815Y-110551382D01*
X150134815Y-110551382D02*
X150182434Y-110741858D01*
X150182434Y-110741858D02*
X150230053Y-110837096D01*
X150230053Y-110837096D02*
X150325291Y-110932335D01*
X150325291Y-110932335D02*
X150468148Y-110979954D01*
X150468148Y-110979954D02*
X150563386Y-110979954D01*
X150563386Y-110979954D02*
X150706243Y-110932335D01*
X150706243Y-110932335D02*
X150753862Y-110884715D01*
X150753862Y-110884715D02*
X150753862Y-110551382D01*
X150753862Y-110551382D02*
X150563386Y-110551382D01*
X151182434Y-110979954D02*
X151182434Y-109979954D01*
X151182434Y-109979954D02*
X151753862Y-110979954D01*
X151753862Y-110979954D02*
X151753862Y-109979954D01*
X152230053Y-110979954D02*
X152230053Y-109979954D01*
X152230053Y-109979954D02*
X152468148Y-109979954D01*
X152468148Y-109979954D02*
X152611005Y-110027573D01*
X152611005Y-110027573D02*
X152706243Y-110122811D01*
X152706243Y-110122811D02*
X152753862Y-110218049D01*
X152753862Y-110218049D02*
X152801481Y-110408525D01*
X152801481Y-110408525D02*
X152801481Y-110551382D01*
X152801481Y-110551382D02*
X152753862Y-110741858D01*
X152753862Y-110741858D02*
X152706243Y-110837096D01*
X152706243Y-110837096D02*
X152611005Y-110932335D01*
X152611005Y-110932335D02*
X152468148Y-110979954D01*
X152468148Y-110979954D02*
X152230053Y-110979954D01*
X150706244Y-107487571D02*
X150611006Y-107439952D01*
X150611006Y-107439952D02*
X150468149Y-107439952D01*
X150468149Y-107439952D02*
X150325292Y-107487571D01*
X150325292Y-107487571D02*
X150230054Y-107582809D01*
X150230054Y-107582809D02*
X150182435Y-107678047D01*
X150182435Y-107678047D02*
X150134816Y-107868523D01*
X150134816Y-107868523D02*
X150134816Y-108011380D01*
X150134816Y-108011380D02*
X150182435Y-108201856D01*
X150182435Y-108201856D02*
X150230054Y-108297094D01*
X150230054Y-108297094D02*
X150325292Y-108392333D01*
X150325292Y-108392333D02*
X150468149Y-108439952D01*
X150468149Y-108439952D02*
X150563387Y-108439952D01*
X150563387Y-108439952D02*
X150706244Y-108392333D01*
X150706244Y-108392333D02*
X150753863Y-108344713D01*
X150753863Y-108344713D02*
X150753863Y-108011380D01*
X150753863Y-108011380D02*
X150563387Y-108011380D01*
X151182435Y-108439952D02*
X151182435Y-107439952D01*
X151182435Y-107439952D02*
X151753863Y-108439952D01*
X151753863Y-108439952D02*
X151753863Y-107439952D01*
X152230054Y-108439952D02*
X152230054Y-107439952D01*
X152230054Y-107439952D02*
X152468149Y-107439952D01*
X152468149Y-107439952D02*
X152611006Y-107487571D01*
X152611006Y-107487571D02*
X152706244Y-107582809D01*
X152706244Y-107582809D02*
X152753863Y-107678047D01*
X152753863Y-107678047D02*
X152801482Y-107868523D01*
X152801482Y-107868523D02*
X152801482Y-108011380D01*
X152801482Y-108011380D02*
X152753863Y-108201856D01*
X152753863Y-108201856D02*
X152706244Y-108297094D01*
X152706244Y-108297094D02*
X152611006Y-108392333D01*
X152611006Y-108392333D02*
X152468149Y-108439952D01*
X152468149Y-108439952D02*
X152230054Y-108439952D01*
X151320053Y-121139953D02*
X151320053Y-120139953D01*
X151320053Y-120139953D02*
X151701005Y-120139953D01*
X151701005Y-120139953D02*
X151796243Y-120187572D01*
X151796243Y-120187572D02*
X151843862Y-120235191D01*
X151843862Y-120235191D02*
X151891481Y-120330429D01*
X151891481Y-120330429D02*
X151891481Y-120473286D01*
X151891481Y-120473286D02*
X151843862Y-120568524D01*
X151843862Y-120568524D02*
X151796243Y-120616143D01*
X151796243Y-120616143D02*
X151701005Y-120663762D01*
X151701005Y-120663762D02*
X151320053Y-120663762D01*
X152796243Y-120139953D02*
X152320053Y-120139953D01*
X152320053Y-120139953D02*
X152272434Y-120616143D01*
X152272434Y-120616143D02*
X152320053Y-120568524D01*
X152320053Y-120568524D02*
X152415291Y-120520905D01*
X152415291Y-120520905D02*
X152653386Y-120520905D01*
X152653386Y-120520905D02*
X152748624Y-120568524D01*
X152748624Y-120568524D02*
X152796243Y-120616143D01*
X152796243Y-120616143D02*
X152843862Y-120711381D01*
X152843862Y-120711381D02*
X152843862Y-120949476D01*
X152843862Y-120949476D02*
X152796243Y-121044714D01*
X152796243Y-121044714D02*
X152748624Y-121092334D01*
X152748624Y-121092334D02*
X152653386Y-121139953D01*
X152653386Y-121139953D02*
X152415291Y-121139953D01*
X152415291Y-121139953D02*
X152320053Y-121092334D01*
X152320053Y-121092334D02*
X152272434Y-121044714D01*
X151320054Y-103359953D02*
X151320054Y-102359953D01*
X151320054Y-102359953D02*
X151701006Y-102359953D01*
X151701006Y-102359953D02*
X151796244Y-102407572D01*
X151796244Y-102407572D02*
X151843863Y-102455191D01*
X151843863Y-102455191D02*
X151891482Y-102550429D01*
X151891482Y-102550429D02*
X151891482Y-102693286D01*
X151891482Y-102693286D02*
X151843863Y-102788524D01*
X151843863Y-102788524D02*
X151796244Y-102836143D01*
X151796244Y-102836143D02*
X151701006Y-102883762D01*
X151701006Y-102883762D02*
X151320054Y-102883762D01*
X152843863Y-103359953D02*
X152272435Y-103359953D01*
X152558149Y-103359953D02*
X152558149Y-102359953D01*
X152558149Y-102359953D02*
X152462911Y-102502810D01*
X152462911Y-102502810D02*
X152367673Y-102598048D01*
X152367673Y-102598048D02*
X152272435Y-102645667D01*
X151320054Y-105899954D02*
X151320054Y-104899954D01*
X151320054Y-104899954D02*
X151701006Y-104899954D01*
X151701006Y-104899954D02*
X151796244Y-104947573D01*
X151796244Y-104947573D02*
X151843863Y-104995192D01*
X151843863Y-104995192D02*
X151891482Y-105090430D01*
X151891482Y-105090430D02*
X151891482Y-105233287D01*
X151891482Y-105233287D02*
X151843863Y-105328525D01*
X151843863Y-105328525D02*
X151796244Y-105376144D01*
X151796244Y-105376144D02*
X151701006Y-105423763D01*
X151701006Y-105423763D02*
X151320054Y-105423763D01*
X152510530Y-104899954D02*
X152605768Y-104899954D01*
X152605768Y-104899954D02*
X152701006Y-104947573D01*
X152701006Y-104947573D02*
X152748625Y-104995192D01*
X152748625Y-104995192D02*
X152796244Y-105090430D01*
X152796244Y-105090430D02*
X152843863Y-105280906D01*
X152843863Y-105280906D02*
X152843863Y-105519001D01*
X152843863Y-105519001D02*
X152796244Y-105709477D01*
X152796244Y-105709477D02*
X152748625Y-105804715D01*
X152748625Y-105804715D02*
X152701006Y-105852335D01*
X152701006Y-105852335D02*
X152605768Y-105899954D01*
X152605768Y-105899954D02*
X152510530Y-105899954D01*
X152510530Y-105899954D02*
X152415292Y-105852335D01*
X152415292Y-105852335D02*
X152367673Y-105804715D01*
X152367673Y-105804715D02*
X152320054Y-105709477D01*
X152320054Y-105709477D02*
X152272435Y-105519001D01*
X152272435Y-105519001D02*
X152272435Y-105280906D01*
X152272435Y-105280906D02*
X152320054Y-105090430D01*
X152320054Y-105090430D02*
X152367673Y-104995192D01*
X152367673Y-104995192D02*
X152415292Y-104947573D01*
X152415292Y-104947573D02*
X152510530Y-104899954D01*
X151320054Y-113519953D02*
X151320054Y-112519953D01*
X151320054Y-112519953D02*
X151701006Y-112519953D01*
X151701006Y-112519953D02*
X151796244Y-112567572D01*
X151796244Y-112567572D02*
X151843863Y-112615191D01*
X151843863Y-112615191D02*
X151891482Y-112710429D01*
X151891482Y-112710429D02*
X151891482Y-112853286D01*
X151891482Y-112853286D02*
X151843863Y-112948524D01*
X151843863Y-112948524D02*
X151796244Y-112996143D01*
X151796244Y-112996143D02*
X151701006Y-113043762D01*
X151701006Y-113043762D02*
X151320054Y-113043762D01*
X152272435Y-112615191D02*
X152320054Y-112567572D01*
X152320054Y-112567572D02*
X152415292Y-112519953D01*
X152415292Y-112519953D02*
X152653387Y-112519953D01*
X152653387Y-112519953D02*
X152748625Y-112567572D01*
X152748625Y-112567572D02*
X152796244Y-112615191D01*
X152796244Y-112615191D02*
X152843863Y-112710429D01*
X152843863Y-112710429D02*
X152843863Y-112805667D01*
X152843863Y-112805667D02*
X152796244Y-112948524D01*
X152796244Y-112948524D02*
X152224816Y-113519953D01*
X152224816Y-113519953D02*
X152843863Y-113519953D01*
X151320054Y-116059953D02*
X151320054Y-115059953D01*
X151320054Y-115059953D02*
X151701006Y-115059953D01*
X151701006Y-115059953D02*
X151796244Y-115107572D01*
X151796244Y-115107572D02*
X151843863Y-115155191D01*
X151843863Y-115155191D02*
X151891482Y-115250429D01*
X151891482Y-115250429D02*
X151891482Y-115393286D01*
X151891482Y-115393286D02*
X151843863Y-115488524D01*
X151843863Y-115488524D02*
X151796244Y-115536143D01*
X151796244Y-115536143D02*
X151701006Y-115583762D01*
X151701006Y-115583762D02*
X151320054Y-115583762D01*
X152224816Y-115059953D02*
X152843863Y-115059953D01*
X152843863Y-115059953D02*
X152510530Y-115440905D01*
X152510530Y-115440905D02*
X152653387Y-115440905D01*
X152653387Y-115440905D02*
X152748625Y-115488524D01*
X152748625Y-115488524D02*
X152796244Y-115536143D01*
X152796244Y-115536143D02*
X152843863Y-115631381D01*
X152843863Y-115631381D02*
X152843863Y-115869476D01*
X152843863Y-115869476D02*
X152796244Y-115964714D01*
X152796244Y-115964714D02*
X152748625Y-116012334D01*
X152748625Y-116012334D02*
X152653387Y-116059953D01*
X152653387Y-116059953D02*
X152367673Y-116059953D01*
X152367673Y-116059953D02*
X152272435Y-116012334D01*
X152272435Y-116012334D02*
X152224816Y-115964714D01*
X151320054Y-118599953D02*
X151320054Y-117599953D01*
X151320054Y-117599953D02*
X151701006Y-117599953D01*
X151701006Y-117599953D02*
X151796244Y-117647572D01*
X151796244Y-117647572D02*
X151843863Y-117695191D01*
X151843863Y-117695191D02*
X151891482Y-117790429D01*
X151891482Y-117790429D02*
X151891482Y-117933286D01*
X151891482Y-117933286D02*
X151843863Y-118028524D01*
X151843863Y-118028524D02*
X151796244Y-118076143D01*
X151796244Y-118076143D02*
X151701006Y-118123762D01*
X151701006Y-118123762D02*
X151320054Y-118123762D01*
X152748625Y-117933286D02*
X152748625Y-118599953D01*
X152510530Y-117552334D02*
X152272435Y-118266619D01*
X152272435Y-118266619D02*
X152891482Y-118266619D01*
X151320054Y-126219952D02*
X151320054Y-125219952D01*
X151320054Y-125219952D02*
X151701006Y-125219952D01*
X151701006Y-125219952D02*
X151796244Y-125267571D01*
X151796244Y-125267571D02*
X151843863Y-125315190D01*
X151843863Y-125315190D02*
X151891482Y-125410428D01*
X151891482Y-125410428D02*
X151891482Y-125553285D01*
X151891482Y-125553285D02*
X151843863Y-125648523D01*
X151843863Y-125648523D02*
X151796244Y-125696142D01*
X151796244Y-125696142D02*
X151701006Y-125743761D01*
X151701006Y-125743761D02*
X151320054Y-125743761D01*
X152224816Y-125219952D02*
X152891482Y-125219952D01*
X152891482Y-125219952D02*
X152462911Y-126219952D01*
X151320054Y-128759953D02*
X151320054Y-127759953D01*
X151320054Y-127759953D02*
X151701006Y-127759953D01*
X151701006Y-127759953D02*
X151796244Y-127807572D01*
X151796244Y-127807572D02*
X151843863Y-127855191D01*
X151843863Y-127855191D02*
X151891482Y-127950429D01*
X151891482Y-127950429D02*
X151891482Y-128093286D01*
X151891482Y-128093286D02*
X151843863Y-128188524D01*
X151843863Y-128188524D02*
X151796244Y-128236143D01*
X151796244Y-128236143D02*
X151701006Y-128283762D01*
X151701006Y-128283762D02*
X151320054Y-128283762D01*
X152462911Y-128188524D02*
X152367673Y-128140905D01*
X152367673Y-128140905D02*
X152320054Y-128093286D01*
X152320054Y-128093286D02*
X152272435Y-127998048D01*
X152272435Y-127998048D02*
X152272435Y-127950429D01*
X152272435Y-127950429D02*
X152320054Y-127855191D01*
X152320054Y-127855191D02*
X152367673Y-127807572D01*
X152367673Y-127807572D02*
X152462911Y-127759953D01*
X152462911Y-127759953D02*
X152653387Y-127759953D01*
X152653387Y-127759953D02*
X152748625Y-127807572D01*
X152748625Y-127807572D02*
X152796244Y-127855191D01*
X152796244Y-127855191D02*
X152843863Y-127950429D01*
X152843863Y-127950429D02*
X152843863Y-127998048D01*
X152843863Y-127998048D02*
X152796244Y-128093286D01*
X152796244Y-128093286D02*
X152748625Y-128140905D01*
X152748625Y-128140905D02*
X152653387Y-128188524D01*
X152653387Y-128188524D02*
X152462911Y-128188524D01*
X152462911Y-128188524D02*
X152367673Y-128236143D01*
X152367673Y-128236143D02*
X152320054Y-128283762D01*
X152320054Y-128283762D02*
X152272435Y-128379000D01*
X152272435Y-128379000D02*
X152272435Y-128569476D01*
X152272435Y-128569476D02*
X152320054Y-128664714D01*
X152320054Y-128664714D02*
X152367673Y-128712334D01*
X152367673Y-128712334D02*
X152462911Y-128759953D01*
X152462911Y-128759953D02*
X152653387Y-128759953D01*
X152653387Y-128759953D02*
X152748625Y-128712334D01*
X152748625Y-128712334D02*
X152796244Y-128664714D01*
X152796244Y-128664714D02*
X152843863Y-128569476D01*
X152843863Y-128569476D02*
X152843863Y-128379000D01*
X152843863Y-128379000D02*
X152796244Y-128283762D01*
X152796244Y-128283762D02*
X152748625Y-128236143D01*
X152748625Y-128236143D02*
X152653387Y-128188524D01*
X151320054Y-131299952D02*
X151320054Y-130299952D01*
X151320054Y-130299952D02*
X151701006Y-130299952D01*
X151701006Y-130299952D02*
X151796244Y-130347571D01*
X151796244Y-130347571D02*
X151843863Y-130395190D01*
X151843863Y-130395190D02*
X151891482Y-130490428D01*
X151891482Y-130490428D02*
X151891482Y-130633285D01*
X151891482Y-130633285D02*
X151843863Y-130728523D01*
X151843863Y-130728523D02*
X151796244Y-130776142D01*
X151796244Y-130776142D02*
X151701006Y-130823761D01*
X151701006Y-130823761D02*
X151320054Y-130823761D01*
X152367673Y-131299952D02*
X152558149Y-131299952D01*
X152558149Y-131299952D02*
X152653387Y-131252333D01*
X152653387Y-131252333D02*
X152701006Y-131204713D01*
X152701006Y-131204713D02*
X152796244Y-131061856D01*
X152796244Y-131061856D02*
X152843863Y-130871380D01*
X152843863Y-130871380D02*
X152843863Y-130490428D01*
X152843863Y-130490428D02*
X152796244Y-130395190D01*
X152796244Y-130395190D02*
X152748625Y-130347571D01*
X152748625Y-130347571D02*
X152653387Y-130299952D01*
X152653387Y-130299952D02*
X152462911Y-130299952D01*
X152462911Y-130299952D02*
X152367673Y-130347571D01*
X152367673Y-130347571D02*
X152320054Y-130395190D01*
X152320054Y-130395190D02*
X152272435Y-130490428D01*
X152272435Y-130490428D02*
X152272435Y-130728523D01*
X152272435Y-130728523D02*
X152320054Y-130823761D01*
X152320054Y-130823761D02*
X152367673Y-130871380D01*
X152367673Y-130871380D02*
X152462911Y-130918999D01*
X152462911Y-130918999D02*
X152653387Y-130918999D01*
X152653387Y-130918999D02*
X152748625Y-130871380D01*
X152748625Y-130871380D02*
X152796244Y-130823761D01*
X152796244Y-130823761D02*
X152843863Y-130728523D01*
X151320055Y-123679952D02*
X151320055Y-122679952D01*
X151320055Y-122679952D02*
X151701007Y-122679952D01*
X151701007Y-122679952D02*
X151796245Y-122727571D01*
X151796245Y-122727571D02*
X151843864Y-122775190D01*
X151843864Y-122775190D02*
X151891483Y-122870428D01*
X151891483Y-122870428D02*
X151891483Y-123013285D01*
X151891483Y-123013285D02*
X151843864Y-123108523D01*
X151843864Y-123108523D02*
X151796245Y-123156142D01*
X151796245Y-123156142D02*
X151701007Y-123203761D01*
X151701007Y-123203761D02*
X151320055Y-123203761D01*
X152748626Y-122679952D02*
X152558150Y-122679952D01*
X152558150Y-122679952D02*
X152462912Y-122727571D01*
X152462912Y-122727571D02*
X152415293Y-122775190D01*
X152415293Y-122775190D02*
X152320055Y-122918047D01*
X152320055Y-122918047D02*
X152272436Y-123108523D01*
X152272436Y-123108523D02*
X152272436Y-123489475D01*
X152272436Y-123489475D02*
X152320055Y-123584713D01*
X152320055Y-123584713D02*
X152367674Y-123632333D01*
X152367674Y-123632333D02*
X152462912Y-123679952D01*
X152462912Y-123679952D02*
X152653388Y-123679952D01*
X152653388Y-123679952D02*
X152748626Y-123632333D01*
X152748626Y-123632333D02*
X152796245Y-123584713D01*
X152796245Y-123584713D02*
X152843864Y-123489475D01*
X152843864Y-123489475D02*
X152843864Y-123251380D01*
X152843864Y-123251380D02*
X152796245Y-123156142D01*
X152796245Y-123156142D02*
X152748626Y-123108523D01*
X152748626Y-123108523D02*
X152653388Y-123060904D01*
X152653388Y-123060904D02*
X152462912Y-123060904D01*
X152462912Y-123060904D02*
X152367674Y-123108523D01*
X152367674Y-123108523D02*
X152320055Y-123156142D01*
X152320055Y-123156142D02*
X152272436Y-123251380D01*
X137984818Y-143929334D02*
X138099104Y-143967429D01*
X138099104Y-143967429D02*
X138289580Y-143967429D01*
X138289580Y-143967429D02*
X138365771Y-143929334D01*
X138365771Y-143929334D02*
X138403866Y-143891238D01*
X138403866Y-143891238D02*
X138441961Y-143815048D01*
X138441961Y-143815048D02*
X138441961Y-143738857D01*
X138441961Y-143738857D02*
X138403866Y-143662667D01*
X138403866Y-143662667D02*
X138365771Y-143624572D01*
X138365771Y-143624572D02*
X138289580Y-143586476D01*
X138289580Y-143586476D02*
X138137199Y-143548381D01*
X138137199Y-143548381D02*
X138061009Y-143510286D01*
X138061009Y-143510286D02*
X138022914Y-143472191D01*
X138022914Y-143472191D02*
X137984818Y-143396000D01*
X137984818Y-143396000D02*
X137984818Y-143319810D01*
X137984818Y-143319810D02*
X138022914Y-143243619D01*
X138022914Y-143243619D02*
X138061009Y-143205524D01*
X138061009Y-143205524D02*
X138137199Y-143167429D01*
X138137199Y-143167429D02*
X138327676Y-143167429D01*
X138327676Y-143167429D02*
X138441961Y-143205524D01*
X138746723Y-143929334D02*
X138861009Y-143967429D01*
X138861009Y-143967429D02*
X139051485Y-143967429D01*
X139051485Y-143967429D02*
X139127676Y-143929334D01*
X139127676Y-143929334D02*
X139165771Y-143891238D01*
X139165771Y-143891238D02*
X139203866Y-143815048D01*
X139203866Y-143815048D02*
X139203866Y-143738857D01*
X139203866Y-143738857D02*
X139165771Y-143662667D01*
X139165771Y-143662667D02*
X139127676Y-143624572D01*
X139127676Y-143624572D02*
X139051485Y-143586476D01*
X139051485Y-143586476D02*
X138899104Y-143548381D01*
X138899104Y-143548381D02*
X138822914Y-143510286D01*
X138822914Y-143510286D02*
X138784819Y-143472191D01*
X138784819Y-143472191D02*
X138746723Y-143396000D01*
X138746723Y-143396000D02*
X138746723Y-143319810D01*
X138746723Y-143319810D02*
X138784819Y-143243619D01*
X138784819Y-143243619D02*
X138822914Y-143205524D01*
X138822914Y-143205524D02*
X138899104Y-143167429D01*
X138899104Y-143167429D02*
X139089581Y-143167429D01*
X139089581Y-143167429D02*
X139203866Y-143205524D01*
X139546724Y-143967429D02*
X139546724Y-143167429D01*
X139546724Y-143167429D02*
X139737200Y-143167429D01*
X139737200Y-143167429D02*
X139851486Y-143205524D01*
X139851486Y-143205524D02*
X139927676Y-143281714D01*
X139927676Y-143281714D02*
X139965771Y-143357905D01*
X139965771Y-143357905D02*
X140003867Y-143510286D01*
X140003867Y-143510286D02*
X140003867Y-143624572D01*
X140003867Y-143624572D02*
X139965771Y-143776953D01*
X139965771Y-143776953D02*
X139927676Y-143853143D01*
X139927676Y-143853143D02*
X139851486Y-143929334D01*
X139851486Y-143929334D02*
X139737200Y-143967429D01*
X139737200Y-143967429D02*
X139546724Y-143967429D01*
X140765771Y-143967429D02*
X140308628Y-143967429D01*
X140537200Y-143967429D02*
X140537200Y-143167429D01*
X140537200Y-143167429D02*
X140461009Y-143281714D01*
X140461009Y-143281714D02*
X140384819Y-143357905D01*
X140384819Y-143357905D02*
X140308628Y-143396000D01*
X141032438Y-143167429D02*
X141527676Y-143167429D01*
X141527676Y-143167429D02*
X141261010Y-143472191D01*
X141261010Y-143472191D02*
X141375295Y-143472191D01*
X141375295Y-143472191D02*
X141451486Y-143510286D01*
X141451486Y-143510286D02*
X141489581Y-143548381D01*
X141489581Y-143548381D02*
X141527676Y-143624572D01*
X141527676Y-143624572D02*
X141527676Y-143815048D01*
X141527676Y-143815048D02*
X141489581Y-143891238D01*
X141489581Y-143891238D02*
X141451486Y-143929334D01*
X141451486Y-143929334D02*
X141375295Y-143967429D01*
X141375295Y-143967429D02*
X141146724Y-143967429D01*
X141146724Y-143967429D02*
X141070533Y-143929334D01*
X141070533Y-143929334D02*
X141032438Y-143891238D01*
X142022915Y-143167429D02*
X142099105Y-143167429D01*
X142099105Y-143167429D02*
X142175296Y-143205524D01*
X142175296Y-143205524D02*
X142213391Y-143243619D01*
X142213391Y-143243619D02*
X142251486Y-143319810D01*
X142251486Y-143319810D02*
X142289581Y-143472191D01*
X142289581Y-143472191D02*
X142289581Y-143662667D01*
X142289581Y-143662667D02*
X142251486Y-143815048D01*
X142251486Y-143815048D02*
X142213391Y-143891238D01*
X142213391Y-143891238D02*
X142175296Y-143929334D01*
X142175296Y-143929334D02*
X142099105Y-143967429D01*
X142099105Y-143967429D02*
X142022915Y-143967429D01*
X142022915Y-143967429D02*
X141946724Y-143929334D01*
X141946724Y-143929334D02*
X141908629Y-143891238D01*
X141908629Y-143891238D02*
X141870534Y-143815048D01*
X141870534Y-143815048D02*
X141832438Y-143662667D01*
X141832438Y-143662667D02*
X141832438Y-143472191D01*
X141832438Y-143472191D02*
X141870534Y-143319810D01*
X141870534Y-143319810D02*
X141908629Y-143243619D01*
X141908629Y-143243619D02*
X141946724Y-143205524D01*
X141946724Y-143205524D02*
X142022915Y-143167429D01*
X142975296Y-143167429D02*
X142822915Y-143167429D01*
X142822915Y-143167429D02*
X142746724Y-143205524D01*
X142746724Y-143205524D02*
X142708629Y-143243619D01*
X142708629Y-143243619D02*
X142632439Y-143357905D01*
X142632439Y-143357905D02*
X142594343Y-143510286D01*
X142594343Y-143510286D02*
X142594343Y-143815048D01*
X142594343Y-143815048D02*
X142632439Y-143891238D01*
X142632439Y-143891238D02*
X142670534Y-143929334D01*
X142670534Y-143929334D02*
X142746724Y-143967429D01*
X142746724Y-143967429D02*
X142899105Y-143967429D01*
X142899105Y-143967429D02*
X142975296Y-143929334D01*
X142975296Y-143929334D02*
X143013391Y-143891238D01*
X143013391Y-143891238D02*
X143051486Y-143815048D01*
X143051486Y-143815048D02*
X143051486Y-143624572D01*
X143051486Y-143624572D02*
X143013391Y-143548381D01*
X143013391Y-143548381D02*
X142975296Y-143510286D01*
X142975296Y-143510286D02*
X142899105Y-143472191D01*
X142899105Y-143472191D02*
X142746724Y-143472191D01*
X142746724Y-143472191D02*
X142670534Y-143510286D01*
X142670534Y-143510286D02*
X142632439Y-143548381D01*
X142632439Y-143548381D02*
X142594343Y-143624572D01*
X139680974Y-174737039D02*
X139680974Y-174165611D01*
X140680974Y-174451325D02*
X139680974Y-174451325D01*
X140680974Y-173260849D02*
X140204783Y-173594182D01*
X140680974Y-173832277D02*
X139680974Y-173832277D01*
X139680974Y-173832277D02*
X139680974Y-173451325D01*
X139680974Y-173451325D02*
X139728593Y-173356087D01*
X139728593Y-173356087D02*
X139776212Y-173308468D01*
X139776212Y-173308468D02*
X139871450Y-173260849D01*
X139871450Y-173260849D02*
X140014307Y-173260849D01*
X140014307Y-173260849D02*
X140109545Y-173308468D01*
X140109545Y-173308468D02*
X140157164Y-173356087D01*
X140157164Y-173356087D02*
X140204783Y-173451325D01*
X140204783Y-173451325D02*
X140204783Y-173832277D01*
X140680974Y-172260849D02*
X140204783Y-172594182D01*
X140680974Y-172832277D02*
X139680974Y-172832277D01*
X139680974Y-172832277D02*
X139680974Y-172451325D01*
X139680974Y-172451325D02*
X139728593Y-172356087D01*
X139728593Y-172356087D02*
X139776212Y-172308468D01*
X139776212Y-172308468D02*
X139871450Y-172260849D01*
X139871450Y-172260849D02*
X140014307Y-172260849D01*
X140014307Y-172260849D02*
X140109545Y-172308468D01*
X140109545Y-172308468D02*
X140157164Y-172356087D01*
X140157164Y-172356087D02*
X140204783Y-172451325D01*
X140204783Y-172451325D02*
X140204783Y-172832277D01*
X140633355Y-171879896D02*
X140680974Y-171737039D01*
X140680974Y-171737039D02*
X140680974Y-171498944D01*
X140680974Y-171498944D02*
X140633355Y-171403706D01*
X140633355Y-171403706D02*
X140585735Y-171356087D01*
X140585735Y-171356087D02*
X140490497Y-171308468D01*
X140490497Y-171308468D02*
X140395259Y-171308468D01*
X140395259Y-171308468D02*
X140300021Y-171356087D01*
X140300021Y-171356087D02*
X140252402Y-171403706D01*
X140252402Y-171403706D02*
X140204783Y-171498944D01*
X140204783Y-171498944D02*
X140157164Y-171689420D01*
X140157164Y-171689420D02*
X140109545Y-171784658D01*
X140109545Y-171784658D02*
X140061926Y-171832277D01*
X140061926Y-171832277D02*
X139966688Y-171879896D01*
X139966688Y-171879896D02*
X139871450Y-171879896D01*
X139871450Y-171879896D02*
X139776212Y-171832277D01*
X139776212Y-171832277D02*
X139728593Y-171784658D01*
X139728593Y-171784658D02*
X139680974Y-171689420D01*
X139680974Y-171689420D02*
X139680974Y-171451325D01*
X139680974Y-171451325D02*
X139728593Y-171308468D01*
X134662106Y-103459952D02*
X134852582Y-103459952D01*
X134852582Y-103459952D02*
X134947820Y-103507571D01*
X134947820Y-103507571D02*
X135043058Y-103602809D01*
X135043058Y-103602809D02*
X135090677Y-103793285D01*
X135090677Y-103793285D02*
X135090677Y-104126618D01*
X135090677Y-104126618D02*
X135043058Y-104317094D01*
X135043058Y-104317094D02*
X134947820Y-104412333D01*
X134947820Y-104412333D02*
X134852582Y-104459952D01*
X134852582Y-104459952D02*
X134662106Y-104459952D01*
X134662106Y-104459952D02*
X134566868Y-104412333D01*
X134566868Y-104412333D02*
X134471630Y-104317094D01*
X134471630Y-104317094D02*
X134424011Y-104126618D01*
X134424011Y-104126618D02*
X134424011Y-103793285D01*
X134424011Y-103793285D02*
X134471630Y-103602809D01*
X134471630Y-103602809D02*
X134566868Y-103507571D01*
X134566868Y-103507571D02*
X134662106Y-103459952D01*
X135519249Y-104459952D02*
X135519249Y-103459952D01*
X135519249Y-103459952D02*
X136090677Y-104459952D01*
X136090677Y-104459952D02*
X136090677Y-103459952D01*
X134328773Y-113459952D02*
X134519249Y-113459952D01*
X134519249Y-113459952D02*
X134614487Y-113507571D01*
X134614487Y-113507571D02*
X134709725Y-113602809D01*
X134709725Y-113602809D02*
X134757344Y-113793285D01*
X134757344Y-113793285D02*
X134757344Y-114126618D01*
X134757344Y-114126618D02*
X134709725Y-114317094D01*
X134709725Y-114317094D02*
X134614487Y-114412333D01*
X134614487Y-114412333D02*
X134519249Y-114459952D01*
X134519249Y-114459952D02*
X134328773Y-114459952D01*
X134328773Y-114459952D02*
X134233535Y-114412333D01*
X134233535Y-114412333D02*
X134138297Y-114317094D01*
X134138297Y-114317094D02*
X134090678Y-114126618D01*
X134090678Y-114126618D02*
X134090678Y-113793285D01*
X134090678Y-113793285D02*
X134138297Y-113602809D01*
X134138297Y-113602809D02*
X134233535Y-113507571D01*
X134233535Y-113507571D02*
X134328773Y-113459952D01*
X135519249Y-113936142D02*
X135185916Y-113936142D01*
X135185916Y-114459952D02*
X135185916Y-113459952D01*
X135185916Y-113459952D02*
X135662106Y-113459952D01*
X136376392Y-113936142D02*
X136043059Y-113936142D01*
X136043059Y-114459952D02*
X136043059Y-113459952D01*
X136043059Y-113459952D02*
X136519249Y-113459952D01*
X145297734Y-140346674D02*
X145345354Y-140394293D01*
X145345354Y-140394293D02*
X145392973Y-140537150D01*
X145392973Y-140537150D02*
X145392973Y-140632388D01*
X145392973Y-140632388D02*
X145345354Y-140775245D01*
X145345354Y-140775245D02*
X145250115Y-140870483D01*
X145250115Y-140870483D02*
X145154877Y-140918102D01*
X145154877Y-140918102D02*
X144964401Y-140965721D01*
X144964401Y-140965721D02*
X144821544Y-140965721D01*
X144821544Y-140965721D02*
X144631068Y-140918102D01*
X144631068Y-140918102D02*
X144535830Y-140870483D01*
X144535830Y-140870483D02*
X144440592Y-140775245D01*
X144440592Y-140775245D02*
X144392973Y-140632388D01*
X144392973Y-140632388D02*
X144392973Y-140537150D01*
X144392973Y-140537150D02*
X144440592Y-140394293D01*
X144440592Y-140394293D02*
X144488211Y-140346674D01*
X145345354Y-139965721D02*
X145392973Y-139822864D01*
X145392973Y-139822864D02*
X145392973Y-139584769D01*
X145392973Y-139584769D02*
X145345354Y-139489531D01*
X145345354Y-139489531D02*
X145297734Y-139441912D01*
X145297734Y-139441912D02*
X145202496Y-139394293D01*
X145202496Y-139394293D02*
X145107258Y-139394293D01*
X145107258Y-139394293D02*
X145012020Y-139441912D01*
X145012020Y-139441912D02*
X144964401Y-139489531D01*
X144964401Y-139489531D02*
X144916782Y-139584769D01*
X144916782Y-139584769D02*
X144869163Y-139775245D01*
X144869163Y-139775245D02*
X144821544Y-139870483D01*
X144821544Y-139870483D02*
X144773925Y-139918102D01*
X144773925Y-139918102D02*
X144678687Y-139965721D01*
X144678687Y-139965721D02*
X144583449Y-139965721D01*
X144583449Y-139965721D02*
X144488211Y-139918102D01*
X144488211Y-139918102D02*
X144440592Y-139870483D01*
X144440592Y-139870483D02*
X144392973Y-139775245D01*
X144392973Y-139775245D02*
X144392973Y-139537150D01*
X144392973Y-139537150D02*
X144440592Y-139394293D01*
X147040593Y-141489530D02*
X146992974Y-141584768D01*
X146992974Y-141584768D02*
X146992974Y-141727625D01*
X146992974Y-141727625D02*
X147040593Y-141870482D01*
X147040593Y-141870482D02*
X147135831Y-141965720D01*
X147135831Y-141965720D02*
X147231069Y-142013339D01*
X147231069Y-142013339D02*
X147421545Y-142060958D01*
X147421545Y-142060958D02*
X147564402Y-142060958D01*
X147564402Y-142060958D02*
X147754878Y-142013339D01*
X147754878Y-142013339D02*
X147850116Y-141965720D01*
X147850116Y-141965720D02*
X147945355Y-141870482D01*
X147945355Y-141870482D02*
X147992974Y-141727625D01*
X147992974Y-141727625D02*
X147992974Y-141632387D01*
X147992974Y-141632387D02*
X147945355Y-141489530D01*
X147945355Y-141489530D02*
X147897735Y-141441911D01*
X147897735Y-141441911D02*
X147564402Y-141441911D01*
X147564402Y-141441911D02*
X147564402Y-141632387D01*
X147992974Y-141013339D02*
X146992974Y-141013339D01*
X146992974Y-141013339D02*
X147992974Y-140441911D01*
X147992974Y-140441911D02*
X146992974Y-140441911D01*
X147992974Y-139965720D02*
X146992974Y-139965720D01*
X146992974Y-139965720D02*
X146992974Y-139727625D01*
X146992974Y-139727625D02*
X147040593Y-139584768D01*
X147040593Y-139584768D02*
X147135831Y-139489530D01*
X147135831Y-139489530D02*
X147231069Y-139441911D01*
X147231069Y-139441911D02*
X147421545Y-139394292D01*
X147421545Y-139394292D02*
X147564402Y-139394292D01*
X147564402Y-139394292D02*
X147754878Y-139441911D01*
X147754878Y-139441911D02*
X147850116Y-139489530D01*
X147850116Y-139489530D02*
X147945355Y-139584768D01*
X147945355Y-139584768D02*
X147992974Y-139727625D01*
X147992974Y-139727625D02*
X147992974Y-139965720D01*
X149622973Y-141965720D02*
X150622973Y-141632387D01*
X150622973Y-141632387D02*
X149622973Y-141299054D01*
X150527734Y-140394292D02*
X150575354Y-140441911D01*
X150575354Y-140441911D02*
X150622973Y-140584768D01*
X150622973Y-140584768D02*
X150622973Y-140680006D01*
X150622973Y-140680006D02*
X150575354Y-140822863D01*
X150575354Y-140822863D02*
X150480115Y-140918101D01*
X150480115Y-140918101D02*
X150384877Y-140965720D01*
X150384877Y-140965720D02*
X150194401Y-141013339D01*
X150194401Y-141013339D02*
X150051544Y-141013339D01*
X150051544Y-141013339D02*
X149861068Y-140965720D01*
X149861068Y-140965720D02*
X149765830Y-140918101D01*
X149765830Y-140918101D02*
X149670592Y-140822863D01*
X149670592Y-140822863D02*
X149622973Y-140680006D01*
X149622973Y-140680006D02*
X149622973Y-140584768D01*
X149622973Y-140584768D02*
X149670592Y-140441911D01*
X149670592Y-140441911D02*
X149718211Y-140394292D01*
X150527734Y-139394292D02*
X150575354Y-139441911D01*
X150575354Y-139441911D02*
X150622973Y-139584768D01*
X150622973Y-139584768D02*
X150622973Y-139680006D01*
X150622973Y-139680006D02*
X150575354Y-139822863D01*
X150575354Y-139822863D02*
X150480115Y-139918101D01*
X150480115Y-139918101D02*
X150384877Y-139965720D01*
X150384877Y-139965720D02*
X150194401Y-140013339D01*
X150194401Y-140013339D02*
X150051544Y-140013339D01*
X150051544Y-140013339D02*
X149861068Y-139965720D01*
X149861068Y-139965720D02*
X149765830Y-139918101D01*
X149765830Y-139918101D02*
X149670592Y-139822863D01*
X149670592Y-139822863D02*
X149622973Y-139680006D01*
X149622973Y-139680006D02*
X149622973Y-139584768D01*
X149622973Y-139584768D02*
X149670592Y-139441911D01*
X149670592Y-139441911D02*
X149718211Y-139394292D01*
X153045355Y-141965719D02*
X153092974Y-141822862D01*
X153092974Y-141822862D02*
X153092974Y-141584767D01*
X153092974Y-141584767D02*
X153045355Y-141489529D01*
X153045355Y-141489529D02*
X152997735Y-141441910D01*
X152997735Y-141441910D02*
X152902497Y-141394291D01*
X152902497Y-141394291D02*
X152807259Y-141394291D01*
X152807259Y-141394291D02*
X152712021Y-141441910D01*
X152712021Y-141441910D02*
X152664402Y-141489529D01*
X152664402Y-141489529D02*
X152616783Y-141584767D01*
X152616783Y-141584767D02*
X152569164Y-141775243D01*
X152569164Y-141775243D02*
X152521545Y-141870481D01*
X152521545Y-141870481D02*
X152473926Y-141918100D01*
X152473926Y-141918100D02*
X152378688Y-141965719D01*
X152378688Y-141965719D02*
X152283450Y-141965719D01*
X152283450Y-141965719D02*
X152188212Y-141918100D01*
X152188212Y-141918100D02*
X152140593Y-141870481D01*
X152140593Y-141870481D02*
X152092974Y-141775243D01*
X152092974Y-141775243D02*
X152092974Y-141537148D01*
X152092974Y-141537148D02*
X152140593Y-141394291D01*
X152997735Y-140394291D02*
X153045355Y-140441910D01*
X153045355Y-140441910D02*
X153092974Y-140584767D01*
X153092974Y-140584767D02*
X153092974Y-140680005D01*
X153092974Y-140680005D02*
X153045355Y-140822862D01*
X153045355Y-140822862D02*
X152950116Y-140918100D01*
X152950116Y-140918100D02*
X152854878Y-140965719D01*
X152854878Y-140965719D02*
X152664402Y-141013338D01*
X152664402Y-141013338D02*
X152521545Y-141013338D01*
X152521545Y-141013338D02*
X152331069Y-140965719D01*
X152331069Y-140965719D02*
X152235831Y-140918100D01*
X152235831Y-140918100D02*
X152140593Y-140822862D01*
X152140593Y-140822862D02*
X152092974Y-140680005D01*
X152092974Y-140680005D02*
X152092974Y-140584767D01*
X152092974Y-140584767D02*
X152140593Y-140441910D01*
X152140593Y-140441910D02*
X152188212Y-140394291D01*
X153092974Y-139965719D02*
X152092974Y-139965719D01*
X153092974Y-139394291D02*
X152521545Y-139822862D01*
X152092974Y-139394291D02*
X152664402Y-139965719D01*
X155592974Y-142584767D02*
X154592974Y-142584767D01*
X154592974Y-142584767D02*
X155307259Y-142251434D01*
X155307259Y-142251434D02*
X154592974Y-141918101D01*
X154592974Y-141918101D02*
X155592974Y-141918101D01*
X154592974Y-141251434D02*
X154592974Y-141060958D01*
X154592974Y-141060958D02*
X154640593Y-140965720D01*
X154640593Y-140965720D02*
X154735831Y-140870482D01*
X154735831Y-140870482D02*
X154926307Y-140822863D01*
X154926307Y-140822863D02*
X155259640Y-140822863D01*
X155259640Y-140822863D02*
X155450116Y-140870482D01*
X155450116Y-140870482D02*
X155545355Y-140965720D01*
X155545355Y-140965720D02*
X155592974Y-141060958D01*
X155592974Y-141060958D02*
X155592974Y-141251434D01*
X155592974Y-141251434D02*
X155545355Y-141346672D01*
X155545355Y-141346672D02*
X155450116Y-141441910D01*
X155450116Y-141441910D02*
X155259640Y-141489529D01*
X155259640Y-141489529D02*
X154926307Y-141489529D01*
X154926307Y-141489529D02*
X154735831Y-141441910D01*
X154735831Y-141441910D02*
X154640593Y-141346672D01*
X154640593Y-141346672D02*
X154592974Y-141251434D01*
X155545355Y-140441910D02*
X155592974Y-140299053D01*
X155592974Y-140299053D02*
X155592974Y-140060958D01*
X155592974Y-140060958D02*
X155545355Y-139965720D01*
X155545355Y-139965720D02*
X155497735Y-139918101D01*
X155497735Y-139918101D02*
X155402497Y-139870482D01*
X155402497Y-139870482D02*
X155307259Y-139870482D01*
X155307259Y-139870482D02*
X155212021Y-139918101D01*
X155212021Y-139918101D02*
X155164402Y-139965720D01*
X155164402Y-139965720D02*
X155116783Y-140060958D01*
X155116783Y-140060958D02*
X155069164Y-140251434D01*
X155069164Y-140251434D02*
X155021545Y-140346672D01*
X155021545Y-140346672D02*
X154973926Y-140394291D01*
X154973926Y-140394291D02*
X154878688Y-140441910D01*
X154878688Y-140441910D02*
X154783450Y-140441910D01*
X154783450Y-140441910D02*
X154688212Y-140394291D01*
X154688212Y-140394291D02*
X154640593Y-140346672D01*
X154640593Y-140346672D02*
X154592974Y-140251434D01*
X154592974Y-140251434D02*
X154592974Y-140013339D01*
X154592974Y-140013339D02*
X154640593Y-139870482D01*
X155592974Y-139441910D02*
X154592974Y-139441910D01*
%TO.C,D11*%
D12*
X231002424Y-141378396D02*
X231401448Y-141406297D01*
X231401448Y-141406297D02*
X231363090Y-141954959D01*
X231401448Y-141406297D02*
X231439816Y-140857638D01*
X231401448Y-141406297D02*
X232027891Y-141049126D01*
X231972086Y-141847180D02*
X231401448Y-141406297D01*
X231999989Y-141448149D02*
X232498770Y-141483030D01*
X232027891Y-141049126D02*
X231972086Y-141847180D01*
%TO.C,D12*%
X232327796Y-122424677D02*
X232726820Y-122452578D01*
X232726820Y-122452578D02*
X232688462Y-123001240D01*
X232726820Y-122452578D02*
X232765188Y-121903919D01*
X232726820Y-122452578D02*
X233353263Y-122095407D01*
X233297458Y-122893461D02*
X232726820Y-122452578D01*
X233325361Y-122494430D02*
X233824142Y-122529311D01*
X233353263Y-122095407D02*
X233297458Y-122893461D01*
%TO.C,JST1*%
D13*
X133840152Y-145670134D02*
X134840152Y-145670134D01*
X133840152Y-146590134D02*
X133840152Y-145670134D01*
X133840152Y-150790134D02*
X133840152Y-151790134D01*
X133840152Y-151790134D02*
X134840151Y-151790133D01*
X141660152Y-145670134D02*
X140660152Y-145670134D01*
X141660152Y-150870134D02*
X141660152Y-151790134D01*
X141660152Y-151790134D02*
X140660152Y-151790134D01*
X141660153Y-146590134D02*
X141660152Y-145670134D01*
D12*
X142200152Y-147730134D02*
X143200152Y-147730134D01*
X142700152Y-147230134D02*
X142700150Y-148230135D01*
X142700152Y-150230134D02*
X142700150Y-149230133D01*
%TO.C,MCU1*%
D13*
X141068147Y-132175134D02*
X143728151Y-132175136D01*
X141068149Y-101575134D02*
X141068147Y-132175134D01*
X141068149Y-101575134D02*
X143728149Y-101575132D01*
X143728149Y-101575132D02*
X143728151Y-132175136D01*
X156308148Y-101575133D02*
X156308149Y-132175135D01*
X156308148Y-101575133D02*
X158968149Y-101575134D01*
X156308149Y-104175135D02*
X158968149Y-104175135D01*
X156308149Y-132175135D02*
X158968150Y-132175135D01*
X158968149Y-101575134D02*
X158968150Y-132175135D01*
%TO.C,SSD1306*%
X144368152Y-142205134D02*
X154368150Y-142205135D01*
X154368151Y-144605134D01*
X144368152Y-144605134D01*
X144368152Y-142205134D01*
%TO.C,D9*%
D12*
X211268156Y-112105132D02*
X211668156Y-112105132D01*
X211668156Y-112105132D02*
X211668156Y-111555132D01*
X211668156Y-112105132D02*
X211668156Y-112655132D01*
X211668156Y-112105132D02*
X212268156Y-111705132D01*
X212268155Y-112505132D02*
X211668156Y-112105132D01*
X212268156Y-111705132D02*
X212268155Y-112505132D01*
X212268156Y-112105132D02*
X212768156Y-112105132D01*
%TO.C,D15*%
X253290160Y-136768095D02*
X253684083Y-136837554D01*
X253684083Y-136837554D02*
X253588577Y-137379198D01*
X253684083Y-136837554D02*
X253779590Y-136295910D01*
X253684083Y-136837554D02*
X254344427Y-136547820D01*
X254205508Y-137335666D02*
X253684083Y-136837554D01*
X254274968Y-136941743D02*
X254767372Y-137028567D01*
X254344427Y-136547820D02*
X254205508Y-137335666D01*
%TO.C,D3*%
X173268154Y-125105135D02*
X173668154Y-125105135D01*
X173668154Y-125105135D02*
X173668154Y-124555135D01*
X173668154Y-125105135D02*
X173668154Y-125655135D01*
X173668154Y-125105135D02*
X174268154Y-124705135D01*
X174268153Y-125505135D02*
X173668154Y-125105135D01*
X174268154Y-124705135D02*
X174268153Y-125505135D01*
X174268154Y-125105135D02*
X174768154Y-125105135D01*
%TO.C,D8*%
X211268147Y-131105137D02*
X211668147Y-131105137D01*
X211668147Y-131105137D02*
X211668147Y-130555137D01*
X211668147Y-131105137D02*
X211668147Y-131655137D01*
X211668147Y-131105137D02*
X212268147Y-130705137D01*
X212268146Y-131505137D02*
X211668147Y-131105137D01*
X212268147Y-130705137D02*
X212268146Y-131505137D01*
X212268147Y-131105137D02*
X212768147Y-131105137D01*
%TO.C,D5*%
X192268153Y-140105137D02*
X192668153Y-140105137D01*
X192668153Y-140105137D02*
X192668153Y-139555137D01*
X192668153Y-140105137D02*
X192668153Y-140655137D01*
X192668153Y-140105137D02*
X193268153Y-139705137D01*
X193268152Y-140505137D02*
X192668153Y-140105137D01*
X193268153Y-139705137D02*
X193268152Y-140505137D01*
X193268153Y-140105137D02*
X193768153Y-140105137D01*
%TO.C,D17*%
X269570431Y-153854720D02*
X269964354Y-153924179D01*
X269964354Y-153924179D02*
X269868848Y-154465823D01*
X269964354Y-153924179D02*
X270059861Y-153382535D01*
X269964354Y-153924179D02*
X270624698Y-153634445D01*
X270485779Y-154422291D02*
X269964354Y-153924179D01*
X270555239Y-154028368D02*
X271047643Y-154115192D01*
X270624698Y-153634445D02*
X270485779Y-154422291D01*
%TO.C,D16*%
X266271119Y-172566068D02*
X266665042Y-172635527D01*
X266665042Y-172635527D02*
X266569536Y-173177171D01*
X266665042Y-172635527D02*
X266760549Y-172093883D01*
X266665042Y-172635527D02*
X267325386Y-172345793D01*
X267186467Y-173133639D02*
X266665042Y-172635527D01*
X267255927Y-172739716D02*
X267748331Y-172826540D01*
X267325386Y-172345793D02*
X267186467Y-173133639D01*
%TO.C,D20*%
X158804384Y-191425225D02*
X159150794Y-191225225D01*
X159150794Y-191225225D02*
X158875794Y-190748911D01*
X159150794Y-191225225D02*
X159425794Y-191701539D01*
X159150794Y-191225225D02*
X159470409Y-190578815D01*
X159470409Y-190578815D02*
X159870408Y-191271635D01*
X159670409Y-190925225D02*
X160103422Y-190675225D01*
X159870408Y-191271635D02*
X159150794Y-191225225D01*
%TO.C,D18*%
X195218156Y-181055139D02*
X195618156Y-181055139D01*
X195618156Y-181055139D02*
X195618156Y-180505139D01*
X195618156Y-181055139D02*
X195618156Y-181605139D01*
X195618156Y-181055139D02*
X196218156Y-180655139D01*
X196218155Y-181455139D02*
X195618156Y-181055139D01*
X196218156Y-180655139D02*
X196218155Y-181455139D01*
X196218156Y-181055139D02*
X196718156Y-181055139D01*
%TO.C,SW25*%
D13*
X142440154Y-152907137D02*
X142440153Y-164707136D01*
X146540154Y-152907137D02*
X142440154Y-152907137D01*
X146540154Y-164707137D02*
X142440153Y-164707136D01*
X148040152Y-158807137D02*
X149040156Y-158807137D01*
X148540154Y-158307135D02*
X148540154Y-159307139D01*
X150540154Y-152907137D02*
X154640155Y-152907138D01*
X154640154Y-157507136D02*
X154640154Y-160107138D01*
X154640154Y-162307138D02*
X154640154Y-164707137D01*
X154640154Y-164707137D02*
X150540154Y-164707137D01*
X154640155Y-152907138D02*
X154640154Y-155307137D01*
X151540154Y-158807137D02*
G75*
G02*
X145540154Y-158807137I-3000000J0D01*
G01*
X145540154Y-158807137D02*
G75*
G02*
X151540154Y-158807137I3000000J0D01*
G01*
%TO.C,D4*%
D12*
X192268155Y-159105135D02*
X192668155Y-159105135D01*
X192668155Y-159105135D02*
X192668155Y-158555135D01*
X192668155Y-159105135D02*
X192668155Y-159655135D01*
X192668155Y-159105135D02*
X193268155Y-158705135D01*
X193268154Y-159505135D02*
X192668155Y-159105135D01*
X193268155Y-158705135D02*
X193268154Y-159505135D01*
X193268155Y-159105135D02*
X193768155Y-159105135D01*
%TO.C,D10*%
X229677048Y-160332113D02*
X230076072Y-160360014D01*
X230076072Y-160360014D02*
X230037714Y-160908676D01*
X230076072Y-160360014D02*
X230114440Y-159811355D01*
X230076072Y-160360014D02*
X230702515Y-160002843D01*
X230646710Y-160800897D02*
X230076072Y-160360014D01*
X230674613Y-160401866D02*
X231173394Y-160436747D01*
X230702515Y-160002843D02*
X230646710Y-160800897D01*
%TO.C,D19*%
X176329422Y-183840699D02*
X176715792Y-183737172D01*
X176715792Y-183737172D02*
X176573440Y-183205911D01*
X176715792Y-183737172D02*
X176858142Y-184268432D01*
X176715792Y-183737172D02*
X177191821Y-183195512D01*
X177191821Y-183195512D02*
X177398875Y-183968251D01*
X177295347Y-183581880D02*
X177778310Y-183452471D01*
X177398875Y-183968251D02*
X176715792Y-183737172D01*
%TO.C,J1*%
D10*
X133776152Y-169225135D02*
X145776153Y-169225135D01*
X133776154Y-175225135D02*
X133776152Y-169225135D01*
X145776152Y-175225135D02*
X133776154Y-175225135D01*
X145776153Y-169225135D02*
X145776152Y-175225135D01*
%TO.C,D7*%
D12*
X211268159Y-150105133D02*
X211668159Y-150105133D01*
X211668159Y-150105133D02*
X211668159Y-149555133D01*
X211668159Y-150105133D02*
X211668159Y-150655133D01*
X211668159Y-150105133D02*
X212268159Y-149705133D01*
X212268158Y-150505133D02*
X211668159Y-150105133D01*
X212268159Y-149705133D02*
X212268158Y-150505133D01*
X212268159Y-150105133D02*
X212768159Y-150105133D01*
%TO.C,RST1*%
X133510160Y-166705135D02*
X133510158Y-166955136D01*
X133510161Y-162505136D02*
X133510159Y-162255133D01*
X133760159Y-162255137D02*
X133510159Y-162255133D01*
X133760159Y-166955132D02*
X133510158Y-166955136D01*
X136760159Y-162255138D02*
X137010160Y-162255134D01*
X136760159Y-166955133D02*
X137010159Y-166955137D01*
X137010157Y-166705134D02*
X137010159Y-166955137D01*
X137010158Y-162505135D02*
X137010160Y-162255134D01*
%TO.C,D21*%
X143808982Y-203291844D02*
X144091825Y-203009001D01*
X144091825Y-203009001D02*
X143702916Y-202620094D01*
X144091825Y-203009001D02*
X144233246Y-202301895D01*
X144091825Y-203009001D02*
X144480734Y-203397910D01*
X144233246Y-202301895D02*
X144798931Y-202867580D01*
X144516089Y-202584737D02*
X144869642Y-202231184D01*
X144798931Y-202867580D02*
X144091825Y-203009001D01*
%TO.C,D2*%
X173268154Y-144105132D02*
X173668154Y-144105132D01*
X173668154Y-144105132D02*
X173668154Y-143555132D01*
X173668154Y-144105132D02*
X173668154Y-144655132D01*
X173668154Y-144105132D02*
X174268154Y-143705132D01*
X174268153Y-144505132D02*
X173668154Y-144105132D01*
X174268154Y-143705132D02*
X174268153Y-144505132D01*
X174268154Y-144105132D02*
X174768154Y-144105132D01*
%TO.C,D13*%
X246691531Y-174190793D02*
X247085454Y-174260252D01*
X247085454Y-174260252D02*
X246989948Y-174801896D01*
X247085454Y-174260252D02*
X247180961Y-173718608D01*
X247085454Y-174260252D02*
X247745798Y-173970518D01*
X247606879Y-174758364D02*
X247085454Y-174260252D01*
X247676339Y-174364441D02*
X248168743Y-174451265D01*
X247745798Y-173970518D02*
X247606879Y-174758364D01*
%TO.C,D14*%
X249990845Y-155479444D02*
X250384768Y-155548903D01*
X250384768Y-155548903D02*
X250289262Y-156090547D01*
X250384768Y-155548903D02*
X250480275Y-155007259D01*
X250384768Y-155548903D02*
X251045112Y-155259169D01*
X250906193Y-156047015D02*
X250384768Y-155548903D01*
X250975653Y-155653092D02*
X251468057Y-155739916D01*
X251045112Y-155259169D02*
X250906193Y-156047015D01*
%TO.C,D6*%
X192268155Y-121105131D02*
X192668155Y-121105131D01*
X192668155Y-121105131D02*
X192668155Y-120555131D01*
X192668155Y-121105131D02*
X192668155Y-121655131D01*
X192668155Y-121105131D02*
X193268155Y-120705131D01*
X193268154Y-121505131D02*
X192668155Y-121105131D01*
X193268155Y-120705131D02*
X193268154Y-121505131D01*
X193268155Y-121105131D02*
X193768155Y-121105131D01*
%TO.C,PWR1*%
D13*
X133856154Y-106155134D02*
X133856154Y-111855133D01*
X134866153Y-112455133D02*
X135656155Y-112455133D01*
X135656154Y-105555133D02*
X134866152Y-105555132D01*
X136706154Y-107405133D02*
X136706154Y-109105133D01*
X136706154Y-110405133D02*
X136706154Y-110605133D01*
%TO.C,D1*%
D12*
X173268156Y-163105135D02*
X173668156Y-163105135D01*
X173668156Y-163105135D02*
X173668156Y-162555135D01*
X173668156Y-163105135D02*
X173668156Y-163655135D01*
X173668156Y-163105135D02*
X174268156Y-162705135D01*
X174268155Y-163505135D02*
X173668156Y-163105135D01*
X174268156Y-162705135D02*
X174268155Y-163505135D01*
X174268156Y-163105135D02*
X174768156Y-163105135D01*
%TO.C,D22*%
X153080184Y-151817278D02*
X153480184Y-151817278D01*
X153480184Y-151817278D02*
X153480184Y-151267278D01*
X153480184Y-151817278D02*
X153480184Y-152367278D01*
X153480184Y-151817278D02*
X154080184Y-151417278D01*
X154080183Y-152217278D02*
X153480184Y-151817278D01*
X154080184Y-151417278D02*
X154080183Y-152217278D01*
X154080184Y-151817278D02*
X154580184Y-151817278D01*
%TO.C,DISP1*%
D13*
X143608155Y-135975132D02*
X143608155Y-138635132D01*
X156428155Y-135975132D02*
X143608155Y-135975132D01*
X156428155Y-135975132D02*
X156428156Y-138635131D01*
X156428156Y-138635131D02*
X143608155Y-138635132D01*
%TO.C,S13*%
D10*
X242272960Y-163257408D02*
X242359786Y-162765003D01*
X242984921Y-159219697D02*
X243089108Y-158628812D01*
X243089108Y-158628812D02*
X247501047Y-159406756D01*
X246704597Y-164038824D02*
X242272960Y-163257408D01*
X246826150Y-163349456D02*
X246704597Y-164038824D01*
X248113863Y-158925863D02*
X248273620Y-158019842D01*
X248852846Y-157614261D02*
X248273620Y-158019842D01*
X251025855Y-162566841D02*
X248760797Y-162167449D01*
X251605081Y-162161261D02*
X251025855Y-162566841D01*
X251807271Y-158135206D02*
X248852846Y-157614261D01*
X252212848Y-158714433D02*
X251807271Y-158135206D01*
X246829624Y-163329763D02*
G75*
G02*
X248760797Y-162167449I1546743J-384428D01*
G01*
X248113863Y-158925863D02*
G75*
G02*
X247501047Y-159406756I-546853J65960D01*
G01*
%TO.C,S34*%
D12*
X248468551Y-168431873D02*
X246617112Y-168105414D01*
X249452956Y-169874733D02*
X248468551Y-168431873D01*
%TO.C,S42*%
X140110812Y-198533017D02*
X138781450Y-199862376D01*
X141857365Y-198554228D02*
X140110812Y-198533017D01*
%TO.C,S7*%
D10*
X205018149Y-140105140D02*
X205018151Y-139605140D01*
X205018151Y-135405140D02*
X209498151Y-135405140D01*
X205018153Y-136005140D02*
X205018151Y-135405140D01*
X209518150Y-139405137D02*
X209518151Y-140105139D01*
X209518151Y-140105139D02*
X205018149Y-140105140D01*
X210018151Y-134825139D02*
X210018152Y-133905141D01*
X210518150Y-133405140D02*
X210018152Y-133905141D01*
X213518151Y-133405140D02*
X210518150Y-133405140D01*
X213518153Y-137905139D02*
X211218152Y-137905139D01*
X214018148Y-133905137D02*
X213518151Y-133405140D01*
X214018149Y-137405140D02*
X213518153Y-137905139D01*
X209518151Y-139385140D02*
G75*
G02*
X211218152Y-137905138I1590000J-109998D01*
G01*
X210018151Y-134825139D02*
G75*
G02*
X209498151Y-135405140I-549999J-30002D01*
G01*
%TO.C,S18*%
X188968148Y-171055137D02*
X188968150Y-170555137D01*
X188968150Y-166355137D02*
X193448150Y-166355137D01*
X188968152Y-166955137D02*
X188968150Y-166355137D01*
X193468149Y-170355134D02*
X193468150Y-171055136D01*
X193468150Y-171055136D02*
X188968148Y-171055137D01*
X193968150Y-165775136D02*
X193968151Y-164855138D01*
X194468149Y-164355137D02*
X193968151Y-164855138D01*
X197468150Y-164355137D02*
X194468149Y-164355137D01*
X197468152Y-168855136D02*
X195168151Y-168855136D01*
X197968147Y-164855134D02*
X197468150Y-164355137D01*
X197968148Y-168355137D02*
X197468152Y-168855136D01*
X193468150Y-170335137D02*
G75*
G02*
X195168151Y-168855135I1590000J-109998D01*
G01*
X193968150Y-165775136D02*
G75*
G02*
X193448150Y-166355137I-549999J-30002D01*
G01*
%TO.C,S5*%
X186018154Y-130105137D02*
X186018156Y-129605137D01*
X186018156Y-125405137D02*
X190498156Y-125405137D01*
X186018158Y-126005137D02*
X186018156Y-125405137D01*
X190518155Y-129405134D02*
X190518156Y-130105136D01*
X190518156Y-130105136D02*
X186018154Y-130105137D01*
X191018156Y-124825136D02*
X191018157Y-123905138D01*
X191518155Y-123405137D02*
X191018157Y-123905138D01*
X194518156Y-123405137D02*
X191518155Y-123405137D01*
X194518158Y-127905136D02*
X192218157Y-127905136D01*
X195018153Y-123905134D02*
X194518156Y-123405137D01*
X195018154Y-127405137D02*
X194518158Y-127905136D01*
X190518156Y-129385137D02*
G75*
G02*
X192218157Y-127905135I1590000J-109998D01*
G01*
X191018156Y-124825136D02*
G75*
G02*
X190498156Y-125405137I-549999J-30002D01*
G01*
%TO.C,S22*%
D12*
X174018151Y-157125135D02*
X172138151Y-157125135D01*
X175238151Y-158375135D02*
X174018151Y-157125135D01*
%TO.C,S27*%
X193018153Y-115125137D02*
X191138153Y-115125137D01*
X194238153Y-116375137D02*
X193018153Y-115125137D01*
%TO.C,S36*%
X255067181Y-131009185D02*
X253215742Y-130682726D01*
X256051586Y-132452045D02*
X255067181Y-131009185D01*
%TO.C,S39*%
X195968150Y-175075137D02*
X194088150Y-175075137D01*
X197188150Y-176325137D02*
X195968150Y-175075137D01*
%TO.C,S16*%
D10*
X261852549Y-161632688D02*
X261939375Y-161140283D01*
X262564510Y-157594977D02*
X262668697Y-157004092D01*
X262668697Y-157004092D02*
X267080636Y-157782036D01*
X266284186Y-162414104D02*
X261852549Y-161632688D01*
X266405739Y-161724736D02*
X266284186Y-162414104D01*
X267693452Y-157301143D02*
X267853209Y-156395122D01*
X268432435Y-155989541D02*
X267853209Y-156395122D01*
X270605444Y-160942121D02*
X268340386Y-160542729D01*
X271184670Y-160536541D02*
X270605444Y-160942121D01*
X271386860Y-156510486D02*
X268432435Y-155989541D01*
X271792437Y-157089713D02*
X271386860Y-156510486D01*
X266409213Y-161705043D02*
G75*
G02*
X268340386Y-160542729I1546743J-384428D01*
G01*
X267693452Y-157301143D02*
G75*
G02*
X267080636Y-157782036I-546853J65960D01*
G01*
%TO.C,S23*%
D12*
X174018153Y-138125131D02*
X172138153Y-138125131D01*
X175238153Y-139375131D02*
X174018153Y-138125131D01*
%TO.C,S1*%
D10*
X167018149Y-153105135D02*
X167018151Y-152605135D01*
X167018151Y-148405135D02*
X171498151Y-148405135D01*
X167018153Y-149005135D02*
X167018151Y-148405135D01*
X171518150Y-152405132D02*
X171518151Y-153105134D01*
X171518151Y-153105134D02*
X167018149Y-153105135D01*
X172018151Y-147825134D02*
X172018152Y-146905136D01*
X172518150Y-146405135D02*
X172018152Y-146905136D01*
X175518151Y-146405135D02*
X172518150Y-146405135D01*
X175518153Y-150905134D02*
X173218152Y-150905134D01*
X176018148Y-146905132D02*
X175518151Y-146405135D01*
X176018149Y-150405135D02*
X175518153Y-150905134D01*
X171518151Y-152385135D02*
G75*
G02*
X173218152Y-150905133I1590000J-109998D01*
G01*
X172018151Y-147825134D02*
G75*
G02*
X171498151Y-148405135I-549999J-30002D01*
G01*
%TO.C,S17*%
X265151864Y-142921345D02*
X265238690Y-142428940D01*
X265863825Y-138883634D02*
X265968012Y-138292749D01*
X265968012Y-138292749D02*
X270379951Y-139070693D01*
X269583501Y-143702761D02*
X265151864Y-142921345D01*
X269705054Y-143013393D02*
X269583501Y-143702761D01*
X270992767Y-138589800D02*
X271152524Y-137683779D01*
X271731750Y-137278198D02*
X271152524Y-137683779D01*
X273904759Y-142230778D02*
X271639701Y-141831386D01*
X274483985Y-141825198D02*
X273904759Y-142230778D01*
X274686175Y-137799143D02*
X271731750Y-137278198D01*
X275091752Y-138378370D02*
X274686175Y-137799143D01*
X269708528Y-142993700D02*
G75*
G02*
X271639701Y-141831386I1546743J-384428D01*
G01*
X270992767Y-138589800D02*
G75*
G02*
X270379951Y-139070693I-546853J65960D01*
G01*
%TO.C,S29*%
D12*
X212018154Y-125125137D02*
X210138154Y-125125137D01*
X213238154Y-126375137D02*
X212018154Y-125125137D01*
%TO.C,S3*%
D10*
X167018152Y-115105134D02*
X167018154Y-114605134D01*
X167018154Y-110405134D02*
X171498154Y-110405134D01*
X167018156Y-111005134D02*
X167018154Y-110405134D01*
X171518153Y-114405131D02*
X171518154Y-115105133D01*
X171518154Y-115105133D02*
X167018152Y-115105134D01*
X172018154Y-109825133D02*
X172018155Y-108905135D01*
X172518153Y-108405134D02*
X172018155Y-108905135D01*
X175518154Y-108405134D02*
X172518153Y-108405134D01*
X175518156Y-112905133D02*
X173218155Y-112905133D01*
X176018151Y-108905131D02*
X175518154Y-108405134D01*
X176018152Y-112405134D02*
X175518156Y-112905133D01*
X171518154Y-114385134D02*
G75*
G02*
X173218155Y-112905132I1590000J-109998D01*
G01*
X172018154Y-109825133D02*
G75*
G02*
X171498154Y-110405134I-549999J-30002D01*
G01*
%TO.C,S20*%
X146041724Y-181819654D02*
X149921518Y-179579654D01*
X146341724Y-182339270D02*
X146041724Y-181819654D01*
X148391722Y-185889975D02*
X148141724Y-185456961D01*
X149804863Y-177337604D02*
X149621852Y-178020614D01*
X150081851Y-178817359D02*
X149621852Y-178020614D01*
X151938836Y-183033753D02*
X152288838Y-183639974D01*
X152288838Y-183639974D02*
X148391722Y-185889975D01*
X152402940Y-175837603D02*
X149804863Y-177337604D01*
X153085951Y-176020615D02*
X152402940Y-175837603D01*
X154652940Y-179734718D02*
X152661082Y-180884717D01*
X154835952Y-179051704D02*
X154652940Y-179734718D01*
X150081851Y-178817359D02*
G75*
G02*
X149921518Y-179579655I-461312J-300982D01*
G01*
X151928839Y-183016436D02*
G75*
G02*
X152661082Y-180884717I1431979J699739D01*
G01*
%TO.C,S10*%
X224139840Y-149920493D02*
X224174719Y-149421711D01*
X224425842Y-145830480D02*
X224467696Y-145231942D01*
X224467696Y-145231942D02*
X228936783Y-145544454D01*
X228628879Y-150234397D02*
X224139840Y-149920493D01*
X228677708Y-149536102D02*
X228628879Y-150234397D01*
X229495974Y-145002138D02*
X229560151Y-144084378D01*
X230093809Y-143620470D02*
X229560151Y-144084378D01*
X232772599Y-148318783D02*
X230478202Y-148158341D01*
X233086503Y-143829743D02*
X230093809Y-143620470D01*
X233306257Y-147854879D02*
X232772599Y-148318783D01*
X233550407Y-144363404D02*
X233086503Y-143829743D01*
X228679104Y-149516150D02*
G75*
G02*
X230478202Y-148158339I1578453J-220642D01*
G01*
X229495974Y-145002138D02*
G75*
G02*
X228936783Y-145544451I-550753J8440D01*
G01*
%TO.C,S41*%
D12*
X156463902Y-185871396D02*
X154835774Y-186811396D01*
X158145453Y-186343928D02*
X156463902Y-185871396D01*
%TO.C,S12*%
D10*
X226790585Y-112013057D02*
X226825464Y-111514275D01*
X227076587Y-107923044D02*
X227118441Y-107324506D01*
X227118441Y-107324506D02*
X231587528Y-107637018D01*
X231279624Y-112326961D02*
X226790585Y-112013057D01*
X231328453Y-111628666D02*
X231279624Y-112326961D01*
X232146719Y-107094702D02*
X232210896Y-106176942D01*
X232744554Y-105713034D02*
X232210896Y-106176942D01*
X235423344Y-110411347D02*
X233128947Y-110250905D01*
X235737248Y-105922307D02*
X232744554Y-105713034D01*
X235957002Y-109947443D02*
X235423344Y-110411347D01*
X236201152Y-106455968D02*
X235737248Y-105922307D01*
X231329849Y-111608714D02*
G75*
G02*
X233128947Y-110250903I1578453J-220642D01*
G01*
X232146719Y-107094702D02*
G75*
G02*
X231587528Y-107637015I-550753J8440D01*
G01*
%TO.C,S6*%
X186018151Y-111105137D02*
X186018153Y-110605137D01*
X186018153Y-106405137D02*
X190498153Y-106405137D01*
X186018155Y-107005137D02*
X186018153Y-106405137D01*
X190518152Y-110405134D02*
X190518153Y-111105136D01*
X190518153Y-111105136D02*
X186018151Y-111105137D01*
X191018153Y-105825136D02*
X191018154Y-104905138D01*
X191518152Y-104405137D02*
X191018154Y-104905138D01*
X194518153Y-104405137D02*
X191518152Y-104405137D01*
X194518155Y-108905136D02*
X192218154Y-108905136D01*
X195018150Y-104905134D02*
X194518153Y-104405137D01*
X195018151Y-108405137D02*
X194518155Y-108905136D01*
X190518153Y-110385137D02*
G75*
G02*
X192218154Y-108905135I1590000J-109998D01*
G01*
X191018153Y-105825136D02*
G75*
G02*
X190498153Y-106405137I-549999J-30002D01*
G01*
%TO.C,S30*%
D12*
X212018151Y-106125132D02*
X210138151Y-106125132D01*
X213238151Y-107375132D02*
X212018151Y-106125132D01*
%TO.C,S21*%
D10*
X128995092Y-197316791D02*
X132162931Y-194148952D01*
X129419357Y-197741055D02*
X128995092Y-197316791D01*
X131469966Y-192013490D02*
X131469965Y-192720597D01*
X132120503Y-193371136D02*
X131469965Y-192720597D01*
X132318494Y-200640192D02*
X131964941Y-200286641D01*
X133591285Y-189892170D02*
X131469966Y-192013490D01*
X134298393Y-189892169D02*
X133591285Y-189892170D01*
X135005500Y-196963239D02*
X135500475Y-197458213D01*
X135500475Y-197458213D02*
X132318494Y-200640192D01*
X136773265Y-193074150D02*
X135146921Y-194700495D01*
X136773267Y-192367044D02*
X136773265Y-193074150D01*
X132120503Y-193371136D02*
G75*
G02*
X132162931Y-194148952I-367690J-410122D01*
G01*
X134991357Y-196949095D02*
G75*
G02*
X135146921Y-194700495I1202074J1046519D01*
G01*
%TO.C,S25*%
D12*
X193018153Y-153125130D02*
X191138153Y-153125130D01*
X194238153Y-154375130D02*
X193018153Y-153125130D01*
%TO.C,S24*%
X174018154Y-119125134D02*
X172138154Y-119125134D01*
X175238154Y-120375134D02*
X174018154Y-119125134D01*
%TO.C,S37*%
X268048140Y-166807153D02*
X266196701Y-166480694D01*
X269032545Y-168250013D02*
X268048140Y-166807153D01*
%TO.C,S33*%
X233493113Y-116511559D02*
X231617694Y-116380417D01*
X234622945Y-117843617D02*
X233493113Y-116511559D01*
%TO.C,S11*%
D10*
X225465212Y-130966773D02*
X225500091Y-130467991D01*
X225751214Y-126876760D02*
X225793068Y-126278222D01*
X225793068Y-126278222D02*
X230262155Y-126590734D01*
X229954251Y-131280677D02*
X225465212Y-130966773D01*
X230003080Y-130582382D02*
X229954251Y-131280677D01*
X230821346Y-126048418D02*
X230885523Y-125130658D01*
X231419181Y-124666750D02*
X230885523Y-125130658D01*
X234097971Y-129365063D02*
X231803574Y-129204621D01*
X234411875Y-124876023D02*
X231419181Y-124666750D01*
X234631629Y-128901159D02*
X234097971Y-129365063D01*
X234875779Y-125409684D02*
X234411875Y-124876023D01*
X230004476Y-130562430D02*
G75*
G02*
X231803574Y-129204619I1578453J-220642D01*
G01*
X230821346Y-126048418D02*
G75*
G02*
X230262155Y-126590731I-550753J8440D01*
G01*
%TO.C,S8*%
X205018152Y-121105137D02*
X205018154Y-120605137D01*
X205018154Y-116405137D02*
X209498154Y-116405137D01*
X205018156Y-117005137D02*
X205018154Y-116405137D01*
X209518153Y-120405134D02*
X209518154Y-121105136D01*
X209518154Y-121105136D02*
X205018152Y-121105137D01*
X210018154Y-115825136D02*
X210018155Y-114905138D01*
X210518153Y-114405137D02*
X210018155Y-114905138D01*
X213518154Y-114405137D02*
X210518153Y-114405137D01*
X213518156Y-118905136D02*
X211218155Y-118905136D01*
X214018151Y-114905134D02*
X213518154Y-114405137D01*
X214018152Y-118405137D02*
X213518156Y-118905136D01*
X209518154Y-120385137D02*
G75*
G02*
X211218155Y-118905135I1590000J-109998D01*
G01*
X210018154Y-115825136D02*
G75*
G02*
X209498154Y-116405137I-549999J-30002D01*
G01*
%TO.C,S14*%
X245572276Y-144546065D02*
X245659102Y-144053660D01*
X246284237Y-140508354D02*
X246388424Y-139917469D01*
X246388424Y-139917469D02*
X250800363Y-140695413D01*
X250003913Y-145327481D02*
X245572276Y-144546065D01*
X250125466Y-144638113D02*
X250003913Y-145327481D01*
X251413179Y-140214520D02*
X251572936Y-139308499D01*
X252152162Y-138902918D02*
X251572936Y-139308499D01*
X254325171Y-143855498D02*
X252060113Y-143456106D01*
X254904397Y-143449918D02*
X254325171Y-143855498D01*
X255106587Y-139423863D02*
X252152162Y-138902918D01*
X255512164Y-140003090D02*
X255106587Y-139423863D01*
X250128940Y-144618420D02*
G75*
G02*
X252060113Y-143456106I1546743J-384428D01*
G01*
X251413179Y-140214520D02*
G75*
G02*
X250800363Y-140695413I-546853J65960D01*
G01*
%TO.C,S26*%
D12*
X193018156Y-134125137D02*
X191138156Y-134125137D01*
X194238156Y-135375137D02*
X193018156Y-134125137D01*
%TO.C,S15*%
D10*
X248871590Y-125834720D02*
X248958416Y-125342315D01*
X249583551Y-121797009D02*
X249687738Y-121206124D01*
X249687738Y-121206124D02*
X254099677Y-121984068D01*
X253303227Y-126616136D02*
X248871590Y-125834720D01*
X253424780Y-125926768D02*
X253303227Y-126616136D01*
X254712493Y-121503175D02*
X254872250Y-120597154D01*
X255451476Y-120191573D02*
X254872250Y-120597154D01*
X257624485Y-125144153D02*
X255359427Y-124744761D01*
X258203711Y-124738573D02*
X257624485Y-125144153D01*
X258405901Y-120712518D02*
X255451476Y-120191573D01*
X258811478Y-121291745D02*
X258405901Y-120712518D01*
X253428254Y-125907075D02*
G75*
G02*
X255359427Y-124744761I1546743J-384428D01*
G01*
X254712493Y-121503175D02*
G75*
G02*
X254099677Y-121984068I-546853J65960D01*
G01*
%TO.C,S32*%
D12*
X232167740Y-135465275D02*
X230292321Y-135334133D01*
X233297572Y-136797333D02*
X232167740Y-135465275D01*
%TO.C,S19*%
D10*
X166487748Y-171259209D02*
X170815095Y-170099699D01*
X166643040Y-171838765D02*
X166487748Y-171259209D01*
X167704197Y-175799062D02*
X167574787Y-175316098D01*
X171167260Y-169404876D02*
X170929147Y-168516225D01*
X171282701Y-167903853D02*
X170929147Y-168516225D01*
X171869688Y-173958227D02*
X172050863Y-174634375D01*
X172050863Y-174634375D02*
X167704197Y-175799062D01*
X174180479Y-167127396D02*
X171282701Y-167903853D01*
X174792851Y-167480948D02*
X174180479Y-167127396D01*
X175345163Y-171474062D02*
X173123535Y-172069346D01*
X175698718Y-170861689D02*
X175345163Y-171474062D01*
X171167260Y-169404876D02*
G75*
G02*
X170815095Y-170099698I-523491J-171330D01*
G01*
X171864513Y-173938908D02*
G75*
G02*
X173123535Y-172069344I1564290J305273D01*
G01*
%TO.C,S28*%
D12*
X212018151Y-144125140D02*
X210138151Y-144125140D01*
X213238151Y-145375140D02*
X212018151Y-144125140D01*
%TO.C,S2*%
D10*
X167018151Y-134105131D02*
X167018153Y-133605131D01*
X167018153Y-129405131D02*
X171498153Y-129405131D01*
X167018155Y-130005131D02*
X167018153Y-129405131D01*
X171518152Y-133405128D02*
X171518153Y-134105130D01*
X171518153Y-134105130D02*
X167018151Y-134105131D01*
X172018153Y-128825130D02*
X172018154Y-127905132D01*
X172518152Y-127405131D02*
X172018154Y-127905132D01*
X175518153Y-127405131D02*
X172518152Y-127405131D01*
X175518155Y-131905130D02*
X173218154Y-131905130D01*
X176018150Y-127905128D02*
X175518153Y-127405131D01*
X176018151Y-131405131D02*
X175518155Y-131905130D01*
X171518153Y-133385131D02*
G75*
G02*
X173218154Y-131905129I1590000J-109998D01*
G01*
X172018153Y-128825130D02*
G75*
G02*
X171498153Y-129405131I-549999J-30002D01*
G01*
%TO.C,S40*%
D12*
X175506131Y-177870351D02*
X173690189Y-178356929D01*
X177008083Y-178761998D02*
X175506131Y-177870351D01*
%TO.C,S9*%
D10*
X205018149Y-102105132D02*
X205018151Y-101605132D01*
X205018151Y-97405132D02*
X209498151Y-97405132D01*
X205018153Y-98005132D02*
X205018151Y-97405132D01*
X209518150Y-101405129D02*
X209518151Y-102105131D01*
X209518151Y-102105131D02*
X205018149Y-102105132D01*
X210018151Y-96825131D02*
X210018152Y-95905133D01*
X210518150Y-95405132D02*
X210018152Y-95905133D01*
X213518151Y-95405132D02*
X210518150Y-95405132D01*
X213518153Y-99905131D02*
X211218152Y-99905131D01*
X214018148Y-95905129D02*
X213518151Y-95405132D01*
X214018149Y-99405132D02*
X213518153Y-99905131D01*
X209518151Y-101385132D02*
G75*
G02*
X211218152Y-99905130I1590000J-109998D01*
G01*
X210018151Y-96825131D02*
G75*
G02*
X209498151Y-97405132I-549999J-30002D01*
G01*
%TO.C,S31*%
D12*
X230842368Y-154418995D02*
X228966949Y-154287853D01*
X231972200Y-155751053D02*
X230842368Y-154418995D01*
%TO.C,S4*%
D10*
X186018151Y-149105130D02*
X186018153Y-148605130D01*
X186018153Y-144405130D02*
X190498153Y-144405130D01*
X186018155Y-145005130D02*
X186018153Y-144405130D01*
X190518152Y-148405127D02*
X190518153Y-149105129D01*
X190518153Y-149105129D02*
X186018151Y-149105130D01*
X191018153Y-143825129D02*
X191018154Y-142905131D01*
X191518152Y-142405130D02*
X191018154Y-142905131D01*
X194518153Y-142405130D02*
X191518152Y-142405130D01*
X194518155Y-146905129D02*
X192218154Y-146905129D01*
X195018150Y-142905127D02*
X194518153Y-142405130D01*
X195018151Y-146405130D02*
X194518155Y-146905129D01*
X190518153Y-148385130D02*
G75*
G02*
X192218154Y-146905128I1590000J-109998D01*
G01*
X191018153Y-143825129D02*
G75*
G02*
X190498153Y-144405130I-549999J-30002D01*
G01*
%TO.C,S35*%
D12*
X251767867Y-149720530D02*
X249916428Y-149394071D01*
X252752272Y-151163390D02*
X251767867Y-149720530D01*
%TO.C,S38*%
X271347455Y-148095810D02*
X269496016Y-147769351D01*
X272331860Y-149538670D02*
X271347455Y-148095810D01*
%TD*%
D14*
%TO.C,J1*%
X135276152Y-173975140D03*
X142276153Y-173975135D03*
X135276153Y-172225135D03*
X142276155Y-172225135D03*
D15*
X144076153Y-176075135D03*
X144076153Y-170125135D03*
X140076154Y-176075136D03*
X140076153Y-170125135D03*
X137076152Y-176075135D03*
X137076152Y-170125134D03*
X145576154Y-174325135D03*
X145576153Y-171875135D03*
%TD*%
M02*
