%TF.GenerationSoftware,KiCad,Pcbnew,10.0.4*%
%TF.CreationDate,2026-08-03T15:36:27-06:00*%
%TF.ProjectId,KLON -nice_view - Copy,4b4c4f4e-202d-46e6-9963-655f76696577,v1.0.0*%
%TF.SameCoordinates,Original*%
%TF.FileFunction,Paste,Top*%
%TF.FilePolarity,Positive*%
%FSLAX46Y46*%
G04 Gerber Fmt 4.6, Leading zero omitted, Abs format (unit mm)*
G04 Created by KiCad (PCBNEW 10.0.4) date 2026-08-03 15:36:27*
%MOMM*%
%LPD*%
G01*
G04 APERTURE LIST*
G04 Aperture macros list*
%AMRotRect*
0 Rectangle, with rotation*
0 The origin of the aperture is its center*
0 $1 length*
0 $2 width*
0 $3 Rotation angle, in degrees counterclockwise*
0 Add horizontal line*
21,1,$1,$2,0,0,$3*%
%AMOutline5P*
0 Free polygon, 5 corners , with rotation*
0 The origin of the aperture is its center*
0 number of corners: always 5*
0 $1 to $10 corner X, Y*
0 $11 Rotation angle, in degrees counterclockwise*
0 create outline with 5 corners*
4,1,5,$1,$2,$3,$4,$5,$6,$7,$8,$9,$10,$1,$2,$11*%
%AMOutline6P*
0 Free polygon, 6 corners , with rotation*
0 The origin of the aperture is its center*
0 number of corners: always 6*
0 $1 to $12 corner X, Y*
0 $13 Rotation angle, in degrees counterclockwise*
0 create outline with 6 corners*
4,1,6,$1,$2,$3,$4,$5,$6,$7,$8,$9,$10,$11,$12,$1,$2,$13*%
%AMOutline7P*
0 Free polygon, 7 corners , with rotation*
0 The origin of the aperture is its center*
0 number of corners: always 7*
0 $1 to $14 corner X, Y*
0 $15 Rotation angle, in degrees counterclockwise*
0 create outline with 7 corners*
4,1,7,$1,$2,$3,$4,$5,$6,$7,$8,$9,$10,$11,$12,$13,$14,$1,$2,$15*%
%AMOutline8P*
0 Free polygon, 8 corners , with rotation*
0 The origin of the aperture is its center*
0 number of corners: always 8*
0 $1 to $16 corner X, Y*
0 $17 Rotation angle, in degrees counterclockwise*
0 create outline with 8 corners*
4,1,8,$1,$2,$3,$4,$5,$6,$7,$8,$9,$10,$11,$12,$13,$14,$15,$16,$1,$2,$17*%
%AMFreePoly0*
4,1,6,0.600000,-1.000000,0.000000,-0.400000,-0.600000,-1.000000,-0.600000,0.250000,0.600000,0.250000,0.600000,-1.000000,0.600000,-1.000000,$1*%
%AMFreePoly1*
4,1,6,0.600000,-0.200000,0.600000,-0.400000,-0.600000,-0.400000,-0.600000,-0.200000,0.000000,0.400000,0.600000,-0.200000,0.600000,-0.200000,$1*%
%AMFreePoly2*
4,1,6,0.250000,0.000000,-0.250000,-0.625000,-0.500000,-0.625000,-0.500000,0.625000,-0.250000,0.625000,0.250000,0.000000,0.250000,0.000000,$1*%
%AMFreePoly3*
4,1,6,0.500000,-0.625000,-0.650000,-0.625000,-0.150000,0.000000,-0.650000,0.625000,0.500000,0.625000,0.500000,-0.625000,0.500000,-0.625000,$1*%
G04 Aperture macros list end*
%ADD10RotRect,0.900000X1.200000X356.000000*%
%ADD11FreePoly0,270.000000*%
%ADD12FreePoly1,270.000000*%
%ADD13FreePoly2,180.000000*%
%ADD14FreePoly2,0.000000*%
%ADD15FreePoly3,180.000000*%
%ADD16FreePoly3,0.000000*%
%ADD17R,0.900000X1.200000*%
%ADD18RotRect,0.900000X1.200000X350.000000*%
%ADD19FreePoly2,270.000000*%
%ADD20FreePoly3,270.000000*%
%ADD21RotRect,0.900000X1.200000X30.000000*%
%ADD22RotRect,0.900000X1.200000X15.000000*%
%ADD23R,1.000000X1.550000*%
%ADD24RotRect,0.900000X1.200000X45.000000*%
%ADD25R,0.800000X1.000000*%
%ADD26R,1.500000X0.700000*%
%ADD27R,1.200000X0.600000*%
%ADD28Outline5P,-1.300000X1.300000X1.300000X1.300000X1.300000X-0.117000X0.117000X-1.300000X-1.300000X-1.300000X350.000000*%
%ADD29RotRect,2.600000X2.600000X350.000000*%
%ADD30RotRect,2.550000X2.500000X170.000000*%
%ADD31Outline5P,-1.275000X1.250000X1.275000X1.250000X1.275000X-0.750000X0.775000X-1.250000X-1.275000X-1.250000X170.000000*%
%ADD32RotRect,2.550000X2.500000X225.000000*%
%ADD33Outline5P,-1.275000X1.250000X1.275000X1.250000X1.275000X-0.750000X0.775000X-1.250000X-1.275000X-1.250000X225.000000*%
%ADD34Outline5P,-1.300000X1.300000X1.300000X1.300000X1.300000X-0.117000X0.117000X-1.300000X-1.300000X-1.300000X0.000000*%
%ADD35R,2.600000X2.600000*%
%ADD36R,2.550000X2.500000*%
%ADD37Outline5P,-1.275000X1.250000X1.275000X1.250000X1.275000X-0.750000X0.775000X-1.250000X-1.275000X-1.250000X180.000000*%
%ADD38Outline5P,-1.300000X1.300000X1.300000X1.300000X1.300000X-0.117000X0.117000X-1.300000X-1.300000X-1.300000X30.000000*%
%ADD39RotRect,2.600000X2.600000X30.000000*%
%ADD40Outline5P,-1.300000X1.300000X1.300000X1.300000X1.300000X-0.117000X0.117000X-1.300000X-1.300000X-1.300000X356.000000*%
%ADD41RotRect,2.600000X2.600000X356.000000*%
%ADD42RotRect,2.550000X2.500000X210.000000*%
%ADD43Outline5P,-1.275000X1.250000X1.275000X1.250000X1.275000X-0.750000X0.775000X-1.250000X-1.275000X-1.250000X210.000000*%
%ADD44Outline5P,-1.300000X1.300000X1.300000X1.300000X1.300000X-0.117000X0.117000X-1.300000X-1.300000X-1.300000X45.000000*%
%ADD45RotRect,2.600000X2.600000X45.000000*%
%ADD46RotRect,2.550000X2.500000X176.000000*%
%ADD47Outline5P,-1.275000X1.250000X1.275000X1.250000X1.275000X-0.750000X0.775000X-1.250000X-1.275000X-1.250000X176.000000*%
%ADD48Outline5P,-1.300000X1.300000X1.300000X1.300000X1.300000X-1.300000X1.040000X-1.300000X-1.300000X1.040000X0.000000*%
%ADD49Outline5P,-1.300000X1.300000X1.300000X1.300000X1.300000X-0.117000X0.117000X-1.300000X-1.300000X-1.300000X15.000000*%
%ADD50RotRect,2.600000X2.600000X15.000000*%
%ADD51RotRect,2.550000X2.500000X195.000000*%
%ADD52Outline5P,-1.275000X1.250000X1.275000X1.250000X1.275000X-0.750000X0.775000X-1.250000X-1.275000X-1.250000X195.000000*%
G04 APERTURE END LIST*
D10*
%TO.C,D11*%
X230104616Y-141315615D03*
X233396578Y-141545811D03*
%TD*%
%TO.C,D12*%
X231429988Y-122361896D03*
X234721950Y-122592092D03*
%TD*%
D11*
%TO.C,JST1*%
X138116152Y-149730134D03*
X138116152Y-147730134D03*
D12*
X137100153Y-149730133D03*
X137100153Y-147730135D03*
%TD*%
D13*
%TO.C,MCU1*%
X155518149Y-102905135D03*
X155518149Y-105445134D03*
X155518150Y-107985133D03*
X155518149Y-110525134D03*
X155518151Y-113065135D03*
X155518149Y-115605134D03*
X155518148Y-118145135D03*
X155518149Y-120685134D03*
X155518150Y-123225135D03*
X155518149Y-125765134D03*
X155518149Y-128305133D03*
X155518150Y-130845132D03*
D14*
X144518148Y-130845133D03*
X144518149Y-128305133D03*
X144518149Y-125765134D03*
X144518148Y-123225135D03*
X144518149Y-120685134D03*
X144518147Y-118145133D03*
X144518149Y-115605134D03*
X144518150Y-113065133D03*
X144518149Y-110525134D03*
X144518148Y-107985133D03*
X144518149Y-105445134D03*
X144518149Y-102905135D03*
D15*
X154793149Y-102905133D03*
X154793149Y-105445134D03*
X154793149Y-107985134D03*
X154793148Y-110525133D03*
X154793149Y-113065134D03*
X154793149Y-115605134D03*
X154793149Y-118145133D03*
X154793148Y-120685135D03*
X154793151Y-123225134D03*
X154793149Y-125765134D03*
X154793149Y-128305135D03*
X154793151Y-130845134D03*
D16*
X145243147Y-130845133D03*
X145243149Y-128305135D03*
X145243149Y-125765134D03*
X145243149Y-123225134D03*
X145243150Y-120685135D03*
X145243149Y-118145134D03*
X145243149Y-115605134D03*
X145243149Y-113065135D03*
X145243150Y-110525133D03*
X145243147Y-107985134D03*
X145243149Y-105445134D03*
X145243149Y-102905133D03*
%TD*%
D17*
%TO.C,D9*%
X210368156Y-112105131D03*
X213668156Y-112105133D03*
%TD*%
D18*
%TO.C,D15*%
X252403833Y-136611812D03*
X255653699Y-137184850D03*
%TD*%
D17*
%TO.C,D3*%
X172368154Y-125105134D03*
X175668154Y-125105136D03*
%TD*%
%TO.C,D8*%
X210368147Y-131105136D03*
X213668147Y-131105138D03*
%TD*%
%TO.C,D5*%
X191368153Y-140105136D03*
X194668153Y-140105138D03*
%TD*%
D18*
%TO.C,D17*%
X268684104Y-153698437D03*
X271933970Y-154271475D03*
%TD*%
D19*
%TO.C,XX6*%
X150610182Y-146456872D03*
D20*
X150610182Y-147181872D03*
%TD*%
D18*
%TO.C,D16*%
X265384792Y-172409785D03*
X268634658Y-172982823D03*
%TD*%
D21*
%TO.C,D20*%
X158024961Y-191875226D03*
X160882845Y-190225224D03*
%TD*%
D17*
%TO.C,D18*%
X194318156Y-181055138D03*
X197618156Y-181055140D03*
%TD*%
%TO.C,D4*%
X191368155Y-159105134D03*
X194668155Y-159105136D03*
%TD*%
D10*
%TO.C,D10*%
X228779240Y-160269332D03*
X232071202Y-160499528D03*
%TD*%
D19*
%TO.C,XX5*%
X148116184Y-146456873D03*
D20*
X148116184Y-147181873D03*
%TD*%
D22*
%TO.C,D19*%
X175460088Y-184073635D03*
X178647644Y-183219535D03*
%TD*%
D19*
%TO.C,XX4*%
X145571183Y-146456876D03*
D20*
X145571183Y-147181876D03*
%TD*%
D17*
%TO.C,D7*%
X210368159Y-150105132D03*
X213668159Y-150105134D03*
%TD*%
D23*
%TO.C,RST1*%
X134410161Y-161980136D03*
X136110158Y-161980136D03*
X134410160Y-167230134D03*
X136110157Y-167230134D03*
%TD*%
D24*
%TO.C,D21*%
X143172584Y-203928241D03*
X145506040Y-201594787D03*
%TD*%
D17*
%TO.C,D2*%
X172368154Y-144105131D03*
X175668154Y-144105133D03*
%TD*%
D19*
%TO.C,XX7*%
X153155187Y-146456877D03*
D20*
X153155187Y-147181877D03*
%TD*%
D18*
%TO.C,D13*%
X245805204Y-174034510D03*
X249055070Y-174607548D03*
%TD*%
%TO.C,D14*%
X249104518Y-155323161D03*
X252354384Y-155896199D03*
%TD*%
D17*
%TO.C,D6*%
X191368155Y-121105130D03*
X194668155Y-121105132D03*
%TD*%
D25*
%TO.C,PWR1*%
X136366155Y-112655133D03*
X136366155Y-105355133D03*
X134156154Y-112655132D03*
X134156154Y-105355134D03*
D26*
X137016154Y-106755133D03*
X137016155Y-109755132D03*
X137016154Y-111255133D03*
%TD*%
D17*
%TO.C,D1*%
X172368156Y-163105134D03*
X175668156Y-163105136D03*
%TD*%
%TO.C,D22*%
X152180184Y-151817277D03*
X155480184Y-151817279D03*
%TD*%
D27*
%TO.C,DISP1*%
X144938153Y-135555132D03*
X147478156Y-135555131D03*
X152558154Y-135555131D03*
X155098155Y-135555132D03*
X144938156Y-134655133D03*
X147478155Y-134655135D03*
X152558154Y-134655133D03*
X155098154Y-134655133D03*
%TD*%
D28*
%TO.C,S13*%
X253164596Y-160659249D03*
D29*
X241408041Y-160820189D03*
%TD*%
D30*
%TO.C,S34*%
X241487715Y-167221271D03*
D31*
X253777258Y-171967433D03*
%TD*%
D32*
%TO.C,S42*%
X135115101Y-203557009D03*
D33*
X146051924Y-196212291D03*
%TD*%
D34*
%TO.C,S7*%
X215293151Y-135655140D03*
D35*
X203743151Y-137855140D03*
%TD*%
D34*
%TO.C,S18*%
X199243150Y-166605137D03*
D35*
X187693150Y-168805137D03*
%TD*%
D34*
%TO.C,S5*%
X196293156Y-125655137D03*
D35*
X184743156Y-127855137D03*
%TD*%
D36*
%TO.C,S22*%
X166933151Y-157145135D03*
D37*
X179860151Y-159685135D03*
%TD*%
D36*
%TO.C,S27*%
X185933153Y-115145137D03*
D37*
X198860153Y-117685137D03*
%TD*%
D30*
%TO.C,S36*%
X248086345Y-129798583D03*
D31*
X260375888Y-134544745D03*
%TD*%
D36*
%TO.C,S39*%
X188883150Y-175095137D03*
D37*
X201810150Y-177635137D03*
%TD*%
D28*
%TO.C,S16*%
X272744185Y-159034529D03*
D29*
X260987630Y-159195469D03*
%TD*%
D36*
%TO.C,S23*%
X166933153Y-138145131D03*
D37*
X179860153Y-140685131D03*
%TD*%
D34*
%TO.C,S1*%
X177293151Y-148655135D03*
D35*
X165743151Y-150855135D03*
%TD*%
D28*
%TO.C,S17*%
X276043500Y-140323186D03*
D29*
X264286945Y-140484126D03*
%TD*%
D36*
%TO.C,S29*%
X204933154Y-125145137D03*
D37*
X217860154Y-127685137D03*
%TD*%
D34*
%TO.C,S3*%
X177293154Y-110655134D03*
D35*
X165743154Y-112855134D03*
%TD*%
D38*
%TO.C,S20*%
X155065135Y-176898661D03*
D39*
X146162542Y-184578917D03*
%TD*%
D40*
%TO.C,S10*%
X234700224Y-146198077D03*
D41*
X223024898Y-147587033D03*
%TD*%
D42*
%TO.C,S41*%
X150338112Y-189431217D03*
D43*
X162803222Y-185167421D03*
%TD*%
D40*
%TO.C,S12*%
X237350969Y-108290641D03*
D41*
X225675643Y-109679597D03*
%TD*%
D34*
%TO.C,S6*%
X196293153Y-106655137D03*
D35*
X184743153Y-108855137D03*
%TD*%
D36*
%TO.C,S30*%
X204933151Y-106145132D03*
D37*
X217860151Y-108685132D03*
%TD*%
D44*
%TO.C,S21*%
X136437392Y-190228047D03*
D45*
X129825943Y-199950764D03*
%TD*%
D36*
%TO.C,S25*%
X185933153Y-153145130D03*
D37*
X198860153Y-155685130D03*
%TD*%
D36*
%TO.C,S24*%
X166933154Y-119145134D03*
D37*
X179860154Y-121685134D03*
%TD*%
D30*
%TO.C,S37*%
X261067304Y-165596551D03*
D31*
X273356847Y-170342713D03*
%TD*%
D46*
%TO.C,S33*%
X226423976Y-116037286D03*
D47*
X239142305Y-119472841D03*
%TD*%
D40*
%TO.C,S11*%
X236025596Y-127244357D03*
D41*
X224350270Y-128633313D03*
%TD*%
D34*
%TO.C,S8*%
X215293154Y-116655137D03*
D48*
X203743154Y-118855137D03*
%TD*%
D28*
%TO.C,S14*%
X256463912Y-141947906D03*
D29*
X244707357Y-142108846D03*
%TD*%
D36*
%TO.C,S26*%
X185933156Y-134145137D03*
D37*
X198860156Y-136685137D03*
%TD*%
D28*
%TO.C,S15*%
X259763226Y-123236561D03*
D29*
X248006671Y-123397501D03*
%TD*%
D46*
%TO.C,S32*%
X225098603Y-134991002D03*
D47*
X237816932Y-138426557D03*
%TD*%
D49*
%TO.C,S19*%
X176477340Y-168841325D03*
D50*
X165890298Y-173955722D03*
%TD*%
D36*
%TO.C,S28*%
X204933151Y-144145140D03*
D37*
X217860151Y-146685140D03*
%TD*%
D34*
%TO.C,S2*%
X177293153Y-129655131D03*
D35*
X165743153Y-131855131D03*
%TD*%
D51*
%TO.C,S40*%
X168667721Y-179723400D03*
D52*
X181811646Y-178831099D03*
%TD*%
D34*
%TO.C,S9*%
X215293151Y-97655132D03*
D35*
X203743151Y-99855132D03*
%TD*%
D46*
%TO.C,S31*%
X223773231Y-153944722D03*
D47*
X236491560Y-157380277D03*
%TD*%
D34*
%TO.C,S4*%
X196293153Y-144655130D03*
D35*
X184743153Y-146855130D03*
%TD*%
D30*
%TO.C,S35*%
X244787031Y-148509928D03*
D31*
X257076574Y-153256090D03*
%TD*%
D30*
%TO.C,S38*%
X264366619Y-146885208D03*
D31*
X276656162Y-151631370D03*
%TD*%
M02*
